<?xml version="1.0" encoding="utf-8"?>
<svg version="1.1" xmlns:xlink="http://www.w3.org/1999/xlink" width="20px" height="16px" xmlns="http://www.w3.org/2000/svg">
  <g transform="matrix(1 0 0 1 -45 -340 )">
    <path d="M 18.4654017857143 14.4375  C 18.5360863095238 14.3655303030303  18.5714285714286 14.280303030303  18.5714285714286 14.1818181818182  L 18.5714285714286 5.45454545454546  C 18.3333333333333 5.72727272727273  18.0766369047619 5.97727272727273  17.8013392857143 6.20454545454546  C 15.8072916666667 7.76515151515151  14.2224702380952 9.04545454545455  13.046875 10.0454545454545  C 12.6674107142857 10.3712121212121  12.358630952381 10.625  12.1205357142857 10.8068181818182  C 11.8824404761905 10.9886363636364  11.5606398809524 11.1723484848485  11.1551339285714 11.3579545454545  C 10.7496279761905 11.5435606060606  10.3683035714286 11.6363636363636  10.0111607142857 11.6363636363636  L 10 11.6363636363636  L 9.98883928571429 11.6363636363636  C 9.63169642857143 11.6363636363636  9.25037202380952 11.5435606060606  8.84486607142857 11.3579545454545  C 8.43936011904762 11.1723484848485  8.11755952380952 10.9886363636364  7.87946428571429 10.8068181818182  C 7.64136904761905 10.625  7.33258928571429 10.3712121212121  6.953125 10.0454545454545  C 5.77752976190476 9.04545454545455  4.19270833333333 7.76515151515151  2.19866071428571 6.20454545454546  C 1.9233630952381 5.97727272727273  1.66666666666667 5.72727272727273  1.42857142857143 5.45454545454546  L 1.42857142857143 14.1818181818182  C 1.42857142857143 14.280303030303  1.46391369047619 14.3655303030303  1.53459821428571 14.4375  C 1.60528273809524 14.5094696969697  1.6889880952381 14.5454545454545  1.78571428571429 14.5454545454545  L 18.2142857142857 14.5454545454545  C 18.3110119047619 14.5454545454545  18.3947172619048 14.5094696969697  18.4654017857143 14.4375  Z M 18.0524553571429 3.73295454545454  C 18.3984375 3.18371212121212  18.5714285714286 2.68560606060606  18.5714285714286 2.23863636363636  L 18.5714285714286 2.11363636363636  L 18.5714285714286 1.96022727272727  C 18.5714285714286 1.96022727272727  18.569568452381 1.91098484848485  18.5658482142857 1.8125  C 18.5621279761905 1.71401515151515  18.5509672619048 1.66666666666666  18.5323660714286 1.67045454545454  C 18.5137648809524 1.67424242424242  18.4933035714286 1.64015151515151  18.4709821428571 1.56818181818182  C 18.4486607142857 1.49621212121212  18.4151785714286 1.46780303030303  18.3705357142857 1.48295454545454  C 18.3258928571429 1.49810606060606  18.2738095238095 1.48863636363636  18.2142857142857 1.45454545454546  L 1.78571428571429 1.45454545454546  C 1.6889880952381 1.45454545454546  1.60528273809524 1.4905303030303  1.53459821428571 1.5625  C 1.46391369047619 1.6344696969697  1.42857142857143 1.71969696969697  1.42857142857143 1.81818181818182  C 1.42857142857143 3.09090909090909  1.97544642857143 4.16666666666666  3.06919642857143 5.04545454545454  C 4.50520833333333 6.1969696969697  5.99702380952381 7.39772727272727  7.54464285714286 8.64772727272727  C 7.58928571428571 8.68560606060606  7.71949404761905 8.79734848484848  7.93526785714286 8.98295454545455  C 8.15104166666667 9.16856060606061  8.32217261904762 9.31060606060606  8.44866071428571 9.40909090909091  C 8.57514880952381 9.50757575757576  8.74069940476191 9.62689393939394  8.9453125 9.76704545454545  C 9.14992559523809 9.90719696969697  9.33779761904762 10.0113636363636  9.50892857142857 10.0795454545455  C 9.68005952380952 10.1477272727273  9.84002976190476 10.1818181818182  9.98883928571429 10.1818181818182  L 10 10.1818181818182  L 10.0111607142857 10.1818181818182  C 10.1599702380952 10.1818181818182  10.3199404761905 10.1477272727273  10.4910714285714 10.0795454545455  C 10.6622023809524 10.0113636363636  10.8500744047619 9.90719696969697  11.0546875 9.76704545454545  C 11.2593005952381 9.62689393939394  11.4248511904762 9.50757575757576  11.5513392857143 9.40909090909091  C 11.6778273809524 9.31060606060606  11.8489583333333 9.16856060606061  12.0647321428571 8.98295454545455  C 12.280505952381 8.79734848484848  12.4107142857143 8.68560606060606  12.4553571428571 8.64772727272727  C 14.0029761904762 7.39772727272727  15.4947916666667 6.1969696969697  16.9308035714286 5.04545454545454  C 17.3325892857143 4.71969696969697  17.7064732142857 4.28219696969697  18.0524553571429 3.73295454545454  Z M 19.4754464285714 0.534090909090908  C 19.8251488095238 0.890151515151514  20 1.31818181818182  20 1.81818181818182  L 20 14.1818181818182  C 20 14.6818181818182  19.8251488095238 15.1098484848485  19.4754464285714 15.4659090909091  C 19.1257440476191 15.8219696969697  18.7053571428571 16  18.2142857142857 16  L 1.78571428571429 16  C 1.29464285714286 16  0.874255952380952 15.8219696969697  0.524553571428571 15.4659090909091  C 0.17485119047619 15.1098484848485  0 14.6818181818182  0 14.1818181818182  L 0 1.81818181818182  C 0 1.31818181818182  0.17485119047619 0.890151515151514  0.524553571428571 0.534090909090908  C 0.874255952380952 0.178030303030301  1.29464285714286 0  1.78571428571429 0  L 18.2142857142857 0  C 18.7053571428571 0  19.1257440476191 0.178030303030301  19.4754464285714 0.534090909090908  Z " fill-rule="nonzero" fill="#000000" stroke="none" transform="matrix(1 0 0 1 45 340 )" />
  </g>
</svg>