<?xml version="1.0" encoding="UTF-8"?>
<svg width="18px" height="18px" viewBox="0 0 18 18" version="1.1" xmlns="http://www.w3.org/2000/svg" xmlns:xlink="http://www.w3.org/1999/xlink">
    <title>icon/3.文件/通用文件</title>
    <g id="icon/3.文件/通用文件" stroke="none" stroke-width="1" fill="none" fill-rule="evenodd">
        <g id="通用文件" transform="translate(1.000000, 1.000000)">
            <rect id="矩形" x="0" y="0" width="16" height="16"></rect>
            <path d="M1.6,0.8 L6.77662922,0.8 C7.29621793,0.8 7.7834519,1.05230548 8.08330663,1.47663975 L8.34084508,1.84109086 C8.6406998,2.26542513 9.12793377,2.51773061 9.64752249,2.51773061 L14.4,2.51773061 C15.2836556,2.51773061 16,3.23407501 16,4.11773061 L16,13.6 C16,14.4836556 15.2836556,15.2 14.4,15.2 L1.6,15.2 C0.7163444,15.2 -1.13828005e-16,14.4836556 0,13.6 L0,2.4 C-3.30261205e-16,1.5163444 0.7163444,0.8 1.6,0.8 Z" id="矩形" fill="#1B61B9"></path>
            <rect id="矩形" fill="#F4F4F4" x="1.2" y="4" width="13.6" height="11.2" rx="1.6"></rect>
            <rect id="矩形" fill="#1A7BED" x="0" y="4.8" width="16" height="10.4" rx="1.6"></rect>
        </g>
    </g>
</svg>