<?xml version="1.0" encoding="UTF-8"?>
<svg width="58px" height="58px" viewBox="0 0 58 58" version="1.1" xmlns="http://www.w3.org/2000/svg" xmlns:xlink="http://www.w3.org/1999/xlink">
    <title>icon/gsd-icon-avatar-lager copy</title>
    <defs>
        <filter x="-0.9%" y="-27.3%" width="101.8%" height="154.7%" filterUnits="objectBoundingBox" id="filter-1">
            <feOffset dx="0" dy="2" in="SourceAlpha" result="shadowOffsetOuter1"></feOffset>
            <feGaussianBlur stdDeviation="3.5" in="shadowOffsetOuter1" result="shadowBlurOuter1"></feGaussianBlur>
            <feColorMatrix values="0 0 0 0 0   0 0 0 0 0   0 0 0 0 0  0 0 0 0.07 0" type="matrix" in="shadowBlurOuter1" result="shadowMatrixOuter1"></feColorMatrix>
            <feMerge>
                <feMergeNode in="shadowMatrixOuter1"></feMergeNode>
                <feMergeNode in="SourceGraphic"></feMergeNode>
            </feMerge>
        </filter>
    </defs>
    <g id="页面-1" stroke="none" stroke-width="1" fill="none" fill-rule="evenodd">
        <g id="top" transform="translate(-1831.000000, -3.000000)" fill="#878A91" filter="url(#filter-1)">
            <g id="icon/gsd-icon-avatar-lager-copy" transform="translate(1844.000000, 16.000000)">
                <path d="M16,0 C7.16255935,0 0,7.16255935 0,16 C0,24.8374407 7.16255935,32 16,32 C24.8374407,32 32,24.8374407 32,16 C32,7.16255935 24.8374407,0 16,0 Z M16,31.1454895 C11.9556862,31.1454895 8.26950034,29.6116889 5.4912955,27.0903233 L5.50938277,27.0541488 C5.50938277,27.0541488 8.17544653,25.9869998 9.59710604,25.6324893 C11.0187655,25.2779787 11.5541488,24.5653403 11.9086593,24.2108298 C12.2631698,23.8563192 12.2631698,22.9664255 12.2631698,22.0765318 C12.2631698,21.186638 11.3732761,20.6548723 11.3732761,19.9422338 C11.3732761,19.2295953 11.5505313,17.985191 11.0187655,17.8079358 C10.4869998,17.6306805 10.3061271,17.27617 10.1288718,16.7407868 C9.95161655,16.209021 9.59710604,15.6736378 9.59710604,14.7837441 C9.59710604,13.8938503 10.1288718,13.8938503 10.1288718,13.8938503 C10.1288718,13.8938503 9.77436129,11.9368076 9.77436129,9.98338232 C9.77436129,8.02633959 11.3732761,7.14006331 11.3732761,7.14006331 C11.3732761,7.14006331 13.3339362,5.19025548 15.8227447,5.19025548 C19.0241917,5.19025548 21.6902555,6.9664255 21.6902555,10.3451277 C21.6902555,12.3021705 21.1584897,13.9010852 21.1584897,13.9010852 C21.1584897,13.9010852 21.6902555,14.0783405 21.6902555,14.790979 C21.6902555,15.5036175 21.5130002,16.2126385 21.1584897,16.925277 C20.8039792,17.6379154 20.4458512,17.6379154 20.0913407,17.992426 C19.8779109,18.2058558 19.9140855,19.6456025 19.9140855,20.1267239 C19.9140855,20.8393624 19.0241917,21.5483835 19.0241917,22.0837667 C19.0241917,22.6155324 18.8469365,23.8599367 19.3787022,24.3953199 C19.910468,24.9270857 20.977617,25.6397242 23.2891702,26.1714899 C24.7831788,26.5151481 25.756274,27.0107393 26.2591002,27.3146055 C23.5134524,29.6985078 19.9249378,31.1454895 16,31.1454895 L16,31.1454895 Z" id="Shape"></path>
            </g>
        </g>
    </g>
</svg>