<?xml version="1.0" encoding="utf-8"?>
<svg version="1.1" xmlns:xlink="http://www.w3.org/1999/xlink" width="49px" height="46px" xmlns="http://www.w3.org/2000/svg">
  <g transform="matrix(1 0 0 1 -459 -667 )">
    <path d="M 29.443068471028 0  L 29.445156471028 0.0317757009345812  C 31.3034878654206 0.0317757009345812  32.8131211065421 1.50591271775701  32.8131211065421 3.32665988785047  L 32.8131211065421 11.6369508485981  L 42.5704049046729 17.362281928972  C 43.2594491214953 17.7652683962617  43.6791396785047 18.4918968373832  43 19.276989682243  L 43 41.4997098766355  L 45.7420963738318 41.4997098766355  C 47.0032560897196 41.4997098766355  48.0242943700935 42.4998680224299  48.0242943700935 43.7338835588785  C 48.0242943700935 44.9658110953271  47.0011680897196 45.9659692411215  45.7420963738318 46  L 2.28219799626168 46  C 2.27380778317711 45.9660628144928  2.26541711353454 45.9661096022696  2.2570263786692 45.9661096022696  C 1.01934701904798 45.9661096022696  0.0125173632385666 44.969411619234  0 43.7317955588785  C 0 42.4998680224299  1.02312628037383 41.4997098766355  2.28219799626168 41.4997098766355  L 5 41.4997098766355  L 5 3.32665988785047  C 4.34724264672897 1.51008876261682  5.85061184299065 0.0317757009345812  7.71311928224299 0  L 29.443068471028 0  Z M 39 20.5423253981308  L 32 16.8423667439252  L 32 41.4997098766355  L 39 41.4997098766355  L 39 20.5423253981308  Z M 20.8801279850467 31.3498796560748  L 22.7071392 26.4806338242991  L 17.2261056 26.4806338242991  L 15.3990943850467 34.2730975551402  L 19.3266464747664 34.2730975551402  L 18.1385671626168 41.0967234093458  L 24.5341503700935 31.3498796560748  L 20.8801279850467 31.3498796560748  Z M 17.1300570168224 6.29581410093458  L 17.1321450168224 6.29581410093458  C 17.5873317981308 9.24617617943925  15.5598713719626 12.4617158728972  13.5992273495327 14.8900747663551  C 13.5324109457944 13.7082595439252  13.4676825420561 12.9210786990654  12.8141345495327 11.7413514766355  C 12.6846777420561 13.9066207551402  11.0476757383178 15.6104392074766  10.5924889121495 17.7757084411215  C 10.0036693233645 20.7281585196262  11.0476756934579 22.8266113943925  15.0399561869159 25.1213374803738  C 13.7955005607477 22.4967053757009  14.449048553271 20.9891601345794  15.430414564486 19.6131597009346  C 16.4765089794392 18.0387980560748  16.7375105943925 16.5312528149533  16.7375105943925 16.5312528149533  C 16.7375105943925 16.5312528149533  17.5873317981308 17.5815232747664  17.2595137794392 19.2874297271028  C 18.7002426168224 17.6441636336449  18.9612442317757 15.0216195738318  18.7628830205607 14.0381655626168  C 22.0347990728972 16.3349796485981  23.4734399102804 21.3879706018692  21.575436246729 25.0586970766355  C 31.6459219738318 19.285341682243  24.0601714542056 10.6931690168224  22.7530754691589 9.7744434093458  C 23.2124382953271 10.7578974205608  23.2750786542056 12.3990755140187  22.362617046729 13.1862563140187  C 20.8592478504673 7.41081291962617  17.1300570168224 6.29581410093458  17.1300570168224 6.29581410093458  Z " fill-rule="nonzero" fill="#000000" stroke="none" transform="matrix(1 0 0 1 459 667 )" />
  </g>
</svg>