<?xml version="1.0" encoding="UTF-8"?>
<svg width="120px" height="120px" viewBox="0 0 120 120" version="1.1" xmlns="http://www.w3.org/2000/svg" xmlns:xlink="http://www.w3.org/1999/xlink">
    <title>icon/1.一级导航/一卡通</title>
    <g id="icon/1.一级导航/一卡通" stroke="none" stroke-width="1" fill="none" fill-rule="evenodd">
        <rect id="矩形" x="0" y="0" width="120" height="120"></rect>
        <g id="编组" transform="translate(20.500000, 25.500000)" fill="#5A6172">
            <path d="M63.5,0 L15.5,0 C6.93958638,0 0,6.93958638 0,15.5 L0,51.5 C0,60.0604136 6.93958638,67 15.5,67 L63.5,67 C72.0604136,67 79,60.0604136 79,51.5 L79,15.5 C79,6.93958638 72.0604136,0 63.5,0 Z M63.5,7 C68.1944204,7 72,10.8055796 72,15.5 L72,51.5 C72,56.1944204 68.1944204,60 63.5,60 L15.5,60 C10.8055796,60 7,56.1944204 7,51.5 L7,15.5 C7,10.8055796 10.8055796,7 15.5,7 L63.5,7 Z" id="矩形" fill-rule="nonzero"></path>
            <path d="M5.4328,25.1385 C3.5378,25.1385 2.0028,23.6035 2.0028,21.7095 C2.0028,19.8165 3.5378,18.2815 5.4328,18.2815 L73.4818,18.2815 C75.3768,18.2815 76.9108,19.8165 76.9108,21.7095 C76.9108,23.6035 75.3768,25.1385 73.4818,25.1385 L5.4328,25.1385 Z" id="Fill-5"></path>
            <path d="M14.4328,47.1385 C12.5378,47.1385 11.0028,45.6035 11.0028,43.7095 C11.0028,41.8165 12.5378,40.2815 14.4328,40.2815 L37.4818,40.2815 C39.3768,40.2815 40.9108,41.8165 40.9108,43.7095 C40.9108,45.6035 39.3768,47.1385 37.4818,47.1385 L14.4328,47.1385 Z" id="Fill-5备份"></path>
        </g>
    </g>
</svg>