<?xml version="1.0" encoding="UTF-8"?>
<svg width="120px" height="120px" viewBox="0 0 120 120" version="1.1" xmlns="http://www.w3.org/2000/svg" xmlns:xlink="http://www.w3.org/1999/xlink">
    <title>icon/1.一级导航/健康管理</title>
    <g id="icon/1.一级导航/健康管理" stroke="none" stroke-width="1" fill="none" fill-rule="evenodd">
        <rect id="矩形" x="0" y="0" width="120" height="120"></rect>
        <path d="M43.4139722,20 C45.3469688,20 46.9139722,21.5656871 46.9139722,23.4970601 C46.9139722,25.3640539 45.4496946,26.8893347 43.6060074,26.9889456 L43.4139722,26.9941201 L35.6538462,26.9941201 C35.3138837,26.9941201 35.0562383,27.2128327 35.0081088,27.4716908 L35,27.5592188 L35,90.4407812 C35,90.706356 35.2236492,90.9516261 35.5437486,90.9980244 L35.6538462,91.0058799 L84.3461538,91.0058799 C84.6861163,91.0058799 84.9437617,90.7871673 84.9918912,90.5283092 L85,90.4407812 L85,27.5592188 C85,27.293644 84.7763508,27.0483739 84.4562514,27.0019756 L84.3461538,26.9941201 L43.6060074,26.9941201 C41.6730108,26.9941201 40.1060074,25.428433 40.1060074,23.4970601 C40.1060074,21.6300662 41.570285,20.1047855 43.4139722,20.0051745 L43.6060074,20 L84.3461538,20 C88.4740712,20 91.8646709,23.2366064 91.9960486,27.3136093 L92,27.5592188 L92,90.4407812 C92,94.5504415 88.6903398,97.8676295 84.5929239,97.9961352 L84.3461538,98 L35.6538462,98 C31.5259288,98 28.1353291,94.7633936 28.0039514,90.6863907 L28,90.4407812 L28,27.5592188 C28,23.4495585 31.3096602,20.1323705 35.4070761,20.0038648 L35.6538462,20 L43.4139722,20 Z" id="路径" fill="#5A6172" fill-rule="nonzero"></path>
        <path d="M71.2849436,31.5085129 L70.923,31.5019773 L70.5171885,31.5056638 C69.1600562,31.5509289 67.8325871,31.866967 66.6185479,32.4341625 L66.506,32.4899773 L66.228485,32.3597966 C64.9587523,31.7940861 63.5657398,31.4962674 62.1444396,31.4999773 C58.3095187,31.4918352 54.7929278,33.6901346 53.2682494,37.1379434 C51.7087273,40.6645456 52.5718264,44.7362015 55.4087756,47.394593 L64.1115682,55.5533906 C65.4580618,56.8157174 67.5533884,56.815512 68.8996345,55.5529213 L77.5995959,47.3935734 C81.4664676,43.7641362 81.4664676,37.75782 77.6005971,34.1293224 C75.8934957,32.5321505 73.6442264,31.6058396 71.2849436,31.5085129 Z M62.1462346,38.4999773 C62.8406549,38.4981985 63.4867316,38.7232603 63.9731253,39.1147316 L64.1141416,39.2371049 C65.459894,40.4961922 67.5514492,40.4960165 68.89699,39.2367031 L69.0537692,39.1016433 C69.4870053,38.7582175 70.0383649,38.549954 70.6324174,38.507913 L70.852,38.4999773 L70.9964204,38.5025642 C71.6953503,38.5313969 72.3463915,38.7995136 72.8141029,39.2371049 L72.9333194,39.3571487 C73.72809,40.2165673 73.6881742,41.4644439 72.8100278,42.2886702 L66.505,48.2019773 L60.1957543,42.2872615 C59.5125573,41.6470648 59.3231906,40.7537305 59.6702124,39.9689979 C60.052074,39.1054808 61.024474,38.4976119 62.1462346,38.4999773 Z" id="形状" fill="#5A6172" fill-rule="nonzero"></path>
        <path d="M43.9328,84.6385 C42.0378,84.6385 40.5028,83.1035 40.5028,81.2095 C40.5028,79.3165 42.0378,77.7815 43.9328,77.7815 L76.9818,77.7815 C78.8768,77.7815 80.4108,79.3165 80.4108,81.2095 C80.4108,83.1035 78.8768,84.6385 76.9818,84.6385 L43.9328,84.6385 Z" id="Fill-5" fill="#5A6172"></path>
        <path d="M43.9331,71.8709 C42.0371,71.8709 40.5031,70.3359 40.5031,68.4419 C40.5031,66.5489 42.0371,65.0129 43.9331,65.0129 L65.3461,65.0129 C67.2411,65.0129 68.7751,66.5489 68.7751,68.4419 C68.7751,70.3359 67.2411,71.8709 65.3461,71.8709 L43.9331,71.8709 Z" id="Fill-7" fill="#5A6172"></path>
    </g>
</svg>