<?xml version="1.0" encoding="UTF-8"?>
<svg width="120px" height="120px" viewBox="0 0 120 120" version="1.1" xmlns="http://www.w3.org/2000/svg" xmlns:xlink="http://www.w3.org/1999/xlink">
    <title>icon/1.一级导航/医废填报</title>
    <g id="icon/1.一级导航/医废填报" stroke="none" stroke-width="1" fill="none" fill-rule="evenodd">
        <rect id="矩形" x="0" y="0" width="120" height="120"></rect>
        <path d="M80.5798949,72.7826652 C80.3541183,72.7870063 80.1416658,72.8893672 79.9988458,73.0626181 C77.4236516,76.6398172 73.9533297,77.8373446 69.6664917,76.9974861 C64.5944941,75.986594 61.7208994,71.5073489 62.0820862,66.7325495 C62.1919805,65.348387 62.7572779,64.0108103 63.1184646,62.5643874 C62.6159535,62.2222472 62.066408,61.4445762 61.1556021,62.268906 C61.0142778,62.3932809 60.715951,62.424411 60.5118404,62.3932809 C59.9778994,62.2844346 59.475462,62.113328 58.8316266,61.9266928 L57.6068158,62.7665513 C60.1977618,68.0234674 58.7217322,72.6582175 55.3927347,75.5044044 C53.6545185,76.9800944 51.432166,77.7764895 49.1430343,77.744027 C45.4214937,77.744027 42.8776558,75.6288522 40.7264345,72.8604542 L38.6536777,74.1669007 C42.971872,82.0211082 53.1786535,83.9029889 60.1035456,78.7394634 C67.138332,84.9917429 79.2922242,81.756684 82.5584355,73.2492533 C82.2757868,73.1714643 82.0402463,73.1092769 81.8047057,73.0470894 C81.4120891,72.9381703 80.9881161,72.8137954 80.5798949,72.7826652 L80.5798949,72.7826652 Z M74.9740299,53.6058973 C75.4607892,49.4377352 75.0682461,45.4094766 72.3830839,41.925668 C69.7450298,38.4884452 66.0705973,36.8087283 61.8465456,36 C61.8465456,36.4976453 61.8622238,36.8553871 61.8465456,37.1975273 C61.8151157,37.8196933 62.1135161,38.068516 62.7259215,38.2551512 C68.6457915,40.0437143 71.5351379,45.5961118 69.4309512,51.1641109 C68.2061403,54.3990969 65.6308725,56.0943425 62.3647348,56.8875421 C61.0457078,57.2141537 61.0300296,57.1830965 61.0928159,58.3962253 C61.108494,58.6139178 61.2812483,58.8316832 61.4382508,59.033847 C61.5795751,59.2204823 61.8622238,59.3294014 61.9407618,59.5470939 C62.380413,60.5269287 63.4011132,60.7913529 64.233381,61.491235 C64.5002779,61.1957535 64.7044621,60.9001992 64.971359,60.6669051 C70.4673296,55.6744132 77.533546,57.8518483 80.4856787,62.7510226 C81.6947377,64.7573512 81.8518138,66.9814451 81.6162733,69.2521249 C81.6005215,69.4387601 81.6947377,69.7498431 81.8360621,69.827632 C82.370003,70.0764547 82.9509785,70.2319597 83.5162758,70.4341965 C84.8353029,65.659397 83.9088189,57.400789 74.9740299,53.6058973 Z M39.4701937,69.7187129 C39.218975,68.3034202 39.2503314,66.8414687 39.5958399,65.4417046 C40.9776532,59.422719 49.2215723,55.3011428 55.5811671,60.5580589 C56.7274399,61.5067636 56.7274399,61.5534224 57.9522507,60.6825067 C59.1299534,59.8426482 59.8365751,58.7538942 59.475462,57.1986251 C58.9886291,57.1053075 58.4704399,57.0119899 57.9836807,56.8875421 C54.3406781,55.9543661 51.671194,53.9169803 50.7290318,50.1842761 C49.7554397,46.3426527 50.7604618,42.9988204 53.7910589,40.3392687 C54.9530835,39.3283036 56.3192187,38.690609 57.7952482,38.224021 C57.9993588,38.1618336 58.2820075,37.9751984 58.2977593,37.8352219 C58.3605455,37.2753163 58.3291156,36.699882 58.3291156,36.0621874 C57.6539239,36.233294 57.0729484,36.3421403 56.4918993,36.5287755 C52.5662481,37.757433 49.2530023,39.8260218 47.1802455,43.4654084 C45.4372454,46.5292879 45.138845,49.8420629 45.5942479,53.2481555 C45.672786,53.7925325 45.6099261,54.088014 45.0289506,54.3679668 C39.3288694,57.1830965 36.518061,62.2066456 37.0676802,68.6300318 C37.1304665,69.4387601 37.3188989,70.2319597 37.4602232,71.1029483 C38.0255205,70.9007845 38.4966016,70.6830191 38.9834345,70.5585713 C39.4545156,70.4341965 39.5487318,70.1697723 39.4701937,69.7187129 Z M53.5240885,52.2216618 C58.1093268,49.0955221 62.6159535,48.8000406 67.1069757,52.2372634 L69.0069782,49.5932402 C64.4845997,45.549453 57.5125996,44.9118313 51.6084077,49.5777116 L53.5240885,52.2216618 L53.5240885,52.2216618 Z M73.8120053,59.6715417 L70.263219,59.6715417 C69.8706023,64.1507867 67.4367324,66.9658435 63.2441107,68.4433966 L64.6102459,71.4450886 C69.6193836,70.2786185 74.5814133,63.8863625 73.8120053,59.6715417 L73.8120053,59.6715417 Z M52.8645749,65.3794442 C51.5769778,63.8241751 50.8860343,62.0044818 50.430705,60.0448121 L47.1331374,60.2003171 C46.8661669,64.726221 52.1579533,70.9318418 56.8687642,71.6473253 L57.8737863,68.3967378 C55.9068033,67.9829556 54.1403624,66.9189417 52.8645749,65.3794442 L52.8645749,65.3794442 Z" id="形状结合" fill="#5A6172" fill-rule="nonzero"></path>
        <path d="M68.1224626,23.6722395 L88.4384102,36.0103146 C92.9174264,38.7304653 95.6521739,43.5908716 95.6521739,48.8311775 L95.6521739,71.1693245 C95.6521739,76.4093588 92.9177077,81.2695542 88.439062,83.9897915 L68.1262761,96.32736 C63.3910836,99.2034185 57.4561473,99.2352331 52.6903933,96.410105 L31.6988314,83.9663549 C27.1419679,81.2650566 24.3478261,76.3605023 24.3478261,71.0631429 L24.3478261,48.9363698 C24.3478261,43.6392728 27.1416932,38.734921 31.6981984,36.033533 L52.6865985,23.5902656 C57.4522057,20.7649086 63.3871321,20.7964267 68.1224626,23.6722395 Z M65.007968,28.8005846 C62.1667698,27.0750969 58.6058139,27.0561861 55.7464496,28.7514003 L34.7580494,41.1946677 C32.0241464,42.8155005 30.3478261,45.7581116 30.3478261,48.9363698 L30.3478261,71.0631429 C30.3478261,74.2415585 32.0243112,77.1842911 34.7584293,78.8050701 L55.7499912,91.2488202 C58.6094436,92.9438971 62.1704054,92.9248083 65.0115208,91.1991732 L85.3243067,78.8616047 C88.0114942,77.2294623 89.6521739,74.3133451 89.6521739,71.1693245 L89.6521739,48.8311775 C89.6521739,45.6869939 88.0113254,42.7707501 85.3239157,41.1386597 L65.007968,28.8005846 Z" id="矩形" fill="#5A6172" fill-rule="nonzero"></path>
    </g>
</svg>