<?xml version="1.0" encoding="UTF-8"?>
<svg width="120px" height="120px" viewBox="0 0 120 120" version="1.1" xmlns="http://www.w3.org/2000/svg" xmlns:xlink="http://www.w3.org/1999/xlink">
    <title>icon/1.一级导航/培训管理</title>
    <g id="icon/1.一级导航/培训管理" stroke="none" stroke-width="1" fill="none" fill-rule="evenodd">
        <rect id="矩形" x="0" y="0" width="120" height="120"></rect>
        <path d="M85,25.5 L35,25.5 C30.3055796,25.5 26.5,29.3055796 26.5,34 L26.5,73 C26.5,77.6944204 30.3055796,81.5 35,81.5 L85,81.5 C89.6944204,81.5 93.5,77.6944204 93.5,73 L93.5,34 C93.5,29.3055796 89.6944204,25.5 85,25.5 Z M35,32.5 L85,32.5 C85.8284271,32.5 86.5,33.1715729 86.5,34 L86.5,73 C86.5,73.8284271 85.8284271,74.5 85,74.5 L35,74.5 C34.1715729,74.5 33.5,73.8284271 33.5,73 L33.5,34 C33.5,33.1715729 34.1715729,32.5 35,32.5 Z" id="矩形" fill="#5A6172" fill-rule="nonzero"></path>
        <path d="M96,25 C97.9329966,25 99.5,26.5670034 99.5,28.5 C99.5,30.3685634 98.0357224,31.8951264 96.1920352,31.9948211 L96,32 L24,32 C22.0670034,32 20.5,30.4329966 20.5,28.5 C20.5,26.6314366 21.9642776,25.1048736 23.8079648,25.0051789 L24,25 L96,25 Z" id="路径" fill="#5A6172" fill-rule="nonzero"></path>
        <path d="M82.2071068,83.5 C84.1401034,83.5 85.7071068,85.0670034 85.7071068,87 C85.7071068,88.8685634 84.2428292,90.3951264 82.399142,90.4948211 L82.2071068,90.5 L58.7928932,90.5 C56.8598966,90.5 55.2928932,88.9329966 55.2928932,87 C55.2928932,85.1314366 56.7571708,83.6048736 58.600858,83.5051789 L58.7928932,83.5 L82.2071068,83.5 Z" id="路径备份" fill="#5A6172" fill-rule="nonzero" transform="translate(70.500000, 87.000000) rotate(45.000000) translate(-70.500000, -87.000000) "></path>
        <path d="M62.2071068,83.5 C64.1401034,83.5 65.7071068,85.0670034 65.7071068,87 C65.7071068,88.8685634 64.2428292,90.3951264 62.399142,90.4948211 L62.2071068,90.5 L38.7928932,90.5 C36.8598966,90.5 35.2928932,88.9329966 35.2928932,87 C35.2928932,85.1314366 36.7571708,83.6048736 38.600858,83.5051789 L38.7928932,83.5 L62.2071068,83.5 Z" id="路径备份" fill="#5A6172" fill-rule="nonzero" transform="translate(50.500000, 87.000000) scale(-1, 1) rotate(45.000000) translate(-50.500000, -87.000000) "></path>
        <path d="M51.0405822,31.4137321 C52.9091456,31.4137321 54.4357086,32.8780097 54.5354033,34.7216969 L54.5405822,34.9137321 L54.54,49.242 L68.9594178,49.2421592 C70.8279812,49.2421592 72.3545443,50.7064368 72.454239,52.550124 L72.4594178,52.7421592 L72.4594178,70.5705864 C72.4594178,72.503583 70.8924145,74.0705864 68.9594178,74.0705864 C67.0908544,74.0705864 65.5642914,72.6063088 65.4645967,70.7626216 L65.4594178,70.5705864 L65.459,56.242 L51.0405822,56.2421592 C49.1720188,56.2421592 47.6454557,54.7778816 47.545761,52.9341944 L47.5405822,52.7421592 L47.5405822,34.9137321 C47.5405822,32.9807355 49.1075855,31.4137321 51.0405822,31.4137321 Z" id="路径-2" fill="#5A6172" fill-rule="nonzero" transform="translate(60.000000, 52.742159) scale(-1, 1) rotate(-45.000000) translate(-60.000000, -52.742159) "></path>
    </g>
</svg>