<?xml version="1.0" encoding="UTF-8"?>
<svg width="120px" height="120px" viewBox="0 0 120 120" version="1.1" xmlns="http://www.w3.org/2000/svg" xmlns:xlink="http://www.w3.org/1999/xlink">
    <title>icon/1.一级导航/安全管理</title>
    <g id="icon/1.一级导航/安全管理" stroke="none" stroke-width="1" fill="none" fill-rule="evenodd">
        <rect id="矩形" x="0" y="0" width="120" height="120"></rect>
        <g id="编组" transform="translate(26.000000, 19.000000)" fill="#5A6172" fill-rule="nonzero">
            <path d="M34.5,0 L69,14.8524902 L69,37.3536426 C69,42.5119551 68.1269472,47.5229239 66.3837163,52.3839863 C64.6390481,57.2463301 62.2596937,61.6334102 59.2442157,65.5465879 C56.1095944,69.6377793 52.4442578,73.1063632 48.2468486,75.9523398 C44.0479222,78.7983164 39.4665709,80.8132422 34.5,82 C29.5334291,80.8132422 24.9508002,78.7983164 20.7531514,75.9523398 C16.5543048,73.1063633 12.8889682,69.6376992 9.7557843,65.5465879 C6.74030635,61.6334102 4.35959442,57.2463301 2.61628367,52.3839863 C0.871695305,47.5230839 0,42.511955 0,37.3535625 L0,14.8524102 L34.5,0 Z M34.5,7.62 L7,19.459 L7,37.3535625 C7,41.465252 7.65371742,45.4498693 8.96697221,49.3366218 L9.20557065,50.0215094 C10.7042469,54.2015325 12.734226,57.9436219 15.3132154,61.2904207 C17.9916445,64.7877422 21.1075097,67.7360941 24.6813663,70.1584528 C27.6243327,72.1537634 30.7854115,73.6548777 34.1875598,74.6711139 L34.5,74.761 L34.8120121,74.6712192 C38.0008606,73.7186663 40.9781453,72.339897 43.7638809,70.5269399 L44.31848,70.158557 C47.8909845,67.7362855 51.0074661,64.7873674 53.6995073,61.2738594 C56.2641333,57.9457511 58.29382,54.203667 59.7945928,50.0210536 C61.2667087,45.9160049 62,41.7042816 62,37.3536426 L62,19.459 L34.5,7.62 Z" id="形状"></path>
            <polygon id="形状" points="37.875 36.9999999 48 36.9999999 31.125 60.3333332 31.125 43.6666666 21 43.6666666 37.875 20.3333332"></polygon>
        </g>
    </g>
</svg>