<?xml version="1.0" encoding="UTF-8"?>
<svg width="120px" height="120px" viewBox="0 0 120 120" version="1.1" xmlns="http://www.w3.org/2000/svg" xmlns:xlink="http://www.w3.org/1999/xlink">
    <title>icon/1.一级导航/客户管理-选中</title>
    <g id="icon/1.一级导航/客户管理-选中" stroke="none" stroke-width="1" fill="none" fill-rule="evenodd">
        <rect id="矩形" x="0" y="0" width="120" height="120"></rect>
        <path d="M58.2065961,20 C68.8074999,20 77.4012304,28.6498261 77.4012304,39.3199273 C77.4012304,45.3476786 74.6586758,50.7306906 70.361026,54.2737527 C72.2537655,54.9789322 74.0849543,55.8496492 75.8363792,56.8777227 C77.4746395,57.8393695 78.0281988,59.9556797 77.0727884,61.6046337 C76.1173781,63.2535877 74.0147926,63.8107604 72.3765323,62.8491136 C68.0971608,60.3371538 63.2305447,58.9950172 58.1610361,58.9950172 C42.9416375,58.9950172 30.5318362,71.1028549 29.9208582,86.2706272 L29.8972833,87.4432617 L29.906,91.785 L56.6481038,91.7852901 C58.5569815,91.7852901 60.1044326,93.3327412 60.1044326,95.2416189 C60.1044326,97.1504965 58.5569815,98.6979476 56.6481038,98.6979476 L26.4563288,98.6979476 C24.5474511,98.6979476 23,97.1504965 23,95.2416189 C23,95.0837495 23.0105842,94.9283522 23.0310816,94.7760979 L23.0429198,93.6431956 L23.0291457,87.4432617 C23.0291457,72.2081558 32.6016664,59.2233816 46.0230203,54.2496919 C41.7418049,50.7057083 39.0119618,45.3336932 39.0119618,39.3199273 C39.0119618,28.6498261 47.6056923,20 58.2065961,20 Z M58.2065961,26.9126576 C51.3986889,26.9126576 45.8797896,32.4675815 45.8797896,39.3199273 C45.8797896,46.1722732 51.3986889,51.7271971 58.2065961,51.7271971 C65.0145034,51.7271971 70.5334027,46.1722732 70.5334027,39.3199273 C70.5334027,32.4675815 65.0145034,26.9126576 58.2065961,26.9126576 Z" id="形状结合" fill="#5A6172"></path>
        <path d="M76.1796216,65.43856 C86.3915353,65.43856 94.6699271,73.770989 94.6699271,84.0495611 C94.6699271,90.1446038 91.7337407,95.7501772 86.8953954,99.2179979 C85.2317132,100.41042 82.9226519,100.019585 81.7379625,98.3450434 C80.5532731,96.6705015 80.9415735,94.3463678 82.6052557,93.1539453 C85.5150441,91.0683926 87.2738049,87.7106824 87.2738049,84.0495611 C87.2738049,77.8824179 82.3067698,72.8829604 76.1796216,72.8829604 C70.0524733,72.8829604 65.0854382,77.8824179 65.0854382,84.0495611 C65.0854382,88.0392404 67.1781077,91.6593981 70.526606,93.660479 C72.282774,94.7099746 72.8611627,96.9937072 71.8184732,98.7613386 C70.7757838,100.52897 68.5068616,101.111134 66.7506935,100.061639 C61.1802625,96.7327186 57.689316,90.6936488 57.689316,84.0495611 C57.689316,73.770989 65.9677078,65.43856 76.1796216,65.43856 Z" id="椭圆形备份" fill="#B56E44" fill-rule="nonzero" transform="translate(76.179622, 83.011199) rotate(-120.000000) translate(-76.179622, -83.011199) "></path>
        <path d="M95.933041,67.0344157 C95.9383937,67.0395512 95.9437296,67.0447041 95.9490488,67.0498743 C97.3158659,68.37841 97.3539646,70.5611257 96.0343443,71.9365524 L80.1077462,88.5366822 C78.7991634,89.9006046 76.63267,89.9454662 75.2687476,88.6368835 C75.2633949,88.631748 75.258059,88.6265951 75.2527398,88.6214249 C75.0931181,88.4662738 74.9516179,88.2994731 74.8282856,88.123669 C74.667335,87.9964233 74.5151578,87.8521525 74.3746731,87.6915913 C74.3698344,87.6860612 74.3650136,87.6805156 74.3602107,87.6749544 L69.6139665,82.1793852 C68.3685389,80.7373327 68.5207645,78.5603588 69.954763,77.305666 C71.3768762,76.0613724 73.538426,76.2055237 74.7827196,77.6276369 C74.7875582,77.633167 74.792379,77.6387127 74.7971819,77.6442738 L77.7396438,81.051897 L91.0940424,67.134617 C92.4026252,65.7706946 94.5691186,65.725833 95.933041,67.0344157 Z" id="形状结合" fill="#B56E44"></path>
    </g>
</svg>