<?xml version="1.0" encoding="UTF-8"?>
<svg width="120px" height="120px" viewBox="0 0 120 120" version="1.1" xmlns="http://www.w3.org/2000/svg" xmlns:xlink="http://www.w3.org/1999/xlink">
    <title>icon/1.一级导航/康乐管理</title>
    <g id="icon/1.一级导航/康乐管理" stroke="none" stroke-width="1" fill="none" fill-rule="evenodd">
        <rect id="矩形" x="0" y="0" width="120" height="120"></rect>
        <g id="编组" transform="translate(27.000000, 20.000000)" fill="#5A6172" fill-rule="nonzero">
            <path d="M57.9451045,0 C62.9439761,0 67,4.42633547 67,9.89244677 L67,71.1796802 C66.9955526,75.2707608 63.2286094,78.0839861 59.7374046,76.5972039 L35.0098905,66.0634 C33.7512778,65.5289358 32.3503485,65.5337946 31.0961832,66.0828351 L7.30262197,76.490311 C3.8069698,78.0208222 0,75.2075969 0,71.0922224 L0,9.89244677 C0,4.43119423 4.0515765,0 9.05489545,0 L57.9451045,0 Z M57.9451045,7 L9.05489545,7 C8.06470008,7 7,8.16357643 7,9.89244677 L7,68.981 L28.2889786,59.6703783 C31.1965754,58.397509 34.4627458,58.3359279 37.414187,59.4853886 L37.7533029,59.6233932 L60,69.1 L60,9.89244677 C60,8.23220113 59.0185724,7.09394818 58.0641887,7.00554433 L57.9451045,7 Z" id="路径"></path>
            <path d="M31.5024082,19.1257002 L28.325,26.7628358 L20.0800367,27.4245388 C19.3689626,27.4815453 18.7093441,27.8176377 18.245266,28.3594012 L18.1297357,28.5038458 C17.2878842,29.6326452 17.4540064,31.2367708 18.5392996,32.1664399 L24.821,37.5468358 L22.9022573,45.594243 C22.7367397,46.2881306 22.8525493,47.0193234 23.2243889,47.6281019 L23.3218261,47.776609 C24.1339826,48.9309022 25.7142964,49.2710861 26.9359593,48.524899 L33.995,44.2128358 L41.0547869,48.524899 C41.6635655,48.8967387 42.3947583,49.0125482 43.0886459,48.8470306 L43.2535057,48.8022446 C44.6061574,48.3890234 45.4211727,46.9889294 45.088489,45.594243 L43.168,37.5478358 L49.4514467,32.1664399 C49.9932101,31.7023619 50.3293025,31.0427433 50.386309,30.3316692 L50.3946594,30.1610386 C50.4196551,28.746898 49.3399402,27.5391196 47.9107096,27.4245388 L39.665,26.7628358 L36.4883381,19.1257002 C36.2143877,18.4670445 35.6909115,17.9435682 35.0322558,17.6696179 C33.6554293,17.0969634 32.0750627,17.7488736 31.5024082,19.1257002 Z M31.7694515,31.5034459 L33.995,26.1518358 L36.2212948,31.5034459 L41.999,31.9658358 L37.59699,35.7374004 L38.941,41.3748358 L33.9953731,38.3541282 L29.048,41.3758358 L30.3937563,35.7374004 L25.991,31.9658358 L31.7694515,31.5034459 Z" id="星形"></path>
        </g>
    </g>
</svg>