<?xml version="1.0" encoding="UTF-8"?>
<svg width="120px" height="120px" viewBox="0 0 120 120" version="1.1" xmlns="http://www.w3.org/2000/svg" xmlns:xlink="http://www.w3.org/1999/xlink">
    <title>icon/1.一级导航/康复管理</title>
    <g id="icon/1.一级导航/康复管理" stroke="none" stroke-width="1" fill="none" fill-rule="evenodd">
        <rect id="矩形" x="0" y="0" width="120" height="120"></rect>
        <path d="M36.3015355,27.5 L34,27.5 C27.6487254,27.5 22.5,32.6487254 22.5,39 L22.5,83 C22.5,89.3512746 27.6487254,94.5 34,94.5 L85,94.5 C91.3512746,94.5 96.5,89.3512746 96.5,83 L96.5,39 C96.5,32.6487254 91.3512746,27.5 85,27.5 L82.7375018,27.5 L82.5167496,27.5069513 C81.4185974,27.5762154 80.4114716,28.159355 79.8057606,29.0882223 L74.32,37.5 L45.011,37.5 L39.1866417,29.0185454 C38.533816,28.0679956 37.4546731,27.5 36.3015355,27.5 Z M79.1482794,42.9117777 L84.633,34.5 L85,34.5 C87.4852814,34.5 89.5,36.5147186 89.5,39 L89.5,83 C89.5,85.4852814 87.4852814,87.5 85,87.5 L34,87.5 C31.5147186,87.5 29.5,85.4852814 29.5,83 L29.5,39 L29.504898,38.7881643 C29.6155109,36.4012365 31.5857267,34.5 34,34.5 L34.459,34.5 L40.2843032,42.9814546 C40.9371289,43.9320044 42.0162718,44.5 43.1694094,44.5 L76.2165383,44.5 C77.3993751,44.5 78.5021877,43.9025695 79.1482794,42.9117777 Z" id="矩形" fill="#5A6172" fill-rule="nonzero"></path>
        <path d="M49.43,34.857 C47.535,34.857 46,33.322 46,31.428 C46,29.535 47.535,28 49.43,28 L70.479,28 C72.374,28 73.908,29.535 73.908,31.428 C73.908,33.322 72.374,34.857 70.479,34.857 L49.43,34.857 Z" id="Fill-5" fill="#5A6172"></path>
        <path d="M59.5,50 C61.4329966,50 63,51.5670034 63,53.5 L63,60 L69.5,60 C71.4329966,60 73,61.5670034 73,63.5 C73,65.4329966 71.4329966,67 69.5,67 L63,67 L63,73.5 C63,75.4329966 61.4329966,77 59.5,77 C57.5670034,77 56,75.4329966 56,73.5 L56,67 L49.5,67 C47.5670034,67 46,65.4329966 46,63.5 C46,61.5670034 47.5670034,60 49.5,60 L56,60 L56,53.5 C56,51.5670034 57.5670034,50 59.5,50 Z" id="形状结合" fill="#5A6172"></path>
    </g>
</svg>