<?xml version="1.0" encoding="UTF-8"?>
<svg width="120px" height="120px" viewBox="0 0 120 120" version="1.1" xmlns="http://www.w3.org/2000/svg" xmlns:xlink="http://www.w3.org/1999/xlink">
    <title>icon/1.一级导航/日志管理</title>
    <defs>
        <polygon id="path-1" points="0.202770518 0.55982489 44.759 0.55982489 44.759 44.9997 0.202770518 44.9997"></polygon>
    </defs>
    <g id="icon/1.一级导航/日志管理" stroke="none" stroke-width="1" fill="none" fill-rule="evenodd">
        <rect id="矩形" x="0" y="0" width="120" height="120"></rect>
        <g id="编组" transform="translate(25.000000, 20.000000)">
            <path d="M23.1986,78.4319 L11.9776,78.4319 C5.3746,78.4319 0.0006,73.0609 0.0006,66.4569 L0.0006,11.9739 C0.0006,5.3709 5.3746,-0.0001 11.9776,-0.0001 L50.5196,-0.0001 C57.1236,-0.0001 62.4946,5.3709 62.4946,11.9739 L62.4946,29.6079 C62.4946,31.5019 60.9606,33.0369 59.0656,33.0369 C57.1706,33.0369 55.6366,31.5019 55.6366,29.6079 L55.6366,11.9739 C55.6366,9.1529 53.3436,6.8579 50.5196,6.8579 L11.9776,6.8579 C9.1546,6.8579 6.8576,9.1529 6.8576,11.9739 L6.8576,66.4569 C6.8576,69.2789 9.1546,71.5739 11.9776,71.5739 L23.1986,71.5739 C25.0946,71.5739 26.6286,73.1089 26.6286,75.0029 C26.6286,76.8969 25.0946,78.4319 23.1986,78.4319" id="Fill-1" fill="#5A6172"></path>
            <path d="M34.8343,21.9065 L15.9333,21.9065 C14.0373,21.9065 12.5033,20.3705 12.5033,18.4775 C12.5033,16.5835 14.0373,15.0485 15.9333,15.0485 L34.8343,15.0485 C36.7303,15.0485 38.2633,16.5835 38.2633,18.4775 C38.2633,20.3705 36.7303,21.9065 34.8343,21.9065" id="Fill-3" fill="#5A6172"></path>
            <path d="M44.9818,34.1385 L15.9328,34.1385 C14.0378,34.1385 12.5028,32.6035 12.5028,30.7095 C12.5028,28.8165 14.0378,27.2815 15.9328,27.2815 L44.9818,27.2815 C46.8768,27.2815 48.4108,28.8165 48.4108,30.7095 C48.4108,32.6035 46.8768,34.1385 44.9818,34.1385" id="Fill-5" fill="#5A6172"></path>
            <path d="M24.3461,46.3709 L15.9331,46.3709 C14.0371,46.3709 12.5031,44.8359 12.5031,42.9419 C12.5031,41.0489 14.0371,39.5129 15.9331,39.5129 L24.3461,39.5129 C26.2411,39.5129 27.7751,41.0489 27.7751,42.9419 C27.7751,44.8359 26.2411,46.3709 24.3461,46.3709" id="Fill-7" fill="#5A6172"></path>
            <g transform="translate(29.000000, 35.323900)">
                <mask id="mask-2" fill="white">
                    <use xlink:href="#path-1"></use>
                </mask>
                <g id="Clip-10"></g>
                <path d="M7.9418,27.9357 C7.3848,28.4897 7.0808,29.2267 7.0778,30.0117 L7.06074143,36.1997 C7.0568,36.7187 7.2578,37.2067 7.6238,37.5727 C7.9918,37.9397 8.4768,38.1427 8.9968,38.1427 L15.2178,38.1427 C16.0018,38.1427 16.7418,37.8357 17.2968,37.2797 L36.9468,17.6317 C38.2258,16.3527 38.2258,14.2697 36.9468,12.9907 L32.2358,8.2817 C30.9968,7.0417 28.8338,7.0407 27.5938,8.2827 L7.9418,27.9357 Z M15.2178,44.9997 L8.9968,44.9997 C6.6418,44.9997 4.4288,44.0807 2.7678,42.4137 C1.1068,40.7477 0.1968,38.5327 0.202770518,36.1787 L0.2198,29.9887 C0.2298,27.3797 1.2478,24.9317 3.0868,23.0907 C3.0888,23.0907 3.0888,23.0887 3.0888,23.0887 L22.7458,3.4327 C26.5768,-0.3993 33.2598,-0.3963 37.0848,3.4327 L41.7958,8.1427 C45.7468,12.0957 45.7468,18.5277 41.7958,22.4807 L22.1458,42.1287 C20.2948,43.9807 17.8338,44.9997 15.2178,44.9997 L15.2178,44.9997 Z" id="Fill-9" fill="#5A6172" mask="url(#mask-2)"></path>
            </g>
            <path d="M62.6087,64.5706 C61.7307,64.5706 60.8537,64.2356 60.1837,63.5666 L45.9857,49.3666 C44.6467,48.0276 44.6467,45.8576 45.9857,44.5176 C47.3257,43.1776 49.4957,43.1776 50.8347,44.5176 L65.0327,58.7166 C66.3727,60.0566 66.3727,62.2266 65.0327,63.5666 C64.3627,64.2356 63.4857,64.5706 62.6087,64.5706" id="Fill-11" fill="#5A6172"></path>
        </g>
    </g>
</svg>