<?xml version="1.0" encoding="UTF-8"?>
<svg width="120px" height="120px" viewBox="0 0 120 120" version="1.1" xmlns="http://www.w3.org/2000/svg" xmlns:xlink="http://www.w3.org/1999/xlink">
    <title>icon/1.一级导航/智能检测</title>
    <g id="icon/1.一级导航/智能检测" stroke="none" stroke-width="1" fill="none" fill-rule="evenodd">
        <rect id="矩形" x="0" y="0" width="120" height="120"></rect>
        <path d="M85,26.5 L35,26.5 C30.3055796,26.5 26.5,30.3055796 26.5,35 L26.5,74 C26.5,78.6944204 30.3055796,82.5 35,82.5 L85,82.5 C89.6944204,82.5 93.5,78.6944204 93.5,74 L93.5,35 C93.5,30.3055796 89.6944204,26.5 85,26.5 Z M35,33.5 L85,33.5 C85.8284271,33.5 86.5,34.1715729 86.5,35 L86.5,74 C86.5,74.8284271 85.8284271,75.5 85,75.5 L35,75.5 C34.1715729,75.5 33.5,74.8284271 33.5,74 L33.5,35 C33.5,34.1715729 34.1715729,33.5 35,33.5 Z" id="矩形" fill="#5A6172"></path>
        <path d="M44,61.7823 L44,50 C44,48.067 45.567,46.5 47.5,46.5 C49.433,46.5 51,48.067 51,50 L51,61.7823 C51,63.7153 49.433,65.2823 47.5,65.2823 C45.567,65.2823 44,63.7153 44,61.7823 Z" id="Fill-5" fill="#5A6172"></path>
        <path d="M56.3457,61.7823 L56.3457,44.2633 C56.3457,43.0381857 56.975146,41.9600895 57.9282804,41.3347689 C58.4790129,40.9734511 59.1378143,40.7633 59.8457,40.7633 C61.7787,40.7633 63.3457,42.3303 63.3457,44.2633 L63.3457,61.7823 C63.3457,63.7153 61.7787,65.2823 59.8457,65.2823 C57.9127,65.2823 56.3457,63.7153 56.3457,61.7823 Z" id="Fill-7" fill="#5A6172"></path>
        <path d="M68.6914,61.7823 L68.6914,50.1453 C68.6914,48.2123 70.2584,46.6453 72.1914,46.6453 C74.1244,46.6453 75.6914,48.2123 75.6914,50.1453 L75.6914,61.7823 C75.6914,63.7153 74.1244,65.2823 72.1914,65.2823 C70.2584,65.2823 68.6914,63.7153 68.6914,61.7823 Z" id="Fill-9" fill="#5A6172"></path>
        <path d="M80,86 C81.9329966,86 83.5,87.5670034 83.5,89.5 C83.5,91.3685634 82.0357224,92.8951264 80.1920352,92.9948211 L80,93 L40,93 C38.0670034,93 36.5,91.4329966 36.5,89.5 C36.5,87.6314366 37.9642776,86.1048736 39.8079648,86.0051789 L40,86 L80,86 Z" id="路径" fill="#5A6172"></path>
    </g>
</svg>