<?xml version="1.0" encoding="UTF-8"?>
<svg width="120px" height="120px" viewBox="0 0 120 120" version="1.1" xmlns="http://www.w3.org/2000/svg" xmlns:xlink="http://www.w3.org/1999/xlink">
    <title>icon/1.一级导航/照护管理</title>
    <g id="icon/1.一级导航/照护管理" stroke="none" stroke-width="1" fill="none" fill-rule="evenodd">
        <rect id="矩形" x="0" y="0" width="120" height="120"></rect>
        <g id="编组" transform="translate(15.000000, 21.209632)" fill="#5A6172" fill-rule="nonzero">
            <g id="编组-5备份" transform="translate(50.633514, 51.290368) rotate(-45.000000) translate(-50.633514, -51.290368) translate(38.133514, 38.790368)">
                <path d="M3.5,8 C5.3685634,8 6.89512645,9.4642776 6.99482114,11.3079648 L7,11.5 L7,21.5 C7,23.4329966 5.43299662,25 3.5,25 C1.6314366,25 0.104873551,23.5357224 0.00517886273,21.6920352 L0,21.5 L0,11.5 C0,9.56700338 1.56700338,8 3.5,8 Z" id="路径-5"></path>
                <path d="M21.5,8 C23.3685634,8 24.8951264,9.4642776 24.9948211,11.3079648 L25,11.5 L25,21.5 C25,23.4329966 23.4329966,25 21.5,25 C19.6314366,25 18.1048736,23.5357224 18.0051789,21.6920352 L18,21.5 L18,11.5 C18,9.56700338 19.5670034,8 21.5,8 Z" id="路径-5备份-2"></path>
                <path d="M12.5,-1.8189894e-12 C14.3685634,-1.8189894e-12 15.8951264,1.4642776 15.9948211,3.3079648 L16,3.5 L16,21.5 C16,23.4329966 14.4329966,25 12.5,25 C10.6314366,25 9.10487355,23.5357224 9.00517886,21.6920352 L9,21.5 L9,3.5 C9,1.56700338 10.5670034,-1.8189894e-12 12.5,-1.8189894e-12 Z" id="路径-5备份"></path>
            </g>
            <path d="M29.0157683,16.3302128 C30.9487649,16.3302128 32.5157683,17.8972162 32.5157683,19.8302128 C32.5157683,21.6987762 31.0514907,23.2253392 29.2078035,23.3250339 L29.0157683,23.3302128 L27.3302128,23.3302128 C19.3220839,23.3302128 12.8302128,29.8220839 12.8302128,37.8302128 C12.8302128,45.7329715 19.1523691,52.1591116 27.0149013,52.3268523 L27.3302128,52.3302128 L62.3302128,52.3302128 C62.5756727,52.3302128 62.7798212,52.1533376 62.8221571,51.9200884 L62.8302128,51.8302128 L62.8295137,23.3293679 L41.7569693,23.3302128 C39.8884059,23.3302128 38.3618428,21.8659352 38.2621481,20.022248 L38.2569693,19.8302128 C38.2569693,17.9616494 39.7212469,16.4350863 41.5649341,16.3353917 L41.7569693,16.3302128 L66.3302128,16.3302128 C68.1987762,16.3302128 69.7253392,17.7944904 69.8250339,19.6381776 L69.8302128,19.8302128 L69.8302128,51.8302128 C69.8302128,55.8911301 66.6027384,59.1982303 62.5729438,59.3263592 L62.3302128,59.3302128 L27.3302128,59.3302128 C15.4560907,59.3302128 5.83021279,49.7043349 5.83021279,37.8302128 C5.83021279,26.0748319 15.2645357,16.5229552 26.974671,16.3330932 L27.3302128,16.3302128 L29.0157683,16.3302128 Z" id="路径" transform="translate(37.830213, 37.830213) rotate(45.000000) translate(-37.830213, -37.830213) "></path>
            <path d="M53.9473734,21.572754 C53.9874815,23.5053345 52.4533295,25.1045145 50.5207491,25.1446226 L48.9827556,25.1798933 L42.9853096,25.1798933 C41.8807401,25.1798933 40.9853096,26.0753238 40.9853096,27.1798933 C40.9853096,28.2342551 41.8011874,29.0980584 42.8360473,29.1744075 L42.9853096,29.1798933 L54.0859986,29.1798933 C56.0189953,29.1798933 57.5859986,30.7468966 57.5859986,32.6798933 C57.5859986,34.5484567 56.121721,36.0750197 54.2780338,36.1747144 L54.0859986,36.1798933 L42.9853096,36.1798933 C38.0147469,36.1798933 33.9853096,32.150456 33.9853096,27.1798933 C33.9853096,22.2980906 37.8721233,18.3241018 42.7199474,18.1837304 L42.9853096,18.1798933 L48.8906948,18.1811042 L50.3755047,18.1461297 C52.3080852,18.1060215 53.9072653,19.6401735 53.9473734,21.572754 Z" id="路径" transform="translate(45.785654, 27.162627) scale(1, -1) rotate(45.000000) translate(-45.785654, -27.162627) "></path>
            <path d="M45.0520382,15.2027958 C53.4483105,6.80652352 67.0613575,6.80652352 75.4576298,15.2027958 C83.8539021,23.5990681 83.8539021,37.2121151 75.4576298,45.6083874 L72.6955807,48.3704364 C71.3287457,49.7372715 69.1126683,49.7372715 67.7458333,48.3704364 C66.4278138,47.0524169 66.3807417,44.944732 67.6046169,43.5703079 L67.7458333,43.420689 L70.5078823,40.6586399 C76.1704846,34.9960377 76.1704846,25.8151455 70.5078823,20.1525433 C64.8452801,14.489941 55.6643879,14.489941 50.0017857,20.1525433 C48.6349506,21.5193783 46.4188732,21.5193783 45.0520382,20.1525433 C43.6852032,18.7857082 43.6852032,16.5696308 45.0520382,15.2027958 Z" id="路径"></path>
        </g>
    </g>
</svg>