<?xml version="1.0" encoding="UTF-8"?>
<svg width="120px" height="120px" viewBox="0 0 120 120" version="1.1" xmlns="http://www.w3.org/2000/svg" xmlns:xlink="http://www.w3.org/1999/xlink">
    <title>icon/1.一级导航/短住</title>
    <g id="icon/1.一级导航/短住" stroke="none" stroke-width="1" fill="none" fill-rule="evenodd">
        <rect id="矩形" x="0" y="0" width="120" height="120"></rect>
        <path d="M84.6856801,60.1765508 C91.2287564,60.1765508 97.2748082,63.6858055 100.546346,69.382413 C103.817885,75.0790205 103.817885,82.0975303 100.546346,87.7941378 C97.2748082,93.4907453 91.2287564,97 84.6856801,97 C74.5709608,97 66.3713607,88.7567901 66.3713607,78.5882754 C66.3713607,68.4197607 74.5709608,60.1765508 84.6856801,60.1765508 L84.6856801,60.1765508 Z M74.6504366,23 C81.6673448,22.9991198 87.4772007,28.4799349 87.9220462,35.5199727 L87.9471373,36.3674165 L87.9471373,49.9719155 C87.9494146,51.6902463 86.6317181,53.1188611 84.9271681,53.2460901 C83.2226181,53.3733191 81.7095109,52.1559978 81.4593493,50.4561691 L81.424226,49.9719155 L81.424226,36.3674165 C81.4249337,32.85993 78.775444,29.9256243 75.3027274,29.5878664 L74.6504366,29.5576005 L39.5270842,29.5576005 C36.0381537,29.5568891 33.1193715,32.2204702 32.7834005,35.7116564 L32.7532948,36.3674165 L32.7532948,81.7661895 C32.7525871,85.273676 35.4020768,88.2079817 38.8747934,88.5457396 L39.5270842,88.5760055 L60.1695802,88.5760055 C61.8788203,88.573713 63.2998772,89.8984177 63.4264331,91.6120334 C63.552989,93.3256491 62.3421078,94.8468038 60.6512719,95.0982958 L60.1695802,95.133606 L39.5270842,95.133606 C32.510176,95.1344862 26.70032,89.6536711 26.2554746,82.6136333 L26.2303865,81.7661895 L26.2303865,72.6006817 L19.2659275,72.6006817 C17.5691363,72.5861998 16.1668625,71.2661432 16.0411272,69.5649558 C15.9153919,67.8637684 17.1082067,66.3498623 18.7842358,66.0834356 L19.2659275,66.0481254 L26.2303865,66.0430811 L26.2303865,52.256987 L19.2659275,52.256987 C17.5566873,52.2592795 16.1356304,50.9345748 16.0090745,49.2209591 C15.8825186,47.5073434 17.0933998,45.9861887 18.7842358,45.7346967 L19.2659275,45.6993865 L26.2303865,45.6993865 L26.2303865,36.3674165 C26.229511,29.3131887 31.6813304,23.4724329 38.6841237,23.0252215 L39.5270842,23 L74.6504366,23 Z M84.6856801,66.7341513 C78.1734636,66.7341513 72.894269,72.0414234 72.894269,78.5882754 C72.894269,85.1351273 78.1734636,90.4423995 84.6856801,90.4423995 C91.1978967,90.4423995 96.4770913,85.1351273 96.4770913,78.5882754 C96.4770913,72.0414234 91.1978967,66.7341513 84.6856801,66.7341513 L84.6856801,66.7341513 Z M83.9380545,70.9007498 C85.5535176,70.9004292 86.9257939,72.089052 87.1643853,73.6952965 L87.1995087,74.1795501 L87.194491,78.4823449 L89.8437953,78.4873892 C91.4592584,78.4870686 92.8315347,79.6756914 93.0701261,81.2819359 L93.1052498,81.7661895 C93.1059408,83.388597 91.9262581,84.7675666 90.3305046,85.0096796 L89.8437953,85.0449898 L83.9380545,85.0449898 C82.3225914,85.0453104 80.9503151,83.8566877 80.7117237,82.2504431 L80.6766003,81.7661895 L80.6766003,74.1795501 C80.6766003,72.3687187 82.1368031,70.9007498 83.9380545,70.9007498 L83.9380545,70.9007498 Z M46.1302744,43.9843217 C47.7457375,43.9843217 49.1180138,45.1726239 49.3566052,46.7788684 L49.3917315,47.263122 L49.3917315,73.3018405 C49.3940089,75.0201713 48.0763124,76.4487861 46.3717624,76.5760151 C44.6672124,76.7032441 43.1541052,75.4859228 42.9039436,73.7860941 L42.8688203,73.3018405 L42.8688203,47.263122 C42.8688203,45.4522906 44.3290231,43.9843217 46.1302744,43.9843217 L46.1302744,43.9843217 Z" id="形状" fill-opacity="0.65" fill="#020D26"></path>
    </g>
</svg>