<?xml version="1.0" encoding="UTF-8"?>
<svg width="120px" height="120px" viewBox="0 0 120 120" version="1.1" xmlns="http://www.w3.org/2000/svg" xmlns:xlink="http://www.w3.org/1999/xlink">
    <title>icon/1.一级导航/统计分析</title>
    <g id="icon/1.一级导航/统计分析" stroke="none" stroke-width="1" fill="none" fill-rule="evenodd">
        <rect id="矩形" x="0" y="0" width="120" height="120"></rect>
        <path d="M87.0880881,55.0857808 C97.5393829,55.0857808 103,59.3951036 103,63.6337817 L103,86.5475771 C102.914557,90.7613219 97.4655908,95 87.0880881,95 C76.6523285,95 71.1761762,90.6948328 71.1761762,86.4561547 L71.1761762,63.6337817 C71.1761762,59.390948 76.6367933,55.0857808 87.0880881,55.0857808 Z M79.9388521,25 C88.501745,25 95.4992481,31.7579632 95.9716527,40.2729386 L95.997073,41.1917528 L95.997073,45.1600792 C95.997073,47.0053483 94.5135233,48.5012345 92.6834719,48.5012345 C91.0197888,48.5012345 89.6424707,47.2649649 89.4057987,45.6538106 L89.3698707,45.1600792 L89.3698707,41.1917528 C89.3698707,36.1899244 85.5400196,32.0900439 80.6758807,31.7109211 L79.9388521,31.6823107 L35.0582209,31.6823107 C30.0976421,31.6823107 26.0315729,35.5440089 25.6555767,40.4485955 L25.6272023,41.1917528 L25.6272023,77.1734258 C25.6272023,82.1752543 29.4570534,86.2751348 34.3277193,86.6542651 L35.0657767,86.6828766 L59.9829647,86.7424653 C61.8130113,86.7466729 63.2931744,88.2459662 63.2890014,90.0912305 C63.2852079,91.7687436 62.0559963,93.1546922 60.4575935,93.3896578 L59.9678532,93.4247586 L35.0582209,93.3651786 C26.495328,93.3651786 19.497825,86.6072155 19.0254204,78.09224 L19,77.1734258 L19,41.1917528 C19,32.5576553 25.7022309,25.5019646 34.1469841,25.0256317 L35.0582209,25 L79.9388521,25 Z M96.5191067,81.5338689 C94.3555845,82.784994 91.2134748,83.6213075 87.0865249,83.6213075 C82.9627014,83.6213076 79.8080858,82.784994 77.6570695,81.5338689 L77.6570695,85.9228426 C77.6570695,86.8963116 80.8710881,89.1844655 87.0865249,89.1844655 C93.3019616,89.1844655 96.5191067,86.8929663 96.5191067,85.9228426 L96.5191067,81.5338689 Z M96.5191067,70.1143713 C94.3555845,71.3654964 91.2134748,72.20181 87.0865249,72.20181 C82.9627014,72.20181 79.8080858,71.3654964 77.6570695,70.1143713 L77.6570695,74.5033449 C77.6570695,75.476814 80.8710881,77.7649679 87.0865249,77.7649679 C93.3019616,77.7649679 96.5191067,75.4734687 96.5191067,74.5033449 L96.5191067,70.1143713 Z M37.673742,63.20067 C39.3374251,63.20067 40.7147432,64.4369396 40.9514152,66.0480939 L40.9873432,66.5418253 L40.9873432,73.3359795 C40.9873432,75.1812486 39.5037934,76.6771348 37.673742,76.6771348 C36.010059,76.6771348 34.6327409,75.4408652 34.3960688,73.8297109 L34.3601409,73.3359795 L34.3601409,66.5418253 C34.3601409,64.6965562 35.8436906,63.20067 37.673742,63.20067 Z M50.9672858,67.0735821 C52.6309688,67.0735821 54.0082869,68.3098517 54.244959,69.921006 L54.2808869,70.4147375 L54.2808869,73.3359795 C54.2808869,75.1812486 52.7973371,76.6771348 50.9672858,76.6771348 C49.3036027,76.6771348 47.9262846,75.4408652 47.6896126,73.8297109 L47.6536846,73.3359795 L47.6536846,70.4147375 C47.6536846,68.5694683 49.1372344,67.0735821 50.9672858,67.0735821 Z M64.2608295,61.1411293 C65.9245126,61.1411293 67.3018307,62.3773989 67.5385027,63.9885532 L67.5744306,64.4822846 L67.5744306,73.3359795 C67.5744306,75.1812486 66.0908809,76.6771348 64.2608295,76.6771348 C62.5971464,76.6771348 61.2198283,75.4408652 60.9831563,73.8297109 L60.9472283,73.3359795 L60.9472283,64.4822846 C60.9472283,62.6370155 62.4307781,61.1411293 64.2608295,61.1411293 Z M87.0865249,60.1077664 C80.8710881,60.1077664 77.6570695,62.3858846 77.6570695,63.3693894 C77.6570695,64.3462036 80.8585822,66.6343576 87.0865249,66.6343576 C93.3144675,66.6343576 96.5191067,64.3462037 96.5191067,63.3693894 C96.5191067,62.3959204 93.3019616,60.1077664 87.0865249,60.1077664 Z M70.9555081,43.4056876 C71.9140228,44.7562323 71.7319776,46.5817783 70.6010638,47.7162351 L70.1892122,48.0671919 L54.8956685,59.1026616 C53.4015029,60.1808171 51.3574968,59.8161228 50.3029016,58.3730772 L50.0409721,57.9530571 L46.6295139,51.4825113 L38.285036,56.4250186 C36.8647562,57.2659601 35.0780142,56.9187556 34.0593235,55.6809123 L33.7497625,55.2357194 C32.9157562,53.8036292 33.2600973,52.0020296 34.4877322,50.974868 L34.9292537,50.6627329 L46.2582078,43.9549086 C47.7362861,43.0797449 49.601035,43.4938921 50.5924486,44.8378482 L50.8624126,45.2685698 L54.1182524,51.4413894 L66.3324468,42.6330196 C67.8206767,41.5591471 69.8904917,41.9050823 70.9555081,43.4056876 Z" id="形状结合" fill-opacity="0.65" fill="#020D26"></path>
    </g>
</svg>