<?xml version="1.0" encoding="UTF-8"?>
<svg width="120px" height="120px" viewBox="0 0 120 120" version="1.1" xmlns="http://www.w3.org/2000/svg" xmlns:xlink="http://www.w3.org/1999/xlink">
    <title>icon/1.一级导航/膳食管理</title>
    <g id="icon/1.一级导航/膳食管理" stroke="none" stroke-width="1" fill="none" fill-rule="evenodd">
        <rect id="矩形" x="0" y="0" width="120" height="120"></rect>
        <g id="编组-2" transform="translate(23.000000, 27.000000)" fill="#5A6172">
            <g id="编组" fill-rule="nonzero">
                <path d="M75,21.2166667 C75,41.900777 58.2111569,58.6681226 37.4999634,58.6681226 C16.7890629,58.6681226 0,41.8993872 0,21.2166667 L75,21.2166667 Z M67.189,28.2166667 L7.811,28.2166667 L7.88630981,28.5336403 C11.1292974,41.6596781 22.8990709,51.4358318 36.9955393,51.6640422 L37.4999634,51.6681226 C51.8200287,51.6681226 63.8322594,41.8166348 67.1137272,28.5339527 L67.189,28.2166667 Z" id="形状"></path>
                <path d="M12.1055042,20.3444857 L18.0846477,20.3444857 C18.5345758,19.4290427 19.088801,18.5759216 19.7443205,17.8075785 C20.7731257,14.4159941 22.4614604,11.2602935 24.7127189,8.52104413 C18.7376037,10.0093064 13.948576,14.521493 12.1055042,20.3444857 L12.1055042,20.3444857 Z" id="路径"></path>
                <path d="M27.514021,5.62337271 C29.7376604,3.61342129 32.2778534,1.94623981 35.0794485,0.757370878 C33.1253412,0.280082393 31.093304,0 28.9946894,0 C16.6515136,0 6.32103903,8.73865843 3.86251132,20.3445589 L9.59299685,20.3445589 C11.8083598,12.2896848 18.9126531,6.25171111 27.5140943,5.62337271 L27.514021,5.62337271 Z M28.4527689,8.00359758 C26.5804881,9.97154924 25.0316825,12.2228863 23.8637662,14.6741522 C23.0095401,16.4648069 22.3373213,18.3555277 21.9164705,20.3447051 L27.646956,20.3447051 C28.3093123,17.9439611 29.4137846,15.6874931 30.9038259,13.6908282 C32.1857144,11.9708341 33.7275402,10.4602618 35.4830874,9.22443204 C36.2906336,8.65820409 37.1387165,8.15195374 38.0204971,7.70976343 C40.1719194,6.62644658 42.5328883,5.90089493 45.0372657,5.65124197 C45.6982784,5.58614055 46.3691056,5.54985931 47.0483556,5.54985931 C56.3080995,5.54985931 64.1067308,11.832073 66.4497552,20.3461681 L72.1802408,20.3461681 C69.722006,8.73887787 59.3913117,0.000146295321 47.0483556,0.000146295321 C43.8678043,0.000146295321 40.834397,0.607637617 38.0204971,1.66608427 C35.4649232,2.62870748 33.098095,3.97140594 31.0036553,5.64985216 C30.0986722,6.37511121 29.2514041,7.16437447 28.4527689,8.00359758 L28.4527689,8.00359758 Z" id="形状"></path>
                <path d="M47.589031,8.00359758 C47.4084153,7.99796521 47.2308757,7.97587462 47.0487951,7.97587462 C44.7571868,7.97587462 42.5710476,8.42668365 40.5585661,9.22282279 C39.6807357,9.57170482 38.8322307,9.99010058 38.0211563,10.4740135 C36.2795985,11.5114668 34.7198283,12.8237358 33.4295901,14.3731496 C31.963574,16.1331077 30.8536765,18.160609 30.1615141,20.3430959 L36.1406576,20.3430959 C36.6355313,19.3342953 37.267907,18.3987992 38.0197647,17.5632654 C39.2814583,16.1578224 40.8534809,15.0650658 42.6113309,14.3715403 C43.4255969,14.052527 44.2722841,13.8231931 45.1363627,13.6876097 C45.7599485,13.5890067 46.396132,13.5225154 47.0474035,13.5225154 C48.8821256,13.5225154 50.6154803,13.9428219 52.1766421,14.672543 C54.6925403,15.8510748 56.7306856,17.8513881 57.9544422,20.3430959 L63.9335125,20.3430959 C61.7224709,13.3479851 55.2613924,8.23671918 47.589031,8.00359758 Z" id="路径"></path>
            </g>
            <path d="M23.9517276,62 L23.9517276,55.95 L23.9517276,55.95 L51.9517276,55.95 L51.9517276,62 C51.9517276,64.209139 50.1608666,66 47.9517276,66 L27.9517276,66 C25.7425886,66 23.9517276,64.209139 23.9517276,62 Z" id="Fill-3"></path>
        </g>
    </g>
</svg>