<?xml version="1.0" encoding="UTF-8"?>
<svg width="120px" height="120px" viewBox="0 0 120 120" version="1.1" xmlns="http://www.w3.org/2000/svg" xmlns:xlink="http://www.w3.org/1999/xlink">
    <title>icon/1.一级导航/药品管理</title>
    <g id="icon/1.一级导航/药品管理" stroke="none" stroke-width="1" fill="none" fill-rule="evenodd">
        <rect id="矩形" x="0" y="0" width="120" height="120"></rect>
        <g id="编组-5" transform="translate(33.000000, 24.000000)" fill="#5A6172">
            <path d="M44.3863319,15.5 L10.6174071,15.5 C8.37678103,15.5 6.25350679,16.5017864 4.8288067,18.2311316 L-1.78860037,26.2635455 C-2.89498982,27.6065154 -3.5,29.2923951 -3.5,31.0324139 L-3.5,68 C-3.5,72.1421356 -0.142135624,75.5 4,75.5 L51,75.5 C55.1421356,75.5 58.5,72.1421356 58.5,68 L58.5,31.0028996 C58.5,29.2589405 57.8922513,27.5694953 56.7812989,26.2251822 L50.1676308,18.2222827 C48.7428452,16.4982143 46.6229422,15.5 44.3863319,15.5 Z M44.3863319,22.5 C44.5354393,22.5 44.6767661,22.5665476 44.7717518,22.6814855 L51.3854199,30.6843851 C51.4594834,30.7740059 51.5,30.8866356 51.5,31.0028996 L51.5,68 C51.5,68.2761424 51.2761424,68.5 51,68.5 L4,68.5 C3.72385763,68.5 3.5,68.2761424 3.5,68 L3.5,31.0324139 C3.5,30.9164127 3.54033401,30.8040207 3.61409331,30.7144894 L10.2315004,22.6820754 C10.3264804,22.5667858 10.468032,22.5 10.6174071,22.5 L44.3863319,22.5 Z" id="矩形" fill-rule="nonzero"></path>
            <path d="M43,-3.5 L12,-3.5 C8.96243388,-3.5 6.5,-1.03756612 6.5,2 L6.5,8 C6.5,11.0375661 8.96243388,13.5 12,13.5 L43,13.5 C46.0375661,13.5 48.5,11.0375661 48.5,8 L48.5,2 C48.5,-1.03756612 46.0375661,-3.5 43,-3.5 Z M41.5,3.5 L41.5,6.5 L13.5,6.5 L13.5,3.5 L41.5,3.5 Z" id="矩形" fill-rule="nonzero"></path>
            <path d="M27.5,32 C29.4329966,32 31,33.5670034 31,35.5 L31,42 L37.5,42 C39.4329966,42 41,43.5670034 41,45.5 C41,47.4329966 39.4329966,49 37.5,49 L31,49 L31,55.5 C31,57.4329966 29.4329966,59 27.5,59 C25.5670034,59 24,57.4329966 24,55.5 L24,49 L17.5,49 C15.5670034,49 14,47.4329966 14,45.5 C14,43.5670034 15.5670034,42 17.5,42 L24,42 L24,35.5 C24,33.5670034 25.5670034,32 27.5,32 Z" id="形状结合"></path>
        </g>
    </g>
</svg>