<?xml version="1.0" encoding="UTF-8"?>
<svg width="120px" height="120px" viewBox="0 0 120 120" version="1.1" xmlns="http://www.w3.org/2000/svg" xmlns:xlink="http://www.w3.org/1999/xlink">
    <title>icon/1.一级导航/评估管理</title>
    <g id="icon/1.一级导航/评估管理" stroke="none" stroke-width="1" fill="none" fill-rule="evenodd">
        <rect id="矩形" x="0" y="0" width="120" height="120"></rect>
        <g id="编组" transform="translate(26.000000, 24.000000)" fill="#5A6172">
            <path d="M55.4074074,0 C62.3621043,0 68,5.57156756 68,12.4444444 L68,59.5555556 C68,66.4284324 62.3621043,72 55.4074074,72 L12.5925926,72 C5.63789574,72 0,66.4284324 0,59.5555556 L0,12.4444444 C0,5.57156756 5.63789574,0 12.5925926,0 L55.4074074,0 Z M55.4074074,6.47111111 L12.5925926,6.47111111 C9.46297901,6.47111111 6.88889089,8.82161617 6.57935493,11.8337058 L6.54814815,12.4444444 L6.54814815,59.5555556 C6.54814815,62.6483502 8.92663541,65.1921549 11.9745833,65.4980492 L12.5925926,65.5288889 L55.4074074,65.5288889 C58.537021,65.5288889 61.1111091,63.1783838 61.4206451,60.1662942 L61.4518519,59.5555556 L61.4518519,12.4444444 C61.4518519,9.35164985 59.0733646,6.80784512 56.0254167,6.50195076 L55.4074074,6.47111111 Z" id="矩形" fill-rule="nonzero"></path>
            <rect id="矩形" x="39.5247194" y="19.6963101" width="17.2139422" height="6.47111111" rx="3.23555556"></rect>
            <rect id="矩形备份-2" x="39.5247194" y="43.6222147" width="17.2139422" height="6.47111111" rx="3.23555556"></rect>
            <path d="M22.3661968,37.3999924 C27.6517664,37.3999924 31.9365672,41.6343838 31.9365672,46.8577702 C31.9365672,52.0811567 27.6517664,56.315548 22.3661968,56.315548 C17.0806272,56.315548 12.7958265,52.0811567 12.7958265,46.8577702 C12.7958265,41.6343838 17.0806272,37.3999924 22.3661968,37.3999924 Z M22.3661968,43.8711036 C20.6970696,43.8711036 19.3439746,45.2082798 19.3439746,46.8577702 C19.3439746,48.5072607 20.6970696,49.8444369 22.3661968,49.8444369 C24.0353241,49.8444369 25.3884191,48.5072607 25.3884191,46.8577702 C25.3884191,45.2082798 24.0353241,43.8711036 22.3661968,43.8711036 Z" id="椭圆形" fill-rule="nonzero"></path>
            <path d="M32.5121012,15.8922248 C33.7756642,17.1409224 33.787715,19.177512 32.5390174,20.4410751 L32.5121012,20.4679914 L22.8954489,29.9715065 L22.7497565,30.1071686 L22.8618516,30.0018069 C21.5958303,31.2529339 19.5589553,31.2529339 18.2929339,30.0018069 L13.2758605,25.0437579 C12.0122975,23.7950603 12.0002466,21.7584707 13.2489442,20.4949076 C13.2578632,20.4858825 13.2668354,20.4769103 13.2758605,20.4679914 L13.3065217,20.4376909 C14.572543,19.186564 16.609418,19.186564 17.8754393,20.4376909 L20.5779064,23.1095525 L27.8818612,15.8922248 C29.1648746,14.6243057 31.2290878,14.6243057 32.5121012,15.8922248 Z" id="形状结合"></path>
        </g>
    </g>
</svg>