<?xml version="1.0" encoding="UTF-8"?>
<svg width="120px" height="120px" viewBox="0 0 120 120" version="1.1" xmlns="http://www.w3.org/2000/svg" xmlns:xlink="http://www.w3.org/1999/xlink">
    <title>icon/1.一级导航/费用管理</title>
    <g id="icon/1.一级导航/费用管理" stroke="none" stroke-width="1" fill="none" fill-rule="evenodd">
        <rect id="矩形" x="0" y="0" width="120" height="120"></rect>
        <path d="M81.1010241,26 C89.5480893,26 96.4509393,32.5526829 96.9169538,40.8090069 L96.9420303,41.6999112 L96.9420303,47.4953411 C96.9420303,49.2845582 95.4785481,50.7350053 93.6732513,50.7350053 C92.0320723,50.7350053 90.6733848,49.5362887 90.4399141,47.9740749 L90.4044722,47.4953411 L90.4044722,41.6999112 C90.4044722,36.8500186 86.6264263,32.8746763 81.8280831,32.5070697 L81.1010241,32.4793284 L35.8410062,32.4793284 C30.9475277,32.4793284 26.936459,36.2237234 26.5655488,40.979328 L26.5375581,41.6999112 L26.5375581,76.5886026 C26.5375581,81.4384952 30.315604,85.4138375 35.1203206,85.7814512 L35.8483842,85.8091936 L58.6768404,85.8669722 C60.4821327,85.8710107 61.9423079,87.3247279 61.9382332,89.1139404 C61.9345289,90.7404973 60.7219758,92.084374 59.1451994,92.3122385 L58.6620844,92.3462841 L35.8410062,92.2885138 C27.393941,92.2885138 20.491091,85.7358309 20.0250765,77.4795069 L20,76.5886026 L20,41.6999112 C20,33.3280835 26.6115718,26.4867169 34.9420954,26.0248531 L35.8410062,26 L81.1010241,26 Z" id="路径" fill="#5A6172"></path>
        <path d="M84.0880881,54.0857808 C94.5393829,54.0857808 100,58.3951036 100,62.6337817 L100,85.5475771 C99.9145565,89.7613219 94.4655908,94 84.0880881,94 C73.6523285,94 68.1761762,89.6948328 68.1761762,85.4561547 L68.1761762,62.6337817 C68.1761762,58.390948 73.6367933,54.0857808 84.0880881,54.0857808 Z M93.5191067,80.5338689 C91.3555845,81.784994 88.2134748,82.6213075 84.0865249,82.6213075 C79.9627014,82.6213076 76.8080858,81.784994 74.6570695,80.5338689 L74.6570695,84.9228426 C74.6570695,85.8963116 77.8710881,88.1844655 84.0865249,88.1844655 C90.3019616,88.1844655 93.5191067,85.8929663 93.5191067,84.9228426 Z M93.5191067,69.1143713 C91.3555845,70.3654964 88.2134748,71.20181 84.0865249,71.20181 C79.9627014,71.20181 76.8080858,70.3654964 74.6570695,69.1143713 L74.6570695,73.5033449 C74.6570695,74.476814 77.8710881,76.7649679 84.0865249,76.7649679 C90.3019616,76.7649679 93.5191067,74.4734687 93.5191067,73.5033449 Z M84.0865249,59.1077664 C77.8710881,59.1077664 74.6570695,61.3858846 74.6570695,62.3693894 C74.6570695,63.3462036 77.8585822,65.6343576 84.0865249,65.6343576 C90.3144675,65.6343576 93.5191067,63.3462037 93.5191067,62.3693894 C93.5191067,61.3959204 90.3019616,59.1077664 84.0865249,59.1077664 Z" id="形状结合" fill="#5A6172" fill-rule="nonzero"></path>
        <path d="M55.250597,40.5748851 C56.6212168,41.7249717 56.7999944,43.7684081 55.6499078,45.1390279 L52.7324517,48.6148723 L56.2061683,48.6151721 C57.9953854,48.6151721 59.4458325,50.0656192 59.4458325,51.8548363 C59.4458325,53.6440535 57.9953854,55.0945005 56.2061683,55.0945005 L49.6394517,55.0938723 L49.6384517,57.6148723 L56.2061683,57.6151721 C57.9953854,57.6151721 59.4458325,59.0656192 59.4458325,60.8548363 C59.4458325,62.6440535 57.9953854,64.0945005 56.2061683,64.0945005 L49.6394517,64.0938723 L49.6403063,69.6603625 C49.6403063,71.4495797 48.1898592,72.9000267 46.4006421,72.9000267 C44.611425,72.9000267 43.1609779,71.4495797 43.1609779,69.6603625 L43.1604517,64.0938723 L36.5951159,64.0945005 C34.8058987,64.0945005 33.3554517,62.6440535 33.3554517,60.8548363 C33.3554517,59.0656192 34.8058987,57.6151721 36.5951159,57.6151721 L43.1604517,57.6148723 L43.1604517,55.0938723 L36.5951159,55.0945005 C34.8058987,55.0945005 33.3554517,53.6440535 33.3554517,51.8548363 C33.3554517,50.0656192 34.8058987,48.6151721 36.5951159,48.6151721 L40.0674517,48.6148723 L37.1513764,45.1390279 C36.0012898,43.7684081 36.1800673,41.7249717 37.5506872,40.5748851 C38.921307,39.4247985 40.9647434,39.603576 42.11483,40.9741959 L46.4004517,46.0808723 L50.6864542,40.9741959 C51.8365408,39.603576 53.8799772,39.4247985 55.250597,40.5748851 Z" id="形状结合" fill="#5A6172"></path>
    </g>
</svg>