<?xml version="1.0" encoding="UTF-8"?>
<svg width="120px" height="120px" viewBox="0 0 120 120" version="1.1" xmlns="http://www.w3.org/2000/svg" xmlns:xlink="http://www.w3.org/1999/xlink">
    <title>icon/1.一级导航/配置管理</title>
    <g id="icon/1.一级导航/配置管理" stroke="none" stroke-width="1" fill="none" fill-rule="evenodd">
        <rect id="矩形" x="0" y="0" width="120" height="120"></rect>
        <path d="M87.2452249,50.0000364 C88.3249161,50.0000364 89.2552884,50.6106083 89.8697934,51.5349696 L100.534616,69.9651392 C101.155128,70.8955447 101.155128,72.1045266 100.534616,73.0349322 L89.8697934,91.4651017 C89.3411315,92.4130179 88.3359823,93.0008478 87.2452249,92.9999991 L65.7605181,92.9999991 C64.6750839,92.9999991 63.7504547,92.3837572 63.1302066,91.4651017 L52.4653842,73.0349322 C51.8448719,72.1045266 51.8448719,70.8955447 52.4653842,69.9651392 L63.1302066,51.5349696 C63.6580163,50.5834746 64.6670334,49.994671 65.7605181,50.0000364 L87.2452249,50.0000364 Z M81.1010241,26 C89.5480893,26 96.4509393,32.5526829 96.9169538,40.8090069 L96.9420303,41.6999112 L96.9420303,44.4953411 C96.9420303,46.2845582 95.4785481,47.7350053 93.6732513,47.7350053 C92.0320723,47.7350053 90.6733848,46.5362887 90.4399141,44.9740749 L90.4044722,44.4953411 L90.4044722,41.6999112 C90.4044722,36.8500186 86.6264263,32.8746763 81.8280831,32.5070697 L81.1010241,32.4793284 L35.8410062,32.4793284 C30.9475277,32.4793284 26.936459,36.2237234 26.5655488,40.979328 L26.5375581,41.6999112 L26.5375581,76.5886026 C26.5375581,81.4384952 30.315604,85.4138375 35.1203206,85.7814512 L35.8483842,85.8091936 L52.6768404,85.8669722 C54.4821327,85.8710107 55.9423079,87.3247279 55.9382332,89.1139404 C55.9345289,90.7404973 54.7219758,92.084374 53.1451994,92.3122385 L52.6620844,92.3462841 L35.8410062,92.2885138 C27.393941,92.2885138 20.491091,85.7358309 20.0250765,77.4795069 L20,76.5886026 L20,41.6999112 C20,33.3280835 26.6115718,26.4867169 34.9420954,26.0248531 L35.8410062,26 L81.1010241,26 Z M85.3902235,56.1396591 L67.6097765,56.1396591 L58.6448935,71.5000356 L67.6097765,86.8547063 L85.3902235,86.8547063 L94.3551065,71.5000356 L85.3902235,56.1396591 Z M76.5804025,60.7500544 C82.5482071,60.7688477 87.3813714,65.5707868 87.4004738,71.5000356 C87.4172205,74.3562323 86.2827101,77.1003181 84.2499059,79.1199892 C82.2171016,81.1396603 79.455172,82.266841 76.5804025,82.2502026 C73.7056331,82.266841 70.9437035,81.1396603 68.9108992,79.1199892 C66.8780949,77.1003181 65.7435846,74.3562323 65.7603312,71.5000356 C65.7603312,65.5088041 70.5502122,60.7500544 76.5804025,60.7500544 Z M76.5804025,66.8896403 C75.3426017,66.8661494 74.1485168,67.3443389 73.2730998,68.2141002 C72.3976828,69.0838615 71.9163838,70.2702318 71.9400274,71.5000356 C71.9400274,74.1076479 73.9500909,76.1047251 76.5804025,76.1047251 C79.1361153,76.095338 81.2055864,74.039237 81.2150346,71.5000356 C81.23863,70.2712404 80.7581105,69.0857729 79.8839536,68.2161873 C79.0097967,67.3466018 77.8172165,66.8677191 76.5804025,66.8896403 Z M44.2061683,60.6151721 C45.9953854,60.6151721 47.4458325,62.0656192 47.4458325,63.8548363 C47.4458325,65.6440535 45.9953854,67.0945005 44.2061683,67.0945005 L38.5951159,67.0945005 C36.8058987,67.0945005 35.3554517,65.6440535 35.3554517,63.8548363 C35.3554517,62.0656192 36.8058987,60.6151721 38.5951159,60.6151721 L44.2061683,60.6151721 Z M55.3469144,44.1919606 C57.1361316,44.1919606 58.5865786,45.6424076 58.5865786,47.4316248 C58.5865786,49.2208419 57.1361316,50.671289 55.3469144,50.671289 L38.5951159,50.671289 C36.8058987,50.671289 35.3554517,49.2208419 35.3554517,47.4316248 C35.3554517,45.6424076 36.8058987,44.1919606 38.5951159,44.1919606 L55.3469144,44.1919606 Z" id="形状结合" fill="#5A6172"></path>
    </g>
</svg>