<?xml version="1.0" encoding="UTF-8"?>
<svg width="120px" height="120px" viewBox="0 0 120 120" version="1.1" xmlns="http://www.w3.org/2000/svg" xmlns:xlink="http://www.w3.org/1999/xlink">
    <title>icon/1.一级导航/餐食管理</title>
    <g id="icon/1.一级导航/餐食管理" stroke="none" stroke-width="1" fill="none" fill-rule="evenodd">
        <rect id="矩形" x="0" y="0" width="120" height="120"></rect>
        <g id="形状结合-2" transform="translate(20.000000, 25.000000)" fill="#5A6172">
            <path d="M65.7946429,32 C74.7125,32 81.9705357,39.2583333 82,48.2007576 L82,48.25 C81.9803571,58.2166667 75.3607143,66.6371212 66.2857143,69.3454545 L66.2796411,69.4882151 C66.2072597,70.3351581 65.4968554,71 64.6311688,71 L55.3688312,71 C54.4550509,71 53.7142857,70.2592348 53.7142857,69.3454545 C44.6491071,66.6371212 38.0294643,58.2265152 38,48.269697 L38,48.2007576 C38.0392857,41.9075758 43.15625,36.7962121 49.4419643,36.7962121 C50.9053571,36.7962121 52.3,37.0719697 53.5866071,37.5742424 C56.5526786,34.1666667 60.9330357,32 65.7946429,32 Z M61.1010241,0 C69.5480893,0 76.4509393,6.55268286 76.9169538,14.8090069 L76.9420303,15.6999112 L76.9420303,24.4953411 C76.9420303,26.2845582 75.4785481,27.7350053 73.6732513,27.7350053 C72.0320723,27.7350053 70.6733848,26.5362887 70.4399141,24.9740749 L70.4044722,24.4953411 L70.4044722,15.6999112 C70.4044722,10.8500186 66.6264263,6.87467627 61.8280831,6.50706973 L61.1010241,6.47932842 L15.8410062,6.47932842 C10.9475277,6.47932842 6.93645898,10.2237234 6.56554876,14.979328 L6.53755813,15.6999112 L6.53755813,50.5886026 C6.53755813,55.4384952 10.315604,59.4138375 15.1203206,59.7814512 L15.8483842,59.8091936 L34.6768404,59.8669722 C36.4821327,59.8710107 37.9423079,61.3247279 37.9382332,63.1139404 C37.9345289,64.7404973 36.7219758,66.084374 35.1451994,66.3122385 L34.6620844,66.3462841 L15.8410062,66.2885138 C7.39394097,66.2885138 0.491091047,59.7358309 0.0250765038,51.4795069 L0,50.5886026 L0,15.6999112 C0,7.3280835 6.61157182,0.486716922 14.9420954,0.0248531486 L15.8410062,0 L61.1010241,0 Z M74.4178571,54.5136364 L45.5919643,54.5136364 C46.3678571,56.2962121 47.4776786,57.9310606 48.8919643,59.3492424 C51.8580357,62.3333333 55.80625,63.9681818 60,63.9681818 C64.19375,63.9681818 68.1419643,62.3234848 71.1080357,59.3492424 C72.5223214,57.9310606 73.6321429,56.2962121 74.4178571,54.5136364 Z M65.7946429,38.3128788 C60.34375,38.3128788 55.9044643,42.744697 55.875,48.2106061 L75.7142857,48.2106061 C75.6848214,42.744697 71.2455357,38.3128788 65.7946429,38.3128788 Z M49.4419643,43.1090909 C46.6232143,43.1090909 44.325,45.3939394 44.2857143,48.2106061 L44.285,48.2 L49.5892857,48.2007576 C49.598125,46.6318939 49.8217589,45.1108939 50.2458679,43.6736553 L50.3946429,43.1977273 C50.0803571,43.1386364 49.7660714,43.1090909 49.4419643,43.1090909 Z M32.2061683,34.6151721 C33.9953854,34.6151721 35.4458325,36.0656192 35.4458325,37.8548363 C35.4458325,39.6440535 33.9953854,41.0945005 32.2061683,41.0945005 L21.5951159,41.0945005 C19.8058987,41.0945005 18.3554517,39.6440535 18.3554517,37.8548363 C18.3554517,36.0656192 19.8058987,34.6151721 21.5951159,34.6151721 L32.2061683,34.6151721 Z M55.3469144,18.1919606 C57.1361316,18.1919606 58.5865786,19.6424076 58.5865786,21.4316248 C58.5865786,23.2208419 57.1361316,24.671289 55.3469144,24.671289 L21.5951159,24.671289 C19.8058987,24.671289 18.3554517,23.2208419 18.3554517,21.4316248 C18.3554517,19.6424076 19.8058987,18.1919606 21.5951159,18.1919606 L55.3469144,18.1919606 Z" id="形状结合"></path>
        </g>
    </g>
</svg>