<?xml version="1.0" encoding="utf-8"?>
<svg version="1.1" xmlns:xlink="http://www.w3.org/1999/xlink" width="88px" height="88px" xmlns="http://www.w3.org/2000/svg">
  <g transform="matrix(1 0 0 1 -280 -312 )">
    <path d="M 281 316  A 3 3 0 0 1 284 313 L 364 313  A 3 3 0 0 1 367 316 L 367 396  A 3 3 0 0 1 364 399 L 284 399  A 3 3 0 0 1 281 396 L 281 316  Z " fill-rule="nonzero" fill="#f2f2f2" stroke="none" />
    <path d="M 280.5 316  A 3.5 3.5 0 0 1 284 312.5 L 364 312.5  A 3.5 3.5 0 0 1 367.5 316 L 367.5 396  A 3.5 3.5 0 0 1 364 399.5 L 284 399.5  A 3.5 3.5 0 0 1 280.5 396 L 280.5 316  Z " stroke-width="1" stroke-dasharray="3,1" stroke="#d8d8d8" fill="none" stroke-dashoffset="0.5" />
  </g>
</svg>