<?xml version="1.0" encoding="utf-8"?>
<svg version="1.1" xmlns:xlink="http://www.w3.org/1999/xlink" width="58px" height="53px" xmlns="http://www.w3.org/2000/svg">
  <g transform="matrix(1 0 0 1 -519 -194 )">
    <path d="M 13.95625 31.53125  L 12.14375 36.7875  L 5.98125 36.7875  L 5.98125 28.99375  L 0 27.90625  L 0 52.91875  L 5.98125 50.925  L 5.98125 42.225  L 15.5875 42.225  L 20.84375 35.15625  L 13.95625 31.53125  Z M 43.31875 38.6  L 43.31875 38.41875  L 57.275 29.5375  L 13.775 0.899999999999996  L 8.7 0.899999999999996  L 1.8125 11.775  L 1.8125 15.4  L 40.05625 38.6  L 43.31875 38.6  Z M 41.6875 42.225  C 39.69375 40.95625  38.0625 40.23125  38.0625 40.23125  L 5.075 18.84375  L 1.63125 22.46875  L 39.875 45.66875  L 43.31875 45.66875  L 45.13125 43.85625  L 46.94375 38.6  C 46.94375 38.6  41.86875 42.225  41.6875 42.225  Z " fill-rule="nonzero" fill="#333333" stroke="none" transform="matrix(1 0 0 1 519 194 )" />
  </g>
</svg>