<?xml version="1.0" encoding="utf-8"?>
<svg version="1.1" xmlns:xlink="http://www.w3.org/1999/xlink" width="102px" height="101px" xmlns="http://www.w3.org/2000/svg">
  <defs>
    <mask fill="white" id="clip37">
      <path d="M 0 83.0869565217391  L 0 7.91304347826087  C 0 3.48173913043476  0.515668789808915 0  1.17197452229299 0  L 90.828025477707 0  C 91.4843312101911 0  92 3.48173913043476  92 7.91304347826087  L 92 83.0869565217391  C 92 87.5182608695652  91.4843312101911 91  90.828025477707 91  L 58.9183555298205 91  L 1.17197452229299 91  C 0.515668789808915 91  0 87.5182608695652  0 83.0869565217391  Z " fill-rule="evenodd" />
    </mask>
    <filter x="594px" y="193px" width="102px" height="101px" filterUnits="userSpaceOnUse" id="filter38">
      <feOffset dx="3" dy="3" in="SourceAlpha" result="shadowOffsetInner" />
      <feGaussianBlur stdDeviation="2.5" in="shadowOffsetInner" result="shadowGaussian" />
      <feComposite in2="shadowGaussian" operator="atop" in="SourceAlpha" result="shadowComposite" />
      <feColorMatrix type="matrix" values="0 0 0 0 0  0 0 0 0 0  0 0 0 0 0  0 0 0 0.349019607843137 0  " in="shadowComposite" />
    </filter>
    <g id="widget39">
      <path d="M 0 83.0869565217391  L 0 7.91304347826087  C 0 3.48173913043476  0.515668789808915 0  1.17197452229299 0  L 90.828025477707 0  C 91.4843312101911 0  92 3.48173913043476  92 7.91304347826087  L 92 83.0869565217391  C 92 87.5182608695652  91.4843312101911 91  90.828025477707 91  L 58.9183555298205 91  L 1.17197452229299 91  C 0.515668789808915 91  0 87.5182608695652  0 83.0869565217391  Z " fill-rule="nonzero" fill="#ffffff" stroke="none" transform="matrix(1 0 0 1 596 195 )" />
      <path d="M 0 83.0869565217391  L 0 7.91304347826087  C 0 3.48173913043476  0.515668789808915 0  1.17197452229299 0  L 90.828025477707 0  C 91.4843312101911 0  92 3.48173913043476  92 7.91304347826087  L 92 83.0869565217391  C 92 87.5182608695652  91.4843312101911 91  90.828025477707 91  L 58.9183555298205 91  L 1.17197452229299 91  C 0.515668789808915 91  0 87.5182608695652  0 83.0869565217391  Z " stroke-width="2" stroke="#adb0c1" fill="none" transform="matrix(1 0 0 1 596 195 )" mask="url(#clip37)" />
    </g>
  </defs>
  <g transform="matrix(1 0 0 1 -594 -193 )">
    <use xlink:href="#widget39" filter="url(#filter38)" />
    <use xlink:href="#widget39" />
  </g>
</svg>