<?xml version="1.0" encoding="utf-8"?>
<svg version="1.1" xmlns:xlink="http://www.w3.org/1999/xlink" width="11px" height="11px" xmlns="http://www.w3.org/2000/svg">
  <g transform="matrix(1 0 0 1 -515 -1418 )">
    <path d="M 10.9788448443496 5.51596730647338  C 10.9788448443496 2.51570712239658  8.5247417735813 0.0835156861887191  5.49745221847678 0.0835156861887191  C 2.47016266337226 0.0835156861887191  0.0160595926039697 2.51570712239658  0.0160595926039697 5.51596730647338  C 0.0160595926039694 8.51646714718366  2.47035869373098 10.9488528634792  5.49789006453775 10.9488528634792  C 8.52542143534452 10.9488528634792  10.9797205364715 8.51646714718366  10.9797205364715 5.51596730647338  Z M 6.46377809227087 5.51596730647338  L 7.92355626251787 6.95576876862414  C 8.06578250835096 7.08497472257721  8.14676089128035 7.26741015893388  8.14676089128035 7.45862437492363  C 8.14676089128035 7.83536445178301  7.83860129085336 8.14077262720618  7.4584671592475 8.14077262720618  C 7.2653145491821 8.14077262720618  7.08105019938804 8.06033830023063  6.95066271735115 7.91910789083817  L 5.49789007085669 6.47409920113864  L 4.04511742436222 7.91997576428044  C 3.91822949515564 8.03503938566222  3.75247314890956 8.09885361460802  3.58048532922498 8.09885361460802  C 3.20035119761911 8.09885361460802  2.89219159719213 7.79344543918485  2.89219159719213 7.41670536232547  C 2.89219159719213 7.24604119382088  2.9567406040784 7.08157635139177  3.07309955856255 6.95576876862414  L 4.53112635732057 5.51596730647338  L 3.07222386655763 4.07616584443859  C 2.95612359535281 3.95041083488527  2.89173443834873 3.78613442641124  2.89173443834873 3.6156821789697  C 2.89173443834873 3.23894210211031  3.19989403877571 2.93353392668714  3.58002817038158 2.93353392668714  C 3.75222989059558 2.93353392668714  3.9181764308794 2.99750663034534  4.04511742436222 3.11282670958355  L 5.49789007085669 4.55783541180812  L 6.95066271735115 3.11195883614128  C 7.07755064579034 2.99689521845463  7.24330698929465 2.93308099179159  7.4152948058962 2.93308099179159  C 7.79542893750206 2.93308099179159  8.10358853792904 3.23848916721476  8.10358853792904 3.61522924407414  C 8.10358853792904 3.78589341569776  8.03903952868868 3.95035826089978  7.92268057039593 4.07616584443859  L 6.46465378439281 5.51596730647338  Z " fill-rule="nonzero" fill="#7f7f7f" stroke="none" transform="matrix(1 0 0 1 515 1418 )" />
  </g>
</svg>