<?xml version="1.0" encoding="utf-8"?>
<svg version="1.1" xmlns:xlink="http://www.w3.org/1999/xlink" width="19px" height="20px" xmlns="http://www.w3.org/2000/svg">
  <g transform="matrix(1 0 0 1 -1281 -980 )">
    <path d="M 16.413324358299 6.64828671778846  L 14.515253849433 6.64828671778846  L 14.515253849433 18  L 4.34061215668814 18  L 4.34061215668814 6.64828671778846  L 2.44109493885309 6.64828671778846  L 2.44109493885309 20  L 16.413324358299 20  L 16.413324358299 6.64828671778846  Z M 18.8524606897423 2.87159415120192  L 18.8524606897423 2.8701738  L 12.5983762419845 2.8701738  L 12.5983762419845 0.0408501487980771  L 6.32403796782216 0.0408501487980771  L 6.32403796782216 2.87301448100962  L 0.088760596121134 2.87301448100962  L 0.088760596121134 5  L 18.8524606897423 5  L 18.8524606897423 2.87159415120192  Z M 8.22500187185567 2.8701738  L 8.22355518565721 2.8701738  L 8.22355518565721 1.90434042644231  L 10.6988590246392 1.90434042644231  L 10.6988590246392 2.8701738  L 8.22500187185567 2.8701738  Z M 6.32548467556701 15.7228594331731  L 6.32548467630154 15.7200187310096  L 6.32548467630154 6.65396807956731  L 8.22355518565721 6.65396807956731  L 8.22355518565721 15.7228594331731  L 6.32548467556701 15.7228594331731  Z M 12.5983762419845 15.7143373689904  L 10.6988590246392 15.7143373694712  L 10.6988590246392 6.64828671778846  L 12.5983762419845 6.64828671778846  L 12.5983762419845 15.7143373689904  Z " fill-rule="nonzero" fill="#d9001b" stroke="none" transform="matrix(1 0 0 1 1281 980 )" />
  </g>
</svg>