<?xml version="1.0" encoding="utf-8"?>
<svg version="1.1" xmlns:xlink="http://www.w3.org/1999/xlink" width="20px" height="20px" xmlns="http://www.w3.org/2000/svg">
  <g transform="matrix(1 0 0 1 -1186 -980 )">
    <path d="M 19.2125 9.8625  C 19.35 4.775  15.225 0.65  10 0.65  C 4.91207674218381 0.650000000000001  0.787499999999999 4.77457674218382  0.787499999999999 9.8625  C 0.787499999999999 14.9504232578162  4.91207674218381 19.075  10 19.075  C 15.0879232578162 19.075  19.2125 14.9504232578162  19.2125 9.8625  Z M 17.8375 9.8625  C 17.8375 14.125  14.4 17.8375  10 17.8375  C 5.6 17.8375  2.1625 14.2625  2.1625 10  C 2.1625 5.7375  5.7375 2.025  10 2.025  C 14.2625 2.025  17.8375 5.6  17.8375 9.8625  Z M 4.0875 10.55  L 4.0875 9.175  L 16.05 9.175  L 16.05 10.55  L 4.0875 10.55  Z " fill-rule="nonzero" fill="#000000" stroke="none" transform="matrix(1 0 0 1 1186 980 )" />
  </g>
</svg>