<?xml version="1.0" encoding="utf-8"?>
<svg version="1.1" xmlns:xlink="http://www.w3.org/1999/xlink" width="25px" height="25px" xmlns="http://www.w3.org/2000/svg">
  <defs>
    <filter x="194px" y="2765px" width="25px" height="25px" filterUnits="userSpaceOnUse" id="filter46">
      <feOffset dx="1" dy="1" in="SourceAlpha" result="shadowOffsetInner" />
      <feGaussianBlur stdDeviation="2.5" in="shadowOffsetInner" result="shadowGaussian" />
      <feComposite in2="shadowGaussian" operator="atop" in="SourceAlpha" result="shadowComposite" />
      <feColorMatrix type="matrix" values="0 0 0 0 0  0 0 0 0 0  0 0 0 0 0  0 0 0 0.698039215686274 0  " in="shadowComposite" />
    </filter>
    <g id="widget47">
      <path d="M 205.5 2769  C 209.7 2769  213 2772.3  213 2776.5  C 213 2780.7  209.7 2784  205.5 2784  C 201.3 2784  198 2780.7  198 2776.5  C 198 2772.3  201.3 2769  205.5 2769  Z " fill-rule="nonzero" fill="#009dd9" stroke="none" />
      <path d="M 205.5 2769.5  C 209.42 2769.5  212.5 2772.58  212.5 2776.5  C 212.5 2780.42  209.42 2783.5  205.5 2783.5  C 201.58 2783.5  198.5 2780.42  198.5 2776.5  C 198.5 2772.58  201.58 2769.5  205.5 2769.5  Z " stroke-width="1" stroke="#ffffff" fill="none" />
    </g>
  </defs>
  <g transform="matrix(1 0 0 1 -194 -2765 )">
    <use xlink:href="#widget47" filter="url(#filter46)" />
    <use xlink:href="#widget47" />
  </g>
</svg>