<?xml version="1.0" encoding="utf-8"?>
<svg version="1.1" xmlns:xlink="http://www.w3.org/1999/xlink" width="12px" height="12px" viewBox="1252 2794  12 12" xmlns="http://www.w3.org/2000/svg">
  <path d="M 1258 2794  C 1261.36 2794  1264 2796.64  1264 2800  C 1264 2803.36  1261.36 2806  1258 2806  C 1254.64 2806  1252 2803.36  1252 2800  C 1252 2796.64  1254.64 2794  1258 2794  Z " fill-rule="nonzero" fill="#ffffff" stroke="none" />
  <path d="M 1258 2794.5  C 1261.08 2794.5  1263.5 2796.92  1263.5 2800  C 1263.5 2803.08  1261.08 2805.5  1258 2805.5  C 1254.92 2805.5  1252.5 2803.08  1252.5 2800  C 1252.5 2796.92  1254.92 2794.5  1258 2794.5  Z " stroke-width="1" stroke="#797979" fill="none" />
  <path d="M 1258 2803  C 1256.32 2803  1255 2801.68  1255 2800  C 1255 2798.32  1256.32 2797  1258 2797  C 1259.68 2797  1261 2798.32  1261 2800  C 1261 2801.68  1259.68 2803  1258 2803  " fill-rule="nonzero" fill="#797979" stroke="none" />
</svg>