<?xml version="1.0" encoding="utf-8"?>
<svg version="1.1" xmlns:xlink="http://www.w3.org/1999/xlink" width="12px" height="12px" viewBox="1252 2884  12 12" xmlns="http://www.w3.org/2000/svg">
  <path d="M 1258 2884  C 1261.36 2884  1264 2886.64  1264 2890  C 1264 2893.36  1261.36 2896  1258 2896  C 1254.64 2896  1252 2893.36  1252 2890  C 1252 2886.64  1254.64 2884  1258 2884  Z " fill-rule="nonzero" fill="#f0f0f0" stroke="none" />
  <path d="M 1258 2884.5  C 1261.08 2884.5  1263.5 2886.92  1263.5 2890  C 1263.5 2893.08  1261.08 2895.5  1258 2895.5  C 1254.92 2895.5  1252.5 2893.08  1252.5 2890  C 1252.5 2886.92  1254.92 2884.5  1258 2884.5  Z " stroke-width="1" stroke="#797979" fill="none" />
  <path d="M 1258 2893  C 1256.32 2893  1255 2891.68  1255 2890  C 1255 2888.32  1256.32 2887  1258 2887  C 1259.68 2887  1261 2888.32  1261 2890  C 1261 2891.68  1259.68 2893  1258 2893  " fill-rule="nonzero" fill="#797979" stroke="none" />
</svg>