<?xml version="1.0" encoding="utf-8"?>
<svg version="1.1" xmlns:xlink="http://www.w3.org/1999/xlink" width="12px" height="12px" viewBox="1252 2839  12 12" xmlns="http://www.w3.org/2000/svg">
  <path d="M 1258 2839  C 1261.36 2839  1264 2841.64  1264 2845  C 1264 2848.36  1261.36 2851  1258 2851  C 1254.64 2851  1252 2848.36  1252 2845  C 1252 2841.64  1254.64 2839  1258 2839  Z " fill-rule="nonzero" fill="#f0f0f0" stroke="none" />
  <path d="M 1258 2839.5  C 1261.08 2839.5  1263.5 2841.92  1263.5 2845  C 1263.5 2848.08  1261.08 2850.5  1258 2850.5  C 1254.92 2850.5  1252.5 2848.08  1252.5 2845  C 1252.5 2841.92  1254.92 2839.5  1258 2839.5  Z " stroke-width="1" stroke="#797979" fill="none" />
  <path d="M 1258 2848  C 1256.32 2848  1255 2846.68  1255 2845  C 1255 2843.32  1256.32 2842  1258 2842  C 1259.68 2842  1261 2843.32  1261 2845  C 1261 2846.68  1259.68 2848  1258 2848  " fill-rule="nonzero" fill="#797979" stroke="none" />
</svg>