<?xml version="1.0" encoding="utf-8"?>
<svg version="1.1" xmlns:xlink="http://www.w3.org/1999/xlink" width="16px" height="16px" xmlns="http://www.w3.org/2000/svg">
  <g transform="matrix(1 0 0 1 -1617 -3052 )">
    <path d="M 1625 3052  C 1629.48 3052  1633 3055.52  1633 3060  C 1633 3064.48  1629.48 3068  1625 3068  C 1620.52 3068  1617 3064.48  1617 3060  C 1617 3055.52  1620.52 3052  1625 3052  Z " fill-rule="nonzero" fill="#ffffff" stroke="none" />
    <path d="M 1625 3052.5  C 1629.2 3052.5  1632.5 3055.8  1632.5 3060  C 1632.5 3064.2  1629.2 3067.5  1625 3067.5  C 1620.8 3067.5  1617.5 3064.2  1617.5 3060  C 1617.5 3055.8  1620.8 3052.5  1625 3052.5  Z " stroke-width="1" stroke="#082133" fill="none" />
  </g>
</svg>