<?xml version="1.0" encoding="utf-8"?>
<svg version="1.1" xmlns:xlink="http://www.w3.org/1999/xlink" width="36px" height="41px" xmlns="http://www.w3.org/2000/svg">
  <g transform="matrix(1 0 0 1 -709 -670 )">
    <path d="M 22.203906264834 40  L 22.203906264834 39  L 35.5640625 39  L 35.5640625 40  L 22.203906264834 40  Z M 33.95625 30.682812514834  C 33.917968764834 28.156250014834  31.659375 26.165625029668  28.826562485166 26.165624985166  C 25.993749970332 26.165624985166  23.696874970332 28.19453125  23.696875014834 30.682812514834  L 23.696875014834 36.92265625  C 23.696875014834 37.2671875  24.003125029668 37.573437514834  24.42421875 37.573437514834  L 33.228906264834 37.573437514834  C 33.61171875 37.573437514834  33.95625 37.305468779668  33.95625 36.92265625  L 33.95625 30.682812514834  Z M 30.664062485166 31.41015625  C 30.9703125 31.563281235166  31.08515625 31.946093764834  30.932031264834 32.290625014834  L 29.439062514834 34.664062485166  C 29.24765625 34.9703125  28.78828125 35.123437485166  28.44375 34.893749985166  C 28.09921875 34.740625  27.946093764834 34.319531235166  28.175781264834 34.013281264834  L 29.056249985166 32.596874985166  L 27.371875014834 32.596874985166  C 27.257031264834 32.596874985166  27.142187514834 32.55859375  27.027343764834 32.520312514834  C 26.682812514834 32.367187529668  26.529687529668 31.946093764834  26.759374985166 31.63984375  L 28.252343735166 29.266406235166  C 28.44375 28.960156220332  28.903125 28.807031235166  29.24765625 29.036718735166  C 29.5921875 29.189843720332  29.745312485166 29.610937485166  29.515624985166 29.9171875  L 28.635156264834 31.333593735166  L 30.319531235166 31.333593735166  C 30.434374985166 31.333593735166  30.549218735166 31.371874970332  30.664062485166 31.41015625  Z M 20.4046875 35.659375  C 20.4046875 37.420312485166  20.74921875 39.1046875  21.361718735166 40  L 1.95312498516602 40  C 1.14921873516602 40.59765625  0.53671875 39.946874985166  1 39.181250014834  L 1 2.125  C 0.53671875 1.32109375  1.18750001483398 0.708593764833984  1.95312498516602 1  L 30.434374985166 1  C 31.238281235166 0.708593764833984  31.850781220332 1.35937502966797  31.850781264834 2.125  L 31.850781264834 23.753906235166  C 31.621093764834 23.753906235166  31.391406264834 23.715625  31.161718764834 23.715625  C 25.228125 23.715625  20.4046875 29.075000014834  20.4046875 35.659375  Z M 12.93984375 33.47734375  L 21.400000014834 24.098437485166  L 16.997656235166 24.098437485166  L 20.51953125 19.734374985166  L 14.930468735166 19.734374985166  L 10.64296875 27.199218735166  L 14.279687514834 27.199218735166  L 12.93984375 33.47734375  Z M 26.223437514834 14.145312514834  L 26.223437514834 6.4890625  C 26.223437514834 6.14453125  25.9171875 5.83828123516602  25.496093735166 6  L 6.96796875 6  C 6.58515626483398 5.83828123516602  6.24062501483398 6.10624997033203  6.24062501483398 6.4890625  L 6.24062501483398 14.145312514834  C 6.24062501483398 14.489843764834  6.54687502966797 14.796093779668  6.96796875 15  L 25.496093735166 15  C 25.878906220332 14.796093735166  26.223437470332 14.528125  26.223437514834 14.145312514834  Z " fill-rule="nonzero" fill="#000000" stroke="none" transform="matrix(1 0 0 1 709 670 )" />
  </g>
</svg>