<?xml version="1.0" encoding="utf-8"?>
<svg version="1.1" xmlns:xlink="http://www.w3.org/1999/xlink" width="15px" height="15px" xmlns="http://www.w3.org/2000/svg">
  <g transform="matrix(1 0 0 1 -421 -425 )">
    <path d="M 14.7426189382154 2.17844241539359  C 14.8465016988076 2.28349749871579  14.9046089918353 2.42602844594466  14.9040716042987 2.57446846015372  C 14.9040716042987 2.71860038276173  14.8506988250219 2.86273232199311  14.7439532500018 2.97184154088524  L 7.03158618848322 10.7549656617864  L 4.25620150024854 10.7549656617864  L 4.25620150024854 7.95045468310628  L 11.9645656102776 0.167330562205141  C 12.0689559034702 0.0621261357998643  12.2106884775073 0.00343809624962585  12.3581898722302 0.00434025168301082  C 12.4996277479329 0.00434025168301082  12.642399935758 0.0582213431433871  12.7504798222284 0.165983526403392  L 14.7426189382154 2.17844241539359  Z M 6.56991162031715 9.35271018067321  L 13.2842076482655 2.57446846015372  L 12.3581898722302 1.63963146737344  L 5.64389384444989 8.4178731877233  L 5.64389384444989 9.35271018067321  L 6.56991162031715 9.35271018067321  Z M 7.95893827630483 1.63963146737344  L 7.96027260422165 1.63963146737344  C 7.96027260422284 2.02648295657585  7.6496270880909 2.34008700143285  7.26642642405691 2.34008700143285  C 7.26598165320851 2.34008700143285  7.26553688246341 2.34008656969786  7.26509211243743 2.34008570622846  L 1.47681384439388 2.34008570622846  L 1.47681384439388 13.5594766404665  L 12.5890271561452 13.5594766404665  L 12.5890271561452 7.71607192935065  C 12.5890271561452 7.32884976601435  12.8999713681447 7.01494418056719  13.2835404922043 7.01494418056719  C 13.6671096162638 7.01494418056719  13.9780538282634 7.32884976601435  13.9780538282634 7.71607192935065  L 13.9780538282634 14.0268951452531  C 13.9780538282634 14.5428066305221  13.5644147599678 14.961732138203  13.0520360522281 15  L 1.01380496444149 15  C 0.502900627432974 14.9609889570976  0.089120969981487 14.5426657732822  0 14.0268951452531  L 0 1.8740142374132  C 0.0891215003605561 1.35810275214418  0.502760568656142 0.939177244463292  1.01380496444149 0.939177244632918  L 7.26509211243743 0.939177244632918  C 7.6482927638071 0.939177253720073  7.9589382673962 1.25278128599073  7.95893827630483 1.63963146737344  Z " fill-rule="nonzero" fill="#000000" stroke="none" transform="matrix(1 0 0 1 421 425 )" />
  </g>
</svg>