<?xml version="1.0" encoding="utf-8"?>
<svg version="1.1" xmlns:xlink="http://www.w3.org/1999/xlink" width="41px" height="50px" xmlns="http://www.w3.org/2000/svg">
  <g transform="matrix(1 0 0 1 -725 -240 )">
    <path d="M 22.1015625 47.0525568181818  C 22.5523726851852 46.6027462121212  22.7777777777778 46.0700757575758  22.7777777777778 45.4545454545455  C 22.7777777777778 44.8390151515152  22.5523726851852 44.3063446969697  22.1015625 43.8565340909091  C 21.6507523148148 43.4067234848485  21.1168981481481 43.1818181818182  20.5 43.1818181818182  C 19.8831018518519 43.1818181818182  19.3492476851852 43.4067234848485  18.8984375 43.8565340909091  C 18.4476273148148 44.3063446969697  18.2222222222222 44.8390151515152  18.2222222222222 45.4545454545455  C 18.2222222222222 46.0700757575758  18.4476273148148 46.6027462121212  18.8984375 47.0525568181818  C 19.3492476851852 47.5023674242424  19.8831018518519 47.7272727272727  20.5 47.7272727272727  C 21.1168981481481 47.7272727272727  21.6507523148148 47.5023674242424  22.1015625 47.0525568181818  Z M 36.1063368055556 40.5717329545455  C 36.3317418981481 40.3468276515151  36.4444444444444 40.0804924242424  36 39.7727272727273  L 36 5.68181818181818  C 36.4444444444444 5.37405303030303  36.3317418981481 5.1077178030303  36.1063368055556 4.8828125  C 35.880931712963 4.65790719696969  35.6140046296296 4.54545454545455  35.3055555555556 5  L 5.69444444444444 5  C 5.38599537037037 4.54545454545455  5.11906828703704 4.65790719696969  4.89366319444444 4.8828125  C 4.66825810185185 5.1077178030303  4.55555555555556 5.37405303030303  5 5.68181818181818  L 5 39.7727272727273  C 4.55555555555556 40.0804924242424  4.66825810185185 40.3468276515151  4.89366319444444 40.5717329545455  C 5.11906828703704 40.7966382575758  5.38599537037037 40.9090909090909  5.69444444444444 41  L 35.3055555555556 41  C 35.6140046296296 40.9090909090909  35.880931712963 40.7966382575758  36.1063368055556 40.5717329545455  Z M 39.3272569444444 1.66903409090909  C 40.4424189814815 2.78172348484848  41 4.11931818181818  41 5.68181818181818  L 41 44.3181818181818  C 41 45.8806818181818  40.4424189814815 47.2182765151515  39.3272569444444 48.3309659090909  C 38.2120949074074 49.4436553030303  36.8715277777778 50  35.3055555555556 50  L 5.69444444444444 50  C 4.12847222222222 50  2.78790509259259 49.4436553030303  1.67274305555556 48.3309659090909  C 0.557581018518518 47.2182765151515  0 45.8806818181818  0 44.3181818181818  L 0 5.68181818181818  C 0 4.11931818181818  0.557581018518518 2.78172348484848  1.67274305555556 1.66903409090909  C 2.78790509259259 0.556344696969691  4.12847222222222 0  5.69444444444444 0  L 35.3055555555556 0  C 36.8715277777778 0  38.2120949074074 0.556344696969691  39.3272569444444 1.66903409090909  Z " fill-rule="nonzero" fill="#000000" stroke="none" transform="matrix(1 0 0 1 725 240 )" />
  </g>
</svg>