<?xml version="1.0" encoding="utf-8"?>
<svg version="1.1" xmlns:xlink="http://www.w3.org/1999/xlink" width="17px" height="17px" xmlns="http://www.w3.org/2000/svg">
  <g transform="matrix(1 0 0 1 -28 -248 )">
    <path d="M 9.5625 14.2330729166667  C 9.75434027777778 14.2330729166667  9.92035590277778 14.1629774305556  10.060546875 14.0227864583333  L 11.189453125 12.8938802083333  C 11.3296440972222 12.7536892361111  11.3997395833333 12.5876736111111  11.3997395833333 12.3958333333333  C 11.3997395833333 12.2039930555556  11.3296440972222 12.0379774305556  11.189453125 11.8977864583333  L 7.79166666666667 8.5  L 11.189453125 5.10221354166667  C 11.3296440972222 4.96202256944444  11.3997395833333 4.79600694444444  11.3997395833333 4.60416666666667  C 11.3997395833333 4.41232638888889  11.3296440972222 4.24631076388889  11.189453125 4.10611979166667  L 10.060546875 2.97721354166667  C 9.92035590277778 2.83702256944444  9.75434027777778 2.76692708333333  9.5625 2.76692708333333  C 9.37065972222222 2.76692708333333  9.20464409722222 2.83702256944444  9.064453125 2.97721354166667  L 4.03971354166667 8.001953125  C 3.89952256944444 8.14214409722222  3.82942708333333 8.30815972222222  3.82942708333333 8.5  C 3.82942708333333 8.69184027777778  3.89952256944444 8.85785590277778  4.03971354166667 8.998046875  L 9.064453125 14.0227864583333  C 9.20464409722222 14.1629774305556  9.37065972222222 14.2330729166667  9.5625 14.2330729166667  Z M 15.8600260416667 4.2333984375  C 16.6200086805556 5.53569878472222  17 6.95789930555555  17 8.5  C 17 10.0421006944444  16.6200086805556 11.4643012152778  15.8600260416667 12.7666015625  C 15.1000434027778 14.0689019097222  14.0689019097222 15.1000434027778  12.7666015625 15.8600260416667  C 11.4643012152778 16.6200086805556  10.0421006944444 17  8.5 17  C 6.95789930555556 17  5.53569878472222 16.6200086805556  4.2333984375 15.8600260416667  C 2.93109809027778 15.1000434027778  1.89995659722222 14.0689019097222  1.13997395833333 12.7666015625  C 0.379991319444444 11.4643012152778  0 10.0421006944444  0 8.5  C 0 6.95789930555555  0.379991319444444 5.53569878472222  1.13997395833333 4.2333984375  C 1.89995659722222 2.93109809027778  2.93109809027778 1.89995659722222  4.2333984375 1.13997395833333  C 5.53569878472222 0.379991319444443  6.95789930555556 0  8.5 0  C 10.0421006944444 0  11.4643012152778 0.379991319444443  12.7666015625 1.13997395833333  C 14.0689019097222 1.89995659722222  15.1000434027778 2.93109809027778  15.8600260416667 4.2333984375  Z " fill-rule="nonzero" fill="#000000" stroke="none" transform="matrix(1 0 0 1 28 248 )" />
  </g>
</svg>