<?xml version="1.0" encoding="utf-8"?>
<svg version="1.1" xmlns:xlink="http://www.w3.org/1999/xlink" width="12px" height="12px" viewBox="990 4781.5  12 12" xmlns="http://www.w3.org/2000/svg">
  <path d="M 996 4781.5  C 999.36 4781.5  1002 4784.14  1002 4787.5  C 1002 4790.86  999.36 4793.5  996 4793.5  C 992.64 4793.5  990 4790.86  990 4787.5  C 990 4784.14  992.64 4781.5  996 4781.5  Z " fill-rule="nonzero" fill="#ffffff" stroke="none" />
  <path d="M 996 4782  C 999.08 4782  1001.5 4784.42  1001.5 4787.5  C 1001.5 4790.58  999.08 4793  996 4793  C 992.92 4793  990.5 4790.58  990.5 4787.5  C 990.5 4784.42  992.92 4782  996 4782  Z " stroke-width="1" stroke="#797979" fill="none" />
  <path d="M 996 4790.5  C 994.32 4790.5  993 4789.18  993 4787.5  C 993 4785.82  994.32 4784.5  996 4784.5  C 997.68 4784.5  999 4785.82  999 4787.5  C 999 4789.18  997.68 4790.5  996 4790.5  " fill-rule="nonzero" fill="#797979" stroke="none" />
</svg>