<?xml version="1.0" encoding="utf-8"?>
<svg version="1.1" xmlns:xlink="http://www.w3.org/1999/xlink" width="80px" height="68px" xmlns="http://www.w3.org/2000/svg">
  <g transform="matrix(1 0 0 1 -490 -1009 )">
    <path d="M 490 1009  L 570 1009  L 570 1077  L 490 1077  L 490 1009  " fill-rule="nonzero" fill="#cccccc" stroke="none" />
    <path d="M 495 1014  L 565 1014  L 565 1072  L 495 1072  L 495 1014  " fill-rule="nonzero" fill="#ffffff" stroke="none" />
    <path d="M 536.7 1029.4  C 533.844 1029.4  531.6 1027.156  531.6 1024.3  C 531.6 1021.444  533.844 1019.2  536.7 1019.2  C 539.556 1019.2  541.8 1021.444  541.8 1024.3  C 541.8 1027.156  539.556 1029.4  536.7 1029.4  " fill-rule="nonzero" fill="#cccccc" stroke="none" />
    <path d="M 497 1071  L 497 1040.75  L 513.75 1027  L 537.2 1042.95  L 550.6 1035.25  L 564 1042.95  L 564 1071  L 497 1071  " fill-rule="nonzero" fill="#169bd5" stroke="none" />
  </g>
</svg>