<?xml version="1.0" encoding="utf-8"?>
<svg version="1.1" xmlns:xlink="http://www.w3.org/1999/xlink" width="17px" height="25px" xmlns="http://www.w3.org/2000/svg">
  <g transform="matrix(1 0 0 1 -837 -268 )">
    <path d="M 1 2.16666667675781  L 6.30416667675781 2.16666667675781  C 6.69166667675781 1.39166667675781  7.59583335351562 0.875  8.5 0.875  C 9.40416664648437 0.875  10.3083333232422 1.39166667675781  10.6958333232422 2.16666667675781  L 16 2.16666667675781  L 16 24  L 1 24  L 1 2.16666667675781  Z M 13.6666666767578 4.75  L 5.91666667675781 4.75  L 3.33333332324219 4.75  L 3.33333332324219 21.5416666767578  L 13.6666666767578 21.5416666767578  L 13.6666666767578 4.75  Z M 5.91666667675782 6.04166667675781  L 5.91666667675781 4.75  L 11.0833333232422 4.75  L 11.0833333232422 6.04166667675781  L 5.91666667675782 6.04166667675781  Z M 5.91666667675782 12.5  L 5.91666667675781 9.91666667675781  L 11.0833333232422 9.91666667675781  L 11.0833333232422 12.5  L 5.91666667675782 12.5  Z M 5.91666667675782 16.375  L 5.91666667675781 13.7916666767578  L 11.0833333232422 13.7916666767578  L 11.0833333232422 16.375  L 5.91666667675782 16.375  Z " fill-rule="nonzero" fill="#444444" stroke="none" transform="matrix(1 0 0 1 837 268 )" />
  </g>
</svg>