<?xml version="1.0" encoding="utf-8"?>
<svg version="1.1" xmlns:xlink="http://www.w3.org/1999/xlink" width="80px" height="91px" xmlns="http://www.w3.org/2000/svg">
  <g transform="matrix(1 0 0 1 -665 -999 )">
    <path d="M 665 999  L 745 999  L 745 1090  L 665 1090  L 665 999  " fill-rule="nonzero" fill="#cccccc" stroke="none" />
    <path d="M 671 1005  L 739 1005  L 739 1084  L 671 1084  L 671 1005  " fill-rule="nonzero" fill="#ffffff" stroke="none" />
    <path d="M 712.6 1024.65  C 709.24 1024.65  706.6 1022.01  706.6 1018.65  C 706.6 1015.29  709.24 1012.65  712.6 1012.65  C 715.96 1012.65  718.6 1015.29  718.6 1018.65  C 718.6 1022.01  715.96 1024.65  712.6 1024.65  " fill-rule="nonzero" fill="#cccccc" stroke="none" />
    <path d="M 673 1082  L 673 1040.75  L 689 1022  L 711.4 1037  L 724.2 1033.25  L 737 1037  L 737 1082  L 673 1082  " fill-rule="nonzero" fill="#169bd5" stroke="none" />
  </g>
</svg>