<?xml version="1.0" encoding="utf-8"?>
<svg version="1.1" xmlns:xlink="http://www.w3.org/1999/xlink" width="20px" height="20px" xmlns="http://www.w3.org/2000/svg">
  <g transform="matrix(1 0 0 1 -305 -5908 )">
    <path d="M 19.5152467836257 9.12670565302144  C 19.1409777777778 4.51072124756335  15.5230440545809 0.768031189083821  11.0318159844055 0.269005847953217  C 4.41973021442495 -0.479532163742689  -1.0695485380117 5.38401559454191  0.178014814814815 12.1208576998051  C 0.926552826510721 15.9883040935672  4.045461208577 18.9824561403509  7.91290760233918 19.7309941520468  C 14.6497497076023 20.9785575048733  20.2637847953216 15.7387914230019  19.5152467836257 9.12670565302144  Z M 9.28522729044834 6.38206627680312  L 9.28522729044834 13.8674463937622  L 6.79010058479532 13.8674463937622  L 6.79010058479532 6.38206627680312  L 9.28522729044834 6.38206627680312  Z M 13.0279173489279 6.38206627680312  L 13.0279173489279 13.8674463937622  L 10.5327906432749 13.8674463937622  L 10.5327906432749 6.38206627680312  L 13.0279173489279 6.38206627680312  Z " fill-rule="nonzero" fill="#040000" stroke="none" transform="matrix(1 0 0 1 305 5908 )" />
  </g>
</svg>