<?xml version="1.0" encoding="utf-8"?>
<svg version="1.1" xmlns:xlink="http://www.w3.org/1999/xlink" width="20px" height="20px" xmlns="http://www.w3.org/2000/svg">
  <g transform="matrix(1 0 0 1 -1226 -6607 )">
    <path d="M 19.8999609375 10.015703125  C 19.89994140625 4.600625  15.5101171875 0.2107421875  10.09509765625 0.2107421875  C 4.68001953125 0.2107421875  0.29013671875 4.6006640625  0.29013671875 10.015703125  C 0.29013671875 15.4307421875  4.68001953125 19.8206640625  10.09509765625 19.8206640625  C 15.5101171875 19.8206640625  19.8999609375 15.4307421875  19.8999609375 10.015703125  Z M 9.557890625 13.49498046875  C 9.83865234375 13.7706640625  9.83712890625 14.216171875  9.554375 14.48970703125  L 8.964921875 15.0603125  C 8.4293359375 15.57857421875  7.72556640625 15.83736328125  7.02234375 15.83736328125  C 6.31888671875 15.83736328125  5.615703125 15.5784765625  5.08041015625 15.0605078125  C 4.559765625 14.556796875  4.2734375 13.88697265625  4.2734375 13.174375  C 4.2734375 12.4612890625  4.5598046875 11.79126953125  5.0801171875 11.287265625  L 7.24890625 9.1891796875  C 8.5971875 7.88494140625  10.14509765625 7.697578125  11.1929296875 8.7110546875  C 11.4753515625 8.98458984375  11.477109375 9.43009765625  11.1964453125 9.705625  C 10.91578125 9.98150390625  10.45923828125 9.98330078125  10.1761328125 9.70923828125  C 9.560078125 9.1134375  8.714765625 9.75318359375  8.26529296875 10.18794921875  L 6.09654296875 12.28619140625  C 5.8511328125 12.523203125  5.7165234375 12.838828125  5.7165234375 13.17427734375  C 5.7165234375 13.50943359375  5.8511328125 13.82486328125  6.09654296875 14.0620703125  C 6.6069921875 14.55611328125  7.43765625 14.5554296875  7.948046875 14.0620703125  L 8.5375390625 13.4913671875  C 8.82029296875 13.21802734375  9.2771875 13.21939453125  9.557890625 13.49498046875  Z M 15.91673828125 7.22810546875  C 15.9167578125 7.94119140625  15.6300390625 8.61115234375  15.1097265625 9.11501953125  L 12.79615234375 11.35291015625  C 12.0812109375 12.0448046875  11.32994140625 12.39421875  10.6183203125 12.39421875  C 10.037265625 12.39421875  9.4825390625 12.1612109375  8.9971875 11.6912890625  C 8.714140625 11.4174609375  8.7123828125 10.97205078125  8.99357421875 10.6965625  C 9.27427734375 10.42087890625  9.73087890625 10.4190234375  10.0136328125 10.6928515625  C 10.22525390625 10.897734375  10.72203125 11.37830078125  11.77935546875 10.35466796875  L 14.09361328125 8.11654296875  C 14.33853515625 7.87919921875  14.47349609375 7.563515625  14.47349609375 7.228125  C 14.47349609375 6.89296875  14.33873046875 6.57763671875  14.0929296875 6.3400390625  C 13.63228515625 5.8944921875  12.9259375 5.67783203125  12.3862890625 6.20029296875  L 11.6523046875 6.9109765625  C 11.3694921875 7.184453125  10.9128515625 7.18294921875  10.63189453125 6.90736328125  C 10.3509375 6.63154296875  10.35279296875 6.18623046875  10.63580078125 5.91244140625  L 11.370078125 5.201796875  C 12.4112890625 4.19404296875  13.98462890625 4.25326171875  15.10970703125 5.3418359375  C 15.63001953125 5.84568359375  15.91673828125 6.51537109375  15.91673828125 7.22810546875  Z " fill-rule="nonzero" fill="#02a7f0" stroke="none" transform="matrix(1 0 0 1 1226 6607 )" />
  </g>
</svg>