<?xml version="1.0" encoding="utf-8"?>
<svg version="1.1" xmlns:xlink="http://www.w3.org/1999/xlink" width="14px" height="15px" xmlns="http://www.w3.org/2000/svg">
  <g transform="matrix(1 0 0 1 -530 -762 )">
    <path d="M 12 4.98621503834135  L 10.6954502048454 4.98621503834135  L 10.6954502048454 13.5285141328125  L 3.19834579966495 13.5285141328125  L 3.19834579966495 4.98621503834135  L 1.79870153389175 4.98621503834135  L 1.79870153389175 15  L 12 15  L 12 4.98621503834135  Z M 13.8912868240206 2.15369561340144  L 13.8912868240206 2.15263035  L 9.28301407304124 2.15263035  L 9.28301407304124 0.0306376115985578  L 4.65981744997423 0.0306376115985578  L 4.65981744997423 2.15476086075721  L 0.0654025445103093 2.15476086075721  L 0.0654025445103093 3.55237858485577  L 13.8912868240206 3.55237858485577  L 13.8912868240206 2.15369561340144  Z M 6.06052769505154 2.15263035  L 6.05946171574742 2.15263035  L 6.05946171574742 1.42825531983173  L 7.88336980762887 1.42825531983173  L 7.88336980762887 2.15263035  L 6.06052769505154 2.15263035  Z M 4.66088344515464 11.7921445748798  L 4.66088344569587 11.7900140482572  L 4.66088344569587 4.99047605967548  L 6.05946171574742 4.99047605967548  L 6.05946171574742 11.7921445748798  L 4.66088344515464 11.7921445748798  Z M 9.28301407304123 11.7857530267428  L 7.88336980762886 11.7857530271034  L 7.88336980762886 4.98621503834135  L 9.28301407304123 4.98621503834135  L 9.28301407304123 11.7857530267428  Z " fill-rule="nonzero" fill="#d9001b" stroke="none" transform="matrix(1 0 0 1 530 762 )" />
  </g>
</svg>