<?xml version="1.0" encoding="UTF-8"?>
<svg width="30px" height="41px" viewBox="0 0 30 41" version="1.1" xmlns="http://www.w3.org/2000/svg" xmlns:xlink="http://www.w3.org/1999/xlink">
    <title>密码@1x</title>
    <g id="页面-1" stroke="none" stroke-width="1" fill="none" fill-rule="evenodd">
        <g id="密码登录" transform="translate(-86.000000, -766.000000)" fill="#000000" fill-rule="nonzero">
            <g id="编组-4" transform="translate(55.000000, 736.000000)">
                <g id="密码" transform="translate(31.000000, 30.000000)">
                    <path d="M7,15 C7,15.5522847 6.55228475,16 6,16 C5.44771525,16 5,15.5522847 5,15 L5,10 C5,4.4771525 9.4771525,0 15,0 C20.5228475,0 25,4.4771525 25,10 L25,15 C25,15.5522847 24.5522847,16 24,16 C23.4477153,16 23,15.5522847 23,15 L23,10 C23,5.581722 19.418278,2 15,2 C10.581722,2 7,5.581722 7,10 L7,15 Z M30,19 L30,26 C30,34.2842712 23.2842712,41 15,41 C6.71572875,41 0,34.2842712 0,26 L0,19 L30,19 Z M28,21 L2,21 L2,26 C2,33.1797017 7.82029825,39 15,39 C22.1797017,39 28,33.1797017 28,26 L28,21 Z M15,25 C16.6568542,25 18,26.3431458 18,28 L18,30 C18,31.6568542 16.6568542,33 15,33 C13.3431458,33 12,31.6568542 12,30 L12,28 C12,26.3431458 13.3431458,25 15,25 Z M15,27 C14.4477153,27 14,27.4477153 14,28 L14,30 C14,30.5522847 14.4477153,31 15,31 C15.5522847,31 16,30.5522847 16,30 L16,28 C16,27.4477153 15.5522847,27 15,27 Z" id="形状结合"></path>
                </g>
            </g>
        </g>
    </g>
</svg>