<?xml version="1.0" encoding="utf-8"?>
<svg version="1.1" xmlns:xlink="http://www.w3.org/1999/xlink" width="40px" height="40px" xmlns="http://www.w3.org/2000/svg">
  <defs>
    <filter x="1105px" y="320px" width="40px" height="40px" filterUnits="userSpaceOnUse" id="filter70">
      <feOffset dx="0" dy="0" in="SourceAlpha" result="shadowOffsetInner" />
      <feGaussianBlur stdDeviation="2.5" in="shadowOffsetInner" result="shadowGaussian" />
      <feComposite in2="shadowGaussian" operator="atop" in="SourceAlpha" result="shadowComposite" />
      <feColorMatrix type="matrix" values="0 0 0 0 0.96078431372549  0 0 0 0 0.603921568627451  0 0 0 0 0.137254901960784  0 0 0 1 0  " in="shadowComposite" />
    </filter>
    <g id="widget71">
      <path d="M 1125 325  C 1133.4 325  1140 331.6  1140 340  C 1140 348.4  1133.4 355  1125 355  C 1116.6 355  1110 348.4  1110 340  C 1110 331.6  1116.6 325  1125 325  Z " fill-rule="nonzero" fill="#ffffff" stroke="none" />
      <path d="M 1125 325.5  C 1133.12 325.5  1139.5 331.88  1139.5 340  C 1139.5 348.12  1133.12 354.5  1125 354.5  C 1116.88 354.5  1110.5 348.12  1110.5 340  C 1110.5 331.88  1116.88 325.5  1125 325.5  Z " stroke-width="1" stroke="#f59a23" fill="none" />
    </g>
  </defs>
  <g transform="matrix(1 0 0 1 -1105 -320 )">
    <use xlink:href="#widget71" filter="url(#filter70)" />
    <use xlink:href="#widget71" />
  </g>
</svg>