<?xml version="1.0" encoding="utf-8"?>
<svg version="1.1" xmlns:xlink="http://www.w3.org/1999/xlink" width="12px" height="12px" viewBox="2066 4275  12 12" xmlns="http://www.w3.org/2000/svg">
  <path d="M 2072 4275  C 2075.36 4275  2078 4277.64  2078 4281  C 2078 4284.36  2075.36 4287  2072 4287  C 2068.64 4287  2066 4284.36  2066 4281  C 2066 4277.64  2068.64 4275  2072 4275  Z " fill-rule="nonzero" fill="#ffffff" stroke="none" />
  <path d="M 2072 4275.5  C 2075.08 4275.5  2077.5 4277.92  2077.5 4281  C 2077.5 4284.08  2075.08 4286.5  2072 4286.5  C 2068.92 4286.5  2066.5 4284.08  2066.5 4281  C 2066.5 4277.92  2068.92 4275.5  2072 4275.5  Z " stroke-width="1" stroke="#797979" fill="none" />
  <path d="M 2072 4284  C 2070.32 4284  2069 4282.68  2069 4281  C 2069 4279.32  2070.32 4278  2072 4278  C 2073.68 4278  2075 4279.32  2075 4281  C 2075 4282.68  2073.68 4284  2072 4284  " fill-rule="nonzero" fill="#797979" stroke="none" />
</svg>