<?xml version="1.0" encoding="utf-8"?>
<svg version="1.1" xmlns:xlink="http://www.w3.org/1999/xlink" width="82px" height="34px" xmlns="http://www.w3.org/2000/svg">
  <g transform="matrix(1 0 0 1 -11 -12 )">
    <path d="M 4 0  L 4 2  L 78 2  L 78 0  L 4 0  Z M 82 4  L 80 4  L 80 30  L 82 30  L 82 4  Z M 78 34  L 78 32  L 4 32  L 4 34  L 78 34  Z M 0 30  L 2 30  L 2 4  L 0 4  L 0 30  Z M 4 34  L 4 32  C 2.8954 32  2 31.1046  2 30  L 0 30  C 0 32.2091  1.7909 34  4 34  Z M 82 30  L 80 30  C 80 31.1046  79.105 32  78 32  L 78 34  C 80.209 34  82 32.2091  82 30  Z M 78 0  L 78 2  C 79.105 2  80 2.8954  80 4  L 82 4  C 82 1.7909  80.209 0  78 0  Z M 4 2  L 4 0  C 1.7909 0  0 1.7909  0 4  L 2 4  C 2 2.8954  2.8954 2  4 2  Z " fill-rule="nonzero" fill="#dcdcdc" stroke="none" transform="matrix(1 0 0 1 11 12 )" />
  </g>
</svg>