<?xml version="1.0" encoding="utf-8"?>
<svg version="1.1" xmlns:xlink="http://www.w3.org/1999/xlink" width="16px" height="12px" xmlns="http://www.w3.org/2000/svg">
  <g transform="matrix(1 0 0 1 -132 -96 )">
    <path d="M 6.227 1.60599999999999  C 5.625 1.07400000000001  4.869 0.807999999999993  3.94499999999999 0.807999999999993  C 2.93700000000001 0.807999999999993  2.11099999999999 1.14400000000001  1.495 1.816  C 0.878999999999991 2.47399999999999  0.556999999999988 3.37  0.556999999999988 4.49000000000001  L 1.70500000000001 4.49000000000001  C 1.71899999999999 3.608  1.929 2.93600000000001  2.321 2.488  C 2.685 2.012  3.21700000000001 1.78800000000001  3.90299999999999 1.78800000000001  C 4.547 1.78800000000001  5.065 1.95599999999999  5.429 2.292  C 5.79300000000001 2.62799999999999  5.97499999999999 3.09  5.97499999999999 3.70599999999999  C 5.97499999999999 4.34999999999999  5.709 4.952  5.20500000000001 5.49799999999999  C 4.93899999999999 5.77799999999999  4.42099999999999 6.184  3.637 6.744  C 2.57300000000001 7.47200000000001  1.85900000000001 8.07400000000001  1.46700000000001 8.52199999999999  C 0.794999999999987 9.26400000000001  0.473000000000013 10.09  0.473000000000013 11  L 7.137 11  L 7.137 9.97800000000001  L 1.887 9.97800000000001  C 2.06899999999999 9.30600000000001  2.797 8.536  4.071 7.68199999999999  C 5.107 6.982  5.79300000000001 6.43600000000001  6.143 6.072  C 6.78700000000001 5.37200000000001  7.12299999999999 4.58799999999999  7.12299999999999 3.72  C 7.12299999999999 2.852  6.815 2.13800000000001  6.227 1.60599999999999  Z M 14.65 1.62  C 14.062 1.07400000000001  13.236 0.807999999999993  12.2 0.807999999999993  C 11.15 0.807999999999993  10.338 1.07400000000001  9.75 1.62  C 9.20400000000001 2.11000000000001  8.93799999999999 2.726  8.93799999999999 3.45400000000001  C 8.93799999999999 3.98599999999999  9.06399999999999 4.434  9.316 4.798  C 9.58199999999999 5.19  9.97399999999999 5.48400000000001  10.506 5.666  L 10.506 5.69399999999999  C 9.97399999999999 5.81999999999999  9.53999999999999 6.114  9.17599999999999 6.56200000000001  C 8.78399999999999 7.03800000000001  8.58799999999999 7.59800000000001  8.58799999999999 8.24199999999999  C 8.58799999999999 9.124  8.89599999999999 9.83799999999999  9.512 10.37  C 10.142 10.916  11.038 11.196  12.2 11.196  C 13.348 11.196  14.244 10.916  14.888 10.37  C 15.504 9.83799999999999  15.812 9.124  15.812 8.24199999999999  C 15.812 7.59800000000001  15.616 7.03800000000001  15.224 6.56200000000001  C 14.86 6.114  14.412 5.81999999999999  13.894 5.69399999999999  L 13.894 5.666  C 14.412 5.48400000000001  14.804 5.19  15.084 4.798  C 15.336 4.434  15.462 3.98599999999999  15.462 3.45400000000001  C 15.462 2.726  15.182 2.11000000000001  14.65 1.62  Z M 10.534 2.292  C 10.926 1.928  11.486 1.74600000000001  12.2 1.74600000000001  C 12.9 1.74600000000001  13.46 1.928  13.866 2.292  C 14.202 2.59999999999999  14.384 3.006  14.384 3.49600000000001  C 14.384 4  14.23 4.41999999999999  13.922 4.72800000000001  C 13.544 5.09200000000001  12.97 5.28800000000001  12.2 5.28800000000001  C 11.416 5.28800000000001  10.842 5.09200000000001  10.478 4.72800000000001  C 10.17 4.41999999999999  10.016 4  10.016 3.49600000000001  C 10.016 3.006  10.184 2.59999999999999  10.534 2.292  Z M 10.338 6.786  C 10.772 6.38  11.388 6.184  12.2 6.184  C 12.998 6.184  13.628 6.38  14.076 6.786  C 14.468 7.15000000000001  14.678 7.63999999999999  14.678 8.24199999999999  C 14.678 8.83000000000001  14.468 9.30600000000001  14.076 9.66999999999999  C 13.628 10.062  13.012 10.258  12.2 10.258  C 11.388 10.258  10.758 10.062  10.338 9.684  C 9.91800000000001 9.31999999999999  9.72200000000001 8.83000000000001  9.72200000000001 8.24199999999999  C 9.72200000000001 7.63999999999999  9.91800000000001 7.15000000000001  10.338 6.786  Z " fill-rule="nonzero" fill="#000000" stroke="none" fill-opacity="0.258823529411765" transform="matrix(1 0 0 1 132 96 )" />
  </g>
</svg>