<?xml version="1.0" encoding="utf-8"?>
<svg version="1.1" xmlns:xlink="http://www.w3.org/1999/xlink" width="21px" height="21px" xmlns="http://www.w3.org/2000/svg">
  <g transform="matrix(1 0 0 1 -264 -205 )">
    <path d="M 14.875 7  C 15.2395833333333 7  15.4993489583333 7.15950520833333  15.654296875 7.478515625  C 15.818359375 7.79752604166667  15.7955729166667 8.09830729166666  15.5859375 8.380859375  L 11.2109375 14.505859375  C 11.0377604166667 14.751953125  10.80078125 14.875  10.5 14.875  C 10.19921875 14.875  9.96223958333333 14.751953125  9.7890625 14.505859375  L 5.4140625 8.380859375  C 5.20442708333333 8.09830729166666  5.181640625 7.79752604166667  5.345703125 7.478515625  C 5.50065104166667 7.15950520833333  5.76041666666667 7  6.125 7  L 14.875 7  Z M 17.3701171875 17.3701171875  C 17.4567057291667 17.2835286458333  17.5 17.1809895833333  17.5 17.0625  L 17.5 3.9375  C 17.5 3.81901041666667  17.4567057291667 3.71647135416667  17.3701171875 3.6298828125  C 17.2835286458333 3.54329427083333  17.1809895833333 3.5  17.0625 3.5  L 3.9375 3.5  C 3.81901041666667 3.5  3.71647135416667 3.54329427083333  3.6298828125 3.6298828125  C 3.54329427083333 3.71647135416667  3.5 3.81901041666667  3.5 3.9375  L 3.5 17.0625  C 3.5 17.1809895833333  3.54329427083333 17.2835286458333  3.6298828125 17.3701171875  C 3.71647135416667 17.4567057291667  3.81901041666667 17.5  3.9375 17.5  L 17.0625 17.5  C 17.1809895833333 17.5  17.2835286458333 17.4567057291667  17.3701171875 17.3701171875  Z M 19.8447265625 1.1552734375  C 20.6149088541667 1.92545572916666  21 2.85286458333333  21 3.9375  L 21 17.0625  C 21 18.1471354166667  20.6149088541667 19.0745442708333  19.8447265625 19.8447265625  C 19.0745442708333 20.6149088541667  18.1471354166667 21  17.0625 21  L 3.9375 21  C 2.85286458333333 21  1.92545572916667 20.6149088541667  1.1552734375 19.8447265625  C 0.385091145833333 19.0745442708333  0 18.1471354166667  0 17.0625  L 0 3.9375  C 0 2.85286458333333  0.385091145833333 1.92545572916666  1.1552734375 1.1552734375  C 1.92545572916667 0.385091145833332  2.85286458333333 0  3.9375 0  L 17.0625 0  C 18.1471354166667 0  19.0745442708333 0.385091145833332  19.8447265625 1.1552734375  Z " fill-rule="nonzero" fill="#333333" stroke="none" transform="matrix(1 0 0 1 264 205 )" />
  </g>
</svg>