<?xml version="1.0" encoding="utf-8"?>
<svg version="1.1" xmlns:xlink="http://www.w3.org/1999/xlink" width="32px" height="32px" xmlns="http://www.w3.org/2000/svg">
  <defs>
    <mask fill="white" id="clip25">
      <path d="M 316 990.5  C 307.3975 990.5  300.5 983.6025  300.5 975  L 300.5 975  C 300.5 966.3975  307.3975 959.5  316 959.5  L 316 959.5  C 324.6025 959.5  331.5 966.3975  331.5 975  L 331.5 975  C 331.5 983.6025  324.6025 990.5  316 990.5  L 316 990.5  " fill-rule="evenodd" />
    </mask>
  </defs>
  <g transform="matrix(1 0 0 1 -300 -959 )">
    <path d="M 300 959  L 332 959  L 332 991  L 300 991  L 300 959  " fill-rule="nonzero" fill="#cccccc" stroke="none" mask="url(#clip25)" />
    <path d="M 302 961  L 330 961  L 330 989  L 302 989  L 302 961  " fill-rule="nonzero" fill="#ffffff" stroke="none" mask="url(#clip25)" />
    <path d="M 319.04 968.6  C 317.696 968.6  316.64 967.544  316.64 966.2  C 316.64 964.856  317.696 963.8  319.04 963.8  C 320.384 963.8  321.44 964.856  321.44 966.2  C 321.44 967.544  320.384 968.6  319.04 968.6  " fill-rule="nonzero" fill="#cccccc" stroke="none" mask="url(#clip25)" />
    <path d="M 303 988  L 303 973.7  L 309.5 967.2  L 318.6 972.4  L 323.8 971.1  L 329 972.4  L 329 988  L 303 988  " fill-rule="nonzero" fill="#169bd5" stroke="none" mask="url(#clip25)" />
    <path d="M 316 990.5  C 307.3975 990.5  300.5 983.6025  300.5 975  L 300.5 975  C 300.5 966.3975  307.3975 959.5  316 959.5  L 316 959.5  C 324.6025 959.5  331.5 966.3975  331.5 975  L 331.5 975  C 331.5 983.6025  324.6025 990.5  316 990.5  L 316 990.5  Z " stroke-width="1" stroke="#797979" fill="none" />
  </g>
</svg>