<?xml version="1.0" encoding="utf-8"?>
<svg version="1.1" xmlns:xlink="http://www.w3.org/1999/xlink" width="29px" height="22px" xmlns="http://www.w3.org/2000/svg">
  <g transform="matrix(1 0 0 1 -217 -328 )">
    <path d="M 13.97607421875 15.8912760416667  C 14.3253580729167 15.4854600694444  14.5 14.9769965277778  14.5 14.3658854166667  C 14.5 13.7547743055556  14.45751953125 13.1937934027778  14.37255859375 12.6829427083333  C 14.28759765625 12.1720920138889  14.1483561197917 11.6803385416667  13.954833984375 11.2076822916667  C 13.7613118489583 10.7350260416667  13.4757486979167 10.3626302083333  13.09814453125 10.0904947916667  C 12.7205403645833 9.818359375  12.2626953125 9.68229166666667  11.724609375 9.68229166666667  C 11.66796875 9.72048611111111  11.5263671875 9.80642361111111  11.2998046875 9.94010416666667  C 11.0732421875 10.0737847222222  10.896240234375 10.1764322916667  10.768798828125 10.248046875  C 10.641357421875 10.3196614583333  10.4737955729167 10.4032118055556  10.26611328125 10.4986979166667  C 10.0584309895833 10.5941840277778  9.85546875 10.6634114583333  9.6572265625 10.7063802083333  C 9.458984375 10.7493489583333  9.2607421875 10.7708333333333  9.0625 10.7708333333333  C 8.8642578125 10.7708333333333  8.666015625 10.7493489583333  8.4677734375 10.7063802083333  C 8.26953125 10.6634114583333  8.06656901041667 10.5941840277778  7.85888671875 10.4986979166667  C 7.65120442708333 10.4032118055556  7.483642578125 10.3196614583333  7.356201171875 10.248046875  C 7.228759765625 10.1764322916667  7.0517578125 10.0737847222222  6.8251953125 9.94010416666667  C 6.5986328125 9.80642361111111  6.45703125 9.72048611111111  6.400390625 9.68229166666667  C 5.8623046875 9.68229166666667  5.40445963541667 9.818359375  5.02685546875 10.0904947916667  C 4.64925130208333 10.3626302083333  4.36368815104167 10.7350260416667  4.170166015625 11.2076822916667  C 3.97664388020833 11.6803385416667  3.83740234375 12.1720920138889  3.75244140625 12.6829427083333  C 3.66748046875 13.1937934027778  3.625 13.7547743055556  3.625 14.3658854166667  C 3.625 14.9769965277778  3.79964192708333 15.4854600694444  4.14892578125 15.8912760416667  C 4.49820963541667 16.2970920138889  4.927734375 16.5  5.4375 16.5  L 12.6875 16.5  C 13.197265625 16.5  13.6267903645833 16.2970920138889  13.97607421875 15.8912760416667  Z M 11.335205078125 9.216796875  C 11.9629720052083 8.58181423611111  12.27685546875 7.81553819444444  12.27685546875 6.91796875  C 12.27685546875 6.02039930555555  11.9629720052083 5.25412326388889  11.335205078125 4.619140625  C 10.7074381510417 3.98415798611111  9.94986979166667 3.66666666666667  9.0625 3.66666666666667  C 8.17513020833333 3.66666666666667  7.41756184895833 3.98415798611111  6.789794921875 4.619140625  C 6.16202799479167 5.25412326388889  5.84814453125 6.02039930555555  5.84814453125 6.91796875  C 5.84814453125 7.81553819444444  6.16202799479167 8.58181423611111  6.789794921875 9.216796875  C 7.41756184895833 9.85177951388889  8.17513020833333 10.1692708333333  9.0625 10.1692708333333  C 9.94986979166667 10.1692708333333  10.7074381510417 9.85177951388889  11.335205078125 9.216796875  Z M 25.24755859375 14.5377604166667  C 25.33251953125 14.4518229166667  25.375 14.3420138888889  25.375 14.2083333333333  L 25.375 13.2916666666667  C 25.375 13.1579861111111  25.33251953125 13.0481770833333  25.24755859375 12.9622395833333  C 25.16259765625 12.8763020833333  25.0540364583333 12.8333333333333  24.921875 12.8333333333333  L 16.765625 12.8333333333333  C 16.6334635416667 12.8333333333333  16.52490234375 12.8763020833333  16.43994140625 12.9622395833333  C 16.35498046875 13.0481770833333  16.3125 13.1579861111111  16.3125 13.2916666666667  L 16.3125 14.2083333333333  C 16.3125 14.3420138888889  16.35498046875 14.4518229166667  16.43994140625 14.5377604166667  C 16.52490234375 14.6236979166667  16.6334635416667 14.6666666666667  16.765625 14.6666666666667  L 24.921875 14.6666666666667  C 25.0540364583333 14.6666666666667  25.16259765625 14.6236979166667  25.24755859375 14.5377604166667  Z M 25.226318359375 10.849609375  C 25.325439453125 10.7493489583333  25.375 10.6276041666667  25.375 10.484375  L 25.375 9.68229166666667  C 25.375 9.5390625  25.325439453125 9.41731770833333  25.226318359375 9.31705729166667  C 25.127197265625 9.216796875  25.0068359375 9.16666666666667  24.865234375 9.16666666666667  L 16.822265625 9.16666666666667  C 16.6806640625 9.16666666666667  16.560302734375 9.216796875  16.461181640625 9.31705729166667  C 16.362060546875 9.41731770833333  16.3125 9.5390625  16.3125 9.68229166666667  L 16.3125 10.484375  C 16.3125 10.6276041666667  16.362060546875 10.7493489583333  16.461181640625 10.849609375  C 16.560302734375 10.9498697916667  16.6806640625 11  16.822265625 11  L 24.865234375 11  C 25.0068359375 11  25.127197265625 10.9498697916667  25.226318359375 10.849609375  Z M 25.24755859375 7.20442708333333  C 25.33251953125 7.11848958333333  25.375 7.00868055555555  25.375 6.875  L 25.375 5.95833333333333  C 25.375 5.82465277777778  25.33251953125 5.71484375  25.24755859375 5.62890625  C 25.16259765625 5.54296875  25.0540364583333 5.5  24.921875 5.5  L 16.765625 5.5  C 16.6334635416667 5.5  16.52490234375 5.54296875  16.43994140625 5.62890625  C 16.35498046875 5.71484375  16.3125 5.82465277777778  16.3125 5.95833333333333  L 16.3125 6.875  C 16.3125 7.00868055555555  16.35498046875 7.11848958333333  16.43994140625 7.20442708333333  C 16.52490234375 7.29036458333333  16.6334635416667 7.33333333333333  16.765625 7.33333333333333  L 24.921875 7.33333333333333  C 25.0540364583333 7.33333333333333  25.16259765625 7.29036458333333  25.24755859375 7.20442708333333  Z M 28.33447265625 0.673177083333334  C 28.7781575520833 1.12196180555555  29 1.66145833333333  29 2.29166666666667  L 29 19.7083333333333  C 29 20.3385416666667  28.7781575520833 20.8780381944444  28.33447265625 21.3268229166667  C 27.8907877604167 21.7756076388889  27.357421875 22  26.734375 22  L 21.75 22  L 21.75 20.625  C 21.75 20.4913194444444  21.70751953125 20.3815104166667  21.62255859375 20.2955729166667  C 21.53759765625 20.2096354166667  21.4290364583333 20.1666666666667  21.296875 20.1666666666667  L 20.390625 20.1666666666667  C 20.2584635416667 20.1666666666667  20.14990234375 20.2096354166667  20.06494140625 20.2955729166667  C 19.97998046875 20.3815104166667  19.9375 20.4913194444444  19.9375 20.625  L 19.9375 22  L 9.0625 22  L 9.0625 20.625  C 9.0625 20.4913194444444  9.02001953125 20.3815104166667  8.93505859375 20.2955729166667  C 8.85009765625 20.2096354166667  8.74153645833333 20.1666666666667  8.609375 20.1666666666667  L 7.703125 20.1666666666667  C 7.57096354166667 20.1666666666667  7.46240234375 20.2096354166667  7.37744140625 20.2955729166667  C 7.29248046875 20.3815104166667  7.25 20.4913194444444  7.25 20.625  L 7.25 22  L 2.265625 22  C 1.642578125 22  1.10921223958333 21.7756076388889  0.66552734375 21.3268229166667  C 0.221842447916667 20.8780381944444  0 20.3385416666667  0 19.7083333333333  L 0 2.29166666666667  C 0 1.66145833333333  0.221842447916667 1.12196180555555  0.66552734375 0.673177083333334  C 1.10921223958333 0.224392361111109  1.642578125 0  2.265625 0  L 26.734375 0  C 27.357421875 0  27.8907877604167 0.224392361111109  28.33447265625 0.673177083333334  Z " fill-rule="nonzero" fill="#000000" stroke="none" transform="matrix(1 0 0 1 217 328 )" />
  </g>
</svg>