<?xml version="1.0" encoding="utf-8"?>
<svg version="1.1" xmlns:xlink="http://www.w3.org/1999/xlink" width="18px" height="17px" xmlns="http://www.w3.org/2000/svg">
  <g transform="matrix(1 0 0 1 -319 -238 )">
    <path d="M 10.8713942307692 8.28971354166667  C 11.0084134615385 8.14952256944444  11.0769230769231 7.98350694444444  11.0769230769231 7.79166666666667  C 11.0769230769231 7.59982638888889  11.0084134615385 7.43381076388889  10.8713942307692 7.29361979166667  C 10.734375 7.15342881944444  10.5721153846154 7.08333333333333  10.3846153846154 7.08333333333333  L 7.61538461538461 7.08333333333333  C 7.42788461538462 7.08333333333333  7.265625 7.15342881944444  7.12860576923077 7.29361979166667  C 6.99158653846154 7.43381076388889  6.92307692307692 7.59982638888889  6.92307692307692 7.79166666666667  C 6.92307692307692 7.98350694444444  6.99158653846154 8.14952256944444  7.12860576923077 8.28971354166667  C 7.265625 8.42990451388889  7.42788461538462 8.5  7.61538461538461 8.5  L 10.3846153846154 8.5  C 10.5721153846154 8.5  10.734375 8.42990451388889  10.8713942307692 8.28971354166667  Z M 17.1021634615385 5.16861979166667  C 17.2391826923077 5.30881076388889  17.3076923076923 5.47482638888889  17 5.66666666666667  L 17 16.2916666666667  C 17.3076923076923 16.4835069444444  17.2391826923077 16.6495225694444  17.1021634615385 16.7897135416667  C 16.9651442307692 16.9299045138889  16.8028846153846 17  16.6153846153846 17  L 1.38461538461538 17  C 1.19711538461538 17  1.03485576923077 16.9299045138889  0.897836538461539 16.7897135416667  C 0.760817307692308 16.6495225694444  0.692307692307692 16.4835069444444  1 16.2916666666667  L 1 5.66666666666667  C 0.692307692307692 5.47482638888889  0.760817307692308 5.30881076388889  0.897836538461539 5.16861979166667  C 1.03485576923077 5.02842881944444  1.19711538461538 4.95833333333333  1.38461538461538 5  L 16.6153846153846 5  C 16.8028846153846 4.95833333333333  16.9651442307692 5.02842881944444  17.1021634615385 5.16861979166667  Z M 17.7944711538462 0.210286458333333  C 17.9314903846154 0.350477430555553  18 0.516493055555553  18 0.708333333333333  L 18 3.54166666666667  C 18 3.73350694444444  17.9314903846154 3.89952256944444  17.7944711538462 4.03971354166667  C 17.6574519230769 4.17990451388889  17.4951923076923 4.25  17.3076923076923 4.25  L 0.692307692307692 4.25  C 0.504807692307693 4.25  0.342548076923077 4.17990451388889  0.205528846153846 4.03971354166667  C 0.0685096153846155 3.89952256944444  0 3.73350694444444  0 3.54166666666667  L 0 0.708333333333333  C 0 0.516493055555553  0.0685096153846155 0.350477430555553  0.205528846153846 0.210286458333333  C 0.342548076923077 0.0700954861111103  0.504807692307693 0  0.692307692307692 0  L 17.3076923076923 0  C 17.4951923076923 0  17.6574519230769 0.0700954861111103  17.7944711538462 0.210286458333333  Z " fill-rule="nonzero" fill="#000000" stroke="none" transform="matrix(1 0 0 1 319 238 )" />
  </g>
</svg>