<?xml version="1.0" encoding="utf-8"?>
<svg version="1.1" xmlns:xlink="http://www.w3.org/1999/xlink" width="27px" height="26px" xmlns="http://www.w3.org/2000/svg">
  <g transform="matrix(1 0 0 1 -117 -393 )">
    <path d="M 26.0913461538462 9.32199117832388  C 26.6971153846154 9.42028985507246  27 9.67149758454106  27 10.0756143667297  C 27 10.315900021004  26.859375 10.5780298256669  26.578125 10.8620037807183  L 20.6881009615385 16.6616257088847  L 22.0835336538462 24.8531821045999  C 22.0943509615385 24.9296366309599  22.0997596153846 25.0388573829027  22.0997596153846 25.1808443604285  C 22.0997596153846 25.4102079395085  22.04296875 25.6040747742071  21.9293870192308 25.7624448645243  C 21.8158052884615 25.9208149548414  21.6508413461538 26  21.4344951923077 26  C 21.2289663461538 26  21.0126201923077 25.9344675488343  20.7854567307692 25.8034026465028  L 13.5 21.9369880277253  L 6.21454326923077 25.8034026465028  C 5.9765625 25.9344675488343  5.76021634615385 26  5.56550480769231 26  C 5.33834134615385 26  5.16796875 25.9208149548414  5.05438701923077 25.7624448645243  C 4.94080528846154 25.6040747742071  4.88401442307692 25.4102079395085  4.88401442307692 25.1808443604285  C 4.88401442307692 25.1153119092628  4.89483173076923 25.0060911573199  4.91646634615385 24.8531821045999  L 6.31189903846154 16.6616257088847  L 0.405649038461538 10.8620037807183  C 0.135216346153846 10.5671077504726  0 10.3049779458097  0 10.0756143667297  C 0 9.67149758454106  0.302884615384615 9.42028985507246  0.908653846153846 9.32199117832388  L 9.05408653846154 8.12602394454946  L 12.7049278846154 0.671707624448644  C 12.9104567307692 0.22390254148288  13.1754807692308 0  13.5 0  C 13.8245192307692 0  14.0895432692308 0.22390254148288  14.2950721153846 0.671707624448644  L 17.9459134615385 8.12602394454946  L 26.0913461538462 9.32199117832388  Z " fill-rule="nonzero" fill="#000000" stroke="none" transform="matrix(1 0 0 1 117 393 )" />
  </g>
</svg>