<?xml version="1.0" encoding="utf-8"?>
<svg version="1.1" xmlns:xlink="http://www.w3.org/1999/xlink" width="33px" height="22px" xmlns="http://www.w3.org/2000/svg">
  <g transform="matrix(1 0 0 1 -302 -397 )">
    <path d="M 25.85 17.6  L 7.15 17.6  C 6.39375 17.6  5.74635416666667 17.3307291666667  5.2078125 16.7921875  C 4.66927083333333 16.2536458333333  4.4 15.60625  5 14.85  L 5 2.75  C 4.4 1.99375  4.66927083333333 1.34635416666667  5.2078125 0.8078125  C 5.74635416666667 0.26927083333333  6.39375 0  7.15 0  L 25.85 0  C 26.60625 0  27.2536458333333 0.26927083333333  27.7921875 0.8078125  C 28.3307291666667 1.34635416666667  28.6 1.99375  28 2.75  L 28 14.85  C 28.6 15.60625  28.3307291666667 16.2536458333333  27.7921875 16.7921875  C 27.2536458333333 17.3307291666667  26.60625 17.6  25.85 17.6  Z M 6.76328125 2.36328125  C 6.65442708333333 2.47213541666667  6.6 2.60104166666667  7 2.75  L 7 14.85  C 6.6 14.9989583333333  6.65442708333333 15.1278645833333  6.76328125 15.23671875  C 6.87213541666667 15.3455729166667  7.00104166666667 15.4  7.15 15  L 25.85 15  C 25.9989583333333 15.4  26.1278645833333 15.3455729166667  26.23671875 15.23671875  C 26.3455729166667 15.1278645833333  26.4 14.9989583333333  26 14.85  L 26 2.75  C 26.4 2.60104166666667  26.3455729166667 2.47213541666667  26.23671875 2.36328125  C 26.1278645833333 2.25442708333333  25.9989583333333 2.2  25.85 2.2  L 7.15 2.2  C 7.00104166666667 2.2  6.87213541666667 2.25442708333333  6.76328125 2.36328125  Z M 2.75 18.7  L 30.25 18.7  L 33 18.7  L 33 20.35  C 33 20.8083333333333  32.7307291666667 21.1979166666667  32.1921875 21.51875  C 31.6536458333333 21.8395833333333  31.00625 22  30.25 22  L 2.75 22  C 1.99375 22  1.34635416666667 21.8395833333333  0.8078125 21.51875  C 0.269270833333333 21.1979166666667  0 20.8083333333333  0 20.35  L 0 18.7  L 2.75 18.7  Z M 15.125 20.35  L 17.875 20.35  C 18.0583333333333 20.35  18.15 20.2583333333333  18.15 20.075  C 18.15 19.8916666666667  18.0583333333333 19.8  17.875 19.8  L 15.125 19.8  C 14.9416666666667 19.8  14.85 19.8916666666667  14.85 20.075  C 14.85 20.2583333333333  14.9416666666667 20.35  15.125 20.35  Z " fill-rule="nonzero" fill="#000000" stroke="none" transform="matrix(1 0 0 1 302 397 )" />
  </g>
</svg>