<?xml version="1.0" encoding="utf-8"?>
<svg version="1.1" xmlns:xlink="http://www.w3.org/1999/xlink" width="33px" height="26px" xmlns="http://www.w3.org/2000/svg">
  <g transform="matrix(1 0 0 1 -215 -466 )">
    <path d="M 30.4679129464286 23.4609375  C 30.5845424107143 23.3439867424242  30.6428571428571 23.2054924242424  30 23.0454545454545  L 30 8.86363636363637  C 30.25 9.30681818181818  29.8264508928571 9.71306818181818  29.3722098214286 10.0823863636364  C 26.08203125 12.6183712121212  23.4670758928571 14.6988636363636  21.52734375 16.3238636363636  C 20.9012276785714 16.8532196969697  20.3917410714286 17.265625  19.9988839285714 17.5610795454545  C 19.6060267857143 17.8565340909091  19.0750558035714 18.1550662878788  18.4059709821429 18.4566761363636  C 17.7368861607143 18.7582859848485  17.1077008928571 18.9090909090909  16.5184151785714 18.9090909090909  L 16.5 18.9090909090909  L 16.4815848214286 18.9090909090909  C 15.8922991071429 18.9090909090909  15.2631138392857 18.7582859848485  14.5940290178571 18.4566761363636  C 13.9249441964286 18.1550662878788  13.3939732142857 17.8565340909091  13.0011160714286 17.5610795454545  C 12.6082589285714 17.265625  12.0987723214286 16.8532196969697  11.47265625 16.3238636363636  C 9.53292410714286 14.6988636363636  6.91796875 12.6183712121212  3.62779017857143 10.0823863636364  C 3.17354910714286 9.71306818181818  2.75 9.30681818181818  3 8.86363636363637  L 3 23.0454545454545  C 2.35714285714286 23.2054924242424  2.41545758928571 23.3439867424242  2.53208705357143 23.4609375  C 2.64871651785714 23.5778882575758  2.78683035714286 23.6363636363636  2.94642857142857 23.6363636363636  L 30.0535714285714 23.6363636363636  C 30.2131696428571 23.6363636363636  30.3512834821429 23.5778882575758  30.4679129464286 23.4609375  Z M 29.7865513392857 6.06605113636364  C 30.357421875 5.17353219696969  30.6428571428571 4.36410984848485  30.6428571428571 3.63778409090909  L 30.6428571428571 3.43465909090909  L 30.6428571428571 3.18536931818182  C 30.6428571428571 3.18536931818182  30.6397879464286 3.10535037878787  30.6336495535714 2.9453125  C 30.6275111607143 2.78527462121212  30.6090959821429 2.70833333333333  30.5784040178571 2.71448863636364  C 30.5477120535714 2.72064393939394  30.5139508928571 2.66524621212121  30.4771205357143 2.54829545454546  C 30.4402901785714 2.43134469696969  30.3850446428571 2.38517992424242  30.3113839285714 2.40980113636364  C 30.2377232142857 2.43442234848485  30.1517857142857 2.41903409090909  30.0535714285714 2.36363636363636  L 2.94642857142857 2.36363636363636  C 2.78683035714286 2.36363636363636  2.64871651785714 2.42211174242424  2.53208705357143 2.5390625  C 2.41545758928571 2.65601325757576  2.35714285714286 2.79450757575757  2.35714285714286 2.95454545454546  C 2.35714285714286 5.02272727272727  3.25948660714286 6.77083333333333  5.06417410714286 8.19886363636363  C 7.43359375 10.0700757575758  9.89508928571429 12.0213068181818  12.4486607142857 14.0525568181818  C 12.5223214285714 14.1141098484848  12.7371651785714 14.2956912878788  13.0931919642857 14.5973011363636  C 13.44921875 14.8989109848485  13.7315848214286 15.1297348484848  13.9402901785714 15.2897727272727  C 14.1489955357143 15.4498106060606  14.4221540178571 15.6437026515151  14.759765625 15.8714488636364  C 15.0973772321429 16.0991950757576  15.4073660714286 16.2684659090909  15.6897321428571 16.3792613636364  C 15.9720982142857 16.4900568181818  16.2360491071429 16.5454545454545  16.4815848214286 16.5454545454545  L 16.5 16.5454545454545  L 16.5184151785714 16.5454545454545  C 16.7639508928571 16.5454545454545  17.0279017857143 16.4900568181818  17.3102678571429 16.3792613636364  C 17.5926339285714 16.2684659090909  17.9026227678571 16.0991950757576  18.240234375 15.8714488636364  C 18.5778459821429 15.6437026515151  18.8510044642857 15.4498106060606  19.0597098214286 15.2897727272727  C 19.2684151785714 15.1297348484848  19.55078125 14.8989109848485  19.9068080357143 14.5973011363636  C 20.2628348214286 14.2956912878788  20.4776785714286 14.1141098484848  20.5513392857143 14.0525568181818  C 23.1049107142857 12.0213068181818  25.56640625 10.0700757575758  27.9358258928571 8.19886363636363  C 28.5987723214286 7.66950757575757  29.2156808035714 6.95857007575757  29.7865513392857 6.06605113636364  Z M 32.1344866071429 0.867897727272726  C 32.7114955357143 1.44649621212121  33 2.14204545454546  33 2.95454545454546  L 33 23.0454545454545  C 33 23.8579545454545  32.7114955357143 24.5535037878788  32.1344866071429 25.1321022727273  C 31.5574776785714 25.7107007575758  30.8638392857143 26  30.0535714285714 26  L 2.94642857142857 26  C 2.13616071428571 26  1.44252232142857 25.7107007575758  0.865513392857143 25.1321022727273  C 0.288504464285714 24.5535037878788  0 23.8579545454545  0 23.0454545454545  L 0 2.95454545454546  C 0 2.14204545454546  0.288504464285714 1.44649621212121  0.865513392857143 0.867897727272726  C 1.44252232142857 0.289299242424239  2.13616071428571 0  2.94642857142857 0  L 30.0535714285714 0  C 30.8638392857143 0  31.5574776785714 0.289299242424239  32.1344866071429 0.867897727272726  Z " fill-rule="nonzero" fill="#000000" stroke="none" transform="matrix(1 0 0 1 215 466 )" />
  </g>
</svg>