<?xml version="1.0" encoding="utf-8"?>
<svg version="1.1" xmlns:xlink="http://www.w3.org/1999/xlink" width="47px" height="47px" xmlns="http://www.w3.org/2000/svg">
  <g transform="matrix(1 0 0 1 -550 -4353 )">
    <path d="M 34.6686197916667 27.998046875  C 35.0562065972222 28.3856336805556  35.25 28.8446180555556  35.25 29.375  C 35.25 29.9053819444444  35.0562065972222 30.3643663194444  34.6686197916667 30.751953125  C 34.2810329861111 31.1395399305556  33.8220486111111 31.3333333333333  33.2916666666667 31  L 13.7083333333333 31  C 13.1779513888889 31.3333333333333  12.7189670138889 31.1395399305556  12.3313802083333 30.751953125  C 11.9437934027778 30.3643663194444  11.75 29.9053819444444  11.75 29.375  C 11.75 28.8446180555556  11.9437934027778 28.3856336805556  12.3313802083333 27.998046875  C 12.7189670138889 27.6104600694444  13.1779513888889 27.4166666666667  13.7083333333333 27  L 33.2916666666667 27  C 33.8220486111111 27.4166666666667  34.2810329861111 27.6104600694444  34.6686197916667 27.998046875  Z M 18.4358723958333 12.8974609375  C 19.2008463541667 13.6624348958333  19.5833333333333 14.5855034722222  19.5833333333333 15.6666666666667  C 19.5833333333333 16.7478298611111  19.2008463541667 17.6708984375  18.4358723958333 18.4358723958333  C 17.6708984375 19.2008463541667  16.7478298611111 19.5833333333333  15.6666666666667 19.5833333333333  C 14.5855034722222 19.5833333333333  13.6624348958333 19.2008463541667  12.8974609375 18.4358723958333  C 12.1324869791667 17.6708984375  11.75 16.7478298611111  11.75 15.6666666666667  C 11.75 14.5855034722222  12.1324869791667 13.6624348958333  12.8974609375 12.8974609375  C 13.6624348958333 12.1324869791667  14.5855034722222 11.75  15.6666666666667 11.75  C 16.7478298611111 11.75  17.6708984375 12.1324869791667  18.4358723958333 12.8974609375  Z M 34.1025390625 12.8974609375  C 34.8675130208333 13.6624348958333  35.25 14.5855034722222  35.25 15.6666666666667  C 35.25 16.7478298611111  34.8675130208333 17.6708984375  34.1025390625 18.4358723958333  C 33.3375651041667 19.2008463541667  32.4144965277778 19.5833333333333  31.3333333333333 19.5833333333333  C 30.2521701388889 19.5833333333333  29.3291015625 19.2008463541667  28.5641276041667 18.4358723958333  C 27.7991536458333 17.6708984375  27.4166666666667 16.7478298611111  27.4166666666667 15.6666666666667  C 27.4166666666667 14.5855034722222  27.7991536458333 13.6624348958333  28.5641276041667 12.8974609375  C 29.3291015625 12.1324869791667  30.2521701388889 11.75  31.3333333333333 11.75  C 32.4144965277778 11.75  33.3375651041667 12.1324869791667  34.1025390625 12.8974609375  Z M 41.5227864583333 31.1038411458333  C 42.5631510416667 28.6865234375  43.0833333333333 26.1519097222222  43.0833333333333 23.5  C 43.0833333333333 20.8480902777778  42.5631510416667 18.3134765625  41.5227864583333 15.8961588541667  C 40.482421875 13.4788411458333  39.0901692708333 11.3981119791667  37.3460286458333 9.65397135416667  C 35.6018880208333 7.90983072916667  33.5211588541667 6.517578125  31.1038411458333 5.47721354166667  C 28.6865234375 4.43684895833333  26.1519097222222 3.91666666666667  23.5 3.91666666666667  C 20.8480902777778 3.91666666666667  18.3134765625 4.43684895833333  15.8961588541667 5.47721354166667  C 13.4788411458333 6.517578125  11.3981119791667 7.90983072916667  9.65397135416667 9.65397135416667  C 7.90983072916667 11.3981119791667  6.517578125 13.4788411458333  5.47721354166667 15.8961588541667  C 4.43684895833333 18.3134765625  3.91666666666667 20.8480902777778  3.91666666666667 23.5  C 3.91666666666667 26.1519097222222  4.43684895833333 28.6865234375  5.47721354166667 31.1038411458333  C 6.517578125 33.5211588541667  7.90983072916667 35.6018880208333  9.65397135416667 37.3460286458333  C 11.3981119791667 39.0901692708333  13.4788411458333 40.482421875  15.8961588541667 41.5227864583333  C 18.3134765625 42.5631510416667  20.8480902777778 43.0833333333333  23.5 43.0833333333333  C 26.1519097222222 43.0833333333333  28.6865234375 42.5631510416667  31.1038411458333 41.5227864583333  C 33.5211588541667 40.482421875  35.6018880208333 39.0901692708333  37.3460286458333 37.3460286458333  C 39.0901692708333 35.6018880208333  40.482421875 33.5211588541667  41.5227864583333 31.1038411458333  Z M 43.8483072916667 11.7041015625  C 45.9494357638889 15.3045789930556  47 19.2365451388889  47 23.5  C 47 27.7634548611111  45.9494357638889 31.6954210069444  43.8483072916667 35.2958984375  C 41.7471788194444 38.8963758680556  38.8963758680556 41.7471788194444  35.2958984375 43.8483072916667  C 31.6954210069444 45.9494357638889  27.7634548611111 47  23.5 47  C 19.2365451388889 47  15.3045789930556 45.9494357638889  11.7041015625 43.8483072916667  C 8.10362413194444 41.7471788194444  5.25282118055556 38.8963758680556  3.15169270833333 35.2958984375  C 1.05056423611111 31.6954210069444  0 27.7634548611111  0 23.5  C 0 19.2365451388889  1.05056423611111 15.3045789930556  3.15169270833333 11.7041015625  C 5.25282118055556 8.10362413194444  8.10362413194444 5.25282118055555  11.7041015625 3.15169270833333  C 15.3045789930556 1.05056423611111  19.2365451388889 0  23.5 0  C 27.7634548611111 0  31.6954210069444 1.05056423611111  35.2958984375 3.15169270833333  C 38.8963758680556 5.25282118055555  41.7471788194444 8.10362413194444  43.8483072916667 11.7041015625  Z " fill-rule="nonzero" fill="#000000" stroke="none" transform="matrix(1 0 0 1 550 4353 )" />
  </g>
</svg>