<?xml version="1.0" encoding="utf-8"?>
<svg version="1.1" xmlns:xlink="http://www.w3.org/1999/xlink" width="29px" height="23px" xmlns="http://www.w3.org/2000/svg">
  <g transform="matrix(1 0 0 1 -116 -397 )">
    <path d="M 26.7748325892857 20.75390625  C 26.8773251488095 20.6504498106061  26.9285714285714 20.5279356060606  27 20.3863636363636  L 27 7.84090909090909  C 26.5833333333333 8.23295454545454  26.2111235119048 8.59232954545454  25.8119419642857 8.91903409090909  C 22.9205729166667 11.1624053030303  20.6225818452381 13.0028409090909  18.91796875 14.4403409090909  C 18.3677455357143 14.9086174242424  17.9200148809524 15.2734375  17.5747767857143 15.5348011363636  C 17.2295386904762 15.7961647727273  16.762927827381 16.0602509469697  16.1749441964286 16.3270596590909  C 15.5869605654762 16.5938683712121  15.0340401785714 16.7272727272727  14.5161830357143 16.7272727272727  L 14.5 16.7272727272727  L 14.4838169642857 16.7272727272727  C 13.9659598214286 16.7272727272727  13.4130394345238 16.5938683712121  12.8250558035714 16.3270596590909  C 12.237072172619 16.0602509469697  11.7704613095238 15.7961647727273  11.4252232142857 15.5348011363636  C 11.0799851190476 15.2734375  10.6322544642857 14.9086174242424  10.08203125 14.4403409090909  C 8.37741815476191 13.0028409090909  6.07942708333333 11.1624053030303  3.18805803571429 8.91903409090909  C 2.78887648809524 8.59232954545454  2.41666666666667 8.23295454545454  2 7.84090909090909  L 2 20.3863636363636  C 2.07142857142857 20.5279356060606  2.12267485119048 20.6504498106061  2.22516741071429 20.75390625  C 2.3276599702381 20.8573626893939  2.44903273809524 20.9090909090909  2.58928571428571 21  L 26.4107142857143 21  C 26.5509672619048 20.9090909090909  26.6723400297619 20.8573626893939  26.7748325892857 20.75390625  Z M 26.1760602678571 5.36612215909091  C 26.677734375 4.57658617424242  26.9285714285714 3.86055871212121  26.9285714285714 3.21803977272727  L 26.9285714285714 3.03835227272727  L 26.9285714285714 2.81782670454546  C 26.9285714285714 2.81782670454546  26.9258742559524 2.74704071969697  26.9204799107143 2.60546875  C 26.9150855654762 2.46389678030303  26.8989025297619 2.39583333333333  26.8719308035714 2.40127840909091  C 26.844959077381 2.40672348484848  26.8152901785714 2.3577178030303  26.7829241071429 2.25426136363636  C 26.7505580357143 2.15080492424242  26.7020089285714 2.1099668560606  26.6372767857143 2.13174715909091  C 26.5725446428571 2.15352746212121  26.4970238095238 2.13991477272727  26.4107142857143 2  L 2.58928571428571 2  C 2.44903273809524 2.09090909090909  2.3276599702381 2.14263731060606  2.22516741071429 2.24609375  C 2.12267485119048 2.34955018939394  2.07142857142857 2.47206439393939  2.07142857142857 2.61363636363636  C 2.07142857142857 4.44318181818182  2.86439732142857 5.98958333333333  4.45033482142857 7.25284090909091  C 6.53255208333333 8.90814393939394  8.69568452380953 10.6342329545455  10.9397321428571 12.4311079545455  C 11.0044642857143 12.4855587121212  11.1932663690476 12.6461884469697  11.5061383928571 12.9129971590909  C 11.8190104166667 13.1798058712121  12.067150297619 13.3839962121212  12.2505580357143 13.5255681818182  C 12.4339657738095 13.6671401515151  12.6740141369048 13.8386600378788  12.970703125 14.0401278409091  C 13.2673921130952 14.2415956439394  13.539806547619 14.3913352272727  13.7879464285714 14.4893465909091  C 14.0360863095238 14.5873579545455  14.2680431547619 14.6363636363636  14.4838169642857 14.6363636363636  L 14.5 14.6363636363636  L 14.5161830357143 14.6363636363636  C 14.7319568452381 14.6363636363636  14.9639136904762 14.5873579545455  15.2120535714286 14.4893465909091  C 15.460193452381 14.3913352272727  15.7326078869048 14.2415956439394  16.029296875 14.0401278409091  C 16.3259858630952 13.8386600378788  16.5660342261905 13.6671401515151  16.7494419642857 13.5255681818182  C 16.932849702381 13.3839962121212  17.1809895833333 13.1798058712121  17.4938616071429 12.9129971590909  C 17.8067336309524 12.6461884469697  17.9955357142857 12.4855587121212  18.0602678571429 12.4311079545455  C 20.3043154761905 10.6342329545455  22.4674479166667 8.90814393939394  24.5496651785714 7.25284090909091  C 25.1322544642857 6.78456439393939  25.6743861607143 6.15565814393939  26.1760602678571 5.36612215909091  Z M 28.2393973214286 0.767755681818181  C 28.7464657738095 1.2795928030303  29 1.89488636363636  29 2.61363636363636  L 29 20.3863636363636  C 29 21.1051136363636  28.7464657738095 21.7204071969697  28.2393973214286 22.2322443181818  C 27.7323288690476 22.7440814393939  27.1227678571429 23  26.4107142857143 23  L 2.58928571428571 23  C 1.87723214285714 23  1.26767113095238 22.7440814393939  0.760602678571429 22.2322443181818  C 0.253534226190476 21.7204071969697  0 21.1051136363636  0 20.3863636363636  L 0 2.61363636363636  C 0 1.89488636363636  0.253534226190476 1.2795928030303  0.760602678571429 0.767755681818181  C 1.26767113095238 0.255918560606058  1.87723214285714 0  2.58928571428571 0  L 26.4107142857143 0  C 27.1227678571429 0  27.7323288690476 0.255918560606058  28.2393973214286 0.767755681818181  Z " fill-rule="nonzero" fill="#000000" stroke="none" transform="matrix(1 0 0 1 116 397 )" />
  </g>
</svg>