<?xml version="1.0" encoding="UTF-8"?>
<svg width="9px" height="11px" viewBox="0 0 9 11" version="1.1" xmlns="http://www.w3.org/2000/svg" xmlns:xlink="http://www.w3.org/1999/xlink">
    <title>位置</title>
    <g id="大屏" stroke="none" stroke-width="1" fill="none" fill-rule="evenodd">
        <g id="基本信息" transform="translate(-108.000000, -282.000000)" fill="#FFFFFF" fill-rule="nonzero">
            <g id="编组-29" transform="translate(32.000000, 241.000000)">
                <g id="编组-12" transform="translate(76.000000, 39.000000)">
                    <path d="M4.49970905,2 C3.34830492,2 2.1969008,2.44471429 1.318606,3.33492857 C-0.439535335,5.11378571 -0.439535335,7.99814286 1.318606,9.777 L4.49970905,13 L7.68081209,9.777 C9.4397293,7.99657143 9.4397293,5.11221429 7.68081209,3.33492857 C6.80329317,2.44471429 5.65111317,2 4.49970905,2 L4.49970905,2 Z M4.49970905,8.28571429 C4.07142395,8.28571429 3.68348456,8.10892857 3.40261644,7.82528571 C3.12174831,7.54164286 2.94795146,7.14878571 2.94795146,6.71428571 C2.94795146,5.84607143 3.64236298,5.14285714 4.49970905,5.14285714 C5.35705511,5.14285714 6.05146663,5.84607143 6.05146663,6.71428571 C6.05146663,7.14878571 5.8768939,7.54164286 5.59680166,7.82528571 C5.31670941,8.10892857 4.92799414,8.28571429 4.49970905,8.28571429 L4.49970905,8.28571429 Z" id="位置"></path>
                </g>
            </g>
        </g>
    </g>
</svg>