<?xml version="1.0" encoding="UTF-8"?>
<svg width="17px" height="16px" viewBox="0 0 17 16" version="1.1" xmlns="http://www.w3.org/2000/svg" xmlns:xlink="http://www.w3.org/1999/xlink">
    <title>安全评分</title>
    <g id="页面-1" stroke="none" stroke-width="1" fill="none" fill-rule="evenodd">
        <g id="项目信息" transform="translate(-800.000000, -346.000000)" stroke="#007AFF">
            <g id="编组-11" transform="translate(97.000000, 345.000000)">
                <g id="编组-9备份-5" transform="translate(704.000000, 2.000000)">
                    <g id="编组-10" transform="translate(0.000000, 0.350000)">
                        <path d="M12.15,0 L3.15,0 C1.41030304,0 0,1.41030304 0,3.15 L0,10.15 C0,11.889697 1.41030304,13.3 3.15,13.3 L12.15,13.3 C13.889697,13.3 15.3,11.889697 15.3,10.15 L15.3,3.15 C15.3,1.41030304 13.889697,0 12.15,0 Z" id="矩形" fill-rule="nonzero"></path>
                        <polyline id="路径-6" stroke-linecap="round" stroke-linejoin="round" points="4.07704994 5.83991411 6.81898583 4.24503941 7.86527947 6.3627004 11.3770499 3.8587421"></polyline>
                        <line x1="4.72704994" y1="8.35542247" x2="4.72704994" y2="10.0158457" id="路径-7" stroke-linecap="round"></line>
                        <line x1="7.72704994" y1="8.77954946" x2="7.72704994" y2="10.0158457" id="路径-9" stroke-linecap="round"></line>
                        <line x1="10.7270499" y1="8.01584571" x2="10.7270499" y2="10.0158457" id="路径-10" stroke-linecap="round"></line>
                    </g>
                </g>
            </g>
        </g>
    </g>
</svg>