<?xml version="1.0" encoding="UTF-8"?>
<svg width="6px" height="10px" viewBox="0 0 6 10" version="1.1" xmlns="http://www.w3.org/2000/svg" xmlns:xlink="http://www.w3.org/1999/xlink">
    <title>岗位</title>
    <g id="大屏" stroke="none" stroke-width="1" fill="none" fill-rule="evenodd" opacity="0.900000036">
        <g id="主屏5" transform="translate(-122.000000, -454.000000)" fill="#FFFFFF">
            <g id="编组-49" transform="translate(32.000000, 433.000000)">
                <g id="积分" transform="translate(84.000000, 17.000000)">
                    <g id="岗位" transform="translate(6.000000, 4.000000)">
                        <path d="M2.62435921,10 C2.33255789,10 0,8.67319588 0,8.34329897 C0,8.01340206 1.49976617,2.50103093 1.49976617,2.50103093 L0.345529822,0.4 C0.345529822,0.4 0.0583602649,0 0.749419909,0 L4.49837216,0 C5.18943181,0 4.84390198,0.393814433 4.84390198,0.393814433 L3.74895225,2.50103093 C3.74895225,2.50103093 5.24871843,8.04742268 5.24871843,8.34329897 C4.47400795,9.07217572 3.58402927,9.63399996 2.62435921,10 L2.62435921,10 Z M5.91847194,5.68041237 L5.39508226,6.36494845 L4.19082283,2.50103093 L5.93977807,5.20103093 C6.02733971,5.34890727 6.01871885,5.54287415 5.91847194,5.68041237 L5.91847194,5.68041237 Z" id="形状"></path>
                    </g>
                </g>
            </g>
        </g>
    </g>
</svg>