<?xml version="1.0" encoding="UTF-8"?>
<svg width="12px" height="11px" viewBox="0 0 12 11" version="1.1" xmlns="http://www.w3.org/2000/svg" xmlns:xlink="http://www.w3.org/1999/xlink">
    <title>已读</title>
    <g id="页面-1" stroke="none" stroke-width="1" fill="none" fill-rule="evenodd">
        <g id="消息中心" transform="translate(-264.000000, -575.000000)" fill="#BFBFBF" fill-rule="nonzero">
            <g id="编组-9" transform="translate(261.000000, 394.000000)">
                <g id="编组-8" transform="translate(0.000000, 156.000000)">
                    <g id="已读" transform="translate(3.000000, 25.000000)">
                        <path d="M4.41505443,6.74950255 L5.96652056,7.8999032 L11.4453696,3.64050839 L7.5179867,1.15040065 L6.99333632,0.76450676 L5.96652056,0 L4.93970481,0.728101678 L4.41505443,1.11399556 L0.487671546,3.64050839 L4.41505443,6.74950255 Z M0.007991192,4.12105549 C-0.00266373067,4.1861759 -0.00266373067,4.25252253 0.007991192,4.31764294 L0.007991192,10.3681679 C0.00775830701,10.4408178 0.023072194,10.5127217 0.0529612231,10.5793174 L3.92038406,7.16452051 L0.007991192,4.12105549 Z" id="形状"></path>
                        <path d="M5.96652056,8.67897199 L4.46751946,7.55041439 L0.495166551,10.9943353 C0.559890616,11.0018882 0.625312631,11.0018882 0.690036697,10.9943353 L11.2130244,10.9943353 C11.2777485,11.0018882 11.3431705,11.0018882 11.4078946,10.9943353 L7.46552167,7.55041439 L5.96652056,8.67897199 Z M11.962525,4.12105549 L8.01265707,7.16452051 L11.962525,10.5793174 C11.986473,10.5113124 11.999123,10.4400371 12,10.3681679 L12,4.31764294 C11.9984274,4.25058692 11.9857744,4.18421189 11.962525,4.12105549 L11.962525,4.12105549 Z" id="形状"></path>
                    </g>
                </g>
            </g>
        </g>
    </g>
</svg>