<?xml version="1.0" encoding="UTF-8"?>
<svg width="38px" height="38px" viewBox="0 0 38 38" version="1.1" xmlns="http://www.w3.org/2000/svg" xmlns:xlink="http://www.w3.org/1999/xlink">
    <title>形状</title>
    <defs>
        <linearGradient x1="50%" y1="0%" x2="50%" y2="100%" id="linearGradient-1">
            <stop stop-color="#FF8183" offset="0%"></stop>
            <stop stop-color="#FF2627" offset="100%"></stop>
        </linearGradient>
    </defs>
    <g id="页面-1" stroke="none" stroke-width="1" fill="none" fill-rule="evenodd">
        <g id="项目信息-设备管理" transform="translate(-267.000000, -309.000000)" fill="url(#linearGradient-1)" fill-rule="nonzero">
            <g id="编组-37" transform="translate(175.000000, 239.000000)">
                <g id="编组-10" transform="translate(12.000000, 0.000000)">
                    <path d="M83.5354752,83.4364641 L81.5006694,83.0165746 C80.8902276,82.8066298 80.2797858,83.0165746 80.0763052,83.4364641 C79.8728246,83.8563535 80.0763052,84.2762431 80.686747,84.4861879 L82.7215529,84.9060773 C83.3319946,84.9060773 83.7389559,84.6961326 84.145917,84.4861879 C84.3493976,84.0662984 83.9424364,83.4364641 83.5354752,83.4364641 L83.5354752,83.4364641 Z M91.064257,75.8784531 L89.8433735,74.198895 C89.2329318,73.5690608 88.62249,73.359116 88.2155288,73.7790055 C87.8085676,74.198895 87.605087,74.8287293 88.0120482,75.2486188 L89.2329318,77.1381215 C89.6398929,77.558011 90.2503347,77.7679558 90.6572959,77.3480663 C91.2677376,76.9281768 91.2677376,76.2983425 91.064257,75.8784531 Z M99.6104418,70 C99.6104418,70 99.4069612,70 99.6104418,70 C99,70 98.3895583,70.6298342 98.5930388,71.0497238 L98.5930388,73.5690608 C98.5930388,74.198895 99.2034806,74.6187846 99.6104418,74.6187846 L99.8139223,74.6187846 C100.424364,74.6187846 100.831325,73.9889503 100.627845,73.5690608 L100.627845,71.2596685 L100.627845,71.0497238 C100.627845,70.4198895 100.220884,70 99.6104418,70 Z M99.4069612,78.6077348 C93.3025435,78.6077348 88.2155288,83.8563536 88.2155288,90.1546961 L88.2155288,101.701657 L110.598394,101.701657 L110.598394,90.1546961 C110.598394,83.8563536 105.511379,78.6077348 99.4069612,78.6077348 L99.4069612,78.6077348 Z M110.801874,73.9889503 C110.394913,73.5690608 109.580991,73.7790055 109.37751,74.198895 L108.156626,75.8784531 C107.749665,76.2983425 107.953146,77.1381215 108.360107,77.3480663 C108.767068,77.7679558 109.580991,77.5580111 109.784471,77.1381215 L111.208835,75.4585636 C111.412316,75.0386741 111.412316,74.4088398 110.801874,73.9889503 L110.801874,73.9889503 Z M112.633199,103.801105 L86.1807229,103.801105 L86.1807229,105.900552 C86.1807229,106.950276 87.1981259,108 88.4190094,108 L110.394913,108 C111.615797,108 112.633199,107.160221 112.633199,105.900552 L112.633199,103.801105 Z M117.923695,84.0662983 C117.720214,83.4364641 117.109772,83.2265193 116.499331,83.4364641 L114.464525,84.0662983 C113.854083,84.2762431 113.650602,84.9060773 113.854083,85.5359116 C114.057564,86.1657458 114.668005,86.3756906 115.278447,86.1657459 L117.313253,85.5359116 C117.923695,85.1160221 118.127175,84.4861878 117.923695,84.0662983 Z" id="形状"></path>
                </g>
            </g>
        </g>
    </g>
</svg>