<?xml version="1.0" encoding="UTF-8"?>
<svg width="21px" height="19px" viewBox="0 0 21 19" version="1.1" xmlns="http://www.w3.org/2000/svg" xmlns:xlink="http://www.w3.org/1999/xlink">
    <title>手动火灾报警</title>
    <defs>
        <linearGradient x1="12.4609987%" y1="10.4399154%" x2="100%" y2="90.9297068%" id="linearGradient-1">
            <stop stop-color="#AAFFFF" offset="0%"></stop>
            <stop stop-color="#60CAFF" offset="100%"></stop>
        </linearGradient>
        <linearGradient x1="12.4609987%" y1="47.3160918%" x2="100%" y2="52.7768287%" id="linearGradient-2">
            <stop stop-color="#AAFFFF" offset="0%"></stop>
            <stop stop-color="#60CAFF" offset="100%"></stop>
        </linearGradient>
    </defs>
    <g id="大屏" stroke="none" stroke-width="1" fill="none" fill-rule="evenodd">
        <g id="消防安全" transform="translate(-637.000000, -648.000000)">
            <g id="编组-6" transform="translate(620.000000, 635.000000)">
                <g id="手动火灾报警" transform="translate(16.000000, 12.000000)">
                    <rect id="矩形" x="0" y="0" width="22" height="22"></rect>
                    <path d="M19.8624971,0.999998111 C20.429629,0.999246114 20.9737506,1.22420295 21.3747738,1.62522616 C21.7757971,2.02624937 22.0007539,2.57037099 21.9999981,3.13750295 L21.9999981,17.8624971 C22.0007539,18.429629 21.7757971,18.9737506 21.3747738,19.3747738 C20.9737506,19.7757971 20.429629,20.0007539 19.8624971,19.9999981 L3.13750295,19.9999981 C2.57037099,20.0007539 2.02624937,19.7757971 1.62522616,19.3747738 C1.22420295,18.9737506 0.999246114,18.429629 0.999998111,17.8624971 L0.999998111,3.13750295 C0.999246114,2.57037099 1.22420295,2.02624937 1.62522616,1.62522616 C2.02624937,1.22420295 2.57037099,0.999246114 3.13750295,0.999998111 L19.8624971,0.999998111 Z M17.1999977,9.03700058 L4.80000229,9.03700058 C3.7645027,9.03700058 2.91045305,9.84450026 2.83825307,10.8638498 L2.83350308,11.0034998 L2.83350308,16.7034975 C2.83350308,17.7389971 3.64100276,18.5930467 4.66035234,18.6652467 L4.80000229,18.6699967 L18.1999977,18.6699967 C19.2354973,18.6699967 20.089547,17.862497 20.1617469,16.8431474 L20.1664969,16.7034975 L20.1664969,11.0034998 C20.1664969,9.92050023 19.2829973,9.03700058 18.1999977,9.03700058 L17.1999977,9.03700058 Z M15.4899984,2.90000306 L15.4899984,7.08950138 L17.9552474,7.08950138 L17.9552474,6.63350156 L16.0172482,6.63350156 L16.0172482,5.10875217 L17.5989976,5.10875217 L17.5989976,4.65275235 L16.0172482,4.65275235 L16.0172482,3.34175288 L17.8982474,3.34175288 L17.8982474,2.90000306 L15.4899984,2.90000306 Z M8.20825132,2.90000306 L5.80000229,2.90000306 L5.80000229,7.07525138 L6.32725208,7.07525138 L6.32725208,5.19425214 L7.92325144,5.19425214 L7.92325144,4.75250231 L6.32725208,4.75250231 L6.32725208,3.34175288 L8.20825132,3.34175288 L8.20825132,2.90000306 Z M9.89450064,2.90000306 L9.36725085,2.90000306 L9.36725085,7.07525138 L9.89450064,7.07525138 L9.89450064,2.90000306 Z M12.7634995,2.90000306 L11.4525,2.90000306 L11.4525,7.07525138 L11.9797498,7.07525138 L11.9797498,5.30825209 L12.7349995,5.30825209 L13.7467491,7.07525138 L13.7467491,7.06100139 L14.3452489,7.06100139 L13.2764993,5.23700212 C13.8464991,5.10875217 14.2169989,4.72400233 14.2169989,4.06850259 C14.2169989,3.19925294 13.6184992,2.90000306 12.7634995,2.90000306 Z M12.6779995,3.34175288 C13.3334993,3.34175288 13.6897491,3.52700281 13.6897491,4.08275258 C13.6897491,4.62425237 13.3334993,4.88075226 12.6779995,4.88075226 L11.9797498,4.88075226 L11.9797498,3.34175288 L12.6779995,3.34175288 Z" id="形状" fill="url(#linearGradient-1)"></path>
                    <path d="M8.86375106,13.5893988 C8.90976373,13.6319869 8.94354783,13.6861071 8.96160103,13.7461487 C8.96160103,13.7499487 8.96160103,13.7537487 8.96350102,13.7575487 C9.00108869,13.8762458 8.9700215,14.005997 8.88275104,14.0947986 L8.85995105,14.1147486 C8.85662475,14.1180838 8.85313726,14.1212542 8.84950106,14.1242485 L8.83715106,14.1337485 C8.83620397,14.1343862 8.83525396,14.1350196 8.83430106,14.1356485 L7.96600142,15.1787481 C7.90900144,15.2642481 7.80925148,15.3069981 7.69525153,15.3069981 C7.61146116,15.3067421 7.53054968,15.2764002 7.46725162,15.2214981 C7.39370969,15.1621649 7.3475673,15.0753887 7.33949753,14.9812414 C7.33142776,14.8870941 7.36212965,14.7937312 7.42450164,14.7227483 L7.85010147,14.2097485 L5.7715023,14.2097485 C5.67670765,14.2107762 5.58549578,14.1735729 5.5184619,14.106539 C5.45142803,14.0395052 5.41422477,13.9482933 5.41525244,13.8534986 C5.41525244,13.6539987 5.57200238,13.4972488 5.7715023,13.4972488 L7.86435147,13.4972488 L7.43875163,12.984249 C7.37585686,12.9134977 7.34481253,12.8200023 7.35289704,12.725683 C7.36098156,12.6313637 7.40748394,12.5445151 7.48150161,12.4854992 C7.55236951,12.422867 7.64579824,12.3919948 7.74003099,12.4000719 C7.83426374,12.408149 7.92107589,12.4544704 7.98025141,12.5282492 L8.86375106,13.5893988 Z M15.7322483,12.984249 L15.3047485,13.4972488 L17.3994976,13.4972488 C17.5989976,13.4972488 17.7557475,13.6539987 17.7557475,13.8534986 C17.7557475,14.0529986 17.5989976,14.2097485 17.3994976,14.2097485 L15.3189985,14.2097485 L15.7464983,14.7227483 C15.8747482,14.8794982 15.8604982,15.0932481 15.7037483,15.2214981 C15.6392202,15.2742982 15.5590834,15.3043495 15.4757484,15.3069981 C15.3708863,15.3067744 15.2716001,15.2597441 15.2049985,15.1787481 L14.3461989,14.1479985 C14.3006843,14.1166684 14.2632442,14.074996 14.2369489,14.0263986 L14.2274489,14.0073986 C14.2165478,13.9852208 14.2079527,13.9619823 14.2017989,13.9380486 C14.2017989,13.9294986 14.1989489,13.9190486 14.1979989,13.9095486 C14.1957345,13.9011389 14.1941461,13.8925616 14.1932489,13.8838986 L14.1932489,13.8648986 L14.1932489,13.8534986 L14.1941989,13.8382987 L14.1941989,13.8135987 L14.1970489,13.7945987 L14.1932489,13.8534986 C14.1932489,13.8202487 14.1979989,13.7869987 14.2065489,13.7565987 L14.2122489,13.7375987 C14.2303441,13.6819855 14.2623984,13.6319416 14.3053489,13.5922488 L15.1907485,12.5282492 C15.2500817,12.4547072 15.3368579,12.4085649 15.4310052,12.4004951 C15.5251525,12.3924253 15.6185154,12.4231272 15.6894983,12.4854992 C15.8462483,12.6137491 15.8604982,12.8417491 15.7322483,12.984249 Z M10.7875003,12.6194491 C11.228638,12.360834 11.7745254,12.358413 12.2179395,12.6131052 C12.6613537,12.8677975 12.9343061,13.340551 12.9331854,13.8519051 C12.9320578,14.3632591 12.6570294,14.834808 12.2124997,15.0875482 C11.5315495,15.4747067 10.6657762,15.2396548 10.2741093,14.5612877 C9.88244238,13.8829207 10.1117462,13.0156072 10.7875003,12.6194491 Z" id="形状" fill="url(#linearGradient-2)"></path>
                </g>
            </g>
        </g>
    </g>
</svg>