<?xml version="1.0" encoding="UTF-8"?>
<svg width="15px" height="15px" viewBox="0 0 15 15" version="1.1" xmlns="http://www.w3.org/2000/svg" xmlns:xlink="http://www.w3.org/1999/xlink">
    <title>报警备份</title>
    <g id="页面-1" stroke="none" stroke-width="1" fill="none" fill-rule="evenodd">
        <g id="机构-安防设施-安防报警" transform="translate(-352.000000, -428.000000)" fill="#EF6153" fill-rule="nonzero">
            <g id="编组-11" transform="translate(81.000000, 152.000000)">
                <g id="编组-12" transform="translate(16.000000, 162.000000)">
                    <path d="M266.610699,126.253571 C266.645438,126.022619 266.663965,125.784524 266.663965,125.544048 L266.663965,121.857143 C266.663965,119.428571 264.807781,117.460714 262.518527,117.460714 C260.229273,117.460714 258.373089,119.429762 258.373089,121.857143 L258.373089,125.544048 C258.373089,125.784524 258.391616,126.022619 258.426355,126.253571 L266.610699,126.253571 Z M256.299213,129 L268.736684,129 L268.736684,126.802381 L256.300371,126.802381 L256.300371,129 L256.299213,129 Z M261.918712,114 L263.076656,114 L263.076656,116.380952 L261.918712,116.380952 L261.918712,114 Z M256.939555,116.678571 L257.758221,115.835714 L259.396711,117.519048 L258.576887,118.360714 L256.939555,116.678571 Z M268.235294,116.697619 L266.597962,118.380952 L265.779296,117.539286 L267.416628,115.854762 L268.235294,116.697619 Z M257.315887,121.261905 L257.315887,122.452381 L255,122.452381 L255,121.261905 L257.315887,121.261905 Z M270,121.261905 L270,122.452381 L267.684113,122.452381 L267.684113,121.261905 L270,121.261905 Z" id="报警备份"></path>
                </g>
            </g>
        </g>
    </g>
</svg>