<?xml version="1.0" encoding="UTF-8"?>
<svg width="15px" height="15px" viewBox="0 0 15 15" version="1.1" xmlns="http://www.w3.org/2000/svg" xmlns:xlink="http://www.w3.org/1999/xlink">
    <title>报警</title>
    <g id="页面-1" stroke="none" stroke-width="1" fill="none" fill-rule="evenodd">
        <g id="机构-安防设施-安防报警" transform="translate(-352.000000, -346.000000)" fill="#EF6153" fill-rule="nonzero">
            <g id="编组-11" transform="translate(81.000000, 152.000000)">
                <g id="编组-12" transform="translate(16.000000, 162.000000)">
                    <path d="M266.610699,44.2535714 C266.645438,44.022619 266.663965,43.7845238 266.663965,43.5440476 L266.663965,39.8571429 C266.663965,37.4285714 264.807781,35.4607143 262.518527,35.4607143 C260.229273,35.4607143 258.373089,37.4297619 258.373089,39.8571429 L258.373089,43.5440476 C258.373089,43.7845238 258.391616,44.0226191 258.426355,44.2535714 L266.610699,44.2535714 Z M256.299213,47 L268.736684,47 L268.736684,44.802381 L256.300371,44.802381 L256.300371,47 L256.299213,47 Z M261.918712,32 L263.076656,32 L263.076656,34.3809524 L261.918712,34.3809524 L261.918712,32 Z M256.939555,34.6785714 L257.758221,33.8357143 L259.396711,35.5190476 L258.576887,36.3607143 L256.939555,34.6785714 Z M268.235294,34.697619 L266.597962,36.3809524 L265.779296,35.5392857 L267.416628,33.8547619 L268.235294,34.697619 Z M257.315887,39.2619048 L257.315887,40.4523809 L255,40.4523809 L255,39.2619048 L257.315887,39.2619048 Z M270,39.2619048 L270,40.4523809 L267.684113,40.4523809 L267.684113,39.2619048 L270,39.2619048 Z" id="报警"></path>
                </g>
            </g>
        </g>
    </g>
</svg>