<?xml version="1.0" encoding="UTF-8"?>
<svg width="21px" height="21px" viewBox="0 0 21 21" version="1.1" xmlns="http://www.w3.org/2000/svg" xmlns:xlink="http://www.w3.org/1999/xlink">
    <title>探测器</title>
    <defs>
        <linearGradient x1="12.4609987%" y1="1.67313945%" x2="100%" y2="100%" id="linearGradient-1">
            <stop stop-color="#AAFFFF" offset="0%"></stop>
            <stop stop-color="#60CAFF" offset="100%"></stop>
        </linearGradient>
    </defs>
    <g id="大屏" stroke="none" stroke-width="1" fill="none" fill-rule="evenodd">
        <g id="消防安全" transform="translate(-476.000000, -647.000000)" fill="url(#linearGradient-1)">
            <g id="编组-4" transform="translate(460.000000, 635.000000)">
                <g id="形状结合" transform="translate(16.000000, 12.000000)">
                    <path d="M11.3946557,0 C11.8682502,0 12.2558812,0.375121401 12.2558812,0.833688699 L12.4137461,3.02690363 L19.2918762,3.02690363 C19.7654706,3.02690363 20.1531017,3.40202503 20.1531017,3.86033557 C20.1880053,3.7734131 20.2814935,3.70949667 20.3863171,3.70961944 L20.7524574,3.70961944 C20.8896273,3.70961944 21,3.81617343 21,3.94917336 L21,5.91310463 C21,6.0458478 20.8896273,6.15265855 20.7524574,6.15265855 L20.3863171,6.15265855 C20.2814606,6.15288189 20.1879184,6.08892851 20.1531017,5.99321269 L20.1531017,6.00399647 C20.1528364,6.46256377 19.7654706,6.83768517 19.2918762,6.83768517 L16.6041946,6.83768517 C17.5906507,8.08706282 18.177271,9.64814298 18.177271,11.341196 C18.177271,12.2991549 17.9894251,13.2144922 17.6479596,14.0553701 L19.598585,16.2200851 C19.9323563,16.5456524 19.9323563,17.0768819 19.598585,17.3998817 L18.3794441,18.579935 C18.0430196,18.9029348 17.4938092,18.9029348 17.1600379,18.579935 L15.3760328,17.0773954 C14.5378901,17.7449625 13.5511687,18.2433271 12.4713203,18.5201107 L12.4713203,20.6485002 C12.4604422,20.843892 11.5830322,21 10.5037145,21 C9.42439672,21 8.54698673,20.843892 8.53610865,20.6485002 L8.53610865,18.5201107 C7.45519899,18.2435839 6.46768162,17.7447058 5.62927353,17.0766251 L3.86331017,18.5640161 C3.52688566,18.8870159 2.97794062,18.8870159 2.6441693,18.5640161 L1.42476311,17.3842195 C1.09099179,17.0586521 1.09099179,16.527166 1.42476311,16.2041662 L3.35840809,14.0543431 C3.01720783,13.2139787 2.82989261,12.2988982 2.82989261,11.341196 C2.82989261,9.64737271 3.41598231,8.08680606 4.40217309,6.83768517 L1.71555275,6.83768517 C1.24195831,6.83768517 0.854327227,6.46256377 0.854327227,6.00399647 L0.854327227,5.96959109 C0.828060644,6.0748613 0.730953885,6.15265855 0.613682881,6.15265855 L0.247542641,6.15265855 C0.11037271,6.15265855 0,6.0458478 0,5.91310463 L0,3.94917336 C0,3.81643019 0.11037271,3.70961944 0.247542641,3.70961944 L0.613682881,3.70961944 C0.727978981,3.70923569 0.827573417,3.78489476 0.854327227,3.89243015 L0.854327227,3.86033557 C0.854327227,3.40202503 1.24195831,3.02690363 1.71555275,3.02690363 L8.65311434,3.02690363 L8.81071383,0.833688699 C8.81071383,0.375121401 9.1980796,0 9.67193936,0 Z M18.1342893,15.9879771 C17.7978648,15.6624097 17.251573,15.6624097 16.9151485,15.9879771 C16.5787239,16.3135445 16.5787239,16.8424631 16.9151485,17.1680305 C17.251573,17.4935978 17.7978648,17.4935978 18.1342893,17.1680305 C18.4707138,16.8424631 18.4707138,16.3135445 18.1342893,15.9879771 Z M4.10289324,15.9697474 C3.76646873,15.64418 3.22017688,15.64418 2.88348705,15.9697474 C2.54706254,16.2953148 2.54706254,16.8239766 2.88348705,17.149544 C3.21991156,17.4751114 3.76646873,17.4751114 4.10289324,17.149544 C4.43931775,16.8239766 4.43931775,16.2953148 4.10289324,15.9697474 Z M10.5037145,6.83768517 C7.93330385,6.83768517 5.85001895,8.85373804 5.85001895,11.341196 C5.85001895,13.828654 7.93303853,15.8447069 10.5037145,15.8447069 C13.0741251,15.8447069 15.15741,13.828654 15.15741,11.341196 C15.15741,8.85373804 13.0741251,6.83768517 10.5037145,6.83768517 Z M12.6137966,9.67433215 C13.087391,9.67433215 13.4750221,10.0494536 13.4750221,10.5077641 L13.4750221,12.1748847 C13.4723689,12.6331953 13.0850032,13.0083167 12.6111434,13.0083167 L8.4013266,13.0083167 C7.92773215,13.0083167 7.54010107,12.6331953 7.54010107,12.1748847 L7.54010107,10.5077641 C7.54010107,10.0494536 7.92773215,9.67433215 8.4013266,9.67433215 Z M10.5331649,1.16721553 C10.0566519,1.16721553 9.67167404,1.53951261 9.67167404,2.00064747 C9.67167404,2.46178234 10.0566519,2.83407942 10.5331649,2.83407942 C11.0096778,2.83407942 11.3946557,2.46178234 11.3943905,2.00064747 C11.3943905,1.53976937 11.0094125,1.16721553 10.5331649,1.16721553 Z"></path>
                </g>
            </g>
        </g>
    </g>
</svg>