<?xml version="1.0" encoding="UTF-8"?>
<svg width="12px" height="8px" viewBox="0 0 12 8" version="1.1" xmlns="http://www.w3.org/2000/svg" xmlns:xlink="http://www.w3.org/1999/xlink">
    <title>未读</title>
    <g id="页面-1" stroke="none" stroke-width="1" fill="none" fill-rule="evenodd">
        <g id="消息中心" transform="translate(-264.000000, -421.000000)" fill="#FFBB32">
            <g id="编组-9" transform="translate(261.000000, 394.000000)">
                <g id="未读" transform="translate(3.000000, 27.000000)">
                    <path d="M11.961165,0.469541698 L8.28389689,3.43825695 L5.99933043,5.19903832 L3.73217275,3.45087904 L0.0374958152,0.469541698 C0.0147304988,0.535176559 0,0.603335838 0,0.675281743 L0,6.95477085 C0,6.99642374 0.00535654503,7.03429001 0.0133913626,7.07341848 C0.0723133579,7.39149512 0.365584198,7.63636364 0.71911617,7.63636364 L11.2741881,7.63636364 C11.5915634,7.63636364 11.8607298,7.43819684 11.9544694,7.16682194 L11.9584868,7.17060856 C11.9839304,7.10244929 12,7.03050338 12,6.95477085 L12,0.675281743 C12,0.603335838 11.9839304,0.535176559 11.961165,0.469541698 Z" id="路径"></path>
                    <path d="M4.97087379,3.6023441 L5.99933043,4.39122464 L7.03046535,3.60108189 L7.55138935,3.20096168 L11.4817543,0.0302930128 C11.4174757,0.0126220887 11.3505189,0 11.2795447,0 L0.717777034,0 C0.648141948,0 0.579845999,0.0126220887 0.515567459,0.0315552216 L4.44861065,3.20474831 L4.97087379,3.6023441 Z" id="路径" fill-rule="nonzero"></path>
                </g>
            </g>
        </g>
    </g>
</svg>