<?xml version="1.0" encoding="UTF-8"?>
<svg width="27px" height="35px" viewBox="0 0 27 35" version="1.1" xmlns="http://www.w3.org/2000/svg" xmlns:xlink="http://www.w3.org/1999/xlink">
    <title>泵房</title>
    <g id="页面-1" stroke="none" stroke-width="1" fill="none" fill-rule="evenodd">
        <g id="项目信息-设备管理" transform="translate(-125.000000, -745.000000)" fill="#226EDA">
            <g id="编组-4" transform="translate(80.000000, 706.000000)">
                <g id="编组-14" transform="translate(24.000000, 21.000000)">
                    <g id="泵房" transform="translate(21.000000, 18.000000)">
                        <g id="编组" transform="translate(0.000000, -0.000000)">
                            <path d="M15.6478473,0 C15.8165553,0 15.9533202,0.13638095 15.9533202,0.304615377 L15.9533202,2.49975 C20.0007351,2.92222147 23.3407191,5.84461101 24.2870016,9.79148078 L26.6926004,9.79148078 C26.7739472,9.79097378 26.8521367,9.82284314 26.9098376,9.88002465 C26.9675385,9.93720615 26.9999885,10.0149762 26.9999885,10.0960962 L26.9999885,11.9333077 C26.9999885,12.1015421 26.8632176,12.2379231 26.6945096,12.2379231 L24.5466536,12.2379231 L24.5466536,17.1346154 L26.6945096,17.1346154 C26.8632176,17.1346154 26.9999885,17.2709963 26.9999885,17.4392308 L26.9999885,24.1712308 C27.0004909,24.2523491 26.9685319,24.3303193 26.9111894,24.3878581 C26.8538469,24.445397 26.775858,24.4777516 26.6945096,24.47775 L24.5466536,24.47775 L24.5466536,31.8208846 L26.6945096,31.8208846 C26.775858,31.820883 26.8538469,31.8532376 26.9111894,31.9107765 C26.9685319,31.9683153 27.0004909,32.0462855 26.9999885,32.1274038 L26.9999885,33.9627115 C27.0004909,34.0438299 26.9685319,34.1218 26.9111894,34.1793389 C26.8538469,34.2368778 26.775858,34.2692308 26.6945096,34.2692308 L0.305472854,34.2692308 C0.136764855,34.2692308 0,34.1328498 0,33.9646154 L0,32.1274038 C0,31.9591694 0.136764855,31.8227885 0.305472854,31.8227885 L2.45332891,31.8227885 L2.45332891,24.47775 L0.307382063,24.47775 C0.138674064,24.47775 0.00190920911,24.341369 0.00190920911,24.1731346 L0.00190920911,17.4392308 C0.00189614387,17.2724722 0.136348715,17.1366999 0.303563645,17.1346154 L2.4514197,17.1346154 L2.4514197,12.2398269 L0.307382063,12.2398269 C0.226033746,12.2398285 0.148044789,12.207474 0.090702317,12.1499351 C0.033359845,12.0923962 0.00140078111,12.0144261 0.00190920911,11.9333077 L0.00190920911,10.098 C0.00140078111,10.0168816 0.033359845,9.93891151 0.090702317,9.88137262 C0.148044789,9.82383373 0.226033746,9.7914792 0.307382063,9.79148078 L2.71298084,9.79148078 C3.65902637,5.8452161 6.99806692,2.92298252 11.0447531,2.49975 L11.0447531,0.304615377 C11.0447531,0.13638095 11.181518,0 11.350226,0 L15.6459381,0 L15.6478473,0 Z M13.4999912,28.2264231 C17.5669085,28.2264231 20.8637964,24.9387897 20.8637964,20.8832885 C20.8637964,16.8277872 17.5669085,13.5401539 13.4999912,13.5401539 C9.43307395,13.5401539 6.13618608,16.8277872 6.13618608,20.8832885 C6.13618608,24.9387897 9.43307395,28.2264231 13.4999912,28.2264231 Z" id="形状"></path>
                            <path d="M8.58951501,20.8832885 C8.58951501,21.0432115 8.59778823,21.2031346 8.61433466,21.3630577 C8.62960831,21.5229808 8.65315518,21.6816346 8.68497526,21.8390192 C8.71552254,21.9951346 8.75434305,22.1499807 8.80143678,22.3035577 C8.84853052,22.4571346 8.90262468,22.6081731 8.96371926,22.7566731 C9.02608664,22.9051731 9.09481804,23.0498654 9.16991344,23.19075 C9.24628165,23.3316346 9.32901388,23.4687116 9.41811015,23.6019808 C9.50720642,23.73525 9.60266669,23.8640769 9.70449095,23.9884615 C9.80631523,24.1128462 9.91450354,24.2315192 10.0290559,24.3444808 C10.1423354,24.4587115 10.2613425,24.5665961 10.3860773,24.6681346 C10.5095392,24.7696731 10.6380924,24.8648654 10.7717368,24.9537115 C10.9053811,25.0425577 11.0434803,25.1250577 11.1860343,25.2012115 C11.3273155,25.2773654 11.4724151,25.3452692 11.6213331,25.4049231 C11.7702512,25.4671154 11.9210784,25.5210577 12.0738148,25.56675 C12.2278241,25.6137115 12.3837425,25.6530577 12.5415701,25.6847885 C12.6993978,25.71525 12.8584982,25.7387308 13.0188715,25.7552308 C13.1792447,25.7704615 13.339618,25.7780769 13.4999912,25.7780769 C13.6603645,25.7780769 13.8207377,25.7704615 13.981111,25.7552308 C14.1414843,25.7387308 14.3005847,25.71525 14.4584123,25.6847885 C14.6149672,25.6530577 14.7702492,25.6137115 14.9242585,25.56675 C15.0782677,25.5210577 15.2297313,25.4671154 15.3786494,25.4049231 C15.5275674,25.344 15.672667,25.2760961 15.8139482,25.2012115 C15.9552294,25.1250577 16.0926921,25.0425577 16.2263365,24.9537115 C16.3612537,24.8648654 16.4904433,24.7696731 16.6139052,24.6681346 C16.73864,24.5665961 16.8576471,24.4587115 16.9709266,24.3444808 C17.085479,24.23025 17.1936673,24.1115769 17.2954915,23.9884615 C17.3973158,23.8640769 17.4927761,23.73525 17.5818723,23.6019808 C17.6709686,23.4687116 17.7537008,23.3316346 17.830069,23.19075 C17.9064373,23.0498654 17.9751687,22.9051731 18.0362632,22.7566731 C18.0973578,22.6081731 18.151452,22.4571346 18.1985457,22.3035577 C18.2443666,22.15125 18.2825507,21.9957692 18.313098,21.8371154 C18.3461909,21.681 18.3703742,21.5223462 18.3856478,21.3611538 C18.4009215,21.2025 18.4085583,21.0432115 18.4085583,20.8832885 C18.4085583,20.7220961 18.4009215,20.5621731 18.3856478,20.4035192 C18.3703742,20.2435961 18.3468273,20.0849423 18.3150072,19.9275577 C18.2831871,19.7701731 18.2443666,19.6146923 18.1985457,19.4611154 C18.151452,19.3088077 18.0973578,19.1584038 18.0362632,19.0099039 C17.9738958,18.8614039 17.9051645,18.7167115 17.830069,18.5758269 C17.7537008,18.4336731 17.6709686,18.2959615 17.5818723,18.1626923 C17.4927761,18.0294231 17.3973158,17.9005962 17.2954915,17.7762116 C17.1936673,17.6530962 17.085479,17.5344231 16.9709266,17.4201923 C16.8563743,17.3072308 16.7373672,17.1999808 16.6139052,17.0984423 C16.4904433,16.9969038 16.3612537,16.9017115 16.2263365,16.8128654 C16.0926921,16.7240192 15.9552294,16.6415192 15.8139482,16.5653654 C15.6726669,16.4892115 15.5275673,16.4206731 15.3786494,16.35975 C15.2297313,16.2988269 15.0782677,16.2448846 14.9242585,16.1979231 C14.771522,16.1509615 14.61624,16.11225 14.4584123,16.0817884 C14.3005847,16.0500577 14.1414843,16.0265769 13.981111,16.0113462 C13.8207377,15.9948462 13.6603645,15.9865962 13.4999912,15.9865962 C13.339618,15.9865962 13.1792447,15.9948462 13.0188715,16.0113462 C12.8584982,16.0265769 12.6993978,16.0500577 12.5415701,16.0817884 C12.3837425,16.11225 12.2278241,16.1509615 12.0738148,16.1979231 C11.9210784,16.2448846 11.7702512,16.2988269 11.6213331,16.35975 C11.4724151,16.4206731 11.3273155,16.4892115 11.1860343,16.5653654 C11.0434803,16.6415192 10.9053811,16.7240192 10.7717368,16.8128654 C10.6380924,16.9017116 10.5095392,16.9969039 10.3860773,17.0984423 C10.2613425,17.1999808 10.1423354,17.3078654 10.0290559,17.4220961 C9.91450354,17.5350577 9.80631523,17.6530962 9.70449095,17.7762116 C9.60266666,17.9005962 9.5072064,18.0294231 9.41811015,18.1626923 C9.32901391,18.2959615 9.24628167,18.4336731 9.16991344,18.5758269 C9.09354523,18.7167115 9.02481384,18.8614039 8.96371926,19.0099039 C8.90262468,19.1571346 8.84853052,19.3075385 8.80143678,19.4611154 C8.75434305,19.6146923 8.71552254,19.7701731 8.68497526,19.9275577 C8.65315518,20.0849423 8.62960831,20.2435961 8.61433466,20.4035192 C8.5977882,20.5621731 8.58951501,20.7220961 8.58951501,20.8832885 Z" id="路径"></path>
                        </g>
                    </g>
                </g>
            </g>
        </g>
    </g>
</svg>