<?xml version="1.0" encoding="UTF-8"?>
<svg width="32px" height="34px" viewBox="0 0 32 34" version="1.1" xmlns="http://www.w3.org/2000/svg" xmlns:xlink="http://www.w3.org/1999/xlink">
    <title>消控室</title>
    <g id="页面-1" stroke="none" stroke-width="1" fill="none" fill-rule="evenodd">
        <g id="项目信息-设备管理" transform="translate(-123.000000, -991.000000)" fill="#226EDA" fill-rule="nonzero">
            <g id="编组-11" transform="translate(80.000000, 952.000000)">
                <g id="编组-12" transform="translate(24.000000, 21.000000)">
                    <g id="编组" transform="translate(19.000000, 18.000000)">
                        <path d="M0,3.32929287 C0,2.93587567 0.331669147,2.55361334 0.752850954,2.47516976 C0.752850954,2.47516976 13.8950113,9.5123669e-16 15.9859504,9.5123669e-16 C18.0759692,9.5123669e-16 31.2658001,2.47852821 31.2658001,2.47852821 C31.6858775,2.56962587 31.9882204,2.92112251 32,3.32929287 L32,16.2508881 C32,20.9975024 28.6359446,27.0330376 24.4316117,29.6708518 C24.4316117,29.6708518 18.2015568,34 16.0792055,34 C13.9566701,34 7.58452393,29.6308504 7.58452393,29.6308504 C3.39540626,26.9885383 0,20.9986418 0,16.2508881 L0,3.32929287 L0,3.32929287 Z M14.868975,9.22593266 L11.4723417,17.5215177 C11.3512328,17.8160408 11.5211166,18.0663645 11.863277,18.0663645 L15.1237701,18.0663645 C15.4577092,18.0663645 15.6810307,18.325684 15.6125618,18.6453354 L14.5536255,23.4874253 C14.276621,24.7567954 14.6967599,24.929755 15.4904099,23.8798829 L21.9926838,15.2681248 C22.1927528,15.0066463 22.0741593,14.7893073 21.7319989,14.781271 L17.6650945,14.6833965 C17.3172284,14.6756001 17.1565474,14.4298344 17.292749,14.1375302 L19.5746769,9.21111954 C19.7106944,8.92115427 19.5455347,8.68000636 19.2023927,8.68000636 L15.7114613,8.68000636 C15.3751294,8.68000636 14.992354,8.92337328 14.868975,9.22593266 L14.868975,9.22593266 Z" id="形状"></path>
                    </g>
                </g>
            </g>
        </g>
    </g>
</svg>