<?xml version="1.0" encoding="UTF-8"?>
<svg width="20px" height="20px" viewBox="0 0 20 20" version="1.1" xmlns="http://www.w3.org/2000/svg" xmlns:xlink="http://www.w3.org/1999/xlink">
    <title>消火栓系统</title>
    <defs>
        <linearGradient x1="12.4609987%" y1="1.95533949%" x2="100%" y2="99.7080298%" id="linearGradient-1">
            <stop stop-color="#AAFFFF" offset="0%"></stop>
            <stop stop-color="#60CAFF" offset="100%"></stop>
        </linearGradient>
        <linearGradient x1="12.4609987%" y1="44.8716559%" x2="100%" y2="55.3058941%" id="linearGradient-2">
            <stop stop-color="#AAFFFF" offset="0%"></stop>
            <stop stop-color="#60CAFF" offset="100%"></stop>
        </linearGradient>
    </defs>
    <g id="大屏" stroke="none" stroke-width="1" fill="none" fill-rule="evenodd">
        <g id="消防安全" transform="translate(-957.000000, -648.000000)">
            <g id="编组-5备份" transform="translate(940.000000, 635.000000)">
                <g id="消火栓系统" transform="translate(16.000000, 12.000000)">
                    <rect id="矩形" x="0" y="0" width="22" height="22"></rect>
                    <path d="M2.44850334,1.04871508 C1.67869523,1.05870827 1.05717613,1.70858836 1.04761905,2.51352414 L1.04761905,19.4293708 C1.05717613,20.2343066 1.67869523,20.8841867 2.44850334,20.8941799 L19.550452,20.8941799 C20.3202601,20.8841867 20.9417792,20.2343066 20.9513363,19.4293708 L20.9513363,2.51352414 C20.9661212,2.12055434 20.8234281,1.73895535 20.5576459,1.46069265 C20.29152,1.18255682 19.9264285,1.0332216 19.550452,1.04871508 L2.44850334,1.04871508 Z M18.1495677,17.4155807 L3.90765505,17.4155807 C3.13784694,17.4055875 2.51632784,16.7557074 2.50677075,15.9507716 L2.50677075,7.94530952 C2.51632784,7.14037374 3.13784694,6.49049365 3.90765505,6.48050046 L18.1495677,6.48050046 C18.9193758,6.49049365 19.5408949,7.14037374 19.550452,7.94530952 L19.550452,15.9507716 C19.5408949,16.7557074 18.9193758,17.4055875 18.1495677,17.4155807 Z" id="形状" fill="url(#linearGradient-1)"></path>
                    <path d="M8.57875268,12.0892637 C8.57875268,13.5182907 9.68645014,14.6765343 11.0531139,14.6765343 C11.7144018,14.6945385 12.3537408,14.4277714 12.8215004,13.9386671 C13.2892601,13.4495628 13.5443853,12.7810497 13.5271668,12.0895861 C13.4991122,10.6728088 12.4077542,9.53132798 11.0531139,9.50199311 C9.68645017,9.50199311 8.57875268,10.6605591 8.57875268,12.0892637 Z M17.0787045,11.2105072 L14.1357376,12.0283374 L17.0787045,12.8461677 L17.0787045,12.378744 L18.9944384,12.378744 L18.9944384,11.6779309 L17.0787045,11.6779309 L17.0787045,11.2105072 Z M5.02289894,11.6779309 L3.107165,11.6779309 L3.107165,12.378744 L5.02289894,12.378744 L5.02289894,12.8461677 L7.96555751,12.0283374 L5.02289894,11.2105072 L5.02289894,11.6779309 Z" id="形状" fill="url(#linearGradient-2)"></path>
                </g>
            </g>
        </g>
    </g>
</svg>