<?xml version="1.0" encoding="UTF-8"?>
<svg width="21px" height="18px" viewBox="0 0 21 18" version="1.1" xmlns="http://www.w3.org/2000/svg" xmlns:xlink="http://www.w3.org/1999/xlink">
    <title>消防水系统</title>
    <defs>
        <linearGradient x1="12.4609987%" y1="14.4945514%" x2="100%" y2="86.7346939%" id="linearGradient-1">
            <stop stop-color="#AAFFFF" offset="0%"></stop>
            <stop stop-color="#60CAFF" offset="100%"></stop>
        </linearGradient>
        <linearGradient x1="24.1564796%" y1="1.67313945%" x2="84.4222269%" y2="100%" id="linearGradient-2">
            <stop stop-color="#AAFFFF" offset="0%"></stop>
            <stop stop-color="#60CAFF" offset="100%"></stop>
        </linearGradient>
    </defs>
    <g id="大屏" stroke="none" stroke-width="1" fill="none" fill-rule="evenodd">
        <g id="消防安全" transform="translate(-1756.000000, -649.000000)">
            <g id="编组-3备份-2" transform="translate(1740.000000, 635.000000)">
                <g id="消防水系统" transform="translate(16.000000, 14.000000)">
                    <path d="M18.6731372,0 L18.6731372,1.13262815 L2.32686279,1.13262815 L2.32686279,0 L0,0 L0,4.48169243 L2.32686279,4.48169243 L2.32686279,3.34906428 L18.6731372,3.34906428 L18.6731372,4.48169243 L21,4.48169243 L21,0 L18.6731372,0 Z M18.6731372,13.5183076 L18.6731372,14.6509357 L2.32686279,14.6509357 L2.32686279,13.5183076 L0,13.5183076 L0,18 L2.32686279,18 L2.32686279,16.8673718 L18.6731372,16.8673718 L18.6731372,18 L21,18 L21,13.5183076 L18.6731372,13.5183076 Z M2.0432843,5.85109845 L8.82891247,5.85109845 L8.82891247,6.97396257 L2.0432843,6.97396257 L2.0432843,5.85109845 Z M4.42331806,8.95117982 L9.94297082,8.95117982 L9.94297082,10.0740439 L4.42331806,10.0740439 L4.42331806,8.95117982 Z M2.0432843,11.8315704 L8.82891247,11.8315704 L8.82891247,12.9544345 L2.0432843,12.9544345 L2.0432843,11.8315704 Z" id="形状" fill="url(#linearGradient-1)"></path>
                    <path d="M18.2275139,7.13506916 C17.4350133,6.15622457 16.4121051,4.98209927 15.7411382,4.25956062 C15.6373282,4.16192026 15.5006028,4.10089504 15.3562816,4.09357201 L15.2955148,4.0642188 C15.1208102,4.06183889 14.9537015,4.13262815 14.8397637,4.25956062 C14.1586689,5.00406835 13.1560164,6.2172498 12.404027,7.13506916 C10.9329636,8.90480065 10.8013021,11.1651749 12.404027,12.6932465 C14.0219436,14.2213181 16.6121293,14.2213181 18.2300458,12.6932465 C19.7390885,11.1261188 19.7390885,8.70219691 18.2275139,7.13506916 L18.2275139,7.13506916 Z" id="形状" fill="url(#linearGradient-2)"></path>
                </g>
            </g>
        </g>
    </g>
</svg>