<?xml version="1.0" encoding="UTF-8"?>
<svg width="16px" height="16px" viewBox="0 0 16 16" version="1.1" xmlns="http://www.w3.org/2000/svg" xmlns:xlink="http://www.w3.org/1999/xlink">
    <title>添加</title>
    <g id="页面-1" stroke="none" stroke-width="1" fill="none" fill-rule="evenodd">
        <g id="项目信息" transform="translate(-1184.000000, -492.000000)" fill="#007AFF" fill-rule="nonzero">
            <g id="编组-11" transform="translate(97.000000, 345.000000)">
                <g id="添加" transform="translate(1087.000000, 147.000000)">
                    <rect id="矩形" opacity="0" x="0" y="0" width="16" height="16"></rect>
                    <path d="M8,16 C3.6,16 0,12.4 0,8 C0,3.6 3.6,0 8,0 C12.4,0 16,3.6 16,8 C16,12.4 12.4,16 8,16 Z M8,1 C4.15,1 1,4.15 1,8 C1,11.85 4.15,15 8,15 C11.85,15 15,11.85 15,8 C15,4.15 11.85,1 8,1 Z M8,4 C8.3,4 8.5,4.2 8.5,4.5 L8.5,7.5 L11.5,7.5 C11.8,7.5 12,7.7 12,8 C12,8.3 11.8,8.5 11.5,8.5 L8.5,8.5 L8.5,11.5 C8.5,11.8 8.3,12 8,12 C7.7,12 7.5,11.8 7.5,11.5 L7.5,8.5 L4.5,8.5 C4.2,8.5 4,8.3 4,8 C4,7.7 4.2,7.5 4.5,7.5 L7.5,7.5 L7.5,4.5 C7.5,4.2 7.7,4 8,4 Z" id="形状"></path>
                </g>
            </g>
        </g>
    </g>
</svg>