<?xml version="1.0" encoding="UTF-8"?>
<svg width="18px" height="19px" viewBox="0 0 18 19" version="1.1" xmlns="http://www.w3.org/2000/svg" xmlns:xlink="http://www.w3.org/1999/xlink">
    <title>点赞备份 2</title>
    <g id="大屏" stroke="none" stroke-width="1" fill="none" fill-rule="evenodd">
        <g id="消防安全" transform="translate(-365.000000, -543.000000)" fill-rule="nonzero">
            <g id="编组-30" transform="translate(32.000000, 528.928203)">
                <g id="点赞备份-2" transform="translate(333.000000, 15.000000)">
                    <rect id="矩形" fill="#C4A166" opacity="0" x="1" y="1" width="16" height="16"></rect>
                    <path d="M1.6746988,6.36464088 L0.710843379,6.16574586 C0.421686757,6.06629834 0.132530134,6.16574586 0.0361445823,6.36464088 C-0.0602409692,6.56353589 0.0361445823,6.76243094 0.325301205,6.86187846 L1.28915662,7.06077347 C1.57831325,7.06077347 1.77108435,6.96132595 1.96385542,6.86187846 C2.06024097,6.66298345 1.86746987,6.36464088 1.6746988,6.36464088 L1.6746988,6.36464088 Z M5.24096386,2.78453039 L4.66265061,1.98895027 C4.37349399,1.69060773 4.08433737,1.59116021 3.89156626,1.79005526 C3.69879519,1.98895027 3.60240964,2.28729284 3.79518071,2.48618786 L4.37349399,3.38121547 C4.56626506,3.58011048 4.85542171,3.67955801 5.04819278,3.48066299 C5.33734941,3.28176798 5.33734941,2.98342541 5.24096386,2.78453039 Z M9.28915664,0 C9.28915664,0 9.19277109,0 9.28915664,0 C9.00000002,0 8.71084339,0.298342537 8.80722891,0.497237584 L8.80722891,1.69060773 C8.80722891,1.98895027 9.09638554,2.18784532 9.28915664,2.18784532 L9.38554216,2.18784532 C9.67469878,2.18784532 9.86746988,1.88950278 9.77108433,1.69060773 L9.77108433,0.596685075 L9.77108433,0.497237584 C9.77108433,0.198895047 9.57831326,0 9.28915664,0 Z M9.19277109,4.07734807 C6.30120483,4.07734807 3.89156626,6.56353592 3.89156626,9.54696133 L3.89156626,15.0165746 L14.4939759,15.0165746 L14.4939759,9.54696133 C14.4939759,6.56353592 12.0843373,4.07734807 9.19277109,4.07734807 L9.19277109,4.07734807 Z M14.5903615,1.88950278 C14.3975904,1.69060777 14.0120482,1.79005526 13.9156627,1.98895027 L13.3373494,2.78453039 C13.1445783,2.98342541 13.2409638,3.38121547 13.4337349,3.48066299 C13.626506,3.67955801 14.0120482,3.58011052 14.1084337,3.38121547 L14.7831325,2.58563538 C14.8795181,2.38674037 14.8795181,2.08839779 14.5903615,1.88950278 L14.5903615,1.88950278 Z M15.4578313,16.0110497 L2.92771084,16.0110497 L2.92771084,17.0055249 C2.92771084,17.5027624 3.40963857,18 3.98795181,18 L14.3975904,18 C14.9759036,18 15.4578313,17.6022099 15.4578313,17.0055249 L15.4578313,16.0110497 Z M17.9638554,6.66298341 C17.8674699,6.36464088 17.5783132,6.26519335 17.2891566,6.36464088 L16.3253012,6.66298341 C16.0361446,6.76243094 15.939759,7.06077347 16.0361446,7.35911601 C16.1325301,7.65745855 16.4216868,7.75690607 16.7108434,7.65745858 L17.6746988,7.35911601 C17.9638554,7.160221 18.060241,6.86187843 17.9638554,6.66298341 Z" id="形状" fill="#FD6667"></path>
                </g>
            </g>
        </g>
    </g>
</svg>