<?xml version="1.0" encoding="UTF-8"?>
<svg width="16px" height="18px" viewBox="0 0 16 18" version="1.1" xmlns="http://www.w3.org/2000/svg" xmlns:xlink="http://www.w3.org/1999/xlink">
    <title>燃气设施</title>
    <defs>
        <linearGradient x1="20.3395577%" y1="1.67313945%" x2="89.5061686%" y2="100%" id="linearGradient-1">
            <stop stop-color="#AAFFFF" offset="0%"></stop>
            <stop stop-color="#60CAFF" offset="100%"></stop>
        </linearGradient>
    </defs>
    <g id="大屏" stroke="none" stroke-width="1" fill="none" fill-rule="evenodd">
        <g id="消防安全" transform="translate(-1439.000000, -649.000000)" fill="url(#linearGradient-1)">
            <g id="编组-5备份-2" transform="translate(1420.000000, 635.000000)">
                <g id="燃气设施" transform="translate(19.000000, 14.000000)">
                    <path d="M0.614928979,-1.77635684e-15 L15.3839941,0.00112486135 C15.7243051,0.00112486135 16,0.289088812 16,0.643419424 L16,17.3577015 C16,17.5282437 15.9350655,17.6917845 15.8195109,17.8122705 C15.7039563,17.9327565 15.5472699,18.0002948 15.3839941,18 L0.614928979,18 C0.275313079,18 0,17.712431 0,17.3577015 L0,0.642294583 C0,0.287963951 0.274618032,-1.77635684e-15 0.614928979,-1.77635684e-15 Z M7.49653361,7.71428404 L7.46637949,7.71428404 L7.47714881,7.74690496 C7.67638149,8.79639854 7.11099145,9.34420495 6.44329272,9.95387861 C5.775594,10.5646771 5.04651006,11.2699638 4.93558592,12.6377925 C4.79235378,14.438692 5.92313388,15.7064083 6.60483273,16.2902102 C6.64180255,16.3197979 6.68752826,16.3349221 6.73406475,16.3329548 C6.7997962,16.3337662 6.86189838,16.3015426 6.90098943,16.2463407 C6.9391057,16.1870031 6.94323375,16.1106849 6.91175877,16.0472406 C6.37221513,14.5759248 7.47714883,13.6287934 7.82822911,13.368951 C7.53745709,15.1608516 8.96439389,16.5703001 9.28208925,16.4533148 C10.5894864,15.9752496 11.4338022,15.0101205 11.6438043,13.7086584 C11.8667295,12.3138331 11.3013394,10.7727761 10.3644074,10.2632149 L10.3234839,10.2519663 C10.3805614,10.5410551 10.3633304,10.836893 10.2717911,11.140605 C10.1339436,11.5939232 10.0499428,11.5939232 9.90455678,12.0877364 C9.87440264,12.042742 9.68055462,11.7334058 9.84532543,11.1394802 C9.97240358,10.4510664 9.64609276,9.76040283 9.1937807,9.05174157 C8.75439186,8.36332777 8.10715487,7.8447677 7.49653361,7.71428404 Z M1.22878104,1.35770499 L1.22878104,6.42857003 L14.7679882,6.42857003 L14.7679882,1.36332928 L1.22878104,1.35770499 Z M5.0766642,2.57255287 L5.0766642,5.14173117 L3.84572928,5.14173117 L3.84572928,2.57255287 L5.0766642,2.57255287 Z M8.76731506,2.57255287 L8.76731506,5.14173117 L7.53961096,5.14173117 L7.53961096,2.57255287 L8.76731506,2.57255287 Z M12.4611967,2.57255287 L12.4611967,5.14173117 L11.2302618,5.14173117 L11.2302618,2.57255287 L12.4611967,2.57255287 Z" id="形状结合"></path>
                </g>
            </g>
        </g>
    </g>
</svg>