<?xml version="1.0" encoding="UTF-8"?>
<svg width="16px" height="19px" viewBox="0 0 16 19" version="1.1" xmlns="http://www.w3.org/2000/svg" xmlns:xlink="http://www.w3.org/1999/xlink">
    <title>电气火灾设施</title>
    <defs>
        <linearGradient x1="23.3795448%" y1="1.67313945%" x2="85.4570637%" y2="100%" id="linearGradient-1">
            <stop stop-color="#AAFFFF" offset="0%"></stop>
            <stop stop-color="#60CAFF" offset="100%"></stop>
        </linearGradient>
    </defs>
    <g id="大屏" stroke="none" stroke-width="1" fill="none" fill-rule="evenodd">
        <g id="消防安全" transform="translate(-1599.000000, -648.000000)" fill="url(#linearGradient-1)">
            <g id="编组-3备份" transform="translate(1580.000000, 635.000000)">
                <g id="电气火灾设施" transform="translate(19.000000, 13.000000)">
                    <path d="M15.0753333,0 C15.5866667,0 16,0.388835323 16,0.869281051 L16,18.1313975 C16,18.6111647 15.586,19 15.0753333,19 L0.924666661,19 C0.413333337,19 0,18.6111647 0,18.1313975 L0,0.868602443 C0,0.388835323 0.413333337,0 0.924666661,0 L15.0753333,0 Z M1.54733333,15.3464409 C1.12399999,15.3464409 0.778666671,15.6680953 0.773333333,16.0684667 C0.768666674,16.4722311 1.11133334,16.8033858 1.53800001,16.808136 C1.966,16.8128862 2.31666666,16.4898746 2.322,16.0861102 L2.322,16.0684667 C2.31933332,15.6674167 1.97266666,15.3437266 1.54733333,15.3464409 Z M3.86733333,15.34711 C3.43933333,15.3477981 3.09466665,15.676917 3.09599614,16.0800029 C3.09800001,16.4837673 3.44600001,16.8094932 3.87333334,16.8081402 C4.30066666,16.8027072 4.64466666,16.4735883 4.64466666,16.0698239 C4.64066666,15.6680953 4.29266666,15.3450838 3.86733333,15.34711 Z M15.2266667,13.8847459 L0.773333333,13.8847459 L0.773333333,14.6142362 L15.2266667,14.6142362 L15.2266667,13.8847459 Z M8.98333334,2.191864 C5.59466665,6.09378907 3.97999999,8.04407301 4.13999999,8.04407301 L7.54866668,8.04407301 L6.87533333,12.4230508 L11.8706667,6.42969391 L8.55733333,6.42969391 L8.984,2.19661416 Z" id="形状结合"></path>
                </g>
            </g>
        </g>
    </g>
</svg>