<?xml version="1.0" encoding="UTF-8"?>
<svg width="220px" height="46px" viewBox="0 0 220 46" version="1.1" xmlns="http://www.w3.org/2000/svg" xmlns:xlink="http://www.w3.org/1999/xlink">
    <title>编组</title>
    <defs>
        <linearGradient x1="51.8188546%" y1="0%" x2="51.8188546%" y2="100%" id="linearGradient-1">
            <stop stop-color="#0486FF" stop-opacity="0.596839318" offset="0%"></stop>
            <stop stop-color="#0486FF" stop-opacity="0.229867788" offset="11.6903732%"></stop>
            <stop stop-color="#0486FF" stop-opacity="0" offset="44.3402898%"></stop>
            <stop stop-color="#0486FF" stop-opacity="0" offset="74.2250496%"></stop>
            <stop stop-color="#0486FF" stop-opacity="0.600589352" offset="100%"></stop>
        </linearGradient>
        <polygon id="path-2" points="0 1.6211751e-14 220 1.6211751e-14 220 37.8852374 210.190811 46 0 46"></polygon>
        <filter x="-5.5%" y="-26.1%" width="110.9%" height="152.2%" filterUnits="objectBoundingBox" id="filter-3">
            <feGaussianBlur stdDeviation="12" in="SourceAlpha" result="shadowBlurInner1"></feGaussianBlur>
            <feOffset dx="0" dy="0" in="shadowBlurInner1" result="shadowOffsetInner1"></feOffset>
            <feComposite in="shadowOffsetInner1" in2="SourceAlpha" operator="arithmetic" k2="-1" k3="1" result="shadowInnerInner1"></feComposite>
            <feColorMatrix values="0 0 0 0 1   0 0 0 0 1   0 0 0 0 1  0 0 0 0.3 0" type="matrix" in="shadowInnerInner1"></feColorMatrix>
        </filter>
    </defs>
    <g id="大屏" stroke="none" stroke-width="1" fill="none" fill-rule="evenodd">
        <g id="主屏5" transform="translate(-1025.000000, -85.000000)">
            <g id="编组-13备份" transform="translate(1025.000000, 51.000000)">
                <g id="编组" transform="translate(0.000000, 34.000000)">
                    <g id="矩形" opacity="0.5">
                        <use fill="black" fill-opacity="1" filter="url(#filter-3)" xlink:href="#path-2"></use>
                        <path stroke="url(#linearGradient-1)" stroke-width="1" d="M219.5,0.5 L219.5,37.6499533 L210.010802,45.5 L0.5,45.5 L0.5,0.5 L219.5,0.5 Z" stroke-linejoin="square"></path>
                    </g>
                    <g id="编组-12" transform="translate(12.000000, 15.000000)">
                        <text id="A栋-1F-消防泵室" font-family="SourceHanSansCN-Regular, Source Han Sans CN" font-size="14" font-weight="normal" fill="#FFFFFF">
                            <tspan x="13" y="12">A栋 1F 消防泵室</tspan>
                        </text>
                        <path d="M4.49970905,2 C3.34830492,2 2.1969008,2.44471429 1.318606,3.33492857 C-0.439535335,5.11378571 -0.439535335,7.99814286 1.318606,9.777 L4.49970905,13 L7.68081209,9.777 C9.4397293,7.99657143 9.4397293,5.11221429 7.68081209,3.33492857 C6.80329317,2.44471429 5.65111317,2 4.49970905,2 L4.49970905,2 Z M4.49970905,8.28571429 C4.07142395,8.28571429 3.68348456,8.10892857 3.40261644,7.82528571 C3.12174831,7.54164286 2.94795146,7.14878571 2.94795146,6.71428571 C2.94795146,5.84607143 3.64236298,5.14285714 4.49970905,5.14285714 C5.35705511,5.14285714 6.05146663,5.84607143 6.05146663,6.71428571 C6.05146663,7.14878571 5.8768939,7.54164286 5.59680166,7.82528571 C5.31670941,8.10892857 4.92799414,8.28571429 4.49970905,8.28571429 L4.49970905,8.28571429 Z" id="位置" fill="#48FFF8" fill-rule="nonzero"></path>
                    </g>
                    <polyline id="路径" stroke="#02FEFE" stroke-width="2" points="1 8 1 1 7.58441558 1"></polyline>
                    <polyline id="路径" stroke="#02FEFE" stroke-width="2" transform="translate(4.292208, 41.500000) scale(1, -1) translate(-4.292208, -41.500000) " points="1 45 1 38 7.58441558 38"></polyline>
                </g>
            </g>
        </g>
    </g>
</svg>