<?xml version="1.0" encoding="UTF-8"?>
<svg width="19px" height="18px" viewBox="0 0 19 18" version="1.1" xmlns="http://www.w3.org/2000/svg" xmlns:xlink="http://www.w3.org/1999/xlink">
    <title>防火门</title>
    <defs>
        <linearGradient x1="12.4609987%" y1="3.51060619%" x2="100%" y2="98.0989177%" id="linearGradient-1">
            <stop stop-color="#AAFFFF" offset="0%"></stop>
            <stop stop-color="#60CAFF" offset="100%"></stop>
        </linearGradient>
        <linearGradient x1="24.2855202%" y1="1.67313945%" x2="84.2503516%" y2="100%" id="linearGradient-2">
            <stop stop-color="#AAFFFF" offset="0%"></stop>
            <stop stop-color="#60CAFF" offset="100%"></stop>
        </linearGradient>
    </defs>
    <g id="大屏" stroke="none" stroke-width="1" fill="none" fill-rule="evenodd">
        <g id="消防安全" transform="translate(-1277.000000, -649.000000)">
            <g id="编组-4备份-2" transform="translate(1260.000000, 635.000000)">
                <g id="防火门" transform="translate(16.000000, 12.000000)">
                    <rect id="矩形" x="0" y="0" width="21" height="21"></rect>
                    <path d="M15.4227273,10.1741177 C12.875,10.1741177 10.8454546,12.2070588 10.8454546,14.6635294 C10.8454546,17.1623529 12.9181818,19.1529412 15.4227273,19.1529412 C17.9272727,19.1529412 20,17.1623529 20,14.6635294 C20,12.1647059 17.9272727,10.1741177 15.4227273,10.1741177 L15.4227273,10.1741177 Z M16.4590909,17.84 C15.7681818,18.0094118 14.9909091,18.0094118 14.3,17.7976471 C13.35,17.3741177 12.6590909,16.4423529 12.6590909,15.3411765 C12.6590909,15.1717647 12.6590909,15.0447059 12.7022727,14.8752941 L17.6681818,16.8235294 C17.4090909,17.2470588 16.9772727,17.6282353 16.4590909,17.84 L16.4590909,17.84 Z M18.1431818,15.3411765 L13.3931818,13.52 C13.9113636,12.9270588 14.5159091,12.4611765 14.4295455,11.36 C17.0204545,11.9952941 17.0636364,13.9435294 17.15,14.24 C17.3227273,14.0705883 17.5386364,13.4352941 17.5386364,13.1811765 C17.9704545,13.9435294 18.1431818,14.7058823 18.1431818,15.0447059 C18.1863636,15.1717647 18.1431818,15.2564706 18.1431818,15.3411765 L18.1431818,15.3411765 Z" id="形状" fill="url(#linearGradient-1)"></path>
                    <path d="M14.5159091,2 C15.2931818,2 15.8977273,2.59294118 15.8977273,3.35529412 L15.8977273,9.24235294 C15.725,9.2 15.5090909,9.2 15.3363636,9.2 C12.2704546,9.2 9.80909092,11.6141177 9.80909092,14.6211765 C9.80909092,17.3317647 11.8386364,19.5764706 14.5159091,20 L1.47499999,20 C1.2159091,20 1,19.7882353 1,19.5341176 L1,19.0682353 C1,18.8141177 1.21590908,18.6023529 1.47499999,18.6023529 L2.12272726,18.6023529 L2.12272726,3.35529412 C2.12272726,2.59294118 2.72727272,2 3.50454545,2 Z M4.67045454,10.8094118 C4.23863637,10.8094118 3.89318181,11.1482353 3.89318181,11.5717647 C3.89318181,11.9952941 4.23863637,12.3341177 4.67045454,12.3341177 C4.92954545,12.3341177 5.14545455,12.2070588 5.275,12.0376471 L8.03863636,12.0376471 C8.29772727,12.0376471 8.51363637,11.8258824 8.51363637,11.5717647 C8.51363637,11.3176471 8.29772727,11.1058824 8.03863636,11.1058824 L5.275,11.1058824 C5.14545455,10.9364706 4.92954545,10.8094118 4.67045454,10.8094118 Z M13.5659091,4.54117647 L4.41136363,4.54117647 C4.15227272,4.54117647 3.93636362,4.75294118 3.93636362,5.00705883 L3.93636362,7.25176472 C3.93636362,7.50588234 4.15227272,7.71764706 4.41136363,7.71764706 L13.5659091,7.71764706 C13.825,7.71764706 14.0409091,7.50588236 14.0409091,7.25176472 L14.0409091,5.00705883 C14.0409091,4.75294118 13.825,4.54117647 13.5659091,4.54117647 Z" id="形状结合" fill="url(#linearGradient-2)"></path>
                </g>
            </g>
        </g>
    </g>
</svg>