<?xml version="1.0" encoding="UTF-8"?>
<svg width="34px" height="34px" viewBox="0 0 34 34" version="1.1" xmlns="http://www.w3.org/2000/svg" xmlns:xlink="http://www.w3.org/1999/xlink">
    <title>高位水箱间</title>
    <g id="页面-1" stroke="none" stroke-width="1" fill="none" fill-rule="evenodd">
        <g id="项目信息-设备管理" transform="translate(-122.000000, -868.000000)" fill="#226EDA">
            <g id="编组-7" transform="translate(80.000000, 829.000000)">
                <g id="编组-12备份" transform="translate(24.000000, 21.000000)">
                    <g id="高位水箱间" transform="translate(18.000000, 18.000000)">
                        <path d="M29.750425,29.75 C30.9240692,29.75 31.8754958,30.7013949 31.8754958,31.875 C31.8754958,33.0486051 30.9240692,34 29.750425,34 L4.24957499,34 C3.07593077,34 2.12450415,33.0486051 2.12450415,31.875 C2.12450415,30.7013949 3.07593077,29.75 4.24957499,29.75 L29.750425,29.75 Z M17,6.375 C22.8682211,6.375 27.6253542,11.1319745 27.6253542,17 L27.6253542,25.5 C27.6253542,26.6741333 26.6733224,27.625 25.5002833,27.625 L8.49971666,27.625 C7.32607244,27.625 6.37464582,26.6736051 6.37464582,25.5 L6.37464582,17 C6.37464582,11.1319745 11.1317789,6.375 17,6.375 Z M17,10.625 C13.4790674,10.625 10.6247875,13.4791847 10.6247875,17 C10.6247875,20.5208153 13.4790674,23.375 17,23.375 C19.2776441,23.375 21.382274,22.1599319 22.5210961,20.1875 C23.6599182,18.2150682 23.6599182,15.7849318 22.5210961,13.8125 C21.382274,11.8400681 19.2776441,10.625 17,10.625 Z M17,12.75 C19.3472884,12.75 21.2501417,14.6527898 21.2501417,17 C21.2501417,19.3472102 19.3472884,21.25 17,21.25 C14.6527116,21.25 12.7498583,19.3472102 12.7498583,17 C12.7498583,14.6527898 14.6527116,12.75 17,12.75 Z M32.9374646,14.875 C33.5242867,14.875 34,15.3506975 34,15.9375 C34,16.5243025 33.5242867,17 32.9374646,17 L30.8135271,17 C30.226705,17 29.7509917,16.5243025 29.7509917,15.9375 C29.7509917,15.3506975 30.226705,14.875 30.8135271,14.875 L32.9374646,14.875 Z M3.18647288,14.875 C3.77329499,14.875 4.2490083,15.3506975 4.2490083,15.9375 C4.2490083,16.5243025 3.77329499,17 3.18647288,17 L1.06253542,17 C0.47571331,17 0,16.5243025 0,15.9375 C0,15.3506975 0.47571331,14.875 1.06253542,14.875 L3.18647288,14.875 Z M28.5059835,3.18806667 L28.9457315,3.6278 C29.2274159,3.90942482 29.3856688,4.29142018 29.3856688,4.68973333 C29.3856688,5.08804648 29.2274159,5.47004185 28.9457315,5.75166667 L27.7545585,6.94393333 C27.4887748,7.22521067 27.091133,7.3398461 26.7163978,7.24322278 C26.3416626,7.14659946 26.0490355,6.85398216 25.952409,6.47925944 C25.8557824,6.10453672 25.9704217,5.70690814 26.2517084,5.44113333 L28.5048502,3.18806667 Z M6.24770826,3.93833333 L7.75169172,5.44226667 C8.16637935,5.85725343 8.16612563,6.5298262 7.75112504,6.9445 C7.33612444,7.3591738 6.66352925,7.35892009 6.24884163,6.94393333 L4.74599153,5.44113333 C4.54652786,5.24194171 4.434448,4.97162055 4.434448,4.68973333 C4.434448,4.40784611 4.54652786,4.13752496 4.74599153,3.93833333 C5.1607008,3.5237118 5.83299899,3.5237118 6.24770826,3.93833333 Z M17,0 C17.5870862,0 18.0631021,0.476 18.0631021,1.06306667 L18.0631021,3.18693333 C18.0631021,3.77404884 17.5871351,4.25 17,4.25 C16.4128649,4.25 15.9368979,3.77404884 15.9368979,3.18693333 L15.9368979,1.06306667 C15.9368979,0.476 16.4129138,0 17,0 Z" id="形状结合"></path>
                    </g>
                </g>
            </g>
        </g>
    </g>
</svg>