<?xml version="1.0" encoding="utf-8"?>
<svg version="1.1" xmlns:xlink="http://www.w3.org/1999/xlink" width="12px" height="12px" viewBox="558 1118  12 12" xmlns="http://www.w3.org/2000/svg">
  <path d="M 564 1118  C 567.36 1118  570 1120.64  570 1124  C 570 1127.36  567.36 1130  564 1130  C 560.64 1130  558 1127.36  558 1124  C 558 1120.64  560.64 1118  564 1118  Z " fill-rule="nonzero" fill="#ffffff" stroke="none" />
  <path d="M 564 1118.5  C 567.08 1118.5  569.5 1120.92  569.5 1124  C 569.5 1127.08  567.08 1129.5  564 1129.5  C 560.92 1129.5  558.5 1127.08  558.5 1124  C 558.5 1120.92  560.92 1118.5  564 1118.5  Z " stroke-width="1" stroke="#797979" fill="none" />
  <path d="M 564 1127  C 562.32 1127  561 1125.68  561 1124  C 561 1122.32  562.32 1121  564 1121  C 565.68 1121  567 1122.32  567 1124  C 567 1125.68  565.68 1127  564 1127  " fill-rule="nonzero" fill="#797979" stroke="none" />
</svg>