<?xml version="1.0" encoding="UTF-8"?>
<svg width="32px" height="32px" viewBox="0 0 32 32" version="1.1" xmlns="http://www.w3.org/2000/svg" xmlns:xlink="http://www.w3.org/1999/xlink">
    <title>机构管理/安全巡检</title>
    <defs>
        <polygon id="path-1" points="0 0 25.2066883 0 25.2066883 25.8014933 0 25.8014933"></polygon>
        <polygon id="path-3" points="18.7775506 19.3725333 27.5249283 19.3725333 27.5249283 28.1202844 18.7775506 28.1202844"></polygon>
    </defs>
    <g id="机构管理/安全巡检" stroke="none" stroke-width="1" fill="none" fill-rule="evenodd">
        <g id="编组">
            <rect id="矩形备份" fill="#F6FAFF" opacity="0" x="0" y="0" width="32" height="32"></rect>
            <g transform="translate(2.158538, 2.133440)">
                <mask id="mask-2" fill="white">
                    <use xlink:href="#path-1"></use>
                </mask>
                <g id="Clip-2"></g>
            </g>
            <g transform="translate(2.158538, 2.133333)">
                <mask id="mask-4" fill="white">
                    <use xlink:href="#path-3"></use>
                </mask>
                <g id="Clip-4"></g>
                <path d="M24.582795,28.1203556 C23.8290172,28.1203556 23.075595,27.8334222 22.5013728,27.2595556 L19.1346172,23.8924444 C18.6585283,23.4163556 18.6585283,22.6448 19.1346172,22.1683556 C19.6110617,21.6922667 20.3826172,21.6922667 20.8583506,22.1683556 L24.2254617,25.5354667 C24.4245728,25.7324444 24.7445728,25.7313778 24.941195,25.5354667 C25.1378172,25.3384889 25.1378172,25.0174222 24.9401283,24.8200889 L21.5730172,21.4536889 C21.0965728,20.9779556 21.0965728,20.2056889 21.5730172,19.7296 C22.0491061,19.2535111 22.8206617,19.2535111 23.2971061,19.7296 L26.6649283,23.0967111 C27.811595,24.2448 27.811595,26.1125333 26.6649283,27.2595556 C26.0910617,27.8334222 25.3376394,28.1203556 24.582795,28.1203556" id="Fill-3" fill="#5A6172"></path>
                <path d="M12.305355,25.8016 C8.85966611,25.8016 5.61984389,24.4597333 3.18428834,22.0227556 C2.70784389,21.5463111 2.70784389,20.7744 3.18428834,20.2986667 C3.66037722,19.8225778 4.43157722,19.8225778 4.90802167,20.2986667 C6.884555,22.2752 9.51104389,23.3632 12.305355,23.3632 C15.1007328,23.3632 17.7272217,22.2752 19.703755,20.2986667 C21.6799328,18.3221333 22.7682883,15.6952889 22.7682883,12.9006222 C22.7682883,10.1059556 21.6799328,7.47875556 19.703755,5.50257778 C17.7272217,3.52675556 15.1007328,2.4384 12.305355,2.4384 C9.51104389,2.4384 6.884555,3.52675556 4.90802167,5.50257778 C3.74357722,6.66737778 2.89237722,8.04444444 2.37682167,9.59573333 C2.16384389,10.2357333 1.47193278,10.5795556 0.834777224,10.3690667 C0.196555002,10.1564444 -0.149400553,9.46666667 0.0621550022,8.82773333 C0.697888336,6.91271111 1.74819945,5.21386667 3.18428834,3.77848889 C5.61984389,1.34186667 8.85966611,0 12.305355,0 C15.7521106,0 18.9919328,1.34186667 21.4274883,3.77848889 C23.8648217,6.21511111 25.2066883,9.45457778 25.2066883,12.9006222 C25.2066883,16.3463111 23.8648217,19.5861333 21.4274883,22.0227556 C18.9919328,24.4597333 15.7521106,25.8016 12.305355,25.8016" id="Fill-1" fill="#5A6172"></path>
            </g>
            <g id="编组-2" transform="translate(2.133333, 8.103929)" fill="#5A6172">
                <path d="M1.24444444,12.2631111 C0.557155556,12.2631111 0,11.7059556 0,11.0186667 L0,7.94773333 C0,7.26044444 0.557155556,6.70328889 1.24444444,6.70328889 C1.93173333,6.70328889 2.48888889,7.26044444 2.48888889,7.94773333 L2.48888889,11.0186667 C2.48888889,11.7059556 1.93173333,12.2631111 1.24444444,12.2631111" id="Fill-5"></path>
                <path d="M5.63333333,12.2631111 C4.94604444,12.2631111 4.38888889,11.7059556 4.38888889,11.0186667 L4.38888889,5.5008 C4.38888889,4.81351111 4.94604444,4.25635556 5.63333333,4.25635556 C6.32062222,4.25635556 6.87777778,4.81351111 6.87777778,5.5008 L6.87777778,11.0186667 C6.87777778,11.7059556 6.32062222,12.2631111 5.63333333,12.2631111" id="Fill-7"></path>
                <path d="M10.0222222,12.2631111 C9.33493333,12.2631111 8.77777778,11.7059556 8.77777778,11.0186667 L8.77777778,7.94773333 C8.77777778,7.26044444 9.33493333,6.70328889 10.0222222,6.70328889 C10.7095111,6.70328889 11.2666667,7.26044444 11.2666667,7.94773333 L11.2666667,11.0186667 C11.2666667,11.7059556 10.7095111,12.2631111 10.0222222,12.2631111" id="Fill-9"></path>
                <path d="M14.4111111,12.2631111 C13.7238222,12.2631111 13.1666667,11.7059556 13.1666667,11.0186667 L13.1666667,1.24444444 C13.1666667,0.557155556 13.7238222,0 14.4111111,0 C15.0984,0 15.6555556,0.557155556 15.6555556,1.24444444 L15.6555556,11.0186667 C15.6555556,11.7059556 15.0984,12.2631111 14.4111111,12.2631111" id="Fill-11"></path>
                <path d="M18.8,12.2631111 C18.1127111,12.2631111 17.5555556,11.7059556 17.5555556,11.0186667 L17.5555556,5.5008 C17.5555556,4.81351111 18.1127111,4.25635556 18.8,4.25635556 C19.4872889,4.25635556 20.0444444,4.81351111 20.0444444,5.5008 L20.0444444,11.0186667 C20.0444444,11.7059556 19.4872889,12.2631111 18.8,12.2631111" id="Fill-13"></path>
            </g>
        </g>
    </g>
</svg>