<?xml version="1.0" encoding="UTF-8"?>
<svg width="32px" height="32px" viewBox="0 0 32 32" version="1.1" xmlns="http://www.w3.org/2000/svg" xmlns:xlink="http://www.w3.org/1999/xlink">
    <title>机构管理/安防监控</title>
    <g id="机构管理/安防监控" stroke="none" stroke-width="1" fill="none" fill-rule="evenodd">
        <rect id="矩形备份" fill="#F6FAFF" opacity="0" x="0" y="0" width="32" height="32"></rect>
        <path d="M6.30514733,7.78957535 L10.2044431,7.68644988 C10.8765475,7.6686746 11.4358054,8.1991131 11.4535807,8.87121743 C11.4538644,8.88194342 11.4540062,8.89267269 11.4540062,8.90340243 C11.4540062,9.59904053 10.8998381,10.1680586 10.2044431,10.1864499 L6.30514733,10.2895754 C5.633043,10.3073506 5.07378507,9.77691213 5.05600979,9.1048078 C5.05572612,9.09408181 5.05558426,9.08335254 5.05558426,9.0726228 C5.05558426,8.3769847 5.60975239,7.8079666 6.30514733,7.78957535 Z" id="矩形备份" fill="#5A6172" transform="translate(8.254795, 8.988013) rotate(33.000000) translate(-8.254795, -8.988013) "></path>
        <g id="编组" transform="translate(2.000000, 2.000000)" fill="#5A6172">
            <path d="M1.67787475,22.685743 C1.14488382,22.685743 0.71172806,22.2573432 0.71172806,21.7302043 C0.71172806,21.2030655 1.14488382,20.7746657 1.67787475,20.7746657 C3.08361818,20.7746657 4.13349758,20.4545602 4.71318559,19.8477932 C5.30575556,19.2282856 5.27194043,18.4750027 5.27033018,18.4431514 C5.22685358,17.9176051 5.62136348,17.4621317 6.1543544,17.4191325 C6.68412483,17.3729481 7.15270598,17.7726818 7.19779282,18.298228 C7.21067478,18.4574845 7.29601774,19.8971627 6.15596465,21.1218447 C5.18820771,22.1601967 3.68262912,22.685743 1.67787475,22.685743 L1.67787475,22.685743 Z" id="路径"></path>
            <path d="M0,25.9907928 L0,17.2523585 C0,16.5703466 0.560416667,16.0160832 1.25,16.0160832 C1.93958333,16.0160832 2.5,16.5703466 2.5,17.2523585 L2.5,25.9907928 C2.5,26.6728047 1.93958333,27.2270681 1.25,27.2270681 C0.560416667,27.2270681 0,26.6728047 0,25.9907928 Z" id="路径"></path>
            <path d="M6.42165498,0.0792910494 C7.08552851,-0.0901454686 7.79051817,0.0144706302 8.37488154,0.369137774 L24.3485068,9.96752353 C25.015148,10.3688498 25.4547447,11.0393194 25.5545799,11.8053429 C25.6528048,12.5713664 25.3967759,13.329427 24.8525133,13.8836394 L18.6208672,20.2331938 C18.1233016,20.7412218 17.4631014,21.003995 16.7932397,21.003995 C16.33432,21.003995 15.8705696,20.8797749 15.451906,20.6249646 L1.36226683,12.0521904 C0.190008849,11.3403141 -0.198060071,9.80508196 0.494345055,8.62976942 L4.84361539,1.25460359 C5.18667507,0.667364555 5.75623345,0.243161569 6.42165498,0.0792910494 Z M7.06021612,2.50046215 L7.03989693,2.50164051 L7.01945868,2.5067652 C7.00925256,2.50927862 7.00346943,2.51358585 6.99705397,2.52452575 L2.64834331,9.89874204 L2.66174399,9.9164565 L16.7516677,18.4894039 C16.769905,18.5005037 16.7824278,18.503995 16.7932397,18.503995 C16.8085908,18.503995 16.819628,18.4994096 16.8366114,18.4820708 L23.0688074,12.1319564 L23.0608659,12.1104143 L7.07776999,2.50630918 L7.06021612,2.50046215 Z" id="形状"></path>
        </g>
        <rect id="矩形" fill="#5A6172" transform="translate(26.141477, 21.281826) rotate(-45.000000) translate(-26.141477, -21.281826) " x="21.1414767" y="20.0318264" width="10" height="2.5" rx="1.25"></rect>
    </g>
</svg>