<?xml version="1.0" encoding="UTF-8"?>
<svg width="32px" height="32px" viewBox="0 0 32 32" version="1.1" xmlns="http://www.w3.org/2000/svg" xmlns:xlink="http://www.w3.org/1999/xlink">
    <title>机构管理/报警中心</title>
    <g id="机构管理/报警中心" stroke="none" stroke-width="1" fill="none" fill-rule="evenodd">
        <rect id="矩形备份" fill="#F6FAFF" opacity="0" x="0" y="0" width="32" height="32"></rect>
        <path d="M28,28 L4,28 L4,28.6724298 C4,29.5862149 4.76923079,30.5 5.6923077,30.5 L26.3076923,30.5 C27.2307692,30.5 28,29.7689719 28,28.6724298 L28,28 Z" id="路径" fill="#5A6172"></path>
        <path d="M16,6.75 C10.4098066,6.75 5.75,11.2553379 5.75,16.7016575 L5.75,26.6533149 L26.25,26.6533149 L26.25,16.7016575 C26.25,11.2553379 21.5901934,6.75 16,6.75 Z M16,9.25 L16.2478697,9.2539068 C20.3647524,9.3837861 23.75,12.734601 23.75,16.7016575 L23.75,24.153 L8.25,24.153 L8.25,16.7016575 C8.25,12.6552599 11.7720116,9.25 16,9.25 Z" id="路径" fill="#5A6172"></path>
        <rect id="矩形" fill="#5A6172" x="15" y="1" width="2.5" height="4" rx="1.25"></rect>
        <path d="M25.5355752,3.46791111 C26.0644185,3.91166336 26.1333985,4.70010785 25.6896463,5.22895118 L24.7254648,6.37801784 C24.2817126,6.90686117 23.4932681,6.97584113 22.9644248,6.53208889 C22.4355815,6.08833664 22.3666015,5.29989215 22.8103537,4.77104882 L23.7745352,3.62198216 C24.2182874,3.09313883 25.0067319,3.02415887 25.5355752,3.46791111 Z" id="矩形备份-2" fill="#5A6172"></path>
        <path d="M31.1293852,11.3159597 C31.3655009,11.9646821 31.031017,12.681985 30.3822946,12.9181007 L28.9727557,13.4311309 C28.3240333,13.6672465 27.6067304,13.3327627 27.3706148,12.6840403 C27.1344991,12.0353179 27.468983,11.318015 28.1177054,11.0818993 L29.5272443,10.5688691 C30.1759667,10.3327535 30.8932696,10.6672373 31.1293852,11.3159597 Z" id="矩形备份-3" fill="#5A6172"></path>
        <rect id="矩形备份-3" fill="#5A6172" transform="translate(2.779112, 11.991631) scale(-1, 1) rotate(70.000000) translate(-2.779112, -11.991631) " x="1.52911193" y="9.99163053" width="2.5" height="4" rx="1.25"></rect>
        <path d="M5.96442478,3.46791111 C6.49326811,3.02415887 7.2817126,3.09313883 7.72546485,3.62198216 L8.68964626,4.77104882 C9.1333985,5.29989215 9.06441855,6.08833664 8.53557522,6.53208889 C8.00673189,6.97584113 7.2182874,6.90686117 6.77453515,6.37801784 L5.81035374,5.22895118 C5.3666015,4.70010785 5.43558145,3.91166336 5.96442478,3.46791111 Z" id="矩形备份" fill="#5A6172"></path>
        <rect id="矩形" fill="#5A6172" x="18" y="15" width="2.5" height="7" rx="1.25"></rect>
    </g>
</svg>