<?xml version="1.0" encoding="UTF-8"?>
<svg width="32px" height="32px" viewBox="0 0 32 32" version="1.1" xmlns="http://www.w3.org/2000/svg" xmlns:xlink="http://www.w3.org/1999/xlink">
    <title>机构管理/消防</title>
    <g id="机构管理/消防" stroke="none" stroke-width="1" fill="none" fill-rule="evenodd">
        <g id="编组-12">
            <rect id="矩形备份-2" fill="#D8D8D8" opacity="0" x="0" y="0" width="32" height="32"></rect>
            <g id="编组" transform="translate(3.438889, 1.661111)" fill="#5A6172">
                <path d="M12.2886166,0.0660638747 C12.589809,-0.0220212916 12.910191,-0.0220212916 13.2113834,0.0660638747 L23.5095863,3.0778226 C24.6855119,3.42172768 25.5,4.48617653 25.5,5.70376099 L25.5,15.6280417 L25.4935464,15.7558469 L25.471,15.89 L25.4605708,16.0492506 C25.1379977,19.9238743 22.8562498,23.4062881 19.3559562,25.3169774 L19.0694929,25.4684306 L13.4981793,28.319806 C13.0287368,28.5600647 12.4712632,28.5600647 12.0018207,28.319806 L6.43050712,25.4684306 C2.47941469,23.4462778 0,19.4550548 0,15.0996679 L0,5.70376099 C0,4.48617653 0.814488108,3.42172768 1.99041375,3.0778226 L12.2886166,0.0660638747 Z M12.75,2.535 L2.69215639,5.47731365 C2.57238673,5.51234086 2.5,5.60694257 2.5,5.70376099 L2.5,15.0996679 C2.5,18.509745 4.44788001,21.6453332 7.56949288,23.2429618 L12.75,25.894 L17.9305071,23.2429618 C20.9603079,21.6923223 22.8844035,18.6928609 22.9949646,15.3998126 L23,15.0996679 L23,5.70376099 C23,5.60694257 22.9276133,5.51234086 22.8078436,5.47731365 L12.75,2.535 Z" id="路径"></path>
            </g>
        </g>
        <g id="编组" transform="translate(11.000000, 8.000000)" fill="#5A6172">
            <path d="M4.14231615,0 C6.3540067,2.23307024 7.48878398,4.02644301 7.54879108,5.37847151 C7.60879818,6.72967663 6.68083113,8.21839011 4.76596145,9.84214179 C4.1123126,10.4926305 3.86264015,11.1579405 4.01908726,11.8372484 C4.25268636,12.8566219 4.92990943,13.6421489 5.15600764,14.0209144 C5.17743875,14.0563208 5.05956765,14.0933739 5.03599344,14.092564 C-0.125689405,13.8949337 -1.55085822,8.99568301 1.84275804,5.99355393 C4.10802637,3.99268346 4.87418854,1.99428322 4.14231615,0 Z M8.87537678,6.98740192 C9.70368918,8.29331984 10.0744474,9.38679967 9.98765139,10.2686648 C9.90192695,11.1505299 9.25256431,11.9245292 8.04277816,12.5906626 C7.61844218,12.8706198 7.42020442,13.2271535 7.44806486,13.6627339 C7.48878398,14.3148695 7.78774796,14.7380989 7.87883017,14.9661816 C7.88740261,14.9875901 7.81882307,15.0040582 7.8059644,14.9991178 C5.75072095,14.0719655 4.3287668,11.9368802 6.39901203,10.3205392 C7.7791755,9.24270405 8.60427325,8.13193276 8.87537678,6.98740192 Z" id="形状"></path>
        </g>
    </g>
</svg>