<?xml version="1.0" encoding="UTF-8"?>
<svg width="32px" height="32px" viewBox="0 0 32 32" version="1.1" xmlns="http://www.w3.org/2000/svg" xmlns:xlink="http://www.w3.org/1999/xlink">
    <title>机构管理/环境安全</title>
    <g id="机构管理/环境安全" stroke="none" stroke-width="1" fill="none" fill-rule="evenodd">
        <g id="编组-2">
            <polygon id="矩形" points="0 0 32 0 32 32 0 32"></polygon>
            <g id="编组">
                <path d="M8.97835568,13.2818325 C7.82577043,14.4877505 7.51351614,16.2755694 8.18703185,17.8044661 C8.86243904,19.3376565 10.3953962,20.3064364 12.0631652,20.2495989 C14.2718527,20.1743269 16.0178784,18.3475112 16.0136753,16.1278982 C16.0104787,14.4539741 15.0003156,12.946946 13.4560124,12.319092 C11.9076082,11.6895707 10.1353242,12.0713284 8.97835568,13.2818325 Z M12.5186356,14.624714 C13.1239764,14.8708222 13.523515,15.4668801 13.5247863,16.1326297 C13.5264551,17.0138942 12.8393297,17.7328134 11.9783932,17.7621541 C11.3300867,17.7842484 10.7310387,17.4056692 10.4647091,16.8010945 C10.1964879,16.1922261 10.3210197,15.4792165 10.7776027,15.0015063 C11.2109608,14.5480958 11.8605029,14.3931789 12.4430539,14.5961984 L12.5186356,14.624714 Z" id="形状结合" fill="#5A6172"></path>
                <rect id="矩形" fill="#5A6172" x="9.43589744" y="26.1882972" width="13.1282051" height="2.48888889" rx="1.22769231"></rect>
                <path d="M26.9555556,4.15555556 L5.04444444,4.15555556 C3.57168511,4.15555556 2.37777778,5.34946289 2.37777778,6.82222222 L2.37777778,21.9777778 C2.37777778,23.4505371 3.57168511,24.6444444 5.04444444,24.6444444 L26.9555556,24.6444444 C28.4283149,24.6444444 29.6222222,23.4505371 29.6222222,21.9777778 L29.6222222,6.82222222 C29.6222222,5.34946289 28.4283149,4.15555556 26.9555556,4.15555556 Z M5.04444444,6.64444444 L26.9555556,6.64444444 C27.0537395,6.64444444 27.1333333,6.72403827 27.1333333,6.82222222 L27.1333333,21.9777778 C27.1333333,22.0759617 27.0537395,22.1555556 26.9555556,22.1555556 L5.04444444,22.1555556 C4.94626049,22.1555556 4.86666667,22.0759617 4.86666667,21.9777778 L4.86666667,6.82222222 C4.86666667,6.72403827 4.94626049,6.64444444 5.04444444,6.64444444 Z" id="矩形" fill="#5A6172"></path>
                <path d="M18.6666667,12.1555556 C19.3310448,12.1555556 19.8738227,12.6761876 19.9092697,13.3317208 L19.9111111,13.4 L19.9111111,18.2444444 C19.9111111,18.9317321 19.3539544,19.4888889 18.6666667,19.4888889 C18.0022886,19.4888889 17.4595106,18.9682569 17.4240636,18.3127236 L17.4222222,18.2444444 L17.4222222,13.4 C17.4222222,12.7127123 17.979379,12.1555556 18.6666667,12.1555556 Z" id="路径-5" fill="#5A6172"></path>
                <path d="M22.2222222,8.6 C22.8866003,8.6 23.4293783,9.12063204 23.4648253,9.77616526 L23.4666667,9.84444444 L23.4666667,18.2444444 C23.4666667,18.9317321 22.9095099,19.4888889 22.2222222,19.4888889 C21.5578441,19.4888889 21.0150662,18.9682569 20.9796192,18.3127236 L20.9777778,18.2444444 L20.9777778,9.84444444 C20.9777778,9.15715676 21.5349345,8.6 22.2222222,8.6 Z" id="路径-5备份" fill="#5A6172"></path>
                <g id="编组-2"></g>
            </g>
        </g>
    </g>
</svg>