<?xml version="1.0" encoding="UTF-8"?>
<svg width="32px" height="32px" viewBox="0 0 32 32" version="1.1" xmlns="http://www.w3.org/2000/svg" xmlns:xlink="http://www.w3.org/1999/xlink">
    <title>机构管理/项目信息</title>
    <g id="机构管理/项目信息" stroke="none" stroke-width="1" fill="none" fill-rule="evenodd">
        <g id="编组-2">
            <rect id="矩形备份" fill="#F6FAFF" opacity="0" x="0" y="0" width="32" height="32"></rect>
            <path d="M20.583819,3.02222222 C20.9317542,3.02222222 21.2638002,3.16788258 21.4994355,3.4238805 L27.2267275,9.64610273 C27.4381836,9.87583203 27.5555556,10.1766562 27.5555556,10.4888889 L27.5555556,27.0222222 C27.5555556,28.1022457 26.6800235,28.9777778 25.6,28.9777778 L6.4,28.9777778 C5.31997649,28.9777778 4.44444444,28.1022457 4.44444444,27.0222222 L4.44444444,4.97777778 C4.44444444,3.89775427 5.31997649,3.02222222 6.4,3.02222222 Z M19.7284444,5.51022222 L6.93333333,5.51111111 L6.93333333,26.4888889 L25.0666667,26.4888889 L25.0664444,11.7332222 L21.1508468,11.7333333 C20.4115794,11.7333333 19.804051,11.1692913 19.7351351,10.4480806 L19.7286246,10.3111111 L19.7284444,5.51022222 Z" id="形状结合" fill="#5A6172"></path>
            <rect id="矩形" fill="#5A6172" x="10.3111111" y="9.24444444" width="6.34920635" height="2.48888889" rx="1.24444444"></rect>
            <rect id="矩形备份-2" fill="#5A6172" x="10.3111111" y="14.9333333" width="10.6666667" height="2.48888889" rx="1.24444444"></rect>
            <rect id="矩形备份-3" fill="#5A6172" x="10.3111111" y="20.6222222" width="10.6666667" height="2.48888889" rx="1.24444444"></rect>
        </g>
    </g>
</svg>