<?xml version="1.0" encoding="utf-8"?>
<svg version="1.1" xmlns:xlink="http://www.w3.org/1999/xlink" width="8px" height="12px" xmlns="http://www.w3.org/2000/svg">
  <g transform="matrix(1 0 0 1 -651 -680 )">
    <path d="M 0.755632582322357 0.127232142857143  L 7.85441941074523 6.984375  C 7.99768919699596 7.11830357142857  8.03004043905257 7.27232142857143  7.95147313691508 7.44642857142857  C 7.87290583477759 7.625  7.73656845753899 7.71428571428571  7.54246100519931 7.71428571428571  L 4.89428076256499 7.71428571428571  L 6.28769497400347 10.9017857142857  C 6.33391103408434 11.0133928571429  6.33391103408434 11.1227678571429  6.28769497400347 11.2299107142857  C 6.24147891392259 11.3370535714286  6.1629116117851 11.4151785714286  6.05199306759099 11.4642857142857  L 4.82495667244367 11.9665178571429  C 4.70941652224148 12.0111607142857  4.59618717504333 12.0111607142857  4.48526863084922 11.9665178571429  C 4.37435008665511 11.921875  4.29347198151358 11.8459821428571  4.24263431542461 11.7388392857143  L 2.91854419410745 8.71205357142857  L 0.755632582322357 10.8013392857143  C 0.667822068168689 10.8861607142857  0.563835932986713 10.9285714285714  0.44367417677643 10.9285714285714  C 0.388214904679376 10.9285714285714  0.332755632582322 10.9174107142857  0.277296360485269 10.8950892857143  C 0.0924321201617562 10.8191964285714  0 10.6875  0 10.5  L 0 0.428571428571428  C 0 0.241071428571428  0.0924321201617562 0.109374999999999  0.277296360485269 0.0334821428571432  C 0.332755632582322 0.0111607142857144  0.388214904679376 0  0.44367417677643 0  C 0.568457538994801 0  0.672443674176776 0.0424107142857153  0.755632582322357 0.127232142857143  Z " fill-rule="nonzero" fill="#000000" stroke="none" transform="matrix(1 0 0 1 651 680 )" />
  </g>
</svg>