<?xml version="1.0" encoding="utf-8"?>
<svg version="1.1" xmlns:xlink="http://www.w3.org/1999/xlink" width="800px" height="141px" xmlns="http://www.w3.org/2000/svg">
  <defs>
    <mask fill="white" id="clip151">
      <path d="M 0.199999999999989 120.274698795181  L 0.199999999999989 140.320481927711  L 37 139  L 71.4 139  L 105.8 141  L 141 141  L 177 137.942168674699  L 209.8 134.544578313253  L 246.6 121.973493975904  L 281 106.004819277108  L 312.2 94.1132530120482  L 348.2 53.0024096385542  L 381.8 54.0216867469879  L 418.6 56.7397590361446  L 450.6 55.0409638554217  L 488.2 58.4385542168675  L 521 55.0409638554217  L 556.2 62.5156626506024  L 592.2 63.5349397590362  L 627.4 56.7397590361446  L 658.6 61.1566265060241  L 695.4 65.5734939759036  L 728.2 71.3493975903614  L 763.4 83.2409638554217  L 799.4 108.722891566265  L 799.4 64.2144578313253  L 763.4 30.9180722891566  L 728.2 9.51325301204818  L 695.4 0  L 658.6 1.01927710843373  L 627.4 10.1927710843373  L 592.2 18.0072289156626  L 556.2 15  L 521 15  L 488.2 14.2698795180723  L 450.6 15.9686746987952  L 418.6 14.9493975903614  L 381.8 6.45542168674698  L 348.2 14.9493975903614  L 313.8 24.1228915662651  L 281 28.5397590361446  L 246.6 35.6746987951807  L 209.8 45.5277108433735  L 177 106.004819277108  L 141 112.120481927711  L 105.8 113.479518072289  L 71.4 115.178313253012  L 37 116.877108433735  L 0.199999999999989 120.274698795181  Z " fill-rule="evenodd" />
    </mask>
  </defs>
  <g transform="matrix(1 0 0 1 -436 -568 )">
    <path d="M 0.199999999999989 120.274698795181  L 0.199999999999989 140.320481927711  L 37 139  L 71.4 139  L 105.8 141  L 141 141  L 177 137.942168674699  L 209.8 134.544578313253  L 246.6 121.973493975904  L 281 106.004819277108  L 312.2 94.1132530120482  L 348.2 53.0024096385542  L 381.8 54.0216867469879  L 418.6 56.7397590361446  L 450.6 55.0409638554217  L 488.2 58.4385542168675  L 521 55.0409638554217  L 556.2 62.5156626506024  L 592.2 63.5349397590362  L 627.4 56.7397590361446  L 658.6 61.1566265060241  L 695.4 65.5734939759036  L 728.2 71.3493975903614  L 763.4 83.2409638554217  L 799.4 108.722891566265  L 799.4 64.2144578313253  L 763.4 30.9180722891566  L 728.2 9.51325301204818  L 695.4 0  L 658.6 1.01927710843373  L 627.4 10.1927710843373  L 592.2 18.0072289156626  L 556.2 15  L 521 15  L 488.2 14.2698795180723  L 450.6 15.9686746987952  L 418.6 14.9493975903614  L 381.8 6.45542168674698  L 348.2 14.9493975903614  L 313.8 24.1228915662651  L 281 28.5397590361446  L 246.6 35.6746987951807  L 209.8 45.5277108433735  L 177 106.004819277108  L 141 112.120481927711  L 105.8 113.479518072289  L 71.4 115.178313253012  L 37 116.877108433735  L 0.199999999999989 120.274698795181  Z " fill-rule="nonzero" fill="#adb0c1" stroke="none" fill-opacity="0.2" transform="matrix(1 0 0 1 436 568 )" />
    <path d="M 0.199999999999989 120.274698795181  L 0.199999999999989 140.320481927711  L 37 139  L 71.4 139  L 105.8 141  L 141 141  L 177 137.942168674699  L 209.8 134.544578313253  L 246.6 121.973493975904  L 281 106.004819277108  L 312.2 94.1132530120482  L 348.2 53.0024096385542  L 381.8 54.0216867469879  L 418.6 56.7397590361446  L 450.6 55.0409638554217  L 488.2 58.4385542168675  L 521 55.0409638554217  L 556.2 62.5156626506024  L 592.2 63.5349397590362  L 627.4 56.7397590361446  L 658.6 61.1566265060241  L 695.4 65.5734939759036  L 728.2 71.3493975903614  L 763.4 83.2409638554217  L 799.4 108.722891566265  L 799.4 64.2144578313253  L 763.4 30.9180722891566  L 728.2 9.51325301204818  L 695.4 0  L 658.6 1.01927710843373  L 627.4 10.1927710843373  L 592.2 18.0072289156626  L 556.2 15  L 521 15  L 488.2 14.2698795180723  L 450.6 15.9686746987952  L 418.6 14.9493975903614  L 381.8 6.45542168674698  L 348.2 14.9493975903614  L 313.8 24.1228915662651  L 281 28.5397590361446  L 246.6 35.6746987951807  L 209.8 45.5277108433735  L 177 106.004819277108  L 141 112.120481927711  L 105.8 113.479518072289  L 71.4 115.178313253012  L 37 116.877108433735  L 0.199999999999989 120.274698795181  Z " stroke-width="2" stroke-dasharray="3,1" stroke="#adb0c1" fill="none" transform="matrix(1 0 0 1 436 568 )" mask="url(#clip151)" />
  </g>
</svg>