<?xml version="1.0" encoding="utf-8"?>
<svg version="1.1" xmlns:xlink="http://www.w3.org/1999/xlink" width="803px" height="129px" xmlns="http://www.w3.org/2000/svg">
  <g transform="matrix(1 0 0 1 -440 -575 )">
    <path d="M -0.375864782644435 120.060606060606  L 36.0830191338666 122.464646464646  L 70.7170795306389 123.027394073613  L 105.762711864407 124.387878787879  L 138.722294654498 126  L 175.22816166884 123.027394073613  L 207 119.530303030303  L 244.415471534116 107.191919191919  L 277.792264232942 90.9292929292929  L 312.5 59.3939393939394  L 348.022598870057 18.3838383838384  L 381.5 8.16666666666667  L 416.862233811386 13.010101010101  L 450.934376358105 14.8484848484848  L 486.75 13.6818181818182  L 521.25 15.8383838383839  C 521.25 15.8383838383839  555.693301091312 15.8128485942735  555.932203389831 15.8383838383839  C 556.90131341029 15.94196786037  591 18.9848484848485  591 18.9848484848485  L 625.5 5.51515151515152  L 660.234680573664 0  L 694.306823120382 4.24242424242424  L 731.16036505867 10.7474747474748  L 763.146458061712 39.3131313131313  L 800 91.6363636363636  " stroke-width="2" stroke="#6a708c" fill="none" transform="matrix(1 0 0 1 441 576 )" />
  </g>
</svg>