<?xml version="1.0" encoding="utf-8"?>
<svg version="1.1" xmlns:xlink="http://www.w3.org/1999/xlink" width="17px" height="17px" xmlns="http://www.w3.org/2000/svg">
  <g transform="matrix(1 0 0 1 -1316 -306 )">
    <path d="M 17 8.5  C 17 3.808  13.192 0  8.4915 0  C 3.7995 0  0 3.808  0 8.5  C 0 13.192  3.7995 17  8.4915 17  C 13.192 17  17 13.192  17 8.5  Z M 15.3 8.5  C 15.3 12.257  12.257 15.3  8.5 15.3  C 8.49929155594144 15.3000002214926  8.49858311185427 15.3000003322389  8.49787466776109 15.3000003322389  C 4.74351197400508 15.3000003322389  1.69999966776108 12.2564880259949  1.69999966776108 8.50212533223891  C 1.69999966776108 8.50141688814573  1.69999977850739 8.50070844405856  1.7 8.5  C 1.7 4.743  4.743 1.7  8.5 1.7  C 12.257 1.7  15.3 4.743  15.3 8.5  Z " fill-rule="nonzero" fill="#02a7f0" stroke="none" transform="matrix(1 0 0 1 1316 306 )" />
  </g>
</svg>