<?xml version="1.0" encoding="utf-8"?>
<svg version="1.1" xmlns:xlink="http://www.w3.org/1999/xlink" width="6px" height="7px" xmlns="http://www.w3.org/2000/svg">
  <g transform="matrix(1 0 0 1 -1328 -319 )">
    <path d="M 0.566724436741768 0.0742187500000002  L 5.89081455805893 4.07421875  C 5.99826689774697 4.15234375  6.02253032928943 4.2421875  5.96360485268631 4.34375  C 5.90467937608319 4.44791666666667  5.80242634315425 4.5  5.65684575389948 4.5  L 3.67071057192374 4.5  L 4.7157712305026 6.359375  C 4.75043327556326 6.42447916666667  4.75043327556326 6.48828125  4.7157712305026 6.55078125  C 4.68110918544194 6.61328125  4.62218370883882 6.65885416666667  4.53899480069324 6.6875  L 3.61871750433276 6.98046875  C 3.53206239168111 7.00651041666667  3.4471403812825 7.00651041666667  3.36395147313692 6.98046875  C 3.28076256499133 6.95442708333333  3.22010398613518 6.91015625  3.18197573656846 6.84765625  L 2.18890814558059 5.08203125  L 0.566724436741768 6.30078125  C 0.500866551126517 6.35026041666667  0.422876949740035 6.375  0.332755632582322 6.375  C 0.291161178509532 6.375  0.249566724436742 6.36848958333333  0.207972270363951 6.35546875  C 0.0693240901213172 6.31119791666667  0 6.234375  0 6.125  L 0 0.25  C 0 0.140625  0.0693240901213172 0.0638020833333328  0.207972270363951 0.0195312500000002  C 0.249566724436742 0.00651041666666674  0.291161178509532 0  0.332755632582322 0  C 0.4263431542461 0  0.504332755632582 0.0247395833333339  0.566724436741768 0.0742187500000002  Z " fill-rule="nonzero" fill="#000000" stroke="none" transform="matrix(1 0 0 1 1328 319 )" />
  </g>
</svg>