<?xml version="1.0" encoding="utf-8"?>
<svg version="1.1" xmlns:xlink="http://www.w3.org/1999/xlink" width="85px" height="74px" xmlns="http://www.w3.org/2000/svg">
  <defs>
    <mask fill="white" id="clip36">
      <path d="M 0 58.4347826086956  L 0 5.56521739130435  C 0 2.4486956521739  0.420382165605093 0  0.955414012738854 0  L 74.0445859872611 0  C 74.5796178343949 0  75 2.4486956521739  75 5.56521739130435  L 75 58.4347826086956  C 75 61.5513043478261  74.5796178343949 64  74.0445859872611 64  L 48.0312680949623 64  L 0.955414012738854 64  C 0.420382165605093 64  0 61.5513043478261  0 58.4347826086956  Z " fill-rule="evenodd" />
    </mask>
    <filter x="1326px" y="324px" width="85px" height="74px" filterUnits="userSpaceOnUse" id="filter37">
      <feOffset dx="3" dy="3" in="SourceAlpha" result="shadowOffsetInner" />
      <feGaussianBlur stdDeviation="2.5" in="shadowOffsetInner" result="shadowGaussian" />
      <feComposite in2="shadowGaussian" operator="atop" in="SourceAlpha" result="shadowComposite" />
      <feColorMatrix type="matrix" values="0 0 0 0 0  0 0 0 0 0  0 0 0 0 0  0 0 0 0.349019607843137 0  " in="shadowComposite" />
    </filter>
    <g id="widget38">
      <path d="M 0 58.4347826086956  L 0 5.56521739130435  C 0 2.4486956521739  0.420382165605093 0  0.955414012738854 0  L 74.0445859872611 0  C 74.5796178343949 0  75 2.4486956521739  75 5.56521739130435  L 75 58.4347826086956  C 75 61.5513043478261  74.5796178343949 64  74.0445859872611 64  L 48.0312680949623 64  L 0.955414012738854 64  C 0.420382165605093 64  0 61.5513043478261  0 58.4347826086956  Z " fill-rule="nonzero" fill="#ffffff" stroke="none" transform="matrix(1 0 0 1 1328 326 )" />
      <path d="M 0 58.4347826086956  L 0 5.56521739130435  C 0 2.4486956521739  0.420382165605093 0  0.955414012738854 0  L 74.0445859872611 0  C 74.5796178343949 0  75 2.4486956521739  75 5.56521739130435  L 75 58.4347826086956  C 75 61.5513043478261  74.5796178343949 64  74.0445859872611 64  L 48.0312680949623 64  L 0.955414012738854 64  C 0.420382165605093 64  0 61.5513043478261  0 58.4347826086956  Z " stroke-width="2" stroke="#adb0c1" fill="none" transform="matrix(1 0 0 1 1328 326 )" mask="url(#clip36)" />
    </g>
  </defs>
  <g transform="matrix(1 0 0 1 -1326 -324 )">
    <use xlink:href="#widget38" filter="url(#filter37)" />
    <use xlink:href="#widget38" />
  </g>
</svg>