<?xml version="1.0" encoding="utf-8"?>
<svg version="1.1" xmlns:xlink="http://www.w3.org/1999/xlink" width="105px" height="92px" xmlns="http://www.w3.org/2000/svg">
  <defs>
    <mask fill="white" id="clip315">
      <path d="M 273 1062  C 270.78 1062  269 1060.22  269 1058  L 269 974  C 269 971.78  270.78 970  273 970  L 370 970  C 372.22 970  374 971.78  374 974  L 374 1058  C 374 1060.22  372.22 1062  370 1062  " fill-rule="evenodd" />
    </mask>
  </defs>
  <g transform="matrix(1 0 0 1 -269 -970 )">
    <path d="M 269 970  L 374 970  L 374 1062  L 269 1062  L 269 970  " fill-rule="nonzero" fill="#cccccc" stroke="none" mask="url(#clip315)" />
    <path d="M 275 976  L 368 976  L 368 1056  L 275 1056  L 275 976  " fill-rule="nonzero" fill="#ffffff" stroke="none" mask="url(#clip315)" />
    <path d="M 330.5 997.6  C 326.636 997.6  323.6 994.564  323.6 990.7  C 323.6 986.836  326.636 983.8  330.5 983.8  C 334.364 983.8  337.4 986.836  337.4 990.7  C 337.4 994.564  334.364 997.6  330.5 997.6  " fill-rule="nonzero" fill="#cccccc" stroke="none" mask="url(#clip315)" />
    <path d="M 278 1054  L 278 1012.75  L 300 994  L 330.8 1014.57142857143  L 348.4 1005.25  L 366 1014.57142857143  L 366 1054  L 278 1054  " fill-rule="nonzero" fill="#169bd5" stroke="none" mask="url(#clip315)" />
  </g>
</svg>