<?xml version="1.0" encoding="utf-8"?>
<svg version="1.1" xmlns:xlink="http://www.w3.org/1999/xlink" width="119px" height="132px" xmlns="http://www.w3.org/2000/svg">
  <g transform="matrix(1 0 0 1 -994 -921 )">
    <path d="M 994 921  L 1113 921  L 1113 1053  L 994 1053  L 994 921  " fill-rule="nonzero" fill="#cccccc" stroke="none" />
    <path d="M 1002 929  L 1105 929  L 1105 1045  L 1002 1045  L 1002 929  " fill-rule="nonzero" fill="#ffffff" stroke="none" />
    <path d="M 1064.805 958.65  C 1059.807 958.65  1055.88 954.723  1055.88 949.725  C 1055.88 944.727  1059.807 940.8  1064.805 940.8  C 1069.803 940.8  1073.73 944.727  1073.73 949.725  C 1073.73 954.723  1069.803 958.65  1064.805 958.65  " fill-rule="nonzero" fill="#cccccc" stroke="none" />
    <path d="M 1005 1042  L 1005 981.5  L 1029.25 954  L 1063.2 976  L 1082.6 970.5  L 1102 976  L 1102 1042  L 1005 1042  " fill-rule="nonzero" fill="#169bd5" stroke="none" />
  </g>
</svg>