<?xml version="1.0" encoding="utf-8"?>
<svg version="1.1" xmlns:xlink="http://www.w3.org/1999/xlink" width="60px" height="60px" xmlns="http://www.w3.org/2000/svg">
  <defs>
    <mask fill="white" id="clip198">
      <path d="M 236 164.5  C 219.6275 164.5  206.5 151.3725  206.5 135  L 206.5 135  C 206.5 118.6275  219.6275 105.5  236 105.5  L 236 105.5  C 252.3725 105.5  265.5 118.6275  265.5 135  L 265.5 135  C 265.5 151.3725  252.3725 164.5  236 164.5  L 236 164.5  " fill-rule="evenodd" />
    </mask>
  </defs>
  <g transform="matrix(1 0 0 1 -206 -105 )">
    <path d="M 206 105  L 266 105  L 266 165  L 206 165  L 206 105  " fill-rule="nonzero" fill="#cccccc" stroke="none" mask="url(#clip198)" />
    <path d="M 210 109  L 262 109  L 262 161  L 210 161  L 210 109  " fill-rule="nonzero" fill="#ffffff" stroke="none" mask="url(#clip198)" />
    <path d="M 241.7 123  C 239.18 123  237.2 121.02  237.2 118.5  C 237.2 115.98  239.18 114  241.7 114  C 244.22 114  246.2 115.98  246.2 118.5  C 246.2 121.02  244.22 123  241.7 123  " fill-rule="nonzero" fill="#cccccc" stroke="none" mask="url(#clip198)" />
    <path d="M 212 160  L 212 133.05  L 224.25 120.8  L 241.4 130.6  L 251.2 128.15  L 261 130.6  L 261 160  L 212 160  " fill-rule="nonzero" fill="#169bd5" stroke="none" mask="url(#clip198)" />
    <path d="M 236 164.5  C 219.6275 164.5  206.5 151.3725  206.5 135  L 206.5 135  C 206.5 118.6275  219.6275 105.5  236 105.5  L 236 105.5  C 252.3725 105.5  265.5 118.6275  265.5 135  L 265.5 135  C 265.5 151.3725  252.3725 164.5  236 164.5  L 236 164.5  Z " stroke-width="1" stroke="#797979" fill="none" />
  </g>
</svg>