<?xml version="1.0" encoding="utf-8"?>
<svg version="1.1" xmlns:xlink="http://www.w3.org/1999/xlink" width="25px" height="25px" xmlns="http://www.w3.org/2000/svg">
  <g transform="matrix(1 0 0 1 -497 -603 )">
    <path d="M 18.4407552083333 14.892578125  C 18.6469184027778 15.0987413194444  18.75 15.3428819444444  18.75 15.625  C 18.75 15.9071180555556  18.6469184027778 16.1512586805556  18.4407552083333 16.357421875  C 18.2345920138889 16.5635850694444  17.9904513888889 16.6666666666667  17.7083333333333 16.6666666666667  L 7.29166666666667 16.6666666666667  C 7.00954861111111 16.6666666666667  6.76540798611111 16.5635850694444  6.55924479166667 16.357421875  C 6.35308159722222 16.1512586805556  6.25 15.9071180555556  6.25 15.625  C 6.25 15.3428819444444  6.35308159722222 15.0987413194444  6.55924479166667 14.892578125  C 6.76540798611111 14.6864149305556  7.00954861111111 14.5833333333333  7.29166666666667 14.5833333333333  L 17.7083333333333 14.5833333333333  C 17.9904513888889 14.5833333333333  18.2345920138889 14.6864149305556  18.4407552083333 14.892578125  Z M 9.80631510416667 6.8603515625  C 10.2132161458333 7.26725260416667  10.4166666666667 7.75824652777778  10.4166666666667 8.33333333333333  C 10.4166666666667 8.90842013888889  10.2132161458333 9.3994140625  9.80631510416667 9.80631510416667  C 9.3994140625 10.2132161458333  8.90842013888889 10.4166666666667  8.33333333333333 10.4166666666667  C 7.75824652777778 10.4166666666667  7.26725260416667 10.2132161458333  6.8603515625 9.80631510416667  C 6.45345052083333 9.3994140625  6.25 8.90842013888889  6.25 8.33333333333333  C 6.25 7.75824652777778  6.45345052083333 7.26725260416667  6.8603515625 6.8603515625  C 7.26725260416667 6.45345052083333  7.75824652777778 6.25  8.33333333333333 6.25  C 8.90842013888889 6.25  9.3994140625 6.45345052083333  9.80631510416667 6.8603515625  Z M 18.1396484375 6.8603515625  C 18.5465494791667 7.26725260416667  18.75 7.75824652777778  18.75 8.33333333333333  C 18.75 8.90842013888889  18.5465494791667 9.3994140625  18.1396484375 9.80631510416667  C 17.7327473958333 10.2132161458333  17.2417534722222 10.4166666666667  16.6666666666667 10.4166666666667  C 16.0915798611111 10.4166666666667  15.6005859375 10.2132161458333  15.1936848958333 9.80631510416667  C 14.7867838541667 9.3994140625  14.5833333333333 8.90842013888889  14.5833333333333 8.33333333333333  C 14.5833333333333 7.75824652777778  14.7867838541667 7.26725260416667  15.1936848958333 6.8603515625  C 15.6005859375 6.45345052083333  16.0915798611111 6.25  16.6666666666667 6.25  C 17.2417534722222 6.25  17.7327473958333 6.45345052083333  18.1396484375 6.8603515625  Z M 22.0865885416667 16.5445963541667  C 22.6399739583333 15.2587890625  22.9166666666667 13.9105902777778  22.9166666666667 12.5  C 22.9166666666667 11.0894097222222  22.6399739583333 9.7412109375  22.0865885416667 8.45540364583333  C 21.533203125 7.16959635416667  20.7926432291667 6.06282552083333  19.8649088541667 5.13509114583333  C 18.9371744791667 4.20735677083333  17.8304036458333 3.466796875  16.5445963541667 2.91341145833333  C 15.2587890625 2.36002604166667  13.9105902777778 2.08333333333333  12.5 2.08333333333333  C 11.0894097222222 2.08333333333333  9.7412109375 2.36002604166667  8.45540364583333 2.91341145833333  C 7.16959635416667 3.466796875  6.06282552083333 4.20735677083333  5.13509114583333 5.13509114583333  C 4.20735677083333 6.06282552083333  3.466796875 7.16959635416667  2.91341145833333 8.45540364583333  C 2.36002604166667 9.7412109375  2.08333333333333 11.0894097222222  2.08333333333333 12.5  C 2.08333333333333 13.9105902777778  2.36002604166667 15.2587890625  2.91341145833333 16.5445963541667  C 3.466796875 17.8304036458333  4.20735677083333 18.9371744791667  5.13509114583333 19.8649088541667  C 6.06282552083333 20.7926432291667  7.16959635416667 21.533203125  8.45540364583333 22.0865885416667  C 9.7412109375 22.6399739583333  11.0894097222222 22.9166666666667  12.5 22.9166666666667  C 13.9105902777778 22.9166666666667  15.2587890625 22.6399739583333  16.5445963541667 22.0865885416667  C 17.8304036458333 21.533203125  18.9371744791667 20.7926432291667  19.8649088541667 19.8649088541667  C 20.7926432291667 18.9371744791667  21.533203125 17.8304036458333  22.0865885416667 16.5445963541667  Z M 23.3235677083333 6.2255859375  C 24.4411892361111 8.14073350694444  25 10.2322048611111  25 12.5  C 25 14.7677951388889  24.4411892361111 16.8592664930556  23.3235677083333 18.7744140625  C 22.2059461805556 20.6895616319444  20.6895616319444 22.2059461805556  18.7744140625 23.3235677083333  C 16.8592664930556 24.4411892361111  14.7677951388889 25  12.5 25  C 10.2322048611111 25  8.14073350694444 24.4411892361111  6.2255859375 23.3235677083333  C 4.31043836805556 22.2059461805556  2.79405381944444 20.6895616319444  1.67643229166667 18.7744140625  C 0.558810763888889 16.8592664930556  0 14.7677951388889  0 12.5  C 0 10.2322048611111  0.558810763888889 8.14073350694444  1.67643229166667 6.2255859375  C 2.79405381944444 4.31043836805556  4.31043836805556 2.79405381944444  6.2255859375 1.67643229166667  C 8.14073350694444 0.558810763888887  10.2322048611111 0  12.5 0  C 14.7677951388889 0  16.8592664930556 0.558810763888887  18.7744140625 1.67643229166667  C 20.6895616319444 2.79405381944444  22.2059461805556 4.31043836805556  23.3235677083333 6.2255859375  Z " fill-rule="nonzero" fill="#000000" stroke="none" transform="matrix(1 0 0 1 497 603 )" />
  </g>
</svg>