<?xml version="1.0" encoding="utf-8"?>
<svg version="1.1" xmlns:xlink="http://www.w3.org/1999/xlink" width="293px" height="75px" xmlns="http://www.w3.org/2000/svg">
  <defs>
    <mask fill="white" id="clip152">
      <path d="M 281 75  L 281 17.2006472491912  L 292.456310679612 8.62459546925584  L 281 4.09385113268672  L 281 0  L 0 0  L 0 75  L 281 75  Z " fill-rule="evenodd" />
    </mask>
  </defs>
  <g transform="matrix(1 0 0 1 -987 -305 )">
    <path d="M 281 75  L 281 17.2006472491912  L 292.456310679612 8.62459546925584  L 281 4.09385113268672  L 281 0  L 0 0  L 0 75  L 281 75  Z " fill-rule="nonzero" fill="#ffffff" stroke="none" transform="matrix(1 0 0 1 987 305 )" />
    <path d="M 281 75  L 281 17.2006472491912  L 292.456310679612 8.62459546925584  L 281 4.09385113268672  L 281 0  L 0 0  L 0 75  L 281 75  Z " stroke-width="2" stroke="#797979" fill="none" transform="matrix(1 0 0 1 987 305 )" mask="url(#clip152)" />
  </g>
</svg>