<?xml version="1.0" encoding="UTF-8"?>
<svg width="16px" height="16px" viewBox="0 0 16 16" version="1.1" xmlns="http://www.w3.org/2000/svg" xmlns:xlink="http://www.w3.org/1999/xlink">
    <title>1.通用/1.icon图标/线条/Close</title>
    <g id="大屏" stroke="none" stroke-width="1" fill="none" fill-rule="evenodd">
        <g id="数字孪生-展开" transform="translate(-655.000000, -180.000000)">
            <g id="反馈/对话框/气泡对话框备份-4" transform="translate(363.000000, 170.000000)">
                <g id="1.通用/1.icon图标/线条/Close" transform="translate(292.000000, 10.000000)">
                    <rect id="矩形" fill="#000000" fill-rule="nonzero" opacity="0" x="0" y="0" width="16" height="16"></rect>
                    <path d="M8.86477255,7.99689489 L12.82068,4.04409253 C13.0597733,3.80499922 13.0597733,3.41841329 12.82068,3.18087254 C12.5815867,2.94177923 12.1950008,2.94177923 11.95746,3.18087254 L8,7.13212234 L4.04253998,3.17931998 C3.80344667,2.94022667 3.41686074,2.94022667 3.17931998,3.17931998 C2.94022667,3.41841329 2.94022667,3.80499922 3.17931998,4.04253998 L7.13522745,7.99534234 L3.17931998,11.9496973 C2.94022667,12.1887906 2.94022667,12.5753765 3.17931998,12.8129172 C3.29886664,12.9324639 3.45567458,12.991461 3.61092998,12.991461 C3.76773793,12.991461 3.92299332,12.9324639 4.04253998,12.8129172 L8,8.86011489 L11.95746,12.8144698 C12.0770067,12.9340165 12.2322621,12.9930135 12.38907,12.9930135 C12.545878,12.9930135 12.7011334,12.9340165 12.82068,12.8144698 C13.0597733,12.5753765 13.0597733,12.1887906 12.82068,11.9512498 L8.86477255,7.99689489 Z" id="Close" fill-opacity="0.603569404" fill="#FFFFFF"></path>
                </g>
            </g>
        </g>
    </g>
</svg>