<?xml version="1.0" encoding="utf-8"?>
<svg version="1.1" xmlns:xlink="http://www.w3.org/1999/xlink" width="17px" height="15px" xmlns="http://www.w3.org/2000/svg">
  <g transform="matrix(1 0 0 1 -1885 -1321 )">
    <path d="M 2.344 1.02  L 8.5 6.45176470588235  L 14.656 1.02  C 14.8135385949647 0.880995357384097  15.0272067824037 0.802903362309162  15.25 0.802903362309162  C 15.7139428586005 0.802903362309162  16.0900428560496 1.13475630123485  16.0900428560496 1.54411764705883  C 16.0900428560496 1.74069989787906  16.0015385949647 1.92923065150174  15.844 2.06823529411765  L 9.688 7.5  L 15.844 12.9317647058824  C 16.0015385949647 13.0707693484983  16.0900428560496 13.2593001021209  16.0900428560496 13.4558823529412  C 16.0900428560496 13.8652436987652  15.7139428586005 14.1970966376908  15.25 14.1970966376908  C 15.0272067824037 14.1970966376908  14.8135385949647 14.1190046426159  14.656 13.98  L 8.5 8.54823529411765  L 2.344 13.98  C 2.18646140503531 14.1190046426159  1.97279321759627 14.1970966376908  1.75 14.1970966376908  C 1.28605714139949 14.1970966376908  0.909957143950384 13.8652436987652  0.909957143950384 13.4558823529412  C 0.909957143950384 13.2593001021209  0.998461405035313 13.0707693484983  1.156 12.9317647058824  L 7.312 7.5  L 1.156 2.06823529411765  C 0.998461405035312 1.92923065150175  0.909957143950383 1.74069989787906  0.909957143950383 1.54411764705883  C 0.909957143950383 1.13475630123485  1.28605714139949 0.802903362309161  1.75 0.802903362309161  C 1.97279321759627 0.802903362309161  2.18646140503531 0.880995357384099  2.344 1.02  Z " fill-rule="nonzero" fill="#797979" stroke="none" transform="matrix(1 0 0 1 1885 1321 )" />
  </g>
</svg>