<?xml version="1.0" encoding="utf-8"?>
<svg version="1.1" xmlns:xlink="http://www.w3.org/1999/xlink" width="13px" height="16px" xmlns="http://www.w3.org/2000/svg">
  <g transform="matrix(1 0 0 1 -2488 -39 )">
    <path d="M 7.35531309179687 7.93706788942308  L 12.5191660078125 1.61445985817308  C 12.7633404628906 1.3154330625  12.7645746279297 0.830881588942308  12.5216153378906 0.530359182692308  C 12.2781054375 0.229159079326924  11.8850909013672 0.228317804086539  11.6409164462891 0.527344622596155  L 6.47573445800781 6.85063035096154  L 1.35553294726563 0.529658123798077  C 1.11316226757813 0.230654689903846  0.71891356640625 0.229135717548077  0.474739129882813 0.528139151442307  C 0.23113428515625 0.827142585336538  0.230545693359375 1.31239511778846  0.47350496484375 1.61291752403846  L 5.59247231054687 7.93237077884615  L 0.431106706054687 14.2511229747596  C 0.18691326953125 14.5501497704327  0.1856980859375 15.0346545204327  0.42861939453125 15.3352236502404  C 0.550080048828125 15.4855315769231  0.710141522460937 15.5613165024038  0.87020299609375 15.5613165024038  C 1.0290493046875 15.5613165024038  1.18795255761719 15.4870505492788  1.30943219335937 15.3382382103365  L 6.47203194433594 9.01796704206731  L 11.6390177265625 15.3964965492788  C 11.7604783808594 15.5468278605769  11.9199892255859 15.6219350889423  12.0800317177734 15.6219350889423  C 12.2395045996094 15.6219350889423  12.3983508896484 15.5468278605769  12.5198115439453 15.3980155216346  C 12.7633214443359 15.0990120877404  12.7639859990234 14.6146008305288  12.5210457089844 14.3140784242788  L 7.35531309179687 7.93706788942308  Z " fill-rule="nonzero" fill="#c9c9c9" stroke="none" transform="matrix(1 0 0 1 2488 39 )" />
  </g>
</svg>