<?xml version="1.0" encoding="UTF-8"?>
<svg width="1906px" height="535px" viewBox="0 0 1906 535" version="1.1" xmlns="http://www.w3.org/2000/svg" xmlns:xlink="http://www.w3.org/1999/xlink">
    <title>中心左2备份</title>
    <defs>
        <filter x="-0.6%" y="-29.3%" width="101.3%" height="158.5%" filterUnits="objectBoundingBox" id="filter-1">
            <feOffset dx="0" dy="2" in="SourceAlpha" result="shadowOffsetOuter1"></feOffset>
            <feGaussianBlur stdDeviation="2" in="shadowOffsetOuter1" result="shadowBlurOuter1"></feGaussianBlur>
            <feColorMatrix values="0 0 0 0 0.0117647059   0 0 0 0 0.392156863   0 0 0 0 0.419607843  0 0 0 0.252718839 0" type="matrix" in="shadowBlurOuter1" result="shadowMatrixOuter1"></feColorMatrix>
            <feMerge>
                <feMergeNode in="shadowMatrixOuter1"></feMergeNode>
                <feMergeNode in="SourceGraphic"></feMergeNode>
            </feMerge>
        </filter>
        <path d="M189.425867,13.7798437 L169.114964,0 L1.36120506,0 C0.644895889,0 0.0642125755,0.573635164 0.0642125755,1.28125 L0.0642125755,30.75 L0.0642125755,40.84625 C0.252056188,40.9452173 -0.148676852,41 0.0642125755,41 L1885.76722,41 C1886.48353,41 1887.06421,40.4263648 1887.06421,39.71875 L1887.06421,15.0610937 C1887.06421,14.3534789 1886.48353,13.7798437 1885.76722,13.7798437 L189.425867,13.7798437 Z" id="path-2"></path>
        <filter x="-1.4%" y="-63.4%" width="102.8%" height="226.8%" filterUnits="objectBoundingBox" id="filter-3">
            <feGaussianBlur stdDeviation="26" in="SourceAlpha" result="shadowBlurInner1"></feGaussianBlur>
            <feOffset dx="0" dy="0" in="shadowBlurInner1" result="shadowOffsetInner1"></feOffset>
            <feComposite in="shadowOffsetInner1" in2="SourceAlpha" operator="arithmetic" k2="-1" k3="1" result="shadowInnerInner1"></feComposite>
            <feColorMatrix values="0 0 0 0 1   0 0 0 0 1   0 0 0 0 1  0 0 0 0.787675498 0" type="matrix" in="shadowInnerInner1"></feColorMatrix>
        </filter>
        <linearGradient x1="0%" y1="50%" x2="100%" y2="50%" id="linearGradient-4">
            <stop stop-color="#237784" offset="0%"></stop>
            <stop stop-color="#8DC4CC" stop-opacity="0" offset="100%"></stop>
        </linearGradient>
        <filter x="-0.6%" y="-2.5%" width="101.3%" height="105.1%" filterUnits="objectBoundingBox" id="filter-5">
            <feOffset dx="0" dy="2" in="SourceAlpha" result="shadowOffsetOuter1"></feOffset>
            <feGaussianBlur stdDeviation="2" in="shadowOffsetOuter1" result="shadowBlurOuter1"></feGaussianBlur>
            <feColorMatrix values="0 0 0 0 0.0117647059   0 0 0 0 0.392156863   0 0 0 0 0.419607843  0 0 0 0.252718839 0" type="matrix" in="shadowBlurOuter1" result="shadowMatrixOuter1"></feColorMatrix>
            <feMerge>
                <feMergeNode in="shadowMatrixOuter1"></feMergeNode>
                <feMergeNode in="SourceGraphic"></feMergeNode>
            </feMerge>
        </filter>
        <linearGradient x1="50%" y1="0%" x2="50%" y2="100%" id="linearGradient-6">
            <stop stop-color="#4D7BA4" offset="0%"></stop>
            <stop stop-color="#FFFFFF" offset="100%"></stop>
        </linearGradient>
        <polygon id="path-7" points="8.64545455 4.40278008e-12 1782.33636 4.6072942e-12 1787.692 6 1831.37607 6 1836.66364 4.6072942e-12 1878.35455 4.6072942e-12 1887 7.3943662 1887 464.183099 1878.35455 471.577465 8.64545455 471.577465 1.29674049e-12 464.183099 1.45661261e-12 7.3943662"></polygon>
        <filter x="-1.4%" y="-5.5%" width="102.8%" height="111.0%" filterUnits="objectBoundingBox" id="filter-8">
            <feGaussianBlur stdDeviation="26" in="SourceAlpha" result="shadowBlurInner1"></feGaussianBlur>
            <feOffset dx="0" dy="0" in="shadowBlurInner1" result="shadowOffsetInner1"></feOffset>
            <feComposite in="shadowOffsetInner1" in2="SourceAlpha" operator="arithmetic" k2="-1" k3="1" result="shadowInnerInner1"></feComposite>
            <feColorMatrix values="0 0 0 0 1   0 0 0 0 1   0 0 0 0 1  0 0 0 0.787675498 0" type="matrix" in="shadowInnerInner1"></feColorMatrix>
        </filter>
    </defs>
    <g id="蓝色" stroke="none" stroke-width="1" fill="none" fill-rule="evenodd">
        <g id="人口档案" transform="translate(-7.000000, -539.000000)">
            <g id="中心左2备份" transform="translate(16.000000, 548.000000)">
                <g id="分组-1" filter="url(#filter-1)">
                    <g id="路径">
                        <use fill="#F2F7FC" fill-rule="evenodd" xlink:href="#path-2"></use>
                        <use fill="black" fill-opacity="1" filter="url(#filter-3)" xlink:href="#path-2"></use>
                    </g>
                    <path d="M206.236842,11.53125 L191.321429,0 L179,0 L193.915414,11.53125 L206.236842,11.53125 Z" id="路径" fill="#1F4E78" fill-rule="nonzero" opacity="0.4"></path>
                    <path d="M223.746241,11.53125 L208.830827,0 L196.509398,0 L211.424812,11.53125 L223.746241,11.53125 Z" id="路径" fill="#1F4E78" fill-rule="nonzero" opacity="0.6"></path>
                    <path d="M241.255639,11.53125 L226.340226,0 L214.018797,0 L228.934211,11.53125 L241.255639,11.53125 Z" id="路径" fill="#1F4E78" fill-rule="nonzero"></path>
                </g>
                <polygon id="矩形" fill="url(#linearGradient-4)" points="0 37 1553 37 1553 41 0 41"></polygon>
                <g id="编组-17备份" filter="url(#filter-5)" transform="translate(943.500000, 280.788732) scale(1, -1) translate(-943.500000, -280.788732) translate(0.000000, 45.000000)">
                    <g id="编组-4" transform="translate(1808.000000, 2.577465) scale(-1, 1) translate(-1808.000000, -2.577465) translate(1789.000000, 1.577465)" fill="#1F4E78">
                        <g id="编组-22" transform="translate(19.000000, 1.000000) scale(-1, 1) translate(-19.000000, -1.000000) ">
                            <polygon id="路径备份-5" transform="translate(32.000000, 1.000000) scale(-1, 1) translate(-32.000000, -1.000000) " points="26 0 37 0 38 2 27 2"></polygon>
                            <polygon id="路径备份-6" opacity="0.600000024" transform="translate(19.000000, 1.000000) scale(-1, 1) translate(-19.000000, -1.000000) " points="13 0 24 0 25 2 14 2"></polygon>
                            <polygon id="路径备份-7" opacity="0.600000024" transform="translate(6.000000, 1.000000) scale(-1, 1) translate(-6.000000, -1.000000) " points="-3.41060513e-13 0 11 0 12 2 1 2"></polygon>
                        </g>
                    </g>
                    <g id="路径备份-3">
                        <use fill="#F2F7FC" fill-rule="evenodd" xlink:href="#path-7"></use>
                        <use fill="black" fill-opacity="1" filter="url(#filter-8)" xlink:href="#path-7"></use>
                        <path stroke="url(#linearGradient-6)" stroke-width="1" d="M1836.88946,0.5 L1878.16989,0.5 L1886.5,7.62465764 L1886.5,463.952807 L1878.16989,471.077465 L8.83011271,471.077465 L0.5,463.952807 L0.5,7.62465764 L8.83011271,0.5 L1782.11245,0.5 L1787.46809,6.5 L1831.60189,6.5 L1836.88946,0.5 Z" stroke-linejoin="square"></path>
                    </g>
                </g>
            </g>
        </g>
    </g>
</svg>