<?xml version="1.0" encoding="UTF-8"?>
<svg width="1052px" height="495px" viewBox="0 0 1052 495" version="1.1" xmlns="http://www.w3.org/2000/svg" xmlns:xlink="http://www.w3.org/1999/xlink">
    <title>中心左1备份 2</title>
    <defs>
        <filter x="-1.2%" y="-29.3%" width="102.3%" height="158.5%" filterUnits="objectBoundingBox" id="filter-1">
            <feOffset dx="0" dy="2" in="SourceAlpha" result="shadowOffsetOuter1"></feOffset>
            <feGaussianBlur stdDeviation="2" in="shadowOffsetOuter1" result="shadowBlurOuter1"></feGaussianBlur>
            <feColorMatrix values="0 0 0 0 0.0117647059   0 0 0 0 0.392156863   0 0 0 0 0.419607843  0 0 0 0.252718839 0" type="matrix" in="shadowBlurOuter1" result="shadowMatrixOuter1"></feColorMatrix>
            <feMerge>
                <feMergeNode in="shadowMatrixOuter1"></feMergeNode>
                <feMergeNode in="SourceGraphic"></feMergeNode>
            </feMerge>
        </filter>
        <path d="M189.425867,13.7798437 L169.114964,0 L1.36120506,0 C0.644895889,0 0.0642125755,0.573635164 0.0642125755,1.28125 L0.0642125755,30.75 L0.0642125755,40.84625 C0.252056188,40.9452173 -0.148676852,41 0.0642125755,41 L1032.26722,41 C1032.98353,41 1033.56421,40.4263648 1033.56421,39.71875 L1033.56421,15.0610937 C1033.56421,14.3534789 1032.98353,13.7798437 1032.26722,13.7798437 L189.425867,13.7798437 Z" id="path-2"></path>
        <filter x="-2.5%" y="-63.4%" width="105.0%" height="226.8%" filterUnits="objectBoundingBox" id="filter-3">
            <feGaussianBlur stdDeviation="26" in="SourceAlpha" result="shadowBlurInner1"></feGaussianBlur>
            <feOffset dx="0" dy="0" in="shadowBlurInner1" result="shadowOffsetInner1"></feOffset>
            <feComposite in="shadowOffsetInner1" in2="SourceAlpha" operator="arithmetic" k2="-1" k3="1" result="shadowInnerInner1"></feComposite>
            <feColorMatrix values="0 0 0 0 1   0 0 0 0 1   0 0 0 0 1  0 0 0 0.787675498 0" type="matrix" in="shadowInnerInner1"></feColorMatrix>
        </filter>
        <linearGradient x1="0%" y1="50%" x2="100%" y2="50%" id="linearGradient-4">
            <stop stop-color="#1F4E78" offset="0%"></stop>
            <stop stop-color="#8DC4CC" stop-opacity="0" offset="100%"></stop>
        </linearGradient>
        <filter x="-1.2%" y="-2.8%" width="102.3%" height="105.6%" filterUnits="objectBoundingBox" id="filter-5">
            <feOffset dx="0" dy="2" in="SourceAlpha" result="shadowOffsetOuter1"></feOffset>
            <feGaussianBlur stdDeviation="2" in="shadowOffsetOuter1" result="shadowBlurOuter1"></feGaussianBlur>
            <feColorMatrix values="0 0 0 0 0.0117647059   0 0 0 0 0.392156863   0 0 0 0 0.419607843  0 0 0 0.252718839 0" type="matrix" in="shadowBlurOuter1" result="shadowMatrixOuter1"></feColorMatrix>
            <feMerge>
                <feMergeNode in="shadowMatrixOuter1"></feMergeNode>
                <feMergeNode in="SourceGraphic"></feMergeNode>
            </feMerge>
        </filter>
        <linearGradient x1="50%" y1="0%" x2="50%" y2="100%" id="linearGradient-6">
            <stop stop-color="#4D7BA4" offset="0%"></stop>
            <stop stop-color="#FFFFFF" offset="100%"></stop>
        </linearGradient>
        <polygon id="path-7" points="8.79090909 -2.69222145e-13 928.981818 6.87949697e-13 934.337453 6 978.021524 6 983.309091 6.87949697e-13 1025 6.87949697e-13 1033.64545 7.3943662 1033.5 424.605634 1024.85455 432 8.64545455 432 0 424.605634 0.145454545 7.3943662"></polygon>
        <filter x="-2.5%" y="-6.0%" width="105.0%" height="112.0%" filterUnits="objectBoundingBox" id="filter-8">
            <feGaussianBlur stdDeviation="26" in="SourceAlpha" result="shadowBlurInner1"></feGaussianBlur>
            <feOffset dx="0" dy="0" in="shadowBlurInner1" result="shadowOffsetInner1"></feOffset>
            <feComposite in="shadowOffsetInner1" in2="SourceAlpha" operator="arithmetic" k2="-1" k3="1" result="shadowInnerInner1"></feComposite>
            <feColorMatrix values="0 0 0 0 1   0 0 0 0 1   0 0 0 0 1  0 0 0 0.787675498 0" type="matrix" in="shadowInnerInner1"></feColorMatrix>
        </filter>
    </defs>
    <g id="蓝色" stroke="none" stroke-width="1" fill="none" fill-rule="evenodd">
        <g id="工单" transform="translate(-434.000000, -578.000000)">
            <g id="中心左1备份-2" transform="translate(443.000000, 587.000000)">
                <g id="分组-1" filter="url(#filter-1)">
                    <g id="路径">
                        <use fill="#F2F7FC" fill-rule="evenodd" xlink:href="#path-2"></use>
                        <use fill="black" fill-opacity="1" filter="url(#filter-3)" xlink:href="#path-2"></use>
                    </g>
                    <path d="M206.07925,11.53125 L191.163837,0 L178.842408,0 L193.757822,11.53125 L206.07925,11.53125 Z" id="路径" fill="#1F4E78" fill-rule="nonzero" opacity="0.4"></path>
                    <path d="M223.588649,11.53125 L208.673235,0 L196.351807,0 L211.26722,11.53125 L223.588649,11.53125 Z" id="路径" fill="#1F4E78" fill-rule="nonzero" opacity="0.6"></path>
                    <path d="M241.098047,11.53125 L226.182634,0 L213.861205,0 L228.776619,11.53125 L241.098047,11.53125 Z" id="路径" fill="#1F4E78" fill-rule="nonzero"></path>
                </g>
                <polygon id="矩形" fill="url(#linearGradient-4)" points="0 37 988.5 37 988.5 41 0 41"></polygon>
                <g id="编组-17备份" filter="url(#filter-5)" transform="translate(516.822727, 261.000000) scale(1, -1) translate(-516.822727, -261.000000) translate(0.000000, 45.000000)">
                    <g id="编组-4" transform="translate(954.645455, 2.605634) scale(-1, 1) translate(-954.645455, -2.605634) translate(935.645455, 1.605634)" fill="#1F4E78">
                        <g id="编组-22" transform="translate(19.000000, 1.000000) scale(-1, 1) translate(-19.000000, -1.000000) ">
                            <polygon id="路径备份-5" transform="translate(32.000000, 1.000000) scale(-1, 1) translate(-32.000000, -1.000000) " points="26 0 37 0 38 2 27 2"></polygon>
                            <polygon id="路径备份-6" opacity="0.600000024" transform="translate(19.000000, 1.000000) scale(-1, 1) translate(-19.000000, -1.000000) " points="13 0 24 0 25 2 14 2"></polygon>
                            <polygon id="路径备份-7" opacity="0.600000024" transform="translate(6.000000, 1.000000) scale(-1, 1) translate(-6.000000, -1.000000) " points="0 0 11 0 12 2 1 2"></polygon>
                        </g>
                    </g>
                    <g id="路径备份-3">
                        <use fill="#F2F7FC" fill-rule="evenodd" xlink:href="#path-7"></use>
                        <use fill="black" fill-opacity="1" filter="url(#filter-8)" xlink:href="#path-7"></use>
                        <path stroke="url(#linearGradient-6)" stroke-width="1" d="M8.97556725,0.5 L928.757907,0.5 L934.113542,6.5 L978.247344,6.5 L983.53491,0.5 L1024.81534,0.5 L1033.14537,7.62458897 L1033.00008,424.375274 L1024.66989,431.5 L8.83011271,431.5 L0.500080294,424.375411 L0.645374264,7.62472631 L8.97556725,0.5 Z" stroke-linejoin="square"></path>
                    </g>
                </g>
            </g>
        </g>
    </g>
</svg>