<?xml version="1.0" encoding="UTF-8"?>
<svg width="52px" height="52px" viewBox="0 0 52 52" version="1.1" xmlns="http://www.w3.org/2000/svg" xmlns:xlink="http://www.w3.org/1999/xlink">
    <title>供应商</title>
    <defs>
        <linearGradient x1="100%" y1="50%" x2="0%" y2="50%" id="linearGradient-1">
            <stop stop-color="#FDC437" offset="0%"></stop>
            <stop stop-color="#F7984D" offset="100%"></stop>
        </linearGradient>
        <radialGradient cx="50%" cy="50%" fx="50%" fy="50%" r="55.9668372%" id="radialGradient-2">
            <stop stop-color="#FFFFFF" stop-opacity="0.318427666" offset="0%"></stop>
            <stop stop-color="#FFFFFF" stop-opacity="0" offset="100%"></stop>
        </radialGradient>
        <linearGradient x1="50%" y1="0%" x2="50%" y2="100%" id="linearGradient-3">
            <stop stop-color="#FFFFFF" stop-opacity="0.4" offset="0%"></stop>
            <stop stop-color="#FFFFFF" offset="100%"></stop>
        </linearGradient>
    </defs>
    <g id="蓝色" stroke="none" stroke-width="1" fill="none" fill-rule="evenodd">
        <g id="工单切图" transform="translate(-1721.000000, -583.000000)">
            <g id="涉及部门备份-6" transform="translate(1706.000000, 565.000000)">
                <g id="供应商" transform="translate(16.000000, 19.000000)">
                    <rect id="矩形" stroke="#FF9B21" stroke-width="0.85621536" fill="url(#linearGradient-1)" fill-rule="nonzero" x="0" y="0" width="50" height="50" rx="2.4"></rect>
                    <g id="编组-13" transform="translate(6.000000, 6.000000)">
                        <path d="M19,3 C27.836556,3 35,10.163444 35,19 C35,27.836556 27.836556,35 19,35 C10.163444,35 3,27.836556 3,19 C3,10.163444 10.163444,3 19,3 Z M19,3.58181818 C10.4847733,3.58181818 3.58181818,10.4847733 3.58181818,19 C3.58181818,27.5152267 10.4847733,34.4181818 19,34.4181818 C27.5152267,34.4181818 34.4181818,27.5152267 34.4181818,19 C34.4181818,10.4847733 27.5152267,3.58181818 19,3.58181818 Z M19,4.74545455 C26.8725681,4.74545455 33.2545455,11.1274319 33.2545455,19 C33.2545455,26.8725681 26.8725681,33.2545455 19,33.2545455 C11.1274319,33.2545455 4.74545455,26.8725681 4.74545455,19 C4.74545455,11.1274319 11.1274319,4.74545455 19,4.74545455 Z M19,5.32727273 C11.4487612,5.32727273 5.32727273,11.4487612 5.32727273,19 C5.32727273,26.5512388 11.4487612,32.6727273 19,32.6727273 C26.5512388,32.6727273 32.6727273,26.5512388 32.6727273,19 C32.6727273,11.4487612 26.5512388,5.32727273 19,5.32727273 Z M19,6.49090909 C25.9085801,6.49090909 31.5090909,12.0914199 31.5090909,19 C31.5090909,25.9085801 25.9085801,31.5090909 19,31.5090909 C12.0914199,31.5090909 6.49090909,25.9085801 6.49090909,19 C6.49090909,12.0914199 12.0914199,6.49090909 19,6.49090909 Z M19,7.07272727 C12.4127492,7.07272727 7.07272727,12.4127492 7.07272727,19 C7.07272727,25.5872508 12.4127492,30.9272727 19,30.9272727 C25.5872508,30.9272727 30.9272727,25.5872508 30.9272727,19 C30.9272727,12.4127492 25.5872508,7.07272727 19,7.07272727 Z M19,8.23636364 C24.9445922,8.23636364 29.7636364,13.0554078 29.7636364,19 C29.7636364,24.9445922 24.9445922,29.7636364 19,29.7636364 C13.0554078,29.7636364 8.23636364,24.9445922 8.23636364,19 C8.23636364,13.0554078 13.0554078,8.23636364 19,8.23636364 Z M19,8.81818182 C13.3767371,8.81818182 8.81818182,13.3767371 8.81818182,19 C8.81818182,24.6232629 13.3767371,29.1818182 19,29.1818182 C24.6232629,29.1818182 29.1818182,24.6232629 29.1818182,19 C29.1818182,13.3767371 24.6232629,8.81818182 19,8.81818182 Z M19,9.98181818 C23.9806043,9.98181818 28.0181818,14.0193957 28.0181818,19 C28.0181818,23.9806043 23.9806043,28.0181818 19,28.0181818 C14.0193957,28.0181818 9.98181818,23.9806043 9.98181818,19 C9.98181818,14.0193957 14.0193957,9.98181818 19,9.98181818 Z M19,10.5636364 C14.340725,10.5636364 10.5636364,14.340725 10.5636364,19 C10.5636364,23.659275 14.340725,27.4363636 19,27.4363636 C23.659275,27.4363636 27.4363636,23.659275 27.4363636,19 C27.4363636,14.340725 23.659275,10.5636364 19,10.5636364 Z M19,11.7272727 C23.0166164,11.7272727 26.2727273,14.9833836 26.2727273,19 C26.2727273,23.0166164 23.0166164,26.2727273 19,26.2727273 C14.9833836,26.2727273 11.7272727,23.0166164 11.7272727,19 C11.7272727,14.9833836 14.9833836,11.7272727 19,11.7272727 Z M19,12.3090909 C15.3047129,12.3090909 12.3090909,15.3047129 12.3090909,19 C12.3090909,22.6952871 15.3047129,25.6909091 19,25.6909091 C22.6952871,25.6909091 25.6909091,22.6952871 25.6909091,19 C25.6909091,15.3047129 22.6952871,12.3090909 19,12.3090909 Z M19,13.4727273 C22.0526284,13.4727273 24.5272727,15.9473716 24.5272727,19 C24.5272727,22.0526284 22.0526284,24.5272727 19,24.5272727 C15.9473716,24.5272727 13.4727273,22.0526284 13.4727273,19 C13.4727273,15.9473716 15.9473716,13.4727273 19,13.4727273 Z M19,14.0545455 C16.2687009,14.0545455 14.0545455,16.2687009 14.0545455,19 C14.0545455,21.7312991 16.2687009,23.9454545 19,23.9454545 C21.7312991,23.9454545 23.9454545,21.7312991 23.9454545,19 C23.9454545,16.2687009 21.7312991,14.0545455 19,14.0545455 Z" id="形状结合" fill="url(#radialGradient-2)" fill-rule="nonzero" opacity="0.2"></path>
                        <circle id="椭圆形" stroke-opacity="0.2" stroke="#D4DAE9" stroke-width="2.4" cx="19" cy="19" r="19"></circle>
                        <path d="M1.75447925,11.0146736 C0.628468222,13.4423788 0,16.1477961 0,19 C0,29.4934102 8.50658975,38 19,38 C29.4934102,38 38,29.4934102 38,19 C38,8.50658975 29.4934102,0 19,0" id="路径" stroke="#FFFFFF" stroke-width="2.4" opacity="0.4" stroke-linecap="round" stroke-linejoin="round" fill-rule="nonzero"></path>
                    </g>
                    <g id="编组" transform="translate(15.000000, 15.000000)" fill="url(#linearGradient-3)" fill-rule="nonzero">
                        <path d="M14.4046854,6.52769712 C13.9361474,7.39725806 13.3419041,8.08618557 13.091922,8.27382031 C12.577673,8.66029184 12.1991286,8.86192916 11.6305978,8.86192916 C11.0849225,8.86192916 10.5678166,8.66589287 10.0878509,8.27382031 C9.72359116,7.9755651 9.12506249,7.31324252 8.68366546,6.48989013 C8.30226413,6.40307406 7.95228913,5.77575796 7.95228913,5.24365947 C7.95228913,5.01401696 8.01799871,4.8375843 8.12370546,4.70876048 C8.11824681,4.63513243 8.11538815,4.56134132 8.11513462,4.48751952 C8.11513462,3.76918656 7.88657952,3.24128886 8.01942718,2.60837172 C8.32797657,1.11289494 9.44218271,-0.145938058 11.6305978,0.0136914919 C12.1705592,0.0528987486 12.5762445,0.218129327 12.8490822,0.507982967 C13.5447468,0.558392299 14.0561388,0.736225216 14.3846868,1.04148172 C14.9017927,1.52037035 15.2631955,2.09587686 15.2631955,2.86741967 C15.2631955,3.36311141 15.1203485,4.07024229 15.051782,4.53932911 C15.2660524,4.68495606 15.3917577,4.96640815 15.3160488,5.35427995 C15.2046282,5.92138491 14.8103707,6.50249247 14.4046854,6.52769712 L14.4046854,6.52769712 Z M4.32826226,10.9147091 L1.99985715,10.9147091 L1.99985715,11.5168205 L3.88543675,11.5168205 C2.80551388,13.1859295 2.30554959,15.5187612 2.30554959,18.0952381 L0,18.0952381 L0,7.6325016 C0,7.272635 0.37425899,6.91136814 0.74851796,6.91136814 L6.6180987,6.91136814 C6.99235769,6.91136814 7.36661666,7.15221271 7.36661666,7.51347959 L7.36661666,9.04816362 C6.10527819,9.31701339 5.09963574,9.97513518 4.32683379,10.9147091 L4.32826226,10.9147091 Z M1.99985715,9.07756907 L1.99985715,9.67968052 L5.49532175,9.67968052 L5.49532175,9.07756907 L1.99985715,9.07756907 Z M11.5406042,9.45563903 L12.44054,10.1557686 L11.5434612,14.0540901 L10.6463824,10.1571689 L11.5406042,9.45423879 L11.5406042,9.45563903 Z M13.7875866,9.57186056 C19.2914792,9.57186056 19.908578,15.7049957 20,18.0308262 C16.2402686,18.0238249 13.4190415,18.0238249 11.5391758,18.0308262 C9.65931005,18.0378275 6.83951146,18.0588314 3.07835154,18.0952381 C3.12120563,17.5393352 3.2111992,16.7803947 3.34404686,15.8198169 C3.68116563,13.3819657 5.0039283,9.57186056 9.2321977,9.57186056 C9.25219628,9.57186056 10.0521391,11.9663037 11.6334548,16.7565903 C13.0433541,11.967704 13.7618742,9.57326082 13.7875866,9.5732608 L13.7875866,9.57186056 Z" id="形状"></path>
                    </g>
                </g>
            </g>
        </g>
    </g>
</svg>