<?xml version="1.0" encoding="UTF-8"?>
<svg width="54px" height="62px" viewBox="0 0 54 62" version="1.1" xmlns="http://www.w3.org/2000/svg" xmlns:xlink="http://www.w3.org/1999/xlink">
    <title>安防事件</title>
    <defs>
        <linearGradient x1="50%" y1="0%" x2="50%" y2="100%" id="linearGradient-1">
            <stop stop-color="#FF8183" offset="0%"></stop>
            <stop stop-color="#FF2627" offset="100%"></stop>
        </linearGradient>
    </defs>
    <g id="蓝色" stroke="none" stroke-width="1" fill="none" fill-rule="evenodd" opacity="0.400000006">
        <g id="地图模式-首页" transform="translate(-1833.000000, -985.000000)" fill="#FF2627">
            <g id="编组-11备份-2" transform="translate(1720.500000, 1008.000000) scale(1, -1) translate(-1720.500000, -1008.000000) translate(1554.000000, 968.000000)">
                <g id="形状结合" transform="translate(310.000000, 32.000000) scale(1, -1) translate(-310.000000, -32.000000) translate(279.777778, 1.777778)">
                    <path d="M52.8896445,52.8888889 C54.9761231,52.8888889 56.6675482,54.5802576 56.6675482,56.6666667 C56.6675482,58.7530757 54.9761231,60.4444444 52.8896445,60.4444444 L7.55479997,60.4444444 C5.46832137,60.4444444 3.77689627,58.7530757 3.77689627,56.6666667 C3.77689627,54.5802576 5.46832137,52.8888889 7.55479997,52.8888889 L52.8896445,52.8888889 Z M30.2222222,11.3333333 C40.6546152,11.3333333 49.1117408,19.7901769 49.1117408,30.2222222 L49.1117408,45.3333333 C49.1117408,47.4206815 47.4192399,49.1111111 45.3338371,49.1111111 L15.1106074,49.1111111 C13.0241288,49.1111111 11.3327037,47.4197424 11.3327037,45.3333333 L11.3327037,30.2222222 C11.3327037,19.7901769 19.7898292,11.3333333 30.2222222,11.3333333 Z M30.2222222,18.8888889 C23.9627864,18.8888889 18.8885111,23.9629951 18.8885111,30.2222222 C18.8885111,36.4814494 23.9627864,41.5555556 30.2222222,41.5555556 C34.2713673,41.5555556 38.0129316,39.3954345 40.0375042,35.8888889 C42.0620767,32.3823434 42.0620767,28.0621011 40.0375042,24.5555555 C38.0129316,21.0490099 34.2713673,18.8888889 30.2222222,18.8888889 Z M30.2222222,22.6666667 C34.3951794,22.6666667 37.7780296,26.0494041 37.7780296,30.2222222 C37.7780296,34.3950403 34.3951794,37.7777778 30.2222222,37.7777778 C26.049265,37.7777778 22.6664148,34.3950403 22.6664148,30.2222222 C22.6664148,26.0494041 26.049265,22.6666667 30.2222222,22.6666667 Z M58.5554926,26.4444444 C59.5987319,26.4444444 60.4444444,27.2901288 60.4444444,28.3333333 C60.4444444,29.3765379 59.5987319,30.2222222 58.5554926,30.2222222 L54.7796038,30.2222222 C53.7363645,30.2222222 52.8906519,29.3765379 52.8906519,28.3333333 C52.8906519,27.2901288 53.7363645,26.4444444 54.7796038,26.4444444 L58.5554926,26.4444444 Z M5.66484068,26.4444444 C6.70807998,26.4444444 7.55379253,27.2901288 7.55379253,28.3333333 C7.55379253,29.3765379 6.70807998,30.2222222 5.66484068,30.2222222 L1.88895185,30.2222222 C0.845712552,30.2222222 0,29.3765379 0,28.3333333 C0,27.2901288 0.845712552,26.4444444 1.88895185,26.4444444 L5.66484068,26.4444444 Z M50.6773041,5.66767407 L51.4590783,6.44942222 C51.9598506,6.95008857 52.241189,7.62919144 52.241189,8.3373037 C52.241189,9.04541597 51.9598506,9.72451884 51.4590783,10.2251852 L49.3414373,12.3447704 C48.868933,12.844819 48.1620142,13.0486153 47.4958183,12.8768405 C46.8296223,12.7050657 46.3093965,12.1848572 46.1376159,11.5186834 C45.9658354,10.8525097 46.1696385,10.1456145 46.6697038,9.67312593 L50.6752892,5.66767407 Z M11.1070369,7.00148148 L13.7807853,9.67514074 C14.5180077,10.412895 14.5175567,11.6085799 13.7797778,12.3457778 C13.041999,13.0829756 11.8462742,13.0825246 11.1090518,12.3447704 L8.43731828,9.67312593 C8.0827162,9.31900749 7.88346312,8.83843654 7.88346312,8.3373037 C7.88346312,7.83617087 8.0827162,7.35559992 8.43731828,7.00148148 C9.17457921,6.26437653 10.369776,6.26437653 11.1070369,7.00148148 Z M30.2222222,0 C31.2659311,0 32.1121815,0.846222222 32.1121815,1.8898963 L32.1121815,5.66565926 C32.1121815,6.70942016 31.2660179,7.55555556 30.2222222,7.55555556 C29.1784265,7.55555556 28.3322629,6.70942016 28.3322629,5.66565926 L28.3322629,1.8898963 C28.3322629,0.846222222 29.1785134,0 30.2222222,0 Z"></path>
                </g>
            </g>
        </g>
    </g>
</svg>