<?xml version="1.0" encoding="UTF-8"?>
<svg width="599px" height="257px" viewBox="0 0 599 257" version="1.1" xmlns="http://www.w3.org/2000/svg" xmlns:xlink="http://www.w3.org/1999/xlink">
    <title>左1备份</title>
    <defs>
        <filter x="-2.1%" y="-29.0%" width="104.1%" height="157.9%" filterUnits="objectBoundingBox" id="filter-1">
            <feOffset dx="0" dy="2" in="SourceAlpha" result="shadowOffsetOuter1"></feOffset>
            <feGaussianBlur stdDeviation="2" in="shadowOffsetOuter1" result="shadowBlurOuter1"></feGaussianBlur>
            <feColorMatrix values="0 0 0 0 0.0117647059   0 0 0 0 0.392156863   0 0 0 0 0.419607843  0 0 0 0.252718839 0" type="matrix" in="shadowBlurOuter1" result="shadowMatrixOuter1"></feColorMatrix>
            <feMerge>
                <feMergeNode in="shadowMatrixOuter1"></feMergeNode>
                <feMergeNode in="SourceGraphic"></feMergeNode>
            </feMerge>
        </filter>
        <path d="M189.425867,14.2095974 L169.114964,0.429753689 L1.36120506,0.429753689 C0.644895889,0.429753689 0.0642125755,1.00338885 0.0642125755,1.71100369 L0.0642125755,31.1797537 L0.0642125755,41.2760037 C0.252056188,41.374971 -0.148676852,41.4297537 0.0642125755,41.4297537 L578.76722,41.4297537 C579.483529,41.4297537 580.064213,40.8561185 580.064213,40.1485037 L580.064213,15.4908474 C580.064213,14.7832326 579.483529,14.2095974 578.76722,14.2095974 L189.425867,14.2095974 Z" id="path-2"></path>
        <filter x="-4.5%" y="-63.4%" width="109.0%" height="226.8%" filterUnits="objectBoundingBox" id="filter-3">
            <feGaussianBlur stdDeviation="26" in="SourceAlpha" result="shadowBlurInner1"></feGaussianBlur>
            <feOffset dx="0" dy="0" in="shadowBlurInner1" result="shadowOffsetInner1"></feOffset>
            <feComposite in="shadowOffsetInner1" in2="SourceAlpha" operator="arithmetic" k2="-1" k3="1" result="shadowInnerInner1"></feComposite>
            <feColorMatrix values="0 0 0 0 1   0 0 0 0 1   0 0 0 0 1  0 0 0 0.787675498 0" type="matrix" in="shadowInnerInner1"></feColorMatrix>
        </filter>
        <linearGradient x1="0%" y1="50%" x2="100%" y2="50%" id="linearGradient-4">
            <stop stop-color="#237784" offset="0%"></stop>
            <stop stop-color="#8DC4CC" stop-opacity="0" offset="100%"></stop>
        </linearGradient>
        <filter x="-2.1%" y="-6.2%" width="104.1%" height="112.5%" filterUnits="objectBoundingBox" id="filter-5">
            <feOffset dx="0" dy="2" in="SourceAlpha" result="shadowOffsetOuter1"></feOffset>
            <feGaussianBlur stdDeviation="2" in="shadowOffsetOuter1" result="shadowBlurOuter1"></feGaussianBlur>
            <feColorMatrix values="0 0 0 0 0.0117647059   0 0 0 0 0.392156863   0 0 0 0 0.419607843  0 0 0 0.252718839 0" type="matrix" in="shadowBlurOuter1" result="shadowMatrixOuter1"></feColorMatrix>
            <feMerge>
                <feMergeNode in="shadowMatrixOuter1"></feMergeNode>
                <feMergeNode in="SourceGraphic"></feMergeNode>
            </feMerge>
        </filter>
        <linearGradient x1="50%" y1="0%" x2="50%" y2="100%" id="linearGradient-6">
            <stop stop-color="#4D7BA4" offset="0%"></stop>
            <stop stop-color="#FFFFFF" offset="100%"></stop>
        </linearGradient>
        <polygon id="path-7" points="8.64545455 5.08992669e-12 475.336364 5.08992669e-12 480.691999 6 524.37607 6 529.663636 5.08992669e-12 571.418758 3.95274489e-12 580.064213 7.3943662 580.064213 185.183099 571.418758 192.577465 8.64545455 192.577465 1.29674049e-12 185.183099 1.77672686e-12 7.3943662"></polygon>
        <filter x="-4.5%" y="-13.5%" width="109.0%" height="127.0%" filterUnits="objectBoundingBox" id="filter-8">
            <feGaussianBlur stdDeviation="26" in="SourceAlpha" result="shadowBlurInner1"></feGaussianBlur>
            <feOffset dx="0" dy="0" in="shadowBlurInner1" result="shadowOffsetInner1"></feOffset>
            <feComposite in="shadowOffsetInner1" in2="SourceAlpha" operator="arithmetic" k2="-1" k3="1" result="shadowInnerInner1"></feComposite>
            <feColorMatrix values="0 0 0 0 1   0 0 0 0 1   0 0 0 0 1  0 0 0 0.787675498 0" type="matrix" in="shadowInnerInner1"></feColorMatrix>
        </filter>
    </defs>
    <g id="蓝色" stroke="none" stroke-width="1" fill="none" fill-rule="evenodd">
        <g id="长者服务信息切图" transform="translate(-1312.000000, -86.000000)">
            <g id="左1备份" transform="translate(1321.000000, 95.000000)">
                <g id="分组-1" filter="url(#filter-1)">
                    <g id="路径">
                        <use fill="#F2F7FC" fill-rule="evenodd" xlink:href="#path-2"></use>
                        <use fill="black" fill-opacity="1" filter="url(#filter-3)" xlink:href="#path-2"></use>
                    </g>
                    <path d="M206.236842,11.53125 L191.321429,0 L179,0 L193.915414,11.53125 L206.236842,11.53125 Z" id="路径" fill="#1F4E78" fill-rule="nonzero" opacity="0.4"></path>
                    <path d="M223.746241,11.53125 L208.830827,0 L196.509398,0 L211.424812,11.53125 L223.746241,11.53125 Z" id="路径" fill="#1F4E78" fill-rule="nonzero" opacity="0.6"></path>
                    <path d="M241.255639,11.53125 L226.340226,0 L214.018797,0 L228.934211,11.53125 L241.255639,11.53125 Z" id="路径" fill="#1F4E78" fill-rule="nonzero"></path>
                </g>
                <polygon id="矩形" fill="url(#linearGradient-4)" points="0 40.4297537 365 40.4297537 365 41.4297537 0 41.4297537"></polygon>
                <g id="编组-17备份" filter="url(#filter-5)" transform="translate(290.032106, 142.141021) scale(1, -1) translate(-290.032106, -142.141021) translate(0.000000, 45.852289)">
                    <g id="编组-4" transform="translate(501.000000, 3.429754) scale(-1, 1) translate(-501.000000, -3.429754) translate(482.000000, 2.429754)" fill="#1F4E78">
                        <g id="编组-22" transform="translate(19.000000, 1.000000) scale(-1, 1) translate(-19.000000, -1.000000) ">
                            <polygon id="路径备份-5" transform="translate(32.000000, 1.000000) scale(-1, 1) translate(-32.000000, -1.000000) " points="26 0 37 0 38 2 27 2"></polygon>
                            <polygon id="路径备份-6" opacity="0.600000024" transform="translate(19.000000, 1.000000) scale(-1, 1) translate(-19.000000, -1.000000) " points="13 0 24 0 25 2 14 2"></polygon>
                            <polygon id="路径备份-7" opacity="0.600000024" transform="translate(6.000000, 1.000000) scale(-1, 1) translate(-6.000000, -1.000000) " points="-3.41060513e-13 0 11 0 12 2 1 2"></polygon>
                        </g>
                    </g>
                    <g id="路径备份-3">
                        <use fill="#F2F7FC" fill-rule="evenodd" xlink:href="#path-7"></use>
                        <use fill="black" fill-opacity="1" filter="url(#filter-8)" xlink:href="#path-7"></use>
                        <path stroke="url(#linearGradient-6)" stroke-width="1" d="M475.112453,0.5 L480.468088,6.5 L524.601889,6.5 L529.889456,0.5 L571.2341,0.5 L579.564213,7.62465764 L579.564213,184.952807 L571.2341,192.077465 L8.83011271,192.077465 L0.5,184.952807 L0.5,7.62465764 L8.83011271,0.5 L475.112453,0.5 Z" stroke-linejoin="square"></path>
                    </g>
                </g>
            </g>
        </g>
    </g>
</svg>