<?xml version="1.0" encoding="UTF-8"?>
<svg width="50px" height="50px" viewBox="0 0 50 50" version="1.1" xmlns="http://www.w3.org/2000/svg" xmlns:xlink="http://www.w3.org/1999/xlink">
    <title>已回访</title>
    <defs>
        <linearGradient x1="-1.11022302e-14%" y1="50%" x2="99.8759502%" y2="50%" id="linearGradient-1">
            <stop stop-color="#2198D6" offset="0%"></stop>
            <stop stop-color="#51BDF5" offset="100%"></stop>
        </linearGradient>
        <radialGradient cx="50%" cy="50%" fx="50%" fy="50%" r="55.9668372%" id="radialGradient-2">
            <stop stop-color="#FFFFFF" stop-opacity="0.318427666" offset="0%"></stop>
            <stop stop-color="#FFFFFF" stop-opacity="0" offset="100%"></stop>
        </radialGradient>
        <linearGradient x1="50%" y1="0%" x2="50%" y2="100%" id="linearGradient-3">
            <stop stop-color="#FFFFFF" stop-opacity="0.4" offset="0%"></stop>
            <stop stop-color="#FFFFFF" offset="100%"></stop>
        </linearGradient>
    </defs>
    <g id="蓝色" stroke="none" stroke-width="1" fill="none" fill-rule="evenodd">
        <g id="工单切图" transform="translate(-1524.000000, -402.000000)">
            <g id="涉及部门备份-8" transform="translate(1508.000000, 383.000000)">
                <g id="已回访" transform="translate(16.000000, 19.000000)">
                    <rect id="矩形" stroke="#1987C0" stroke-width="0.6" fill="url(#linearGradient-1)" fill-rule="nonzero" x="0.3" y="0.3" width="49.4" height="49.4" rx="2.4"></rect>
                    <g id="编组-13" transform="translate(6.000000, 6.000000)">
                        <path d="M19,3 C27.836556,3 35,10.163444 35,19 C35,27.836556 27.836556,35 19,35 C10.163444,35 3,27.836556 3,19 C3,10.163444 10.163444,3 19,3 Z M19,3.58181818 C10.4847733,3.58181818 3.58181818,10.4847733 3.58181818,19 C3.58181818,27.5152267 10.4847733,34.4181818 19,34.4181818 C27.5152267,34.4181818 34.4181818,27.5152267 34.4181818,19 C34.4181818,10.4847733 27.5152267,3.58181818 19,3.58181818 Z M19,4.74545455 C26.8725681,4.74545455 33.2545455,11.1274319 33.2545455,19 C33.2545455,26.8725681 26.8725681,33.2545455 19,33.2545455 C11.1274319,33.2545455 4.74545455,26.8725681 4.74545455,19 C4.74545455,11.1274319 11.1274319,4.74545455 19,4.74545455 Z M19,5.32727273 C11.4487612,5.32727273 5.32727273,11.4487612 5.32727273,19 C5.32727273,26.5512388 11.4487612,32.6727273 19,32.6727273 C26.5512388,32.6727273 32.6727273,26.5512388 32.6727273,19 C32.6727273,11.4487612 26.5512388,5.32727273 19,5.32727273 Z M19,6.49090909 C25.9085801,6.49090909 31.5090909,12.0914199 31.5090909,19 C31.5090909,25.9085801 25.9085801,31.5090909 19,31.5090909 C12.0914199,31.5090909 6.49090909,25.9085801 6.49090909,19 C6.49090909,12.0914199 12.0914199,6.49090909 19,6.49090909 Z M19,7.07272727 C12.4127492,7.07272727 7.07272727,12.4127492 7.07272727,19 C7.07272727,25.5872508 12.4127492,30.9272727 19,30.9272727 C25.5872508,30.9272727 30.9272727,25.5872508 30.9272727,19 C30.9272727,12.4127492 25.5872508,7.07272727 19,7.07272727 Z M19,8.23636364 C24.9445922,8.23636364 29.7636364,13.0554078 29.7636364,19 C29.7636364,24.9445922 24.9445922,29.7636364 19,29.7636364 C13.0554078,29.7636364 8.23636364,24.9445922 8.23636364,19 C8.23636364,13.0554078 13.0554078,8.23636364 19,8.23636364 Z M19,8.81818182 C13.3767371,8.81818182 8.81818182,13.3767371 8.81818182,19 C8.81818182,24.6232629 13.3767371,29.1818182 19,29.1818182 C24.6232629,29.1818182 29.1818182,24.6232629 29.1818182,19 C29.1818182,13.3767371 24.6232629,8.81818182 19,8.81818182 Z M19,9.98181818 C23.9806043,9.98181818 28.0181818,14.0193957 28.0181818,19 C28.0181818,23.9806043 23.9806043,28.0181818 19,28.0181818 C14.0193957,28.0181818 9.98181818,23.9806043 9.98181818,19 C9.98181818,14.0193957 14.0193957,9.98181818 19,9.98181818 Z M19,10.5636364 C14.340725,10.5636364 10.5636364,14.340725 10.5636364,19 C10.5636364,23.659275 14.340725,27.4363636 19,27.4363636 C23.659275,27.4363636 27.4363636,23.659275 27.4363636,19 C27.4363636,14.340725 23.659275,10.5636364 19,10.5636364 Z M19,11.7272727 C23.0166164,11.7272727 26.2727273,14.9833836 26.2727273,19 C26.2727273,23.0166164 23.0166164,26.2727273 19,26.2727273 C14.9833836,26.2727273 11.7272727,23.0166164 11.7272727,19 C11.7272727,14.9833836 14.9833836,11.7272727 19,11.7272727 Z M19,12.3090909 C15.3047129,12.3090909 12.3090909,15.3047129 12.3090909,19 C12.3090909,22.6952871 15.3047129,25.6909091 19,25.6909091 C22.6952871,25.6909091 25.6909091,22.6952871 25.6909091,19 C25.6909091,15.3047129 22.6952871,12.3090909 19,12.3090909 Z M19,13.4727273 C22.0526284,13.4727273 24.5272727,15.9473716 24.5272727,19 C24.5272727,22.0526284 22.0526284,24.5272727 19,24.5272727 C15.9473716,24.5272727 13.4727273,22.0526284 13.4727273,19 C13.4727273,15.9473716 15.9473716,13.4727273 19,13.4727273 Z M19,14.0545455 C16.2687009,14.0545455 14.0545455,16.2687009 14.0545455,19 C14.0545455,21.7312991 16.2687009,23.9454545 19,23.9454545 C21.7312991,23.9454545 23.9454545,21.7312991 23.9454545,19 C23.9454545,16.2687009 21.7312991,14.0545455 19,14.0545455 Z" id="形状结合" fill="url(#radialGradient-2)" fill-rule="nonzero" opacity="0.2"></path>
                        <circle id="椭圆形" stroke-opacity="0.2" stroke="#D4DAE9" stroke-width="2.4" cx="19" cy="19" r="19"></circle>
                        <path d="M1.75447925,11.0146736 C0.628468222,13.4423788 0,16.1477961 0,19 C0,29.4934102 8.50658975,38 19,38 C29.4934102,38 38,29.4934102 38,19 C38,8.50658975 29.4934102,0 19,0" id="路径" stroke="#FFFFFF" stroke-width="2.4" opacity="0.4" stroke-linecap="round" stroke-linejoin="round" fill-rule="nonzero"></path>
                    </g>
                    <g id="编组" transform="translate(17.000000, 17.000000)" fill="url(#linearGradient-3)" fill-rule="nonzero">
                        <path d="M9.22780011,12.0285578 C11.1028082,10.8706808 11.0577715,10.4685407 11.9762756,10.9885464 C15.1847949,12.8009535 15.0512679,14.0016419 14.971222,14.2975597 C14.6498071,15.4604522 12.5511984,16.402302 10.2613592,15.8255131 C7.82621324,15.2137599 5.59562053,13.9511481 3.79998757,12.1680978 C2.03827352,10.3695223 0.785251223,8.12070212 0.172766918,5.65826399 C-0.398637325,3.3484212 0.534996394,1.23651375 1.6899437,0.910681718 C1.98356245,0.827745913 3.17562992,0.695371052 4.9727033,3.92449366 C5.48622824,4.85541673 5.09127672,4.81170974 3.94407011,6.69827541 C3.40626753,7.58047593 4.28483674,8.77758174 4.28483674,8.77758174 C4.28483674,8.77758174 4.88491675,9.72588013 5.55343157,10.4022637 C6.22335378,11.0800803 7.16631152,11.6801558 7.16631152,11.6801558 C7.16490413,11.6801558 8.3534531,12.5645059 9.22780011,12.0292743 L9.22780011,12.0285578 L9.22780011,12.0285578 Z M10.7975785,0 C13.0559271,0 14.886954,1.45863124 14.886954,3.25778293 C14.886954,5.05693462 13.0559271,6.51538673 10.7975785,6.51538673 C10.7975785,6.51538673 9.3567531,7.63708006 7.68282718,7.52942473 C8.59394251,6.88205972 8.59165548,6.0243996 8.24156483,5.80084909 C7.30669964,5.20381876 6.70820295,4.28650935 6.70820295,3.25778293 C6.70820295,1.45863124 8.53922985,0 10.7975785,0 L10.7975785,0 Z M8.93294989,3.90496881 C9.28392017,3.90496881 9.56856674,3.61514131 9.56856674,3.25778293 C9.56856674,2.90042454 9.28392017,2.61059704 8.93294989,2.61059704 C8.58197961,2.61059704 8.29733304,2.90042454 8.29733304,3.25778293 C8.29733304,3.61514131 8.58197961,3.90496881 8.93294989,3.90496881 Z M10.7975785,3.90496881 C11.1420395,3.90031151 11.4200009,3.61711171 11.4247509,3.26656015 C11.4295009,2.90902264 11.1487247,2.61543347 10.7977544,2.61059704 L10.7806897,2.61059704 C10.4295435,2.61543347 10.1487672,2.90902264 10.1535172,3.26656015 C10.1580913,3.62373941 10.4464323,3.90962612 10.7975785,3.90496881 Z M12.662207,3.90496881 C13.0131773,3.90496881 13.2978239,3.61514131 13.2978239,3.25778293 C13.2978239,2.90042454 13.0131773,2.61059704 12.662207,2.61059704 C12.3112367,2.61059704 12.0265902,2.90042454 12.0265902,3.25778293 C12.0265902,3.61514131 12.3110608,3.90496881 12.662207,3.90496881 Z" id="形状"></path>
                    </g>
                </g>
            </g>
        </g>
    </g>
</svg>