<?xml version="1.0" encoding="UTF-8"?>
<svg width="52px" height="52px" viewBox="0 0 52 52" version="1.1" xmlns="http://www.w3.org/2000/svg" xmlns:xlink="http://www.w3.org/1999/xlink">
    <title>已完成</title>
    <defs>
        <linearGradient x1="100%" y1="50%" x2="0%" y2="50%" id="linearGradient-1">
            <stop stop-color="#FDC437" offset="0%"></stop>
            <stop stop-color="#F7984D" offset="100%"></stop>
        </linearGradient>
        <radialGradient cx="50%" cy="50%" fx="50%" fy="50%" r="55.9668372%" id="radialGradient-2">
            <stop stop-color="#FFFFFF" stop-opacity="0.318427666" offset="0%"></stop>
            <stop stop-color="#FFFFFF" stop-opacity="0" offset="100%"></stop>
        </radialGradient>
        <linearGradient x1="50%" y1="0%" x2="50%" y2="100%" id="linearGradient-3">
            <stop stop-color="#FFFFFF" stop-opacity="0.4" offset="0%"></stop>
            <stop stop-color="#FFFFFF" offset="100%"></stop>
        </linearGradient>
        <linearGradient x1="50%" y1="0%" x2="50%" y2="100%" id="linearGradient-4">
            <stop stop-color="#FFFFFF" stop-opacity="0.4" offset="0%"></stop>
            <stop stop-color="#FFFFFF" offset="100%"></stop>
        </linearGradient>
    </defs>
    <g id="蓝色" stroke="none" stroke-width="1" fill="none" fill-rule="evenodd">
        <g id="工单切图" transform="translate(-1721.000000, -297.000000)">
            <g id="涉及部门备份-3" transform="translate(1706.000000, 279.000000)">
                <g id="已完成" transform="translate(16.000000, 19.000000)">
                    <rect id="矩形" stroke="#FF9B21" stroke-width="0.85621536" fill="url(#linearGradient-1)" fill-rule="nonzero" x="0" y="0" width="50" height="50" rx="2.4"></rect>
                    <g id="编组-13" transform="translate(6.000000, 6.000000)">
                        <path d="M19,3 C27.836556,3 35,10.163444 35,19 C35,27.836556 27.836556,35 19,35 C10.163444,35 3,27.836556 3,19 C3,10.163444 10.163444,3 19,3 Z M19,3.58181818 C10.4847733,3.58181818 3.58181818,10.4847733 3.58181818,19 C3.58181818,27.5152267 10.4847733,34.4181818 19,34.4181818 C27.5152267,34.4181818 34.4181818,27.5152267 34.4181818,19 C34.4181818,10.4847733 27.5152267,3.58181818 19,3.58181818 Z M19,4.74545455 C26.8725681,4.74545455 33.2545455,11.1274319 33.2545455,19 C33.2545455,26.8725681 26.8725681,33.2545455 19,33.2545455 C11.1274319,33.2545455 4.74545455,26.8725681 4.74545455,19 C4.74545455,11.1274319 11.1274319,4.74545455 19,4.74545455 Z M19,5.32727273 C11.4487612,5.32727273 5.32727273,11.4487612 5.32727273,19 C5.32727273,26.5512388 11.4487612,32.6727273 19,32.6727273 C26.5512388,32.6727273 32.6727273,26.5512388 32.6727273,19 C32.6727273,11.4487612 26.5512388,5.32727273 19,5.32727273 Z M19,6.49090909 C25.9085801,6.49090909 31.5090909,12.0914199 31.5090909,19 C31.5090909,25.9085801 25.9085801,31.5090909 19,31.5090909 C12.0914199,31.5090909 6.49090909,25.9085801 6.49090909,19 C6.49090909,12.0914199 12.0914199,6.49090909 19,6.49090909 Z M19,7.07272727 C12.4127492,7.07272727 7.07272727,12.4127492 7.07272727,19 C7.07272727,25.5872508 12.4127492,30.9272727 19,30.9272727 C25.5872508,30.9272727 30.9272727,25.5872508 30.9272727,19 C30.9272727,12.4127492 25.5872508,7.07272727 19,7.07272727 Z M19,8.23636364 C24.9445922,8.23636364 29.7636364,13.0554078 29.7636364,19 C29.7636364,24.9445922 24.9445922,29.7636364 19,29.7636364 C13.0554078,29.7636364 8.23636364,24.9445922 8.23636364,19 C8.23636364,13.0554078 13.0554078,8.23636364 19,8.23636364 Z M19,8.81818182 C13.3767371,8.81818182 8.81818182,13.3767371 8.81818182,19 C8.81818182,24.6232629 13.3767371,29.1818182 19,29.1818182 C24.6232629,29.1818182 29.1818182,24.6232629 29.1818182,19 C29.1818182,13.3767371 24.6232629,8.81818182 19,8.81818182 Z M19,9.98181818 C23.9806043,9.98181818 28.0181818,14.0193957 28.0181818,19 C28.0181818,23.9806043 23.9806043,28.0181818 19,28.0181818 C14.0193957,28.0181818 9.98181818,23.9806043 9.98181818,19 C9.98181818,14.0193957 14.0193957,9.98181818 19,9.98181818 Z M19,10.5636364 C14.340725,10.5636364 10.5636364,14.340725 10.5636364,19 C10.5636364,23.659275 14.340725,27.4363636 19,27.4363636 C23.659275,27.4363636 27.4363636,23.659275 27.4363636,19 C27.4363636,14.340725 23.659275,10.5636364 19,10.5636364 Z M19,11.7272727 C23.0166164,11.7272727 26.2727273,14.9833836 26.2727273,19 C26.2727273,23.0166164 23.0166164,26.2727273 19,26.2727273 C14.9833836,26.2727273 11.7272727,23.0166164 11.7272727,19 C11.7272727,14.9833836 14.9833836,11.7272727 19,11.7272727 Z M19,12.3090909 C15.3047129,12.3090909 12.3090909,15.3047129 12.3090909,19 C12.3090909,22.6952871 15.3047129,25.6909091 19,25.6909091 C22.6952871,25.6909091 25.6909091,22.6952871 25.6909091,19 C25.6909091,15.3047129 22.6952871,12.3090909 19,12.3090909 Z M19,13.4727273 C22.0526284,13.4727273 24.5272727,15.9473716 24.5272727,19 C24.5272727,22.0526284 22.0526284,24.5272727 19,24.5272727 C15.9473716,24.5272727 13.4727273,22.0526284 13.4727273,19 C13.4727273,15.9473716 15.9473716,13.4727273 19,13.4727273 Z M19,14.0545455 C16.2687009,14.0545455 14.0545455,16.2687009 14.0545455,19 C14.0545455,21.7312991 16.2687009,23.9454545 19,23.9454545 C21.7312991,23.9454545 23.9454545,21.7312991 23.9454545,19 C23.9454545,16.2687009 21.7312991,14.0545455 19,14.0545455 Z" id="形状结合" fill="url(#radialGradient-2)" fill-rule="nonzero" opacity="0.2"></path>
                        <circle id="椭圆形" stroke-opacity="0.2" stroke="#D4DAE9" stroke-width="2.4" cx="19" cy="19" r="19"></circle>
                        <path d="M1.75447925,11.0146736 C0.628468222,13.4423788 0,16.1477961 0,19 C0,29.4934102 8.50658975,38 19,38 C29.4934102,38 38,29.4934102 38,19 C38,8.50658975 29.4934102,0 19,0" id="路径" stroke="#FFFFFF" stroke-width="2.4" opacity="0.4" stroke-linecap="round" stroke-linejoin="round" fill-rule="nonzero"></path>
                    </g>
                    <g id="编组" transform="translate(17.000000, 17.000000)" fill-rule="nonzero">
                        <path d="M11.52,5.92 C12,5.92 12.48,6 12.96,6.08 L12.96,1.2 C12.88,0.56 12.4,0 11.76,0 L1.2,0 C0.56,0 0,0.56 0,1.2 L0,13.52 C0,14.16 0.56,14.72 1.2,14.72 L6.96,14.72 C6.32,13.76 5.92,12.64 5.92,11.52 C5.92,8.4 8.4,5.92 11.52,5.92 Z M2.984,2.4 L9.968,2.4 C10.296,2.4 10.552,2.664 10.552,2.984 C10.552,3.312 10.288,3.568 9.968,3.568 L2.984,3.568 C2.656,3.568 2.4,3.304 2.4,2.984 C2.4,2.664 2.664,2.4 2.984,2.4 Z M4.136,10.584 L2.984,10.584 C2.656,10.584 2.4,10.32 2.4,10 C2.4,9.68 2.664,9.416 2.984,9.416 L4.128,9.416 C4.456,9.416 4.712,9.68 4.712,10 C4.712,10.32 4.456,10.584 4.136,10.584 Z M5.256,7.096 L2.984,7.096 C2.656,7.096 2.4,6.832 2.4,6.512 C2.4,6.184 2.664,5.928 2.984,5.928 L5.248,5.928 C5.576,5.928 5.832,6.192 5.832,6.512 C5.84,6.832 5.576,7.096 5.256,7.096 L5.256,7.096 Z" id="形状" fill="url(#linearGradient-3)"></path>
                        <path d="M11.6,7.2 C9.2,7.2 7.2,9.2 7.2,11.6 C7.2,14 9.2,16 11.6,16 C14,16 16,14 16,11.6 C16,9.2 14,7.2 11.6,7.2 L11.6,7.2 Z M14.216,10.648 L11.48,13.384 C11.248,13.616 10.88,13.616 10.648,13.384 L10.64,13.376 L10.632,13.368 L8.976,11.712 C8.744,11.48 8.744,11.112 8.976,10.88 C9.208,10.648 9.576,10.648 9.808,10.88 L11.064,12.136 L13.384,9.816 C13.616,9.584 13.984,9.584 14.216,9.816 C14.448,10.048 14.448,10.416 14.216,10.648 L14.216,10.648 Z" id="形状" fill="url(#linearGradient-4)"></path>
                    </g>
                </g>
            </g>
        </g>
    </g>
</svg>