<?xml version="1.0" encoding="UTF-8"?>
<svg width="50px" height="50px" viewBox="0 0 50 50" version="1.1" xmlns="http://www.w3.org/2000/svg" xmlns:xlink="http://www.w3.org/1999/xlink">
    <title>已开始</title>
    <defs>
        <linearGradient x1="100%" y1="50%" x2="0%" y2="50%" id="linearGradient-1">
            <stop stop-color="#4CCFB8" offset="0%"></stop>
            <stop stop-color="#11C2B8" offset="100%"></stop>
        </linearGradient>
        <radialGradient cx="50%" cy="50%" fx="50%" fy="50%" r="55.9668372%" id="radialGradient-2">
            <stop stop-color="#FFFFFF" stop-opacity="0.318427666" offset="0%"></stop>
            <stop stop-color="#FFFFFF" stop-opacity="0" offset="100%"></stop>
        </radialGradient>
        <linearGradient x1="50%" y1="0%" x2="50%" y2="100%" id="linearGradient-3">
            <stop stop-color="#FFFFFF" stop-opacity="0.4" offset="0%"></stop>
            <stop stop-color="#FFFFFF" offset="100%"></stop>
        </linearGradient>
        <linearGradient x1="50%" y1="0%" x2="50%" y2="100%" id="linearGradient-4">
            <stop stop-color="#FFFFFF" stop-opacity="0.4" offset="0%"></stop>
            <stop stop-color="#FFFFFF" offset="100%"></stop>
        </linearGradient>
    </defs>
    <g id="蓝色" stroke="none" stroke-width="1" fill="none" fill-rule="evenodd">
        <g id="工单切图" transform="translate(-1524.000000, -298.000000)">
            <g id="涉及部门备份-4" transform="translate(1508.000000, 279.000000)">
                <g id="已开始" transform="translate(16.000000, 19.000000)">
                    <rect id="矩形" stroke="#10ABB4" fill="url(#linearGradient-1)" fill-rule="nonzero" x="0.5" y="0.5" width="49" height="49" rx="2.4"></rect>
                    <g id="编组-13" transform="translate(6.000000, 6.000000)">
                        <path d="M19,3 C27.836556,3 35,10.163444 35,19 C35,27.836556 27.836556,35 19,35 C10.163444,35 3,27.836556 3,19 C3,10.163444 10.163444,3 19,3 Z M19,3.58181818 C10.4847733,3.58181818 3.58181818,10.4847733 3.58181818,19 C3.58181818,27.5152267 10.4847733,34.4181818 19,34.4181818 C27.5152267,34.4181818 34.4181818,27.5152267 34.4181818,19 C34.4181818,10.4847733 27.5152267,3.58181818 19,3.58181818 Z M19,4.74545455 C26.8725681,4.74545455 33.2545455,11.1274319 33.2545455,19 C33.2545455,26.8725681 26.8725681,33.2545455 19,33.2545455 C11.1274319,33.2545455 4.74545455,26.8725681 4.74545455,19 C4.74545455,11.1274319 11.1274319,4.74545455 19,4.74545455 Z M19,5.32727273 C11.4487612,5.32727273 5.32727273,11.4487612 5.32727273,19 C5.32727273,26.5512388 11.4487612,32.6727273 19,32.6727273 C26.5512388,32.6727273 32.6727273,26.5512388 32.6727273,19 C32.6727273,11.4487612 26.5512388,5.32727273 19,5.32727273 Z M19,6.49090909 C25.9085801,6.49090909 31.5090909,12.0914199 31.5090909,19 C31.5090909,25.9085801 25.9085801,31.5090909 19,31.5090909 C12.0914199,31.5090909 6.49090909,25.9085801 6.49090909,19 C6.49090909,12.0914199 12.0914199,6.49090909 19,6.49090909 Z M19,7.07272727 C12.4127492,7.07272727 7.07272727,12.4127492 7.07272727,19 C7.07272727,25.5872508 12.4127492,30.9272727 19,30.9272727 C25.5872508,30.9272727 30.9272727,25.5872508 30.9272727,19 C30.9272727,12.4127492 25.5872508,7.07272727 19,7.07272727 Z M19,8.23636364 C24.9445922,8.23636364 29.7636364,13.0554078 29.7636364,19 C29.7636364,24.9445922 24.9445922,29.7636364 19,29.7636364 C13.0554078,29.7636364 8.23636364,24.9445922 8.23636364,19 C8.23636364,13.0554078 13.0554078,8.23636364 19,8.23636364 Z M19,8.81818182 C13.3767371,8.81818182 8.81818182,13.3767371 8.81818182,19 C8.81818182,24.6232629 13.3767371,29.1818182 19,29.1818182 C24.6232629,29.1818182 29.1818182,24.6232629 29.1818182,19 C29.1818182,13.3767371 24.6232629,8.81818182 19,8.81818182 Z M19,9.98181818 C23.9806043,9.98181818 28.0181818,14.0193957 28.0181818,19 C28.0181818,23.9806043 23.9806043,28.0181818 19,28.0181818 C14.0193957,28.0181818 9.98181818,23.9806043 9.98181818,19 C9.98181818,14.0193957 14.0193957,9.98181818 19,9.98181818 Z M19,10.5636364 C14.340725,10.5636364 10.5636364,14.340725 10.5636364,19 C10.5636364,23.659275 14.340725,27.4363636 19,27.4363636 C23.659275,27.4363636 27.4363636,23.659275 27.4363636,19 C27.4363636,14.340725 23.659275,10.5636364 19,10.5636364 Z M19,11.7272727 C23.0166164,11.7272727 26.2727273,14.9833836 26.2727273,19 C26.2727273,23.0166164 23.0166164,26.2727273 19,26.2727273 C14.9833836,26.2727273 11.7272727,23.0166164 11.7272727,19 C11.7272727,14.9833836 14.9833836,11.7272727 19,11.7272727 Z M19,12.3090909 C15.3047129,12.3090909 12.3090909,15.3047129 12.3090909,19 C12.3090909,22.6952871 15.3047129,25.6909091 19,25.6909091 C22.6952871,25.6909091 25.6909091,22.6952871 25.6909091,19 C25.6909091,15.3047129 22.6952871,12.3090909 19,12.3090909 Z M19,13.4727273 C22.0526284,13.4727273 24.5272727,15.9473716 24.5272727,19 C24.5272727,22.0526284 22.0526284,24.5272727 19,24.5272727 C15.9473716,24.5272727 13.4727273,22.0526284 13.4727273,19 C13.4727273,15.9473716 15.9473716,13.4727273 19,13.4727273 Z M19,14.0545455 C16.2687009,14.0545455 14.0545455,16.2687009 14.0545455,19 C14.0545455,21.7312991 16.2687009,23.9454545 19,23.9454545 C21.7312991,23.9454545 23.9454545,21.7312991 23.9454545,19 C23.9454545,16.2687009 21.7312991,14.0545455 19,14.0545455 Z" id="形状结合" fill="url(#radialGradient-2)" fill-rule="nonzero" opacity="0.2"></path>
                        <circle id="椭圆形" stroke-opacity="0.2" stroke="#D4DAE9" stroke-width="2.4" cx="19" cy="19" r="19"></circle>
                        <path d="M1.75447925,11.0146736 C0.628468222,13.4423788 0,16.1477961 0,19 C0,29.4934102 8.50658975,38 19,38 C29.4934102,38 38,29.4934102 38,19 C38,8.50658975 29.4934102,0 19,0" id="路径" stroke="#FFFFFF" stroke-width="2.4" opacity="0.4" stroke-linecap="round" stroke-linejoin="round" fill-rule="nonzero"></path>
                    </g>
                    <g id="编组" transform="translate(17.000000, 17.000000)" fill-rule="nonzero">
                        <path d="M15.2380952,4.87619047 C14.7809524,3.88571428 14.247619,3.04761905 13.4857143,2.36190477 C12.8,1.67619048 11.8857143,1.06666667 10.9714286,0.609523813 C10.1333333,0.152380953 9.06666667,0 7.92380953,0 C6.85714286,0 5.79047619,0.152380953 4.87619047,0.609523813 C3.96190475,1.06666667 3.04761905,1.6 2.36190477,2.36190477 C1.67619047,3.04761905 1.06666667,3.96190477 0.609523812,4.87619047 C0.152380953,5.79047617 0,6.93333333 0,7.92380953 C0,8.91428573 0.152380953,10.0571429 0.609523812,11.047619 C1.06666667,12.0380952 1.6,12.8761905 2.36190477,13.5619048 C3.04761905,14.247619 3.96190477,14.8571429 4.87619047,15.3142857 C5.79047617,15.7714286 6.85714284,16 8,16 C9.06666667,16 10.0571429,15.847619 11.1238095,15.3904762 C12.1142857,14.9333333 12.952381,14.4 13.6380952,13.6380952 C14.3238095,12.952381 14.9333333,12.0380952 15.3904762,11.1238095 C15.847619,10.2095238 16,9.14285716 16,8 C16,6.85714284 15.6190476,5.86666667 15.2380952,4.87619047 Z M12.4952381,4.03809523 L9.52380953,9.44761905 C9.52380953,9.52380952 9.44761906,9.6 9.37142858,9.6 L3.88571428,12.4952381 C3.80952381,12.4952381 3.80952381,12.5714286 3.73333333,12.5714286 C3.65714284,12.5714286 3.50476191,12.4952381 3.50476191,12.4952381 C3.35238095,12.3428571 3.35238095,12.1142857 3.42857142,11.9619048 L6.32380953,6.47619047 C6.32380953,6.4 6.4,6.32380952 6.47619047,6.32380953 L11.9619048,3.42857142 C12.0380952,3.42857142 12.0380952,3.35238095 12.1142857,3.35238095 C12.1904762,3.35238095 12.3428571,3.42857142 12.3428571,3.42857142 C12.4952381,3.58095237 12.5714286,3.8095238 12.4952381,4.03809523 Z" id="形状" fill="url(#linearGradient-3)"></path>
                        <path d="M7.92380953,8.76190477 C7.77142858,8.76190477 7.46666667,8.6857143 7.39047619,8.53333333 C7.23809523,8.45714286 7.23809523,8.30476191 7.23809523,8 C7.23809523,7.84761905 7.3142857,7.54285714 7.46666667,7.46666667 C7.61904762,7.31428572 7.84761905,7.23809523 8,7.23809523 C8.15238095,7.23809523 8.45714286,7.3142857 8.53333333,7.46666667 C8.6095238,7.61904763 8.68571428,7.84761905 8.68571428,8 C8.68571428,8.15238095 8.60952381,8.45714286 8.45714286,8.53333333 C8.38095239,8.68571428 8.15238095,8.76190477 7.92380953,8.76190477 L7.92380953,8.76190477 Z" id="路径" fill="url(#linearGradient-4)"></path>
                    </g>
                </g>
            </g>
        </g>
    </g>
</svg>