<?xml version="1.0" encoding="UTF-8"?>
<svg width="66px" height="66px" viewBox="0 0 66 66" version="1.1" xmlns="http://www.w3.org/2000/svg" xmlns:xlink="http://www.w3.org/1999/xlink">
    <title>常住人口</title>
    <g id="蓝色" stroke="none" stroke-width="1" fill="none" fill-rule="evenodd">
        <g id="人口档案切图" transform="translate(-66.000000, -207.000000)">
            <g id="编组" transform="translate(66.000000, 207.000000)">
                <path d="M0,33 C0,44.7897643 6.28976425,55.683956 16.5,61.5788383 C26.7102355,67.4737206 39.2897645,67.4737206 49.5,61.5788383 C59.7102357,55.683956 66,44.7897643 66,33 C66,14.7746031 51.2253967,0 33,0 C14.7746033,0 0,14.7746031 0,33 L0,33 Z" id="路径" fill="#2DA8EC"></path>
                <path d="M39.6807297,22.4831091 C39.6807297,24.7208634 38.486902,26.7886338 36.5489499,27.907511 C34.6109978,29.0263882 32.2233423,29.0263882 30.2853902,27.907511 C28.347438,26.7886338 27.1536104,24.7208634 27.1536104,22.4831091 C27.1536104,19.0238406 29.9579016,16.2195495 33.41717,16.2195495 C36.8764385,16.2195495 39.6807297,19.0238406 39.6807297,22.4831091 L39.6807297,22.4831091 Z M50.1184934,26.6588155 C50.1184934,28.9644413 48.2494143,30.8335203 45.9437885,30.8335203 C43.6381627,30.8335203 41.7690837,28.9644413 41.7690837,26.6588155 C41.7690837,24.3531897 43.6381627,22.4841107 45.9437885,22.4841107 C48.2494143,22.4841107 50.1184934,24.3531897 50.1184934,26.6588155 L50.1184934,26.6588155 Z M41.7680821,41.2722855 C41.7680821,36.6604808 38.0294756,32.9218743 33.4176708,32.9218743 C28.805866,32.9218743 25.0672595,36.6604808 25.0672595,41.2722855 L25.0672595,47.5353443 L41.7680821,47.5353443 L41.7680821,41.2712839 L41.7680821,41.2722855 Z M25.0672595,26.6578139 C25.0672595,28.9637163 23.1979563,30.8330195 20.8920539,30.8330195 C18.5861515,30.8330195 16.7168483,28.9637163 16.7168483,26.6578139 C16.7168483,24.3519115 18.5861515,22.4826083 20.8920539,22.4826083 C23.1979563,22.4826083 25.0672595,24.3519115 25.0672595,26.6578139 L25.0672595,26.6578139 Z M45.9437886,47.5343427 L45.9437886,41.2712839 C45.9468544,39.1487471 45.4080023,37.0605662 44.3782742,35.2045404 C46.2538509,34.7244687 48.2460162,35.137329 49.7763305,36.3232442 C51.3066447,37.5091594 52.2036327,39.3352451 52.2068474,41.2712839 L52.2068474,47.5343427 L45.9437886,47.5343427 L45.9437886,47.5343427 Z M22.4570674,35.2045404 C21.4274222,37.0605993 20.8885758,39.1487583 20.8915531,41.2712839 L20.8915531,47.5343427 L14.6284931,47.5343427 L14.6284931,41.2712839 C14.6273211,39.3336593 15.5231839,37.5046305 17.0547498,36.3177453 C18.5863157,35.1308602 20.5810503,34.7198239 22.4570674,35.2045404 L22.4570674,35.2045404 Z" id="形状" fill="#FFFFFF" fill-rule="nonzero"></path>
            </g>
        </g>
    </g>
</svg>