<?xml version="1.0" encoding="UTF-8"?>
<svg width="50px" height="50px" viewBox="0 0 50 50" version="1.1" xmlns="http://www.w3.org/2000/svg" xmlns:xlink="http://www.w3.org/1999/xlink">
    <title>待接单</title>
    <defs>
        <linearGradient x1="-1.11022302e-14%" y1="50%" x2="100%" y2="50%" id="linearGradient-1">
            <stop stop-color="#2A75DC" offset="0%"></stop>
            <stop stop-color="#2A88DA" offset="100%"></stop>
        </linearGradient>
        <radialGradient cx="50%" cy="50%" fx="50%" fy="50%" r="55.9668372%" id="radialGradient-2">
            <stop stop-color="#FFFFFF" stop-opacity="0.318427666" offset="0%"></stop>
            <stop stop-color="#FFFFFF" stop-opacity="0" offset="100%"></stop>
        </radialGradient>
        <linearGradient x1="50%" y1="0%" x2="50%" y2="100%" id="linearGradient-3">
            <stop stop-color="#FFFFFF" stop-opacity="0.4" offset="0%"></stop>
            <stop stop-color="#FFFFFF" offset="100%"></stop>
        </linearGradient>
    </defs>
    <g id="蓝色" stroke="none" stroke-width="1" fill="none" fill-rule="evenodd">
        <g id="工单切图" transform="translate(-1525.000000, -194.000000)">
            <g id="涉及部门" transform="translate(1509.000000, 175.000000)">
                <g id="待接单" transform="translate(16.000000, 19.000000)">
                    <rect id="矩形" stroke="#3E46E8" stroke-width="0.6" fill="url(#linearGradient-1)" fill-rule="nonzero" x="0.3" y="0.3" width="49.4" height="49.4" rx="2.4"></rect>
                    <g id="编组-13" transform="translate(6.000000, 6.000000)">
                        <path d="M19,3 C27.836556,3 35,10.163444 35,19 C35,27.836556 27.836556,35 19,35 C10.163444,35 3,27.836556 3,19 C3,10.163444 10.163444,3 19,3 Z M19,3.58181818 C10.4847733,3.58181818 3.58181818,10.4847733 3.58181818,19 C3.58181818,27.5152267 10.4847733,34.4181818 19,34.4181818 C27.5152267,34.4181818 34.4181818,27.5152267 34.4181818,19 C34.4181818,10.4847733 27.5152267,3.58181818 19,3.58181818 Z M19,4.74545455 C26.8725681,4.74545455 33.2545455,11.1274319 33.2545455,19 C33.2545455,26.8725681 26.8725681,33.2545455 19,33.2545455 C11.1274319,33.2545455 4.74545455,26.8725681 4.74545455,19 C4.74545455,11.1274319 11.1274319,4.74545455 19,4.74545455 Z M19,5.32727273 C11.4487612,5.32727273 5.32727273,11.4487612 5.32727273,19 C5.32727273,26.5512388 11.4487612,32.6727273 19,32.6727273 C26.5512388,32.6727273 32.6727273,26.5512388 32.6727273,19 C32.6727273,11.4487612 26.5512388,5.32727273 19,5.32727273 Z M19,6.49090909 C25.9085801,6.49090909 31.5090909,12.0914199 31.5090909,19 C31.5090909,25.9085801 25.9085801,31.5090909 19,31.5090909 C12.0914199,31.5090909 6.49090909,25.9085801 6.49090909,19 C6.49090909,12.0914199 12.0914199,6.49090909 19,6.49090909 Z M19,7.07272727 C12.4127492,7.07272727 7.07272727,12.4127492 7.07272727,19 C7.07272727,25.5872508 12.4127492,30.9272727 19,30.9272727 C25.5872508,30.9272727 30.9272727,25.5872508 30.9272727,19 C30.9272727,12.4127492 25.5872508,7.07272727 19,7.07272727 Z M19,8.23636364 C24.9445922,8.23636364 29.7636364,13.0554078 29.7636364,19 C29.7636364,24.9445922 24.9445922,29.7636364 19,29.7636364 C13.0554078,29.7636364 8.23636364,24.9445922 8.23636364,19 C8.23636364,13.0554078 13.0554078,8.23636364 19,8.23636364 Z M19,8.81818182 C13.3767371,8.81818182 8.81818182,13.3767371 8.81818182,19 C8.81818182,24.6232629 13.3767371,29.1818182 19,29.1818182 C24.6232629,29.1818182 29.1818182,24.6232629 29.1818182,19 C29.1818182,13.3767371 24.6232629,8.81818182 19,8.81818182 Z M19,9.98181818 C23.9806043,9.98181818 28.0181818,14.0193957 28.0181818,19 C28.0181818,23.9806043 23.9806043,28.0181818 19,28.0181818 C14.0193957,28.0181818 9.98181818,23.9806043 9.98181818,19 C9.98181818,14.0193957 14.0193957,9.98181818 19,9.98181818 Z M19,10.5636364 C14.340725,10.5636364 10.5636364,14.340725 10.5636364,19 C10.5636364,23.659275 14.340725,27.4363636 19,27.4363636 C23.659275,27.4363636 27.4363636,23.659275 27.4363636,19 C27.4363636,14.340725 23.659275,10.5636364 19,10.5636364 Z M19,11.7272727 C23.0166164,11.7272727 26.2727273,14.9833836 26.2727273,19 C26.2727273,23.0166164 23.0166164,26.2727273 19,26.2727273 C14.9833836,26.2727273 11.7272727,23.0166164 11.7272727,19 C11.7272727,14.9833836 14.9833836,11.7272727 19,11.7272727 Z M19,12.3090909 C15.3047129,12.3090909 12.3090909,15.3047129 12.3090909,19 C12.3090909,22.6952871 15.3047129,25.6909091 19,25.6909091 C22.6952871,25.6909091 25.6909091,22.6952871 25.6909091,19 C25.6909091,15.3047129 22.6952871,12.3090909 19,12.3090909 Z M19,13.4727273 C22.0526284,13.4727273 24.5272727,15.9473716 24.5272727,19 C24.5272727,22.0526284 22.0526284,24.5272727 19,24.5272727 C15.9473716,24.5272727 13.4727273,22.0526284 13.4727273,19 C13.4727273,15.9473716 15.9473716,13.4727273 19,13.4727273 Z M19,14.0545455 C16.2687009,14.0545455 14.0545455,16.2687009 14.0545455,19 C14.0545455,21.7312991 16.2687009,23.9454545 19,23.9454545 C21.7312991,23.9454545 23.9454545,21.7312991 23.9454545,19 C23.9454545,16.2687009 21.7312991,14.0545455 19,14.0545455 Z" id="形状结合" fill="url(#radialGradient-2)" fill-rule="nonzero" opacity="0.2"></path>
                        <circle id="椭圆形" stroke-opacity="0.2" stroke="#D4DAE9" stroke-width="2.4" cx="19" cy="19" r="19"></circle>
                        <path d="M1.75447925,11.0146736 C0.628468222,13.4423788 0,16.1477961 0,19 C0,29.4934102 8.50658975,38 19,38 C29.4934102,38 38,29.4934102 38,19 C38,8.50658975 29.4934102,0 19,0" id="路径" stroke="#FFFFFF" stroke-width="2.4" opacity="0.4" stroke-linecap="round" stroke-linejoin="round" fill-rule="nonzero"></path>
                    </g>
                    <g id="编组" transform="translate(17.000000, 17.000000)" fill="url(#linearGradient-3)" fill-rule="nonzero">
                        <path d="M15.9192509,12.9905011 L13.2307257,15.8343216 C13.2307257,15.8343216 12.9730754,16.207098 12.5041838,15.8343216 C12.2745389,15.6567328 11.317552,14.8391844 11.317552,14.8391844 C11.0924196,14.6513274 10.8105323,14.5448016 10.5173957,14.5368035 L4.50182051,14.5368035 C4.33294162,14.5777404 4.15459958,14.5420226 4.01452532,14.4392096 C3.78488046,14.2616209 0.893915707,11.7473796 0.0689545394,11.027425 C-0.0229848465,10.839684 -0.0229848465,10.6200036 0.0689545394,10.4322626 C0.0689545394,10.4322626 0.639465998,9.3835288 2.15656235,10.4322626 C3.08554383,11.1338183 4.5018205,12.0937577 4.50182051,12.0937577 L8.01530688,12.0937577 L9.01790274,11.392202 C9.01790274,11.392202 9.30275838,11.2146132 9.01790274,11.1970143 C8.24855979,11.1823909 7.48071638,11.1230948 6.7182535,11.0194255 C6.22727307,10.9402666 5.86318325,10.5213853 5.85328452,10.0242883 C5.85328452,9.3043338 6.71825349,9.18914106 6.7182535,9.18914106 L11.8784616,9.18914106 C12.0339092,9.20752673 12.1791322,9.27604752 12.2921424,9.38432874 C12.4945819,9.57951641 15.6215928,12.2985448 15.8520378,12.4761336 C15.9282168,12.52558 15.980212,12.6046513 15.9954149,12.6941733 C16.0106178,12.7836953 15.98764,12.8754921 15.9320534,12.9473038 C15.9440558,12.9641028 15.9256522,12.9729022 15.9192509,12.9905011 L15.9192509,12.9905011 Z M9.9836914,2.44396687 L7.68404217,0.222507099 C7.53304941,0.078880129 7.33234898,-0.000806010248 7.12393274,0.000121137576 L2.5422377,0.000121137576 C2.33595594,-0.00351729034 2.13668041,0.0749335741 1.98826567,0.218209044 C1.83985094,0.361484513 1.75445938,0.557843375 1.75088311,0.76407292 L1.75088311,7.31245953 C1.75445938,7.51868908 1.83985094,7.71504794 1.98826567,7.85832341 C2.13668041,8.00159888 2.33595594,8.08004974 2.5422377,8.07641132 L9.41317996,8.07641132 C9.61946172,8.08004974 9.81873726,8.00159888 9.96715199,7.85832341 C10.1155667,7.71504794 10.2009583,7.51868908 10.2045346,7.31245953 L10.2045346,2.98633263 C10.2123474,2.78220824 10.1318846,2.58460075 9.9836914,2.44396687 L9.9836914,2.44396687 Z M4.76827256,3.07512703 C4.76930303,2.95490429 4.81862763,2.8401415 4.90515454,2.75664581 C4.99168145,2.67315012 5.10814747,2.62793028 5.22836244,2.63115506 L6.62623551,2.63115506 C6.78953405,2.62422676 6.94348322,2.70737566 7.02719889,2.84771788 C7.11091456,2.9880601 7.11091456,3.16299391 7.02719889,3.30333613 C6.94348322,3.44367835 6.78953405,3.52682726 6.62623551,3.51989895 L5.22836244,3.51989895 C5.1080098,3.52312578 4.99142151,3.4777972 4.90487078,3.39412805 C4.81832006,3.31045889 4.76908926,3.19548905 4.76827256,3.07512703 L4.76827256,3.07512703 Z M3.46241746,5.93574644 C3.29931004,5.94409325 3.1447411,5.86242135 3.05975901,5.72298777 C2.97477691,5.58355418 2.97304601,5.40877858 3.05524994,5.26769011 C3.13745387,5.12660164 3.29037498,5.04188607 3.45361573,5.04700255 L3.46241746,5.04700255 C3.62571599,5.04007424 3.77966516,5.12322315 3.86338083,5.26356537 C3.94709651,5.40390759 3.94709651,5.5788414 3.86338083,5.71918362 C3.77966516,5.85952584 3.62571599,5.94267474 3.46241746,5.93574644 Z M3.55443543,3.519099 C3.39135771,3.52755441 3.23675322,3.44601177 3.1516687,3.30666883 C3.06658418,3.16732589 3.06469626,2.99258083 3.14675039,2.85143308 C3.22880453,2.71028532 3.38161121,2.62542318 3.54483356,2.63035511 L3.55443543,2.63035511 C3.71773397,2.6234268 3.87168313,2.70657571 3.9553988,2.84691793 C4.03911448,2.98726015 4.03911448,3.16219395 3.9553988,3.30253618 C3.87168313,3.4428784 3.71773397,3.5260273 3.55443543,3.519099 L3.55443543,3.519099 Z M8.3737769,5.93574644 L5.13634446,5.93574644 C4.97304593,5.94267474 4.81909676,5.85952584 4.73538109,5.71918362 C4.65166542,5.5788414 4.65166542,5.40390759 4.73538109,5.26356537 C4.81909676,5.12322315 4.97304593,5.04007424 5.13634446,5.04700255 L8.3737769,5.04700255 C8.53707544,5.04007424 8.6910246,5.12322315 8.77474028,5.26356537 C8.85845595,5.40390759 8.85845595,5.5788414 8.77474028,5.71918362 C8.6910246,5.85952584 8.53707544,5.94267474 8.3737769,5.93574644 L8.3737769,5.93574644 Z" id="形状"></path>
                    </g>
                </g>
            </g>
        </g>
    </g>
</svg>