<?xml version="1.0" encoding="UTF-8"?>
<svg width="50px" height="50px" viewBox="0 0 50 50" version="1.1" xmlns="http://www.w3.org/2000/svg" xmlns:xlink="http://www.w3.org/1999/xlink">
    <title>待服务</title>
    <defs>
        <linearGradient x1="0%" y1="100%" x2="91.9327098%" y2="12.1065745%" id="linearGradient-1">
            <stop stop-color="#44438F" offset="0%"></stop>
            <stop stop-color="#5D5CBC" offset="100%"></stop>
        </linearGradient>
        <radialGradient cx="50%" cy="50%" fx="50%" fy="50%" r="55.9668372%" id="radialGradient-2">
            <stop stop-color="#FFFFFF" stop-opacity="0.318427666" offset="0%"></stop>
            <stop stop-color="#FFFFFF" stop-opacity="0" offset="100%"></stop>
        </radialGradient>
        <linearGradient x1="50%" y1="0%" x2="50%" y2="100%" id="linearGradient-3">
            <stop stop-color="#FFFFFF" stop-opacity="0.4" offset="0%"></stop>
            <stop stop-color="#FFFFFF" offset="100%"></stop>
        </linearGradient>
    </defs>
    <g id="蓝色" stroke="none" stroke-width="1" fill="none" fill-rule="evenodd">
        <g id="工单切图" transform="translate(-1722.000000, -194.000000)">
            <g id="涉及部门备份" transform="translate(1706.000000, 175.000000)">
                <g id="待服务" transform="translate(16.000000, 19.000000)">
                    <rect id="矩形" stroke="#2D2C82" fill="url(#linearGradient-1)" fill-rule="nonzero" x="0.5" y="0.5" width="49" height="49" rx="2.4"></rect>
                    <g id="编组-13" transform="translate(6.000000, 6.000000)">
                        <path d="M19,3 C27.836556,3 35,10.163444 35,19 C35,27.836556 27.836556,35 19,35 C10.163444,35 3,27.836556 3,19 C3,10.163444 10.163444,3 19,3 Z M19,3.58181818 C10.4847733,3.58181818 3.58181818,10.4847733 3.58181818,19 C3.58181818,27.5152267 10.4847733,34.4181818 19,34.4181818 C27.5152267,34.4181818 34.4181818,27.5152267 34.4181818,19 C34.4181818,10.4847733 27.5152267,3.58181818 19,3.58181818 Z M19,4.74545455 C26.8725681,4.74545455 33.2545455,11.1274319 33.2545455,19 C33.2545455,26.8725681 26.8725681,33.2545455 19,33.2545455 C11.1274319,33.2545455 4.74545455,26.8725681 4.74545455,19 C4.74545455,11.1274319 11.1274319,4.74545455 19,4.74545455 Z M19,5.32727273 C11.4487612,5.32727273 5.32727273,11.4487612 5.32727273,19 C5.32727273,26.5512388 11.4487612,32.6727273 19,32.6727273 C26.5512388,32.6727273 32.6727273,26.5512388 32.6727273,19 C32.6727273,11.4487612 26.5512388,5.32727273 19,5.32727273 Z M19,6.49090909 C25.9085801,6.49090909 31.5090909,12.0914199 31.5090909,19 C31.5090909,25.9085801 25.9085801,31.5090909 19,31.5090909 C12.0914199,31.5090909 6.49090909,25.9085801 6.49090909,19 C6.49090909,12.0914199 12.0914199,6.49090909 19,6.49090909 Z M19,7.07272727 C12.4127492,7.07272727 7.07272727,12.4127492 7.07272727,19 C7.07272727,25.5872508 12.4127492,30.9272727 19,30.9272727 C25.5872508,30.9272727 30.9272727,25.5872508 30.9272727,19 C30.9272727,12.4127492 25.5872508,7.07272727 19,7.07272727 Z M19,8.23636364 C24.9445922,8.23636364 29.7636364,13.0554078 29.7636364,19 C29.7636364,24.9445922 24.9445922,29.7636364 19,29.7636364 C13.0554078,29.7636364 8.23636364,24.9445922 8.23636364,19 C8.23636364,13.0554078 13.0554078,8.23636364 19,8.23636364 Z M19,8.81818182 C13.3767371,8.81818182 8.81818182,13.3767371 8.81818182,19 C8.81818182,24.6232629 13.3767371,29.1818182 19,29.1818182 C24.6232629,29.1818182 29.1818182,24.6232629 29.1818182,19 C29.1818182,13.3767371 24.6232629,8.81818182 19,8.81818182 Z M19,9.98181818 C23.9806043,9.98181818 28.0181818,14.0193957 28.0181818,19 C28.0181818,23.9806043 23.9806043,28.0181818 19,28.0181818 C14.0193957,28.0181818 9.98181818,23.9806043 9.98181818,19 C9.98181818,14.0193957 14.0193957,9.98181818 19,9.98181818 Z M19,10.5636364 C14.340725,10.5636364 10.5636364,14.340725 10.5636364,19 C10.5636364,23.659275 14.340725,27.4363636 19,27.4363636 C23.659275,27.4363636 27.4363636,23.659275 27.4363636,19 C27.4363636,14.340725 23.659275,10.5636364 19,10.5636364 Z M19,11.7272727 C23.0166164,11.7272727 26.2727273,14.9833836 26.2727273,19 C26.2727273,23.0166164 23.0166164,26.2727273 19,26.2727273 C14.9833836,26.2727273 11.7272727,23.0166164 11.7272727,19 C11.7272727,14.9833836 14.9833836,11.7272727 19,11.7272727 Z M19,12.3090909 C15.3047129,12.3090909 12.3090909,15.3047129 12.3090909,19 C12.3090909,22.6952871 15.3047129,25.6909091 19,25.6909091 C22.6952871,25.6909091 25.6909091,22.6952871 25.6909091,19 C25.6909091,15.3047129 22.6952871,12.3090909 19,12.3090909 Z M19,13.4727273 C22.0526284,13.4727273 24.5272727,15.9473716 24.5272727,19 C24.5272727,22.0526284 22.0526284,24.5272727 19,24.5272727 C15.9473716,24.5272727 13.4727273,22.0526284 13.4727273,19 C13.4727273,15.9473716 15.9473716,13.4727273 19,13.4727273 Z M19,14.0545455 C16.2687009,14.0545455 14.0545455,16.2687009 14.0545455,19 C14.0545455,21.7312991 16.2687009,23.9454545 19,23.9454545 C21.7312991,23.9454545 23.9454545,21.7312991 23.9454545,19 C23.9454545,16.2687009 21.7312991,14.0545455 19,14.0545455 Z" id="形状结合" fill="url(#radialGradient-2)" fill-rule="nonzero" opacity="0.2"></path>
                        <circle id="椭圆形" stroke-opacity="0.2" stroke="#D4DAE9" stroke-width="2.4" cx="19" cy="19" r="19"></circle>
                        <path d="M1.75447925,11.0146736 C0.628468222,13.4423788 0,16.1477961 0,19 C0,29.4934102 8.50658975,38 19,38 C29.4934102,38 38,29.4934102 38,19 C38,8.50658975 29.4934102,0 19,0" id="路径" stroke="#FFFFFF" stroke-width="2.4" opacity="0.4" stroke-linecap="round" stroke-linejoin="round" fill-rule="nonzero"></path>
                    </g>
                    <g id="编组" transform="translate(16.000000, 17.000000)" fill="url(#linearGradient-3)" fill-rule="nonzero">
                        <path d="M5.2638885,13.1473354 C2.50071994,12.0758621 0.532881895,9.60501567 0.00470498731,6.7153605 C-0.00937759973,6.63874631 0.00844477647,6.55983485 0.0542507108,6.49598876 C0.100056645,6.43214267 0.170093225,6.38859292 0.248950506,6.37492163 C0.266434573,6.37204848 0.284132669,6.37053146 0.301864988,6.37053146 L2.6078395,6.37053146 C2.75119313,6.37009534 2.87497728,6.4679346 2.9037089,6.60438872 C3.41381745,9.09090909 5.45521953,11.0752351 8.01576434,11.5717868 C8.15598164,11.5995634 8.25656358,11.7195861 8.2561394,11.8586207 L8.2561394,15.7068965 C8.2561394,15.7846324 8.22435431,15.8591844 8.16777888,15.914152 C8.11120345,15.9691195 8.0344707,16 7.95446096,16 L5.75560603,16 C5.58899437,16 5.45392893,15.8687731 5.45392893,15.7068965 L5.45392893,13.4184953 C5.45336272,13.2989315 5.37818234,13.1916601 5.2638885,13.1473354 L5.2638885,13.1473354 Z M12.7361235,13.1473354 C15.4992921,12.0758621 17.4671301,9.60501567 17.995307,6.7153605 C18.0244316,6.55575588 17.9149792,6.4033982 17.7507388,6.37492162 C17.7333652,6.3720342 17.715773,6.3705324 17.698147,6.3705324 L15.3921725,6.3705324 C15.2490165,6.37027201 15.125518,6.46809891 15.0969484,6.60438872 C14.5861946,9.09090909 12.5447925,11.0752351 9.98424767,11.5717868 C9.84389154,11.5993403 9.74319546,11.7194992 9.74387054,11.8586207 L9.74387054,15.7068965 C9.74387054,15.8687731 9.87893939,16 10.045551,16 L12.244406,16 C12.4110176,16 12.5460831,15.8687731 12.5460831,15.7068965 L12.5460831,13.4184953 C12.5464717,13.298878 12.6217133,13.1915192 12.7361235,13.1473354 L12.7361235,13.1473354 Z M11.7459128,0 C13.7424667,0 15.239882,1.3338558 15.239882,3.39467084 C15.239882,5.092163 13.741176,6.91097178 12.6199698,7.88087775 C11.9036883,8.57617556 10.7315034,9.27178684 9.21182526,10.0733542 C9.08007295,10.1426386 8.92122964,10.1426386 8.78947733,10.0733542 C7.27012181,9.27178684 6.09793692,8.57617555 5.38197814,7.88087775 C4.13429332,6.78965517 2.75980732,5.09090909 2.75980732,3.39467084 C2.75980732,1.33448277 4.25883594,0 6.25377653,0 C7.37691873,0 8.25065301,0.484952984 8.99952202,1.3338558 C9.74968163,0.484952984 10.6230933,0 11.7459128,0 Z" id="形状"></path>
                    </g>
                </g>
            </g>
        </g>
    </g>
</svg>