<?xml version="1.0" encoding="UTF-8"?>
<svg width="50px" height="50px" viewBox="0 0 50 50" version="1.1" xmlns="http://www.w3.org/2000/svg" xmlns:xlink="http://www.w3.org/1999/xlink">
    <title>志愿者</title>
    <defs>
        <linearGradient x1="0%" y1="89.6047312%" x2="115.644044%" y2="18.8360926%" id="linearGradient-1">
            <stop stop-color="#FC8292" offset="0%"></stop>
            <stop stop-color="#FF9B97" offset="100%"></stop>
        </linearGradient>
        <radialGradient cx="50%" cy="50%" fx="50%" fy="50%" r="55.9668372%" id="radialGradient-2">
            <stop stop-color="#FFFFFF" stop-opacity="0.318427666" offset="0%"></stop>
            <stop stop-color="#FFFFFF" stop-opacity="0" offset="100%"></stop>
        </radialGradient>
        <linearGradient x1="50%" y1="0%" x2="50%" y2="50%" id="linearGradient-3">
            <stop stop-color="#FFFFFF" stop-opacity="0.4" offset="0%"></stop>
            <stop stop-color="#FFFFFF" stop-opacity="0.950965005" offset="53.7162411%"></stop>
            <stop stop-color="#FFFFFF" offset="100%"></stop>
        </linearGradient>
    </defs>
    <g id="蓝色" stroke="none" stroke-width="1" fill="none" fill-rule="evenodd">
        <g id="工单切图" transform="translate(-1525.000000, -688.000000)">
            <g id="涉及部门备份-7" transform="translate(1509.000000, 669.000000)">
                <g id="志愿者" transform="translate(16.000000, 19.000000)">
                    <rect id="矩形" stroke="#E66374" fill="url(#linearGradient-1)" fill-rule="nonzero" x="0.5" y="0.5" width="49" height="49" rx="2.4"></rect>
                    <g id="编组-13" transform="translate(6.000000, 6.000000)">
                        <path d="M19,3 C27.836556,3 35,10.163444 35,19 C35,27.836556 27.836556,35 19,35 C10.163444,35 3,27.836556 3,19 C3,10.163444 10.163444,3 19,3 Z M19,3.58181818 C10.4847733,3.58181818 3.58181818,10.4847733 3.58181818,19 C3.58181818,27.5152267 10.4847733,34.4181818 19,34.4181818 C27.5152267,34.4181818 34.4181818,27.5152267 34.4181818,19 C34.4181818,10.4847733 27.5152267,3.58181818 19,3.58181818 Z M19,4.74545455 C26.8725681,4.74545455 33.2545455,11.1274319 33.2545455,19 C33.2545455,26.8725681 26.8725681,33.2545455 19,33.2545455 C11.1274319,33.2545455 4.74545455,26.8725681 4.74545455,19 C4.74545455,11.1274319 11.1274319,4.74545455 19,4.74545455 Z M19,5.32727273 C11.4487612,5.32727273 5.32727273,11.4487612 5.32727273,19 C5.32727273,26.5512388 11.4487612,32.6727273 19,32.6727273 C26.5512388,32.6727273 32.6727273,26.5512388 32.6727273,19 C32.6727273,11.4487612 26.5512388,5.32727273 19,5.32727273 Z M19,6.49090909 C25.9085801,6.49090909 31.5090909,12.0914199 31.5090909,19 C31.5090909,25.9085801 25.9085801,31.5090909 19,31.5090909 C12.0914199,31.5090909 6.49090909,25.9085801 6.49090909,19 C6.49090909,12.0914199 12.0914199,6.49090909 19,6.49090909 Z M19,7.07272727 C12.4127492,7.07272727 7.07272727,12.4127492 7.07272727,19 C7.07272727,25.5872508 12.4127492,30.9272727 19,30.9272727 C25.5872508,30.9272727 30.9272727,25.5872508 30.9272727,19 C30.9272727,12.4127492 25.5872508,7.07272727 19,7.07272727 Z M19,8.23636364 C24.9445922,8.23636364 29.7636364,13.0554078 29.7636364,19 C29.7636364,24.9445922 24.9445922,29.7636364 19,29.7636364 C13.0554078,29.7636364 8.23636364,24.9445922 8.23636364,19 C8.23636364,13.0554078 13.0554078,8.23636364 19,8.23636364 Z M19,8.81818182 C13.3767371,8.81818182 8.81818182,13.3767371 8.81818182,19 C8.81818182,24.6232629 13.3767371,29.1818182 19,29.1818182 C24.6232629,29.1818182 29.1818182,24.6232629 29.1818182,19 C29.1818182,13.3767371 24.6232629,8.81818182 19,8.81818182 Z M19,9.98181818 C23.9806043,9.98181818 28.0181818,14.0193957 28.0181818,19 C28.0181818,23.9806043 23.9806043,28.0181818 19,28.0181818 C14.0193957,28.0181818 9.98181818,23.9806043 9.98181818,19 C9.98181818,14.0193957 14.0193957,9.98181818 19,9.98181818 Z M19,10.5636364 C14.340725,10.5636364 10.5636364,14.340725 10.5636364,19 C10.5636364,23.659275 14.340725,27.4363636 19,27.4363636 C23.659275,27.4363636 27.4363636,23.659275 27.4363636,19 C27.4363636,14.340725 23.659275,10.5636364 19,10.5636364 Z M19,11.7272727 C23.0166164,11.7272727 26.2727273,14.9833836 26.2727273,19 C26.2727273,23.0166164 23.0166164,26.2727273 19,26.2727273 C14.9833836,26.2727273 11.7272727,23.0166164 11.7272727,19 C11.7272727,14.9833836 14.9833836,11.7272727 19,11.7272727 Z M19,12.3090909 C15.3047129,12.3090909 12.3090909,15.3047129 12.3090909,19 C12.3090909,22.6952871 15.3047129,25.6909091 19,25.6909091 C22.6952871,25.6909091 25.6909091,22.6952871 25.6909091,19 C25.6909091,15.3047129 22.6952871,12.3090909 19,12.3090909 Z M19,13.4727273 C22.0526284,13.4727273 24.5272727,15.9473716 24.5272727,19 C24.5272727,22.0526284 22.0526284,24.5272727 19,24.5272727 C15.9473716,24.5272727 13.4727273,22.0526284 13.4727273,19 C13.4727273,15.9473716 15.9473716,13.4727273 19,13.4727273 Z M19,14.0545455 C16.2687009,14.0545455 14.0545455,16.2687009 14.0545455,19 C14.0545455,21.7312991 16.2687009,23.9454545 19,23.9454545 C21.7312991,23.9454545 23.9454545,21.7312991 23.9454545,19 C23.9454545,16.2687009 21.7312991,14.0545455 19,14.0545455 Z" id="形状结合" fill="url(#radialGradient-2)" fill-rule="nonzero" opacity="0.2"></path>
                        <circle id="椭圆形" stroke-opacity="0.2" stroke="#D4DAE9" stroke-width="2.4" cx="19" cy="19" r="19"></circle>
                        <path d="M1.75447925,11.0146736 C0.628468222,13.4423788 0,16.1477961 0,19 C0,29.4934102 8.50658975,38 19,38 C29.4934102,38 38,29.4934102 38,19 C38,8.50658975 29.4934102,0 19,0" id="路径" stroke="#FFFFFF" stroke-width="2.4" opacity="0.4" stroke-linecap="round" stroke-linejoin="round" fill-rule="nonzero"></path>
                    </g>
                    <g id="编组" transform="translate(16.000000, 17.000000)" fill="url(#linearGradient-3)" fill-rule="nonzero">
                        <path d="M8.71282152,12.8849987 L6.68163692,14.9703519 L6.38453248,14.6101108 L3.80914188,11.5042347 C3.07123543,10.6123007 2.33672723,9.71603226 1.595908,8.82457986 C1.28035589,8.44700088 0.947327063,8.0853149 0.6477953,7.69906702 C0.309112111,7.28498374 0.0938784087,6.78520688 0.0264003948,6.25617593 C-0.0391373491,5.66958003 0.00989459259,5.08683696 0.25796709,4.53299025 C0.74343186,3.45322997 1.58425684,2.78476107 2.71927347,2.49676078 C3.65379315,2.26173713 4.52520242,2.44378414 5.29369315,3.03953056 L6.75688396,4.17419391 C6.95835184,4.33119741 6.95932277,4.33119741 7.13360462,4.16263537 C7.60159266,3.70222019 8.05841501,3.23072807 8.53514141,2.7794634 C9.00793841,2.33262793 9.49060765,1.89618701 9.98279736,1.47045874 C10.3084675,1.17333967 10.6546352,0.899121867 11.0187792,0.649802397 C11.6385174,0.243733178 12.3613181,0.0196847072 13.1038504,0.00348736468 C14.1707816,-0.0376323651 15.2195979,0.285902312 16.0748947,0.919983271 C16.9632953,1.57255918 17.49051,2.46690122 17.8060621,3.50476179 C17.9978207,4.13855507 18.0264631,4.7843885 17.9813149,5.43118514 C17.931901,6.32382037 17.5669832,7.17063014 16.9506732,7.82283972 C16.3792812,8.43399753 15.844299,9.0759781 15.2641686,9.68231985 C13.9000126,11.1175052 12.5174089,12.5343896 11.1547093,13.9686118 C10.5085557,14.6481576 9.8857044,15.3508205 9.25120195,16.0424065 C8.99487655,16.3217379 8.73321104,16.5962532 8.48222575,16.8799191 C8.3754235,17.0003205 8.31522587,16.9184475 8.25405731,16.8452435 C7.946281,16.4829951 7.63995033,16.1195404 7.3350725,15.7548878 C7.24040687,15.6431553 7.15059589,15.5256435 7.04525003,15.4225798 C6.93990418,15.3190346 6.94572976,15.2453489 7.04525003,15.1403588 C7.63722238,14.5317874 8.22529389,13.9194935 8.80942901,13.3035141 C9.74297776,12.3244095 10.6750701,11.34386 11.6057061,10.3623473 C12.8387866,9.06779081 14.072838,7.77323432 15.3078604,6.47867783 C15.5311742,6.24365418 15.7467206,6.00477769 15.9729471,5.77360689 C16.0705256,5.6753593 16.0467378,5.60022879 15.9646942,5.51594776 C15.6297236,5.1720812 15.0772646,5.05553259 14.6922911,5.48030893 C14.1107043,6.12084469 13.4893094,6.72622323 12.8849057,7.34653155 C12.8577197,7.37398308 12.82665,7.39854498 12.7844145,7.43611023 L12.57081,7.20879228 C12.8688854,6.91742075 13.1591933,6.64049739 13.4402774,6.35634995 C14.2053699,5.59155988 14.9694915,4.82484339 15.7321566,4.05668208 C15.8816798,3.90642106 15.8826507,3.8683742 15.7496334,3.70222019 C15.6028092,3.52094067 15.3839272,3.41177331 15.1496837,3.40299548 C14.9154401,3.39421764 14.6888803,3.48669291 14.5286895,3.65646763 L11.9804849,6.36598207 C11.9387349,6.41077141 11.889703,6.44881827 11.8367873,6.49697885 L11.6023078,6.28362747 C11.847953,6.03174761 12.0848598,5.799132 12.3135137,5.55640265 C13.1038504,4.70636835 13.8912742,3.85537084 14.6772417,3.00244691 C14.7937532,2.87722939 14.7714218,2.78187143 14.6534539,2.67351012 C14.3199396,2.3667272 13.6941755,2.39032589 13.3849345,2.7293764 C12.5185068,3.67720576 11.652761,4.62564843 10.7876979,5.57470368 C10.7448744,5.6237786 10.7062284,5.67629318 10.6721573,5.73170718 L10.3944715,5.51787419 L13.2912398,2.37346968 C13.0033592,2.00022516 12.3907026,1.90390399 12.0081564,2.1933491 C11.7484327,2.40332925 11.5037585,2.63112881 11.276561,2.87482136 C10.3425267,3.81636077 9.41237625,4.76078981 8.48756587,5.70810849 C8.26328114,5.93927929 8.06326966,6.19356718 7.83655761,6.42329316 C7.38653177,6.87985549 6.79475021,6.9386114 6.27530291,6.56488528 C5.79275093,6.21716586 5.32719021,5.8410317 4.85289113,5.48319857 C4.55044658,5.2544358 4.25237121,5.01315127 3.85477557,4.96017463 C3.25182832,4.87685682 2.7809275,5.0979139 2.43770391,5.57807492 C2.18720408,5.92820236 2.19594245,5.91182776 2.58819798,6.01585462 C3.18629058,6.17237652 3.58534262,6.54610265 3.86205754,7.08020352 C4.15042361,7.63742147 4.29751944,8.24039198 4.4853943,8.83084073 C4.62617909,9.27102847 4.77570224,9.70977138 4.95338234,10.1350293 C5.23301005,10.8010902 5.7752742,11.2465756 6.3456953,11.6520877 C7.01903494,12.1317671 7.78509834,12.4457741 8.53028676,12.7920487 C8.5822315,12.8180555 8.63077797,12.8445438 8.71282152,12.8849987 L8.71282152,12.8849987 Z" id="路径"></path>
                    </g>
                </g>
            </g>
        </g>
    </g>
</svg>