<?xml version="1.0" encoding="UTF-8"?>
<svg width="50px" height="50px" viewBox="0 0 50 50" version="1.1" xmlns="http://www.w3.org/2000/svg" xmlns:xlink="http://www.w3.org/1999/xlink">
    <title>服务人员</title>
    <defs>
        <linearGradient x1="-1.11022302e-14%" y1="50%" x2="99.8759502%" y2="50%" id="linearGradient-1">
            <stop stop-color="#2198D6" offset="0%"></stop>
            <stop stop-color="#51BDF5" offset="100%"></stop>
        </linearGradient>
        <radialGradient cx="50%" cy="50%" fx="50%" fy="50%" r="55.9668372%" id="radialGradient-2">
            <stop stop-color="#FFFFFF" stop-opacity="0.318427666" offset="0%"></stop>
            <stop stop-color="#FFFFFF" stop-opacity="0" offset="100%"></stop>
        </radialGradient>
        <linearGradient x1="50%" y1="0%" x2="50%" y2="100%" id="linearGradient-3">
            <stop stop-color="#FFFFFF" stop-opacity="0.4" offset="0%"></stop>
            <stop stop-color="#FFFFFF" offset="100%"></stop>
        </linearGradient>
    </defs>
    <g id="蓝色" stroke="none" stroke-width="1" fill="none" fill-rule="evenodd">
        <g id="工单切图" transform="translate(-1525.000000, -584.000000)">
            <g id="涉及部门备份-5" transform="translate(1509.000000, 565.000000)">
                <g id="服务人员" transform="translate(16.000000, 19.000000)">
                    <rect id="矩形" stroke="#1987C0" stroke-width="0.6" fill="url(#linearGradient-1)" fill-rule="nonzero" x="0.3" y="0.3" width="49.4" height="49.4" rx="2.4"></rect>
                    <g id="编组-13" transform="translate(6.000000, 6.000000)">
                        <path d="M19,3 C27.836556,3 35,10.163444 35,19 C35,27.836556 27.836556,35 19,35 C10.163444,35 3,27.836556 3,19 C3,10.163444 10.163444,3 19,3 Z M19,3.58181818 C10.4847733,3.58181818 3.58181818,10.4847733 3.58181818,19 C3.58181818,27.5152267 10.4847733,34.4181818 19,34.4181818 C27.5152267,34.4181818 34.4181818,27.5152267 34.4181818,19 C34.4181818,10.4847733 27.5152267,3.58181818 19,3.58181818 Z M19,4.74545455 C26.8725681,4.74545455 33.2545455,11.1274319 33.2545455,19 C33.2545455,26.8725681 26.8725681,33.2545455 19,33.2545455 C11.1274319,33.2545455 4.74545455,26.8725681 4.74545455,19 C4.74545455,11.1274319 11.1274319,4.74545455 19,4.74545455 Z M19,5.32727273 C11.4487612,5.32727273 5.32727273,11.4487612 5.32727273,19 C5.32727273,26.5512388 11.4487612,32.6727273 19,32.6727273 C26.5512388,32.6727273 32.6727273,26.5512388 32.6727273,19 C32.6727273,11.4487612 26.5512388,5.32727273 19,5.32727273 Z M19,6.49090909 C25.9085801,6.49090909 31.5090909,12.0914199 31.5090909,19 C31.5090909,25.9085801 25.9085801,31.5090909 19,31.5090909 C12.0914199,31.5090909 6.49090909,25.9085801 6.49090909,19 C6.49090909,12.0914199 12.0914199,6.49090909 19,6.49090909 Z M19,7.07272727 C12.4127492,7.07272727 7.07272727,12.4127492 7.07272727,19 C7.07272727,25.5872508 12.4127492,30.9272727 19,30.9272727 C25.5872508,30.9272727 30.9272727,25.5872508 30.9272727,19 C30.9272727,12.4127492 25.5872508,7.07272727 19,7.07272727 Z M19,8.23636364 C24.9445922,8.23636364 29.7636364,13.0554078 29.7636364,19 C29.7636364,24.9445922 24.9445922,29.7636364 19,29.7636364 C13.0554078,29.7636364 8.23636364,24.9445922 8.23636364,19 C8.23636364,13.0554078 13.0554078,8.23636364 19,8.23636364 Z M19,8.81818182 C13.3767371,8.81818182 8.81818182,13.3767371 8.81818182,19 C8.81818182,24.6232629 13.3767371,29.1818182 19,29.1818182 C24.6232629,29.1818182 29.1818182,24.6232629 29.1818182,19 C29.1818182,13.3767371 24.6232629,8.81818182 19,8.81818182 Z M19,9.98181818 C23.9806043,9.98181818 28.0181818,14.0193957 28.0181818,19 C28.0181818,23.9806043 23.9806043,28.0181818 19,28.0181818 C14.0193957,28.0181818 9.98181818,23.9806043 9.98181818,19 C9.98181818,14.0193957 14.0193957,9.98181818 19,9.98181818 Z M19,10.5636364 C14.340725,10.5636364 10.5636364,14.340725 10.5636364,19 C10.5636364,23.659275 14.340725,27.4363636 19,27.4363636 C23.659275,27.4363636 27.4363636,23.659275 27.4363636,19 C27.4363636,14.340725 23.659275,10.5636364 19,10.5636364 Z M19,11.7272727 C23.0166164,11.7272727 26.2727273,14.9833836 26.2727273,19 C26.2727273,23.0166164 23.0166164,26.2727273 19,26.2727273 C14.9833836,26.2727273 11.7272727,23.0166164 11.7272727,19 C11.7272727,14.9833836 14.9833836,11.7272727 19,11.7272727 Z M19,12.3090909 C15.3047129,12.3090909 12.3090909,15.3047129 12.3090909,19 C12.3090909,22.6952871 15.3047129,25.6909091 19,25.6909091 C22.6952871,25.6909091 25.6909091,22.6952871 25.6909091,19 C25.6909091,15.3047129 22.6952871,12.3090909 19,12.3090909 Z M19,13.4727273 C22.0526284,13.4727273 24.5272727,15.9473716 24.5272727,19 C24.5272727,22.0526284 22.0526284,24.5272727 19,24.5272727 C15.9473716,24.5272727 13.4727273,22.0526284 13.4727273,19 C13.4727273,15.9473716 15.9473716,13.4727273 19,13.4727273 Z M19,14.0545455 C16.2687009,14.0545455 14.0545455,16.2687009 14.0545455,19 C14.0545455,21.7312991 16.2687009,23.9454545 19,23.9454545 C21.7312991,23.9454545 23.9454545,21.7312991 23.9454545,19 C23.9454545,16.2687009 21.7312991,14.0545455 19,14.0545455 Z" id="形状结合" fill="url(#radialGradient-2)" fill-rule="nonzero" opacity="0.2"></path>
                        <circle id="椭圆形" stroke-opacity="0.2" stroke="#D4DAE9" stroke-width="2.4" cx="19" cy="19" r="19"></circle>
                        <path d="M1.75447925,11.0146736 C0.628468222,13.4423788 0,16.1477961 0,19 C0,29.4934102 8.50658975,38 19,38 C29.4934102,38 38,29.4934102 38,19 C38,8.50658975 29.4934102,0 19,0" id="路径" stroke="#FFFFFF" stroke-width="2.4" opacity="0.4" stroke-linecap="round" stroke-linejoin="round" fill-rule="nonzero"></path>
                    </g>
                    <g id="编组" transform="translate(16.000000, 15.000000)" fill="url(#linearGradient-3)" fill-rule="nonzero">
                        <path d="M3.99365218,11.1181667 C4.10556522,11.236125 4.20260869,11.331125 4.28400001,11.4031667 C5.25745378,12.2644368 6.50700129,12.738757 7.80026088,12.7379167 C9.13463933,12.7387665 10.4209479,12.234048 11.4057391,11.3232083 C11.4644348,11.269375 11.5325217,11.2012917 11.61,11.1189583 C11.8447826,10.8711666 12.2016522,10.7904167 12.5170435,10.9139167 C13.3231304,11.2305833 14.0086957,11.663625 14.5283478,12.2177917 L14.4453913,12.257375 L14.4,12.2835 L14.3546087,12.257375 C13.8642108,12.0065378 13.3224813,11.8755711 12.7729565,11.875 C11.0011304,11.875 9.60026087,13.167 9.60026087,14.8675 C9.60026087,16.24975 10.3406087,17.21875 12.1781739,18.8155417 L12.3738261,19 L1.80000001,19 C0.806086953,19 0,18.1735 0,17.1538333 L0,15.0297917 C0,12.9896667 1.22556522,11.6430417 3.08347827,10.913125 C3.3999379,10.7889172 3.75920411,10.8698518 3.99365218,11.1181667 Z M16.0270435,13.0625 C17.1125217,13.0625 18,13.8494167 18,14.8675 C18,15.886375 17.1618261,16.7659166 15.8298261,17.9233333 L15.6326087,18.1085833 L15.4846956,18.2012083 L15.386087,18.2479167 L14.8930435,18.7110417 L14.6465217,18.8955 C14.4493043,19.0348333 14.2027826,19.0348333 14.0548696,18.8955 L13.8576522,18.7110417 L13.5125217,18.4331667 L12.9701739,17.9233333 L12.4943478,17.5021667 C11.4417391,16.54425 10.8,15.7589166 10.8,14.8682917 C10.8,13.8494166 11.6381739,13.0625 12.7721739,13.0625 C13.413913,13.0625 14.0055652,13.3395833 14.4,13.7567917 C14.8280033,13.3129989 15.4149169,13.0626717 16.0278261,13.0625 L16.0270435,13.0625 Z M7.80026087,0 C10.2850435,0 12.3002609,2.06624999 12.3002609,4.61541666 L12.3002609,6.74025 C12.3002609,9.28941666 10.2850435,11.3556667 7.80026087,11.3556667 C5.31469566,11.3556667 3.30026087,9.28941666 3.30026087,6.74025 L3.30026087,4.61462499 C3.30026087,2.06624999 5.31469566,0 7.80026087,0 Z" id="形状"></path>
                    </g>
                </g>
            </g>
        </g>
    </g>
</svg>