<?xml version="1.0" encoding="UTF-8"?>
<svg width="158px" height="110px" viewBox="0 0 158 110" version="1.1" xmlns="http://www.w3.org/2000/svg" xmlns:xlink="http://www.w3.org/1999/xlink">
    <title>硬件总数</title>
    <defs>
        <path d="M6,0 L152,0 C155.313708,-6.08718376e-16 158,2.6862915 158,6 L158,104 C158,107.313708 155.313708,110 152,110 L6,110 C2.6862915,110 4.05812251e-16,107.313708 0,104 L0,6 C-4.05812251e-16,2.6862915 2.6862915,6.08718376e-16 6,0 Z" id="path-1"></path>
    </defs>
    <g id="蓝色" stroke="none" stroke-width="1" fill="none" fill-rule="evenodd">
        <g id="地图模式-切图" transform="translate(-1554.000000, -842.000000)">
            <g id="编组" transform="translate(1554.000000, 842.000000)">
                <mask id="mask-2" fill="white">
                    <use xlink:href="#path-1"></use>
                </mask>
                <use id="蒙版" fill="#DFF1FF" xlink:href="#path-1"></use>
                <g opacity="0.4" mask="url(#mask-2)" fill-rule="nonzero" id="形状">
                    <g transform="translate(98.000000, 51.000000)">
                        <path d="M6.72413792,0 L58.275862,0 C59.5137416,0 60.5172414,1.03589019 60.5172414,2.3137255 L60.5172414,10.4117647 C60.5172414,11.6896 59.5137416,12.7254902 58.275862,12.7254902 L6.72413792,12.7254902 C5.4862583,12.7254902 4.48275859,11.6896 4.48275859,10.4117647 L4.48275859,2.3137255 C4.48275859,1.03589019 5.4862583,0 6.72413792,0 Z M6.72413792,46.2745098 L58.275862,46.2745098 C59.5137416,46.2745098 60.5172414,47.3104 60.5172414,48.5882353 L60.5172414,56.6862745 C60.5172414,57.9641098 59.5137416,59 58.275862,59 L6.72413792,59 C5.4862583,59 4.48275859,57.9641098 4.48275859,56.6862745 L4.48275859,48.5882353 C4.48275859,47.3104 5.4862583,46.2745098 6.72413792,46.2745098 Z" fill="#A1C8FF"></path>
                        <path d="M62.7586207,18.5098039 C63.9965003,18.5098039 65,19.5456941 65,20.8235294 L65,38.1764706 C65,39.4543059 63.9965003,40.4901961 62.7586207,40.4901961 L2.24137932,40.4901961 C1.0034997,40.4901961 0,39.4543059 0,38.1764706 L0,20.8235294 C0,19.5456941 1.0034997,18.5098039 2.24137932,18.5098039 L62.7586207,18.5098039 Z M11.2068966,25.4509804 C8.73113734,25.4509804 6.72413794,27.5227608 6.72413794,30.0784314 C6.72413794,32.634102 8.73113734,34.7058823 11.2068966,34.7058823 C13.6826558,34.7058823 15.6896552,32.634102 15.6896552,30.0784314 C15.6896552,27.5227608 13.6826558,25.4509804 11.2068966,25.4509804 L11.2068966,25.4509804 Z M57.1551724,26.6078432 L34.7413793,26.6078432 L34.7413793,32.3921568 L57.1551724,32.3921568 L57.1551724,26.6078432 Z" fill="#3388FF"></path>
                    </g>
                </g>
            </g>
        </g>
    </g>
</svg>