<?xml version="1.0" encoding="UTF-8"?>
<svg width="32px" height="32px" viewBox="0 0 32 32" version="1.1" xmlns="http://www.w3.org/2000/svg" xmlns:xlink="http://www.w3.org/1999/xlink">
    <title>社区@2x</title>
    <g id="蓝色" stroke="none" stroke-width="1" fill="none" fill-rule="evenodd">
        <g id="人口档案切图" transform="translate(-1517.000000, -183.000000)">
            <g id="社区" transform="translate(1517.000000, 183.000000)">
                <rect id="Rectangle-6" fill="#2DA8EC" x="0" y="0" width="32" height="32" rx="3.84962406"></rect>
                <g id="编组" transform="translate(9.000000, 7.000000)" fill="#FFFFFF" fill-rule="nonzero">
                    <path d="M6.99981094,0 C3.13976287,0 -0.000378096558,3.114 0,6.94200001 C0,8.36400001 0.430658714,9.73125 1.23677316,10.882125 C1.27723013,10.951125 1.31806519,11.017875 1.3660842,11.08275 L6.47538281,17.76225 C6.61414643,17.915625 6.80055094,18 7.00018904,18 C7.19718043,18 7.38471925,17.914875 7.5469252,17.7345 L12.6327815,11.081625 C12.6830691,11.015625 12.7257947,10.94325 12.749237,10.900875 C13.5670727,9.73387499 14,8.36512499 14,6.94274999 C14,3.114 10.859859,0 6.99981094,0 Z M6.99981094,9.42487501 C5.62124936,9.42487501 4.49941934,8.31225001 4.49941934,6.944625 C4.49941934,5.57737501 5.62124936,4.465125 6.99981094,4.465125 C8.37837253,4.465125 9.50020254,5.57775 9.50020254,6.944625 C9.50020254,8.31225001 8.37837253,9.42487501 6.99981094,9.42487501 Z" id="形状"></path>
                </g>
            </g>
        </g>
    </g>
</svg>