<?xml version="1.0" encoding="UTF-8"?>
<svg width="158px" height="111px" viewBox="0 0 158 111" version="1.1" xmlns="http://www.w3.org/2000/svg" xmlns:xlink="http://www.w3.org/1999/xlink">
    <title>绑定人数</title>
    <defs>
        <path d="M6,0 L152,0 C155.313708,-6.08718376e-16 158,2.6862915 158,6 L158,104 C158,107.313708 155.313708,110 152,110 L6,110 C2.6862915,110 4.05812251e-16,107.313708 0,104 L0,6 C-4.05812251e-16,2.6862915 2.6862915,6.08718376e-16 6,0 Z" id="path-1"></path>
        <linearGradient x1="50%" y1="100%" x2="50%" y2="0%" id="linearGradient-3">
            <stop stop-color="#73CD79" offset="0%"></stop>
            <stop stop-color="#93DA98" offset="100%"></stop>
        </linearGradient>
    </defs>
    <g id="蓝色" stroke="none" stroke-width="1" fill="none" fill-rule="evenodd">
        <g id="地图模式-切图" transform="translate(-1729.000000, -841.000000)">
            <g id="编组" transform="translate(1729.000000, 841.577465)">
                <mask id="mask-2" fill="white">
                    <use xlink:href="#path-1"></use>
                </mask>
                <use id="蒙版" fill="#F5FFF0" xlink:href="#path-1"></use>
                <g opacity="0.400000006" mask="url(#mask-2)" fill="url(#linearGradient-3)" fill-rule="nonzero" id="形状">
                    <g transform="translate(98.000000, 49.000000)">
                        <path d="M40.6545347,30.3335417 C40.6545347,29.8221063 40.2312914,29.4069151 39.7090923,29.4069151 L27.4182776,29.4069151 C26.8963996,29.4069151 26.4728353,29.8221063 26.4728353,30.3335417 L26.4728353,59.9898734 C26.4728353,60.5016865 26.8963996,60.9169406 27.4182776,60.9169406 L39.7090923,60.9169406 C40.2308419,60.9169406 40.6545347,60.5017495 40.6545347,59.9898734 L40.6545347,30.3335417 Z M64.8081048,16.6638952 L55.4142363,0.602870955 C54.96383,-0.161481118 54.2267022,-0.219202509 53.7767453,0.545653131 L44.3845465,16.6932909 C43.9345897,17.4569506 44.3033141,18.2856963 45.2033562,18.2856963 L48.2183945,18.2856963 L48.2183945,59.5265286 C48.2183945,60.0364534 48.876088,60.9169406 49.3962964,60.9169406 L59.7963549,60.9169406 C60.3165633,60.9169406 60.5092093,60.0364534 60.5092093,59.5265286 L60.5092093,18.2857593 L63.989295,18.2857593 C64.8892087,18.2857593 65.2580616,17.4282473 64.8081048,16.6638952 L64.8081048,16.6638952 Z M4.05224437,17.5341223 C4.05224437,13.8789797 7.07498853,10.9159903 10.8038445,10.9159903 C14.532572,10.9159903 17.5554446,13.8789797 17.5554446,17.5341223 C17.5554446,21.189139 14.532572,24.1522543 10.8038445,24.1522543 C7.07498853,24.1522543 4.05224437,21.189139 4.05224437,17.5341223 Z M11.0156267,58.1365573 C11.0156267,59.9899364 9.84010077,61.1504699 8.05086895,60.9834745 C6.49075743,60.8390766 5.6727183,59.3865999 5.6727183,57.8501534 L5.6727183,42.5342198 C5.6727183,43.7930119 4.13533902,44.8012164 2.83536381,44.8012164 C1.39944475,44.8012164 0,43.6084545 0,42.4128601 L0,31.5041467 C0,28.6616357 2.11512464,26.6264059 5.01457536,26.6264059 L7.32735479,26.6264059 L11.1093168,33.114114 L14.8908294,26.6264059 L17.1496037,26.6264059 C20.0494397,26.6264059 22.6908732,28.6616357 22.6908732,31.504902 L22.6908732,42.414119 C22.6908732,43.6096505 21.2914285,44.8020347 19.8555094,44.8020347 C18.5555984,44.8020347 17.0181549,43.7938302 17.0181549,42.5353528 L17.0181549,57.8509088 C17.0181549,59.3877329 15.9376677,60.8390136 14.3763361,60.9842298 C12.5870401,61.150407 11.1486808,59.9898734 11.1486808,58.1364943 L11.0156267,58.1364943 L11.0156267,58.1365573 Z"></path>
                    </g>
                </g>
            </g>
        </g>
    </g>
</svg>