<?xml version="1.0" encoding="UTF-8"?>
<svg width="22px" height="22px" viewBox="0 0 22 22" version="1.1" xmlns="http://www.w3.org/2000/svg" xmlns:xlink="http://www.w3.org/1999/xlink">
    <title>解释</title>
    <g id="蓝色" stroke="none" stroke-width="1" fill="none" fill-rule="evenodd">
        <g id="工单切图" transform="translate(-120.000000, -597.000000)">
            <g id="解释" transform="translate(119.000000, 596.000000)">
                <rect id="矩形" fill="#000000" fill-rule="nonzero" opacity="0" x="0" y="0" width="24" height="24"></rect>
                <path d="M12,1.5 C6.2015625,1.5 1.5,6.2015625 1.5,12 C1.5,17.7984375 6.2015625,22.5 12,22.5 C17.7984375,22.5 22.5,17.7984375 22.5,12 C22.5,6.2015625 17.7984375,1.5 12,1.5 Z M11.25,6.9375 C11.25,6.834375 11.334375,6.75 11.4375,6.75 L12.5625,6.75 C12.665625,6.75 12.75,6.834375 12.75,6.9375 L12.75,13.3125 C12.75,13.415625 12.665625,13.5 12.5625,13.5 L11.4375,13.5 C11.334375,13.5 11.25,13.415625 11.25,13.3125 L11.25,6.9375 Z M12,17.25 C11.3789062,17.25 10.875,16.7460938 10.875,16.125 C10.875,15.5039062 11.3789062,15 12,15 C12.6210938,15 13.125,15.5039062 13.125,16.125 C13.125,16.7460938 12.6210938,17.25 12,17.25 Z" id="形状" fill="#1F4E78"></path>
            </g>
        </g>
    </g>
</svg>