<?xml version="1.0" encoding="UTF-8"?>
<svg width="20px" height="20px" viewBox="0 0 20 20" version="1.1" xmlns="http://www.w3.org/2000/svg" xmlns:xlink="http://www.w3.org/1999/xlink">
    <title>icon/2.二级导航/我发起的</title>
    <g id="icon/2.二级导航/我发起的" stroke="none" stroke-width="1" fill="none" fill-rule="evenodd">
        <rect id="矩形" x="0" y="0" width="20" height="20"></rect>
        <path d="M13.8367242,11.3544437 C14.108332,11.1197109 14.5188022,11.1496041 14.753535,11.421212 L16.2624971,13.1672228 L16.3224291,13.2484913 C16.4634011,13.4744645 16.4534118,13.7684687 16.2879624,13.9858777 L14.7790003,15.9687313 L14.7152236,16.0408995 C14.4884631,16.2622123 14.1278136,16.2899869 13.8681118,16.0923525 L13.7959437,16.0285758 C13.5746308,15.8018153 13.5468562,15.4411658 13.7444906,15.181464 L14.4676383,14.2331291 L14.3654496,14.2411158 L10.9450141,14.2411158 C10.586029,14.2411158 10.2950141,13.9501008 10.2950141,13.5911158 C10.2950141,13.2647657 10.5355223,12.9945893 10.8489619,12.9481634 L10.9450141,12.9411158 L14.348892,12.941 L13.769956,12.2712545 L13.7124817,12.1939731 C13.542656,11.9264681 13.589808,11.5678371 13.8367242,11.3544437 Z M12.415892,2.85 C13.8231561,2.85 14.9742171,3.94693548 15.0606785,5.33240983 L15.065892,5.5 L15.065892,8.7377124 C15.065892,9.09669749 14.7748771,9.3877124 14.415892,9.3877124 C14.089542,9.3877124 13.8193656,9.14720421 13.7729397,8.83376464 L13.765892,8.7377124 L13.765892,5.5 C13.765892,4.79827349 13.2304928,4.22159619 12.5459061,4.15617992 L12.415892,4.15 L5.41589205,4.15 C4.71416554,4.15 4.13748824,4.68539927 4.07207197,5.36998599 L4.06589205,5.5 L4.06589205,13.5 C4.06589205,14.2017265 4.60129132,14.7784038 5.28587804,14.8438201 L5.41589205,14.85 L8.12533623,14.85 C8.48432132,14.85 8.77533623,15.1410149 8.77533623,15.5 C8.77533623,15.8263501 8.53482804,16.0965265 8.22138847,16.1429523 L8.12533623,16.15 L5.41589205,16.15 C4.00862802,16.15 2.857567,15.0530645 2.7711056,13.6675902 L2.76589205,13.5 L2.76589205,5.5 C2.76589205,4.09273597 3.86282753,2.94167496 5.24830188,2.85521355 L5.41589205,2.85 L12.415892,2.85 Z M8.41589205,10.85 C8.77487714,10.85 9.06589205,11.1410149 9.06589205,11.5 C9.06589205,11.8263501 8.82538386,12.0965265 8.51194428,12.1429523 L8.41589205,12.15 L6.41589205,12.15 C6.05690696,12.15 5.76589205,11.8589851 5.76589205,11.5 C5.76589205,11.1736499 6.00640024,10.9034735 6.31983981,10.8570477 L6.41589205,10.85 L8.41589205,10.85 Z M9.91589205,6.85 C10.2748771,6.85 10.565892,7.14101491 10.565892,7.5 C10.565892,7.82635008 10.3253839,8.09652646 10.0119443,8.14295233 L9.91589205,8.15 L6.41589205,8.15 C6.05690696,8.15 5.76589205,7.85898509 5.76589205,7.5 C5.76589205,7.17364992 6.00640024,6.90347354 6.31983981,6.85704767 L6.41589205,6.85 L9.91589205,6.85 Z" id="形状结合" fill="#5A6172"></path>
    </g>
</svg>