<?xml version="1.0" encoding="utf-8"?>
<svg version="1.1" xmlns:xlink="http://www.w3.org/1999/xlink" width="22px" height="22px" xmlns="http://www.w3.org/2000/svg">
  <g transform="matrix(1 0 0 1 -1243 -100 )">
    <path d="M 1254 100  C 1260.16 100  1265 104.84  1265 111  C 1265 117.16  1260.16 122  1254 122  C 1247.84 122  1243 117.16  1243 111  C 1243 104.84  1247.84 100  1254 100  Z " fill-rule="nonzero" fill="#ffffff" stroke="none" />
    <path d="M 1254 100.5  C 1259.88 100.5  1264.5 105.12  1264.5 111  C 1264.5 116.88  1259.88 121.5  1254 121.5  C 1248.12 121.5  1243.5 116.88  1243.5 111  C 1243.5 105.12  1248.12 100.5  1254 100.5  Z " stroke-width="1" stroke="#797979" fill="none" />
  </g>
</svg>