<?xml version="1.0" encoding="utf-8"?>
<svg version="1.1" xmlns:xlink="http://www.w3.org/1999/xlink" width="22px" height="22px" xmlns="http://www.w3.org/2000/svg">
  <g transform="matrix(1 0 0 1 -1158 -100 )">
    <path d="M 1169 100  C 1175.16 100  1180 104.84  1180 111  C 1180 117.16  1175.16 122  1169 122  C 1162.84 122  1158 117.16  1158 111  C 1158 104.84  1162.84 100  1169 100  Z " fill-rule="nonzero" fill="#333333" stroke="none" />
    <path d="M 1169 100.5  C 1174.88 100.5  1179.5 105.12  1179.5 111  C 1179.5 116.88  1174.88 121.5  1169 121.5  C 1163.12 121.5  1158.5 116.88  1158.5 111  C 1158.5 105.12  1163.12 100.5  1169 100.5  Z " stroke-width="1" stroke="#797979" fill="none" />
  </g>
</svg>