<?xml version="1.0" encoding="utf-8"?>
<svg version="1.1" xmlns:xlink="http://www.w3.org/1999/xlink" width="33px" height="33px" xmlns="http://www.w3.org/2000/svg">
  <g transform="matrix(1 0 0 1 -332 -331 )">
    <path d="M 348.5 331  C 357.74 331  365 338.26  365 347.5  C 365 356.74  357.74 364  348.5 364  C 339.26 364  332 356.74  332 347.5  C 332 338.26  339.26 331  348.5 331  Z " fill-rule="nonzero" fill="#ffffff" stroke="none" />
    <path d="M 348.5 331.5  C 357.46 331.5  364.5 338.54  364.5 347.5  C 364.5 356.46  357.46 363.5  348.5 363.5  C 339.54 363.5  332.5 356.46  332.5 347.5  C 332.5 338.54  339.54 331.5  348.5 331.5  Z " stroke-width="1" stroke="#797979" fill="none" />
  </g>
</svg>