<?xml version="1.0" encoding="utf-8"?>
<svg version="1.1" xmlns:xlink="http://www.w3.org/1999/xlink" width="33px" height="33px" xmlns="http://www.w3.org/2000/svg">
  <g transform="matrix(1 0 0 1 -332 -313 )">
    <path d="M 348.5 313  C 357.74 313  365 320.26  365 329.5  C 365 338.74  357.74 346  348.5 346  C 339.26 346  332 338.74  332 329.5  C 332 320.26  339.26 313  348.5 313  Z " fill-rule="nonzero" fill="#ffffff" stroke="none" />
    <path d="M 348.5 313.5  C 357.46 313.5  364.5 320.54  364.5 329.5  C 364.5 338.46  357.46 345.5  348.5 345.5  C 339.54 345.5  332.5 338.46  332.5 329.5  C 332.5 320.54  339.54 313.5  348.5 313.5  Z " stroke-width="1" stroke="#797979" fill="none" />
  </g>
</svg>