<?xml version="1.0" encoding="utf-8"?>
<svg version="1.1" xmlns:xlink="http://www.w3.org/1999/xlink" width="33px" height="33px" xmlns="http://www.w3.org/2000/svg">
  <g transform="matrix(1 0 0 1 -332 -275 )">
    <path d="M 348.5 275  C 357.74 275  365 282.26  365 291.5  C 365 300.74  357.74 308  348.5 308  C 339.26 308  332 300.74  332 291.5  C 332 282.26  339.26 275  348.5 275  Z " fill-rule="nonzero" fill="#ffffff" stroke="none" />
    <path d="M 348.5 275.5  C 357.46 275.5  364.5 282.54  364.5 291.5  C 364.5 300.46  357.46 307.5  348.5 307.5  C 339.54 307.5  332.5 300.46  332.5 291.5  C 332.5 282.54  339.54 275.5  348.5 275.5  Z " stroke-width="1" stroke="#797979" fill="none" />
  </g>
</svg>