<?xml version="1.0" encoding="utf-8"?>
<svg version="1.1" xmlns:xlink="http://www.w3.org/1999/xlink" width="305px" height="133px" xmlns="http://www.w3.org/2000/svg">
  <g transform="matrix(1 0 0 1 -41.5 -163.5 )">
    <path d="M 0 129  C 45.3827319587629 86.7962962962963  63.2255154639175 104.314814814815  63.2255154639175 104.314814814815  C 63.2255154639175 104.314814814815  82.6198453608248 137.759259259259  86.110824742268 91.5740740740741  C 89.6018041237113 45.3888888888889  96.9716494845361 41.4074074074074  105.505154639175 43.7962962962963  C 114.038659793814 46.1851851851852  122.572164948454 41.4074074074074  130.329896907216 30.2592592592593  C 138.087628865979 19.1111111111111  143.518041237113 18.3148148148148  150.5 16.7222222222222  C 157.481958762887 15.1296296296296  154.76675257732 23.8888888888889  166.403350515464 22.2962962962963  C 178.039948453608 20.7037037037037  171.833762886598 7.96296296296296  188.512886597938 10.3518518518519  C 205.192010309278 12.7407407407407  197.434278350515 20.7037037037037  220.319587628866 19.1111111111111  C 243.204896907216 17.5185185185185  230.01675257732 -14.3333333333333  255.229381443299 7.96296296296296  C 280.442010309278 30.2592592592593  273.84793814433 33.4444444444444  279.666237113402 35.037037037037  C 285.484536082474 36.6296296296296  297.896907216495 15.1296296296296  299.060567010309 30.2592592592593  C 300.224226804124 45.3888888888889  301 42.2037037037037  301 42.2037037037037  " stroke-width="3" stroke="#6a708c" fill="none" transform="matrix(1 0 0 1 43 165 )" />
  </g>
</svg>