<?xml version="1.0" encoding="utf-8"?>
<svg version="1.1" xmlns:xlink="http://www.w3.org/1999/xlink" width="33px" height="33px" xmlns="http://www.w3.org/2000/svg">
  <g transform="matrix(1 0 0 1 -332 -274 )">
    <path d="M 348.5 274  C 357.74 274  365 281.26  365 290.5  C 365 299.74  357.74 307  348.5 307  C 339.26 307  332 299.74  332 290.5  C 332 281.26  339.26 274  348.5 274  Z " fill-rule="nonzero" fill="#ffffff" stroke="none" />
    <path d="M 348.5 274.5  C 357.46 274.5  364.5 281.54  364.5 290.5  C 364.5 299.46  357.46 306.5  348.5 306.5  C 339.54 306.5  332.5 299.46  332.5 290.5  C 332.5 281.54  339.54 274.5  348.5 274.5  Z " stroke-width="1" stroke="#797979" fill="none" />
  </g>
</svg>