<?xml version="1.0" encoding="utf-8"?>
<svg version="1.1" xmlns:xlink="http://www.w3.org/1999/xlink" width="20px" height="22px" xmlns="http://www.w3.org/2000/svg">
  <g transform="matrix(1 0 0 1 -175 -196 )">
    <path d="M 8.78605769230769 2.05636160714286  C 8.48958333333333 1.73307291666667  8.125 1.57142857142857  7.69230769230769 1.57142857142857  C 7.26762820512821 1.57142857142857  6.90504807692308 1.72488839285714  6.60456730769231 2.03180803571429  C 6.30408653846154 2.33872767857143  6.15384615384615 2.70907738095238  6.15384615384615 3.14285714285714  L 6.15384615384615 9.42857142857143  L 6.15384615384615 14.1428571428571  L 4.33894230769231 11.6629464285714  C 4.01041666666667 11.2209821428571  3.58173076923077 11  3.05288461538462 11  C 2.63621794871795 11  2.27964743589744 11.155505952381  1.98317307692308 11.4665178571429  C 1.68669871794872 11.7775297619048  1.53846153846154 12.1458333333333  1.53846153846154 12.5714285714286  C 1.53846153846154 12.9233630952381  1.64262820512821 13.2384672619048  1.85096153846154 13.5167410714286  L 6.46634615384615 19.8024553571429  C 6.77083333333333 20.2198660714286  7.17948717948718 20.4285714285714  7.69230769230769 20.4285714285714  L 16.3221153846154 20.4285714285714  C 16.4983974358974 20.4285714285714  16.6566506410256 20.3733258928571  16.796875 20.2628348214286  C 16.9370993589744 20.15234375  17.0272435897436 20.0111607142857  17.0673076923077 19.8392857142857  L 18.1730769230769 15.3214285714286  C 18.3653846153846 14.5357142857143  18.4615384615385 13.7418154761905  18.4615384615385 12.9397321428571  L 18.4615384615385 10.2756696428571  C 18.4615384615385 9.94010416666667  18.349358974359 9.64955357142857  18.125 9.40401785714286  C 17.900641025641 9.15848214285714  17.6282051282051 9.03571428571428  17.3076923076923 9.03571428571428  C 16.9871794871795 9.03571428571428  16.7147435897436 9.15029761904762  16.4903846153846 9.37946428571428  C 16.2660256410256 9.60863095238095  16.1538461538462 9.88690476190476  16.1538461538462 10.2142857142857  L 15.7692307692308 10.2142857142857  L 15.7692307692308 9.46540178571428  C 15.7692307692308 9.07254464285714  15.6410256410256 8.73902529761905  15.3846153846154 8.46484375  C 15.1282051282051 8.19066220238095  14.8076923076923 8.05357142857143  14.4230769230769 8.05357142857143  C 14.0544871794872 8.05357142857143  13.7379807692308 8.18861607142857  13.4735576923077 8.45870535714286  C 13.2091346153846 8.72879464285714  13.0769230769231 9.05208333333333  13.0769230769231 9.42857142857143  L 13.0769230769231 10.2142857142857  L 12.6923076923077 10.2142857142857  L 12.6923076923077 9.109375  C 12.6923076923077 8.65922619047619  12.5440705128205 8.27250744047619  12.2475961538462 7.94921875  C 11.9511217948718 7.62593005952381  11.5865384615385 7.46428571428571  11.1538461538462 7.46428571428571  C 10.7291666666667 7.46428571428571  10.3665865384615 7.61774553571429  10.0661057692308 7.92466517857143  C 9.765625 8.23158482142857  9.61538461538461 8.60193452380952  9.61538461538461 9.03571428571428  L 9.61538461538461 10.2142857142857  L 9.23076923076923 10.2142857142857  L 9.23076923076923 3.21651785714286  C 9.23076923076923 2.76636904761905  9.08253205128205 2.37965029761905  8.78605769230769 2.05636160714286  Z M 5.51682692307692 0.920758928571429  C 6.11778846153846 0.306919642857144  6.84294871794872 0  7.69230769230769 0  C 8.54967948717949 0  9.27684294871795 0.317150297619049  9.87379807692308 0.951450892857144  C 10.4707532051282 1.58575148809524  10.7692307692308 2.34077380952381  10.7692307692308 3.21651785714286  L 10.7692307692308 5.91741071428571  C 10.9455128205128 5.90104166666667  11.073717948718 5.89285714285714  11.1538461538462 5.89285714285714  C 11.9471153846154 5.89285714285714  12.6402243589744 6.17522321428571  13.2331730769231 6.73995535714286  C 13.6097756410256 6.56808035714286  14.0064102564103 6.48214285714286  14.4230769230769 6.48214285714286  C 15.3285256410256 6.48214285714286  16.0657051282051 6.83816964285714  16.6346153846154 7.55022321428571  C 16.8509615384615 7.49293154761905  17.0753205128205 7.46428571428571  17.3076923076923 7.46428571428571  C 18.0608974358974 7.46428571428571  18.6979166666667 7.74051339285714  19.21875 8.29296875  C 19.7395833333333 8.84542410714286  20 9.50632440476191  20 10.2756696428571  L 20 12.9397321428571  C 20 13.8891369047619  19.8878205128205 14.8098958333333  19.6634615384615 15.7020089285714  L 18.5576923076923 20.2198660714286  C 18.4294871794872 20.7436755952381  18.1570512820513 21.1713169642857  17.7403846153846 21.5027901785714  C 17.323717948718 21.8342633928571  16.8509615384615 22  16.3221153846154 22  L 7.69230769230769 22  C 7.21153846153846 22  6.75280448717949 21.887462797619  6.31610576923077 21.6623883928571  C 5.87940705128205 21.4373139880952  5.51682692307692 21.1324404761905  5.22836538461538 20.7477678571429  L 0.612980769230769 14.4620535714286  C 0.204326923076923 13.905505952381  0 13.2752976190476  0 12.5714285714286  C 0 11.7120535714286  0.298477564102564 10.973400297619  0.895432692307692 10.35546875  C 1.49238782051282 9.73753720238095  2.21153846153846 9.42857142857143  3.05288461538462 9.42857142857143  C 3.62179487179487 9.42857142857143  4.14262820512821 9.57180059523809  4.61538461538462 9.85825892857143  L 4.61538461538462 3.14285714285714  C 4.61538461538462 2.27529761904762  4.91586538461538 1.53459821428571  5.51682692307692 0.920758928571429  Z M 8.84615384615385 17.2857142857143  L 9.23076923076923 17.2857142857143  L 9.23076923076923 12.5714285714286  L 8.84615384615385 12.5714285714286  L 8.84615384615385 17.2857142857143  Z M 11.9230769230769 17.2857142857143  L 12.3076923076923 17.2857142857143  L 12.3076923076923 12.5714285714286  L 11.9230769230769 12.5714285714286  L 11.9230769230769 17.2857142857143  Z M 15 17.2857142857143  L 15.3846153846154 17.2857142857143  L 15.3846153846154 12.5714285714286  L 15 12.5714285714286  L 15 17.2857142857143  Z " fill-rule="nonzero" fill="#000000" stroke="none" transform="matrix(1 0 0 1 175 196 )" />
  </g>
</svg>