<?xml version="1.0" encoding="utf-8"?>
<svg version="1.1" xmlns:xlink="http://www.w3.org/1999/xlink" width="33px" height="33px" xmlns="http://www.w3.org/2000/svg">
  <g transform="matrix(1 0 0 1 -332 -211 )">
    <path d="M 348.5 211  C 357.74 211  365 218.26  365 227.5  C 365 236.74  357.74 244  348.5 244  C 339.26 244  332 236.74  332 227.5  C 332 218.26  339.26 211  348.5 211  Z " fill-rule="nonzero" fill="#ffffff" stroke="none" />
    <path d="M 348.5 211.5  C 357.46 211.5  364.5 218.54  364.5 227.5  C 364.5 236.46  357.46 243.5  348.5 243.5  C 339.54 243.5  332.5 236.46  332.5 227.5  C 332.5 218.54  339.54 211.5  348.5 211.5  Z " stroke-width="1" stroke="#797979" fill="none" />
  </g>
</svg>