<?xml version="1.0" encoding="utf-8"?>
<svg version="1.1" xmlns:xlink="http://www.w3.org/1999/xlink" width="12px" height="12px" viewBox="1537 1613  12 12" xmlns="http://www.w3.org/2000/svg">
  <path d="M 1543 1613  C 1546.36 1613  1549 1615.64  1549 1619  C 1549 1622.36  1546.36 1625  1543 1625  C 1539.64 1625  1537 1622.36  1537 1619  C 1537 1615.64  1539.64 1613  1543 1613  Z " fill-rule="nonzero" fill="#ffffff" stroke="none" />
  <path d="M 1543 1613.5  C 1546.08 1613.5  1548.5 1615.92  1548.5 1619  C 1548.5 1622.08  1546.08 1624.5  1543 1624.5  C 1539.92 1624.5  1537.5 1622.08  1537.5 1619  C 1537.5 1615.92  1539.92 1613.5  1543 1613.5  Z " stroke-width="1" stroke="#797979" fill="none" />
  <path d="M 1543 1622  C 1541.32 1622  1540 1620.68  1540 1619  C 1540 1617.32  1541.32 1616  1543 1616  C 1544.68 1616  1546 1617.32  1546 1619  C 1546 1620.68  1544.68 1622  1543 1622  " fill-rule="nonzero" fill="#797979" stroke="none" />
</svg>