<?xml version="1.0" encoding="utf-8"?>
<svg version="1.1" xmlns:xlink="http://www.w3.org/1999/xlink" width="12px" height="12px" viewBox="2325 1613  12 12" xmlns="http://www.w3.org/2000/svg">
  <path d="M 2331 1613  C 2334.36 1613  2337 1615.64  2337 1619  C 2337 1622.36  2334.36 1625  2331 1625  C 2327.64 1625  2325 1622.36  2325 1619  C 2325 1615.64  2327.64 1613  2331 1613  Z " fill-rule="nonzero" fill="#f0f0f0" stroke="none" />
  <path d="M 2331 1613.5  C 2334.08 1613.5  2336.5 1615.92  2336.5 1619  C 2336.5 1622.08  2334.08 1624.5  2331 1624.5  C 2327.92 1624.5  2325.5 1622.08  2325.5 1619  C 2325.5 1615.92  2327.92 1613.5  2331 1613.5  Z " stroke-width="1" stroke="#797979" fill="none" />
  <path d="M 2331 1622  C 2329.32 1622  2328 1620.68  2328 1619  C 2328 1617.32  2329.32 1616  2331 1616  C 2332.68 1616  2334 1617.32  2334 1619  C 2334 1620.68  2332.68 1622  2331 1622  " fill-rule="nonzero" fill="#797979" stroke="none" />
</svg>