<?xml version="1.0" encoding="utf-8"?>
<svg version="1.1" xmlns:xlink="http://www.w3.org/1999/xlink" width="12px" height="12px" viewBox="1805 1329  12 12" xmlns="http://www.w3.org/2000/svg">
  <path d="M 1811 1329  C 1814.36 1329  1817 1331.64  1817 1335  C 1817 1338.36  1814.36 1341  1811 1341  C 1807.64 1341  1805 1338.36  1805 1335  C 1805 1331.64  1807.64 1329  1811 1329  Z " fill-rule="nonzero" fill="#f0f0f0" stroke="none" />
  <path d="M 1811 1329.5  C 1814.08 1329.5  1816.5 1331.92  1816.5 1335  C 1816.5 1338.08  1814.08 1340.5  1811 1340.5  C 1807.92 1340.5  1805.5 1338.08  1805.5 1335  C 1805.5 1331.92  1807.92 1329.5  1811 1329.5  Z " stroke-width="1" stroke="#797979" fill="none" />
  <path d="M 1811 1338  C 1809.32 1338  1808 1336.68  1808 1335  C 1808 1333.32  1809.32 1332  1811 1332  C 1812.68 1332  1814 1333.32  1814 1335  C 1814 1336.68  1812.68 1338  1811 1338  " fill-rule="nonzero" fill="#797979" stroke="none" />
</svg>