<?xml version="1.0" encoding="utf-8"?>
<svg version="1.1" xmlns:xlink="http://www.w3.org/1999/xlink" width="8px" height="8px" xmlns="http://www.w3.org/2000/svg">
  <g transform="matrix(1 0 0 1 -1421 -403 )">
    <path d="M 1425 404  C 1426.68 404  1428 405.32  1428 407  C 1428 408.68  1426.68 410  1425 410  C 1423.32 410  1422 408.68  1422 407  C 1422 405.32  1423.32 404  1425 404  Z " fill-rule="nonzero" fill="#ffffff" stroke="none" fill-opacity="0" />
    <path d="M 1425 404  C 1426.68 404  1428 405.32  1428 407  C 1428 408.68  1426.68 410  1425 410  C 1423.32 410  1422 408.68  1422 407  C 1422 405.32  1423.32 404  1425 404  Z " stroke-width="2" stroke="#0052d9" fill="none" />
  </g>
</svg>