<?xml version="1.0" encoding="utf-8"?>
<svg version="1.1" xmlns:xlink="http://www.w3.org/1999/xlink" width="12px" height="12px" viewBox="2452 1613  12 12" xmlns="http://www.w3.org/2000/svg">
  <path d="M 2458 1613  C 2461.36 1613  2464 1615.64  2464 1619  C 2464 1622.36  2461.36 1625  2458 1625  C 2454.64 1625  2452 1622.36  2452 1619  C 2452 1615.64  2454.64 1613  2458 1613  Z " fill-rule="nonzero" fill="#f0f0f0" stroke="none" />
  <path d="M 2458 1613.5  C 2461.08 1613.5  2463.5 1615.92  2463.5 1619  C 2463.5 1622.08  2461.08 1624.5  2458 1624.5  C 2454.92 1624.5  2452.5 1622.08  2452.5 1619  C 2452.5 1615.92  2454.92 1613.5  2458 1613.5  Z " stroke-width="1" stroke="#797979" fill="none" />
  <path d="M 2458 1622  C 2456.32 1622  2455 1620.68  2455 1619  C 2455 1617.32  2456.32 1616  2458 1616  C 2459.68 1616  2461 1617.32  2461 1619  C 2461 1620.68  2459.68 1622  2458 1622  " fill-rule="nonzero" fill="#797979" stroke="none" />
</svg>