<?xml version="1.0" encoding="utf-8"?>
<svg version="1.1" xmlns:xlink="http://www.w3.org/1999/xlink" width="12px" height="12px" viewBox="3042 1745  12 12" xmlns="http://www.w3.org/2000/svg">
  <path d="M 3048 1745  C 3051.36 1745  3054 1747.64  3054 1751  C 3054 1754.36  3051.36 1757  3048 1757  C 3044.64 1757  3042 1754.36  3042 1751  C 3042 1747.64  3044.64 1745  3048 1745  Z " fill-rule="nonzero" fill="#f0f0f0" stroke="none" />
  <path d="M 3048 1745.5  C 3051.08 1745.5  3053.5 1747.92  3053.5 1751  C 3053.5 1754.08  3051.08 1756.5  3048 1756.5  C 3044.92 1756.5  3042.5 1754.08  3042.5 1751  C 3042.5 1747.92  3044.92 1745.5  3048 1745.5  Z " stroke-width="1" stroke="#797979" fill="none" />
  <path d="M 3048 1754  C 3046.32 1754  3045 1752.68  3045 1751  C 3045 1749.32  3046.32 1748  3048 1748  C 3049.68 1748  3051 1749.32  3051 1751  C 3051 1752.68  3049.68 1754  3048 1754  " fill-rule="nonzero" fill="#797979" stroke="none" />
</svg>