<?xml version="1.0" encoding="utf-8"?>
<svg version="1.1" xmlns:xlink="http://www.w3.org/1999/xlink" width="8px" height="8px" xmlns="http://www.w3.org/2000/svg">
  <g transform="matrix(1 0 0 1 -1421 -471 )">
    <path d="M 1425 471  C 1427.24 471  1429 472.76  1429 475  C 1429 477.24  1427.24 479  1425 479  C 1422.76 479  1421 477.24  1421 475  C 1421 472.76  1422.76 471  1425 471  Z " fill-rule="nonzero" fill="#0052d9" stroke="none" />
    <path d="M 1425 471.5  C 1426.96 471.5  1428.5 473.04  1428.5 475  C 1428.5 476.96  1426.96 478.5  1425 478.5  C 1423.04 478.5  1421.5 476.96  1421.5 475  C 1421.5 473.04  1423.04 471.5  1425 471.5  Z " stroke-width="1" stroke="#0052d9" fill="none" />
  </g>
</svg>