<?xml version="1.0" encoding="UTF-8"?>
<svg width="16px" height="16px" viewBox="0 0 16 16" version="1.1" xmlns="http://www.w3.org/2000/svg" xmlns:xlink="http://www.w3.org/1999/xlink">
    <title>icon/时间</title>
    <g id="icon/时间" stroke="none" stroke-width="1" fill="none" fill-rule="evenodd">
        <rect id="矩形" fill="#000000" fill-rule="nonzero" opacity="0" x="0" y="0" width="16" height="16"></rect>
        <path d="M8,1 C11.865625,1 15,4.134375 15,8 C15,11.865625 11.865625,15 8,15 C4.134375,15 1,11.865625 1,8 C1,4.134375 4.134375,1 8,1 Z M8,2.1875 C4.790625,2.1875 2.1875,4.790625 2.1875,8 C2.1875,11.209375 4.790625,13.8125 8,13.8125 C11.209375,13.8125 13.8125,11.209375 13.8125,8 C13.8125,4.790625 11.209375,2.1875 8,2.1875 Z M8.3765625,4.375 C8.4453125,4.375 8.5015625,4.43125 8.5015625,4.5 L8.5015625,8.3671875 L10.7296875,9.978125 C10.7859375,10.0171875 10.7984375,10.0953125 10.7578125,10.153125 L10.3109375,10.7625 C10.2703125,10.8171875 10.1921875,10.8296875 10.1359375,10.7890625 L7.5515625,8.9046875 C7.51875,8.88125 7.5,8.84375 7.5,8.803125 L7.5,4.5 C7.5,4.43125 7.55625,4.375 7.625,4.375 Z" id="形状结合" fill="#03646B"></path>
    </g>
</svg>