<?xml version="1.0" encoding="UTF-8"?>
<svg width="22px" height="22px" viewBox="0 0 22 22" version="1.1" xmlns="http://www.w3.org/2000/svg" xmlns:xlink="http://www.w3.org/1999/xlink">
    <title>icon/一级导航/区域中心</title>
    <g id="页面-1" stroke="none" stroke-width="1" fill="none" fill-rule="evenodd">
        <g id="中心信息" transform="translate(-21.000000, -255.000000)">
            <g id="编组" transform="translate(1.000000, 0.000000)">
                <g id="icon/一级导航/区域中心" transform="translate(15.000000, 250.000000)">
                    <rect id="矩形" x="0" y="0" width="32" height="32"></rect>
                    <g id="编组-6备份" transform="translate(5.640000, 5.506667)" fill="#5A6172" fill-rule="nonzero">
                        <path d="M10.36,0 C16.0723236,0 20.7048436,4.62318885 20.7199629,10.3319695 C20.7199214,10.3412453 20.72,10.3506143 20.72,10.36 L20.719,10.371 L20.7123687,10.7610301 C20.6869576,11.4276713 20.598219,12.0851686 20.448153,12.7270245 C20.3358311,13.2074431 19.85532,13.5058445 19.3749014,13.3935226 C18.8944827,13.2812007 18.5960813,12.8006896 18.7084032,12.3202709 C18.8275713,11.81057 18.9000257,11.2886117 18.9242408,10.7587808 L18.9333333,10.36 C18.9333333,10.3773844 18.9334575,10.3777288 18.9115789,10.347611 C18.8547195,10.2693393 18.7468203,10.171619 18.5875451,10.0655433 C18.2003955,9.80770538 17.592114,9.55407856 16.8117274,9.33425138 C15.9737576,9.09820354 14.9798684,8.91155833 13.8876404,8.78379994 C13.9088453,9.29759477 13.92,9.82368272 13.92,10.36 C13.92,10.8533744 13.520041,11.2533333 13.0266667,11.2533333 C12.5332923,11.2533333 12.1333333,10.8533744 12.1333333,10.36 C12.1333333,9.77288701 12.1177887,9.19498812 12.0877268,8.63254079 C11.5250119,8.6022113 10.947113,8.58666667 10.36,8.58666667 C9.77288701,8.58666667 9.19498812,8.6022113 8.63254079,8.63227318 C8.6022113,9.19498812 8.58666667,9.77288701 8.58666667,10.36 C8.58666667,10.947113 8.6022113,11.5250119 8.63227318,12.0874592 C9.19498812,12.1177887 9.77288701,12.1333333 10.36,12.1333333 C10.5546085,12.1333333 10.7484741,12.131635 10.9414115,12.1282526 C11.43471,12.1196045 11.8416182,12.5124914 11.8502663,13.00579 C11.8589144,13.4990886 11.4660275,13.9059967 10.9727289,13.9146448 C10.7693506,13.9182102 10.5650455,13.92 10.36,13.92 L10.0150979,13.9184518 C9.597565,13.9146904 9.18670016,13.9040863 8.78382416,13.8867624 C8.91155833,14.9798684 9.09820354,15.9737576 9.33425138,16.8117274 C9.55407856,17.592114 9.80770538,18.2003955 10.0655433,18.5875451 C10.1598328,18.729123 10.2475205,18.8301077 10.3208153,18.8907349 L10.3680718,18.9269428 L10.36,18.9333333 C11.290613,18.9333333 12.2000063,18.7853581 13.0640027,18.498454 C13.5322365,18.3429694 14.0378601,18.5965026 14.1933447,19.0647363 C14.3488293,19.53297 14.0952961,20.0385936 13.6270624,20.1940783 C12.5826566,20.5408902 11.4838798,20.719787 10.3620046,20.7199998 C4.63832999,20.72 0,16.08167 0,10.36 C0,4.63832999 4.63832999,0 10.36,0 Z M13.8504471,12.449672 L21.2392022,15.8620508 L17.6039347,17.1864356 C17.4430519,17.2435313 17.3084697,17.3581357 17.2256304,17.5085832 L15.6060153,20.449672 L15.5823713,20.4377406 L13.8504471,12.449672 Z M2.09360343,12.6420321 L2.14965327,12.836092 C2.99541829,15.64438 5.24260984,17.8454363 8.07836316,18.6263961 C7.53908862,17.4045948 7.161482,15.7182243 6.96273302,13.756583 C5.00151113,13.5584658 3.31523154,13.1808562 2.09360343,12.6420321 Z M6.83323763,8.78382416 L6.6207707,8.80943989 C5.61166574,8.9360153 4.69180883,9.11353693 3.90827255,9.33425138 C3.12788604,9.55407856 2.51960452,9.80770538 2.13245488,10.0655433 C1.97317975,10.171619 1.86528045,10.2693393 1.80842111,10.347611 L1.79946667,10.36 L1.80842111,10.372389 C1.85896275,10.4419639 1.94983225,10.5269055 2.08126552,10.6194228 L2.13245488,10.6544567 C2.51960452,10.9122946 3.12788604,11.1659214 3.90827255,11.3857486 C4.74624237,11.6217965 5.74013157,11.8084417 6.83235961,11.9362001 C6.8111547,11.4224052 6.8,10.8963173 6.8,10.36 L6.80154816,10.0150979 C6.80530956,9.597565 6.8159137,9.18670016 6.83323763,8.78382416 Z M8.07796794,2.09360343 L7.88390804,2.14965327 C5.07561995,2.99541829 2.87456366,5.24260984 2.09360394,8.07836316 C3.31540524,7.53908862 5.00177568,7.161482 6.96341697,6.96273302 C7.1615342,5.00151113 7.53914381,3.31523154 8.07796794,2.09360343 Z M12.6416368,2.09360394 L12.6904861,2.20573373 C13.2035699,3.4175776 13.564524,5.06105459 13.757267,6.96341697 C15.7184889,7.1615342 17.4047685,7.53914381 18.6263966,8.07796794 C17.8274991,5.1774777 15.5425223,2.8925009 12.6416368,2.09360394 Z M10.36,1.7992 L10.347611,1.80842111 C10.2780361,1.85896275 10.1930945,1.94983225 10.1005772,2.08126552 L10.0655433,2.13245488 C9.80770538,2.51960452 9.55407856,3.12788604 9.33425138,3.90827255 C9.09820354,4.74624237 8.91155833,5.74013157 8.78379994,6.83235961 C9.29759477,6.8111547 9.82368272,6.8 10.36,6.8 L10.7049021,6.80154816 C11.122435,6.80530956 11.5332998,6.8159137 11.9361758,6.83323763 C11.8084417,5.74013157 11.6217965,4.74624237 11.3857486,3.90827255 C11.1659214,3.12788604 10.9122946,2.51960452 10.6544567,2.13245488 C10.5601672,1.99087699 10.4724795,1.88989234 10.3991847,1.82926505 L10.36,1.7992 Z" id="形状结合"></path>
                    </g>
                </g>
            </g>
        </g>
    </g>
</svg>