<?xml version="1.0" encoding="UTF-8"?>
<svg width="20px" height="22px" viewBox="0 0 20 22" version="1.1" xmlns="http://www.w3.org/2000/svg" xmlns:xlink="http://www.w3.org/1999/xlink">
    <title>icon/一级导航/工单管理</title>
    <defs>
        <polygon id="path-1" points="0 -2.31296463e-15 11.8816612 -2.31296463e-15 11.8816612 11.8506334 0 11.8506334"></polygon>
    </defs>
    <g id="页面-1" stroke="none" stroke-width="1" fill="none" fill-rule="evenodd">
        <g id="中心信息" transform="translate(-22.000000, -307.000000)">
            <g id="编组" transform="translate(1.000000, 0.000000)">
                <g id="icon/一级导航/工单管理" transform="translate(15.000000, 302.000000)">
                    <rect id="矩形" x="0" y="0" width="32" height="32"></rect>
                    <g id="编组" transform="translate(6.133493, 5.333307)">
                        <path d="M6.18613333,20.9152 L3.19386667,20.9152 C1.43306667,20.9152 0,19.4829333 0,17.7218667 L0,3.19306667 C0,1.43226667 1.43306667,-1.15648232e-15 3.19386667,-1.15648232e-15 L13.4717333,-1.15648232e-15 C15.2328,-1.15648232e-15 16.6650667,1.43226667 16.6650667,3.19306667 L16.6650667,7.89546667 C16.6650667,8.40053333 16.256,8.80986667 15.7506667,8.80986667 C15.2453333,8.80986667 14.8362667,8.40053333 14.8362667,7.89546667 L14.8362667,3.19306667 C14.8362667,2.4408 14.2248,1.8288 13.4717333,1.8288 L3.19386667,1.8288 C2.44106667,1.8288 1.82853333,2.4408 1.82853333,3.19306667 L1.82853333,17.7218667 C1.82853333,18.4744 2.44106667,19.0864 3.19386667,19.0864 L6.18613333,19.0864 C6.69173333,19.0864 7.1008,19.4957333 7.1008,20.0008 C7.1008,20.5058667 6.69173333,20.9152 6.18613333,20.9152" id="Fill-1" fill="#5A6172"></path>
                        <path d="M9.28898667,5.84176 L4.24872,5.84176 C3.74312,5.84176 3.33405333,5.43216 3.33405333,4.92736 C3.33405333,4.42229333 3.74312,4.01296 4.24872,4.01296 L9.28898667,4.01296 C9.79458667,4.01296 10.2033867,4.42229333 10.2033867,4.92736 C10.2033867,5.43216 9.79458667,5.84176 9.28898667,5.84176" id="Fill-3" fill="#5A6172"></path>
                        <path d="M11.9949867,9.10362667 L4.24858667,9.10362667 C3.74325333,9.10362667 3.33392,8.69429333 3.33392,8.18922667 C3.33392,7.68442667 3.74325333,7.27509333 4.24858667,7.27509333 L11.9949867,7.27509333 C12.50032,7.27509333 12.9093867,7.68442667 12.9093867,8.18922667 C12.9093867,8.69429333 12.50032,9.10362667 11.9949867,9.10362667" id="Fill-5" fill="#5A6172"></path>
                        <path d="M6.49213333,12.3656 L4.24866667,12.3656 C3.74306667,12.3656 3.334,11.9562667 3.334,11.4512 C3.334,10.9464 3.74306667,10.5368 4.24866667,10.5368 L6.49213333,10.5368 C6.99746667,10.5368 7.40653333,10.9464 7.40653333,11.4512 C7.40653333,11.9562667 6.99746667,12.3656 6.49213333,12.3656" id="Fill-7" fill="#5A6172"></path>
                        <g transform="translate(7.787245, 9.569020)">
                            <mask id="mask-2" fill="white">
                                <use xlink:href="#path-1"></use>
                            </mask>
                            <g id="Clip-10"></g>
                            <path d="M2.0637412,7.30023336 C1.91520786,7.4479667 1.8341412,7.64450003 1.8333412,7.85383336 L1.82879224,9.5039667 C1.8277412,9.6423667 1.8813412,9.77250003 1.9789412,9.87010003 C2.07707453,9.9679667 2.20640786,10.0221 2.34507453,10.0221 L4.00400786,10.0221 C4.21307453,10.0221 4.41040786,9.94023336 4.55840786,9.7919667 L9.79840786,4.55250003 C10.1394745,4.21143336 10.1394745,3.6559667 9.79840786,3.31490003 L8.5421412,2.0591667 C8.2117412,1.72850003 7.6349412,1.72823336 7.30427453,2.05943336 L2.0637412,7.30023336 Z M4.00400786,11.8506334 L2.34507453,11.8506334 C1.71707453,11.8506334 1.1269412,11.6055667 0.684007862,11.1610334 C0.241074528,10.7167667 -0.00159213819,10.1261 -2.96058344e-16,9.4983667 L0.00454119514,7.84770003 C0.00720786181,7.1519667 0.278674528,6.4991667 0.769074528,6.00823336 C0.769607862,6.00823336 0.769607862,6.00770003 0.769607862,6.00770003 L6.01147453,0.766100029 C7.03307453,-0.255766637 8.81520786,-0.254966637 9.83520786,0.766100029 L11.0914745,2.02210003 C12.1450745,3.07623336 12.1450745,4.79143336 11.0914745,5.8455667 L5.85147453,11.0850334 C5.35787453,11.5789 4.70160786,11.8506334 4.00400786,11.8506334 L4.00400786,11.8506334 Z" id="Fill-9" fill="#5A6172" mask="url(#mask-2)"></path>
                        </g>
                        <path d="M16.6954933,17.2188533 C16.46136,17.2188533 16.2274933,17.12952 16.0488267,16.95112 L12.2626933,13.1644533 C11.9056267,12.8073867 11.9056267,12.22872 12.2626933,11.8713867 C12.6200267,11.5140533 13.1986933,11.5140533 13.55576,11.8713867 L17.3418933,15.6577867 C17.6992267,16.01512 17.6992267,16.5937867 17.3418933,16.95112 C17.1632267,17.12952 16.92936,17.2188533 16.6954933,17.2188533" id="Fill-11" fill="#5A6172"></path>
                    </g>
                </g>
            </g>
        </g>
    </g>
</svg>