<?xml version="1.0" encoding="UTF-8"?>
<svg width="20px" height="20px" viewBox="0 0 20 20" version="1.1" xmlns="http://www.w3.org/2000/svg" xmlns:xlink="http://www.w3.org/1999/xlink">
    <title>icon/一级导航/我的助理备份 6</title>
    <defs>
        <polygon id="path-1" points="0 0 18.6098667 0 18.6098667 14.17024 0 14.17024"></polygon>
    </defs>
    <g id="页面-1" stroke="none" stroke-width="1" fill="none" fill-rule="evenodd">
        <g id="中心信息" transform="translate(-22.000000, -144.000000)">
            <g id="编组" transform="translate(1.000000, 0.000000)">
                <g id="icon/一级导航/我的助理备份-6" transform="translate(15.000000, 138.000000)">
                    <rect id="矩形" x="0" y="0" width="32" height="32"></rect>
                    <g id="编组" transform="translate(6.666720, 6.933413)">
                        <g>
                            <mask id="mask-2" fill="white">
                                <use xlink:href="#path-1"></use>
                            </mask>
                            <g id="Clip-2"></g>
                            <path d="M0.9144,14.17024 C0.4088,14.17024 0,13.76064 0,13.25584 L0,0.91424 C0,0.409173333 0.4088,-0.00016 0.9144,-0.00016 L17.6957333,-0.00016 C18.2010667,-0.00016 18.6098667,0.409173333 18.6098667,0.91424 C18.6098667,1.41930667 18.2010667,1.82864 17.6957333,1.82864 L1.8288,1.82864 L1.8288,13.25584 C1.8288,13.76064 1.42,14.17024 0.9144,14.17024" id="Fill-1" fill="#5A6172" mask="url(#mask-2)"></path>
                        </g>
                        <path d="M4.34696,11.0711467 C4.11282667,11.0711467 3.87896,10.98208 3.70029333,10.8034133 C3.34296,10.44608 3.34296,9.86741333 3.70029333,9.51034667 L6.05869333,7.15194667 C6.41576,6.79488 6.99442667,6.79488 7.35176,7.15194667 L8.50642667,8.30661333 L11.54776,5.26554667 L10.5736267,5.26554667 C10.0680267,5.26554667 9.65896,4.85621333 9.65896,4.35114667 C9.65896,3.84634667 10.0680267,3.43701333 10.5736267,3.43701333 L13.75496,3.43701333 C14.12456,3.43701333 14.4586933,3.65968 14.59976,4.00128 C14.7416267,4.34341333 14.6632267,4.73674667 14.40136,4.99781333 L9.15256,10.24608 C8.79576,10.6034133 8.21709333,10.6034133 7.85976,10.24608 L6.70509333,9.09141333 L4.99336,10.8034133 C4.81469333,10.98208 4.58082667,11.0711467 4.34696,11.0711467" id="Fill-3" fill="#5A6172"></path>
                        <path d="M17.6956533,18.6103467 L0.91432,18.6103467 C0.408986667,18.6103467 0.000186666667,18.2010133 0.000186666667,17.6959467 C0.000186666667,17.1911467 0.408986667,16.7818133 0.91432,16.7818133 L16.7812533,16.7818133 L16.7812533,6.22501333 C16.7812533,5.71994667 17.1900533,5.31034667 17.6956533,5.31034667 C18.2012533,5.31034667 18.6100533,5.71994667 18.6100533,6.22501333 L18.6100533,17.6959467 C18.6100533,18.2010133 18.2012533,18.6103467 17.6956533,18.6103467" id="Fill-5" fill="#5A6172"></path>
                        <path d="M5.06752,18.6103467 C4.56192,18.6103467 4.15285333,18.2010133 4.15285333,17.6959467 L4.15285333,13.65888 C4.15285333,13.15408 4.56192,12.74448 5.06752,12.74448 C5.57312,12.74448 5.98192,13.15408 5.98192,13.65888 L5.98192,17.6959467 C5.98192,18.2010133 5.57312,18.6103467 5.06752,18.6103467" id="Fill-7" fill="#5A6172"></path>
                        <path d="M13.5425333,18.6103467 C13.0369333,18.6103467 12.6281333,18.2010133 12.6281333,17.6959467 L12.6281333,9.72954667 C12.6281333,9.22448 13.0369333,8.81514667 13.5425333,8.81514667 C14.0481333,8.81514667 14.4569333,9.22448 14.4569333,9.72954667 L14.4569333,17.6959467 C14.4569333,18.2010133 14.0481333,18.6103467 13.5425333,18.6103467" id="Fill-9" fill="#5A6172"></path>
                        <path d="M9.30528,18.6103467 C8.79994667,18.6103467 8.39088,18.2010133 8.39088,17.6959467 L8.39088,13.5610133 C8.39088,13.0562133 8.79994667,12.6466133 9.30528,12.6466133 C9.81088,12.6466133 10.2199467,13.0562133 10.2199467,13.5610133 L10.2199467,17.6959467 C10.2199467,18.2010133 9.81088,18.6103467 9.30528,18.6103467" id="Fill-11" fill="#5A6172"></path>
                    </g>
                </g>
            </g>
        </g>
    </g>
</svg>