<?xml version="1.0" encoding="UTF-8"?>
<svg width="20px" height="22px" viewBox="0 0 20 22" version="1.1" xmlns="http://www.w3.org/2000/svg" xmlns:xlink="http://www.w3.org/1999/xlink">
    <title>icon/一级导航/我的助理备份 5</title>
    <g id="页面-1" stroke="none" stroke-width="1" fill="none" fill-rule="evenodd">
        <g id="中心信息" transform="translate(-22.000000, -203.000000)">
            <g id="编组" transform="translate(1.000000, 0.000000)">
                <g id="icon/一级导航/我的助理备份-5" transform="translate(15.000000, 198.000000)">
                    <rect id="矩形" x="0" y="0" width="32" height="32"></rect>
                    <path d="M22.6285958,17.5007112 C23.1257983,17.7259325 23.3434136,18.3112987 23.1146533,18.8081633 C22.885893,19.3050278 22.2973839,19.5252382 21.8001815,19.3000169 C20.9305719,18.9061037 19.9206405,18.94763 19.0751408,19.4357795 C17.6509001,20.2580653 17.1585962,22.0717472 17.9755493,23.4867515 C18.7925024,24.9017558 20.6093489,25.3822491 22.0335897,24.5599633 C22.9549666,24.0280061 23.5119837,23.062037 23.527647,22.0219237 C23.5358619,21.4764213 23.9861489,21.0383505 24.5333912,21.0434651 C25.0806334,21.0485798 25.5176014,21.494943 25.5093865,22.0404454 C25.4833295,23.7707373 24.5541256,25.3821462 23.0197393,26.2680246 C20.6460048,27.6385009 17.6179271,26.8376787 16.2563386,24.4793382 C14.8947501,22.1209978 15.7152566,19.0981945 18.0889911,17.7277182 C19.496581,16.9150459 21.1826242,16.8457193 22.6285958,17.5007112 Z M15.521759,5.33333333 C18.3486667,5.33333333 20.6403281,7.63995363 20.6403281,10.485314 C20.6403281,12.0936213 19.9081546,13.5298042 18.7609998,14.4745997 C19.2663925,14.6604409 19.7553765,14.892881 20.2230345,15.1673927 C20.6599039,15.4238319 20.8075197,15.9881812 20.5527436,16.4279023 C20.2979675,16.8676234 19.737278,17.0162028 19.3004086,16.7597636 C18.1592429,16.0899077 16.8614786,15.7320046 15.5096096,15.7320046 C11.4511033,15.7320046 8.14182298,18.9607613 7.97889553,23.0055006 L7.97260888,23.3182031 L7.97433333,24.4753333 L15.106161,24.4760774 C15.6151951,24.4760774 16.0278487,24.888731 16.0278487,25.397765 C16.0278487,25.9067991 15.6151951,26.3194527 15.106161,26.3194527 L7.05502101,26.3194527 C6.54598696,26.3194527 6.13333333,25.9067991 6.13333333,25.397765 C6.13333333,25.3575224 6.13591241,25.3178821 6.1409143,25.2790005 L6.14477861,24.9715188 L6.14110552,23.3182031 C6.14110552,19.2553001 8.69403918,15.7925471 12.2733553,14.4663807 C11.131557,13.522327 10.4031898,12.0894353 10.4031898,10.485314 C10.4031898,7.63995363 12.6948513,5.33333333 15.521759,5.33333333 Z M25.5821443,17.8758442 C25.9508976,18.2342427 25.9610572,18.8163002 25.6091585,19.1830806 L21.3620656,23.6097819 C21.0131103,23.9734946 20.4353787,23.9854577 20.071666,23.6365023 C20.0246936,23.5908724 19.9868538,23.546238 19.9538901,23.4991895 C19.9430316,23.4908364 19.931945,23.4816252 19.9210393,23.4721151 L19.8293895,23.3799878 L18.5637244,21.9145027 C18.2316104,21.5299554 18.2722039,20.949429 18.6546035,20.6148443 C19.0338336,20.2830326 19.6102469,20.321473 19.9420586,20.7007032 L20.7299564,21.613757 L24.2917446,17.9025645 C24.6407,17.5388519 25.2184316,17.5268888 25.5821443,17.8758442 Z M15.521759,7.17670868 C13.706317,7.17670868 12.2346106,8.65802172 12.2346106,10.485314 C12.2346106,12.3126062 13.706317,13.7939192 15.521759,13.7939192 C17.3372009,13.7939192 18.8089074,12.3126062 18.8089074,10.485314 C18.8089074,8.65802172 17.3372009,7.17670868 15.521759,7.17670868 Z" id="形状结合" fill="#5A6172"></path>
                </g>
            </g>
        </g>
    </g>
</svg>