<?xml version="1.0" encoding="UTF-8"?>
<svg width="18px" height="18px" viewBox="0 0 18 18" version="1.1" xmlns="http://www.w3.org/2000/svg" xmlns:xlink="http://www.w3.org/1999/xlink">
    <title>icon/一级导航/我的助理备份 4</title>
    <g id="页面-1" stroke="none" stroke-width="1" fill="none" fill-rule="evenodd">
        <g id="中心信息" transform="translate(-23.000000, -97.000000)">
            <g id="编组" transform="translate(1.000000, 0.000000)">
                <g id="icon/一级导航/我的助理备份-4" transform="translate(15.000000, 90.000000)">
                    <rect id="矩形" x="0" y="0" width="32" height="32"></rect>
                    <path d="M22.6666667,7.06666667 L9.33333333,7.06666667 C8.0814879,7.06666667 7.06666667,8.0814879 7.06666667,9.33333333 L7.06666667,19.7333333 C7.06666667,20.9851788 8.0814879,22 9.33333333,22 L22.6666667,22 C23.9185121,22 24.9333333,20.9851788 24.9333333,19.7333333 L24.9333333,9.33333333 C24.9333333,8.0814879 23.9185121,7.06666667 22.6666667,7.06666667 Z M9.33333333,8.93333333 L22.6666667,8.93333333 C22.8875806,8.93333333 23.0666667,9.11241943 23.0666667,9.33333333 L23.0666667,19.7333333 C23.0666667,19.9542472 22.8875806,20.1333333 22.6666667,20.1333333 L9.33333333,20.1333333 C9.11241943,20.1333333 8.93333333,19.9542472 8.93333333,19.7333333 L8.93333333,9.33333333 C8.93333333,9.11241943 9.11241943,8.93333333 9.33333333,8.93333333 Z" id="矩形" fill="#5A6172"></path>
                    <path d="M11.7333333,16.47528 L11.7333333,13.3333333 C11.7333333,12.8178667 12.1512,12.4 12.6666667,12.4 C13.1821333,12.4 13.6,12.8178667 13.6,13.3333333 L13.6,16.47528 C13.6,16.9907467 13.1821333,17.4086133 12.6666667,17.4086133 C12.1512,17.4086133 11.7333333,16.9907467 11.7333333,16.47528 Z" id="Fill-5" fill="#5A6172"></path>
                    <path d="M15.02552,16.47528 L15.02552,11.8035467 C15.02552,11.4768495 15.1933723,11.1893572 15.4475414,11.022605 C15.5944035,10.9262536 15.7700838,10.8702133 15.9588533,10.8702133 C16.47432,10.8702133 16.8921867,11.28808 16.8921867,11.8035467 L16.8921867,16.47528 C16.8921867,16.9907467 16.47432,17.4086133 15.9588533,17.4086133 C15.4433867,17.4086133 15.02552,16.9907467 15.02552,16.47528 Z" id="Fill-7" fill="#5A6172"></path>
                    <path d="M18.3177067,16.47528 L18.3177067,13.37208 C18.3177067,12.8566133 18.7355733,12.4387467 19.25104,12.4387467 C19.7665067,12.4387467 20.1843733,12.8566133 20.1843733,13.37208 L20.1843733,16.47528 C20.1843733,16.9907467 19.7665067,17.4086133 19.25104,17.4086133 C18.7355733,17.4086133 18.3177067,16.9907467 18.3177067,16.47528 Z" id="Fill-9" fill="#5A6172"></path>
                    <path d="M21.3333333,22.9333333 C21.8487991,22.9333333 22.2666667,23.3512009 22.2666667,23.8666667 C22.2666667,24.3649502 21.8761926,24.7720337 21.3845427,24.798619 L21.3333333,24.8 L10.6666667,24.8 C10.1512009,24.8 9.73333333,24.3821324 9.73333333,23.8666667 C9.73333333,23.3683831 10.1238074,22.9612996 10.6154573,22.9347144 L10.6666667,22.9333333 L21.3333333,22.9333333 Z" id="路径" fill="#5A6172"></path>
                </g>
            </g>
        </g>
    </g>
</svg>