<?xml version="1.0" encoding="UTF-8"?>
<svg width="22px" height="20px" viewBox="0 0 22 20" version="1.1" xmlns="http://www.w3.org/2000/svg" xmlns:xlink="http://www.w3.org/1999/xlink">
    <title>icon/一级导航/数据检索备份 4</title>
    <g id="页面-1" stroke="none" stroke-width="1" fill="none" fill-rule="evenodd">
        <g id="中心信息" transform="translate(-21.000000, -516.000000)">
            <g id="编组" transform="translate(1.000000, 0.000000)">
                <g id="icon/一级导航/数据检索备份-4" transform="translate(15.000000, 510.000000)">
                    <rect id="矩形" x="0" y="0" width="32" height="32"></rect>
                    <path d="M22.787005,6.02666667 C23.7085726,6.02666667 24.5074274,6.66453076 24.7113977,7.56324266 L26.3820376,14.9173976 C26.4797564,15.1705725 26.5333333,15.4456961 26.5333333,15.7333333 L26.5333333,23.4666667 C26.5333333,24.7185121 25.5185121,25.7333333 24.2666667,25.7333333 L7.73333333,25.7333333 C6.4814879,25.7333333 5.46666667,24.7185121 5.46666667,23.4666667 L5.46666667,15.7333333 C5.46666667,15.4456961 5.52024364,15.1705725 5.61796244,14.9173976 L7.28860229,7.56324266 C7.49257262,6.66453076 8.29142737,6.02666667 9.21299504,6.02666667 Z M24.2666667,15.3333333 L7.73333333,15.3333333 C7.51241943,15.3333333 7.33333333,15.5124194 7.33333333,15.7333333 L7.33333333,23.4666667 C7.33333333,23.6875806 7.51241943,23.8666667 7.73333333,23.8666667 L24.2666667,23.8666667 C24.4875806,23.8666667 24.6666667,23.6875806 24.6666667,23.4666667 L24.6666667,15.7333333 C24.6666667,15.5124194 24.4875806,15.3333333 24.2666667,15.3333333 Z M21.6356887,18.5640459 C21.6816388,18.5640459 21.7188887,18.6012958 21.7188887,18.6472459 L21.7188887,20.2086668 C21.7188887,20.2546169 21.6816388,20.2918668 21.6356887,20.2918668 L19.6446538,20.2918668 C19.5987037,20.2918668 19.5614538,20.2546169 19.5614538,20.2086668 L19.5614538,18.6472459 C19.5614538,18.6012958 19.5987037,18.5640459 19.6446538,18.5640459 L21.6356887,18.5640459 Z M18.7398876,18.4511895 C18.7858377,18.4511895 18.8230876,18.4884394 18.8230876,18.5343895 L18.8230876,20.0958104 C18.8230876,20.1417605 18.7858377,20.1790104 18.7398876,20.1790104 L12.7113204,20.1790104 C12.6653704,20.1790104 12.6281204,20.1417605 12.6281204,20.0958104 L12.6281204,18.5343895 C12.6281204,18.4884394 12.6653704,18.4511895 12.7113204,18.4511895 L18.7398876,18.4511895 Z M22.787005,7.84 L9.21299504,7.84 C9.13827334,7.84 9.07350133,7.89171871 9.0569632,7.96458724 L7.80766667,13.4666667 L24.1916667,13.4666667 L22.9430368,7.96458724 C22.9320114,7.91600822 22.8995487,7.87682912 22.8569922,7.85610739 L22.8114912,7.84187358 L22.787005,7.84 Z" id="形状结合" fill="#5A6172"></path>
                </g>
            </g>
        </g>
    </g>
</svg>