<?xml version="1.0" encoding="UTF-8"?>
<svg width="22px" height="21px" viewBox="0 0 22 21" version="1.1" xmlns="http://www.w3.org/2000/svg" xmlns:xlink="http://www.w3.org/1999/xlink">
    <title>icon/一级导航/统计分析</title>
    <g id="页面-1" stroke="none" stroke-width="1" fill="none" fill-rule="evenodd">
        <g id="中心信息" transform="translate(-21.000000, -412.000000)">
            <g id="编组" transform="translate(1.000000, 0.000000)">
                <g id="icon/一级导航/统计分析" transform="translate(15.000000, 406.000000)">
                    <rect id="矩形" x="0" y="0" width="32" height="32"></rect>
                    <path d="M22.6666667,6.8 L9.33333333,6.8 C8.0814879,6.8 7.06666667,7.81482123 7.06666667,9.06666667 L7.06666667,19.4666667 C7.06666667,20.7185121 8.0814879,21.7333333 9.33333333,21.7333333 L22.6666667,21.7333333 C23.9185121,21.7333333 24.9333333,20.7185121 24.9333333,19.4666667 L24.9333333,9.06666667 C24.9333333,7.81482123 23.9185121,6.8 22.6666667,6.8 Z M9.33333333,8.66666667 L22.6666667,8.66666667 C22.8875806,8.66666667 23.0666667,8.84575277 23.0666667,9.06666667 L23.0666667,19.4666667 C23.0666667,19.6875806 22.8875806,19.8666667 22.6666667,19.8666667 L9.33333333,19.8666667 C9.11241943,19.8666667 8.93333333,19.6875806 8.93333333,19.4666667 L8.93333333,9.06666667 C8.93333333,8.84575277 9.11241943,8.66666667 9.33333333,8.66666667 Z" id="矩形" fill="#5A6172" fill-rule="nonzero"></path>
                    <path d="M25.6,6.66666667 C26.1154658,6.66666667 26.5333333,7.08453423 26.5333333,7.6 C26.5333333,8.09828357 26.1428593,8.50536705 25.6512094,8.5319523 L25.6,8.53333333 L6.4,8.53333333 C5.88453423,8.53333333 5.46666667,8.11546577 5.46666667,7.6 C5.46666667,7.10171643 5.85714069,6.69463295 6.34879061,6.6680477 L6.4,6.66666667 L25.6,6.66666667 Z" id="路径" fill="#5A6172" fill-rule="nonzero"></path>
                    <path d="M18.5612771,21.8299164 C19.0767428,21.8299164 19.4946104,22.247784 19.4946104,22.7632498 C19.4946104,23.2615333 19.1041364,23.6686168 18.6124864,23.6952021 L18.5612771,23.6965831 L12.3174868,23.6965831 C11.802021,23.6965831 11.3841534,23.2787155 11.3841534,22.7632498 C11.3841534,22.2649662 11.7746275,21.8578827 12.2662774,21.8312975 L12.3174868,21.8299164 L18.5612771,21.8299164 Z" id="路径备份" fill="#5A6172" fill-rule="nonzero" transform="translate(16.592487, 27.038250) rotate(45.000000) translate(-16.592487, -27.038250) "></path>
                    <path d="M17.6429702,21.8299164 C18.1584359,21.8299164 18.5763035,22.247784 18.5763035,22.7632498 C18.5763035,23.2615333 18.1858295,23.6686168 17.6941796,23.6952021 L17.6429702,23.6965831 L11.3991799,23.6965831 C10.8837141,23.6965831 10.4658466,23.2787155 10.4658466,22.7632498 C10.4658466,22.2649662 10.8563206,21.8578827 11.3479705,21.8312975 L11.3991799,21.8299164 L17.6429702,21.8299164 Z" id="路径备份" fill="#5A6172" fill-rule="nonzero" transform="translate(15.674180, 27.038250) scale(-1, 1) rotate(45.000000) translate(-15.674180, -27.038250) "></path>
                    <path d="M10.3915225,7.04351777 C10.8898061,7.04351777 11.2968896,7.43399179 11.3234748,7.92564171 L11.3248559,7.9768511 L11.3247006,11.7977225 L15.1698787,11.797765 C15.6681623,11.797765 16.0752458,12.188239 16.101831,12.6798889 L16.1032121,12.7310983 L16.1032121,17.4853456 C16.1032121,18.0008113 15.6853445,18.4186789 15.1698787,18.4186789 C14.6715951,18.4186789 14.2645117,18.0282049 14.2379264,17.536555 L14.2365454,17.4853456 L14.236434,13.6643892 L10.3915225,13.6644317 C9.89323896,13.6644317 9.48615549,13.2739576 9.45957024,12.7823077 L9.45818921,12.7310983 L9.45818921,7.9768511 C9.45818921,7.46138533 9.87605677,7.04351777 10.3915225,7.04351777 Z" id="路径-2" fill="#5A6172" fill-rule="nonzero" transform="translate(14.666523, 12.731098) scale(-1, 1) rotate(-45.000000) translate(-14.666523, -12.731098) "></path>
                </g>
            </g>
        </g>
    </g>
</svg>