<?xml version="1.0" encoding="UTF-8"?>
<svg width="22px" height="19px" viewBox="0 0 22 19" version="1.1" xmlns="http://www.w3.org/2000/svg" xmlns:xlink="http://www.w3.org/1999/xlink">
    <title>icon/一级导航/配置管理</title>
    <g id="页面-1" stroke="none" stroke-width="1" fill="none" fill-rule="evenodd">
        <g id="中心信息" transform="translate(-21.000000, -464.000000)">
            <g id="编组" transform="translate(1.000000, 0.000000)">
                <g id="icon/一级导航/配置管理" transform="translate(15.000000, 458.000000)">
                    <rect id="矩形" x="0" y="0" width="32" height="32"></rect>
                    <path d="M23.2653933,13.333343 C23.553311,13.333343 23.8014102,13.4961622 23.9652783,13.7426586 L26.8092309,18.6573705 C26.9747008,18.9054786 26.9747008,19.2278738 26.8092309,19.4759819 L23.9652783,24.3906938 C23.8243017,24.6434714 23.5562619,24.8002261 23.2653933,24.7999998 L17.5361382,24.7999998 C17.246689,24.7999998 17.0001212,24.6356686 16.8347217,24.3906938 L13.9907691,19.4759819 C13.8252992,19.2278738 13.8252992,18.9054786 13.9907691,18.6573705 L16.8347217,13.7426586 C16.975471,13.4889266 17.2445422,13.3319123 17.5361382,13.333343 L23.2653933,13.333343 Z M21.6269398,6.93333333 C23.8794905,6.93333333 25.7202505,8.68071543 25.844521,10.8824018 L25.8512081,11.1199763 L25.8512081,11.8654243 C25.8512081,12.3425489 25.4609462,12.7293348 24.9795337,12.7293348 C24.541886,12.7293348 24.1795693,12.409677 24.1173104,11.9930867 L24.1078592,11.8654243 L24.1078592,11.1199763 C24.1078592,9.82667161 23.1003803,8.76658034 21.8208222,8.66855193 L21.6269398,8.66115424 L9.55760166,8.66115424 C8.25267404,8.66115424 7.18305573,9.65965958 7.08414634,10.9278208 L7.07668217,11.1199763 L7.07668217,20.4236274 C7.07668217,21.7169321 8.08416107,22.7770233 9.36541884,22.8750536 L9.55956913,22.8824516 L14.0471574,22.8978593 C14.5285687,22.8989362 14.9179488,23.2865941 14.9168622,23.7637174 C14.9158744,24.197466 14.5925269,24.5558331 14.1720532,24.6165969 L14.0432225,24.6256758 L9.55760166,24.6102703 C7.30505093,24.6102703 5.46429095,22.8628882 5.3400204,20.6612018 L5.33333333,20.4236274 L5.33333333,11.1199763 C5.33333333,8.88748893 7.09641915,7.06312451 9.31789211,6.93996084 L9.55760166,6.93333333 L21.6269398,6.93333333 Z M22.7707263,14.9705758 L18.0292737,14.9705758 L15.6386383,19.0666762 L18.0292737,23.161255 L22.7707263,23.161255 L25.1613617,19.0666762 L22.7707263,14.9705758 Z M20.4214407,16.2000145 C22.0128552,16.2050261 23.3016991,17.4855432 23.306793,19.0666762 C23.3112588,19.8283286 23.0087227,20.5600848 22.4666416,21.0986638 C21.9245604,21.6372428 21.1880459,21.9378243 20.4214407,21.9333874 C19.6548355,21.9378243 18.9183209,21.6372428 18.3762398,21.0986638 C17.8341587,20.5600848 17.5316226,19.8283286 17.5360883,19.0666762 C17.5360883,17.4690144 18.8133899,16.2000145 20.4214407,16.2000145 Z M20.4214407,17.8372374 C20.0913605,17.8309732 19.7729378,17.9584904 19.5394933,18.1904267 C19.3060487,18.4223631 19.1777023,18.7387285 19.1840073,19.0666762 C19.1840073,19.7620394 19.7200242,20.2945934 20.4214407,20.2945934 C21.1029641,20.2920901 21.654823,19.7437965 21.6573426,19.0666762 C21.6636347,18.7389974 21.5354961,18.4228728 21.3023876,18.1909833 C21.0692791,17.9590938 20.7512577,17.8313917 20.4214407,17.8372374 Z M12.569022,16.1640459 C12.6149721,16.1640459 12.652222,16.2012958 12.652222,16.2472459 L12.652222,17.8086668 C12.652222,17.8546169 12.6149721,17.8918668 12.569022,17.8918668 L9.51132045,17.8918668 C9.46537036,17.8918668 9.42812045,17.8546169 9.42812045,17.8086668 L9.42812045,16.2472459 C9.42812045,16.2012958 9.46537036,16.1640459 9.51132045,16.1640459 L12.569022,16.1640459 Z M15.5398876,11.7845228 C15.5858377,11.7845228 15.6230876,11.8217727 15.6230876,11.8677228 L15.6230876,13.4291437 C15.6230876,13.4750938 15.5858377,13.5123437 15.5398876,13.5123437 L9.51132045,13.5123437 C9.46537036,13.5123437 9.42812045,13.4750938 9.42812045,13.4291437 L9.42812045,11.8677228 C9.42812045,11.8217727 9.46537036,11.7845228 9.51132045,11.7845228 L15.5398876,11.7845228 Z" id="形状结合" fill="#5A6172"></path>
                </g>
            </g>
        </g>
    </g>
</svg>