<?xml version="1.0" encoding="utf-8"?>
<svg version="1.1" xmlns:xlink="http://www.w3.org/1999/xlink" width="16px" height="16px" xmlns="http://www.w3.org/2000/svg">
  <g transform="matrix(1 0 0 1 -837 -269 )">
    <path d="M 15.7009765625 6.7484375  C 15.7044921875 6.435546875  15.47421875 6.171875  15.16484375 6.1296875  L 14.159375 5.9890625  C 13.9361328125 5.957421875  13.755078125 5.80625  13.6671875 5.6005859375  C 13.4685546875 5.13125  13.2154296875 4.691796875  12.9130859375 4.291015625  C 12.777734375 4.11171875  12.7373046875 3.8779296875  12.8216796875 3.6705078125  L 13.203125 2.730078125  C 13.3208984375 2.441796875  13.206640625 2.1095703125  12.9359375 1.9548828125  L 10.7615234375 0.698046875  C 10.4908203125 0.5416015625  10.148046875 0.6083984375  9.9564453125 0.8544921875  L 9.3341796875 1.65078125  C 9.1953125 1.830078125  8.9703125 1.9126953125  8.7453125 1.8845703125  C 8.49921875 1.8529296875  8.2478515625 1.8353515625  7.99296875 1.8353515625  C 7.7380859375 1.8353515625  7.48671875 1.8529296875  7.240625 1.8845703125  C 7.015625 1.9126953125  6.790625 1.830078125  6.6517578125 1.65078125  L 6.0294921875 0.8544921875  C 5.837890625 0.6083984375  5.4951171875 0.5416015625  5.2244140625 0.698046875  L 3.05 1.953125  C 2.779296875 2.1095703125  2.666796875 2.4400390625  2.7828125 2.7283203125  L 3.1642578125 3.66875  C 3.2486328125 3.8779296875  3.208203125 4.1099609375  3.0728515625 4.2892578125  C 2.7705078125 4.6900390625  2.515625 5.1294921875  2.31875 5.598828125  C 2.230859375 5.80625  2.0498046875 5.957421875  1.8265625 5.9873046875  L 0.82109375 6.1279296875  C 0.51171875 6.171875  0.2814453125 6.435546875  0.2814453125 6.7484375  L 0.2814453125 9.2603515625  C 0.2814453125 9.571484375  0.51171875 9.83515625  0.8193359375 9.8791015625  L 1.8248046875 10.0197265625  C 2.048046875 10.0513671875  2.2291015625 10.2025390625  2.3169921875 10.408203125  C 2.515625 10.8775390625  2.76875 11.3169921875  3.07109375 11.7177734375  C 3.2064453125 11.8970703125  3.246875 12.130859375  3.1625 12.33828125  L 2.7810546875 13.2787109375  C 2.66328125 13.5669921875  2.7775390625 13.89921875  3.0482421875 14.05390625  L 5.22265625 15.308984375  C 5.493359375 15.4654296875  5.8361328125 15.3986328125  6.027734375 15.1525390625  L 6.65 14.35625  C 6.7888671875 14.176953125  7.0138671875 14.0943359375  7.2388671875 14.1224609375  C 7.4849609375 14.1541015625  7.736328125 14.1716796875  7.9912109375 14.1716796875  C 8.24609375 14.1716796875  8.4974609375 14.1541015625  8.7435546875 14.1224609375  C 8.9685546875 14.0943359375  9.1935546875 14.176953125  9.332421875 14.35625  L 9.9546875 15.1525390625  C 10.1462890625 15.3986328125  10.4890625 15.4654296875  10.759765625 15.308984375  L 12.9341796875 14.05390625  C 13.2048828125 13.8974609375  13.3173828125 13.5669921875  13.2013671875 13.2787109375  L 12.819921875 12.33828125  C 12.735546875 12.130859375  12.7759765625 11.8970703125  12.911328125 11.7177734375  C 13.213671875 11.3169921875  13.4685546875 10.8775390625  13.6654296875 10.408203125  C 13.7533203125 10.20078125  13.934375 10.049609375  14.1576171875 10.0197265625  L 15.1630859375 9.8791015625  C 15.4724609375 9.83515625  15.7009765625 9.571484375  15.7009765625 9.2603515625  L 15.7009765625 6.7484375  Z M 10.4345703125 8.003515625  C 10.4345703125 9.3517578125  9.3412109375 10.4451171875  7.99296875 10.4451171875  C 6.6447265625 10.4451171875  5.5513671875 9.3517578125  5.5513671875 8.003515625  C 5.5513671875 6.6552734375  6.6447265625 5.5619140625  7.99296875 5.5619140625  C 9.3412109375 5.5619140625  10.4345703125 6.6552734375  10.4345703125 8.003515625  Z " fill-rule="nonzero" fill="#000000" stroke="none" transform="matrix(1 0 0 1 837 269 )" />
  </g>
</svg>