<?xml version="1.0" encoding="utf-8"?>
<svg version="1.1" xmlns:xlink="http://www.w3.org/1999/xlink" width="128px" height="128px" xmlns="http://www.w3.org/2000/svg">
  <g transform="matrix(1 0 0 1 -876 -353 )">
    <path d="M 877 357  A 3 3 0 0 1 880 354 L 1000 354  A 3 3 0 0 1 1003 357 L 1003 477  A 3 3 0 0 1 1000 480 L 880 480  A 3 3 0 0 1 877 477 L 877 357  Z " fill-rule="nonzero" fill="#f2f2f2" stroke="none" />
    <path d="M 876.5 357  A 3.5 3.5 0 0 1 880 353.5 L 1000 353.5  A 3.5 3.5 0 0 1 1003.5 357 L 1003.5 477  A 3.5 3.5 0 0 1 1000 480.5 L 880 480.5  A 3.5 3.5 0 0 1 876.5 477 L 876.5 357  Z " stroke-width="1" stroke-dasharray="3,1" stroke="#d8d8d8" fill="none" stroke-dashoffset="0.5" />
  </g>
</svg>