<?xml version="1.0" encoding="utf-8"?>
<svg version="1.1" xmlns:xlink="http://www.w3.org/1999/xlink" width="85px" height="33px" xmlns="http://www.w3.org/2000/svg">
  <defs>
    <mask fill="white" id="clip82">
      <path d="M 0 21  L 0 2  C 0 0.879999999999995  0.420382165605148 0  0.955414012738854 0  L 74.0445859872611 0  C 74.5796178343949 0  75 0.879999999999995  75 2  L 75 21  C 75 22.12  74.5796178343949 23  74.0445859872611 23  L 48.0312680949623 23  L 47.6645435244151 23  L 37.0488322717611 23  L 0.955414012738854 23  C 0.420382165605148 23  0 22.12  0 21  Z " fill-rule="evenodd" />
    </mask>
    <filter x="1163px" y="196px" width="85px" height="33px" filterUnits="userSpaceOnUse" id="filter83">
      <feOffset dx="3" dy="3" in="SourceAlpha" result="shadowOffsetInner" />
      <feGaussianBlur stdDeviation="2.5" in="shadowOffsetInner" result="shadowGaussian" />
      <feComposite in2="shadowGaussian" operator="atop" in="SourceAlpha" result="shadowComposite" />
      <feColorMatrix type="matrix" values="0 0 0 0 0  0 0 0 0 0  0 0 0 0 0  0 0 0 0.349019607843137 0  " in="shadowComposite" />
    </filter>
    <g id="widget84">
      <path d="M 0 21  L 0 2  C 0 0.879999999999995  0.420382165605148 0  0.955414012738854 0  L 74.0445859872611 0  C 74.5796178343949 0  75 0.879999999999995  75 2  L 75 21  C 75 22.12  74.5796178343949 23  74.0445859872611 23  L 48.0312680949623 23  L 47.6645435244151 23  L 37.0488322717611 23  L 0.955414012738854 23  C 0.420382165605148 23  0 22.12  0 21  Z " fill-rule="nonzero" fill="#ffffff" stroke="none" transform="matrix(1 0 0 1 1165 198 )" />
      <path d="M 0 21  L 0 2  C 0 0.879999999999995  0.420382165605148 0  0.955414012738854 0  L 74.0445859872611 0  C 74.5796178343949 0  75 0.879999999999995  75 2  L 75 21  C 75 22.12  74.5796178343949 23  74.0445859872611 23  L 48.0312680949623 23  L 47.6645435244151 23  L 37.0488322717611 23  L 0.955414012738854 23  C 0.420382165605148 23  0 22.12  0 21  Z " stroke-width="2" stroke="#adb0c1" fill="none" transform="matrix(1 0 0 1 1165 198 )" mask="url(#clip82)" />
    </g>
  </defs>
  <g transform="matrix(1 0 0 1 -1163 -196 )">
    <use xlink:href="#widget84" filter="url(#filter83)" />
    <use xlink:href="#widget84" />
  </g>
</svg>