<?xml version="1.0" encoding="utf-8"?>
<svg version="1.1" xmlns:xlink="http://www.w3.org/1999/xlink" width="23px" height="23px" xmlns="http://www.w3.org/2000/svg">
  <defs>
    <filter x="860px" y="300px" width="23px" height="23px" filterUnits="userSpaceOnUse" id="filter176">
      <feOffset dx="1" dy="1" in="SourceAlpha" result="shadowOffsetInner" />
      <feGaussianBlur stdDeviation="2.5" in="shadowOffsetInner" result="shadowGaussian" />
      <feComposite in2="shadowGaussian" operator="atop" in="SourceAlpha" result="shadowComposite" />
      <feColorMatrix type="matrix" values="0 0 0 0 0  0 0 0 0 0  0 0 0 0 0  0 0 0 0.698039215686274 0  " in="shadowComposite" />
    </filter>
    <g id="widget177">
      <path d="M 870.5 304  C 874.14 304  877 306.86  877 310.5  C 877 314.14  874.14 317  870.5 317  C 866.86 317  864 314.14  864 310.5  C 864 306.86  866.86 304  870.5 304  Z " fill-rule="nonzero" fill="#009dd9" stroke="none" />
      <path d="M 870.5 304.5  C 873.86 304.5  876.5 307.14  876.5 310.5  C 876.5 313.86  873.86 316.5  870.5 316.5  C 867.14 316.5  864.5 313.86  864.5 310.5  C 864.5 307.14  867.14 304.5  870.5 304.5  Z " stroke-width="1" stroke="#ffffff" fill="none" />
    </g>
  </defs>
  <g transform="matrix(1 0 0 1 -860 -300 )">
    <use xlink:href="#widget177" filter="url(#filter176)" />
    <use xlink:href="#widget177" />
  </g>
</svg>