<?xml version="1.0" encoding="utf-8"?>
<svg version="1.1" xmlns:xlink="http://www.w3.org/1999/xlink" width="102px" height="66px" xmlns="http://www.w3.org/2000/svg">
  <defs>
    <mask fill="white" id="clip29">
      <path d="M 0 51.1304347826087  L 0 4.8695652173913  C 0 2.14260869565216  0.515668789808915 0  1.17197452229299 0  L 90.828025477707 0  C 91.4843312101911 0  92 2.14260869565216  92 4.8695652173913  L 92 51.1304347826087  C 92 53.8573913043478  91.4843312101911 56  90.828025477707 56  L 58.9183555298205 56  L 1.17197452229299 56  C 0.515668789808915 56  0 53.8573913043478  0 51.1304347826087  Z " fill-rule="evenodd" />
    </mask>
    <filter x="355px" y="313px" width="102px" height="66px" filterUnits="userSpaceOnUse" id="filter30">
      <feOffset dx="3" dy="3" in="SourceAlpha" result="shadowOffsetInner" />
      <feGaussianBlur stdDeviation="2.5" in="shadowOffsetInner" result="shadowGaussian" />
      <feComposite in2="shadowGaussian" operator="atop" in="SourceAlpha" result="shadowComposite" />
      <feColorMatrix type="matrix" values="0 0 0 0 0  0 0 0 0 0  0 0 0 0 0  0 0 0 0.349019607843137 0  " in="shadowComposite" />
    </filter>
    <g id="widget31">
      <path d="M 0 51.1304347826087  L 0 4.8695652173913  C 0 2.14260869565216  0.515668789808915 0  1.17197452229299 0  L 90.828025477707 0  C 91.4843312101911 0  92 2.14260869565216  92 4.8695652173913  L 92 51.1304347826087  C 92 53.8573913043478  91.4843312101911 56  90.828025477707 56  L 58.9183555298205 56  L 1.17197452229299 56  C 0.515668789808915 56  0 53.8573913043478  0 51.1304347826087  Z " fill-rule="nonzero" fill="#ffffff" stroke="none" transform="matrix(1 0 0 1 357 315 )" />
      <path d="M 0 51.1304347826087  L 0 4.8695652173913  C 0 2.14260869565216  0.515668789808915 0  1.17197452229299 0  L 90.828025477707 0  C 91.4843312101911 0  92 2.14260869565216  92 4.8695652173913  L 92 51.1304347826087  C 92 53.8573913043478  91.4843312101911 56  90.828025477707 56  L 58.9183555298205 56  L 1.17197452229299 56  C 0.515668789808915 56  0 53.8573913043478  0 51.1304347826087  Z " stroke-width="2" stroke="#adb0c1" fill="none" transform="matrix(1 0 0 1 357 315 )" mask="url(#clip29)" />
    </g>
  </defs>
  <g transform="matrix(1 0 0 1 -355 -313 )">
    <use xlink:href="#widget31" filter="url(#filter30)" />
    <use xlink:href="#widget31" />
  </g>
</svg>