<?xml version="1.0" encoding="utf-8"?>
<svg version="1.1" xmlns:xlink="http://www.w3.org/1999/xlink" width="96px" height="96px" xmlns="http://www.w3.org/2000/svg">
  <g transform="matrix(1 0 0 1 -827 -295 )">
    <path d="M 95.7446808171543 48  C 95.7446808171543 21.6312367699468  74.3687633317819 0.255319182845744  48 0.255319182845744  C 21.6312366682181 0.255319182845744  0.255319182845744 21.6312366682181  0.255319182845744 48  C 0.255319182845744 74.3687633317819  21.6312367699468 95.7446808171543  48 95.7446808171543  C 74.3687632300532 95.7446808171543  95.7446808171543 74.3687632300532  95.7446808171543 48  Z M 67.9957978723404 51.1732579448138  L 67.9944415232713 51.1698670212766  L 40.8667819148936 69.0741223404255  C 40.2463833892478 69.4830680911803  39.5196507061327 69.701039737557  38.7765955549603 69.701039737557  C 36.6795134324045 69.701039737557  34.9793241065745 68.0013373556701  35 65.9042553191489  L 35 30.0991356043883  C 34.9788302740903 28.0017042211266  36.6791643198569 26.3014568097982  38.7765957058413 26.3014568097982  C 39.5202040443436 26.3014568097982  40.2474529813107 26.5197528435006  40.8681382639628 26.9292685831117  L 67.9957978723404 44.8335239022606  C 69.0609221281114 45.5364130337873  69.7018343525966 46.7272471967376  69.7018343525966 48.0033909235372  C 69.7018343525966 49.2795346503369  69.0609221281114 50.4703688132872  67.9957978723404 51.1732579448138  Z " fill-rule="nonzero" fill="#333333" stroke="none" transform="matrix(1 0 0 1 827 295 )" />
  </g>
</svg>