<?xml version="1.0" encoding="utf-8"?>
<svg version="1.1" xmlns:xlink="http://www.w3.org/1999/xlink" width="90px" height="72px" xmlns="http://www.w3.org/2000/svg">
  <defs>
    <mask fill="white" id="clip70">
      <path d="M 0 56.6086956521739  L 0 5.39130434782609  C 0 2.37217391304347  0.4484076433121 0  1.01910828025478 0  L 78.9808917197452 0  C 79.5515923566879 0  80 2.37217391304347  80 5.39130434782609  L 80 56.6086956521739  C 80 59.6278260869565  79.5515923566879 62  78.9808917197452 62  L 51.2333526346265 62  L 1.01910828025478 62  C 0.4484076433121 62  0 59.6278260869565  0 56.6086956521739  Z " fill-rule="evenodd" />
    </mask>
    <filter x="1224px" y="251px" width="90px" height="72px" filterUnits="userSpaceOnUse" id="filter71">
      <feOffset dx="3" dy="3" in="SourceAlpha" result="shadowOffsetInner" />
      <feGaussianBlur stdDeviation="2.5" in="shadowOffsetInner" result="shadowGaussian" />
      <feComposite in2="shadowGaussian" operator="atop" in="SourceAlpha" result="shadowComposite" />
      <feColorMatrix type="matrix" values="0 0 0 0 0  0 0 0 0 0  0 0 0 0 0  0 0 0 0.349019607843137 0  " in="shadowComposite" />
    </filter>
    <g id="widget72">
      <path d="M 0 56.6086956521739  L 0 5.39130434782609  C 0 2.37217391304347  0.4484076433121 0  1.01910828025478 0  L 78.9808917197452 0  C 79.5515923566879 0  80 2.37217391304347  80 5.39130434782609  L 80 56.6086956521739  C 80 59.6278260869565  79.5515923566879 62  78.9808917197452 62  L 51.2333526346265 62  L 1.01910828025478 62  C 0.4484076433121 62  0 59.6278260869565  0 56.6086956521739  Z " fill-rule="nonzero" fill="#ffffff" stroke="none" transform="matrix(1 0 0 1 1226 253 )" />
      <path d="M 0 56.6086956521739  L 0 5.39130434782609  C 0 2.37217391304347  0.4484076433121 0  1.01910828025478 0  L 78.9808917197452 0  C 79.5515923566879 0  80 2.37217391304347  80 5.39130434782609  L 80 56.6086956521739  C 80 59.6278260869565  79.5515923566879 62  78.9808917197452 62  L 51.2333526346265 62  L 1.01910828025478 62  C 0.4484076433121 62  0 59.6278260869565  0 56.6086956521739  Z " stroke-width="2" stroke="#adb0c1" fill="none" transform="matrix(1 0 0 1 1226 253 )" mask="url(#clip70)" />
    </g>
  </defs>
  <g transform="matrix(1 0 0 1 -1224 -251 )">
    <use xlink:href="#widget72" filter="url(#filter71)" />
    <use xlink:href="#widget72" />
  </g>
</svg>