<?xml version="1.0" encoding="utf-8"?>
<svg version="1.1" xmlns:xlink="http://www.w3.org/1999/xlink" width="104px" height="104px" xmlns="http://www.w3.org/2000/svg">
  <g transform="matrix(1 0 0 1 -310 -995 )">
    <path d="M 311 999  A 3 3 0 0 1 314 996 L 410 996  A 3 3 0 0 1 413 999 L 413 1095  A 3 3 0 0 1 410 1098 L 314 1098  A 3 3 0 0 1 311 1095 L 311 999  Z " fill-rule="nonzero" fill="#000000" stroke="none" fill-opacity="0.0196078431372549" />
    <path d="M 310.5 999  A 3.5 3.5 0 0 1 314 995.5 L 410 995.5  A 3.5 3.5 0 0 1 413.5 999 L 413.5 1095  A 3.5 3.5 0 0 1 410 1098.5 L 314 1098.5  A 3.5 3.5 0 0 1 310.5 1095 L 310.5 999  Z " stroke-width="1" stroke-dasharray="9,4" stroke="#d9d9d9" fill="none" stroke-dashoffset="0.5" />
  </g>
</svg>