<?xml version="1.0" encoding="utf-8"?>
<svg version="1.1" xmlns:xlink="http://www.w3.org/1999/xlink" width="104px" height="104px" xmlns="http://www.w3.org/2000/svg">
  <g transform="matrix(1 0 0 1 -430 -995 )">
    <path d="M 431 999  A 3 3 0 0 1 434 996 L 530 996  A 3 3 0 0 1 533 999 L 533 1095  A 3 3 0 0 1 530 1098 L 434 1098  A 3 3 0 0 1 431 1095 L 431 999  Z " fill-rule="nonzero" fill="#ffffff" stroke="none" />
    <path d="M 430.5 999  A 3.5 3.5 0 0 1 434 995.5 L 530 995.5  A 3.5 3.5 0 0 1 533.5 999 L 533.5 1095  A 3.5 3.5 0 0 1 530 1098.5 L 434 1098.5  A 3.5 3.5 0 0 1 430.5 1095 L 430.5 999  Z " stroke-width="1" stroke-dasharray="9,4" stroke="#d9d9d9" fill="none" stroke-dashoffset="0.5" />
  </g>
</svg>