<?xml version="1.0" encoding="utf-8"?>
<svg version="1.1" xmlns:xlink="http://www.w3.org/1999/xlink" width="36px" height="50px" xmlns="http://www.w3.org/2000/svg">
  <g transform="matrix(1 0 0 1 -390 -208 )">
    <path d="M 35.55 27.5852272727273  C 35.85 28.0397727272727  36 28.5416666666667  36 29.0909090909091  C 36 29.8484848484848  35.7375 30.4924242424242  35.2125 31.0227272727273  C 34.6875 31.5530303030303  34.05 31.8181818181818  33.3 31.8181818181818  C 32.34375 31.8181818181818  31.59375 31.4109848484849  31.05 30.5965909090909  L 24.665625 20.9090909090909  L 23.4 20.9090909090909  L 23.4 24.6590909090909  L 30.346875 36.3352272727273  C 30.515625 36.6193181818182  30.6 36.9318181818182  30.6 37.2727272727273  C 30.6 37.7651515151515  30.421875 38.1912878787879  30.065625 38.5511363636364  C 29.709375 38.9109848484849  29.2875 39.0909090909091  28.8 39.0909090909091  L 23.4 39.0909090909091  L 23.4 46.8181818181818  C 23.4 47.6893939393939  23.090625 48.4375  22.471875 49.0625  C 21.853125 49.6875  21.1125 50  20.25 50  L 15.75 50  C 14.8875 50  14.146875 49.6875  13.528125 49.0625  C 12.909375 48.4375  12.6 47.6893939393939  12.6 46.8181818181818  L 12.6 39.0909090909091  L 7.2 39.0909090909091  C 6.7125 39.0909090909091  6.290625 38.9109848484849  5.934375 38.5511363636364  C 5.578125 38.1912878787879  5.4 37.7651515151515  5.4 37.2727272727273  C 5.4 36.9318181818182  5.484375 36.6193181818182  5.653125 36.3352272727273  L 12.6 24.6590909090909  L 12.6 20.9090909090909  L 11.334375 20.9090909090909  L 4.95 30.5965909090909  C 4.40625 31.4109848484849  3.65625 31.8181818181818  2.7 31.8181818181818  C 1.95 31.8181818181818  1.3125 31.5530303030303  0.7875 31.0227272727273  C 0.2625 30.4924242424242  0 29.8484848484848  0 29.0909090909091  C 0 28.5416666666667  0.15 28.0397727272727  0.45 27.5852272727273  L 7.65 16.6761363636364  C 9.01875 14.6496212121212  10.66875 13.6363636363636  12.6 14  L 23.4 14  C 25.33125 13.6363636363636  26.98125 14.6496212121212  28.35 16.6761363636364  L 35.55 27.5852272727273  Z M 22.4578125 1.86079545454546  C 23.6859375 3.10132575757575  24.3 4.60227272727273  24.3 6.36363636363637  C 24.3 8.125  23.6859375 9.62594696969697  22.4578125 10.8664772727273  C 21.2296875 12.1070075757576  19.74375 12.7272727272727  18 12.7272727272727  C 16.25625 12.7272727272727  14.7703125 12.1070075757576  13.5421875 10.8664772727273  C 12.3140625 9.62594696969697  11.7 8.125  11.7 6.36363636363637  C 11.7 4.60227272727273  12.3140625 3.10132575757575  13.5421875 1.86079545454546  C 14.7703125 0.620265151515148  16.25625 0  18 0  C 19.74375 0  21.2296875 0.620265151515148  22.4578125 1.86079545454546  Z " fill-rule="nonzero" fill="#000000" stroke="none" transform="matrix(1 0 0 1 390 208 )" />
  </g>
</svg>