<?xml version="1.0" encoding="utf-8"?>
<svg version="1.1" xmlns:xlink="http://www.w3.org/1999/xlink" width="29px" height="50px" xmlns="http://www.w3.org/2000/svg">
  <g transform="matrix(1 0 0 1 -390 -123 )">
    <path d="M 27.4140625 15.2272727272727  C 28.4713541666667 16.2878787878788  29 17.5757575757576  29 19.0909090909091  L 29 30.9090909090909  C 29 31.6666666666667  28.7356770833333 32.3106060606061  28.20703125 32.8409090909091  C 27.6783854166667 33.3712121212121  27.0364583333333 33.6363636363636  26.28125 33.6363636363636  C 25.5260416666667 33.6363636363636  24.8841145833333 33.3712121212121  24.35546875 32.8409090909091  C 23.8268229166667 32.3106060606061  23.5625 31.6666666666667  23.5625 30.9090909090909  L 23.5625 20.9090909090909  L 21.75 20.9090909090909  L 21.75 46.8181818181818  C 21.75 47.6893939393939  21.4384765625 48.4375  20.8154296875 49.0625  C 20.1923828125 49.6875  19.4466145833333 50  18.578125 50  C 17.7096354166667 50  16.9638671875 49.6875  16.3408203125 49.0625  C 15.7177734375 48.4375  15.40625 47.6893939393939  15 46.8181818181818  L 15 33.6363636363636  L 14 33.6363636363636  L 14 46.8181818181818  C 13.59375 47.6893939393939  13.2822265625 48.4375  12.6591796875 49.0625  C 12.0361328125 49.6875  11.2903645833333 50  10.421875 50  C 9.55338541666667 50  8.8076171875 49.6875  8.1845703125 49.0625  C 7.5615234375 48.4375  7.25 47.6893939393939  7.25 46.8181818181818  L 7.25 20.9090909090909  L 5.4375 20.9090909090909  L 5.4375 30.9090909090909  C 5.4375 31.6666666666667  5.17317708333333 32.3106060606061  4.64453125 32.8409090909091  C 4.11588541666667 33.3712121212121  3.47395833333333 33.6363636363636  2.71875 33.6363636363636  C 1.96354166666667 33.6363636363636  1.32161458333333 33.3712121212121  0.79296875 32.8409090909091  C 0.264322916666667 32.3106060606061  0 31.6666666666667  0 30.9090909090909  L 0 19.0909090909091  C 0 17.5757575757576  0.528645833333333 16.2878787878788  1.5859375 15.2272727272727  C 2.64322916666667 14.1666666666667  3.92708333333333 13.6363636363636  5.4375 14  L 23.5625 14  C 25.0729166666667 13.6363636363636  26.3567708333333 14.1666666666667  27.4140625 15.2272727272727  Z M 18.98876953125 1.86079545454546  C 20.2254231770833 3.10132575757575  20.84375 4.60227272727273  20.84375 6.36363636363637  C 20.84375 8.125  20.2254231770833 9.62594696969697  18.98876953125 10.8664772727273  C 17.7521158854167 12.1070075757576  16.255859375 12.7272727272727  14.5 12.7272727272727  C 12.744140625 12.7272727272727  11.2478841145833 12.1070075757576  10.01123046875 10.8664772727273  C 8.77457682291667 9.62594696969697  8.15625 8.125  8.15625 6.36363636363637  C 8.15625 4.60227272727273  8.77457682291667 3.10132575757575  10.01123046875 1.86079545454546  C 11.2478841145833 0.620265151515148  12.744140625 0  14.5 0  C 16.255859375 0  17.7521158854167 0.620265151515148  18.98876953125 1.86079545454546  Z " fill-rule="nonzero" fill="#000000" stroke="none" transform="matrix(1 0 0 1 390 123 )" />
  </g>
</svg>