<?xml version="1.0" encoding="utf-8"?>
<svg version="1.1" xmlns:xlink="http://www.w3.org/1999/xlink" width="7px" height="12px" xmlns="http://www.w3.org/2000/svg">
  <g transform="matrix(1 0 0 1 -1313 -145 )">
    <path d="M 6.76909722222222 5.47265625  C 6.92303240740741 5.62109375  7 5.796875  7 6  C 7 6.203125  6.92303240740741 6.37890625  6.76909722222222 6.52734375  L 1.32465277777778 11.77734375  C 1.17071759259259 11.92578125  0.988425925925926 12  0.777777777777778 12  C 0.56712962962963 12  0.384837962962963 11.92578125  0.230902777777778 11.77734375  C 0.0769675925925926 11.62890625  0 11.453125  0 11.25  L 0 0.75  C 0 0.546874999999998  0.0769675925925926 0.371093749999998  0.230902777777778 0.22265625  C 0.384837962962963 0.0742187499999991  0.56712962962963 0  0.777777777777778 0  C 0.988425925925926 0  1.17071759259259 0.0742187499999991  1.32465277777778 0.22265625  L 6.76909722222222 5.47265625  Z " fill-rule="nonzero" fill="#000000" stroke="none" transform="matrix(1 0 0 1 1313 145 )" />
  </g>
</svg>