<?xml version="1.0" encoding="utf-8"?>
<svg version="1.1" xmlns:xlink="http://www.w3.org/1999/xlink" width="19px" height="19px" xmlns="http://www.w3.org/2000/svg">
  <g transform="matrix(1 0 0 1 -1245 -389 )">
    <path d="M 4.7314453125 1.27408854166667  C 6.18695746527778 0.424696180555554  7.77647569444444 0  9.5 0  C 11.2235243055556 0  12.8130425347222 0.424696180555554  14.2685546875 1.27408854166667  C 15.7240668402778 2.12348090277778  16.8765190972222 3.27593315972222  17.7259114583333 4.7314453125  C 18.5753038194444 6.18695746527778  19 7.77647569444444  19 9.5  C 19 11.2235243055556  18.5753038194444 12.8130425347222  17.7259114583333 14.2685546875  C 16.8765190972222 15.7240668402778  15.7240668402778 16.8765190972222  14.2685546875 17.7259114583333  C 12.8130425347222 18.5753038194444  11.2235243055556 19  9.5 19  C 7.77647569444444 19  6.18695746527778 18.5753038194444  4.7314453125 17.7259114583333  C 3.27593315972222 16.8765190972222  2.12348090277778 15.7240668402778  1.27408854166667 14.2685546875  C 0.424696180555555 12.8130425347222  0 11.2235243055556  0 9.5  C 0 7.77647569444444  0.424696180555555 6.18695746527778  1.27408854166667 4.7314453125  C 2.12348090277778 3.27593315972222  3.27593315972222 2.12348090277778  4.7314453125 1.27408854166667  Z M 10.9720052083333 15.7158203125  C 11.0462239583333 15.6374782986111  11.0833333333333 15.5405815972222  11.0833333333333 15.4251302083333  L 11.0833333333333 13.0748697916667  C 11.0833333333333 12.9594184027778  11.0462239583333 12.8625217013889  10.9720052083333 12.7841796875  C 10.8977864583333 12.7058376736111  10.8070746527778 12.6666666666667  10.6998697916667 12.6666666666667  L 8.32486979166667 12.6666666666667  C 8.21766493055556 12.6666666666667  8.12282986111111 12.7078993055556  8.04036458333333 12.7903645833333  C 7.95789930555556 12.8728298611111  7.91666666666667 12.9676649305556  7.91666666666667 13.0748697916667  L 7.91666666666667 15.4251302083333  C 7.91666666666667 15.5323350694444  7.95789930555556 15.6271701388889  8.04036458333333 15.7096354166667  C 8.12282986111111 15.7921006944444  8.21766493055556 15.8333333333333  8.32486979166667 15.8333333333333  L 10.6998697916667 15.8333333333333  C 10.8070746527778 15.8333333333333  10.8977864583333 15.7941623263889  10.9720052083333 15.7158203125  Z M 10.9287109375 11.3863932291667  C 11.0070529513889 11.3245442708333  11.0503472222222 11.2523871527778  11.05859375 11.169921875  L 11.28125 3.48828125  C 11.28125 3.38932291666667  11.2400173611111 3.31510416666667  11.1575520833333 3.265625  C 11.0750868055556 3.19965277777778  10.9761284722222 3.16666666666667  10.8606770833333 3.16666666666667  L 8.13932291666667 3.16666666666667  C 8.02387152777778 3.16666666666667  7.92491319444444 3.19965277777778  7.84244791666667 3.265625  C 7.75998263888889 3.31510416666667  7.71875 3.38932291666667  7.71875 3.48828125  L 7.92903645833333 11.169921875  C 7.92903645833333 11.2523871527778  7.97026909722222 11.3245442708333  8.052734375 11.3863932291667  C 8.13519965277778 11.4482421875  8.23415798611111 11.4791666666667  8.349609375 11.4791666666667  L 10.6380208333333 11.4791666666667  C 10.7534722222222 11.4791666666667  10.8503689236111 11.4482421875  10.9287109375 11.3863932291667  Z " fill-rule="nonzero" fill="#000000" stroke="none" transform="matrix(1 0 0 1 1245 389 )" />
  </g>
</svg>