<?xml version="1.0" encoding="utf-8"?>
<svg version="1.1" xmlns:xlink="http://www.w3.org/1999/xlink" width="375px" height="230px" xmlns="http://www.w3.org/2000/svg">
  <g transform="matrix(1 0 0 1 -1040 -64 )">
    <path d="M 1040 64  L 1415 64  L 1415 294  L 1040 294  L 1040 64  " fill-rule="nonzero" fill="#cccccc" stroke="none" />
    <path d="M 1056 80  L 1399 80  L 1399 278  L 1056 278  L 1056 80  " fill-rule="nonzero" fill="#ffffff" stroke="none" />
    <path d="M 1252.25 133  C 1242.59 133  1235 125.41  1235 115.75  C 1235 106.09  1242.59 98.5  1252.25 98.5  C 1261.91 98.5  1269.5 106.09  1269.5 115.75  C 1269.5 125.41  1261.91 133  1252.25 133  " fill-rule="nonzero" fill="#cccccc" stroke="none" />
    <path d="M 1062 272  L 1062 169.7  L 1144.75 123.2  L 1260.6 203.552  L 1326.8 151.1  L 1393 203.552  L 1393 272  L 1062 272  " fill-rule="nonzero" fill="#169bd5" stroke="none" />
  </g>
</svg>