<?xml version="1.0" encoding="utf-8"?>
<svg version="1.1" xmlns:xlink="http://www.w3.org/1999/xlink" width="19px" height="16px" xmlns="http://www.w3.org/2000/svg">
  <g transform="matrix(1 0 0 1 -1129 -740 )">
    <path d="M 9.96651785714286 15.8125  C 9.83928571428572 15.9375  9.68377976190476 16  9.5 16  C 9.31622023809524 16  9.16071428571429 15.9375  9.03348214285714 15.8125  L 2.41741071428571 9.54166666666667  C 2.34672619047619 9.48611111111111  2.2495349702381 9.39583333333333  2.12583705357143 9.27083333333333  C 2.00213913690476 9.14583333333333  1.80598958333333 8.91840277777778  1.53738839285714 8.58854166666667  C 1.26878720238095 8.25868055555555  1.02845982142857 7.92013888888889  0.81640625 7.57291666666667  C 0.604352678571428 7.22569444444444  0.415271577380952 6.80555555555556  0.249162946428571 6.3125  C 0.0830543154761905 5.81944444444444  0 5.34027777777778  0 4.875  C 0 3.34722222222222  0.448846726190476 2.15277777777778  1.34654017857143 1.29166666666667  C 2.24423363095238 0.430555555555555  3.48474702380952 0  5.06808035714286 0  C 5.50632440476191 0  5.95340401785714 0.0746527777777768  6.40931919642857 0.223958333333334  C 6.865234375 0.373263888888888  7.28934151785714 0.574652777777777  7.681640625 0.828125  C 8.07393973214286 1.08159722222222  8.41145833333334 1.31944444444444  8.69419642857143 1.54166666666667  C 8.97693452380953 1.76388888888889  9.24553571428571 2  9.5 2.25  C 9.75446428571428 2  10.0230654761905 1.76388888888889  10.3058035714286 1.54166666666667  C 10.5885416666667 1.31944444444444  10.9260602678571 1.08159722222222  11.318359375 0.828125  C 11.7106584821429 0.574652777777777  12.134765625 0.373263888888888  12.5906808035714 0.223958333333334  C 13.0465959821429 0.0746527777777768  13.4936755952381 0  13.9319196428571 0  C 15.5152529761905 0  16.7557663690476 0.430555555555555  17.6534598214286 1.29166666666667  C 18.5511532738095 2.15277777777778  19 3.34722222222222  19 4.875  C 19 6.40972222222222  18.190662202381 7.97222222222222  16.5719866071429 9.5625  L 9.96651785714286 15.8125  Z " fill-rule="nonzero" fill="#ffffff" stroke="none" transform="matrix(1 0 0 1 1129 740 )" />
  </g>
</svg>