<?xml version="1.0" encoding="utf-8"?>
<svg version="1.1" xmlns:xlink="http://www.w3.org/1999/xlink" width="70px" height="61px" xmlns="http://www.w3.org/2000/svg">
  <defs>
    <mask fill="white" id="clip437">
      <path d="M 1627 242  C 1624.78 242  1623 240.22  1623 238  L 1623 185  C 1623 182.78  1624.78 181  1627 181  L 1689 181  C 1691.22 181  1693 182.78  1693 185  L 1693 238  C 1693 240.22  1691.22 242  1689 242  " fill-rule="evenodd" />
    </mask>
  </defs>
  <g transform="matrix(1 0 0 1 -1623 -181 )">
    <path d="M 1623 181  L 1693 181  L 1693 242  L 1623 242  L 1623 181  " fill-rule="nonzero" fill="#cccccc" stroke="none" mask="url(#clip437)" />
    <path d="M 1627 185  L 1689 185  L 1689 238  L 1627 238  L 1627 185  " fill-rule="nonzero" fill="#ffffff" stroke="none" mask="url(#clip437)" />
    <path d="M 1663.975 199.3  C 1661.413 199.3  1659.4 197.287  1659.4 194.725  C 1659.4 192.163  1661.413 190.15  1663.975 190.15  C 1666.537 190.15  1668.55 192.163  1668.55 194.725  C 1668.55 197.287  1666.537 199.3  1663.975 199.3  " fill-rule="nonzero" fill="#cccccc" stroke="none" mask="url(#clip437)" />
    <path d="M 1629 237  L 1629 209.5  L 1643.75 197  L 1664.4 210.857142857143  L 1676.2 204.5  L 1688 210.857142857143  L 1688 237  L 1629 237  " fill-rule="nonzero" fill="#169bd5" stroke="none" mask="url(#clip437)" />
  </g>
</svg>