<?xml version="1.0" encoding="utf-8"?>
<svg version="1.1" xmlns:xlink="http://www.w3.org/1999/xlink" width="26px" height="23px" xmlns="http://www.w3.org/2000/svg">
  <g transform="matrix(1 0 0 1 -1310 -305 )">
    <path d="M 8.74162946428571 8.22819010416667  C 9.10435267857143 8.6025390625  9.28571428571429 9.05425347222222  9.28571428571429 9.58333333333333  C 9.28571428571429 10.1124131944444  9.10435267857143 10.5641276041667  8.74162946428571 10.9384765625  C 8.37890625 11.3128255208333  7.94122023809524 11.5  7.42857142857143 11.5  C 6.91592261904762 11.5  6.47823660714286 11.3128255208333  6.11551339285714 10.9384765625  C 5.75279017857143 10.5641276041667  5.57142857142857 10.1124131944444  5.57142857142857 9.58333333333333  C 5.57142857142857 9.05425347222222  5.75279017857143 8.6025390625  6.11551339285714 8.22819010416667  C 6.47823660714286 7.85384114583333  6.91592261904762 7.66666666666667  7.42857142857143 7.66666666666667  C 7.94122023809524 7.66666666666667  8.37890625 7.85384114583333  8.74162946428571 8.22819010416667  Z M 14.3130580357143 8.22819010416667  C 14.67578125 8.6025390625  14.8571428571429 9.05425347222222  14.8571428571429 9.58333333333333  C 14.8571428571429 10.1124131944444  14.67578125 10.5641276041667  14.3130580357143 10.9384765625  C 13.9503348214286 11.3128255208333  13.5126488095238 11.5  13 11.5  C 12.4873511904762 11.5  12.0496651785714 11.3128255208333  11.6869419642857 10.9384765625  C 11.32421875 10.5641276041667  11.1428571428571 10.1124131944444  11.1428571428571 9.58333333333333  C 11.1428571428571 9.05425347222222  11.32421875 8.6025390625  11.6869419642857 8.22819010416667  C 12.0496651785714 7.85384114583333  12.4873511904762 7.66666666666667  13 7.66666666666667  C 13.5126488095238 7.66666666666667  13.9503348214286 7.85384114583333  14.3130580357143 8.22819010416667  Z M 19.8844866071429 8.22819010416667  C 20.2472098214286 8.6025390625  20.4285714285714 9.05425347222222  20.4285714285714 9.58333333333333  C 20.4285714285714 10.1124131944444  20.2472098214286 10.5641276041667  19.8844866071429 10.9384765625  C 19.5217633928571 11.3128255208333  19.0840773809524 11.5  18.5714285714286 11.5  C 18.0587797619048 11.5  17.62109375 11.3128255208333  17.2583705357143 10.9384765625  C 16.8956473214286 10.5641276041667  16.7142857142857 10.1124131944444  16.7142857142857 9.58333333333333  C 16.7142857142857 9.05425347222222  16.8956473214286 8.6025390625  17.2583705357143 8.22819010416667  C 17.62109375 7.85384114583333  18.0587797619048 7.66666666666667  18.5714285714286 7.66666666666667  C 19.0840773809524 7.66666666666667  19.5217633928571 7.85384114583333  19.8844866071429 8.22819010416667  Z M 18.53515625 2.95735677083333  C 16.8182663690476 2.26356336805555  14.9732142857143 1.91666666666667  13 1.91666666666667  C 11.0267857142857 1.91666666666667  9.18173363095238 2.26356336805555  7.46484375 2.95735677083333  C 5.74795386904762 3.65115017361111  4.38411458333333 4.58702256944444  3.37332589285714 5.76497395833333  C 2.36253720238095 6.94292534722222  1.85714285714286 8.21571180555555  1.85714285714286 9.58333333333333  C 1.85714285714286 10.7013888888889  2.20293898809524 11.7670355902778  2.89453125 12.7802734375  C 3.58612351190476 13.7935112847222  4.56063988095238 14.6694878472222  5.81808035714286 15.408203125  L 7.08035714285714 16.1569010416667  L 6.68861607142857 17.5944010416667  C 6.45647321428571 18.5028211805556  6.11793154761905 19.361328125  5.67299107142857 20.169921875  C 7.14322916666667 19.541015625  8.47321428571429 18.6875  9.66294642857143 17.609375  L 10.2868303571429 17.0403645833333  L 11.1138392857143 17.1302083333333  C 11.78125 17.2100694444444  12.4099702380952 17.25  13 17.25  C 14.9732142857143 17.25  16.8182663690476 16.9031032986111  18.53515625 16.2093098958333  C 20.2520461309524 15.5155164930556  21.6158854166667 14.5796440972222  22.6266741071429 13.4016927083333  C 23.637462797619 12.2237413194444  24.1428571428571 10.9509548611111  24.1428571428571 9.58333333333333  C 24.1428571428571 8.21571180555555  23.637462797619 6.94292534722222  22.6266741071429 5.76497395833333  C 21.6158854166667 4.58702256944444  20.2520461309524 3.65115017361111  18.53515625 2.95735677083333  Z M 24.9698660714286 5.8623046875  C 25.6566220238095 7.04524739583333  26 8.28559027777778  26 9.58333333333333  C 26 11.3203125  25.4196428571429 12.9250217013889  24.2589285714286 14.3974609375  C 23.0982142857143 15.8699001736111  21.5215773809524 17.0328776041667  19.5290178571429 17.8863932291667  C 17.5364583333333 18.7399088541667  15.360119047619 19.1666666666667  13 19.1666666666667  C 12.3229166666667 19.1666666666667  11.6216517857143 19.1267361111111  10.8962053571429 19.046875  C 8.98102678571429 20.7938368055556  6.75632440476191 22.0017361111111  4.22209821428571 22.6705729166667  C 3.74813988095238 22.8103298611111  3.1968005952381 22.9201388888889  2.56808035714286 23  L 2.49553571428571 23  C 2.35044642857143 23  2.21986607142857 22.9475911458333  2.10379464285714 22.8427734375  C 1.98772321428571 22.7379557291667  1.91034226190476 22.6006944444444  1.87165178571429 22.4309895833333  L 1.87165178571429 22.416015625  C 1.84263392857143 22.3760850694444  1.84021577380952 22.3161892361111  1.86439732142857 22.236328125  C 1.88857886904762 22.1564670138889  1.89825148809524 22.1065538194444  1.89341517857143 22.0865885416667  C 1.88857886904762 22.0666232638889  1.91034226190476 22.0192057291667  1.95870535714286 21.9443359375  L 2.04575892857143 21.8095703125  C 2.04575892857143 21.8095703125  2.0796130952381 21.7671440972222  2.14732142857143 21.6822916666667  C 2.21502976190476 21.5974392361111  2.25372023809524 21.5525173611111  2.26339285714286 21.5475260416667  C 2.33110119047619 21.4676649305556  2.48102678571429 21.2954644097222  2.71316964285714 21.0309244791667  C 2.9453125 20.7663845486111  3.11216517857143 20.5767144097222  3.21372767857143 20.4619140625  C 3.31529017857143 20.3471137152778  3.46521577380952 20.1499565972222  3.66350446428571 19.8704427083333  C 3.86179315476191 19.5909288194444  4.01897321428571 19.3363715277778  4.13504464285714 19.1067708333333  C 4.25111607142857 18.8771701388889  4.38169642857143 18.5826822916667  4.52678571428571 18.2233072916667  C 4.671875 17.8639322916667  4.79761904761905 17.4845920138889  4.90401785714286 17.0852864583333  C 3.38541666666667 16.1968315972222  2.18843005952381 15.0987413194444  1.31305803571429 13.791015625  C 0.437686011904762 12.4832899305556  0 11.0807291666667  0 9.58333333333333  C 0 8.28559027777778  0.343377976190476 7.04524739583333  1.03013392857143 5.8623046875  C 1.71688988095238 4.67936197916667  2.640625 3.65863715277778  3.80133928571429 2.80013020833333  C 4.96205357142857 1.94162326388889  6.3452380952381 1.26030815972222  7.95089285714286 0.756184895833332  C 9.55654761904762 0.252061631944443  11.2395833333333 0  13 0  C 14.7604166666667 0  16.4434523809524 0.252061631944443  18.0491071428571 0.756184895833332  C 19.6547619047619 1.26030815972222  21.0379464285714 1.94162326388889  22.1986607142857 2.80013020833333  C 23.359375 3.65863715277778  24.2831101190476 4.67936197916667  24.9698660714286 5.8623046875  Z " fill-rule="nonzero" fill="#000000" stroke="none" transform="matrix(1 0 0 1 1310 305 )" />
  </g>
</svg>