<?xml version="1.0" encoding="utf-8"?>
<svg version="1.1" xmlns:xlink="http://www.w3.org/1999/xlink" width="12px" height="12px" viewBox="544 1061  12 12" xmlns="http://www.w3.org/2000/svg">
  <path d="M 550 1061  C 553.36 1061  556 1063.64  556 1067  C 556 1070.36  553.36 1073  550 1073  C 546.64 1073  544 1070.36  544 1067  C 544 1063.64  546.64 1061  550 1061  Z " fill-rule="nonzero" fill="#ffffff" stroke="none" />
  <path d="M 550 1061.5  C 553.08 1061.5  555.5 1063.92  555.5 1067  C 555.5 1070.08  553.08 1072.5  550 1072.5  C 546.92 1072.5  544.5 1070.08  544.5 1067  C 544.5 1063.92  546.92 1061.5  550 1061.5  Z " stroke-width="1" stroke="#797979" fill="none" />
  <path d="M 550 1070  C 548.32 1070  547 1068.68  547 1067  C 547 1065.32  548.32 1064  550 1064  C 551.68 1064  553 1065.32  553 1067  C 553 1068.68  551.68 1070  550 1070  " fill-rule="nonzero" fill="#797979" stroke="none" />
</svg>