<?xml version="1.0" encoding="utf-8"?>
<svg version="1.1" xmlns:xlink="http://www.w3.org/1999/xlink" width="12px" height="12px" viewBox="633 1061  12 12" xmlns="http://www.w3.org/2000/svg">
  <path d="M 639 1061  C 642.36 1061  645 1063.64  645 1067  C 645 1070.36  642.36 1073  639 1073  C 635.64 1073  633 1070.36  633 1067  C 633 1063.64  635.64 1061  639 1061  Z " fill-rule="nonzero" fill="#ffffff" stroke="none" />
  <path d="M 639 1061.5  C 642.08 1061.5  644.5 1063.92  644.5 1067  C 644.5 1070.08  642.08 1072.5  639 1072.5  C 635.92 1072.5  633.5 1070.08  633.5 1067  C 633.5 1063.92  635.92 1061.5  639 1061.5  Z " stroke-width="1" stroke="#797979" fill="none" />
  <path d="M 639 1070  C 637.32 1070  636 1068.68  636 1067  C 636 1065.32  637.32 1064  639 1064  C 640.68 1064  642 1065.32  642 1067  C 642 1068.68  640.68 1070  639 1070  " fill-rule="nonzero" fill="#797979" stroke="none" />
</svg>