<?xml version="1.0" encoding="UTF-8"?>
<svg width="120px" height="120px" viewBox="0 0 120 120" version="1.1" xmlns="http://www.w3.org/2000/svg" xmlns:xlink="http://www.w3.org/1999/xlink">
    <title>icon/1.一级导航/VOC未选中</title>
    <g id="icon/1.一级导航/VOC未选中" stroke="none" stroke-width="1" fill="none" fill-rule="evenodd">
        <path d="M89.0109724,30.24375 C92.5628537,30.24375 95.4422224,33.1231187 95.4422224,36.675 L95.4422224,78.1555991 C95.4422224,81.4106771 92.8034603,84.0494392 89.5483823,84.0494392 L57.88125,84.04875 L42.7101298,91.6379082 C40.5083375,92.7388044 37.9393424,91.287838 37.6606942,88.9274652 L37.6358371,88.5018229 L37.635,84.04875 L32.3875901,84.0494392 C29.3133498,84.0494392 26.788848,81.6957286 26.5178362,78.6920587 L26.49375,78.1555991 L26.49375,36.1375901 C26.49375,32.8825121 29.1325121,30.24375 32.3875901,30.24375 Z M88.42875,37.25625 L33.50625,37.25625 L33.50625,77.03625 L41.1420871,77.0369392 C42.9402178,77.0369392 44.4222091,78.3904927 44.624748,80.1342864 L44.6483371,80.5431892 L44.6475,82.82625 L55.4913117,77.4071039 C55.8564581,77.2245307 56.2497244,77.1075997 56.6531743,77.060545 L57.0593544,77.0369392 L88.42875,77.03625 L88.42875,37.25625 Z M47.8125,44.11875 C49.6106307,44.11875 51.092622,45.4723034 51.2951609,47.2160972 L51.31875,47.625 L51.31875,66.375 C51.31875,68.3114484 49.7489484,69.88125 47.8125,69.88125 C46.0143693,69.88125 44.532378,68.5276966 44.3298391,66.7839028 L44.30625,66.375 L44.30625,47.625 C44.30625,45.6885516 45.8760516,44.11875 47.8125,44.11875 Z M60.9375,51.61875 C62.7356307,51.61875 64.217622,52.9723034 64.4201609,54.7160972 L64.44375,55.125 L64.44375,66.375 C64.44375,68.3114484 62.8739484,69.88125 60.9375,69.88125 C59.1393693,69.88125 57.657378,68.5276966 57.4548391,66.7839028 L57.43125,66.375 L57.43125,55.125 C57.43125,53.1885516 59.0010516,51.61875 60.9375,51.61875 Z M74.0625,51.61875 C75.8606307,51.61875 77.342622,52.9723034 77.5451609,54.7160972 L77.56875,55.125 L77.56875,66.375 C77.56875,68.3114484 75.9989484,69.88125 74.0625,69.88125 C72.2643693,69.88125 70.782378,68.5276966 70.5798391,66.7839028 L70.55625,66.375 L70.55625,55.125 C70.55625,53.1885516 72.1260516,51.61875 74.0625,51.61875 Z" id="形状结合" fill="#5A6172"></path>
    </g>
</svg>