<?xml version="1.0" encoding="utf-8"?>
<svg version="1.1" xmlns:xlink="http://www.w3.org/1999/xlink" width="20px" height="20px" xmlns="http://www.w3.org/2000/svg">
  <g transform="matrix(1 0 0 1 -1397 -474 )">
    <path d="M 0.25 10  C 0.25 4.61522368999999  4.61522368999999 0.25  10 0.25  C 15.3847763 0.25  19.75 4.61522368999999  19.75 10  C 19.75 15.3847763  15.3847763 19.75  10 19.75  C 4.61522368999999 19.75  0.25 15.3847763  0.25 10  Z M 10.75 15.25  L 10.75 13.75  L 9.25 13.75  L 9.25 15.25  L 10.75 15.25  Z M 10.75 12.25  L 10.75 4.75  L 9.25 4.75  L 9.25 12.25  L 10.75 12.25  Z " fill-rule="nonzero" fill="#e34d59" stroke="none" transform="matrix(1 0 0 1 1397 474 )" />
  </g>
</svg>