<?xml version="1.0" encoding="utf-8"?>
<svg version="1.1" xmlns:xlink="http://www.w3.org/1999/xlink" width="150px" height="126px" xmlns="http://www.w3.org/2000/svg">
  <g transform="matrix(1 0 0 1 -26 -1000 )">
    <path d="M 26 1000  L 176 1000  L 176 1126  L 26 1126  L 26 1000  " fill-rule="nonzero" fill="#cccccc" stroke="none" />
    <path d="M 35 1009  L 167 1009  L 167 1117  L 35 1117  L 35 1009  " fill-rule="nonzero" fill="#ffffff" stroke="none" />
    <path d="M 113.45 1037.8  C 108.158 1037.8  104 1033.642  104 1028.35  C 104 1023.058  108.158 1018.9  113.45 1018.9  C 118.742 1018.9  122.9 1023.058  122.9 1028.35  C 122.9 1033.642  118.742 1037.8  113.45 1037.8  " fill-rule="nonzero" fill="#cccccc" stroke="none" />
    <path d="M 38 1114  L 38 1057.9  L 69.5 1032.4  L 113.6 1062.592  L 138.8 1047.7  L 164 1062.592  L 164 1114  L 38 1114  " fill-rule="nonzero" fill="#169bd5" stroke="none" />
  </g>
</svg>