<?xml version="1.0" encoding="utf-8"?>
<svg version="1.1" xmlns:xlink="http://www.w3.org/1999/xlink" width="100px" height="100px" xmlns="http://www.w3.org/2000/svg">
  <defs>
    <mask fill="white" id="clip34">
      <path d="M 2120 1042.5  C 2092.5275 1042.5  2070.5 1020.4725  2070.5 993  L 2070.5 993  C 2070.5 965.5275  2092.5275 943.5  2120 943.5  L 2120 943.5  C 2147.4725 943.5  2169.5 965.5275  2169.5 993  L 2169.5 993  C 2169.5 1020.4725  2147.4725 1042.5  2120 1042.5  L 2120 1042.5  " fill-rule="evenodd" />
    </mask>
  </defs>
  <g transform="matrix(1 0 0 1 -2070 -943 )">
    <path d="M 2070 943  L 2170 943  L 2170 1043  L 2070 1043  L 2070 943  " fill-rule="nonzero" fill="#cccccc" stroke="none" mask="url(#clip34)" />
    <path d="M 2077 950  L 2163 950  L 2163 1036  L 2077 1036  L 2077 950  " fill-rule="nonzero" fill="#ffffff" stroke="none" mask="url(#clip34)" />
    <path d="M 2129.5 973  C 2125.3 973  2122 969.7  2122 965.5  C 2122 961.3  2125.3 958  2129.5 958  C 2133.7 958  2137 961.3  2137 965.5  C 2137 969.7  2133.7 973  2129.5 973  " fill-rule="nonzero" fill="#cccccc" stroke="none" mask="url(#clip34)" />
    <path d="M 2080 1034  L 2080 989.45  L 2100.25 969.2  L 2128.6 985.4  L 2144.8 981.35  L 2161 985.4  L 2161 1034  L 2080 1034  " fill-rule="nonzero" fill="#169bd5" stroke="none" mask="url(#clip34)" />
    <path d="M 2120 1042.5  C 2092.5275 1042.5  2070.5 1020.4725  2070.5 993  L 2070.5 993  C 2070.5 965.5275  2092.5275 943.5  2120 943.5  L 2120 943.5  C 2147.4725 943.5  2169.5 965.5275  2169.5 993  L 2169.5 993  C 2169.5 1020.4725  2147.4725 1042.5  2120 1042.5  L 2120 1042.5  Z " stroke-width="1" stroke="#797979" fill="none" />
  </g>
</svg>