<?xml version="1.0" encoding="utf-8"?>
<svg version="1.1" xmlns:xlink="http://www.w3.org/1999/xlink" width="32px" height="32px" xmlns="http://www.w3.org/2000/svg">
  <defs>
    <mask fill="white" id="clip191">
      <path d="M 2701 965.5  C 2692.3975 965.5  2685.5 958.6025  2685.5 950  L 2685.5 950  C 2685.5 941.3975  2692.3975 934.5  2701 934.5  L 2701 934.5  C 2709.6025 934.5  2716.5 941.3975  2716.5 950  L 2716.5 950  C 2716.5 958.6025  2709.6025 965.5  2701 965.5  L 2701 965.5  " fill-rule="evenodd" />
    </mask>
  </defs>
  <g transform="matrix(1 0 0 1 -2685 -934 )">
    <path d="M 2685 934  L 2717 934  L 2717 966  L 2685 966  L 2685 934  " fill-rule="nonzero" fill="#cccccc" stroke="none" mask="url(#clip191)" />
    <path d="M 2687 936  L 2715 936  L 2715 964  L 2687 964  L 2687 936  " fill-rule="nonzero" fill="#ffffff" stroke="none" mask="url(#clip191)" />
    <path d="M 2704.04 943.6  C 2702.696 943.6  2701.64 942.544  2701.64 941.2  C 2701.64 939.856  2702.696 938.8  2704.04 938.8  C 2705.384 938.8  2706.44 939.856  2706.44 941.2  C 2706.44 942.544  2705.384 943.6  2704.04 943.6  " fill-rule="nonzero" fill="#cccccc" stroke="none" mask="url(#clip191)" />
    <path d="M 2688 963  L 2688 948.7  L 2694.5 942.2  L 2703.6 947.4  L 2708.8 946.1  L 2714 947.4  L 2714 963  L 2688 963  " fill-rule="nonzero" fill="#169bd5" stroke="none" mask="url(#clip191)" />
    <path d="M 2701 965.5  C 2692.3975 965.5  2685.5 958.6025  2685.5 950  L 2685.5 950  C 2685.5 941.3975  2692.3975 934.5  2701 934.5  L 2701 934.5  C 2709.6025 934.5  2716.5 941.3975  2716.5 950  L 2716.5 950  C 2716.5 958.6025  2709.6025 965.5  2701 965.5  L 2701 965.5  Z " stroke-width="1" stroke="#797979" fill="none" />
  </g>
</svg>