<?xml version="1.0" encoding="utf-8"?>
<svg version="1.1" xmlns:xlink="http://www.w3.org/1999/xlink" width="104px" height="104px" xmlns="http://www.w3.org/2000/svg">
  <g transform="matrix(1 0 0 1 -1806 -351 )">
    <path d="M 1807 355  A 3 3 0 0 1 1810 352 L 1906 352  A 3 3 0 0 1 1909 355 L 1909 451  A 3 3 0 0 1 1906 454 L 1810 454  A 3 3 0 0 1 1807 451 L 1807 355  Z " fill-rule="nonzero" fill="#000000" stroke="none" fill-opacity="0.0196078431372549" />
    <path d="M 1806.5 355  A 3.5 3.5 0 0 1 1810 351.5 L 1906 351.5  A 3.5 3.5 0 0 1 1909.5 355 L 1909.5 451  A 3.5 3.5 0 0 1 1906 454.5 L 1810 454.5  A 3.5 3.5 0 0 1 1806.5 451 L 1806.5 355  Z " stroke-width="1" stroke-dasharray="9,4" stroke="#d9d9d9" fill="none" stroke-dashoffset="0.5" />
  </g>
</svg>