<?xml version="1.0" encoding="utf-8"?>
<svg version="1.1" xmlns:xlink="http://www.w3.org/1999/xlink" width="12px" height="12px" viewBox="1245 271.5  12 12" xmlns="http://www.w3.org/2000/svg">
  <path d="M 1251 271.5  C 1254.36 271.5  1257 274.14  1257 277.5  C 1257 280.86  1254.36 283.5  1251 283.5  C 1247.64 283.5  1245 280.86  1245 277.5  C 1245 274.14  1247.64 271.5  1251 271.5  Z " fill-rule="nonzero" fill="#ffffff" stroke="none" />
  <path d="M 1251 272  C 1254.08 272  1256.5 274.42  1256.5 277.5  C 1256.5 280.58  1254.08 283  1251 283  C 1247.92 283  1245.5 280.58  1245.5 277.5  C 1245.5 274.42  1247.92 272  1251 272  Z " stroke-width="1" stroke="#797979" fill="none" />
  <path d="M 1251 280.5  C 1249.32 280.5  1248 279.18  1248 277.5  C 1248 275.82  1249.32 274.5  1251 274.5  C 1252.68 274.5  1254 275.82  1254 277.5  C 1254 279.18  1252.68 280.5  1251 280.5  " fill-rule="nonzero" fill="#797979" stroke="none" />
</svg>