<?xml version="1.0" encoding="utf-8"?>
<svg version="1.1" xmlns:xlink="http://www.w3.org/1999/xlink" width="28px" height="28px" preserveAspectRatio="xMinYMid meet" viewBox="160 297  28 26" xmlns="http://www.w3.org/2000/svg">
  <g transform="matrix(-0.017452406437284 0.999847695156392 -0.99984769515639 -0.017452406437282 486.989504218568 141.436747038345 )">
    <path d="M 135 271.5  A 4 4 0 0 0 131 275.5 A 4 4 0 0 0 135 279.5 A 4 4 0 0 0 139 275.5 A 4 4 0 0 0 135 271.5 Z M 135 274.5  A 1 1 0 0 1 136 275.5 A 1 1 0 0 1 135 276.5 A 1 1 0 0 1 134 275.5 A 1 1 0 0 1 135 274.5 Z M 206 284.4  L 215 275.5  L 206 266.6  L 206 284.4  Z " fill-rule="nonzero" fill="#333333" stroke="none" transform="matrix(0.0183532175099484 0.999831565518429 -0.999831565518429 0.0183532175099484 445.278489671106 97.4728277413211 )" />
    <path d="M 138 275.5  L 208 275.5  " stroke-width="3" stroke="#333333" fill="none" transform="matrix(0.0183532175099484 0.999831565518429 -0.999831565518429 0.0183532175099484 445.278489671106 97.4728277413211 )" />
  </g>
</svg>