<?xml version="1.0" encoding="utf-8"?>
<svg version="1.1" xmlns:xlink="http://www.w3.org/1999/xlink" width="106px" height="25px" xmlns="http://www.w3.org/2000/svg">
  <g transform="matrix(1 0 0 1 -120 -263 )">
    <path d="M 135 271.5  A 4 4 0 0 0 131 275.5 A 4 4 0 0 0 135 279.5 A 4 4 0 0 0 139 275.5 A 4 4 0 0 0 135 271.5 Z M 135 274.5  A 1 1 0 0 1 136 275.5 A 1 1 0 0 1 135 276.5 A 1 1 0 0 1 134 275.5 A 1 1 0 0 1 135 274.5 Z M 206 284.4  L 215 275.5  L 206 266.6  L 206 284.4  Z " fill-rule="nonzero" fill="#333333" stroke="none" />
    <path d="M 138 275.5  L 208 275.5  " stroke-width="3" stroke="#333333" fill="none" />
  </g>
</svg>