<?xml version="1.0" encoding="utf-8"?>
<svg version="1.1" xmlns:xlink="http://www.w3.org/1999/xlink" width="8px" height="8px" xmlns="http://www.w3.org/2000/svg">
  <g transform="matrix(1 0 0 1 -492 -633 )">
    <path d="M 496 633.5  C 497.96 633.5  499.5 635.04  499.5 637  C 499.5 638.96  497.96 640.5  496 640.5  C 494.04 640.5  492.5 638.96  492.5 637  C 492.5 635.04  494.04 633.5  496 633.5  Z " fill-rule="nonzero" fill="#ffffff" stroke="none" />
    <path d="M 496 633.5  C 497.96 633.5  499.5 635.04  499.5 637  C 499.5 638.96  497.96 640.5  496 640.5  C 494.04 640.5  492.5 638.96  492.5 637  C 492.5 635.04  494.04 633.5  496 633.5  Z " stroke-width="1" stroke-dasharray="3,1" stroke="#6a708c" fill="none" stroke-dashoffset="0.5" />
  </g>
</svg>