<?xml version="1.0" encoding="utf-8"?>
<svg version="1.1" xmlns:xlink="http://www.w3.org/1999/xlink" width="70px" height="25px" xmlns="http://www.w3.org/2000/svg">
  <g transform="matrix(1 0 0 1 -144 -384 )">
    <path d="M 159 392.5  A 4 4 0 0 0 155 396.5 A 4 4 0 0 0 159 400.5 A 4 4 0 0 0 163 396.5 A 4 4 0 0 0 159 392.5 Z M 159 395.5  A 1 1 0 0 1 160 396.5 A 1 1 0 0 1 159 397.5 A 1 1 0 0 1 158 396.5 A 1 1 0 0 1 159 395.5 Z M 194 405.4  L 203 396.5  L 194 387.6  L 194 405.4  Z " fill-rule="nonzero" fill="#333333" stroke="none" />
    <path d="M 162 396.5  L 196 396.5  " stroke-width="3" stroke="#333333" fill="none" />
  </g>
</svg>