<?xml version="1.0" encoding="utf-8"?>
<svg version="1.1" xmlns:xlink="http://www.w3.org/1999/xlink" width="28px" height="26.0000000013452px" preserveAspectRatio="xMinYMid meet" viewBox="164 365  28 24.0000000013452" xmlns="http://www.w3.org/2000/svg">
  <g transform="matrix(0 -1 1 0 -199.000000000673 555.000000000673 )">
    <path d="M 158.5 393  A 4 4 0 0 0 154.5 397 A 4 4 0 0 0 158.5 401 A 4 4 0 0 0 162.5 397 A 4 4 0 0 0 158.5 393 Z M 158.5 396  A 1 1 0 0 1 159.5 397 A 1 1 0 0 1 158.5 398 A 1 1 0 0 1 157.5 397 A 1 1 0 0 1 158.5 396 Z M 193.5 405.9  L 202.5 397  L 193.5 388.1  L 193.5 405.9  Z " fill-rule="nonzero" fill="#333333" stroke="none" transform="matrix(6.12303176911189E-17 1 -1 6.12303176911189E-17 575.5 217.5 )" />
    <path d="M 161.5 397  L 195.5 397  " stroke-width="3" stroke="#333333" fill="none" transform="matrix(6.12303176911189E-17 1 -1 6.12303176911189E-17 575.5 217.5 )" />
  </g>
</svg>