<?xml version="1.0" encoding="utf-8"?>
<svg version="1.1" xmlns:xlink="http://www.w3.org/1999/xlink" width="89px" height="97px" xmlns="http://www.w3.org/2000/svg">
  <g transform="matrix(1 0 0 1 -133 -419 )">
    <path d="M 79.46383203125 38.00006690625  L 72.0275571875 38.00006690625  L 72.0275571875 34.26185859375  C 75.3938114927577 34.0767914368332  78.7684696535164 34.1077977244718  82.13075515625 34.3546865625  C 85.5994817348486 35.0451330999869  88.0483095899104 38.1594033415638  87.90114378125 41.69311565625  C 87.9814274375 46.73091590625  87.9312501875 51.771225  88 56.81153409375  L 88 68.806416  C 87.7599086059404 74.6180403776749  84.033637968487 79.7252230722624  78.55311415625 81.66685621875  C 78.3950556875 81.71703346875  78.2395060625 81.77724628125  77.9610220625 81.877600875  L 77.9610220625 90.31491271875  C 77.9610220625 91.4815348125  77.98861953125 92.6481568125  77.9610220625 93.8122700625  C 77.9631007092485 93.8500016615245  77.9641406230446 93.8877833181288  77.9641406230446 93.925572130458  C 77.9641406230446 95.0631560388594  77.041946656446 95.985350005458  75.9043627480446 95.985350005458  C 75.8907779182418 95.985350005458  75.8771934208349 95.9852156116457  75.86361125 95.98494684375  C 75.57509178125 96.01003546875  75.281554625 95.98494684375  74.9905263125 96  L 35.0042414375 96  C 32.56562496875 95.98494684375  31.97102403125 95.3953636875  32 92.97430921875  L 32 78.8544189375  C 31.97102403125 78.3125041875  31.97102403125 77.7680805  31.93339109375 77.23118353125  C 31.71261096875 74.65959721875  30.9674781875 73.96965946875  28.42098059375 74  L 18.1747773125 74  C 18.0380036862739 73.9768706702829  17.9010638500348 73.9804781473876  17.7641002553879 73.9804781473876  C 13.4562459660694 73.9804781473876  9.96404006788795 70.4882722492062  9.96404006788795 66.1804179598876  C 9.96404006788795 66.0722405966359  9.96629050086574 65.96407493869  9.97078990625 65.8559911875  C 9.94570128125 64.0997859375  9.90555940625 62.3435806875  9.988352 60.60995521875  C 10.1398943770843 59.7998379587493  9.6322118214434 59.0124344185851  8.831765375 58.8161169375  C 7.73492167124881 58.4540774884737  6.60824560229147 58.1896192514875  5.46486903125 58.02582459375  C 2.89272783705385 57.8109176036788  0.747968418612546 55.9715411727177  0.143567093749999 53.46219975  C -0.1188576045243 52.4061040105195  0.0404260083997618 51.2893188191527  0.58763609375 50.34869878125  C 3.59827365625 44.97638328125  6.567933125 39.58148796875  9.4966145 34.16401284375  C 9.81940475892804 33.4992761041712  9.97199770279516 32.7647608435773  9.9406835 32.02646015625  C 9.6781434973237 26.4668509835845  10.9036321773348 20.9378618273738  13.49072703125 16.00986815625  C 17.3817356704281 8.55618344486654  24.258658701983 3.10864608045802  32.40505765625 1.0269285  C 35.5022154586703 0.241990524036456  38.695718638005 -0.0959463138232137  41.8885660625 0.0233826562499999  L 41.8885660625 3.8619455625  C 39.751013375 4.0501104375  37.62349615625 4.070181375  35.55619165625 4.449019875  C 23.0749924528018 6.50320027336782  13.9503582776503 17.3430953093077  14.0552215625 29.99177090625  C 14.0833854109668 33.0539432088751  13.2533855987843 36.0628011617904  11.6592558125 38.67746034375  C 9.1729709375 42.85973775  6.91750165625 47.19003815625  4.574222 51.4551080625  C 3.7412789375 52.960426875  4.2129455 53.83351171875  5.99423946875 54.0066234375  C 8.41565205317782 54.1835041855409  10.7330096581328 55.0623215000665  12.66280165625 56.5355589375  C 13.5582265698354 57.1687776636278  14.0614750090643 58.2208517703364  13.99249990625 59.31538096875  C 13.94734034375 61.52318184375  13.96741128125 63.73098271875  13.99249990625 65.9387836875  C 13.9841958206118 66.0407426573578  13.9800386328604 66.1429969799404  13.9800386328604 66.2452935555075  C 13.9800386328604 68.3306331474412  15.6705403846767 70.0211348992575  17.7558799766104 70.0211348992575  C 17.8496140001975 70.0211348992575  17.9433155197559 70.0176445250642  18.03678978125 70.01067103125  C 21.534147125 70.03074196875  25.04404878125 70.1812738125  28.53137065625 69.97805578125  C 33.65196340625 69.67950084375  35.8070781875 73.2997925625  35.94506571875 77.3039405625  C 36.08556209375 81.67187390625  35.9877164375 86.04984271875  35.992734125 90.42279384375  L 35.992734125 91  L 73.904187875 91  C 73.92174996875 91.51164121875  73.9568740625 91.07509875  73.9568740625 90.6335385  L 73.9568740625 80.63822175  C 73.9568740625 78.78667959375  74.5238774375 78.1594635  76.3528398125 77.98635178125  C 78.3358586198309 77.8411747040063  80.1549583009412 76.8320926885199  81.32791840625 75.2266006875  C 83.0435174309996 73.1139909305411  83.9822559058421 70.4766672383878  83.987315 67.75520175  C 83.91204903125 59.34297853125  83.962226375 50.92824646875  83.9597174375 42.51602325  C 83.9938682529 42.3067211792919  84.0110276436856 42.0949989722602  84.0110276436856 41.8829290899214  C 84.0110276436856 39.7116818640349  82.250883994572 37.9515382149214  80.0796367686855 37.9515382149214  C 79.8734134303628 37.9515382149214  79.6675097695426 37.9677645194493  79.46383203125 38.00006690625  Z M 45.9579445625 17.94922059375  L 45.9579445625 17.92914965625  L 45.9579445625 12.09102159375  L 49.90689753125 12.09102159375  L 49.90689753125 17.9266408125  L 53.94115184375 17.9266408125  L 53.94115184375 12.11109253125  L 57.93777321875 12.11109253125  L 57.93777321875 17.92413196875  L 61.9268680625 17.92413196875  L 61.9268680625 12.11109253125  L 65.961122375 12.11109253125  L 65.961122375 18.0094333125  C 68.30100806618 17.6284442188106  70.6836434821206 18.3721462764146  72.39134253125 20.01652509375  C 73.3633150269586 21.1003975122933  73.9096750507766 22.4997208718519  73.92927659375 23.95544259375  L 70.0104299375 23.95544259375  C 69.69682184375 22.37234896875  68.562815 22.02361678125  67.06251396875 22.03114340625  C 59.608677125 22.06877634375  52.15734903125 22.0461965625  44.70602103125 22.05121425  C 42.92974484375 22.05121425  42.56094171875 22.3021006875  41.8810394375 23.9830400625  L 38.0725829375 23.9830400625  C 38.027423375 20.219743125  40.358158625 18.423396  45.9579445625 17.94922059375  Z M 70.00541225 48.045561  L 70.0104299375 48.045561  L 73.9066968125 48.045561  C 74.0525646867094 49.9676257970642  73.093249609035 51.8055022316425  71.43295625 52.7848063125  C 69.6709215616667 53.5211156340607  67.8452234888186 54.0946904999443  65.97868446875 54.49836084375  L 65.97868446875 59.8999464375  L 61.964501 59.8999464375  L 61.964501 54.109486875  L 57.98544171875 54.109486875  L 57.98544171875 59.935070625  L 54.03147096875 59.935070625  L 54.03147096875 54.11199571875  L 49.99721665625 54.11199571875  L 49.99721665625 59.93757946875  L 46.00561296875 59.93757946875  L 46.00561296875 54.03422090625  C 43.5444112712151 54.5020798576769  41.0191565160936 53.6348880899552  39.36464825 51.75366290625  C 38.678834646132 50.5761165441495  38.1003022535577 49.3392831804456  37.63604046875 48.0581053125  L 41.901110375 48.0581053125  C 42.229771625 49.79173078125  43.509292625 50.0200374375  45.0647886875 50.01000196875  C 52.3923460625 49.96818753125  59.7199034375 49.96818753125  67.0474608125 50.01000196875  C 68.552779625 50.01000196875  69.69180415625 49.68635840625  70.00541225 48.045561  Z M 57.885087125 43.94607609375  L 57.89512259375 43.9385495625  L 54.00638234375 43.9385495625  L 54.00638234375 40.12507528125  L 50.0172875 40.12507528125  L 50.0172875 43.93604071875  L 46.1436005 43.93604071875  C 46.08840546875 43.8281595  45.988050875 43.72278721875  45.988050875 43.614906  C 45.988050875 39.62079346875  45.92031153125 35.6266809375  45.988050875 31.63507725  C 46.0775094008554 29.6639451983817  47.6807519631022 28.1002075849868  49.65350215625 28.05994509375  C 51.1914707323625 27.9896972994392  52.7318445176375 27.9896972994392  54.26981309375 28.05994509375  C 56.1134819422961 28.0534971673579  57.6601483358261 29.449189806431  57.84243640625 31.28383621875  C 57.97289740625 35.46862246875  57.885087125 39.66093534375  57.885087125 43.94607609375  Z M 53.89599228125 35.96035996875  L 53.89599228125 32.09670834375  L 50.05492053125 32.09670834375  L 50.05492053125 35.96035996875  L 53.89599228125 35.96035996875  Z M 62 43.92098746875  L 62 28.06245403125  L 65 28.06245403125  L 65 43.92098746875  L 62 43.92098746875  Z M 32.06886978125 29.9315581875  L 32.06886978125 26.09048634375  L 39.8940186875 26.09048634375  L 39.8940186875 29.9315581875  L 32.06886978125 29.9315581875  Z M 72.0401015 29.92654040625  L 72.0401015 26.05536225  L 79.852706 26.05536225  L 79.852706 29.92654040625  L 72.0401015 29.92654040625  Z M 32.0738875625 37.91978325  L 32.0738875625 34.056131625  L 39.848859125 34.056131625  L 39.848859125 37.91978325  L 32.0738875625 37.91978325  Z M 32.0738875625 45.94564125  L 32.0738875625 42.04937446875  L 39.87143890625 42.04937446875  L 39.87143890625 45.94564125  L 32.0738875625 45.94564125  Z M 72.0576635 45.953167875  L 72.0576635 42.11209603125  L 79.89535671875 42.11209603125  L 79.89535671875 45.953167875  L 72.0576635 45.953167875  Z M 46.02819275 7.9237974375  L 46.02819275 4.112832  L 49.85922903125 4.112832  L 49.85922903125 7.9237974375  L 46.02819275 7.9237974375  Z M 54.06910390625 7.92630628125  L 54.06910390625 4.10279653125  L 57.885087125 4.10279653125  L 57.885087125 7.92630628125  L 54.06910390625 7.92630628125  Z M 62.004642875 7.90121765625  L 62.004642875 4.11784978125  L 65.89589196875 4.11784978125  L 65.89589196875 7.90121765625  L 62.004642875 7.90121765625  Z M 24.0505383125 29.9491201875  L 24.0505383125 26.10303075  L 27.8489594375 26.10303075  L 27.8489594375 29.9491201875  L 24.0505383125 29.9491201875  Z M 84.03749225 29.94661134375  L 84.03749225 26.0754331875  L 87.861002 26.0754331875  L 87.861002 29.94661134375  L 84.03749225 29.94661134375  Z M 24.05304725 37.8997123125  L 24.05304725 34.0962735  L 27.87655690625 34.0962735  L 27.87655690625 37.8997123125  L 24.05304725 37.8997123125  Z M 24.08064471875 45.93560578125  L 24.08064471875 42.08198971875  L 27.90415446875 42.08198971875  L 27.90415446875 45.93560578125  L 24.08064471875 45.93560578125  Z M 46.05579021875 67.9232956875  L 46.05579021875 64.079715  L 49.876791125 64.079715  L 49.876791125 67.9232956875  L 46.05579021875 67.9232956875  Z M 54.07161284375 67.9082424375  L 54.07161284375 64.0847326875  L 57.8825781875 64.0847326875  L 57.8825781875 67.9082424375  L 54.07161284375 67.9082424375  Z M 62.04478465625 67.8881715  L 62.04478465625 64.06967953125  L 65.88083871875 64.06967953125  L 65.88083871875 67.8881715  L 62.04478465625 67.8881715  Z " fill-rule="nonzero" fill="#000000" stroke="none" transform="matrix(1 0 0 1 133 419 )" />
  </g>
</svg>