<?xml version="1.0" encoding="utf-8"?>
<svg version="1.1" xmlns:xlink="http://www.w3.org/1999/xlink" width="47px" height="54px" xmlns="http://www.w3.org/2000/svg">
  <g transform="matrix(1 0 0 1 -153 -318 )">
    <path d="M 18 14.25  L 18 24.930375  L 15.061875 24.930375  L 9.9283125 17.1855  L 9.8356875 17.1855  L 9.8356875 24.930375  L 8 24.930375  L 8 14.25  L 10.0209375 14.25  L 15.1545 21.994875  L 15.247125 21.994875  L 15.247125 14.25  L 18 14.25  Z M 27.8476875 14.25  L 30.0885 14.25  L 25.421625 25.0550625  L 23.554875 25.0550625  L 18.888 14.25  L 21.1288125 14.25  L 24.395625 22.4295  L 24.580875 22.4295  L 27.8476875 14.25  Z M 38.303625 20.121  L 41.851875 24.930375  L 39.6110625 24.930375  L 36.251625 20.30625  L 33.8255625 20.30625  L 33.8255625 24.930375  L 31 24.930375  L 31 14.25  L 36.34425 14.25  C 37.8369375 14.25  39.05175 14.49225  39.985125 14.969625  C 40.9185 15.447  41.3851875 16.23075  41.3851875 17.3101875  C 41.3851875 18.1438125  41.07525 18.788625  40.4518125 19.2481875  C 39.828375 19.7041875  39.1123125 19.9963125  38.303625 20.121  Z M 38.39625 18.7138125  C 38.9555625 18.446625  39.237 17.976375  39.237 17.3101875  C 39.237 16.7259375  38.973375 16.266375  38.4425625 15.9350625  C 37.9153125 15.60375  37.05675 15.4363125  35.874 15.4363125  L 33.822 15.4363125  L 33.822 19.1199375  L 36.436875 19.1199375  C 37.185 19.1199375  37.8369375 18.988125  38.39625 18.7138125  Z M 5 4  L 43 4  L 43 49  L 5 49  L 5 4  Z M 43.3125 0  L 4.125 0  C 2.1585 0  0.5625 1.596  1 3.5625  L 1 49.875  C 0.5625 51.8415  2.1585 53.4375  4.125 53  L 43.3125 53  C 45.279 53.4375  46.875 51.8415  46 49.875  L 46 3.5625  C 46.875 1.596  45.279 0  43.3125 0  Z M 43.3125 39  L 43.3125 35  L 4.125 35  L 4.125 39  L 43.3125 39  Z M 39.75 46.3125  L 39.75 42.75  L 36.1875 42.75  L 36.1875 46.3125  L 39.75 46.3125  Z " fill-rule="nonzero" fill="#000000" stroke="none" transform="matrix(1 0 0 1 153 318 )" />
  </g>
</svg>