<?xml version="1.0" encoding="utf-8"?>
<svg version="1.1" xmlns:xlink="http://www.w3.org/1999/xlink" width="54px" height="4px" preserveAspectRatio="xMinYMid meet" viewBox="154 549  54 2" xmlns="http://www.w3.org/2000/svg">
  <g transform="matrix(0 -1 1 0 -369 731 )">
    <path d="M 160.5 546  A 4 4 0 0 0 156.5 550 A 4 4 0 0 0 160.5 554 A 4 4 0 0 0 164.5 550 A 4 4 0 0 0 160.5 546 Z M 160.5 549  A 1 1 0 0 1 161.5 550 A 1 1 0 0 1 160.5 551 A 1 1 0 0 1 159.5 550 A 1 1 0 0 1 160.5 549 Z M 195.5 558.9  L 204.5 550  L 195.5 541.1  L 195.5 558.9  Z " fill-rule="nonzero" fill="#333333" stroke="none" transform="matrix(6.12303176911189E-17 1 -1 6.12303176911189E-17 730.5 368.5 )" />
    <path d="M 163.5 550  L 197.5 550  " stroke-width="3" stroke="#333333" fill="none" transform="matrix(6.12303176911189E-17 1 -1 6.12303176911189E-17 730.5 368.5 )" />
  </g>
</svg>