<?xml version="1.0" encoding="utf-8"?>
<svg version="1.1" xmlns:xlink="http://www.w3.org/1999/xlink" width="69px" height="69px" xmlns="http://www.w3.org/2000/svg">
  <g transform="matrix(1 0 0 1 -2070 -968 )">
    <path d="M 68.8164893373296 34.5  C 68.8164893373296 15.5474514283993  53.4525486447183 0.183510662670379  34.5 0.183510662670379  C 15.5474513552817 0.183510662670379  0.183510662670379 15.5474513552817  0.183510662670379 34.5  C 0.183510662670379 53.4525486447183  15.5474514283993 68.8164893373296  34.5 68.8164893373296  C 53.4525485716007 68.8164893373296  68.8164893373296 53.4525485716007  68.8164893373296 34.5  Z M 48.8719797207447 36.7807791478349  L 48.8710048448512 36.7783419215425  L 29.3729995013298 49.6470254321808  C 28.9270880610218 49.9409551905358  28.4047489450329 50.0976223113691  27.8706780551277 50.0976223113691  C 26.3634002795408 50.0976223113691  25.1413892016004 48.8759612243879  26 47.3686835106383  L 26 21.6337537156541  C 25.1410342595024 20.1262249089347  26.3631493548972 18.9041720820424  27.8706781635734 18.9041720820424  C 28.4051466568719 18.9041720820424  28.9278568303171 19.061072356266  29.3739743772232 19.3554117941115  L 48.8719797207447 32.2240953047498  C 49.6375377795801 32.7292968680346  50.0981934409288 33.5852089226552  50.0981934409288 34.5024372262924  C 50.0981934409288 35.4196655299296  49.6375377795801 36.2755775845502  48.8719797207447 36.7807791478349  Z " fill-rule="nonzero" fill="#ffffff" stroke="none" transform="matrix(1 0 0 1 2070 968 )" />
  </g>
</svg>