<?xml version="1.0" encoding="utf-8"?>
<svg version="1.1" xmlns:xlink="http://www.w3.org/1999/xlink" width="37px" height="37px" xmlns="http://www.w3.org/2000/svg">
  <g transform="matrix(1 0 0 1 -352 -1496 )">
    <path d="M 20.8125 30.9778645833333  C 21.2300347222222 30.9778645833333  21.5913628472222 30.8253038194444  21.896484375 30.5201822916667  L 24.353515625 28.0631510416667  C 24.6586371527778 27.7580295138889  24.8111979166667 27.3967013888889  24.8111979166667 26.9791666666667  C 24.8111979166667 26.5616319444444  24.6586371527778 26.2003038194444  24.353515625 25.8951822916667  L 16.9583333333333 18.5  L 24.353515625 11.1048177083333  C 24.6586371527778 10.7996961805556  24.8111979166667 10.4383680555556  24.8111979166667 10.0208333333333  C 24.8111979166667 9.60329861111111  24.6586371527778 9.24197048611111  24.353515625 8.93684895833333  L 21.896484375 6.47981770833333  C 21.5913628472222 6.17469618055555  21.2300347222222 6.02213541666667  20.8125 6.02213541666667  C 20.3949652777778 6.02213541666667  20.0336371527778 6.17469618055555  19.728515625 6.47981770833333  L 8.79231770833333 17.416015625  C 8.48719618055556 17.7211371527778  8.33463541666667 18.0824652777778  8.33463541666667 18.5  C 8.33463541666667 18.9175347222222  8.48719618055556 19.2788628472222  8.79231770833333 19.583984375  L 19.728515625 30.5201822916667  C 20.0336371527778 30.8253038194444  20.3949652777778 30.9778645833333  20.8125 30.9778645833333  Z M 34.5188802083333 9.2138671875  C 36.1729600694444 12.0482855902778  37 15.1436631944444  37 18.5  C 37 21.8563368055556  36.1729600694444 24.9517144097222  34.5188802083333 27.7861328125  C 32.8648003472222 30.6205512152778  30.6205512152778 32.8648003472222  27.7861328125 34.5188802083333  C 24.9517144097222 36.1729600694444  21.8563368055556 37  18.5 37  C 15.1436631944444 37  12.0482855902778 36.1729600694444  9.2138671875 34.5188802083333  C 6.37944878472222 32.8648003472222  4.13519965277778 30.6205512152778  2.48111979166667 27.7861328125  C 0.827039930555555 24.9517144097222  0 21.8563368055556  0 18.5  C 0 15.1436631944444  0.827039930555555 12.0482855902778  2.48111979166667 9.2138671875  C 4.13519965277778 6.37944878472222  6.37944878472222 4.13519965277777  9.2138671875 2.48111979166667  C 12.0482855902778 0.827039930555552  15.1436631944444 0  18.5 0  C 21.8563368055556 0  24.9517144097222 0.827039930555552  27.7861328125 2.48111979166667  C 30.6205512152778 4.13519965277777  32.8648003472222 6.37944878472222  34.5188802083333 9.2138671875  Z " fill-rule="nonzero" fill="#000000" stroke="none" transform="matrix(1 0 0 1 352 1496 )" />
  </g>
</svg>