<?xml version="1.0" encoding="utf-8"?>
<svg version="1.1" xmlns:xlink="http://www.w3.org/1999/xlink" width="18px" height="33px" xmlns="http://www.w3.org/2000/svg">
  <g transform="matrix(1 0 0 1 -1298 -642 )">
    <path d="M 17.4938005454009 32.5349854352679  C 18.0283019089033 32.000218679249  18.0283019089033 31.136734704839  17.4938005454009 30.602769666773  L 3.35256066111439 16.5825801717953  L 17.4525606390035 2.39723033322704  C 17.9870620025059 1.86326532804528  17.9870620025059 0.999781353635204  17.4525606390035 0.465014564732143  C 17.1977002389657 0.208579934844354  16.8497627820052 0.0641977445523229  16.4866576779923 0.0641977445523229  C 16.1235525739795 0.0641977445523229  15.775615117019 0.208579934844354  15.5207547169811 0.465014564732143  L 0.557951477741745 15.5539358537946  C 0.517520198260613 15.5956268315529  0.517520198260613 15.5956268315529  0.517520231426887 15.6365160255899  C 0.270080892541273 15.8834547901387  0.105929927034197 16.253862953404  0.105929927034197 16.5825801717953  C 0.105929927034197 16.9521865842235  0.229649613060141 17.2809038026148  0.516711604510613 17.5687317940848  L 15.5619946233785 32.5349854352679  C 16.0956873599646 33.0697521912867  16.9592992150649 33.0697521912867  17.4946091723172 32.5349854352679  Z " fill-rule="nonzero" fill="#999999" stroke="none" transform="matrix(1 0 0 1 1298 642 )" />
  </g>
</svg>