<?xml version="1.0" encoding="utf-8"?>
<svg version="1.1" xmlns:xlink="http://www.w3.org/1999/xlink" width="76px" height="76px" xmlns="http://www.w3.org/2000/svg">
  <g transform="matrix(1 0 0 1 -619 -1099 )">
    <path d="M 75.7978723135805 38  C 75.7978723135805 17.1247291095412  58.875270970994 0.202127686419548  38 0.202127686419548  C 17.124729029006 0.202127686419548  0.202127686419548 17.124729029006  0.202127686419548 38  C 0.202127686419548 58.875270970994  17.1247291095412 75.7978723135805  38 75.7978723135805  C 58.8752708904588 75.7978723135805  75.7978723135805 58.8752708904588  75.7978723135805 38  Z M 53.8300066489362 40.5121625396443  L 53.8289328725898 40.5094780585106  L 32.3528690159574 54.6836801861702  C 31.8617201831545 55.0074289055177  31.2863901423551 55.1799897922326  30.6981381476769 55.1799897922326  C 29.0379481339869 55.1799897922326  27.6919649177048 53.8343920732388  28 52.1742021276596  L 28 23.8284823534741  C 27.6915739669882 22.1680158417252  29.0376717532201 20.8219866410902  30.6981382671244 20.8219866410902  C 31.286828201772 20.8219866410902  31.8625669435377 20.994804334438  32.3539427923039 21.3190042949634  L 53.8300066489362 35.493206422623  C 54.6732300180882 36.0496603184149  55.1806188624723 36.9924040307506  55.1806188624723 38.0026844811337  C 55.1806188624723 39.0129649315167  54.6732300180882 39.9557086438524  53.8300066489362 40.5121625396443  Z " fill-rule="nonzero" fill="#ffffff" stroke="none" transform="matrix(1 0 0 1 619 1099 )" />
  </g>
</svg>