<?xml version="1.0" encoding="utf-8"?>
<svg version="1.1" xmlns:xlink="http://www.w3.org/1999/xlink" width="8px" height="8px" xmlns="http://www.w3.org/2000/svg">
  <g transform="matrix(1 0 0 1 -1412 -1083 )">
    <path d="M 1416 1084  C 1417.68 1084  1419 1085.32  1419 1087  C 1419 1088.68  1417.68 1090  1416 1090  C 1414.32 1090  1413 1088.68  1413 1087  C 1413 1085.32  1414.32 1084  1416 1084  Z " fill-rule="nonzero" fill="#ffffff" stroke="none" fill-opacity="0" />
    <path d="M 1416 1084  C 1417.68 1084  1419 1085.32  1419 1087  C 1419 1088.68  1417.68 1090  1416 1090  C 1414.32 1090  1413 1088.68  1413 1087  C 1413 1085.32  1414.32 1084  1416 1084  Z " stroke-width="2" stroke="#999999" fill="none" />
  </g>
</svg>