<?xml version="1.0" encoding="utf-8"?>
<svg version="1.1" xmlns:xlink="http://www.w3.org/1999/xlink" width="8px" height="8px" xmlns="http://www.w3.org/2000/svg">
  <g transform="matrix(1 0 0 1 -1409 -1025 )">
    <path d="M 1413 1026  C 1414.68 1026  1416 1027.32  1416 1029  C 1416 1030.68  1414.68 1032  1413 1032  C 1411.32 1032  1410 1030.68  1410 1029  C 1410 1027.32  1411.32 1026  1413 1026  Z " fill-rule="nonzero" fill="#ffffff" stroke="none" fill-opacity="0" />
    <path d="M 1413 1026  C 1414.68 1026  1416 1027.32  1416 1029  C 1416 1030.68  1414.68 1032  1413 1032  C 1411.32 1032  1410 1030.68  1410 1029  C 1410 1027.32  1411.32 1026  1413 1026  Z " stroke-width="2" stroke="#999999" fill="none" />
  </g>
</svg>