<?xml version="1.0" encoding="utf-8"?>
<svg version="1.1" xmlns:xlink="http://www.w3.org/1999/xlink" width="8px" height="8px" xmlns="http://www.w3.org/2000/svg">
  <g transform="matrix(1 0 0 1 -1409 -957 )">
    <path d="M 1413 957  C 1415.24 957  1417 958.76  1417 961  C 1417 963.24  1415.24 965  1413 965  C 1410.76 965  1409 963.24  1409 961  C 1409 958.76  1410.76 957  1413 957  Z " fill-rule="nonzero" fill="#0052d9" stroke="none" />
    <path d="M 1413 957.5  C 1414.96 957.5  1416.5 959.04  1416.5 961  C 1416.5 962.96  1414.96 964.5  1413 964.5  C 1411.04 964.5  1409.5 962.96  1409.5 961  C 1409.5 959.04  1411.04 957.5  1413 957.5  Z " stroke-width="1" stroke="#0052d9" fill="none" />
  </g>
</svg>