<?xml version="1.0" encoding="utf-8"?>
<svg version="1.1" xmlns:xlink="http://www.w3.org/1999/xlink" width="8px" height="8px" xmlns="http://www.w3.org/2000/svg">
  <g transform="matrix(1 0 0 1 -1409 -889 )">
    <path d="M 1413 890  C 1414.68 890  1416 891.32  1416 893  C 1416 894.68  1414.68 896  1413 896  C 1411.32 896  1410 894.68  1410 893  C 1410 891.32  1411.32 890  1413 890  Z " fill-rule="nonzero" fill="#ffffff" stroke="none" fill-opacity="0" />
    <path d="M 1413 890  C 1414.68 890  1416 891.32  1416 893  C 1416 894.68  1414.68 896  1413 896  C 1411.32 896  1410 894.68  1410 893  C 1410 891.32  1411.32 890  1413 890  Z " stroke-width="2" stroke="#0052d9" fill="none" />
  </g>
</svg>