<?xml version="1.0" encoding="utf-8"?>
<svg version="1.1" xmlns:xlink="http://www.w3.org/1999/xlink" width="37px" height="37px" xmlns="http://www.w3.org/2000/svg">
  <g transform="matrix(1 0 0 1 -1083 -1289 )">
    <path d="M 28.7772373297276 8  L 28.7772373297276 31.8094739412007  C 28.7772373297276 33.0728862561678  27.7752466446314 34.1011975740132  26.5443221654647 34  L 10.4556778345353 34  C 9.22470703125 34.1011975740132  8.22276267027244 33.0728387129934  8.22276267027244 31.8094739412007  L 8.22276267027244 8  L 28.7772373297276 8  Z M 12.6886393229167 5  L 12.6886393229167 3.36890933388158  C 12.6886393229167 3.10447419819079  12.8890374599359 2.89880242598684  13.1466922075321 3  L 23.8819360977564 3  C 24.1395908453526 2.89880242598684  24.3399889823718 3.10447419819079  24.3399889823718 3.36890933388158  L 24.3399889823718 5  L 12.6886393229167 5  Z M 36.8215594951923 6.10131064967105  C 36.8215594951923 5.3373869243421  36.2203650841346 4.74980083264803  35.4760754707532 4.74980083264803  L 27.0023287259615 4.74980083264803  L 27.0023287259615 3.36890933388158  C 27.0023287259615 1.60600842927632  25.5996344150641 0.166401110197369  23.8819360977564 0.166401110197369  L 13.1466922075321 0.166401110197369  C 11.4289938902244 0.166401110197369  10.0262995793269 1.60600842927632  10.0262995793269 3.36890933388158  L 10.0262995793269 4.74980083264803  L 1.52397085336538 4.74980083264803  C 0.779634915865383 4.74980083264803  0.178440504807692 5.36681614925987  0.178440504807692 6.13069233141448  C 0.178440504807692 6.89456851356908  0.779634915865385 7.51158383018092  1.52392452924679 7.51158383018092  L 6 7.51158383018092  L 6 31.8094739412007  C 5.53179462139423 34.6006861636513  7.73608148036859 36.8629805715461  10.4556778345353 36.8629805715461  L 26.5443221654647 36.8629805715461  C 29.2639185196314 36.8629805715461  31.4682053786058 34.6006861636513  31 31.8094739412007  L 31 7.4822021484375  L 35.4760754707532 7.4822021484375  C 36.2203650841346 7.4822021484375  36.8215594951923 6.865234375  36.8215594951923 6.10131064967105  Z M 17.1545159755609 28.577584035773  C 17.1545159755609 29.341507761102  17.7556640625 29.9585230777138  18.5 29.9585230777138  C 19.2443359375 29.9585230777138  19.8454840244391 29.341507761102  19.8454840244391 28.577584035773  L 19.8454840244391 13.8872185958059  C 19.8454840244391 13.123294870477  19.2443359375 12.5063270970395  18.5 12.5063270970395  C 17.7556640625 12.5063270970395  17.1545159755609 13.123294870477  17.1545159755609 13.8872185958059  L 17.1545159755609 28.577584035773  Z M 11 28.577584035773  C 10.9137307191506 29.341507761102  11.5149251302083 29.9585230777138  12.2305864383013 29.9585230777138  C 12.9749223758013 29.9585230777138  13.5760704627404 29.341507761102  14 28.577584035773  L 14 13.8872185958059  C 13.5760704627404 13.123294870477  12.9749223758013 12.5063270970395  12.2305864383013 12.5063270970395  C 11.4862505008013 12.5063270970395  10.8851024138622 13.123294870477  11 13.8872185958059  L 11 28.577584035773  Z M 23 28.577584035773  C 23.4239295372596 29.341507761102  24.0250776241987 29.9585230777138  24.7694135616987 29.9585230777138  C 25.5137031750801 29.9585230777138  26.1148975861378 29.341507761102  26 28.577584035773  L 26 13.8872185958059  C 26.1148975861378 13.123294870477  25.5137031750801 12.5063270970395  24.7694135616987 12.5063270970395  C 24.0251239483173 12.5063270970395  23.4239295372596 13.123294870477  23 13.8872185958059  L 23 28.577584035773  Z " fill-rule="nonzero" fill="#1f2429" stroke="none" transform="matrix(1 0 0 1 1083 1289 )" />
  </g>
</svg>