<?xml version="1.0" encoding="utf-8"?>
<svg version="1.1" xmlns:xlink="http://www.w3.org/1999/xlink" width="12px" height="12px" viewBox="320 1181  12 12" xmlns="http://www.w3.org/2000/svg">
  <path d="M 326 1181  C 329.36 1181  332 1183.64  332 1187  C 332 1190.36  329.36 1193  326 1193  C 322.64 1193  320 1190.36  320 1187  C 320 1183.64  322.64 1181  326 1181  Z " fill-rule="nonzero" fill="#ffffff" stroke="none" />
  <path d="M 326 1181.5  C 329.08 1181.5  331.5 1183.92  331.5 1187  C 331.5 1190.08  329.08 1192.5  326 1192.5  C 322.92 1192.5  320.5 1190.08  320.5 1187  C 320.5 1183.92  322.92 1181.5  326 1181.5  Z " stroke-width="1" stroke="#797979" fill="none" />
  <path d="M 326 1190  C 324.32 1190  323 1188.68  323 1187  C 323 1185.32  324.32 1184  326 1184  C 327.68 1184  329 1185.32  329 1187  C 329 1188.68  327.68 1190  326 1190  " fill-rule="nonzero" fill="#797979" stroke="none" />
</svg>