<?xml version="1.0" encoding="utf-8"?>
<svg version="1.1" xmlns:xlink="http://www.w3.org/1999/xlink" width="15px" height="15px" xmlns="http://www.w3.org/2000/svg">
  <g transform="matrix(1 0 0 1 -16 0 )">
    <path d="M 23.5 0  C 27.7 0  31 3.3  31 7.5  C 31 11.7  27.7 15  23.5 15  C 19.3 15  16 11.7  16 7.5  C 16 3.3  19.3 0  23.5 0  Z " fill-rule="nonzero" fill="#ffffff" stroke="none" />
    <path d="M 23.5 0.5  C 27.42 0.5  30.5 3.58  30.5 7.5  C 30.5 11.42  27.42 14.5  23.5 14.5  C 19.58 14.5  16.5 11.42  16.5 7.5  C 16.5 3.58  19.58 0.5  23.5 0.5  Z " stroke-width="1" stroke="#169bd5" fill="none" />
  </g>
</svg>