<?xml version="1.0" encoding="utf-8"?>
<svg version="1.1" xmlns:xlink="http://www.w3.org/1999/xlink" width="32px" height="32px" xmlns="http://www.w3.org/2000/svg">
  <defs>
    <filter x="865px" y="478px" width="32px" height="32px" filterUnits="userSpaceOnUse" id="filter47">
      <feOffset dx="0" dy="0" in="SourceAlpha" result="shadowOffsetInner" />
      <feGaussianBlur stdDeviation="5" in="shadowOffsetInner" result="shadowGaussian" />
      <feComposite in2="shadowGaussian" operator="atop" in="SourceAlpha" result="shadowComposite" />
      <feColorMatrix type="matrix" values="0 0 0 0 0.850980392156863  0 0 0 0 0  0 0 0 0 0.105882352941176  0 0 0 0.980392156862745 0  " in="shadowComposite" />
    </filter>
    <g id="widget48">
      <path d="M 881 488  C 884.36 488  887 490.64  887 494  C 887 497.36  884.36 500  881 500  C 877.64 500  875 497.36  875 494  C 875 490.64  877.64 488  881 488  Z " fill-rule="nonzero" fill="#d9001b" stroke="none" />
      <path d="M 881 488.5  C 884.08 488.5  886.5 490.92  886.5 494  C 886.5 497.08  884.08 499.5  881 499.5  C 877.92 499.5  875.5 497.08  875.5 494  C 875.5 490.92  877.92 488.5  881 488.5  Z " stroke-width="1" stroke="#ffffff" fill="none" />
    </g>
  </defs>
  <g transform="matrix(1 0 0 1 -865 -478 )">
    <use xlink:href="#widget48" filter="url(#filter47)" />
    <use xlink:href="#widget48" />
  </g>
</svg>