<?xml version="1.0" encoding="utf-8"?>
<svg version="1.1" xmlns:xlink="http://www.w3.org/1999/xlink" width="32px" height="32px" xmlns="http://www.w3.org/2000/svg">
  <defs>
    <filter x="897px" y="531px" width="32px" height="32px" filterUnits="userSpaceOnUse" id="filter219">
      <feOffset dx="0" dy="0" in="SourceAlpha" result="shadowOffsetInner" />
      <feGaussianBlur stdDeviation="5" in="shadowOffsetInner" result="shadowGaussian" />
      <feComposite in2="shadowGaussian" operator="atop" in="SourceAlpha" result="shadowComposite" />
      <feColorMatrix type="matrix" values="0 0 0 0 0.850980392156863  0 0 0 0 0  0 0 0 0 0.105882352941176  0 0 0 0.980392156862745 0  " in="shadowComposite" />
    </filter>
    <g id="widget220">
      <path d="M 913 541  C 916.36 541  919 543.64  919 547  C 919 550.36  916.36 553  913 553  C 909.64 553  907 550.36  907 547  C 907 543.64  909.64 541  913 541  Z " fill-rule="nonzero" fill="#d9001b" stroke="none" />
      <path d="M 913 541.5  C 916.08 541.5  918.5 543.92  918.5 547  C 918.5 550.08  916.08 552.5  913 552.5  C 909.92 552.5  907.5 550.08  907.5 547  C 907.5 543.92  909.92 541.5  913 541.5  Z " stroke-width="1" stroke="#ffffff" fill="none" />
    </g>
  </defs>
  <g transform="matrix(1 0 0 1 -897 -531 )">
    <use xlink:href="#widget220" filter="url(#filter219)" />
    <use xlink:href="#widget220" />
  </g>
</svg>