<?xml version="1.0" encoding="utf-8"?>
<svg version="1.1" xmlns:xlink="http://www.w3.org/1999/xlink" width="22px" height="22px" xmlns="http://www.w3.org/2000/svg">
  <g transform="matrix(1 0 0 1 -228 -88 )">
    <path d="M 15.5833333333333 7.33333333333333  C 15.9652777777778 7.33333333333333  16.2374131944444 7.50043402777778  16.3997395833333 7.83463541666667  C 16.5716145833333 8.16883680555555  16.5477430555556 8.48394097222222  16.328125 8.77994791666667  L 11.7447916666667 15.1966145833333  C 11.5633680555556 15.4544270833333  11.3151041666667 15.5833333333333  11 15.5833333333333  C 10.6848958333333 15.5833333333333  10.4366319444444 15.4544270833333  10.2552083333333 15.1966145833333  L 5.671875 8.77994791666667  C 5.45225694444444 8.48394097222222  5.42838541666667 8.16883680555555  5.60026041666667 7.83463541666667  C 5.76258680555556 7.50043402777778  6.03472222222222 7.33333333333333  6.41666666666667 7.33333333333333  L 15.5833333333333 7.33333333333333  Z M 18.197265625 18.197265625  C 18.2879774305556 18.1065538194444  18.3333333333333 17.9991319444444  18 17.875  L 18 4.125  C 18.3333333333333 4.00086805555555  18.2879774305556 3.89344618055555  18.197265625 3.802734375  C 18.1065538194444 3.71202256944444  17.9991319444444 3.66666666666667  17.875 4  L 4.125 4  C 4.00086805555556 3.66666666666667  3.89344618055556 3.71202256944444  3.802734375 3.802734375  C 3.71202256944445 3.89344618055555  3.66666666666667 4.00086805555555  4 4.125  L 4 17.875  C 3.66666666666667 17.9991319444444  3.71202256944445 18.1065538194444  3.802734375 18.197265625  C 3.89344618055556 18.2879774305556  4.00086805555556 18.3333333333333  4.125 18  L 17.875 18  C 17.9991319444444 18.3333333333333  18.1065538194444 18.2879774305556  18.197265625 18.197265625  Z M 20.7897135416667 1.21028645833333  C 21.5965711805556 2.01714409722222  22 2.98871527777778  22 4.125  L 22 17.875  C 22 19.0112847222222  21.5965711805556 19.9828559027778  20.7897135416667 20.7897135416667  C 19.9828559027778 21.5965711805556  19.0112847222222 22  17.875 22  L 4.125 22  C 2.98871527777778 22  2.01714409722222 21.5965711805556  1.21028645833333 20.7897135416667  C 0.403428819444444 19.9828559027778  0 19.0112847222222  0 17.875  L 0 4.125  C 0 2.98871527777778  0.403428819444444 2.01714409722222  1.21028645833333 1.21028645833333  C 2.01714409722222 0.403428819444443  2.98871527777778 0  4.125 0  L 17.875 0  C 19.0112847222222 0  19.9828559027778 0.403428819444443  20.7897135416667 1.21028645833333  Z " fill-rule="nonzero" fill="#000000" stroke="none" transform="matrix(1 0 0 1 228 88 )" />
  </g>
</svg>