<?xml version="1.0" encoding="utf-8"?>
<svg version="1.1" xmlns:xlink="http://www.w3.org/1999/xlink" width="28px" height="17px" xmlns="http://www.w3.org/2000/svg">
  <g transform="matrix(1 0 0 1 -949 -203 )">
    <path d="M 0.697265625 11.800390625  C 0.232421875 10.751171875  0 9.65104166666667  0 8.5  C 0 7.34895833333333  0.232421875 6.248828125  0.697265625 5.199609375  C 1.162109375 4.150390625  1.7841796875 3.247265625  2.5634765625 2.490234375  C 3.3427734375 1.733203125  4.2724609375 1.12890625  5.3525390625 0.677343749999999  C 6.4326171875 0.22578125  7.56510416666667 0  8.75 0  L 19.25 0  C 20.4348958333333 0  21.5673828125 0.22578125  22.6474609375 0.677343749999999  C 23.7275390625 1.12890625  24.6572265625 1.733203125  25.4365234375 2.490234375  C 26.2158203125 3.247265625  26.837890625 4.150390625  27.302734375 5.199609375  C 27.767578125 6.248828125  28 7.34895833333333  28 8.5  C 28 9.65104166666667  27.767578125 10.751171875  27.302734375 11.800390625  C 26.837890625 12.849609375  26.2158203125 13.752734375  25.4365234375 14.509765625  C 24.6572265625 15.266796875  23.7275390625 15.87109375  22.6474609375 16.32265625  C 21.5673828125 16.77421875  20.4348958333333 17  19.25 17  L 8.75 17  C 7.56510416666667 17  6.4326171875 16.77421875  5.3525390625 16.32265625  C 4.2724609375 15.87109375  3.3427734375 15.266796875  2.5634765625 14.509765625  C 1.7841796875 13.752734375  1.162109375 12.849609375  0.697265625 11.800390625  Z M 16.5361328125 14.762109375  C 17.3974609375 15.120703125  18.3020833333333 15.3  19.25 15.3  C 20.1979166666667 15.3  21.1025390625 15.120703125  21.9638671875 14.762109375  C 22.8251953125 14.403515625  23.5703125 13.91875  24.19921875 13.3078125  C 24.828125 12.696875  25.3271484375 11.973046875  25.6962890625 11.136328125  C 26.0654296875 10.299609375  26.25 9.42083333333333  26.25 8.5  C 26.25 7.57916666666667  26.0654296875 6.700390625  25.6962890625 5.863671875  C 25.3271484375 5.026953125  24.828125 4.303125  24.19921875 3.6921875  C 23.5703125 3.08125  22.8251953125 2.596484375  21.9638671875 2.237890625  C 21.1025390625 1.879296875  20.1979166666667 1.7  19.25 1.7  C 18.3020833333333 1.7  17.3974609375 1.879296875  16.5361328125 2.237890625  C 15.6748046875 2.596484375  14.9296875 3.08125  14.30078125 3.6921875  C 13.671875 4.303125  13.1728515625 5.026953125  12.8037109375 5.863671875  C 12.4345703125 6.700390625  12.25 7.57916666666667  12.25 8.5  C 12.25 9.42083333333333  12.4345703125 10.299609375  12.8037109375 11.136328125  C 13.1728515625 11.973046875  13.671875 12.696875  14.30078125 13.3078125  C 14.9296875 13.91875  15.6748046875 14.403515625  16.5361328125 14.762109375  Z " fill-rule="nonzero" fill="#000000" stroke="none" transform="matrix(1 0 0 1 949 203 )" />
  </g>
</svg>