<?xml version="1.0" encoding="utf-8"?>
<svg version="1.1" xmlns:xlink="http://www.w3.org/1999/xlink" width="16px" height="17px" xmlns="http://www.w3.org/2000/svg">
  <g transform="matrix(1 0 0 1 -110 -274 )">
    <path d="M 7.02884615384615 1.58900669642857  C 6.79166666666667 1.33919270833333  6.5 1.21428571428571  6.15384615384615 1.21428571428571  C 5.81410256410256 1.21428571428571  5.52403846153846 1.33286830357143  5.28365384615385 1.57003348214286  C 5.04326923076923 1.80719866071429  4.92307692307692 2.09337797619047  4.92307692307692 2.42857142857143  L 4.92307692307692 7.28571428571429  L 4.92307692307692 10.9285714285714  L 3.47115384615385 9.01227678571429  C 3.20833333333333 8.67075892857143  2.86538461538462 8.5  2.44230769230769 8.5  C 2.10897435897436 8.5  1.82371794871795 8.62016369047619  1.58653846153846 8.86049107142857  C 1.34935897435897 9.10081845238095  1.23076923076923 9.38541666666667  1.23076923076923 9.71428571428571  C 1.23076923076923 9.98623511904762  1.31410256410256 10.229724702381  1.48076923076923 10.4447544642857  L 5.17307692307692 15.3018973214286  C 5.41666666666667 15.6244419642857  5.74358974358974 15.7857142857143  6.15384615384615 15.7857142857143  L 13.0576923076923 15.7857142857143  C 13.1987179487179 15.7857142857143  13.3253205128205 15.7430245535714  13.4375 15.6576450892857  C 13.5496794871795 15.572265625  13.6217948717949 15.4631696428571  13.6538461538462 15.3303571428571  L 14.5384615384615 11.8392857142857  C 14.6923076923077 11.2321428571429  14.7692307692308 10.6186755952381  14.7692307692308 9.99888392857143  L 14.7692307692308 7.94029017857143  C 14.7692307692308 7.68098958333333  14.6794871794872 7.45647321428571  14.5 7.26674107142857  C 14.3205128205128 7.07700892857143  14.1025641025641 6.98214285714286  13.8461538461538 6.98214285714286  C 13.5897435897436 6.98214285714286  13.3717948717949 7.07068452380952  13.1923076923077 7.24776785714286  C 13.0128205128205 7.42485119047619  12.9230769230769 7.63988095238095  12.9230769230769 7.89285714285714  L 12.6153846153846 7.89285714285714  L 12.6153846153846 7.31417410714286  C 12.6153846153846 7.01060267857143  12.5128205128205 6.75288318452381  12.3076923076923 6.541015625  C 12.1025641025641 6.32914806547619  11.8461538461538 6.22321428571429  11.5384615384615 6.22321428571429  C 11.2435897435897 6.22321428571429  10.9903846153846 6.32756696428571  10.7788461538462 6.53627232142857  C 10.5673076923077 6.74497767857143  10.4615384615385 6.99479166666667  10.4615384615385 7.28571428571429  L 10.4615384615385 7.89285714285714  L 10.1538461538462 7.89285714285714  L 10.1538461538462 7.0390625  C 10.1538461538462 6.69122023809524  10.0352564102564 6.39239211309524  9.79807692307692 6.142578125  C 9.56089743589744 5.89276413690476  9.26923076923077 5.76785714285714  8.92307692307692 5.76785714285714  C 8.58333333333333 5.76785714285714  8.29326923076923 5.88643973214286  8.05288461538461 6.12360491071429  C 7.8125 6.36077008928571  7.69230769230769 6.6469494047619  7.69230769230769 6.98214285714286  L 7.69230769230769 7.89285714285714  L 7.38461538461539 7.89285714285714  L 7.38461538461539 2.48549107142857  C 7.38461538461539 2.13764880952381  7.26602564102564 1.83882068452381  7.02884615384615 1.58900669642857  Z M 4.41346153846154 0.711495535714286  C 4.89423076923077 0.237165178571429  5.47435897435897 0  6.15384615384615 0  C 6.83974358974359 0  7.42147435897436 0.24507068452381  7.89903846153846 0.735212053571429  C 8.37660256410257 1.22535342261905  8.61538461538461 1.80877976190476  8.61538461538461 2.48549107142857  L 8.61538461538461 4.57254464285714  C 8.75641025641026 4.55989583333333  8.85897435897436 4.55357142857143  8.92307692307692 4.55357142857143  C 9.55769230769231 4.55357142857143  10.1121794871795 4.77176339285714  10.5865384615385 5.20814732142857  C 10.8878205128205 5.07533482142857  11.2051282051282 5.00892857142857  11.5384615384615 5.00892857142857  C 12.2628205128205 5.00892857142857  12.8525641025641 5.28404017857143  13.3076923076923 5.83426339285714  C 13.4807692307692 5.78999255952381  13.6602564102564 5.76785714285714  13.8461538461538 5.76785714285714  C 14.4487179487179 5.76785714285714  14.9583333333333 5.98130580357143  15.375 6.408203125  C 15.7916666666667 6.83510044642857  16 7.34579613095238  16 7.94029017857143  L 16 9.99888392857143  C 16 10.7325148809524  15.9102564102564 11.4440104166667  15.7307692307692 12.1333705357143  L 14.8461538461538 15.6244419642857  C 14.7435897435897 16.0292038690476  14.525641025641 16.3596540178571  14.1923076923077 16.6157924107143  C 13.8589743589744 16.8719308035714  13.4807692307692 17  13.0576923076923 17  L 6.15384615384615 17  C 5.76923076923077 17  5.40224358974359 16.9130394345238  5.05288461538461 16.7391183035714  C 4.70352564102564 16.565197172619  4.41346153846154 16.3296130952381  4.18269230769231 16.0323660714286  L 0.490384615384615 11.1752232142857  C 0.163461538461538 10.7451636904762  0 10.2581845238095  0 9.71428571428571  C 0 9.05022321428571  0.238782051282051 8.47944568452381  0.716346153846154 8.001953125  C 1.19391025641026 7.52446056547619  1.76923076923077 7.28571428571429  2.44230769230769 7.28571428571429  C 2.8974358974359 7.28571428571429  3.31410256410256 7.39639136904762  3.69230769230769 7.61774553571429  L 3.69230769230769 2.42857142857143  C 3.69230769230769 1.75818452380952  3.93269230769231 1.18582589285714  4.41346153846154 0.711495535714286  Z M 7.07692307692308 13.3571428571429  L 7.38461538461539 13.3571428571429  L 7.38461538461539 9.71428571428571  L 7.07692307692308 9.71428571428571  L 7.07692307692308 13.3571428571429  Z M 9.53846153846154 13.3571428571429  L 9.84615384615385 13.3571428571429  L 9.84615384615385 9.71428571428571  L 9.53846153846154 9.71428571428571  L 9.53846153846154 13.3571428571429  Z M 12 13.3571428571429  L 12.3076923076923 13.3571428571429  L 12.3076923076923 9.71428571428571  L 12 9.71428571428571  L 12 13.3571428571429  Z " fill-rule="nonzero" fill="#000000" stroke="none" transform="matrix(1 0 0 1 110 274 )" />
  </g>
</svg>