<?xml version="1.0" encoding="utf-8"?>
<svg version="1.1" xmlns:xlink="http://www.w3.org/1999/xlink" width="85px" height="103px" xmlns="http://www.w3.org/2000/svg">
  <defs>
    <mask fill="white" id="clip41">
      <path d="M 0 84.9130434782609  L 0 8.08695652173913  C 0 3.5582608695652  0.420382165605093 0  0.955414012738854 0  L 74.0445859872611 0  C 74.5796178343949 0  75 3.5582608695652  75 8.08695652173913  L 75 84.9130434782609  C 75 89.4417391304348  74.5796178343949 93  74.0445859872611 93  L 48.0312680949623 93  L 0.955414012738854 93  C 0.420382165605093 93  0 89.4417391304348  0 84.9130434782609  Z " fill-rule="evenodd" />
    </mask>
    <filter x="1540px" y="642px" width="85px" height="103px" filterUnits="userSpaceOnUse" id="filter42">
      <feOffset dx="3" dy="3" in="SourceAlpha" result="shadowOffsetInner" />
      <feGaussianBlur stdDeviation="2.5" in="shadowOffsetInner" result="shadowGaussian" />
      <feComposite in2="shadowGaussian" operator="atop" in="SourceAlpha" result="shadowComposite" />
      <feColorMatrix type="matrix" values="0 0 0 0 0  0 0 0 0 0  0 0 0 0 0  0 0 0 0.349019607843137 0  " in="shadowComposite" />
    </filter>
    <g id="widget43">
      <path d="M 0 84.9130434782609  L 0 8.08695652173913  C 0 3.5582608695652  0.420382165605093 0  0.955414012738854 0  L 74.0445859872611 0  C 74.5796178343949 0  75 3.5582608695652  75 8.08695652173913  L 75 84.9130434782609  C 75 89.4417391304348  74.5796178343949 93  74.0445859872611 93  L 48.0312680949623 93  L 0.955414012738854 93  C 0.420382165605093 93  0 89.4417391304348  0 84.9130434782609  Z " fill-rule="nonzero" fill="#ffffff" stroke="none" transform="matrix(1 0 0 1 1542 644 )" />
      <path d="M 0 84.9130434782609  L 0 8.08695652173913  C 0 3.5582608695652  0.420382165605093 0  0.955414012738854 0  L 74.0445859872611 0  C 74.5796178343949 0  75 3.5582608695652  75 8.08695652173913  L 75 84.9130434782609  C 75 89.4417391304348  74.5796178343949 93  74.0445859872611 93  L 48.0312680949623 93  L 0.955414012738854 93  C 0.420382165605093 93  0 89.4417391304348  0 84.9130434782609  Z " stroke-width="2" stroke="#adb0c1" fill="none" transform="matrix(1 0 0 1 1542 644 )" mask="url(#clip41)" />
    </g>
  </defs>
  <g transform="matrix(1 0 0 1 -1540 -642 )">
    <use xlink:href="#widget43" filter="url(#filter42)" />
    <use xlink:href="#widget43" />
  </g>
</svg>