<?xml version="1.0" encoding="utf-8"?>
<svg version="1.1" xmlns:xlink="http://www.w3.org/1999/xlink" width="6px" height="11px" xmlns="http://www.w3.org/2000/svg">
  <g transform="matrix(1 0 0 1 -1542 -633 )">
    <path d="M 0.566724436741768 0.116629464285715  L 5.89081455805893 6.40234375  C 5.99826689774697 6.52511160714286  6.02253032928943 6.66629464285714  5.96360485268631 6.82589285714286  C 5.90467937608319 6.98958333333333  5.80242634315425 7.07142857142857  5.65684575389948 7.07142857142857  L 3.67071057192374 7.07142857142857  L 4.7157712305026 9.99330357142857  C 4.75043327556326 10.0956101190476  4.75043327556326 10.1958705357143  4.7157712305026 10.2940848214286  C 4.68110918544194 10.3922991071429  4.62218370883882 10.4639136904762  4.53899480069324 10.5089285714286  L 3.61871750433276 10.9693080357143  C 3.53206239168111 11.0102306547619  3.4471403812825 11.0102306547619  3.36395147313692 10.9693080357143  C 3.28076256499133 10.9283854166667  3.22010398613518 10.8588169642857  3.18197573656846 10.7606026785714  L 2.18890814558059 7.98604910714286  L 0.566724436741768 9.90122767857143  C 0.500866551126517 9.97898065476191  0.422876949740035 10.0178571428571  0.332755632582322 10.0178571428571  C 0.291161178509532 10.0178571428571  0.249566724436742 10.0076264880952  0.207972270363951 9.98716517857143  C 0.0693240901213172 9.91759672619048  0 9.796875  0 9.625  L 0 0.392857142857143  C 0 0.220982142857143  0.0693240901213172 0.100260416666666  0.207972270363951 0.0306919642857146  C 0.249566724436742 0.0102306547619049  0.291161178509532 0  0.332755632582322 0  C 0.4263431542461 0  0.504332755632582 0.038876488095239  0.566724436741768 0.116629464285715  Z " fill-rule="nonzero" fill="#000000" stroke="none" transform="matrix(1 0 0 1 1542 633 )" />
  </g>
</svg>