<?xml version="1.0" encoding="utf-8"?>
<svg version="1.1" xmlns:xlink="http://www.w3.org/1999/xlink" width="12px" height="12px" viewBox="309 1418  12 12" xmlns="http://www.w3.org/2000/svg">
  <path d="M 315 1418  C 318.36 1418  321 1420.64  321 1424  C 321 1427.36  318.36 1430  315 1430  C 311.64 1430  309 1427.36  309 1424  C 309 1420.64  311.64 1418  315 1418  Z " fill-rule="nonzero" fill="#ffffff" stroke="none" />
  <path d="M 315 1418.5  C 318.08 1418.5  320.5 1420.92  320.5 1424  C 320.5 1427.08  318.08 1429.5  315 1429.5  C 311.92 1429.5  309.5 1427.08  309.5 1424  C 309.5 1420.92  311.92 1418.5  315 1418.5  Z " stroke-width="1" stroke="#797979" fill="none" />
  <path d="M 315 1427  C 313.32 1427  312 1425.68  312 1424  C 312 1422.32  313.32 1421  315 1421  C 316.68 1421  318 1422.32  318 1424  C 318 1425.68  316.68 1427  315 1427  " fill-rule="nonzero" fill="#797979" stroke="none" />
</svg>