<?xml version="1.0" encoding="utf-8"?>
<svg version="1.1" xmlns:xlink="http://www.w3.org/1999/xlink" width="12px" height="12px" viewBox="429 1418  12 12" xmlns="http://www.w3.org/2000/svg">
  <path d="M 435 1418  C 438.36 1418  441 1420.64  441 1424  C 441 1427.36  438.36 1430  435 1430  C 431.64 1430  429 1427.36  429 1424  C 429 1420.64  431.64 1418  435 1418  Z " fill-rule="nonzero" fill="#f0f0f0" stroke="none" />
  <path d="M 435 1418.5  C 438.08 1418.5  440.5 1420.92  440.5 1424  C 440.5 1427.08  438.08 1429.5  435 1429.5  C 431.92 1429.5  429.5 1427.08  429.5 1424  C 429.5 1420.92  431.92 1418.5  435 1418.5  Z " stroke-width="1" stroke="#797979" fill="none" />
  <path d="M 435 1427  C 433.32 1427  432 1425.68  432 1424  C 432 1422.32  433.32 1421  435 1421  C 436.68 1421  438 1422.32  438 1424  C 438 1425.68  436.68 1427  435 1427  " fill-rule="nonzero" fill="#797979" stroke="none" />
</svg>