<?xml version="1.0" encoding="utf-8"?>
<svg version="1.1" xmlns:xlink="http://www.w3.org/1999/xlink" width="12px" height="12px" viewBox="529 1418  12 12" xmlns="http://www.w3.org/2000/svg">
  <path d="M 535 1418  C 538.36 1418  541 1420.64  541 1424  C 541 1427.36  538.36 1430  535 1430  C 531.64 1430  529 1427.36  529 1424  C 529 1420.64  531.64 1418  535 1418  Z " fill-rule="nonzero" fill="#ffffff" stroke="none" />
  <path d="M 535 1418.5  C 538.08 1418.5  540.5 1420.92  540.5 1424  C 540.5 1427.08  538.08 1429.5  535 1429.5  C 531.92 1429.5  529.5 1427.08  529.5 1424  C 529.5 1420.92  531.92 1418.5  535 1418.5  Z " stroke-width="1" stroke="#797979" fill="none" />
  <path d="M 535 1427  C 533.32 1427  532 1425.68  532 1424  C 532 1422.32  533.32 1421  535 1421  C 536.68 1421  538 1422.32  538 1424  C 538 1425.68  536.68 1427  535 1427  " fill-rule="nonzero" fill="#797979" stroke="none" />
</svg>