<?xml version="1.0" encoding="utf-8"?>
<svg version="1.1" xmlns:xlink="http://www.w3.org/1999/xlink" width="15px" height="15px" xmlns="http://www.w3.org/2000/svg">
  <g transform="matrix(1 0 0 1 -918 -725 )">
    <path d="M 925.5 725  C 929.7 725  933 728.3  933 732.5  C 933 736.7  929.7 740  925.5 740  C 921.3 740  918 736.7  918 732.5  C 918 728.3  921.3 725  925.5 725  Z " fill-rule="nonzero" fill="#7f7f7f" stroke="none" />
    <path d="M 925.5 725.5  C 929.42 725.5  932.5 728.58  932.5 732.5  C 932.5 736.42  929.42 739.5  925.5 739.5  C 921.58 739.5  918.5 736.42  918.5 732.5  C 918.5 728.58  921.58 725.5  925.5 725.5  Z " stroke-width="1" stroke="#797979" fill="none" />
  </g>
</svg>