<?xml version="1.0" encoding="utf-8"?>
<svg version="1.1" xmlns:xlink="http://www.w3.org/1999/xlink" width="167px" height="105px" xmlns="http://www.w3.org/2000/svg">
  <defs>
    <mask fill="white" id="clip102">
      <path d="M 0 86.7391304347826  L 0 8.26086956521739  C 0 3.63478260869563  0.879999999999995 0  2 0  L 155 0  C 156.12 0  157 3.63478260869563  157 8.26086956521739  L 157 86.7391304347826  C 157 91.3652173913044  156.12 95  155 95  L 100.545454545455 95  L 2 95  C 0.879999999999995 95  0 91.3652173913044  0 86.7391304347826  Z " fill-rule="evenodd" />
    </mask>
    <filter x="395px" y="488px" width="167px" height="105px" filterUnits="userSpaceOnUse" id="filter103">
      <feOffset dx="3" dy="3" in="SourceAlpha" result="shadowOffsetInner" />
      <feGaussianBlur stdDeviation="2.5" in="shadowOffsetInner" result="shadowGaussian" />
      <feComposite in2="shadowGaussian" operator="atop" in="SourceAlpha" result="shadowComposite" />
      <feColorMatrix type="matrix" values="0 0 0 0 0  0 0 0 0 0  0 0 0 0 0  0 0 0 0.349019607843137 0  " in="shadowComposite" />
    </filter>
    <g id="widget104">
      <path d="M 0 86.7391304347826  L 0 8.26086956521739  C 0 3.63478260869563  0.879999999999995 0  2 0  L 155 0  C 156.12 0  157 3.63478260869563  157 8.26086956521739  L 157 86.7391304347826  C 157 91.3652173913044  156.12 95  155 95  L 100.545454545455 95  L 2 95  C 0.879999999999995 95  0 91.3652173913044  0 86.7391304347826  Z " fill-rule="nonzero" fill="#ffffff" stroke="none" transform="matrix(1 0 0 1 397 490 )" />
      <path d="M 0 86.7391304347826  L 0 8.26086956521739  C 0 3.63478260869563  0.879999999999995 0  2 0  L 155 0  C 156.12 0  157 3.63478260869563  157 8.26086956521739  L 157 86.7391304347826  C 157 91.3652173913044  156.12 95  155 95  L 100.545454545455 95  L 2 95  C 0.879999999999995 95  0 91.3652173913044  0 86.7391304347826  Z " stroke-width="2" stroke="#adb0c1" fill="none" transform="matrix(1 0 0 1 397 490 )" mask="url(#clip102)" />
    </g>
  </defs>
  <g transform="matrix(1 0 0 1 -395 -488 )">
    <use xlink:href="#widget104" filter="url(#filter103)" />
    <use xlink:href="#widget104" />
  </g>
</svg>