<?xml version="1.0" encoding="utf-8"?>
<svg version="1.1" xmlns:xlink="http://www.w3.org/1999/xlink" width="40px" height="40px" xmlns="http://www.w3.org/2000/svg">
  <defs>
    <filter x="145px" y="139px" width="40px" height="40px" filterUnits="userSpaceOnUse" id="filter149">
      <feOffset dx="1" dy="1" in="SourceAlpha" result="shadowOffsetInner" />
      <feGaussianBlur stdDeviation="2.5" in="shadowOffsetInner" result="shadowGaussian" />
      <feComposite in2="shadowGaussian" operator="atop" in="SourceAlpha" result="shadowComposite" />
      <feColorMatrix type="matrix" values="0 0 0 0 0  0 0 0 0 0  0 0 0 0 0  0 0 0 0.698039215686274 0  " in="shadowComposite" />
    </filter>
    <g id="widget150">
      <path d="M 164 143  C 172.4 143  179 149.6  179 158  C 179 166.4  172.4 173  164 173  C 155.6 173  149 166.4  149 158  C 149 149.6  155.6 143  164 143  Z " fill-rule="nonzero" fill="#009dd9" stroke="none" />
      <path d="M 164 143.5  C 172.12 143.5  178.5 149.88  178.5 158  C 178.5 166.12  172.12 172.5  164 172.5  C 155.88 172.5  149.5 166.12  149.5 158  C 149.5 149.88  155.88 143.5  164 143.5  Z " stroke-width="1" stroke="#ffffff" fill="none" />
    </g>
  </defs>
  <g transform="matrix(1 0 0 1 -145 -139 )">
    <use xlink:href="#widget150" filter="url(#filter149)" />
    <use xlink:href="#widget150" />
  </g>
</svg>