<?xml version="1.0" encoding="utf-8"?>
<svg version="1.1" xmlns:xlink="http://www.w3.org/1999/xlink" width="110px" height="14px" preserveAspectRatio="xMinYMid meet" viewBox="1018 2329  110 12" xmlns="http://www.w3.org/2000/svg">
  <g transform="matrix(-0.970295726275997 0.24192189559967 -0.241921895599667 -0.970295726275992 2679.01494051937 4341.05832687599 )">
    <path d="M 513 74  C 435.653350515464 48.3416693046323  422.905635648755 48.0683760683761  422.905635648755 48.0683760683761  C 422.905635648755 48.0683760683761  387.27129750983 48.7008547008547  372.479685452163 43.6410256410256  C 357.688073394495 38.5811965811966  339.286933699045 37.761316872428  324.743119266055 39.2136752136752  C 310.199304833065 40.6660335549224  304.347468619529 35.2392107206922  291.125819134993 28.4615384615385  C 277.904169650457 21.6838662023847  271.425041547878 25.0024269283529  259.525557011796 24.034188034188  C 247.626072475713 23.0659491400232  249.228092783505 10.0962329851219  229.395618556701 9.12799409095706  C 209.563144329897 8.15975519679222  205.253545081137 20.7468608209349  176.826998689384 22.1992191621821  C 148.400452297631 23.6515775034294  164.060222466931 12.9853329112588  125.056356487549 12.017094017094  C 86.0524905081677 11.0488551229292  97.4901703800787 -0.632478632478633  78.0077319587629 0.413844043473679  C 58.5252935374472 1.46016671942599  59.6698413073732 10.4163764904506  49.7536041939712 11.3846153846154  C 39.8373670805693 12.3528542787802  38.3237221494102 22.9722486018783  26.2214941022281 24.034188034188  C 14.1192660550457 25.0961274664977  0 21.2309802680173  0 21.2309802680173  " stroke-width="3" stroke="#0000bf" fill="none" transform="matrix(1 0 0 1 946 2323 )" />
  </g>
</svg>