<?xml version="1.0" encoding="utf-8"?>
<svg version="1.1" xmlns:xlink="http://www.w3.org/1999/xlink" width="98px" height="98px" xmlns="http://www.w3.org/2000/svg">
  <g transform="matrix(1 0 0 1 -806 -440 )">
    <path d="M 807 444  A 3 3 0 0 1 810 441 L 900 441  A 3 3 0 0 1 903 444 L 903 534  A 3 3 0 0 1 900 537 L 810 537  A 3 3 0 0 1 807 534 L 807 444  Z " fill-rule="nonzero" fill="#f2f2f2" stroke="none" />
    <path d="M 806.5 444  A 3.5 3.5 0 0 1 810 440.5 L 900 440.5  A 3.5 3.5 0 0 1 903.5 444 L 903.5 534  A 3.5 3.5 0 0 1 900 537.5 L 810 537.5  A 3.5 3.5 0 0 1 806.5 534 L 806.5 444  Z " stroke-width="1" stroke-dasharray="3,1" stroke="#d8d8d8" fill="none" stroke-dashoffset="0.5" />
  </g>
</svg>