<?xml version="1.0" encoding="utf-8"?>
<svg version="1.1" xmlns:xlink="http://www.w3.org/1999/xlink" width="98px" height="98px" xmlns="http://www.w3.org/2000/svg">
  <g transform="matrix(1 0 0 1 -806 -559 )">
    <path d="M 807 563  A 3 3 0 0 1 810 560 L 900 560  A 3 3 0 0 1 903 563 L 903 653  A 3 3 0 0 1 900 656 L 810 656  A 3 3 0 0 1 807 653 L 807 563  Z " fill-rule="nonzero" fill="#f2f2f2" stroke="none" />
    <path d="M 806.5 563  A 3.5 3.5 0 0 1 810 559.5 L 900 559.5  A 3.5 3.5 0 0 1 903.5 563 L 903.5 653  A 3.5 3.5 0 0 1 900 656.5 L 810 656.5  A 3.5 3.5 0 0 1 806.5 653 L 806.5 563  Z " stroke-width="1" stroke-dasharray="3,1" stroke="#d8d8d8" fill="none" stroke-dashoffset="0.5" />
  </g>
</svg>