<?xml version="1.0" encoding="utf-8"?>
<svg version="1.1" xmlns:xlink="http://www.w3.org/1999/xlink" width="16px" height="16px" xmlns="http://www.w3.org/2000/svg">
  <g transform="matrix(1 0 0 1 -439 -569 )">
    <path d="M 15.58703515625 3.15515234375  C 15.58703515625 3.29704296875  15.534212890625 3.439390625  15.425755859375 3.547794921875  L 7.72184375 11.251654296875  L 4.94590625 11.251654296875  L 4.94590625 8.475646484375  L 12.649818359375 0.771875  C 12.7581875 0.663505859375  12.90004296875 0.610595703125  13.04207421875 0.610595703125  C 13.18445703125 0.610595703125  13.326576171875 0.663505859375  13.4349453125 0.771875  L 15.425755859375 2.762544921875  C 15.534212890625 2.871001953125  15.58703515625 3.012857421875  15.58703515625 3.15515234375  Z M 13.96773828125 3.155134765625  L 13.04242578125 2.22983984375  L 6.333875 8.93828515625  L 6.333875 9.8637734375  L 7.2591875 9.8637734375  L 13.96773828125 3.155134765625  Z M 8.647208984375 2.22983984375  C 8.647208984375 2.612955078125  8.336515625 2.923912109375  7.953224609375 2.923912109375  L 2.169986328125 2.923912109375  L 2.169986328125 14  L 13.27375390625 14  L 13.27375390625 8.244318359375  C 13.27375390625 7.861291015625  13.584271484375 7.550421875  13.96773828125 7.550421875  C 14.351029296875 7.550421875  14.66172265625 7.861291015625  14.66172265625 8.244318359375  L 14.66172265625 14.490248046875  C 14.66172265625 15.00133203125  14.24740625 15.4156484375  13.73641015625 15.4156484375  L 1.707330078125 15.4156484375  C 1.196333984375 15.4156484375  0.782017578125 15.00133203125  1 14.490248046875  L 1 2.46116796875  C 0.782017578125 1.950171875  1.196333984375 1.53585546875  1.707330078125 1.53585546875  L 7.953224609375 1.53585546875  C 8.336515625 1.53585546875  8.647208984375 1.846724609375  8.647208984375 2.22983984375  Z " fill-rule="nonzero" fill="#000000" stroke="none" transform="matrix(1 0 0 1 439 569 )" />
  </g>
</svg>