<?xml version="1.0" encoding="utf-8"?>
<svg version="1.1" xmlns:xlink="http://www.w3.org/1999/xlink" width="12px" height="12px" xmlns="http://www.w3.org/2000/svg">
  <g transform="matrix(1 0 0 1 -1640 -516 )">
    <path d="M 1646 517  C 1648.8 517  1651 519.2  1651 522  C 1651 524.8  1648.8 527  1646 527  C 1643.2 527  1641 524.8  1641 522  C 1641 519.2  1643.2 517  1646 517  Z " fill-rule="nonzero" fill="#3399cc" stroke="none" />
    <path d="M 1646 517  C 1648.8 517  1651 519.2  1651 522  C 1651 524.8  1648.8 527  1646 527  C 1643.2 527  1641 524.8  1641 522  C 1641 519.2  1643.2 517  1646 517  Z " stroke-width="2" stroke="#ffffff" fill="none" />
  </g>
</svg>