<?xml version="1.0" encoding="utf-8"?>
<svg version="1.1" xmlns:xlink="http://www.w3.org/1999/xlink" width="803px" height="134px" xmlns="http://www.w3.org/2000/svg">
  <g transform="matrix(1 0 0 1 -1575 -427 )">
    <path d="M 0 77  L 35.6666666666667 86  L 69.6666666666667 94  L 105 88.0000000000001  L 139.666666666667 97.6666666666666  L 174 64  L 208 61.3333333333334  L 244 36.3333333333333  L 279 18.3333333333333  L 312.666666666667 0  L 348 1.33333333333333  L 382 12.6666666666667  L 417.333333333333 32.3333333333334  L 452 25.3333333333333  L 486.666666666667 33.6666666666667  L 520.666666666667 22.3333333333333  C 520.666666666667 22.3333333333333  555.427764368148 36.2731431150731  555.666666666667 36.3333333333333  C 556.635776687126 36.577495670872  591 51  591 51  L 626 39.3333333333333  L 660 33.6666666666667  L 694.333333333333 58.6666666666666  L 729.666666666667 65.6666666666666  L 764 100.666666666667  L 800 131  " stroke-width="2" stroke="#3399cc" fill="none" transform="matrix(1 0 0 1 1576 428 )" />
  </g>
</svg>