<?xml version="1.0" encoding="utf-8"?>
<svg version="1.1" xmlns:xlink="http://www.w3.org/1999/xlink" width="70px" height="61px" xmlns="http://www.w3.org/2000/svg">
  <defs>
    <mask fill="white" id="clip309">
      <path d="M 547 141  C 544.78 141  543 139.22  543 137  L 543 84  C 543 81.78  544.78 80  547 80  L 609 80  C 611.22 80  613 81.78  613 84  L 613 137  C 613 139.22  611.22 141  609 141  " fill-rule="evenodd" />
    </mask>
  </defs>
  <g transform="matrix(1 0 0 1 -543 -80 )">
    <path d="M 543 80  L 613 80  L 613 141  L 543 141  L 543 80  " fill-rule="nonzero" fill="#cccccc" stroke="none" mask="url(#clip309)" />
    <path d="M 547 84  L 609 84  L 609 137  L 547 137  L 547 84  " fill-rule="nonzero" fill="#ffffff" stroke="none" mask="url(#clip309)" />
    <path d="M 583.975 98.3  C 581.413 98.3  579.4 96.287  579.4 93.725  C 579.4 91.163  581.413 89.15  583.975 89.15  C 586.537 89.15  588.55 91.163  588.55 93.725  C 588.55 96.287  586.537 98.3  583.975 98.3  " fill-rule="nonzero" fill="#cccccc" stroke="none" mask="url(#clip309)" />
    <path d="M 549 136  L 549 108.5  L 563.75 96  L 584.4 109.857142857143  L 596.2 103.5  L 608 109.857142857143  L 608 136  L 549 136  " fill-rule="nonzero" fill="#169bd5" stroke="none" mask="url(#clip309)" />
  </g>
</svg>