<?xml version="1.0" encoding="utf-8"?>
<svg version="1.1" xmlns:xlink="http://www.w3.org/1999/xlink" width="375px" height="230px" xmlns="http://www.w3.org/2000/svg">
  <g transform="matrix(1 0 0 1 -885 -64 )">
    <path d="M 885 64  L 1260 64  L 1260 294  L 885 294  L 885 64  " fill-rule="nonzero" fill="#cccccc" stroke="none" />
    <path d="M 901 80  L 1244 80  L 1244 278  L 901 278  L 901 80  " fill-rule="nonzero" fill="#ffffff" stroke="none" />
    <path d="M 1097.25 133  C 1087.59 133  1080 125.41  1080 115.75  C 1080 106.09  1087.59 98.5  1097.25 98.5  C 1106.91 98.5  1114.5 106.09  1114.5 115.75  C 1114.5 125.41  1106.91 133  1097.25 133  " fill-rule="nonzero" fill="#cccccc" stroke="none" />
    <path d="M 907 272  L 907 169.7  L 989.75 123.2  L 1105.6 203.552  L 1171.8 151.1  L 1238 203.552  L 1238 272  L 907 272  " fill-rule="nonzero" fill="#169bd5" stroke="none" />
  </g>
</svg>