<?xml version="1.0" encoding="utf-8"?>
<svg version="1.1" xmlns:xlink="http://www.w3.org/1999/xlink" width="11px" height="15px" xmlns="http://www.w3.org/2000/svg">
  <g transform="matrix(1 0 0 1 -1383 -129 )">
    <path d="M 10.9447751486765 5.65581472944079  C 10.9447751486765 9.39090464391447  6.09827359560294 14.8767411123355  5.50334377061765 14.8767411123355  C 4.91728145522059 14.8767411123355  0.0619123927205881 9.39090464391447  0.0619123927205881 5.65581472944079  C 0.0619287781937067 2.60028029900767  2.49813578966317 0.123289067948281  5.50334377069853 0.123289067948281  C 8.50856333805118 0.123289067948281  10.9447751487574 2.60029868409691  10.9447751487574 5.65584489492197  Z M 8.52636120923529 5.96317893371711  C 8.52636120923529 4.26565325746362  7.17291020043872 2.88953680115132  5.50334377061765 2.88953680115132  C 3.83377734079657 2.88953680115132  2.480326332 4.26565325746362  2.480326332 5.96317893371711  C 2.480326332 7.66070460997059  3.83377734079657 9.03682106628289  5.50334377061765 9.03682106628289  C 7.17291020043872 9.03682106628289  8.52636120923529 7.66070460997059  8.52636120923529 5.96317893371711  Z M 7.31715422511765 5.9631789337171  C 7.31715422511765 6.98169433864258  6.50508362049876 7.80736421175987  5.50334376341912 7.80736421175987  C 4.50160390633947 7.80736421175987  3.68953330172059 6.98169433864258  3.68953330172059 5.9631789337171  C 3.68953330172059 4.94466352879162  4.50160390633947 4.11899365567434  5.50334376341912 4.11899365567434  C 6.50508362049876 4.11899365567434  7.31715422511765 4.94466352879162  7.31715422511765 5.9631789337171  Z " fill-rule="nonzero" fill="#000000" stroke="none" transform="matrix(1 0 0 1 1383 129 )" />
  </g>
</svg>