<?xml version="1.0" encoding="UTF-8"?>
<svg width="16px" height="16px" viewBox="0 0 16 16" version="1.1" xmlns="http://www.w3.org/2000/svg" xmlns:xlink="http://www.w3.org/1999/xlink">
    <title>下拉</title>
    <g id="下拉" stroke="none" stroke-width="1" fill="none" fill-rule="evenodd">
        <path d="M7.9991599,9.52790701 L11.6927808,5.23402167 C11.9470495,4.93843078 12.3927988,4.90493253 12.6883896,5.15920124 C12.7146246,5.18176864 12.7391647,5.20623446 12.7618115,5.23240083 C13.0693766,5.58776407 13.06996,6.11487898 12.7631823,6.47092216 L8.75703406,11.1204187 C8.3965307,11.5388153 7.76510747,11.5857471 7.3467108,11.2252438 C7.30912468,11.1928584 7.27400081,11.1577208 7.24163017,11.120122 L3.23665162,6.46830134 C2.93098598,6.11326779 2.93027497,5.58826099 3.23497784,5.23240083 C3.48627676,4.93891074 3.92791551,4.90470804 4.22140559,5.15600696 C4.24824623,5.17898907 4.27330711,5.20397166 4.2963731,5.23074025 L7.9991599,9.52790701 L7.9991599,9.52790701 Z" id="arrow" fill="#FFFFFF" transform="translate(8.000000, 8.500000) rotate(-360.000000) translate(-8.000000, -8.500000) "></path>
    </g>
</svg>