<?xml version="1.0" encoding="utf-8"?>
<svg version="1.1" xmlns:xlink="http://www.w3.org/1999/xlink" width="25px" height="16px" xmlns="http://www.w3.org/2000/svg">
  <g transform="matrix(1 0 0 1 -1053 -190 )">
    <path d="M 0.62255859375 11.10625  C 0.20751953125 10.11875  0 9.08333333333333  0 8  C 0 6.91666666666667  0.20751953125 5.88125  0.62255859375 4.89375  C 1.03759765625 3.90625  1.593017578125 3.05625  2.288818359375 2.34375  C 2.984619140625 1.63125  3.814697265625 1.0625  4.779052734375 0.637499999999999  C 5.743408203125 0.2125  6.75455729166667 0  7.8125 0  L 17.1875 0  C 18.2454427083333 0  19.256591796875 0.2125  20.220947265625 0.637499999999999  C 21.185302734375 1.0625  22.015380859375 1.63125  22.711181640625 2.34375  C 23.406982421875 3.05625  23.96240234375 3.90625  24.37744140625 4.89375  C 24.79248046875 5.88125  25 6.91666666666667  25 8  C 25 9.08333333333333  24.79248046875 10.11875  24.37744140625 11.10625  C 23.96240234375 12.09375  23.406982421875 12.94375  22.711181640625 13.65625  C 22.015380859375 14.36875  21.185302734375 14.9375  20.220947265625 15.3625  C 19.256591796875 15.7875  18.2454427083333 16  17.1875 16  L 7.8125 16  C 6.75455729166667 16  5.743408203125 15.7875  4.779052734375 15.3625  C 3.814697265625 14.9375  2.984619140625 14.36875  2.288818359375 13.65625  C 1.593017578125 12.94375  1.03759765625 12.09375  0.62255859375 11.10625  Z M 14.764404296875 13.89375  C 15.533447265625 14.23125  16.3411458333333 14.4  17.1875 14.4  C 18.0338541666667 14.4  18.841552734375 14.23125  19.610595703125 13.89375  C 20.379638671875 13.55625  21.044921875 13.1  21.6064453125 12.525  C 22.16796875 11.95  22.613525390625 11.26875  22.943115234375 10.48125  C 23.272705078125 9.69375  23.4375 8.86666666666667  23.4375 8  C 23.4375 7.13333333333333  23.272705078125 6.30625  22.943115234375 5.51875  C 22.613525390625 4.73125  22.16796875 4.05  21.6064453125 3.475  C 21.044921875 2.9  20.379638671875 2.44375  19.610595703125 2.10625  C 18.841552734375 1.76875  18.0338541666667 1.6  17.1875 1.6  C 16.3411458333333 1.6  15.533447265625 1.76875  14.764404296875 2.10625  C 13.995361328125 2.44375  13.330078125 2.9  12.7685546875 3.475  C 12.20703125 4.05  11.761474609375 4.73125  11.431884765625 5.51875  C 11.102294921875 6.30625  10.9375 7.13333333333333  10.9375 8  C 10.9375 8.86666666666667  11.102294921875 9.69375  11.431884765625 10.48125  C 11.761474609375 11.26875  12.20703125 11.95  12.7685546875 12.525  C 13.330078125 13.1  13.995361328125 13.55625  14.764404296875 13.89375  Z " fill-rule="nonzero" fill="#000000" stroke="none" transform="matrix(1 0 0 1 1053 190 )" />
  </g>
</svg>