<?xml version="1.0" encoding="utf-8"?>
<svg version="1.1" xmlns:xlink="http://www.w3.org/1999/xlink" width="12px" height="12px" viewBox="464 1042  12 12" xmlns="http://www.w3.org/2000/svg">
  <path d="M 470 1042  C 473.36 1042  476 1044.64  476 1048  C 476 1051.36  473.36 1054  470 1054  C 466.64 1054  464 1051.36  464 1048  C 464 1044.64  466.64 1042  470 1042  Z " fill-rule="nonzero" fill="#ffffff" stroke="none" />
  <path d="M 470 1042.5  C 473.08 1042.5  475.5 1044.92  475.5 1048  C 475.5 1051.08  473.08 1053.5  470 1053.5  C 466.92 1053.5  464.5 1051.08  464.5 1048  C 464.5 1044.92  466.92 1042.5  470 1042.5  Z " stroke-width="1" stroke="#797979" fill="none" />
  <path d="M 470 1051  C 468.32 1051  467 1049.68  467 1048  C 467 1046.32  468.32 1045  470 1045  C 471.68 1045  473 1046.32  473 1048  C 473 1049.68  471.68 1051  470 1051  " fill-rule="nonzero" fill="#797979" stroke="none" />
</svg>