<?xml version="1.0" encoding="utf-8"?>
<svg version="1.1" xmlns:xlink="http://www.w3.org/1999/xlink" width="7px" height="7px" xmlns="http://www.w3.org/2000/svg">
  <g transform="matrix(1 0 0 1 -550 -1127 )">
    <path d="M 553.5 1127  C 555.46 1127  557 1128.54  557 1130.5  C 557 1132.46  555.46 1134  553.5 1134  C 551.54 1134  550 1132.46  550 1130.5  C 550 1128.54  551.54 1127  553.5 1127  Z " fill-rule="nonzero" fill="#ffffff" stroke="none" />
    <path d="M 553.5 1127.5  C 555.18 1127.5  556.5 1128.82  556.5 1130.5  C 556.5 1132.18  555.18 1133.5  553.5 1133.5  C 551.82 1133.5  550.5 1132.18  550.5 1130.5  C 550.5 1128.82  551.82 1127.5  553.5 1127.5  Z " stroke-width="1" stroke="#d9001b" fill="none" />
  </g>
</svg>