<?xml version="1.0" encoding="utf-8"?>
<svg version="1.1" xmlns:xlink="http://www.w3.org/1999/xlink" width="7px" height="7px" xmlns="http://www.w3.org/2000/svg">
  <g transform="matrix(1 0 0 1 -550 -1614 )">
    <path d="M 553.5 1614  C 555.46 1614  557 1615.54  557 1617.5  C 557 1619.46  555.46 1621  553.5 1621  C 551.54 1621  550 1619.46  550 1617.5  C 550 1615.54  551.54 1614  553.5 1614  Z " fill-rule="nonzero" fill="#ffffff" stroke="none" />
    <path d="M 553.5 1614.5  C 555.18 1614.5  556.5 1615.82  556.5 1617.5  C 556.5 1619.18  555.18 1620.5  553.5 1620.5  C 551.82 1620.5  550.5 1619.18  550.5 1617.5  C 550.5 1615.82  551.82 1614.5  553.5 1614.5  Z " stroke-width="1" stroke="#d9001b" fill="none" />
  </g>
</svg>