<?xml version="1.0" encoding="utf-8"?>
<svg version="1.1" xmlns:xlink="http://www.w3.org/1999/xlink" width="170px" height="170px" xmlns="http://www.w3.org/2000/svg">
  <g transform="matrix(1 0 0 1 -384 -1534 )">
    <path d="M 469 1534  C 516.6 1534  554 1571.4  554 1619  C 554 1666.6  516.6 1704  469 1704  C 421.4 1704  384 1666.6  384 1619  C 384 1571.4  421.4 1534  469 1534  Z " fill-rule="nonzero" fill="#02a7f0" stroke="none" fill-opacity="0.4" />
    <path d="M 469 1534.5  C 516.32 1534.5  553.5 1571.68  553.5 1619  C 553.5 1666.32  516.32 1703.5  469 1703.5  C 421.68 1703.5  384.5 1666.32  384.5 1619  C 384.5 1571.68  421.68 1534.5  469 1534.5  Z " stroke-width="1" stroke="#02a7f0" fill="none" />
  </g>
</svg>