<?xml version="1.0" encoding="utf-8"?>
<svg version="1.1" xmlns:xlink="http://www.w3.org/1999/xlink" width="170px" height="170px" xmlns="http://www.w3.org/2000/svg">
  <g transform="matrix(1 0 0 1 -158 -1769 )">
    <path d="M 243 1769  C 290.6 1769  328 1806.4  328 1854  C 328 1901.6  290.6 1939  243 1939  C 195.4 1939  158 1901.6  158 1854  C 158 1806.4  195.4 1769  243 1769  Z " fill-rule="nonzero" fill="#02a7f0" stroke="none" fill-opacity="0.4" />
    <path d="M 243 1769.5  C 290.32 1769.5  327.5 1806.68  327.5 1854  C 327.5 1901.32  290.32 1938.5  243 1938.5  C 195.68 1938.5  158.5 1901.32  158.5 1854  C 158.5 1806.68  195.68 1769.5  243 1769.5  Z " stroke-width="1" stroke="#02a7f0" fill="none" />
  </g>
</svg>