<?xml version="1.0" encoding="utf-8"?>
<svg version="1.1" xmlns:xlink="http://www.w3.org/1999/xlink" width="18px" height="14px" xmlns="http://www.w3.org/2000/svg">
  <g transform="matrix(1 0 0 1 -313 -195 )">
    <path d="M 8.99701836401674 0.573221757322176  C 2.57024012133891 0.573221757322176  0 7  0 7  C 0 7  2.57024012133891 13.4267782426778  8.99701836401674 13.4267782426778  C 15.4237966066946 13.4267782426778  17.9940367280335 7  17.9940367280335 7  C 17.9940367280335 7  15.4214407531381 0.573221757322176  8.99701836401674 0.573221757322176  Z M 8.99701836401674 10.8541822552301  C 6.86732352301255 10.8541822552301  5.14048024267782 9.1273389748954  5.14048024267782 6.99764413389121  C 5.14048024267782 4.86794929288703  6.86732352301255 3.1411060125523  8.99701836401674 3.1411060125523  C 11.1267132050209 3.1411060125523  12.8535564853556 4.86794929288703  12.8535564853556 6.99764413389121  C 12.8512006317992 9.12969484100418  11.1243573514644 10.8541822552301  8.99701836401674 10.8541822552301  Z " fill-rule="nonzero" fill="#272636" stroke="none" transform="matrix(1 0 0 1 313 195 )" />
  </g>
</svg>