<?xml version="1.0" encoding="utf-8"?>
<svg version="1.1" xmlns:xlink="http://www.w3.org/1999/xlink" width="8px" height="8px" xmlns="http://www.w3.org/2000/svg">
  <g transform="matrix(1 0 0 1 -1068 -623 )">
    <path d="M 1072 623  C 1074.24 623  1076 624.76  1076 627  C 1076 629.24  1074.24 631  1072 631  C 1069.76 631  1068 629.24  1068 627  C 1068 624.76  1069.76 623  1072 623  Z " fill-rule="nonzero" fill="#0052d9" stroke="none" />
    <path d="M 1072 623.5  C 1073.96 623.5  1075.5 625.04  1075.5 627  C 1075.5 628.96  1073.96 630.5  1072 630.5  C 1070.04 630.5  1068.5 628.96  1068.5 627  C 1068.5 625.04  1070.04 623.5  1072 623.5  Z " stroke-width="1" stroke="#0052d9" fill="none" />
  </g>
</svg>