<?xml version="1.0" encoding="utf-8"?>
<svg version="1.1" xmlns:xlink="http://www.w3.org/1999/xlink" width="8px" height="8px" xmlns="http://www.w3.org/2000/svg">
  <g transform="matrix(1 0 0 1 -1068 -555 )">
    <path d="M 1072 556  C 1073.68 556  1075 557.32  1075 559  C 1075 560.68  1073.68 562  1072 562  C 1070.32 562  1069 560.68  1069 559  C 1069 557.32  1070.32 556  1072 556  Z " fill-rule="nonzero" fill="#ffffff" stroke="none" fill-opacity="0" />
    <path d="M 1072 556  C 1073.68 556  1075 557.32  1075 559  C 1075 560.68  1073.68 562  1072 562  C 1070.32 562  1069 560.68  1069 559  C 1069 557.32  1070.32 556  1072 556  Z " stroke-width="2" stroke="#0052d9" fill="none" />
  </g>
</svg>