<?xml version="1.0" encoding="utf-8"?>
<svg version="1.1" xmlns:xlink="http://www.w3.org/1999/xlink" width="170px" height="170px" xmlns="http://www.w3.org/2000/svg">
  <g transform="matrix(1 0 0 1 -384 -1047 )">
    <path d="M 469 1047  C 516.6 1047  554 1084.4  554 1132  C 554 1179.6  516.6 1217  469 1217  C 421.4 1217  384 1179.6  384 1132  C 384 1084.4  421.4 1047  469 1047  Z " fill-rule="nonzero" fill="#02a7f0" stroke="none" fill-opacity="0.4" />
    <path d="M 469 1047.5  C 516.32 1047.5  553.5 1084.68  553.5 1132  C 553.5 1179.32  516.32 1216.5  469 1216.5  C 421.68 1216.5  384.5 1179.32  384.5 1132  C 384.5 1084.68  421.68 1047.5  469 1047.5  Z " stroke-width="1" stroke="#02a7f0" fill="none" />
  </g>
</svg>