<?xml version="1.0" encoding="utf-8"?>
<svg version="1.1" xmlns:xlink="http://www.w3.org/1999/xlink" width="127px" height="29px" xmlns="http://www.w3.org/2000/svg">
  <defs>
    <mask fill="white" id="clip130">
      <path d="M 0 25  L 0 4  C 0 1.76000000000022  0.997857142857138 0  2.26785714285714 0  L 124.732142857143 0  C 126.002142857143 0  127 1.76000000000022  127 4  L 127 25  C 127 27.2399999999998  126.002142857143 29  124.732142857143 29  L 2.26785714285714 29  C 0.997857142857138 29  0 27.2399999999998  0 25  Z " fill-rule="evenodd" />
    </mask>
  </defs>
  <g transform="matrix(1 0 0 1 -1230 -4900 )">
    <path d="M 0 25  L 0 4  C 0 1.76000000000022  0.997857142857138 0  2.26785714285714 0  L 124.732142857143 0  C 126.002142857143 0  127 1.76000000000022  127 4  L 127 25  C 127 27.2399999999998  126.002142857143 29  124.732142857143 29  L 2.26785714285714 29  C 0.997857142857138 29  0 27.2399999999998  0 25  Z " fill-rule="nonzero" fill="#ffffff" stroke="none" transform="matrix(1 0 0 1 1230 4900 )" />
    <path d="M 0 25  L 0 4  C 0 1.76000000000022  0.997857142857138 0  2.26785714285714 0  L 124.732142857143 0  C 126.002142857143 0  127 1.76000000000022  127 4  L 127 25  C 127 27.2399999999998  126.002142857143 29  124.732142857143 29  L 2.26785714285714 29  C 0.997857142857138 29  0 27.2399999999998  0 25  Z " stroke-width="2" stroke="#797979" fill="none" transform="matrix(1 0 0 1 1230 4900 )" mask="url(#clip130)" />
  </g>
</svg>