<?xml version="1.0" encoding="utf-8"?>
<svg version="1.1" xmlns:xlink="http://www.w3.org/1999/xlink" width="224px" height="57px" xmlns="http://www.w3.org/2000/svg">
  <defs>
    <mask fill="white" id="clip161">
      <path d="M 0 49.1379310344828  L 0 7.86206896551724  C 0 3.45931034482802  1.75999999999999 0  4 0  L 220 0  C 222.24 0  224 3.45931034482802  224 7.86206896551724  L 224 49.1379310344828  C 224 53.540689655172  222.24 57  220 57  L 4 57  C 1.75999999999999 57  0 53.540689655172  0 49.1379310344828  Z " fill-rule="evenodd" />
    </mask>
  </defs>
  <g transform="matrix(1 0 0 1 -1254 -4776 )">
    <path d="M 0 49.1379310344828  L 0 7.86206896551724  C 0 3.45931034482802  1.75999999999999 0  4 0  L 220 0  C 222.24 0  224 3.45931034482802  224 7.86206896551724  L 224 49.1379310344828  C 224 53.540689655172  222.24 57  220 57  L 4 57  C 1.75999999999999 57  0 53.540689655172  0 49.1379310344828  Z " fill-rule="nonzero" fill="#ffffff" stroke="none" transform="matrix(1 0 0 1 1254 4776 )" />
    <path d="M 0 49.1379310344828  L 0 7.86206896551724  C 0 3.45931034482802  1.75999999999999 0  4 0  L 220 0  C 222.24 0  224 3.45931034482802  224 7.86206896551724  L 224 49.1379310344828  C 224 53.540689655172  222.24 57  220 57  L 4 57  C 1.75999999999999 57  0 53.540689655172  0 49.1379310344828  Z " stroke-width="2" stroke="#797979" fill="none" transform="matrix(1 0 0 1 1254 4776 )" mask="url(#clip161)" />
  </g>
</svg>