<?xml version="1.0" encoding="utf-8"?>
<svg version="1.1" xmlns:xlink="http://www.w3.org/1999/xlink" width="17px" height="27px" xmlns="http://www.w3.org/2000/svg">
  <g transform="matrix(1 0 0 1 -550 -5636 )">
    <path d="M 5.20217615453125 26.1886010361328  C 5.20217615453125 25.7754590595703  6.24514041859375 25.4440725292969  7.67554403863281 25.3488870351562  L 7.67554403863281 16.74609946875  C 3.50929326894531 16.3250113974609  0.255440412226562 12.7462383369141  0.255440412226562 8.39378238574219  C 0.255440412226562 3.75803626464844  3.94666714328125 0  8.5 0  C 13.0533328567187 0  16.7445595877734 3.75803626464844  16.7445595877734 8.39378238574219  C 16.7445595877734 12.7462383369141  13.4907067310547 16.324983421875  9.32445596136719 16.7461274707031  L 9.32445596136719 25.3467046757813  C 10.7385903124609 25.4389523378906  11.7978238454688 25.7722694472656  11.7978238454688 26.1886010361328  C 11.7978238454688 26.6242103613281  10.3213331530469 27  8.52748186796875 27  C 6.67866687285156 27  5.20217618042969 26.6242103613281  5.20217615453125 26.1886010361328  Z M 5.20217615453125 8.39378238574219  C 5.20217615453125 10.2480808447266  6.67866684695312 11.7512953505859  8.5 11.7512953242188  C 10.3213331271484 11.7512953242188  11.7978238454687 10.2480808183594  11.7978238454687 8.39378238574219  C 11.7978238454687 6.539483953125  10.3213331530469 5.03626942089844  8.5 5.03626942089844  C 6.67866684695312 5.03626942089844  5.20217615453125 6.53948392675781  5.20217615453125 8.39378238574219  Z " fill-rule="nonzero" fill="#d9001b" stroke="none" transform="matrix(1 0 0 1 550 5636 )" />
  </g>
</svg>