<?xml version="1.0" encoding="utf-8"?>
<svg version="1.1" xmlns:xlink="http://www.w3.org/1999/xlink" width="280px" height="280px" xmlns="http://www.w3.org/2000/svg">
  <g transform="matrix(1 0 0 1 -301 -6283 )">
    <path d="M 441 6283  C 519.4 6283  581 6344.6  581 6423  C 581 6501.4  519.4 6563  441 6563  C 362.6 6563  301 6501.4  301 6423  C 301 6344.6  362.6 6283  441 6283  Z " fill-rule="nonzero" fill="#02a7f0" stroke="none" fill-opacity="0.4" />
    <path d="M 441 6283.5  C 519.12 6283.5  580.5 6344.88  580.5 6423  C 580.5 6501.12  519.12 6562.5  441 6562.5  C 362.88 6562.5  301.5 6501.12  301.5 6423  C 301.5 6344.88  362.88 6283.5  441 6283.5  Z " stroke-width="1" stroke="#02a7f0" fill="none" />
  </g>
</svg>