<?xml version="1.0" encoding="utf-8"?>
<svg version="1.1" xmlns:xlink="http://www.w3.org/1999/xlink" width="16px" height="26px" xmlns="http://www.w3.org/2000/svg">
  <g transform="matrix(1 0 0 1 -431 -6396 )">
    <path d="M 4.8961657925 25.2186528496094  C 4.8961657925 24.8208124277344  5.8777792175 24.5016994726563  7.224041448125 24.4100393671875  L 7.224041448125 16.1258735625  C 3.302864253125 15.7203813457031  0.240414505625 12.2741554355469  0.240414505625 8.08290155664062  C 0.240414505625 3.61884973632813  3.7145102525 0  8 0  C 12.2854897475 0  15.759585494375 3.61884973632813  15.759585494375 8.08290155664062  C 15.759585494375 12.2741554355469  12.697135746875 15.72035440625  8.775958551875 16.1259005273437  L 8.775958551875 24.4079378359375  C 10.106908529375 24.4967689179687  11.1038342075 24.8177409492187  11.1038342075 25.2186528496094  C 11.1038342075 25.6381284960937  9.71419590875 26  8.0258652875 26  C 6.285804115625 26  4.896165816875 25.6381284960937  4.8961657925 25.2186528496094  Z M 4.8961657925 8.08290155664062  C 4.8961657925 9.86852229492188  6.28580409125 11.3160621894531  8 11.3160621640625  C 9.714195884375 11.3160621640625  11.1038342075 9.86852226953125  11.1038342075 8.08290155664062  C 11.1038342075 6.29728084375  9.71419590875 4.84974092382812  8 4.84974092382812  C 6.28580409125 4.84974092382812  4.8961657925 6.29728081835938  4.8961657925 8.08290155664062  Z " fill-rule="nonzero" fill="#d9001b" stroke="none" transform="matrix(1 0 0 1 431 6396 )" />
  </g>
</svg>