<?xml version="1.0" encoding="utf-8"?>
<svg version="1.1" xmlns:xlink="http://www.w3.org/1999/xlink" width="12px" height="12px" xmlns="http://www.w3.org/2000/svg">
  <g transform="matrix(1 0 0 1 -574 -6414 )">
    <path d="M 580 6414  C 583.36 6414  586 6416.64  586 6420  C 586 6423.36  583.36 6426  580 6426  C 576.64 6426  574 6423.36  574 6420  C 574 6416.64  576.64 6414  580 6414  Z " fill-rule="nonzero" fill="#ffffff" stroke="none" />
    <path d="M 580 6414.5  C 583.08 6414.5  585.5 6416.92  585.5 6420  C 585.5 6423.08  583.08 6425.5  580 6425.5  C 576.92 6425.5  574.5 6423.08  574.5 6420  C 574.5 6416.92  576.92 6414.5  580 6414.5  Z " stroke-width="1" stroke="#d9001b" fill="none" />
  </g>
</svg>