<?xml version="1.0" encoding="utf-8"?>
<svg version="1.1" xmlns:xlink="http://www.w3.org/1999/xlink" width="200px" height="36px" preserveAspectRatio="xMinYMid meet" viewBox="1136 497  200 34" xmlns="http://www.w3.org/2000/svg">
  <g transform="matrix(-0.390731128489272 0.92050485345244 -0.920504853452441 -0.390731128489274 2192.08316948729 -422.90819882373 )">
    <path d="M 0.22270270270269 282.2  L 36.7459459459459 291  L 75.0508108108108 288.6  L 107.12 295  L 142.752432432432 296.6  L 179.275675675676 287  L 216.68972972973 291  L 250.540540540541 260.6  L 287.063783783784 197.4  L 322.696216216216 63  L 358.328648648649 11.8  L 393.07027027027 24.6  L 428.702702702703 33.4  L 465.225945945946 29.4  L 499.967567567568 31.8  L 538.662162162162 23  L 574.016216216216 49.5  L 608.646486486487 20.6  L 645.281081081081 0  L 681.47027027027 9.25  L 717.102702702703 20.6  L 752.456756756757 81.75  L 788.645945945946 223.5  L 824 250.75  " stroke-width="1" stroke-dasharray="3,1" stroke="#6a708c" fill="none" transform="matrix(1 0 0 1 458 343 )" />
  </g>
</svg>