<?xml version="1.0" encoding="utf-8"?>
<svg version="1.1" xmlns:xlink="http://www.w3.org/1999/xlink" width="12px" height="12px" viewBox="1152 268.5  12 12" xmlns="http://www.w3.org/2000/svg">
  <path d="M 1158 268.5  C 1161.36 268.5  1164 271.14  1164 274.5  C 1164 277.86  1161.36 280.5  1158 280.5  C 1154.64 280.5  1152 277.86  1152 274.5  C 1152 271.14  1154.64 268.5  1158 268.5  Z " fill-rule="nonzero" fill="#f0f0f0" stroke="none" />
  <path d="M 1158 269  C 1161.08 269  1163.5 271.42  1163.5 274.5  C 1163.5 277.58  1161.08 280  1158 280  C 1154.92 280  1152.5 277.58  1152.5 274.5  C 1152.5 271.42  1154.92 269  1158 269  Z " stroke-width="1" stroke="#797979" fill="none" />
  <path d="M 1158 277.5  C 1156.32 277.5  1155 276.18  1155 274.5  C 1155 272.82  1156.32 271.5  1158 271.5  C 1159.68 271.5  1161 272.82  1161 274.5  C 1161 276.18  1159.68 277.5  1158 277.5  " fill-rule="nonzero" fill="#797979" stroke="none" />
</svg>