<?xml version="1.0" encoding="utf-8"?>
<svg version="1.1" xmlns:xlink="http://www.w3.org/1999/xlink" width="12px" height="12px" viewBox="1246 268.5  12 12" xmlns="http://www.w3.org/2000/svg">
  <path d="M 1252 268.5  C 1255.36 268.5  1258 271.14  1258 274.5  C 1258 277.86  1255.36 280.5  1252 280.5  C 1248.64 280.5  1246 277.86  1246 274.5  C 1246 271.14  1248.64 268.5  1252 268.5  Z " fill-rule="nonzero" fill="#f0f0f0" stroke="none" />
  <path d="M 1252 269  C 1255.08 269  1257.5 271.42  1257.5 274.5  C 1257.5 277.58  1255.08 280  1252 280  C 1248.92 280  1246.5 277.58  1246.5 274.5  C 1246.5 271.42  1248.92 269  1252 269  Z " stroke-width="1" stroke="#797979" fill="none" />
  <path d="M 1252 277.5  C 1250.32 277.5  1249 276.18  1249 274.5  C 1249 272.82  1250.32 271.5  1252 271.5  C 1253.68 271.5  1255 272.82  1255 274.5  C 1255 276.18  1253.68 277.5  1252 277.5  " fill-rule="nonzero" fill="#797979" stroke="none" />
</svg>