<?xml version="1.0" encoding="UTF-8"?>
<svg width="12px" height="12px" viewBox="0 0 12 12" version="1.1" xmlns="http://www.w3.org/2000/svg" xmlns:xlink="http://www.w3.org/1999/xlink">
    <title>1.通用/2.Icon图标/Line/Save</title>
    <g id="页面-1" stroke="none" stroke-width="1" fill="none" fill-rule="evenodd">
        <g id="硬件管理-设备管理-设置雷达-子设备" transform="translate(-22.000000, -86.000000)" fill="#3388FF" fill-rule="nonzero">
            <g id="通用/按钮/icon/32px/圆次要" transform="translate(16.000000, 80.000000)">
                <g id="arrowleft" transform="translate(4.000000, 4.000000)">
                    <rect id="矩形" opacity="0" x="0" y="0" width="16" height="16"></rect>
                    <path d="M13.625,7.40625 L4.4828125,7.40625 L9.9546875,2.65625 C10.0421875,2.5796875 9.9890625,2.4375 9.8734375,2.4375 L8.490625,2.4375 C8.4296875,2.4375 8.371875,2.459375 8.3265625,2.4984375 L2.421875,7.621875 C2.1921875,7.821875 2.1921875,8.178125 2.421875,8.3765625 L8.3609375,13.53125 C8.384375,13.5515625 8.4125,13.5625 8.4421875,13.5625 L9.871875,13.5625 C9.9875,13.5625 10.040625,13.41875 9.953125,13.34375 L4.4828125,8.59375 L13.625,8.59375 C13.69375,8.59375 13.75,8.5375 13.75,8.46875 L13.75,7.53125 C13.75,7.4625 13.69375,7.40625 13.625,7.40625 Z" id="路径"></path>
                </g>
            </g>
        </g>
    </g>
</svg>