<?xml version="1.0" encoding="UTF-8"?>
<svg width="120px" height="120px" viewBox="0 0 120 120" version="1.1" xmlns="http://www.w3.org/2000/svg" xmlns:xlink="http://www.w3.org/1999/xlink">
    <title>icon/1.一级导航/下属机构管理</title>
    <g id="icon/1.一级导航/下属机构管理" stroke="none" stroke-width="1" fill="none" fill-rule="evenodd">
        <g id="编组" transform="translate(20.500000, 19.500000)" fill="#5A6172">
            <path d="M16.5,0 C21.1944204,0 25,3.80557963 25,8.5 L25,14.5 C25,19.1944204 21.1944204,23 16.5,23 L15.999,23 L15.999,37.5 L41,37.5 C41,32.8055796 44.8055796,29 49.5,29 L69.5,29 C74.1944204,29 78,32.8055796 78,37.5 L78,43.5 C78,48.1944204 74.1944204,52 69.5,52 L49.5,52 C45.1439193,52 41.5531741,48.7232094 41.058212,44.5000759 L15.999,44.5 L16,66.5 L41,66.5 C41,61.8055796 44.8055796,58 49.5,58 L69.5,58 C74.1944204,58 78,61.8055796 78,66.5 L78,72.5 C78,77.1944204 74.1944204,81 69.5,81 L49.5,81 C45.1439193,81 41.5531741,77.7232094 41.058212,73.5000759 L12.5,73.5 C10.5670034,73.5 9,71.9329966 9,70 L8.999,23 L8.5,23 C3.89093272,23 0.138678545,19.331547 0.00375659744,14.7551603 L0,14.5 L0,8.5 C0,3.80557963 3.80557963,0 8.5,0 L16.5,0 Z M69.5,65 L49.5,65 C48.6715729,65 48,65.6715729 48,66.5 L48,72.5 C48,73.3284271 48.6715729,74 49.5,74 L69.5,74 C70.3284271,74 71,73.3284271 71,72.5 L71,66.5 C71,65.6715729 70.3284271,65 69.5,65 Z M69.5,36 L49.5,36 C48.6715729,36 48,36.6715729 48,37.5 L48,43.5 C48,44.3284271 48.6715729,45 49.5,45 L69.5,45 C70.3284271,45 71,44.3284271 71,43.5 L71,37.5 C71,36.6715729 70.3284271,36 69.5,36 Z M69.5,0 C74.1944204,0 78,3.80557963 78,8.5 L78,14.5 C78,19.1944204 74.1944204,23 69.5,23 L37.5,23 C32.8055796,23 29,19.1944204 29,14.5 L29,8.5 C29,3.80557963 32.8055796,0 37.5,0 L69.5,0 Z M69.5,7 L37.5,7 C36.6715729,7 36,7.67157288 36,8.5 L36,14.5 C36,15.3284271 36.6715729,16 37.5,16 L69.5,16 C70.3284271,16 71,15.3284271 71,14.5 L71,8.5 C71,7.67157288 70.3284271,7 69.5,7 Z M16.5,7 L8.5,7 C7.67157288,7 7,7.67157288 7,8.5 L7,14.5 C7,15.3284271 7.67157288,16 8.5,16 L16.5,16 C17.3284271,16 18,15.3284271 18,14.5 L18,8.5 C18,7.67157288 17.3284271,7 16.5,7 Z" id="形状结合"></path>
        </g>
    </g>
</svg>