<?xml version="1.0" encoding="utf-8"?>
<svg version="1.1" xmlns:xlink="http://www.w3.org/1999/xlink" width="12px" height="12px" viewBox="1711 1329  12 12" xmlns="http://www.w3.org/2000/svg">
  <path d="M 1717 1329  C 1720.36 1329  1723 1331.64  1723 1335  C 1723 1338.36  1720.36 1341  1717 1341  C 1713.64 1341  1711 1338.36  1711 1335  C 1711 1331.64  1713.64 1329  1717 1329  Z " fill-rule="nonzero" fill="#ffffff" stroke="none" />
  <path d="M 1717 1329.5  C 1720.08 1329.5  1722.5 1331.92  1722.5 1335  C 1722.5 1338.08  1720.08 1340.5  1717 1340.5  C 1713.92 1340.5  1711.5 1338.08  1711.5 1335  C 1711.5 1331.92  1713.92 1329.5  1717 1329.5  Z " stroke-width="1" stroke="#797979" fill="none" />
  <path d="M 1717 1338  C 1715.32 1338  1714 1336.68  1714 1335  C 1714 1333.32  1715.32 1332  1717 1332  C 1718.68 1332  1720 1333.32  1720 1335  C 1720 1336.68  1718.68 1338  1717 1338  " fill-rule="nonzero" fill="#797979" stroke="none" />
</svg>