<?xml version="1.0" encoding="utf-8"?>
<svg version="1.1" xmlns:xlink="http://www.w3.org/1999/xlink" width="12px" height="12px" viewBox="1616 1329  12 12" xmlns="http://www.w3.org/2000/svg">
  <path d="M 1622 1329  C 1625.36 1329  1628 1331.64  1628 1335  C 1628 1338.36  1625.36 1341  1622 1341  C 1618.64 1341  1616 1338.36  1616 1335  C 1616 1331.64  1618.64 1329  1622 1329  Z " fill-rule="nonzero" fill="#ffffff" stroke="none" />
  <path d="M 1622 1329.5  C 1625.08 1329.5  1627.5 1331.92  1627.5 1335  C 1627.5 1338.08  1625.08 1340.5  1622 1340.5  C 1618.92 1340.5  1616.5 1338.08  1616.5 1335  C 1616.5 1331.92  1618.92 1329.5  1622 1329.5  Z " stroke-width="1" stroke="#797979" fill="none" />
  <path d="M 1622 1338  C 1620.32 1338  1619 1336.68  1619 1335  C 1619 1333.32  1620.32 1332  1622 1332  C 1623.68 1332  1625 1333.32  1625 1335  C 1625 1336.68  1623.68 1338  1622 1338  " fill-rule="nonzero" fill="#797979" stroke="none" />
</svg>