<?xml version="1.0" encoding="utf-8"?>
<svg version="1.1" xmlns:xlink="http://www.w3.org/1999/xlink" width="12px" height="12px" viewBox="3200 1878  12 12" xmlns="http://www.w3.org/2000/svg">
  <path d="M 3206 1878  C 3209.36 1878  3212 1880.64  3212 1884  C 3212 1887.36  3209.36 1890  3206 1890  C 3202.64 1890  3200 1887.36  3200 1884  C 3200 1880.64  3202.64 1878  3206 1878  Z " fill-rule="nonzero" fill="#ffffff" stroke="none" />
  <path d="M 3206 1878.5  C 3209.08 1878.5  3211.5 1880.92  3211.5 1884  C 3211.5 1887.08  3209.08 1889.5  3206 1889.5  C 3202.92 1889.5  3200.5 1887.08  3200.5 1884  C 3200.5 1880.92  3202.92 1878.5  3206 1878.5  Z " stroke-width="1" stroke="#797979" fill="none" />
  <path d="M 3206 1887  C 3204.32 1887  3203 1885.68  3203 1884  C 3203 1882.32  3204.32 1881  3206 1881  C 3207.68 1881  3209 1882.32  3209 1884  C 3209 1885.68  3207.68 1887  3206 1887  " fill-rule="nonzero" fill="#797979" stroke="none" />
</svg>