<?xml version="1.0" encoding="utf-8"?>
<svg version="1.1" xmlns:xlink="http://www.w3.org/1999/xlink" width="12px" height="12px" viewBox="3042 1790  12 12" xmlns="http://www.w3.org/2000/svg">
  <path d="M 3048 1790  C 3051.36 1790  3054 1792.64  3054 1796  C 3054 1799.36  3051.36 1802  3048 1802  C 3044.64 1802  3042 1799.36  3042 1796  C 3042 1792.64  3044.64 1790  3048 1790  Z " fill-rule="nonzero" fill="#f0f0f0" stroke="none" />
  <path d="M 3048 1790.5  C 3051.08 1790.5  3053.5 1792.92  3053.5 1796  C 3053.5 1799.08  3051.08 1801.5  3048 1801.5  C 3044.92 1801.5  3042.5 1799.08  3042.5 1796  C 3042.5 1792.92  3044.92 1790.5  3048 1790.5  Z " stroke-width="1" stroke="#797979" fill="none" />
  <path d="M 3048 1799  C 3046.32 1799  3045 1797.68  3045 1796  C 3045 1794.32  3046.32 1793  3048 1793  C 3049.68 1793  3051 1794.32  3051 1796  C 3051 1797.68  3049.68 1799  3048 1799  " fill-rule="nonzero" fill="#797979" stroke="none" />
</svg>