<?xml version="1.0" encoding="utf-8"?>
<svg version="1.1" xmlns:xlink="http://www.w3.org/1999/xlink" width="12px" height="12px" viewBox="3042 1924  12 12" xmlns="http://www.w3.org/2000/svg">
  <path d="M 3048 1924  C 3051.36 1924  3054 1926.64  3054 1930  C 3054 1933.36  3051.36 1936  3048 1936  C 3044.64 1936  3042 1933.36  3042 1930  C 3042 1926.64  3044.64 1924  3048 1924  Z " fill-rule="nonzero" fill="#ffffff" stroke="none" />
  <path d="M 3048 1924.5  C 3051.08 1924.5  3053.5 1926.92  3053.5 1930  C 3053.5 1933.08  3051.08 1935.5  3048 1935.5  C 3044.92 1935.5  3042.5 1933.08  3042.5 1930  C 3042.5 1926.92  3044.92 1924.5  3048 1924.5  Z " stroke-width="1" stroke="#797979" fill="none" />
  <path d="M 3048 1933  C 3046.32 1933  3045 1931.68  3045 1930  C 3045 1928.32  3046.32 1927  3048 1927  C 3049.68 1927  3051 1928.32  3051 1930  C 3051 1931.68  3049.68 1933  3048 1933  " fill-rule="nonzero" fill="#797979" stroke="none" />
</svg>