<?xml version="1.0" encoding="utf-8"?>
<svg version="1.1" xmlns:xlink="http://www.w3.org/1999/xlink" width="26px" height="26px" xmlns="http://www.w3.org/2000/svg">
  <defs>
    <filter x="1381px" y="84px" width="26px" height="26px" filterUnits="userSpaceOnUse" id="filter128">
      <feOffset dx="1" dy="1" in="SourceAlpha" result="shadowOffsetInner" />
      <feGaussianBlur stdDeviation="2.5" in="shadowOffsetInner" result="shadowGaussian" />
      <feComposite in2="shadowGaussian" operator="atop" in="SourceAlpha" result="shadowComposite" />
      <feColorMatrix type="matrix" values="0 0 0 0 0  0 0 0 0 0  0 0 0 0 0  0 0 0 0.698039215686274 0  " in="shadowComposite" />
    </filter>
    <g id="widget129">
      <path d="M 1393 88  C 1397.48 88  1401 91.52  1401 96  C 1401 100.48  1397.48 104  1393 104  C 1388.52 104  1385 100.48  1385 96  C 1385 91.52  1388.52 88  1393 88  Z " fill-rule="nonzero" fill="#009dd9" stroke="none" />
      <path d="M 1393 88.5  C 1397.2 88.5  1400.5 91.8  1400.5 96  C 1400.5 100.2  1397.2 103.5  1393 103.5  C 1388.8 103.5  1385.5 100.2  1385.5 96  C 1385.5 91.8  1388.8 88.5  1393 88.5  Z " stroke-width="1" stroke="#ffffff" fill="none" />
    </g>
  </defs>
  <g transform="matrix(1 0 0 1 -1381 -84 )">
    <use xlink:href="#widget129" filter="url(#filter128)" />
    <use xlink:href="#widget129" />
  </g>
</svg>