<?xml version="1.0" encoding="utf-8"?>
<svg version="1.1" xmlns:xlink="http://www.w3.org/1999/xlink" width="26px" height="26px" xmlns="http://www.w3.org/2000/svg">
  <defs>
    <filter x="1396px" y="920px" width="26px" height="26px" filterUnits="userSpaceOnUse" id="filter173">
      <feOffset dx="1" dy="1" in="SourceAlpha" result="shadowOffsetInner" />
      <feGaussianBlur stdDeviation="2.5" in="shadowOffsetInner" result="shadowGaussian" />
      <feComposite in2="shadowGaussian" operator="atop" in="SourceAlpha" result="shadowComposite" />
      <feColorMatrix type="matrix" values="0 0 0 0 0  0 0 0 0 0  0 0 0 0 0  0 0 0 0.698039215686274 0  " in="shadowComposite" />
    </filter>
    <g id="widget174">
      <path d="M 1408 924  C 1412.48 924  1416 927.52  1416 932  C 1416 936.48  1412.48 940  1408 940  C 1403.52 940  1400 936.48  1400 932  C 1400 927.52  1403.52 924  1408 924  Z " fill-rule="nonzero" fill="#009dd9" stroke="none" />
      <path d="M 1408 924.5  C 1412.2 924.5  1415.5 927.8  1415.5 932  C 1415.5 936.2  1412.2 939.5  1408 939.5  C 1403.8 939.5  1400.5 936.2  1400.5 932  C 1400.5 927.8  1403.8 924.5  1408 924.5  Z " stroke-width="1" stroke="#ffffff" fill="none" />
    </g>
  </defs>
  <g transform="matrix(1 0 0 1 -1396 -920 )">
    <use xlink:href="#widget174" filter="url(#filter173)" />
    <use xlink:href="#widget174" />
  </g>
</svg>