<?xml version="1.0" encoding="utf-8"?>
<svg version="1.1" xmlns:xlink="http://www.w3.org/1999/xlink" width="12px" height="12px" viewBox="1657 769  12 12" xmlns="http://www.w3.org/2000/svg">
  <path d="M 1663 769  C 1666.36 769  1669 771.64  1669 775  C 1669 778.36  1666.36 781  1663 781  C 1659.64 781  1657 778.36  1657 775  C 1657 771.64  1659.64 769  1663 769  Z " fill-rule="nonzero" fill="#f0f0f0" stroke="none" />
  <path d="M 1663 769.5  C 1666.08 769.5  1668.5 771.92  1668.5 775  C 1668.5 778.08  1666.08 780.5  1663 780.5  C 1659.92 780.5  1657.5 778.08  1657.5 775  C 1657.5 771.92  1659.92 769.5  1663 769.5  Z " stroke-width="1" stroke="#797979" fill="none" />
  <path d="M 1663 778  C 1661.32 778  1660 776.68  1660 775  C 1660 773.32  1661.32 772  1663 772  C 1664.68 772  1666 773.32  1666 775  C 1666 776.68  1664.68 778  1663 778  " fill-rule="nonzero" fill="#797979" stroke="none" />
</svg>