<?xml version="1.0" encoding="utf-8"?>
<svg version="1.1" xmlns:xlink="http://www.w3.org/1999/xlink" width="12px" height="12px" viewBox="2318 769  12 12" xmlns="http://www.w3.org/2000/svg">
  <path d="M 2324 769  C 2327.36 769  2330 771.64  2330 775  C 2330 778.36  2327.36 781  2324 781  C 2320.64 781  2318 778.36  2318 775  C 2318 771.64  2320.64 769  2324 769  Z " fill-rule="nonzero" fill="#ffffff" stroke="none" />
  <path d="M 2324 769.5  C 2327.08 769.5  2329.5 771.92  2329.5 775  C 2329.5 778.08  2327.08 780.5  2324 780.5  C 2320.92 780.5  2318.5 778.08  2318.5 775  C 2318.5 771.92  2320.92 769.5  2324 769.5  Z " stroke-width="1" stroke="#797979" fill="none" />
  <path d="M 2324 778  C 2322.32 778  2321 776.68  2321 775  C 2321 773.32  2322.32 772  2324 772  C 2325.68 772  2327 773.32  2327 775  C 2327 776.68  2325.68 778  2324 778  " fill-rule="nonzero" fill="#797979" stroke="none" />
</svg>