<?xml version="1.0" encoding="utf-8"?>
<svg version="1.1" xmlns:xlink="http://www.w3.org/1999/xlink" width="12px" height="12px" viewBox="2445 769  12 12" xmlns="http://www.w3.org/2000/svg">
  <path d="M 2451 769  C 2454.36 769  2457 771.64  2457 775  C 2457 778.36  2454.36 781  2451 781  C 2447.64 781  2445 778.36  2445 775  C 2445 771.64  2447.64 769  2451 769  Z " fill-rule="nonzero" fill="#f0f0f0" stroke="none" />
  <path d="M 2451 769.5  C 2454.08 769.5  2456.5 771.92  2456.5 775  C 2456.5 778.08  2454.08 780.5  2451 780.5  C 2447.92 780.5  2445.5 778.08  2445.5 775  C 2445.5 771.92  2447.92 769.5  2451 769.5  Z " stroke-width="1" stroke="#797979" fill="none" />
  <path d="M 2451 778  C 2449.32 778  2448 776.68  2448 775  C 2448 773.32  2449.32 772  2451 772  C 2452.68 772  2454 773.32  2454 775  C 2454 776.68  2452.68 778  2451 778  " fill-rule="nonzero" fill="#797979" stroke="none" />
</svg>