<?xml version="1.0" encoding="utf-8"?>
<svg version="1.1" xmlns:xlink="http://www.w3.org/1999/xlink" width="12px" height="12px" viewBox="3195 890  12 12" xmlns="http://www.w3.org/2000/svg">
  <path d="M 3201 890  C 3204.36 890  3207 892.64  3207 896  C 3207 899.36  3204.36 902  3201 902  C 3197.64 902  3195 899.36  3195 896  C 3195 892.64  3197.64 890  3201 890  Z " fill-rule="nonzero" fill="#ffffff" stroke="none" />
  <path d="M 3201 890.5  C 3204.08 890.5  3206.5 892.92  3206.5 896  C 3206.5 899.08  3204.08 901.5  3201 901.5  C 3197.92 901.5  3195.5 899.08  3195.5 896  C 3195.5 892.92  3197.92 890.5  3201 890.5  Z " stroke-width="1" stroke="#797979" fill="none" />
  <path d="M 3201 899  C 3199.32 899  3198 897.68  3198 896  C 3198 894.32  3199.32 893  3201 893  C 3202.68 893  3204 894.32  3204 896  C 3204 897.68  3202.68 899  3201 899  " fill-rule="nonzero" fill="#797979" stroke="none" />
</svg>