<?xml version="1.0" encoding="utf-8"?>
<svg version="1.1" xmlns:xlink="http://www.w3.org/1999/xlink" width="12px" height="12px" viewBox="3195 980  12 12" xmlns="http://www.w3.org/2000/svg">
  <path d="M 3201 980  C 3204.36 980  3207 982.64  3207 986  C 3207 989.36  3204.36 992  3201 992  C 3197.64 992  3195 989.36  3195 986  C 3195 982.64  3197.64 980  3201 980  Z " fill-rule="nonzero" fill="#ffffff" stroke="none" />
  <path d="M 3201 980.5  C 3204.08 980.5  3206.5 982.92  3206.5 986  C 3206.5 989.08  3204.08 991.5  3201 991.5  C 3197.92 991.5  3195.5 989.08  3195.5 986  C 3195.5 982.92  3197.92 980.5  3201 980.5  Z " stroke-width="1" stroke="#797979" fill="none" />
  <path d="M 3201 989  C 3199.32 989  3198 987.68  3198 986  C 3198 984.32  3199.32 983  3201 983  C 3202.68 983  3204 984.32  3204 986  C 3204 987.68  3202.68 989  3201 989  " fill-rule="nonzero" fill="#797979" stroke="none" />
</svg>