<?xml version="1.0" encoding="utf-8"?>
<svg version="1.1" xmlns:xlink="http://www.w3.org/1999/xlink" width="12px" height="12px" viewBox="3195 1023  12 12" xmlns="http://www.w3.org/2000/svg">
  <path d="M 3201 1023  C 3204.36 1023  3207 1025.64  3207 1029  C 3207 1032.36  3204.36 1035  3201 1035  C 3197.64 1035  3195 1032.36  3195 1029  C 3195 1025.64  3197.64 1023  3201 1023  Z " fill-rule="nonzero" fill="#ffffff" stroke="none" />
  <path d="M 3201 1023.5  C 3204.08 1023.5  3206.5 1025.92  3206.5 1029  C 3206.5 1032.08  3204.08 1034.5  3201 1034.5  C 3197.92 1034.5  3195.5 1032.08  3195.5 1029  C 3195.5 1025.92  3197.92 1023.5  3201 1023.5  Z " stroke-width="1" stroke="#797979" fill="none" />
  <path d="M 3201 1032  C 3199.32 1032  3198 1030.68  3198 1029  C 3198 1027.32  3199.32 1026  3201 1026  C 3202.68 1026  3204 1027.32  3204 1029  C 3204 1030.68  3202.68 1032  3201 1032  " fill-rule="nonzero" fill="#797979" stroke="none" />
</svg>