<?xml version="1.0" encoding="utf-8"?>
<svg version="1.1" xmlns:xlink="http://www.w3.org/1999/xlink" width="12px" height="12px" viewBox="3195 1069  12 12" xmlns="http://www.w3.org/2000/svg">
  <path d="M 3201 1069  C 3204.36 1069  3207 1071.64  3207 1075  C 3207 1078.36  3204.36 1081  3201 1081  C 3197.64 1081  3195 1078.36  3195 1075  C 3195 1071.64  3197.64 1069  3201 1069  Z " fill-rule="nonzero" fill="#f0f0f0" stroke="none" />
  <path d="M 3201 1069.5  C 3204.08 1069.5  3206.5 1071.92  3206.5 1075  C 3206.5 1078.08  3204.08 1080.5  3201 1080.5  C 3197.92 1080.5  3195.5 1078.08  3195.5 1075  C 3195.5 1071.92  3197.92 1069.5  3201 1069.5  Z " stroke-width="1" stroke="#797979" fill="none" />
  <path d="M 3201 1078  C 3199.32 1078  3198 1076.68  3198 1075  C 3198 1073.32  3199.32 1072  3201 1072  C 3202.68 1072  3204 1073.32  3204 1075  C 3204 1076.68  3202.68 1078  3201 1078  " fill-rule="nonzero" fill="#797979" stroke="none" />
</svg>