<?xml version="1.0" encoding="utf-8"?>
<svg version="1.1" xmlns:xlink="http://www.w3.org/1999/xlink" width="12px" height="12px" viewBox="3037 890  12 12" xmlns="http://www.w3.org/2000/svg">
  <path d="M 3043 890  C 3046.36 890  3049 892.64  3049 896  C 3049 899.36  3046.36 902  3043 902  C 3039.64 902  3037 899.36  3037 896  C 3037 892.64  3039.64 890  3043 890  Z " fill-rule="nonzero" fill="#f0f0f0" stroke="none" />
  <path d="M 3043 890.5  C 3046.08 890.5  3048.5 892.92  3048.5 896  C 3048.5 899.08  3046.08 901.5  3043 901.5  C 3039.92 901.5  3037.5 899.08  3037.5 896  C 3037.5 892.92  3039.92 890.5  3043 890.5  Z " stroke-width="1" stroke="#797979" fill="none" />
  <path d="M 3043 899  C 3041.32 899  3040 897.68  3040 896  C 3040 894.32  3041.32 893  3043 893  C 3044.68 893  3046 894.32  3046 896  C 3046 897.68  3044.68 899  3043 899  " fill-rule="nonzero" fill="#797979" stroke="none" />
</svg>