<?xml version="1.0" encoding="utf-8"?>
<svg version="1.1" xmlns:xlink="http://www.w3.org/1999/xlink" width="12px" height="12px" viewBox="3037 1023  12 12" xmlns="http://www.w3.org/2000/svg">
  <path d="M 3043 1023  C 3046.36 1023  3049 1025.64  3049 1029  C 3049 1032.36  3046.36 1035  3043 1035  C 3039.64 1035  3037 1032.36  3037 1029  C 3037 1025.64  3039.64 1023  3043 1023  Z " fill-rule="nonzero" fill="#f0f0f0" stroke="none" />
  <path d="M 3043 1023.5  C 3046.08 1023.5  3048.5 1025.92  3048.5 1029  C 3048.5 1032.08  3046.08 1034.5  3043 1034.5  C 3039.92 1034.5  3037.5 1032.08  3037.5 1029  C 3037.5 1025.92  3039.92 1023.5  3043 1023.5  Z " stroke-width="1" stroke="#797979" fill="none" />
  <path d="M 3043 1032  C 3041.32 1032  3040 1030.68  3040 1029  C 3040 1027.32  3041.32 1026  3043 1026  C 3044.68 1026  3046 1027.32  3046 1029  C 3046 1030.68  3044.68 1032  3043 1032  " fill-rule="nonzero" fill="#797979" stroke="none" />
</svg>