<?xml version="1.0" encoding="utf-8"?>
<svg version="1.1" xmlns:xlink="http://www.w3.org/1999/xlink" width="12px" height="12px" viewBox="3037 1069  12 12" xmlns="http://www.w3.org/2000/svg">
  <path d="M 3043 1069  C 3046.36 1069  3049 1071.64  3049 1075  C 3049 1078.36  3046.36 1081  3043 1081  C 3039.64 1081  3037 1078.36  3037 1075  C 3037 1071.64  3039.64 1069  3043 1069  Z " fill-rule="nonzero" fill="#f0f0f0" stroke="none" />
  <path d="M 3043 1069.5  C 3046.08 1069.5  3048.5 1071.92  3048.5 1075  C 3048.5 1078.08  3046.08 1080.5  3043 1080.5  C 3039.92 1080.5  3037.5 1078.08  3037.5 1075  C 3037.5 1071.92  3039.92 1069.5  3043 1069.5  Z " stroke-width="1" stroke="#797979" fill="none" />
  <path d="M 3043 1078  C 3041.32 1078  3040 1076.68  3040 1075  C 3040 1073.32  3041.32 1072  3043 1072  C 3044.68 1072  3046 1073.32  3046 1075  C 3046 1076.68  3044.68 1078  3043 1078  " fill-rule="nonzero" fill="#797979" stroke="none" />
</svg>