<?xml version="1.0" encoding="utf-8"?>
<svg version="1.1" xmlns:xlink="http://www.w3.org/1999/xlink" width="12px" height="12px" viewBox="3200 1790  12 12" xmlns="http://www.w3.org/2000/svg">
  <path d="M 3206 1790  C 3209.36 1790  3212 1792.64  3212 1796  C 3212 1799.36  3209.36 1802  3206 1802  C 3202.64 1802  3200 1799.36  3200 1796  C 3200 1792.64  3202.64 1790  3206 1790  Z " fill-rule="nonzero" fill="#f0f0f0" stroke="none" />
  <path d="M 3206 1790.5  C 3209.08 1790.5  3211.5 1792.92  3211.5 1796  C 3211.5 1799.08  3209.08 1801.5  3206 1801.5  C 3202.92 1801.5  3200.5 1799.08  3200.5 1796  C 3200.5 1792.92  3202.92 1790.5  3206 1790.5  Z " stroke-width="1" stroke="#797979" fill="none" />
  <path d="M 3206 1799  C 3204.32 1799  3203 1797.68  3203 1796  C 3203 1794.32  3204.32 1793  3206 1793  C 3207.68 1793  3209 1794.32  3209 1796  C 3209 1797.68  3207.68 1799  3206 1799  " fill-rule="nonzero" fill="#797979" stroke="none" />
</svg>