<?xml version="1.0" encoding="utf-8"?>
<svg version="1.1" xmlns:xlink="http://www.w3.org/1999/xlink" width="12px" height="12px" viewBox="3200 1835  12 12" xmlns="http://www.w3.org/2000/svg">
  <path d="M 3206 1835  C 3209.36 1835  3212 1837.64  3212 1841  C 3212 1844.36  3209.36 1847  3206 1847  C 3202.64 1847  3200 1844.36  3200 1841  C 3200 1837.64  3202.64 1835  3206 1835  Z " fill-rule="nonzero" fill="#f0f0f0" stroke="none" />
  <path d="M 3206 1835.5  C 3209.08 1835.5  3211.5 1837.92  3211.5 1841  C 3211.5 1844.08  3209.08 1846.5  3206 1846.5  C 3202.92 1846.5  3200.5 1844.08  3200.5 1841  C 3200.5 1837.92  3202.92 1835.5  3206 1835.5  Z " stroke-width="1" stroke="#797979" fill="none" />
  <path d="M 3206 1844  C 3204.32 1844  3203 1842.68  3203 1841  C 3203 1839.32  3204.32 1838  3206 1838  C 3207.68 1838  3209 1839.32  3209 1841  C 3209 1842.68  3207.68 1844  3206 1844  " fill-rule="nonzero" fill="#797979" stroke="none" />
</svg>