<?xml version="1.0" encoding="utf-8"?>
<svg version="1.1" xmlns:xlink="http://www.w3.org/1999/xlink" width="8px" height="8px" xmlns="http://www.w3.org/2000/svg">
  <g transform="matrix(1 0 0 1 -1421 -539 )">
    <path d="M 1425 540  C 1426.68 540  1428 541.32  1428 543  C 1428 544.68  1426.68 546  1425 546  C 1423.32 546  1422 544.68  1422 543  C 1422 541.32  1423.32 540  1425 540  Z " fill-rule="nonzero" fill="#ffffff" stroke="none" fill-opacity="0" />
    <path d="M 1425 540  C 1426.68 540  1428 541.32  1428 543  C 1428 544.68  1426.68 546  1425 546  C 1423.32 546  1422 544.68  1422 543  C 1422 541.32  1423.32 540  1425 540  Z " stroke-width="2" stroke="#999999" fill="none" />
  </g>
</svg>