<?xml version="1.0" encoding="utf-8"?>
<svg version="1.1" xmlns:xlink="http://www.w3.org/1999/xlink" width="8px" height="8px" xmlns="http://www.w3.org/2000/svg">
  <g transform="matrix(1 0 0 1 -1800 -502 )">
    <path d="M 1804 504.5  C 1804.84 504.5  1805.5 505.16  1805.5 506  C 1805.5 506.84  1804.84 507.5  1804 507.5  C 1803.16 507.5  1802.5 506.84  1802.5 506  C 1802.5 505.16  1803.16 504.5  1804 504.5  Z " fill-rule="nonzero" fill="#6a708c" stroke="none" />
    <path d="M 1804 503.5  C 1805.4 503.5  1806.5 504.6  1806.5 506  C 1806.5 507.4  1805.4 508.5  1804 508.5  C 1802.6 508.5  1801.5 507.4  1801.5 506  C 1801.5 504.6  1802.6 503.5  1804 503.5  Z " stroke-width="3" stroke="#6a708c" fill="none" stroke-opacity="0.298039215686275" />
  </g>
</svg>