<?xml version="1.0" encoding="utf-8"?>
<svg version="1.1" xmlns:xlink="http://www.w3.org/1999/xlink" width="7px" height="7px" xmlns="http://www.w3.org/2000/svg">
  <g transform="matrix(1 0 0 1 -324 -1849 )">
    <path d="M 327.5 1849  C 329.46 1849  331 1850.54  331 1852.5  C 331 1854.46  329.46 1856  327.5 1856  C 325.54 1856  324 1854.46  324 1852.5  C 324 1850.54  325.54 1849  327.5 1849  Z " fill-rule="nonzero" fill="#ffffff" stroke="none" />
    <path d="M 327.5 1849.5  C 329.18 1849.5  330.5 1850.82  330.5 1852.5  C 330.5 1854.18  329.18 1855.5  327.5 1855.5  C 325.82 1855.5  324.5 1854.18  324.5 1852.5  C 324.5 1850.82  325.82 1849.5  327.5 1849.5  Z " stroke-width="1" stroke="#d9001b" fill="none" />
  </g>
</svg>