<?xml version="1.0" encoding="utf-8"?>
<svg version="1.1" xmlns:xlink="http://www.w3.org/1999/xlink" width="8px" height="8px" xmlns="http://www.w3.org/2000/svg">
  <g transform="matrix(1 0 0 1 -1995 -294 )">
    <path d="M 1999 296.5  C 1999.84 296.5  2000.5 297.16  2000.5 298  C 2000.5 298.84  1999.84 299.5  1999 299.5  C 1998.16 299.5  1997.5 298.84  1997.5 298  C 1997.5 297.16  1998.16 296.5  1999 296.5  Z " fill-rule="nonzero" fill="#6a708c" stroke="none" />
    <path d="M 1999 295.5  C 2000.4 295.5  2001.5 296.6  2001.5 298  C 2001.5 299.4  2000.4 300.5  1999 300.5  C 1997.6 300.5  1996.5 299.4  1996.5 298  C 1996.5 296.6  1997.6 295.5  1999 295.5  Z " stroke-width="3" stroke="#6a708c" fill="none" stroke-opacity="0.298039215686275" />
  </g>
</svg>