<?xml version="1.0" encoding="utf-8"?>
<svg version="1.1" xmlns:xlink="http://www.w3.org/1999/xlink" width="170px" height="170px" xmlns="http://www.w3.org/2000/svg">
  <g transform="matrix(1 0 0 1 -181 -1927 )">
    <path d="M 266 1927  C 313.6 1927  351 1964.4  351 2012  C 351 2059.6  313.6 2097  266 2097  C 218.4 2097  181 2059.6  181 2012  C 181 1964.4  218.4 1927  266 1927  Z " fill-rule="nonzero" fill="#02a7f0" stroke="none" fill-opacity="0.4" />
    <path d="M 266 1927.5  C 313.32 1927.5  350.5 1964.68  350.5 2012  C 350.5 2059.32  313.32 2096.5  266 2096.5  C 218.68 2096.5  181.5 2059.32  181.5 2012  C 181.5 1964.68  218.68 1927.5  266 1927.5  Z " stroke-width="1" stroke="#02a7f0" fill="none" />
  </g>
</svg>