<?xml version="1.0" encoding="utf-8"?>
<svg version="1.1" xmlns:xlink="http://www.w3.org/1999/xlink" width="21px" height="28px" xmlns="http://www.w3.org/2000/svg">
  <g transform="matrix(1 0 0 1 -230 -1663 )">
    <path d="M 20.8945707383824 10.5575208282895  C 20.8945707383824 17.5296886686404  11.6421586825147 27.7699167430263  10.5063835620882 27.7699167430263  C 9.38753732360294 27.7699167430263  0.118196386102941 17.5296886686404  0.118196386102941 10.5575208282895  C 0.118227667460713 4.85385655814765  4.76916832572059 0.230139593503459  10.5063835622426 0.230139593503459  C 16.2436209180977 0.230139593503459  20.8945707385368 4.85389087698089  20.8945707385368 10.5575771371877  Z M 16.2775986721765 11.1312673429386  C 16.2775986721765 7.96255274726543  13.693737655383 5.39380202881579  10.5063835620882 5.39380202881579  C 7.31902946879346 5.39380202881579  4.735168452 7.96255274726543  4.735168452 11.1312673429386  C 4.735168452 14.2999819386118  7.31902946879346 16.8687326570614  10.5063835620882 16.8687326570614  C 13.693737655383 16.8687326570614  16.2775986721765 14.2999819386118  16.2775986721765 11.1312673429386  Z M 13.9691126115882 11.1312673429386  C 13.9691126115882 13.0324960987995  12.4187960027704 14.5737465286184  10.5063835483456 14.5737465286184  C 8.5939710939208 14.5737465286184  7.04365448510294 13.0324960987995  7.04365448510294 11.1312673429386  C 7.04365448510294 9.2300385870777  8.5939710939208 7.68878815725877  10.5063835483456 7.68878815725877  C 12.4187960027704 7.68878815725877  13.9691126115882 9.2300385870777  13.9691126115882 11.1312673429386  Z " fill-rule="nonzero" fill="#f59a23" stroke="none" transform="matrix(1 0 0 1 230 1663 )" />
  </g>
</svg>