<?xml version="1.0" encoding="utf-8"?>
<svg version="1.1" xmlns:xlink="http://www.w3.org/1999/xlink" width="8px" height="8px" xmlns="http://www.w3.org/2000/svg">
  <g transform="matrix(1 0 0 1 -1784 -913 )">
    <path d="M 1788 915.5  C 1788.84 915.5  1789.5 916.16  1789.5 917  C 1789.5 917.84  1788.84 918.5  1788 918.5  C 1787.16 918.5  1786.5 917.84  1786.5 917  C 1786.5 916.16  1787.16 915.5  1788 915.5  Z " fill-rule="nonzero" fill="#6a708c" stroke="none" />
    <path d="M 1788 914.5  C 1789.4 914.5  1790.5 915.6  1790.5 917  C 1790.5 918.4  1789.4 919.5  1788 919.5  C 1786.6 919.5  1785.5 918.4  1785.5 917  C 1785.5 915.6  1786.6 914.5  1788 914.5  Z " stroke-width="3" stroke="#6a708c" fill="none" stroke-opacity="0.298039215686275" />
  </g>
</svg>