<?xml version="1.0" encoding="utf-8"?>
<svg version="1.1" xmlns:xlink="http://www.w3.org/1999/xlink" width="7px" height="7px" xmlns="http://www.w3.org/2000/svg">
  <g transform="matrix(1 0 0 1 -347 -2007 )">
    <path d="M 350.5 2007  C 352.46 2007  354 2008.54  354 2010.5  C 354 2012.46  352.46 2014  350.5 2014  C 348.54 2014  347 2012.46  347 2010.5  C 347 2008.54  348.54 2007  350.5 2007  Z " fill-rule="nonzero" fill="#ffffff" stroke="none" />
    <path d="M 350.5 2007.5  C 352.18 2007.5  353.5 2008.82  353.5 2010.5  C 353.5 2012.18  352.18 2013.5  350.5 2013.5  C 348.82 2013.5  347.5 2012.18  347.5 2010.5  C 347.5 2008.82  348.82 2007.5  350.5 2007.5  Z " stroke-width="1" stroke="#d9001b" fill="none" />
  </g>
</svg>