<?xml version="1.0" encoding="UTF-8"?>
<svg width="16px" height="16px" viewBox="0 0 16 16" version="1.1" xmlns="http://www.w3.org/2000/svg" xmlns:xlink="http://www.w3.org/1999/xlink">
    <title>icon/搜索</title>
    <g id="icon/搜索" stroke="none" stroke-width="1" fill="none" fill-rule="evenodd">
        <g id="编组-2" fill="#C0C2C9">
            <rect id="矩形" fill-rule="nonzero" opacity="0" x="0" y="0" width="16" height="16"></rect>
            <path d="M7.66121338,2.65159601 C10.4226371,2.65159601 12.6612134,4.89017227 12.6612134,7.65159601 C12.6612134,8.83883234 12.2474232,9.9294228 11.5561948,10.7870156 L13.7085715,12.629081 C13.9183148,12.8086982 13.9427368,13.1243373 13.7631196,13.3340806 C13.5835024,13.5438239 13.2678633,13.568246 13.05812,13.3886287 L10.8534591,11.500086 C9.98746313,12.2192109 8.87483274,12.651596 7.66121338,12.651596 C4.89978963,12.651596 2.66121338,10.4130198 2.66121338,7.65159601 C2.66121338,4.89017227 4.89978963,2.65159601 7.66121338,2.65159601 Z M7.66121338,3.65159601 C5.45207438,3.65159601 3.66121338,5.44245702 3.66121338,7.65159601 C3.66121338,9.86073501 5.45207438,11.651596 7.66121338,11.651596 C9.87035238,11.651596 11.6612134,9.86073501 11.6612134,7.65159601 C11.6612134,5.44245702 9.87035238,3.65159601 7.66121338,3.65159601 Z" id="形状结合"></path>
        </g>
    </g>
</svg>