<?xml version="1.0" encoding="utf-8"?>
<svg version="1.1" xmlns:xlink="http://www.w3.org/1999/xlink" width="33px" height="33px" xmlns="http://www.w3.org/2000/svg">
  <g transform="matrix(1 0 0 1 -332 -85 )">
    <path d="M 348.5 85  C 357.74 85  365 92.26  365 101.5  C 365 110.74  357.74 118  348.5 118  C 339.26 118  332 110.74  332 101.5  C 332 92.26  339.26 85  348.5 85  Z " fill-rule="nonzero" fill="#ffffff" stroke="none" />
    <path d="M 348.5 85.5  C 357.46 85.5  364.5 92.54  364.5 101.5  C 364.5 110.46  357.46 117.5  348.5 117.5  C 339.54 117.5  332.5 110.46  332.5 101.5  C 332.5 92.54  339.54 85.5  348.5 85.5  Z " stroke-width="1" stroke="#797979" fill="none" />
  </g>
</svg>