<?xml version="1.0" encoding="utf-8"?>
<svg version="1.1" xmlns:xlink="http://www.w3.org/1999/xlink" width="119px" height="132px" xmlns="http://www.w3.org/2000/svg">
  <g transform="matrix(1 0 0 1 -930 -171 )">
    <path d="M 930 171  L 1049 171  L 1049 303  L 930 303  L 930 171  " fill-rule="nonzero" fill="#cccccc" stroke="none" />
    <path d="M 938 179  L 1041 179  L 1041 295  L 938 295  L 938 179  " fill-rule="nonzero" fill="#ffffff" stroke="none" />
    <path d="M 1000.805 208.65  C 995.807 208.65  991.88 204.723  991.88 199.725  C 991.88 194.727  995.807 190.8  1000.805 190.8  C 1005.803 190.8  1009.73 194.727  1009.73 199.725  C 1009.73 204.723  1005.803 208.65  1000.805 208.65  " fill-rule="nonzero" fill="#cccccc" stroke="none" />
    <path d="M 941 292  L 941 231.5  L 965.25 204  L 999.2 226  L 1018.6 220.5  L 1038 226  L 1038 292  L 941 292  " fill-rule="nonzero" fill="#169bd5" stroke="none" />
  </g>
</svg>