<?xml version="1.0" encoding="utf-8"?>
<svg version="1.1" xmlns:xlink="http://www.w3.org/1999/xlink" width="156px" height="88px" xmlns="http://www.w3.org/2000/svg">
  <g transform="matrix(1 0 0 1 -378 -312 )">
    <path d="M 378 312  L 534 312  L 534 400  L 378 400  L 378 312  " fill-rule="nonzero" fill="#cccccc" stroke="none" />
    <path d="M 384 318  L 528 318  L 528 394  L 384 394  L 384 318  " fill-rule="nonzero" fill="#ffffff" stroke="none" />
    <path d="M 465.72 338.4  C 462.024 338.4  459.12 335.496  459.12 331.8  C 459.12 328.104  462.024 325.2  465.72 325.2  C 469.416 325.2  472.32 328.104  472.32 331.8  C 472.32 335.496  469.416 338.4  465.72 338.4  " fill-rule="nonzero" fill="#cccccc" stroke="none" />
    <path d="M 386 392  L 386 352.4  L 421 334.4  L 470 367.630769230769  L 498 345.2  L 526 367.630769230769  L 526 392  L 386 392  " fill-rule="nonzero" fill="#169bd5" stroke="none" />
  </g>
</svg>