<?xml version="1.0" encoding="utf-8"?>
<svg version="1.1" xmlns:xlink="http://www.w3.org/1999/xlink" width="46px" height="48px" xmlns="http://www.w3.org/2000/svg">
  <g transform="matrix(1 0 0 1 -218 -666 )">
    <path d="M 0.6388888671875 44  L 0.6388888671875 42  L 21.8888888671875 42  L 21.8888888671875 44  L 0.6388888671875 44  Z M 9 3  L 9 41  L 19.9444444335938 41  C 18.9722222167969 39.4166666992188  18.5555555664063 37.3333333496094  18.5555555664063 34.9722222167969  C 18.5555555664063 27.3333333496094  24.5277777832031 21.0833333496094  32 20.5277777832031  L 32 3  L 9 3  Z M 13 24  L 13 20.8055555664063  C 13 20.6666666992188  13.1388888671875 20.5277777832031  13.2777777832031 20.5277777832031  L 17.7222222167969 20.5277777832031  L 17.7222222167969 21.7777777832031  L 14.25 21.7777777832031  L 14.25 24  L 13 24  Z M 45.3611111328125 35.1111111328125  C 45.3611111328125 28.3055556152344  39.8055555664062 22.75  33 22.75  C 26.1944444335937 22.75  20.6388888671875 28.3055555664062  20.6388888671875 35.1111111328125  C 20.6388888671875 41.9166666992188  26.1944444335937 47.472222265625  33 47.4722222167969  C 39.8055555664062 47.4722221679688  45.3611111328125 41.9166666503906  45.3611111328125 35.1111111328125  Z M 36.1944444335938 29.4166666503906  C 37.4444444335938 30.3888888671875  43.5555555664062 38.5833333007812  35.3611111328125 44  C 36.8888889160156 40.5277777832031  35.7777777832031 35.6666666503906  33.1388888671875 33.4444444335937  C 33.277777734375 34.4166666503906  33.1388888671875 36.9166666503906  31.8888888671875 38.4444444335937  C 32.1666666503906 36.7777777832031  31.75 34.6944444335937  31.4722222167969 35.8055555664062  C 31.3333333496094 36.9166666992187  30.9166666503906 37.8888889160156  30.3611111328125 38.7222222167969  C 29.5277777832031 40.1111110839844  29.1111111328125 41.5  30.0833333496094 44  C 26.8888889160156 41.9166666503906  26.0555555664062 39.8333333496094  26.4722222167969 37.0555555664062  C 26.8888888671875 34.9722222167969  28.1388888671875 33.3055555664062  28.2777777832031 31.3611111328125  C 28.8333333496094 32.472222265625  28.8333333496094 33.1666666992188  28.8333333496094 34.2777777832031  C 30.3611111328125 31.9166666503906  32.0277777832031 28.8611111328125  31.75 26.0833333496094  C 31.75 26.0833333496094  34.8055555664062 27.1944444824219  35.9166666503906 32.6111111328125  C 36.6111110839844 31.9166666992188  36.6111110839844 30.25  36.1944444335938 29.4166666503906  Z M 22.2347222167969 31.6305555664063  L 23.1041666503906 29.8916666503906  L 43.2291666503906 39.9486111328125  L 42.3611111328125 41.6888888671875  L 22.2347222167969 31.6305555664063  Z M 20.7777777832031 43.1666666503906  C 20.7777777832031 43.3055555175781  20.7777777832031 43.3055555175781  20.7777777832031 43.1666666503906  C 20.7777777832031 42.8888888671875  20.6388889160156 42.6111110839844  20.6388888671875 42  L 8 42  L 8 2  L 32 2  L 32 20.6666666503906  L 33 20.6666666503906  L 33 1  L 7 1  L 7 43.4444444335938  L 20.7777777832031 43.1666666503906  Z " fill-rule="nonzero" fill="#000000" stroke="none" transform="matrix(1 0 0 1 218 666 )" />
  </g>
</svg>