<?xml version="1.0" encoding="utf-8"?>
<svg version="1.1" xmlns:xlink="http://www.w3.org/1999/xlink" width="108px" height="48px" xmlns="http://www.w3.org/2000/svg">
  <g transform="matrix(1 0 0 1 -375 -432 )">
    <path d="M 429 432  C 459.24 432  483 442.56  483 456  C 483 469.44  459.24 480  429 480  C 398.76 480  375 469.44  375 456  C 375 442.56  398.76 432  429 432  Z " fill-rule="nonzero" fill="#ffffff" stroke="none" />
    <path d="M 429 432.5  C 458.96 432.5  482.5 442.84  482.5 456  C 482.5 469.16  458.96 479.5  429 479.5  C 399.04 479.5  375.5 469.16  375.5 456  C 375.5 442.84  399.04 432.5  429 432.5  Z " stroke-width="1" stroke="#797979" fill="none" />
  </g>
</svg>