<?xml version="1.0" encoding="utf-8"?>
<svg version="1.1" xmlns:xlink="http://www.w3.org/1999/xlink" width="98px" height="98px" xmlns="http://www.w3.org/2000/svg">
  <g transform="matrix(1 0 0 1 -1055 -526 )">
    <path d="M 1104 530.5  C 1128.92 530.5  1148.5 550.08  1148.5 575  C 1148.5 599.92  1128.92 619.5  1104 619.5  C 1079.08 619.5  1059.5 599.92  1059.5 575  C 1059.5 550.08  1079.08 530.5  1104 530.5  Z " fill-rule="nonzero" fill="#ffffff" stroke="none" />
    <path d="M 1104 528.5  C 1130.04 528.5  1150.5 548.96  1150.5 575  C 1150.5 601.04  1130.04 621.5  1104 621.5  C 1077.96 621.5  1057.5 601.04  1057.5 575  C 1057.5 548.96  1077.96 528.5  1104 528.5  Z " stroke-width="5" stroke="#000000" fill="none" stroke-opacity="0.0392156862745098" />
  </g>
</svg>