<?xml version="1.0" encoding="utf-8"?>
<svg version="1.1" xmlns:xlink="http://www.w3.org/1999/xlink" width="420px" height="64px" xmlns="http://www.w3.org/2000/svg">
  <g transform="matrix(1 0 0 1 -403.5 -635.5 )">
    <path d="M 0 60  C 62.7216494845361 39.195948084837  73.0589777195282 38.974358974359  73.0589777195282 38.974358974359  C 73.0589777195282 38.974358974359  101.955439056356 39.4871794871795  113.950196592398 35.3846153846154  C 125.94495412844 31.2820512820513  140.866736025726 30.6172839506173  152.660550458716 31.7948717948718  C 164.454364891705 32.9724596391263  169.199713556093 28.5723330167775  179.921363040629 23.0769230769231  C 190.643012525165 17.5815131370687  195.897042331545 20.2722380500158  205.546526867628 19.4871794871795  C 215.19601140371 18.7021209243431  213.896907216495 8.1861348528015  229.979381443299 7.40107628996518  C 246.061855670103 6.61601772712883  249.556579427382 16.8217790440013  272.608125819135 17.9993668882558  C 295.659672210888 19.1769547325103  282.9609112159 10.5286483064261  314.589777195282 9.74358974358974  C 346.218643174663 8.95853118075339  336.943643512451 -0.512820512820513  352.742268041237 0.335549224438118  C 368.540892570023 1.18391896169675  367.612760265366 8.44571066793291  375.653997378768 9.23076923076923  C 383.69523449217 10.0158277936056  384.922673656619 18.6261475150364  394.736566186107 19.4871794871795  C 404.550458715596 20.3482114593224  416 17.2143083254194  416 17.2143083254194  " stroke-width="3" stroke="#3399cc" fill="none" transform="matrix(1 0 0 1 405 637 )" />
  </g>
</svg>