<?xml version="1.0" encoding="utf-8"?>
<svg version="1.1" xmlns:xlink="http://www.w3.org/1999/xlink" width="10px" height="8px" xmlns="http://www.w3.org/2000/svg">
  <g transform="matrix(1 0 0 1 -1433 -2781 )">
    <path d="M 9.81935483870967 1.04915824915825  C 9.93978494623657 1.1685746352413  10 1.31358024691358  10 1.48417508417508  C 10 1.65476992143659  9.93978494623657 1.79977553310886  9.81935483870967 1.91919191919192  L 5.14838709677419 6.55084175084175  L 4.27096774193548 7.42087542087543  C 4.15053763440861 7.54029180695848  4.00430107526883 7.6  3.83225806451613 7.6  C 3.66021505376344 7.6  3.51397849462366 7.54029180695848  3.39354838709679 7.42087542087543  L 2.51612903225806 6.55084175084175  L 0.180645161290329 4.23501683501684  C 0.0602150537634287 4.11560044893379  0 3.9705948372615  0 3.8  C 0 3.6294051627385  0.0602150537634287 3.48439955106622  0.180645161290329 3.36498316498317  L 1.05806451612904 2.49494949494949  C 1.17849462365592 2.37553310886645  1.3247311827957 2.31582491582492  1.49677419354839 2.31582491582492  C 1.66881720430109 2.31582491582492  1.81505376344087 2.37553310886645  1.93548387096773 2.49494949494949  L 3.83225806451613 4.38215488215489  L 8.06451612903226 0.179124579124579  C 8.18494623655914 0.05970819304153  8.33118279569892 0  8.50322580645161 0  C 8.6752688172043 0  8.82150537634408 0.05970819304153  8.94193548387096 0.179124579124579  L 9.81935483870967 1.04915824915825  Z " fill-rule="nonzero" fill="#999999" stroke="none" transform="matrix(1 0 0 1 1433 2781 )" />
  </g>
</svg>