<?xml version="1.0" encoding="utf-8"?>
<svg version="1.1" xmlns:xlink="http://www.w3.org/1999/xlink" width="12px" height="12px" viewBox="506 1044  12 12" xmlns="http://www.w3.org/2000/svg">
  <path d="M 512 1044  C 515.36 1044  518 1046.64  518 1050  C 518 1053.36  515.36 1056  512 1056  C 508.64 1056  506 1053.36  506 1050  C 506 1046.64  508.64 1044  512 1044  Z " fill-rule="nonzero" fill="#f0f0f0" stroke="none" />
  <path d="M 512 1044.5  C 515.08 1044.5  517.5 1046.92  517.5 1050  C 517.5 1053.08  515.08 1055.5  512 1055.5  C 508.92 1055.5  506.5 1053.08  506.5 1050  C 506.5 1046.92  508.92 1044.5  512 1044.5  Z " stroke-width="1" stroke="#797979" fill="none" />
  <path d="M 512 1053  C 510.32 1053  509 1051.68  509 1050  C 509 1048.32  510.32 1047  512 1047  C 513.68 1047  515 1048.32  515 1050  C 515 1051.68  513.68 1053  512 1053  " fill-rule="nonzero" fill="#797979" stroke="none" />
</svg>