<?xml version="1.0" encoding="utf-8"?>
<svg version="1.1" xmlns:xlink="http://www.w3.org/1999/xlink" width="12px" height="12px" viewBox="417 1044  12 12" xmlns="http://www.w3.org/2000/svg">
  <path d="M 423 1044  C 426.36 1044  429 1046.64  429 1050  C 429 1053.36  426.36 1056  423 1056  C 419.64 1056  417 1053.36  417 1050  C 417 1046.64  419.64 1044  423 1044  Z " fill-rule="nonzero" fill="#f0f0f0" stroke="none" />
  <path d="M 423 1044.5  C 426.08 1044.5  428.5 1046.92  428.5 1050  C 428.5 1053.08  426.08 1055.5  423 1055.5  C 419.92 1055.5  417.5 1053.08  417.5 1050  C 417.5 1046.92  419.92 1044.5  423 1044.5  Z " stroke-width="1" stroke="#797979" fill="none" />
  <path d="M 423 1053  C 421.32 1053  420 1051.68  420 1050  C 420 1048.32  421.32 1047  423 1047  C 424.68 1047  426 1048.32  426 1050  C 426 1051.68  424.68 1053  423 1053  " fill-rule="nonzero" fill="#797979" stroke="none" />
</svg>