<?xml version="1.0" encoding="utf-8"?>
<svg version="1.1" xmlns:xlink="http://www.w3.org/1999/xlink" width="12px" height="12px" viewBox="1694 392  12 12" xmlns="http://www.w3.org/2000/svg">
  <path d="M 1700 392  C 1703.36 392  1706 394.64  1706 398  C 1706 401.36  1703.36 404  1700 404  C 1696.64 404  1694 401.36  1694 398  C 1694 394.64  1696.64 392  1700 392  Z " fill-rule="nonzero" fill="#ffffff" stroke="none" />
  <path d="M 1700 392.5  C 1703.08 392.5  1705.5 394.92  1705.5 398  C 1705.5 401.08  1703.08 403.5  1700 403.5  C 1696.92 403.5  1694.5 401.08  1694.5 398  C 1694.5 394.92  1696.92 392.5  1700 392.5  Z " stroke-width="1" stroke="#797979" fill="none" />
  <path d="M 1700 401  C 1698.32 401  1697 399.68  1697 398  C 1697 396.32  1698.32 395  1700 395  C 1701.68 395  1703 396.32  1703 398  C 1703 399.68  1701.68 401  1700 401  " fill-rule="nonzero" fill="#797979" stroke="none" />
</svg>