<?xml version="1.0" encoding="utf-8"?>
<svg version="1.1" xmlns:xlink="http://www.w3.org/1999/xlink" width="12px" height="12px" viewBox="1779 925  12 12" xmlns="http://www.w3.org/2000/svg">
  <path d="M 1785 925  C 1788.36 925  1791 927.64  1791 931  C 1791 934.36  1788.36 937  1785 937  C 1781.64 937  1779 934.36  1779 931  C 1779 927.64  1781.64 925  1785 925  Z " fill-rule="nonzero" fill="#f0f0f0" stroke="none" />
  <path d="M 1785 925.5  C 1788.08 925.5  1790.5 927.92  1790.5 931  C 1790.5 934.08  1788.08 936.5  1785 936.5  C 1781.92 936.5  1779.5 934.08  1779.5 931  C 1779.5 927.92  1781.92 925.5  1785 925.5  Z " stroke-width="1" stroke="#797979" fill="none" />
  <path d="M 1785 934  C 1783.32 934  1782 932.68  1782 931  C 1782 929.32  1783.32 928  1785 928  C 1786.68 928  1788 929.32  1788 931  C 1788 932.68  1786.68 934  1785 934  " fill-rule="nonzero" fill="#797979" stroke="none" />
</svg>