<?xml version="1.0" encoding="utf-8"?>
<svg version="1.1" xmlns:xlink="http://www.w3.org/1999/xlink" width="12px" height="12px" viewBox="1779 873  12 12" xmlns="http://www.w3.org/2000/svg">
  <path d="M 1785 873  C 1788.36 873  1791 875.64  1791 879  C 1791 882.36  1788.36 885  1785 885  C 1781.64 885  1779 882.36  1779 879  C 1779 875.64  1781.64 873  1785 873  Z " fill-rule="nonzero" fill="#ffffff" stroke="none" />
  <path d="M 1785 873.5  C 1788.08 873.5  1790.5 875.92  1790.5 879  C 1790.5 882.08  1788.08 884.5  1785 884.5  C 1781.92 884.5  1779.5 882.08  1779.5 879  C 1779.5 875.92  1781.92 873.5  1785 873.5  Z " stroke-width="1" stroke="#797979" fill="none" />
  <path d="M 1785 882  C 1783.32 882  1782 880.68  1782 879  C 1782 877.32  1783.32 876  1785 876  C 1786.68 876  1788 877.32  1788 879  C 1788 880.68  1786.68 882  1785 882  " fill-rule="nonzero" fill="#797979" stroke="none" />
</svg>