<?xml version="1.0" encoding="utf-8"?>
<svg version="1.1" xmlns:xlink="http://www.w3.org/1999/xlink" width="12px" height="12px" viewBox="1899 925  12 12" xmlns="http://www.w3.org/2000/svg">
  <path d="M 1905 925  C 1908.36 925  1911 927.64  1911 931  C 1911 934.36  1908.36 937  1905 937  C 1901.64 937  1899 934.36  1899 931  C 1899 927.64  1901.64 925  1905 925  Z " fill-rule="nonzero" fill="#ffffff" stroke="none" />
  <path d="M 1905 925.5  C 1908.08 925.5  1910.5 927.92  1910.5 931  C 1910.5 934.08  1908.08 936.5  1905 936.5  C 1901.92 936.5  1899.5 934.08  1899.5 931  C 1899.5 927.92  1901.92 925.5  1905 925.5  Z " stroke-width="1" stroke="#797979" fill="none" />
  <path d="M 1905 934  C 1903.32 934  1902 932.68  1902 931  C 1902 929.32  1903.32 928  1905 928  C 1906.68 928  1908 929.32  1908 931  C 1908 932.68  1906.68 934  1905 934  " fill-rule="nonzero" fill="#797979" stroke="none" />
</svg>