<?xml version="1.0" encoding="utf-8"?>
<svg version="1.1" xmlns:xlink="http://www.w3.org/1999/xlink" width="22px" height="17px" xmlns="http://www.w3.org/2000/svg">
  <g transform="matrix(1 0 0 1 -1261 -933 )">
    <path d="M 10.2600896860987 12.75  L 10.9506726457399 12.75  L 12.3811659192825 11.3494318181818  L 10.5067264573991 9.51420454545454  L 9.0762331838565 10.9147727272727  L 9.0762331838565 11.5909090909091  L 10.2600896860987 11.5909090909091  L 10.2600896860987 12.75  Z M 16.3643497757848 4.45525568181818  C 16.504110612855 4.31841856060606  16.50822122571 4.18560606060606  16.3766816143498 4.05681818181818  C 16.2451420029895 3.9280303030303  16.1094917787743 3.93205492424242  15.969730941704 4.06889204545455  L 11.6535874439462 8.29474431818182  C 11.5138266068759 8.43158143939394  11.5097159940209 8.56439393939394  11.6412556053812 8.69318181818182  C 11.7727952167414 8.8219696969697  11.9084454409567 8.81794507575757  12.0482062780269 8.68110795454546  L 16.3643497757848 4.45525568181818  Z M 17.1165919282511 10.8785511363636  C 17.2810164424514 10.9429450757576  17.3632286995516 11.0596590909091  17.3632286995516 11.2286931818182  L 17.3632286995516 13.5227272727273  C 17.3632286995516 14.4805871212121  17.0158819133034 15.2995975378788  16.3211883408072 15.9797585227273  C 15.6264947683109 16.6599195075758  14.7899850523169 17  13.8116591928251 17  L 3.55156950672646 17  C 2.57324364723468 17  1.73673393124066 16.6599195075758  1.04204035874439 15.9797585227273  C 0.347346786248131 15.2995975378788  0 14.4805871212121  0 13.5227272727273  L 0 3.47727272727273  C 0 2.51941287878788  0.347346786248131 1.70040246212121  1.04204035874439 1.02024147727273  C 1.73673393124066 0.340080492424241  2.57324364723468 0  3.55156950672646 0  L 13.8116591928251 0  C 14.3295964125561 0  14.8105381165919 0.100615530303029  15.2544843049327 0.30184659090909  C 15.377802690583 0.358191287878787  15.4517937219731 0.450757575757575  15.4764573991031 0.579545454545454  C 15.5011210762332 0.716382575757575  15.4641255605381 0.83309659090909  15.3654708520179 0.9296875  L 14.7612107623318 1.52130681818182  C 14.6461136023916 1.63399621212121  14.5145739910314 1.66619318181818  14.3665919282511 1.61789772727273  C 14.1775037369208 1.56960227272727  13.9925261584454 1.54545454545455  13.8116591928251 1.54545454545455  L 3.55156950672646 1.54545454545455  C 3.00896860986547 1.54545454545455  2.54446935724963 1.73461174242424  2.15807174887892 2.11292613636364  C 1.77167414050822 2.49124053030303  1.57847533632287 2.94602272727273  2 3.47727272727273  L 2 13.5227272727273  C 1.57847533632287 14.0539772727273  1.77167414050822 14.508759469697  2.15807174887892 14.8870738636364  C 2.54446935724963 15.2653882575758  3.00896860986547 15.4545454545455  3.55156950672646 15.4545454545455  L 13.8116591928251 15.4545454545455  C 14.3542600896861 15.4545454545455  14.8187593423019 15.2653882575758  15.2051569506726 14.8870738636364  C 15.5915545590433 14.508759469697  15.7847533632287 14.0539772727273  15.7847533632287 13.5227272727273  L 15.7847533632287 12.0014204545455  C 15.7847533632287 11.8967803030303  15.8217488789238 11.8082386363636  15.8957399103139 11.7357954545455  L 16.6849775784753 10.9630681818182  C 16.8082959641256 10.8423295454545  16.9521674140508 10.8141571969697  17.1165919282511 10.8785511363636  Z M 7.89237668161435 10.4318181818182  L 16.1793721973094 2.31818181818182  L 19.7309417040359 5.79545454545455  L 11.4439461883408 13.9090909090909  L 7.89237668161435 13.9090909090909  L 7.89237668161435 10.4318181818182  Z M 22 3.09090909090909  C 22 3.41287878787879  21.8849028400598 3.68655303030303  21.6547085201794 3.91193181818182  L 20.5201793721973 5.02272727272727  L 16.9686098654709 1.54545454545455  L 18.1031390134529 0.43465909090909  C 18.3333333333333 0.209280303030301  18.6128550074738 0.0965909090909099  18.9417040358744 0.0965909090909099  C 19.270553064275 0.0965909090909099  19.5500747384155 0.209280303030301  19.780269058296 0.43465909090909  L 21.6547085201794 2.26988636363636  C 21.8849028400598 2.49526515151515  22 2.76893939393939  22 3.09090909090909  Z " fill-rule="nonzero" fill="#02a7f0" stroke="none" transform="matrix(1 0 0 1 1261 933 )" />
  </g>
</svg>