<?xml version="1.0" encoding="utf-8"?>
<svg version="1.1" xmlns:xlink="http://www.w3.org/1999/xlink" width="13px" height="13px" xmlns="http://www.w3.org/2000/svg">
  <g transform="matrix(1 0 0 1 -2152 -455 )">
    <path d="M 12.7943760927734 12.7918375253906  C 13.0660027265625 12.5202108916016  13.0660027265625 12.0759617138672  12.7918375253906 11.8043350927734  L 7.52431165332031 6.53427065332031  L 12.7918375253906 1.26674478125  C 12.9289201259766 1.12966218066406  12.9974614326172 0.951962514648438  12.9974614326172 0.771724268554688  C 12.9974614326172 0.594024602539063  12.9289201259766 0.413786369140625  12.7918375253906 0.276703768554688  C 12.5176723242188 0.00253856738281252  12.0759617138672 0.00253856738281252  11.8017965253906 0.276703768554688  L 6.53427065332031 5.54676820800781  L 1.26674478125 0.276703768554688  C 0.992579580078125 0.0025385673828125  0.550868969726563 0.0025385673828125  0.276703768554688 0.276703768554688  C 0.00253856738281252 0.550868969726563  0.00253856738281252 0.992579580078125  0.276703768554688 1.26674478125  L 5.54676820800781 6.53427065332031  L 0.276703768554688 11.8043350927734  C 0.00253856738281252 12.0785002939453  0.00253856738281252 12.5202109042969  0.276703768554688 12.7943760927734  C 0.550868969726563 13.06854128125  0.992579580078125 13.0685412939453  1.26674478125 12.7943760927734  L 6.53427065332031 7.52431165332031  L 11.8043350927734 12.7918375253906  C 11.9414176933594 12.9289201259766  12.119117359375 12.9974614326172  12.2993555927734 12.9974614326172  C 12.4770552587891 12.9974614326172  12.6572934921875 12.9289201259766  12.7943760927734 12.7918375253906  Z " fill-rule="nonzero" fill="#aaaaaa" stroke="none" transform="matrix(1 0 0 1 2152 455 )" />
  </g>
</svg>