<?xml version="1.0" encoding="utf-8"?>
<svg version="1.1" xmlns:xlink="http://www.w3.org/1999/xlink" width="648px" height="163px" xmlns="http://www.w3.org/2000/svg">
  <g transform="matrix(1 0 0 1 -1487 -636 )">
    <path d="M 1488 644  A 7 7 0 0 1 1495 637 L 2127 637  A 7 7 0 0 1 2134 644 L 2134 791  A 7 7 0 0 1 2127 798 L 1495 798  A 7 7 0 0 1 1488 791 L 1488 644  Z " fill-rule="nonzero" fill="#ffffff" stroke="none" />
    <path d="M 1487.5 644  A 7.5 7.5 0 0 1 1495 636.5 L 2127 636.5  A 7.5 7.5 0 0 1 2134.5 644 L 2134.5 791  A 7.5 7.5 0 0 1 2127 798.5 L 1495 798.5  A 7.5 7.5 0 0 1 1487.5 791 L 1487.5 644  Z " stroke-width="1" stroke-dasharray="9,4" stroke="#c9c9c9" fill="none" stroke-dashoffset="0.5" />
  </g>
</svg>