<?xml version="1.0" encoding="utf-8"?>
<svg version="1.1" xmlns:xlink="http://www.w3.org/1999/xlink" width="83px" height="53px" xmlns="http://www.w3.org/2000/svg">
  <g transform="matrix(1 0 0 1 -1769 -664 )">
    <path d="M 82.9471150442478 38.6193333333333  C 83.9343008849558 27.1831111111111  70.307610619469 23.5084444444444  70.307610619469 23.5084444444444  C 70.307610619469 23.5084444444444  69.7317522123894 4.51677777777777  54.2952212389381 0.741999999999999  C 38.8586902654867 -3.03277777777778  31.4195398230089 13.2676666666667  31.2667610619469 13.7328888888889  C 31.113982300885 14.1981111111111  30.3559646017699 13.9861111111111  30.3559646017699 13.9861111111111  C 29.121982300885 12.8142222222222  23.6807079646018 10.123  17.9632566371681 13.5738888888889  C 12.2516814159292 17.0247777777778  14.3200707964602 23.5791111111111  14.3200707964602 23.5791111111111  C 14.3200707964602 23.5791111111111  5.8526017699115 22.8901111111111  1.5101592920354 35.9928888888889  C -2.82640707964602 49.1074444444444  12.3868318584071 52.8233333333333  12.3868318584071 52  L 38 52  L 38 38.8725555555556  L 32.8121769911504 38.8725555555556  L 32.365592920354 38.8725555555556  L 32.0189026548673 38.8725555555556  L 32.0189026548673 38.849  C 31.7250973451327 38.849  31.4900530973451 38.6134444444445  31.4900530973451 38.3131111111111  C 31.4900530973451 38.1364444444445  31.5840707964602 37.9833333333333  31.7250973451327 37.8832222222222  L 42.1904424778761 26.8533333333333  C 42.3373451327434 26.6884444444445  42.5430088495575 26.5765555555556  42.7839292035398 26.5765555555556  C 43.0307256637168 26.5765555555556  43.2481415929204 26.7002222222222  43.3950442477876 26.8827777777778  L 53.784 37.8243333333333  C 53.8016283185841 37.8361111111111  53.8192566371681 37.8537777777778  53.8368849557522 37.8714444444444  L 53.936778761062 37.9774444444445  L 53.9015221238938 37.9774444444445  C 53.954407079646 38.0716666666667  53.9896637168142 38.1541111111111  53.9896637168142 38.266  C 53.9896637168142 38.5957777777778  53.7252389380531 38.8666666666667  53.3903008849558 38.8666666666667  C 53.3785486725664 38.8666666666667  53.3785486725664 38.8548888888889  53.366796460177 38.8548888888889  L 53.366796460177 38.8784444444444  L 47 38.8784444444444  L 47 52  L 70.9187256637168 52  C 70.9187256637168 52.8292222222222  81.9716814159292 50.0555555555556  82.9471150442478 38.6193333333333  Z " fill-rule="nonzero" fill="#aaaaaa" stroke="none" transform="matrix(1 0 0 1 1769 664 )" />
  </g>
</svg>