<?xml version="1.0" encoding="utf-8"?>
<svg version="1.1" xmlns:xlink="http://www.w3.org/1999/xlink" width="137px" height="137px" xmlns="http://www.w3.org/2000/svg">
  <g transform="matrix(1 0 0 1 -591 -1025 )">
    <path d="M 659.5 1025  C 697.86 1025  728 1055.14  728 1093.5  C 728 1131.86  697.86 1162  659.5 1162  C 621.14 1162  591 1131.86  591 1093.5  C 591 1055.14  621.14 1025  659.5 1025  Z " fill-rule="nonzero" fill="#facd91" stroke="none" fill-opacity="0.447058823529412" />
    <path d="M 659.5 1025.5  C 697.58 1025.5  727.5 1055.42  727.5 1093.5  C 727.5 1131.58  697.58 1161.5  659.5 1161.5  C 621.42 1161.5  591.5 1131.58  591.5 1093.5  C 591.5 1055.42  621.42 1025.5  659.5 1025.5  Z " stroke-width="1" stroke="#f59a23" fill="none" />
  </g>
</svg>