<?xml version="1.0" encoding="utf-8"?>
<svg version="1.1" xmlns:xlink="http://www.w3.org/1999/xlink" width="827px" height="640px" xmlns="http://www.w3.org/2000/svg">
  <defs>
    <path d="M 0 0  L 827 0  L 827 640  L 0 640  Z " fill-rule="evenodd" fill="black" id="path106" />
    <clipPath id="clip107">
      <use xlink:href="#path106" />
    </clipPath>
    <filter x="-50.00%" y="-50.00%" width="200.00%" height="200.00%" filterUnits="objectBoundingBox" id="filter108">
      <feColorMatrix type="matrix" values="1 0 0 0 0  0 1 0 0 0  0 0 1 0 0  0 0 0 1 0  " in="SourceGraphic" />
    </filter>
  </defs>
  <g transform="matrix(1 0 0 1 -185 -826 )">
    <g transform="matrix(1 0 0 1 185 826 )" clip-path="url(#clip107)" filter="url(#filter108)">
      <g>
        <rect width="827" height="640" x="0" y="0" id="0" style="fill: transparent;"></rect>
      </g>
      <g>
        <path d="M 406.7293 454.8963 L 406.4446 455.2381 L 401.2744 454.902 L 398.7228 455.4986 L 399.3203 458.1696 L 398.4045 459.8438 L 396.9083 459.4789 L 393.8764 459.9364 L 393.7311 458.4939 L 391.8441 456.8428 L 389.9068 457.312 L 389.8956 455.4986 L 394.8368 455.1224 L 394.4403 445.6994 L 394.0328 445.4271 L 393.8932 442.3816 L 393.0111 442.4222 L 392.9887 437.2465 L 394.9374 436.8357 L 394.1946 435.1512 L 394.055 430.9669 L 393.5469 430.7644 L 393.3013 424.8102 L 391.5482 424.9316 L 391.7827 423.5375 L 392.2739 422.7508 L 397.1817 423.0918 L 397.0813 418.8866 L 398.0417 419.789 L 398.1255 422.1143 L 398.868 423.0918 L 401.7155 423.0573 L 402.8211 424.839 L 402.9495 427.3733 L 404.8758 427.6972 L 404.5351 426.6734 L 406.3552 427.5352 L 405.9085 429.1034 L 407.4496 428.7794 L 406.7461 432.1762 L 406.7405 435.0238 L 404.2393 435.0181 L 404.4179 440.2567 L 404.8198 444.5008 L 408.0861 444.0722 L 407.578 445.2128 L 407.6675 447.2974 L 408.6612 447.3323 L 408.678 448.6989 L 406.8411 448.7741 L 407.2654 452.6027 L 406.7293 454.8963 Z" fill="#FFF" fill-opacity="1" stroke="#666" stroke-width="1" paint-order="fill" stroke-opacity="1" stroke-dasharray="" stroke-linecap="butt" stroke-linejoin="miter" stroke-miterlimit="10" transform="matrix(1,0,0,1,0,0)" clip-path="none"></path>
        <path d="M 375.267 446.3708 L 378.3379 446.1569 L 377.8186 445.7802 L 377.6288 437.1597 L 377.2045 431.4991 L 375.8421 430.145 L 377.1599 429.5316 L 379.4435 430.2838 L 382.3748 429.6242 L 382.2685 427.1244 L 383.3853 429.5316 L 387.5952 427.929 L 387.1707 421.0556 L 389.8451 420.9573 L 389.9791 419.3433 L 393.5023 419.2913 L 393.5192 420.5234 L 392.4304 420.8762 L 391.7827 423.5375 L 391.5482 424.9316 L 393.3013 424.8102 L 393.5469 430.7644 L 394.055 430.9669 L 394.1946 435.1512 L 394.9374 436.8357 L 392.9887 437.2465 L 393.0111 442.4222 L 393.8932 442.3816 L 394.0328 445.4271 L 394.4403 445.6994 L 394.8368 455.1224 L 389.8956 455.4986 L 381.8832 456.3736 L 381.5874 454.63 L 380.2028 454.6069 L 379.4769 453.7148 L 377.7964 454.0622 L 375.4904 453.4656 L 374.0722 454.0565 L 373.9213 451.8092 L 375.2726 448.3921 L 375.267 446.3708 Z" fill="#FFF" fill-opacity="1" stroke="#666" stroke-width="1" paint-order="fill" stroke-opacity="1" stroke-dasharray="" stroke-linecap="butt" stroke-linejoin="miter" stroke-miterlimit="10" transform="matrix(1,0,0,1,0,0)" clip-path="none"></path>
        <path d="M 447.2871 403.3958 L 448.8281 404.6906 L 453.7861 405.4307 L 455.9859 406.9048 L 455.355 408.5178 L 457.2143 409.6914 L 458.5097 408.7894 L 459.8719 410.7843 L 460.1568 413.3286 L 459.241 413.126 L 458.9227 414.3 L 457.4599 414.5428 L 457.5603 416.1451 L 459.107 415.8212 L 459.6431 420.46 L 459.9779 426.3665 L 460.5642 428.8606 L 457.0802 427.2344 L 456.6168 428.7969 L 457.4041 430.6658 L 456.3992 431.4415 L 456.2985 434.0804 L 454.9251 434.5549 L 456.6392 437.5128 L 454.0707 437.0034 L 454.6181 440.3087 L 453.8809 442.4973 L 454.7129 443.7073 L 454.0876 445.6357 L 452.5633 446.8286 L 452.6415 448.8609 L 455.8406 448.6178 L 456.2149 451.78 L 454.9697 451.9363 L 455.1318 453.3264 L 453.8139 456.2807 L 455.6732 459.224 L 452.0665 462.9612 L 449.5931 463.0017 L 449.7215 464.404 L 450.7096 464.2591 L 448.9843 466.3281 L 449.0738 469.5505 L 448.2026 469.5562 L 448.2696 471.7184 L 446.1983 471.44 L 446.2317 472.3272 L 444.1323 471.9562 L 445.0089 470.7793 L 442.4628 471.0228 L 442.3737 469.904 L 440.3021 468.9015 L 437.4213 468.4782 L 433.4346 468.339 L 433.1722 470.0723 L 430.6374 469.1738 L 431.9606 470.785 L 431.1065 471.9907 L 428.6833 471.2489 L 428.5492 470.2343 L 426.0924 470.2055 L 424.6074 470.9879 L 424.4846 473.1908 L 422.5246 474.0604 L 423.3288 474.4663 L 421.2965 475.2373 L 420.5371 474.1356 L 417.9407 474.8141 L 417.8403 476.2982 L 414.9034 477.3476 L 413.3567 475.6606 L 411.8381 475.1501 L 409.1581 472.6344 L 406.8019 473.3648 L 407.338 471.3243 L 404.8702 471.0634 L 404.9538 469.9157 L 403.1057 470.1069 L 401.8105 469.4693 L 403.6362 469.1041 L 404.8868 466.1138 L 405.9141 466.7104 L 406.3776 465.279 L 407.5446 465.0704 L 407.3548 463.6219 L 408.5552 463.4884 L 408.7338 462.3122 L 411.1794 463.5176 L 413.1781 460.8868 L 411.9833 460.8114 L 410.0458 459.0329 L 409.5545 459.6875 L 407.9409 458.1696 L 407.4552 459.1603 L 406.5506 457.3003 L 406.7293 454.8963 L 407.2654 452.6027 L 406.8411 448.7741 L 408.678 448.6989 L 408.6612 447.3323 L 407.6675 447.2974 L 407.578 445.2128 L 408.0861 444.0722 L 404.8198 444.5008 L 404.4179 440.2567 L 404.2393 435.0181 L 406.7405 435.0238 L 406.7461 432.1762 L 407.4496 428.7794 L 405.9085 429.1034 L 406.3552 427.5352 L 404.5351 426.6734 L 404.8758 427.6972 L 402.9495 427.3733 L 402.8211 424.839 L 401.7155 423.0573 L 398.868 423.0918 L 398.1255 422.1143 L 398.0417 419.789 L 397.0813 418.8866 L 397.1817 423.0918 L 392.2739 422.7508 L 391.7827 423.5375 L 392.4304 420.8762 L 393.5192 420.5234 L 393.5023 419.2913 L 389.9791 419.3433 L 390.0574 417.4694 L 388.818 412.1314 L 381.9615 400.1243 L 389.3931 398.5292 L 393.7704 397.9336 L 392.475 396.6047 L 392.5812 394.9344 L 393.2009 394.7728 L 393.8318 396.541 L 396.4838 395.755 L 397.4498 394.2182 L 396.7129 391.9124 L 397.6396 389.8271 L 399.2477 389.6939 L 403.96 387.4584 L 406.5229 387.799 L 408.8622 388.7118 L 408.8064 387.8108 L 410.9391 388.2728 L 411.6651 385.6677 L 410.7328 384.5759 L 410.783 382.6468 L 411.7935 382.2944 L 411.5925 380.8566 L 412.7651 380.3137 L 412.9213 377.5246 L 414.0381 377.8076 L 414.7136 379.1703 L 417.2206 379.8171 L 418.2143 380.7815 L 421.5979 381.0125 L 423.5856 383.1609 L 425.5007 384.5585 L 428.7166 384.2353 L 430.9556 385.8525 L 433.3062 388.4807 L 434.5346 387.3024 L 435.5953 388.3537 L 435.8634 390.0926 L 434.2051 392.2015 L 435.3273 393.4322 L 438.9287 395.5125 L 440.5926 398.0842 L 442.8147 397.8471 L 442.5523 399.8353 L 447.2871 403.3958 Z M 449.459 390.7801 L 448.0798 390.9246 L 448.9117 392.6636 L 448.3201 392.8369 L 448.4261 394.8885 L 446.3379 394.2758 L 446.1257 391.1905 L 445.2604 391.6412 L 445.8408 389.6363 L 444.8973 383.1666 L 443.507 383.3513 L 443.5126 385.4769 L 442.6417 382.4101 L 441.62 375.4054 L 441.5529 371.2485 L 442.6863 373.0555 L 443.2334 378.1771 L 447.3819 377.5128 L 448.13 376.3409 L 448.0464 372.6515 L 449.2524 376.2081 L 449.403 378.7257 L 450.7208 390.0813 L 449.459 390.7801 Z" fill="#FFF" fill-opacity="1" stroke="#666" stroke-width="1" paint-order="fill" stroke-opacity="1" stroke-dasharray="" stroke-linecap="butt" stroke-linejoin="miter" stroke-miterlimit="10" transform="matrix(1,0,0,1,0,0)" clip-path="none"></path>
        <path d="M 357.4561 446.4174 L 359.3544 446.562 L 367.0373 446.4751 L 367.0482 449.915 L 369.1254 448.1023 L 372.1237 446.3769 L 375.267 446.3708 L 375.2726 448.3921 L 373.9213 451.8092 L 374.0722 454.0565 L 375.4904 453.4656 L 377.7964 454.0622 L 379.4769 453.7148 L 380.2028 454.6069 L 381.5874 454.63 L 381.8832 456.3736 L 389.8956 455.4986 L 389.9068 457.312 L 391.8441 456.8428 L 393.7311 458.4939 L 393.8764 459.9364 L 396.9083 459.4789 L 398.4045 459.8438 L 399.3203 458.1696 L 398.7228 455.4986 L 401.2744 454.902 L 406.4446 455.2381 L 406.7293 454.8963 L 406.5506 457.3003 L 407.4552 459.1603 L 407.9409 458.1696 L 409.5545 459.6875 L 410.0458 459.0329 L 411.9833 460.8114 L 413.1781 460.8868 L 411.1794 463.5176 L 408.7338 462.3122 L 408.5552 463.4884 L 407.3548 463.6219 L 407.5446 465.0704 L 406.3776 465.279 L 405.9141 466.7104 L 404.8868 466.1138 L 403.6362 469.1041 L 401.8105 469.4693 L 400.4369 471.3532 L 399.2923 470.3504 L 398.9294 472.1823 L 400.0014 472.6689 L 400.3533 475.353 L 397.7905 474.756 L 397.7512 476.7909 L 399.1526 476.3676 L 399.8228 477.2202 L 401.0734 477.1098 L 401.9445 478.9189 L 402.9271 479.5508 L 402.8937 482.9259 L 400.6937 482.9145 L 400.4817 485.2979 L 394.016 485.5474 L 394.5185 487.5658 L 394.781 492.9782 L 392.916 493.1872 L 392.5812 487.7805 L 391.2356 488.3547 L 389.5269 488.1632 L 389.3317 485.9361 L 386.4226 486.1796 L 385.9313 482.9085 L 386.5846 482.6707 L 386.2776 480.8904 L 383.5527 480.6586 L 383.2513 478.8086 L 379.527 478.1247 L 379.0916 480.0613 L 375.9147 480.3222 L 375.5406 481.4009 L 374.4855 481.4009 L 374.195 486.6552 L 373.1788 486.7189 L 371.2304 490.7736 L 370.2644 491.4756 L 368.7903 489.747 L 367.0987 484.0451 L 366.0155 483.2217 L 367.3331 482.404 L 365.4906 482.288 L 364.9713 481.1456 L 361.4986 481.9171 L 358.2824 483.3958 L 357.5119 481.6732 L 355.435 483.2972 L 355.2785 480.3165 L 355.9933 478.2522 L 355.4684 476.0953 L 353.5087 474.2167 L 353.1624 471.875 L 352.2581 471.2603 L 349.2374 471.1446 L 348.9472 471.9096 L 345.4517 472.0313 L 345.5412 474.0718 L 346.1552 474.8084 L 343.6597 476.9767 L 343.8327 478.5651 L 342.1744 480.9484 L 342.1744 485.0024 L 341.7836 488.6042 L 340.1979 488.4825 L 340.1867 487.7399 L 338.4782 487.3106 L 337.2386 487.8734 L 337.1382 486.6264 L 333.5929 486.4231 L 331.7223 491.7889 L 329.9244 492.6013 L 328.0374 491.9861 L 327.8083 492.7579 L 324.0061 492.7056 L 322.5822 494.2082 L 320.712 494.4869 L 319.651 490.3098 L 320.7176 488.2853 L 321.4825 489.103 L 322.3144 488.2853 L 323.6766 488.4359 L 323.392 486.835 L 321.6723 486.0404 L 320.5221 486.2202 L 320.2653 484.5093 L 316.6807 484.8803 L 316.8537 486.0522 L 315.3463 485.8956 L 313.5428 487.3918 L 312.7333 486.4929 L 312.8227 485.1241 L 311.1364 482.4909 L 311.5441 479.6555 L 310.9297 476.6983 L 311.2928 474.9878 L 312.2027 475.0052 L 311.8343 471.2432 L 312.242 470.2461 L 311.1756 469.3767 L 310.8069 470.6519 L 309.2715 469.5797 L 308.624 467.6495 L 306.6977 466.3049 L 304.6987 465.9109 L 302.8731 464.4677 L 303.3812 462.6888 L 307.2335 461.7038 L 307.0216 459.3166 L 306.2622 457.4163 L 307.0942 456.4605 L 309.1935 455.7941 L 311.5553 457.2771 L 313.8666 456.2519 L 316.0888 456.3213 L 316.4295 455.0006 L 318.2495 454.7514 L 320.2485 453.2456 L 321.8955 453.0776 L 323.4366 451.8961 L 327.6911 450.4654 L 328.59 450.9053 L 329.969 449.1333 L 331.8953 449.8979 L 332.8781 449.2319 L 336.0996 451.392 L 339.1035 451.8031 L 341.5267 451.1777 L 342.9001 452.3884 L 343.8495 454.4389 L 344.9103 454.2416 L 344.592 453.0313 L 346.7808 453.5176 L 346.8924 451.8726 L 347.8079 450.9285 L 349.0809 450.9808 L 349.0977 449.1158 L 350.929 448.9478 L 350.6332 448.0329 L 355.8034 446.5157 L 357.4561 446.4174 Z" fill="#FFF" fill-opacity="1" stroke="#666" stroke-width="1" paint-order="fill" stroke-opacity="1" stroke-dasharray="" stroke-linecap="butt" stroke-linejoin="miter" stroke-miterlimit="10" transform="matrix(1,0,0,1,0,0)" clip-path="none"></path>
        <path d="M 332.8781 449.2319 L 331.2925 446.3651 L 329.2658 444.8771 L 329.0759 442.8679 L 327.49 441.6405 L 325.4689 437.3622 L 323.0681 436.4997 L 322.2808 435.7532 L 322.4092 434.4278 L 321.5941 432.8013 L 320.2875 433.5653 L 318.1716 429.9485 L 318.8583 427.7147 L 320.3323 427.1476 L 319.0537 424.6713 L 320.5109 423.445 L 321.1141 421.177 L 319.4109 419.621 L 318.5734 416.2085 L 320.0362 414.572 L 326.9096 413.4788 L 328.7521 411.9637 L 329.9637 413.4962 L 330.4995 415.2776 L 332.8279 414.0573 L 333.4644 416.9778 L 334.0673 417.8165 L 335.8094 415.96 L 336.0494 413.797 L 338.0986 415.3584 L 337.7579 417.4694 L 337.8919 420.2112 L 339.193 420.9285 L 339.2095 421.958 L 341.979 423.4738 L 345.1057 427.8015 L 345.8092 429.6534 L 346.0268 432.2748 L 345.2005 433.3976 L 346.0047 434.1092 L 345.1671 434.9429 L 345.8706 435.5794 L 343.7377 436.0077 L 343.492 439.2959 L 349.9297 438.2771 L 350.3374 439.1973 L 351.7444 438.6591 L 355.2898 438.1671 L 355.8259 439.6893 L 355.8259 446.3131 L 357.4561 446.4174 L 355.8034 446.5157 L 350.6332 448.0329 L 350.929 448.9478 L 349.0977 449.1158 L 349.0809 450.9808 L 347.8079 450.9285 L 346.8924 451.8726 L 346.7808 453.5176 L 344.592 453.0313 L 344.9103 454.2416 L 343.8495 454.4389 L 342.9001 452.3884 L 341.5267 451.1777 L 339.1035 451.8031 L 336.0996 451.392 L 332.8781 449.2319 Z" fill="#FFF" fill-opacity="1" stroke="#666" stroke-width="1" paint-order="fill" stroke-opacity="1" stroke-dasharray="" stroke-linecap="butt" stroke-linejoin="miter" stroke-miterlimit="10" transform="matrix(1,0,0,1,0,0)" clip-path="none"></path>
        <path d="M 375.267 446.3708 L 372.1237 446.3769 L 369.1254 448.1023 L 367.0482 449.915 L 367.0373 446.4751 L 359.3544 446.562 L 357.4561 446.4174 L 355.8259 446.3131 L 355.8259 439.6893 L 355.2898 438.1671 L 351.7444 438.6591 L 350.3374 439.1973 L 349.9297 438.2771 L 343.492 439.2959 L 343.7377 436.0077 L 345.8706 435.5794 L 345.1671 434.9429 L 346.0047 434.1092 L 345.2005 433.3976 L 346.0268 432.2748 L 345.8092 429.6534 L 345.1057 427.8015 L 341.979 423.4738 L 339.2095 421.958 L 339.193 420.9285 L 337.8919 420.2112 L 337.7579 417.4694 L 338.0986 415.3584 L 336.0494 413.797 L 335.8094 415.96 L 334.0673 417.8165 L 333.4644 416.9778 L 332.8279 414.0573 L 330.4995 415.2776 L 329.9637 413.4962 L 328.7521 411.9637 L 329.5392 410.5992 L 331.4431 409.6338 L 334.235 409.4024 L 335.0947 407.3498 L 332.275 404.5286 L 332.0518 403.65 L 330.2819 402.1413 L 328.1377 401.7426 L 325.6868 399.4017 L 322.8727 398.558 L 321.2815 399.0724 L 318.8583 397.8816 L 316.4463 398.165 L 314.5533 397.5929 L 313.6656 398.3152 L 310.7736 398.6274 L 309.1543 397.9685 L 308.3391 395.42 L 306.4521 391.1442 L 307.2728 387.5449 L 305.6313 385.6158 L 305.3745 383.6344 L 302.8563 381.7804 L 301.9853 379.6035 L 301.332 379.2625 L 302.125 376.9991 L 303.2081 375.3014 L 304.8272 374.1872 L 305.084 373.0267 L 306.8261 372.282 L 307.6858 370.7349 L 307.9985 368.5356 L 309.076 368.6741 L 310.8294 366.8211 L 312.2532 367.1504 L 313.928 366.4634 L 315.5807 368.3394 L 316.5467 367.6178 L 318.5344 368.4779 L 322.3702 368.1949 L 323.5818 368.6627 L 323.7717 366.4288 L 329.0535 366.2786 L 333.5536 365.2861 L 332.9785 363.901 L 334.1455 364.0857 L 333.3024 361.4137 L 333.0511 359.1347 L 334.7708 358.5114 L 336.4515 357.196 L 337.1663 355.0441 L 337.06 353.3481 L 339.5614 354.2132 L 340.1533 352.6444 L 342.2583 352.3211 L 342.5373 354.8881 L 343.1906 356.169 L 343.358 358.6904 L 344.9437 359.5961 L 345.8036 358.6612 L 350.7002 361.0097 L 354.24 361.1425 L 353.7041 367.3291 L 352.8497 367.4794 L 353.2574 369.3034 L 352.4925 371.1795 L 353.9497 372.126 L 355.7589 371.7106 L 356.5961 372.4379 L 357.5845 371.5718 L 357.1712 369.7765 L 358.5895 370.2614 L 358.7403 372.5995 L 357.2382 373.4888 L 359.0976 375.9194 L 361.2583 375.6076 L 361.1969 376.6296 L 363.0116 381.2379 L 365.8033 380.0307 L 369.1644 387.9841 L 369.9795 387.1867 L 370.9009 388.0532 L 373.2627 387.678 L 375.3062 390.1215 L 376.8694 389.2782 L 376.5904 387.0657 L 378.7456 388.6541 L 379.1308 390.0175 L 379.9572 389.8904 L 379.7729 388.3999 L 380.9175 388.1169 L 380.8393 386.9674 L 383.6755 386.1298 L 385.2054 386.1586 L 385.239 385.0786 L 387.7458 385.269 L 387.9636 386.2683 L 390.2528 385.991 L 390.4984 387.7068 L 389.5437 388.6253 L 387.6734 389.0354 L 387.8689 390.2835 L 386.3724 390.6067 L 386.9587 392.9121 L 388.7005 393.4439 L 388.9072 394.4086 L 391.1237 394.3741 L 392.5812 394.9344 L 392.475 396.6047 L 393.7704 397.9336 L 389.3931 398.5292 L 381.9615 400.1243 L 388.818 412.1314 L 390.0574 417.4694 L 389.9791 419.3433 L 389.8451 420.9573 L 387.1707 421.0556 L 387.5952 427.929 L 383.3853 429.5316 L 382.2685 427.1244 L 382.3748 429.6242 L 379.4435 430.2838 L 377.1599 429.5316 L 375.8421 430.145 L 377.2045 431.4991 L 377.6288 437.1597 L 377.8186 445.7802 L 378.3379 446.1569 L 375.267 446.3708 Z" fill="#FFF" fill-opacity="1" stroke="#666" stroke-width="1" paint-order="fill" stroke-opacity="1" stroke-dasharray="" stroke-linecap="butt" stroke-linejoin="miter" stroke-miterlimit="10" transform="matrix(1,0,0,1,0,0)" clip-path="none"></path>
        <path d="M 328.7521 411.9637 L 326.9096 413.4788 L 320.0362 414.572 L 318.5734 416.2085 L 319.4109 419.621 L 321.1141 421.177 L 320.5109 423.445 L 319.0537 424.6713 L 320.3323 427.1476 L 318.8583 427.7147 L 318.1716 429.9485 L 320.2875 433.5653 L 321.5941 432.8013 L 322.4092 434.4278 L 322.2808 435.7532 L 323.0681 436.4997 L 325.4689 437.3622 L 327.49 441.6405 L 329.0759 442.8679 L 329.2658 444.8771 L 331.2925 446.3651 L 332.8781 449.2319 L 331.8953 449.8979 L 329.969 449.1333 L 328.59 450.9053 L 327.6911 450.4654 L 323.4366 451.8961 L 321.8955 453.0776 L 320.2485 453.2456 L 318.2495 454.7514 L 316.4295 455.0006 L 316.0888 456.3213 L 313.8666 456.2519 L 311.5553 457.2771 L 309.1935 455.7941 L 307.0942 456.4605 L 306.2622 457.4163 L 307.0216 459.3166 L 307.2335 461.7038 L 303.3812 462.6888 L 302.8731 464.4677 L 300.5169 463.9811 L 299.4449 464.8504 L 297.1165 464.4851 L 296.374 465.3545 L 293.895 466.3512 L 293.1859 466.044 L 292.7392 463.3029 L 290.3887 463.2161 L 285.9553 466.5079 L 284.085 463.3435 L 285.1236 459.5252 L 284.7549 457.793 L 286.3798 456.8485 L 287.5465 454.0679 L 285.6595 453.6511 L 281.9464 455.7304 L 282.0247 456.5299 L 279.9366 456.7211 L 279.6909 455.1743 L 277.9544 456.6631 L 276.0393 457.0514 L 274.8891 455.4524 L 268.9094 453.703 L 267.4185 450.8651 L 271.1427 445.8557 L 273.5883 444.5702 L 273.7838 441.3219 L 272.5722 438.9948 L 271.1595 438.9079 L 269.021 440.1524 L 262.6338 440.2336 L 258.9432 439.0759 L 255.9337 439.5448 L 254.4038 440.7836 L 253.1252 443.2442 L 251.1431 444.7439 L 246.9668 446.2782 L 245.2359 444.9985 L 244.2588 445.3751 L 242.07 441.461 L 239.9036 440.2624 L 237.8435 440.3205 L 236.7102 438.2305 L 234.1751 437.3391 L 232.9747 437.8022 L 228.0111 437.8948 L 226.7104 436.2451 L 224.5998 437.7559 L 221.4338 438.9428 L 221.2384 439.8167 L 216.5317 442.4279 L 213.9579 442.7985 L 213.4162 443.5859 L 210.6357 443.4062 L 205.9904 445.3345 L 205.3258 446.5851 L 203.5279 447.7029 L 202.35 450.0136 L 200.4573 450.2222 L 199.5191 450.9634 L 196.1358 451.4557 L 194.5333 453.9811 L 193.4221 453.7842 L 192.1715 455.3541 L 189.7596 455.2035 L 187.6546 456.9934 L 187.3529 458.3027 L 185.8567 460.3422 L 184.9802 465.2502 L 183.5117 466.2701 L 182.6966 468.5651 L 181.3061 470.449 L 180.5917 473.1733 L 179.1288 474.2285 L 178.1015 475.9272 L 175.4436 476.3619 L 173.2828 476.101 L 171.7308 474.9821 L 167.6101 472.7444 L 167.1747 471.5735 L 164.1206 469.8926 L 162.9258 470.1766 L 161.8651 468.281 L 158.6601 467.1743 L 157.7222 464.7749 L 159.0454 463.8536 L 160.7594 459.9018 L 160.6422 456.5531 L 162.0883 455.9564 L 162.5795 453.7899 L 161.809 453.8942 L 159.2352 452.2029 L 157.4653 451.8206 L 157.1973 450.8651 L 160.9325 445.6126 L 160.1619 444.321 L 155.818 439.5967 L 153.4509 438.8385 L 151.3905 436.7428 L 149.6319 432.4656 L 147.4151 431.4297 L 145.2992 430.9377 L 143.25 429.4679 L 142.0552 428.0735 L 140.6482 427.8535 L 139.9949 426.945 L 138.359 426.5171 L 137.6387 427.1013 L 135.0703 427.3038 L 134.4282 425.4004 L 135.2769 421.9811 L 134.339 420.3732 L 135.4667 416.9372 L 135.7012 415.2082 L 137.9177 412.681 L 139.8107 411.5358 L 141.5303 412.0331 L 141.2233 408.9225 L 139.5202 407.0144 L 139.3472 405.7542 L 141.9938 402.2282 L 142.6469 399.0549 L 144.283 398.1764 L 146.3543 398.2746 L 149.0624 396.7549 L 151.8484 394.0562 L 151.6698 393.2068 L 155.0421 390.9477 L 157.5713 387.233 L 157.3759 386.3203 L 158.7773 385.8005 L 162.0826 382.5486 L 164.9023 381.9424 L 166.6052 382.6063 L 168.7157 381.4166 L 169.5979 380.2155 L 169.1344 376.9991 L 171.7196 374.7703 L 172.881 375.2612 L 175.131 373.7369 L 175.7562 375.3246 L 177.2247 375.85 L 179.0058 375.3132 L 179.458 370.4059 L 179.9998 370.8331 L 180.1114 368.2355 L 181.2503 366.908 L 183.3497 366.8906 L 185.8177 367.9297 L 187.1967 367.3697 L 188.1739 368.2298 L 189.888 367.6755 L 191.0828 368.4085 L 193.1597 367.7969 L 192.6684 366.6193 L 193.3887 364.5475 L 196.119 362.8968 L 196.9007 364.0281 L 202.4896 363.0181 L 203.1651 362.4005 L 204.7118 363.1623 L 206.342 362.6661 L 207.442 364.5186 L 208.7652 363.9932 L 211.4063 364.4549 L 211.1326 363.728 L 209.4575 363.4738 L 208.1175 362.4988 L 210.5073 361.8235 L 212.428 362.1467 L 214.8176 363.7739 L 217.2966 363.5721 L 219.1615 362.5621 L 221.3335 360.606 L 222.8297 357.8478 L 221.4117 355.1651 L 222.6903 351.5138 L 224.7952 351.7387 L 226.3974 350.6946 L 227.6817 346.9055 L 231.4171 346.0116 L 231.3947 348.9642 L 232.1708 349.4893 L 235.4425 353.827 L 236.6376 355.0729 L 240.8306 355.3036 L 242.6395 356.238 L 244.4318 357.8596 L 244.0243 356.1458 L 247.2683 357.2651 L 249.1276 356.4691 L 249.9817 357.1326 L 252.2877 356.7172 L 253.7785 358.2689 L 254.6828 358.4135 L 256.6706 360.1211 L 261.7012 360.2482 L 262.7731 361.1713 L 263.3317 360.4387 L 267.3069 361.7544 L 270.5508 365.1936 L 274.3754 371.3931 L 273.1249 372.8419 L 275.6484 373.6675 L 276.726 375.4399 L 276.9214 373.7889 L 278.2839 373.194 L 278.1611 376.0173 L 277.7256 376.7161 L 279.3615 379.5284 L 279.892 382.7565 L 282.2033 381.4917 L 282.9404 380.5561 L 284.6601 379.9154 L 287.5746 380.412 L 289.6515 381.2204 L 290.3606 380.9317 L 293.8504 383.0801 L 296.5358 380.3714 L 297.34 381.2724 L 298.4007 379.5398 L 299.9696 379.9036 L 301.332 379.2625 L 301.9853 379.6035 L 302.8563 381.7804 L 305.3745 383.6344 L 305.6313 385.6158 L 307.2728 387.5449 L 306.4521 391.1442 L 308.3391 395.42 L 309.1543 397.9685 L 310.7736 398.6274 L 313.6656 398.3152 L 314.5533 397.5929 L 316.4463 398.165 L 318.8583 397.8816 L 321.2815 399.0724 L 322.8727 398.558 L 325.6868 399.4017 L 328.1377 401.7426 L 330.2819 402.1413 L 332.0518 403.65 L 332.275 404.5286 L 335.0947 407.3498 L 334.235 409.4024 L 331.4431 409.6338 L 329.5392 410.5992 L 328.7521 411.9637 Z" fill="#FFF" fill-opacity="1" stroke="#666" stroke-width="1" paint-order="fill" stroke-opacity="1" stroke-dasharray="" stroke-linecap="butt" stroke-linejoin="miter" stroke-miterlimit="10" transform="matrix(1,0,0,1,0,0)" clip-path="none"></path>
        <path d="M 302.8731 464.4677 L 304.6987 465.9109 L 306.6977 466.3049 L 308.624 467.6495 L 309.2715 469.5797 L 310.8069 470.6519 L 311.1756 469.3767 L 312.242 470.2461 L 311.8343 471.2432 L 312.2027 475.0052 L 311.2928 474.9878 L 310.9297 476.6983 L 311.5441 479.6555 L 311.1364 482.4909 L 312.8227 485.1241 L 312.7333 486.4929 L 313.5428 487.3918 L 315.3463 485.8956 L 316.8537 486.0522 L 316.6807 484.8803 L 320.2653 484.5093 L 320.5221 486.2202 L 321.6723 486.0404 L 323.392 486.835 L 323.6766 488.4359 L 322.3144 488.2853 L 321.4825 489.103 L 320.7176 488.2853 L 319.651 490.3098 L 320.712 494.4869 L 322.5822 494.2082 L 324.0061 492.7056 L 327.8083 492.7579 L 328.0374 491.9861 L 329.9244 492.6013 L 331.7223 491.7889 L 333.5929 486.4231 L 337.1382 486.6264 L 337.2386 487.8734 L 338.4782 487.3106 L 340.1867 487.7399 L 340.1979 488.4825 L 341.7836 488.6042 L 342.1744 485.0024 L 342.1744 480.9484 L 343.8327 478.5651 L 343.6597 476.9767 L 346.1552 474.8084 L 345.5412 474.0718 L 345.4517 472.0313 L 348.9472 471.9096 L 349.2374 471.1446 L 352.2581 471.2603 L 353.1624 471.875 L 353.5087 474.2167 L 355.4684 476.0953 L 355.9933 478.2522 L 355.2785 480.3165 L 355.435 483.2972 L 355.4572 487.0497 L 356.0379 488.1169 L 355.6918 490.884 L 356.2111 493.9124 L 355.6918 495.5371 L 355.5354 498.9488 L 353.4136 501.5952 L 354.5024 504.8052 L 354.6199 506.4477 L 353.8995 507.8528 L 353.7041 509.8673 L 351.4595 511.8469 L 350.2089 514.2801 L 350.8511 515.064 L 349.9409 519.1464 L 347.3503 524.0953 L 348.5283 525.8265 L 347.3781 527.9994 L 347.864 528.9812 L 346.2167 533.6646 L 345.8148 536.6983 L 346.7194 542.052 L 346.8868 545.2843 L 346.5071 549.1393 L 347.8584 553.0124 L 347.7131 554.1815 L 348.6455 554.8739 L 348.3774 557.689 L 347.3335 559.5273 L 343.8439 559.952 L 343.3468 557.9973 L 342.1408 556.8745 L 340.7172 556.9735 L 340.84 555.9439 L 339.1649 556.5139 L 339.2151 555.7983 L 337.5235 555.2576 L 335.5582 555.5776 L 335.5189 557.0432 L 332.4761 557.8752 L 328.8079 557.9275 L 328.2272 561.6041 L 325.3349 562.3314 L 325.2401 563.0993 L 323.0903 563.5065 L 323.0738 562.8956 L 320.7288 562.5058 L 320.712 560.9527 L 319.4221 561.2784 L 318.6628 562.4652 L 316.6583 562.3545 L 316.5298 560.3649 L 315.3463 559.1257 L 315.5193 560.5162 L 314.6652 560.8711 L 298.758 562.0114 L 297.0831 561.8836 L 297.0551 561.063 L 294.8944 560.7081 L 295.2852 556.5082 L 293.8 557.014 L 292.0301 556.2697 L 291.9407 558.0613 L 291.109 558.067 L 290.316 560.1382 L 286.9995 560.1844 L 287.4686 558.003 L 285.8047 556.8396 L 285.8773 554.2338 L 282.5271 553.5592 L 282.1643 555.2519 L 282.4492 561.6913 L 281.4942 562.4069 L 279.9811 562.3488 L 279.6295 564.6239 L 278.5127 564.3039 L 276.9495 565.9329 L 276.2628 564.0942 L 275.0456 563.9953 L 274.7049 561.5287 L 273.0859 561.0399 L 273.1136 560.0741 L 271.7122 560.0449 L 271.7568 558.5384 L 270.9195 558.4974 L 270.7073 556.2697 L 269.5904 555.6065 L 269.6519 554.3794 L 268.0384 554.2163 L 267.9266 552.9893 L 264.9173 552.3264 L 264.303 551.7273 L 263.3987 555.5776 L 264.1636 556.1942 L 263.9177 557.7121 L 265.7493 558.0902 L 264.7275 561.2143 L 264.99 561.6913 L 263.6833 563.8151 L 260.5176 562.733 L 258.9208 563.4602 L 259.8253 565.5954 L 259.7303 567.6089 L 258.5801 567.8243 L 258.2955 569.5878 L 257.2011 569.4305 L 257.0337 570.4956 L 254.454 570.2396 L 254.1916 571.2115 L 252.6003 571.1182 L 252.5165 569.8787 L 251.4445 570.3386 L 249.6971 568.0453 L 248.5971 569.6633 L 247.5809 569.7217 L 247.1732 572.2125 L 246.1405 572.8237 L 242.5447 572.9166 L 242.4665 575.0006 L 241.3777 575.4431 L 240.959 576.7527 L 240.0155 576.6712 L 240.1717 578.7498 L 241.3219 579.6462 L 241.4113 580.9388 L 240.1605 581.0263 L 240.797 582.5866 L 242.7569 583.0352 L 242.5447 585.1141 L 240.6128 584.2405 L 232.9301 583.7981 L 230.881 583.9376 L 228.9883 582.6973 L 228.6199 583.0932 L 226.1855 581.9754 L 227.0956 583.7165 L 226.5371 584.4616 L 225.6272 582.3364 L 224.0581 582.6682 L 222.2044 582.121 L 219.9152 578.092 L 219.2619 574.7037 L 218.5418 573.6268 L 218.631 571.4735 L 215.3313 570.4838 L 215.3815 571.9914 L 213.9523 572.137 L 213.5838 568.1329 L 212.7519 566.1194 L 210.8982 565.1882 L 207.8441 565.1067 L 206.0686 564.205 L 206.6883 562.9131 L 207.8104 562.4944 L 207.6262 559.4109 L 206.4314 559.0268 L 206.6437 556.3743 L 205.3202 554.5364 L 205.3258 552.367 L 204.2651 550.7152 L 201.0489 548.9883 L 199.5025 546.5926 L 199.5303 548.5928 L 198.9218 550.1278 L 196.7776 551.9946 L 194.9074 551.6689 L 193.1207 552.4019 L 192.5902 550.8373 L 190.7477 550.6455 L 190.1782 552.844 L 188.4139 552.2392 L 186.4094 550.5757 L 184.8237 551.6226 L 182.8974 552.0121 L 181.429 551.7155 L 181.1444 552.8205 L 179.4693 553.216 L 177.7776 555.7927 L 173.9752 555.0248 L 174.5113 553.2509 L 172.747 552.1577 L 172.0267 550.0232 L 169.341 548.6744 L 168.6375 547.0169 L 167.0631 545.3484 L 165.2318 546.2262 L 163.6683 547.9531 L 163.836 548.9591 L 162.9536 551.0004 L 161.2563 552.4019 L 159.6763 553.0359 L 159.8159 554.4897 L 159.0454 555.1586 L 158.0236 550.1976 L 158.6209 547.2148 L 161.0387 544.7671 L 160.5808 544.0811 L 160.2402 540.1279 L 160.7819 537.7969 L 159.0229 537.3437 L 157.8559 536.222 L 156.5776 533.467 L 153.9253 533.3161 L 153.3614 534.4958 L 149.0512 534.1064 L 148.9059 532.7233 L 150.1399 529.5857 L 152.4737 527.5694 L 151.2453 525.9076 L 152.0438 524.2523 L 151.7926 522.9683 L 153.2944 521.2375 L 153.8249 521.5279 L 154.7295 519.5298 L 154.5899 517.7816 L 152.82 515.813 L 152.1835 515.9233 L 153.0264 513.7571 L 152.4457 511.1851 L 151.8148 504.6193 L 152.6803 502.5877 L 150.0673 501.3051 L 146.9294 501.3343 L 145.902 502.0249 L 143.5013 500.4347 L 138.5433 497.6723 L 137.2759 493.692 L 137.5437 491.528 L 136.3433 490.7679 L 135.3049 491.586 L 134.819 490.3098 L 136.4103 489.4568 L 137.1864 487.1365 L 139.671 485.9361 L 142.1725 487.2469 L 143.5125 487.1832 L 148.342 483.7379 L 150.313 481.2966 L 152.753 482.23 L 154.0762 483.9989 L 157.1134 486.4929 L 158.4759 484.8514 L 164.4725 483.6276 L 165.3154 482.6938 L 169.4361 482.3923 L 171.4182 479.5045 L 172.5628 479.1856 L 172.5067 477.3419 L 173.2828 476.101 L 175.4436 476.3619 L 178.1015 475.9272 L 179.1288 474.2285 L 180.5917 473.1733 L 181.3061 470.449 L 182.6966 468.5651 L 183.5117 466.2701 L 184.9802 465.2502 L 185.8567 460.3422 L 187.3529 458.3027 L 187.6546 456.9934 L 189.7596 455.2035 L 192.1715 455.3541 L 193.4221 453.7842 L 194.5333 453.9811 L 196.1358 451.4557 L 199.5191 450.9634 L 200.4573 450.2222 L 202.35 450.0136 L 203.5279 447.7029 L 205.3258 446.5851 L 205.9904 445.3345 L 210.6357 443.4062 L 213.4162 443.5859 L 213.9579 442.7985 L 216.5317 442.4279 L 221.2384 439.8167 L 221.4338 438.9428 L 224.5998 437.7559 L 226.7104 436.2451 L 228.0111 437.8948 L 232.9747 437.8022 L 234.1751 437.3391 L 236.7102 438.2305 L 237.8435 440.3205 L 239.9036 440.2624 L 242.07 441.461 L 244.2588 445.3751 L 245.2359 444.9985 L 246.9668 446.2782 L 251.1431 444.7439 L 253.1252 443.2442 L 254.4038 440.7836 L 255.9337 439.5448 L 258.9432 439.0759 L 262.6338 440.2336 L 269.021 440.1524 L 271.1595 438.9079 L 272.5722 438.9948 L 273.7838 441.3219 L 273.5883 444.5702 L 271.1427 445.8557 L 267.4185 450.8651 L 268.9094 453.703 L 274.8891 455.4524 L 276.0393 457.0514 L 277.9544 456.6631 L 279.6909 455.1743 L 279.9366 456.7211 L 282.0247 456.5299 L 281.9464 455.7304 L 285.6595 453.6511 L 287.5465 454.0679 L 286.3798 456.8485 L 284.7549 457.793 L 285.1236 459.5252 L 284.085 463.3435 L 285.9553 466.5079 L 290.3887 463.2161 L 292.7392 463.3029 L 293.1859 466.044 L 293.895 466.3512 L 296.374 465.3545 L 297.1165 464.4851 L 299.4449 464.8504 L 300.5169 463.9811 L 302.8731 464.4677 Z" fill="#FFF" fill-opacity="1" stroke="#666" stroke-width="1" paint-order="fill" stroke-opacity="1" stroke-dasharray="" stroke-linecap="butt" stroke-linejoin="miter" stroke-miterlimit="10" transform="matrix(1,0,0,1,0,0)" clip-path="none"></path>
        <path d="M 481.9877 543.4531 L 480.8877 541.5522 L 481.446 538.1283 L 479.4473 537.6573 L 477.9564 537.8958 L 476.8006 536.7506 L 475.9465 534.2516 L 475.7455 531.503 L 476.4714 528.1041 L 476.1809 525.6289 L 473.4507 525.3445 L 473.2272 524.6877 L 471.3177 524.6531 L 470.0447 525.3616 L 468.5541 524.8853 L 466.7842 525.4662 L 466.1029 523.6539 L 467.052 522.2481 L 466.2481 521.0168 L 464.0092 520.4938 L 463.987 521.3535 L 462.1779 520.7437 L 462.2281 518.3974 L 461.0501 518.281 L 460.8266 516.2658 L 461.2677 515.1508 L 462.6523 515.064 L 462.6245 513.3567 L 460.38 512.9907 L 458.7553 510.314 L 458.5207 507.9047 L 456.8066 508.2475 L 455.9859 506.5466 L 454.255 506.4302 L 454.3164 507.2316 L 452.8146 507.3184 L 450.9163 509.5305 L 449.6935 509.7569 L 449.5482 511.1734 L 448.0408 512.1662 L 445.8576 512.3232 L 445.8464 511.6728 L 443.4568 511.969 L 443.105 512.7817 L 441.3909 513.1765 L 441.3407 511.2606 L 433.7809 511.0691 L 431.3019 512.1954 L 429.9338 511.7017 L 430.47 510.9819 L 429.0741 510.5234 L 429.6156 509.3735 L 431.017 509.989 L 431.6479 508.7641 L 431.877 506.442 L 430.2801 505.7396 L 430.4307 502.3207 L 431.9216 502.8722 L 431.4525 501.9494 L 429.1355 501.0093 L 430.0959 499.4946 L 427.9183 498.7402 L 428.499 494.2142 L 427.1366 493.0074 L 428.0857 491.5337 L 429.331 494.5449 L 432.5693 494.6841 L 432.424 492.8391 L 431.5195 492.0733 L 434.0041 491.9573 L 433.6971 490.6868 L 431.4247 491.5511 L 429.811 488.3604 L 431.944 487.4904 L 430.5591 485.6172 L 430.0345 483.7668 L 431.7988 482.0096 L 431.151 480.7743 L 432.9044 479.7018 L 432.5971 476.6054 L 430.6875 473.8283 L 432.3458 473.1502 L 431.1065 471.9907 L 431.9606 470.785 L 430.6374 469.1738 L 433.1722 470.0723 L 433.4346 468.339 L 437.4213 468.4782 L 440.3021 468.9015 L 442.3737 469.904 L 442.4628 471.0228 L 445.0089 470.7793 L 444.1323 471.9562 L 446.2317 472.3272 L 446.1983 471.44 L 448.2696 471.7184 L 448.2026 469.5562 L 449.0738 469.5505 L 448.9843 466.3281 L 450.7096 464.2591 L 449.7215 464.404 L 449.5931 463.0017 L 452.0665 462.9612 L 455.6732 459.224 L 453.8139 456.2807 L 455.1318 453.3264 L 454.9697 451.9363 L 456.2149 451.78 L 455.8406 448.6178 L 452.6415 448.8609 L 452.5633 446.8286 L 454.0876 445.6357 L 454.7129 443.7073 L 453.8809 442.4973 L 454.6181 440.3087 L 454.0707 437.0034 L 456.6392 437.5128 L 454.9251 434.5549 L 456.2985 434.0804 L 456.3992 431.4415 L 457.4041 430.6658 L 456.6168 428.7969 L 457.0802 427.2344 L 460.5642 428.8606 L 459.9779 426.3665 L 459.6431 420.46 L 459.107 415.8212 L 457.5603 416.1451 L 457.4599 414.5428 L 458.9227 414.3 L 459.241 413.126 L 460.1568 413.3286 L 459.8719 410.7843 L 458.5097 408.7894 L 457.2143 409.6914 L 455.355 408.5178 L 455.9859 406.9048 L 453.7861 405.4307 L 448.8281 404.6906 L 447.2871 403.3958 L 448.6997 402.916 L 449.2131 399.4825 L 451.1619 398.5174 L 452.2282 398.3266 L 452.2507 399.5982 L 453.6521 400.1126 L 453.8419 401.6152 L 454.9473 401.2051 L 455.7012 401.9737 L 457.4209 401.2051 L 458.1298 402.6152 L 462.1442 400.4593 L 462.2727 401.8291 L 463.3281 403.0199 L 464.5284 401.9217 L 465.7513 402.8522 L 466.7952 404.6674 L 469.425 404.2687 L 470.8433 404.4823 L 471.5132 406.6851 L 472.0717 406.3612 L 471.3233 403.7308 L 474.4388 403.8985 L 476.2255 402.4592 L 477.4764 400.1646 L 479.5365 401.1702 L 479.8157 402.65 L 480.441 401.6152 L 481.6414 402.0545 L 481.8035 400.9912 L 483.7298 401.7195 L 483.8077 400.6907 L 485.092 399.8004 L 487.7386 400.5925 L 487.733 401.806 L 488.9948 402.523 L 489.4025 403.9622 L 492.4732 403.9159 L 494.3325 404.4766 L 493.9865 405.4883 L 495.3988 408.5815 L 495.2984 412.2068 L 492.9981 415.9369 L 492.9142 418.0479 L 491.0885 420.3326 L 490.4801 423.3407 L 491.9485 425.2904 L 496.6887 427.5295 L 497.2192 428.2992 L 497.4202 432.3962 L 497.1634 435.1629 L 497.1132 441.5187 L 497.6658 444.4371 L 497.7886 448.2821 L 498.4251 449.915 L 500.4687 451.9018 L 502.9811 453.0833 L 503.0091 450.6102 L 504.0754 450.5985 L 504.0923 448.9189 L 505.1586 448.8901 L 505.3765 451.8843 L 506.4148 452.8284 L 508.1962 452.6547 L 509.1563 453.3901 L 511.7247 457.7812 L 512.3948 457.4106 L 514.4886 459.9598 L 515.9012 459.8032 L 517.4364 463.5752 L 519.3627 464.1259 L 519.508 465.1978 L 520.9652 465.8528 L 522.8691 465.7834 L 522.7799 464.7286 L 524.7452 464.9547 L 527.9053 469.2258 L 529.4688 469.904 L 530.5966 468.6811 L 529.3457 466.1077 L 529.3236 463.6507 L 531.3447 462.8106 L 533.2264 464.1259 L 535.4875 468.2233 L 536.2805 473.3819 L 536.0963 475.788 L 536.5261 476.7795 L 540.0213 480.2293 L 537.8662 480.4208 L 538.7985 483.2741 L 542.1431 483.8422 L 542.9357 485.7852 L 541.3891 486.0347 L 541.8526 488.4651 L 540.7974 488.8826 L 539.0609 487.4615 L 537.5925 487.3049 L 534.371 487.7225 L 532.9752 489.3931 L 534.1531 491.8238 L 531.4061 494.2548 L 530.7864 492.6767 L 529.0555 493.7789 L 528.9885 496.7731 L 530.485 496.5004 L 532.0928 500.0631 L 532.4335 501.5607 L 531.4341 501.8334 L 532.0258 503.7198 L 532.9415 503.6557 L 533.0254 505.2637 L 531.6517 505.2056 L 529.1839 505.9543 L 528.5084 507.1095 L 525.2589 507.3419 L 523.9803 509.8498 L 525.1305 511.3304 L 524.9351 513.9316 L 526.9281 517.8919 L 526.7997 518.8502 L 525.3203 519.6459 L 525.8786 520.8192 L 529.3457 519.7797 L 530.9818 522.5268 L 529.9601 522.9569 L 530.3509 524.4613 L 526.2081 525.652 L 524.0975 525.1992 L 521.4119 526.6107 L 518.9553 526.9653 L 518.0227 528.0806 L 515.2086 527.9759 L 515.5995 533.2114 L 512.3222 535.106 L 512.7577 536.2743 L 510.837 536.3149 L 511.0994 537.1287 L 509.0559 538.4188 L 509.5976 539.5059 L 508.9106 540.2325 L 512.138 544.1099 L 510.9822 544.3716 L 511.3226 545.9703 L 508.559 547.081 L 508.2797 545.9066 L 507.0906 545.2612 L 504.4663 546.8542 L 502.4284 547.6448 L 499.2069 548.2732 L 499.9606 551.2563 L 499.0392 551.0993 L 499.3911 553.4314 L 497.9953 553.373 L 497.8834 554.3384 L 496.0521 554.3794 L 495.17 552.3204 L 494.9858 550.0873 L 491.8925 547.1041 L 488.1741 544.924 L 486.9232 546.0344 L 485.2874 546.552 L 483.3221 545.2088 L 483.2383 543.86 L 481.9877 543.4531 Z" fill="#FFF" fill-opacity="1" stroke="#666" stroke-width="1" paint-order="fill" stroke-opacity="1" stroke-dasharray="" stroke-linecap="butt" stroke-linejoin="miter" stroke-miterlimit="10" transform="matrix(1,0,0,1,0,0)" clip-path="none"></path>
        <path d="M 494.3325 404.4766 L 492.4732 403.9159 L 489.4025 403.9622 L 488.9948 402.523 L 487.733 401.806 L 487.7386 400.5925 L 485.092 399.8004 L 483.8077 400.6907 L 483.7298 401.7195 L 481.8035 400.9912 L 481.6414 402.0545 L 480.441 401.6152 L 479.8157 402.65 L 479.5365 401.1702 L 477.4764 400.1646 L 476.2255 402.4592 L 474.4388 403.8985 L 471.3233 403.7308 L 472.0717 406.3612 L 471.5132 406.6851 L 470.8433 404.4823 L 469.425 404.2687 L 466.7952 404.6674 L 465.7513 402.8522 L 464.5284 401.9217 L 463.3281 403.0199 L 462.2727 401.8291 L 462.1442 400.4593 L 458.1298 402.6152 L 457.4209 401.2051 L 455.7012 401.9737 L 454.9473 401.2051 L 453.8419 401.6152 L 453.6521 400.1126 L 452.2507 399.5982 L 452.2282 398.3266 L 451.1619 398.5174 L 449.459 390.7801 L 450.7208 390.0813 L 449.403 378.7257 L 449.2524 376.2081 L 448.0464 372.6515 L 448.13 376.3409 L 447.3819 377.5128 L 443.2334 378.1771 L 442.6863 373.0555 L 441.5529 371.2485 L 441.62 375.4054 L 442.6417 382.4101 L 435.5953 388.3537 L 434.5346 387.3024 L 433.3062 388.4807 L 430.9556 385.8525 L 428.7166 384.2353 L 425.5007 384.5585 L 423.5856 383.1609 L 421.5979 381.0125 L 418.2143 380.7815 L 417.2206 379.8171 L 414.7136 379.1703 L 414.0381 377.8076 L 412.9213 377.5246 L 412.8321 375.8269 L 414.6634 374.9148 L 416.6733 375.111 L 418.9179 373.4368 L 419.694 369.915 L 418.3652 365.2456 L 417.7063 359.7634 L 417.0529 359.5672 L 416.6455 357.1497 L 419.3143 356.5901 L 419.7218 353.7461 L 417.6729 352.5059 L 415.8806 352.6789 L 415.6125 351.3984 L 416.6511 348.422 L 417.3266 348.4914 L 417.8123 346.7037 L 419.1413 345.0832 L 418.5662 343.8836 L 418.5772 341.3525 L 417.6392 339.6804 L 414.3676 336.6193 L 414.7582 330.884 L 415.8974 329.4608 L 417.4438 329.4665 L 416.7291 324.8162 L 416.9971 322.2756 L 420.0961 320.213 L 422.0502 320.0635 L 422.5807 317.1832 L 423.3678 316.5901 L 424.2333 317.7649 L 428.1752 317.955 L 428.7668 316.6015 L 431.3128 316.5841 L 432.4798 314.5222 L 431.6367 310.9577 L 432.6977 311.7523 L 434.1213 311.2973 L 435.7072 312.1496 L 439.448 310.658 L 439.2301 312.3108 L 440.6038 312.4087 L 440.52 313.9177 L 443.8141 314.0961 L 444.5344 314.8565 L 445.3776 313.7045 L 446.0306 315.5994 L 448.3815 315.1559 L 448.6773 317.4367 L 449.7103 318.4448 L 449.4868 320.1614 L 452.0107 320.0058 L 454.3612 320.4665 L 454.8301 319.6833 L 454.7911 316.8664 L 457.8898 316.5552 L 458.3645 317.6211 L 459.5536 317.264 L 459.9779 318.0874 L 461.4298 317.0219 L 466.3376 316.3306 L 467.0299 319.5103 L 468.0516 321.78 L 466.84 324.7127 L 467.2309 326.0205 L 468.8499 324.6895 L 469.3359 326.1936 L 470.9047 326.2281 L 472.697 323.8772 L 474.4444 323.0477 L 474.2546 321.319 L 476.3988 320.0806 L 476.421 318.1048 L 478.068 318.416 L 485.4326 308.3896 L 485.5779 308.4932 L 486.1474 308.8848 L 485.4102 310.3931 L 486.6499 310.2781 L 489.2685 311.5508 L 491.9037 313.8483 L 493.4893 313.4742 L 494.3047 314.7586 L 494.8016 313.6814 L 497.3252 312.3567 L 497.6212 310.1514 L 498.615 309.4373 L 498.6764 306.593 L 500.4017 307.3128 L 502.0263 306.6795 L 504.4386 307.8136 L 505.0302 309.1034 L 508.5812 308.0497 L 508.4362 306.0405 L 509.1397 303.4268 L 509.9102 303.1161 L 509.6141 301.2624 L 512.1212 299.2077 L 514.9518 298.8449 L 516.4371 301.7113 L 517.1406 305.3609 L 517.7493 306.0807 L 520.915 306.0576 L 521.0266 309.4259 L 522.255 311.9652 L 521.6967 314.1249 L 523.2042 315.5994 L 523.5726 317.3502 L 524.8624 318.7616 L 524.9909 319.9538 L 526.5039 322.1602 L 527.0622 324.1826 L 529.0387 325.3175 L 526.9562 326.5218 L 528.7597 328.1928 L 530.3341 328.2216 L 530.8702 330.4576 L 532.2882 331.2703 L 532.7127 330.5038 L 534.4546 331.2646 L 535.3647 329.2589 L 536.8665 327.5303 L 537.9721 327.8069 L 539.5132 329.9161 L 538.7259 334.6767 L 536.4981 334.3079 L 536.822 335.9102 L 539.1335 341.1563 L 540.8308 340.8737 L 541.914 343.2898 L 540.803 343.336 L 540.6802 345.0889 L 542.288 347.4071 L 545.1357 347.1362 L 544.9235 348.422 L 546.9278 351.4273 L 547.8102 353.9882 L 549.3344 355.7422 L 547.2684 359.6769 L 546.6821 363.4047 L 546.1351 364.126 L 547.6874 365.4072 L 547.0452 367.3466 L 547.6091 369.0436 L 548.8821 370.0478 L 548.1506 372.7092 L 546.7214 373.5984 L 548.7201 375.7923 L 549.9151 376.2138 L 550.4288 377.6517 L 550.2499 380.6199 L 551.6068 381.7345 L 550.691 384.4663 L 550.1495 384.2872 L 549.5576 386.5282 L 548.1898 386.0259 L 547.4359 386.9155 L 545.2028 387.0137 L 545.1077 391.3464 L 540.6578 394.8824 L 540.5908 392.3172 L 538.6199 392.9295 L 538.9381 391.5141 L 537.0342 391.1093 L 536.0739 390.0752 L 535.024 392.733 L 533.3714 393.7152 L 532.3777 390.9071 L 530.2895 391.3233 L 528.9383 392.6404 L 525.9734 393.2645 L 523.433 393.1954 L 521.5291 394.8479 L 519.9824 394.7265 L 517.308 391.1556 L 515.2756 390.0581 L 515.0858 391.1442 L 510.2843 391.4041 L 510.3457 392.3692 L 507.9447 393.0854 L 508.0565 395.4488 L 507.4312 395.8244 L 507.2134 399.5345 L 505.9572 398.6274 L 502.7747 398.1824 L 501.9427 399.3611 L 499.0785 398.1244 L 499.2627 397.3558 L 496.9455 397.2344 L 495.9518 398.0781 L 495.8623 399.9449 L 494.3325 404.4766 Z M 442.6417 382.4101 L 443.5126 385.4769 L 443.507 383.3513 L 444.8973 383.1666 L 445.8408 389.6363 L 445.2604 391.6412 L 446.1257 391.1905 L 446.3379 394.2758 L 448.4261 394.8885 L 448.3201 392.8369 L 448.9117 392.6636 L 448.0798 390.9246 L 449.459 390.7801 L 451.1619 398.5174 L 449.2131 399.4825 L 448.6997 402.916 L 447.2871 403.3958 L 442.5523 399.8353 L 442.8147 397.8471 L 440.5926 398.0842 L 438.9287 395.5125 L 435.3273 393.4322 L 434.2051 392.2015 L 435.8634 390.0926 L 435.5953 388.3537 L 442.6417 382.4101 Z" fill="#FFF" fill-opacity="1" stroke="#666" stroke-width="1" paint-order="fill" stroke-opacity="1" stroke-dasharray="" stroke-linecap="butt" stroke-linejoin="miter" stroke-miterlimit="10" transform="matrix(1,0,0,1,0,0)" clip-path="none"></path>
        <path d="M 392.5812 394.9344 L 391.1237 394.3741 L 388.9072 394.4086 L 388.7005 393.4439 L 386.9587 392.9121 L 386.3724 390.6067 L 387.8689 390.2835 L 387.6734 389.0354 L 389.5437 388.6253 L 390.4984 387.7068 L 390.2528 385.991 L 387.9636 386.2683 L 387.7458 385.269 L 385.239 385.0786 L 385.2054 386.1586 L 383.6755 386.1298 L 380.8393 386.9674 L 380.9175 388.1169 L 379.7729 388.3999 L 379.9572 389.8904 L 379.1308 390.0175 L 378.7456 388.6541 L 376.5904 387.0657 L 376.8694 389.2782 L 375.3062 390.1215 L 373.2627 387.678 L 370.9009 388.0532 L 369.9795 387.1867 L 369.1644 387.9841 L 365.8033 380.0307 L 363.0116 381.2379 L 361.1969 376.6296 L 361.2583 375.6076 L 359.0976 375.9194 L 357.2382 373.4888 L 358.7403 372.5995 L 358.5895 370.2614 L 357.1712 369.7765 L 357.5845 371.5718 L 356.5961 372.4379 L 355.7589 371.7106 L 353.9497 372.126 L 352.4925 371.1795 L 353.2574 369.3034 L 352.8497 367.4794 L 353.7041 367.3291 L 354.24 361.1425 L 350.7002 361.0097 L 345.8036 358.6612 L 344.9437 359.5961 L 343.358 358.6904 L 343.1906 356.169 L 342.5373 354.8881 L 342.2583 352.3211 L 340.1533 352.6444 L 339.5614 354.2132 L 337.06 353.3481 L 337.1663 355.0441 L 336.4515 357.196 L 334.7708 358.5114 L 333.0511 359.1347 L 333.3024 361.4137 L 334.1455 364.0857 L 332.9785 363.901 L 333.5536 365.2861 L 329.0535 366.2786 L 323.7717 366.4288 L 323.5818 368.6627 L 322.3702 368.1949 L 318.5344 368.4779 L 316.5467 367.6178 L 315.5807 368.3394 L 313.928 366.4634 L 312.2532 367.1504 L 310.8294 366.8211 L 309.076 368.6741 L 307.9985 368.5356 L 307.6858 370.7349 L 306.8261 372.282 L 305.084 373.0267 L 304.8272 374.1872 L 303.2081 375.3014 L 302.125 376.9991 L 301.332 379.2625 L 299.9696 379.9036 L 298.4007 379.5398 L 297.34 381.2724 L 296.5358 380.3714 L 293.8504 383.0801 L 290.3606 380.9317 L 289.6515 381.2204 L 287.5746 380.412 L 284.6601 379.9154 L 282.9404 380.5561 L 282.2033 381.4917 L 279.892 382.7565 L 279.3615 379.5284 L 277.7256 376.7161 L 278.1611 376.0173 L 278.2839 373.194 L 276.9214 373.7889 L 276.726 375.4399 L 275.6484 373.6675 L 273.1249 372.8419 L 274.3754 371.3931 L 270.5508 365.1936 L 267.3069 361.7544 L 263.3317 360.4387 L 262.7731 361.1713 L 261.7012 360.2482 L 256.6706 360.1211 L 254.6828 358.4135 L 253.7785 358.2689 L 252.2877 356.7172 L 249.9817 357.1326 L 249.1276 356.4691 L 249.1834 354.7497 L 247.3687 351.5426 L 246.7434 349.8178 L 247.3967 349.3045 L 249.3564 345.5734 L 247.7262 344.1837 L 249.7027 342.3959 L 251.7238 343.382 L 253.6557 343.3877 L 254.56 341.0353 L 255.2635 340.5971 L 255.526 338.1298 L 257.9324 336.0601 L 257.0895 335.0167 L 257.5976 334.1463 L 257.0727 332.6939 L 259.278 329.3974 L 259.4457 328.4121 L 261.1763 326.1473 L 261.0703 325.4673 L 263.3707 326.2858 L 264.7777 326.1587 L 266.0227 323.3414 L 266.1177 321.6764 L 271.1483 318.6463 L 272.9852 319.3665 L 275.0063 318.4388 L 277.6028 318.2661 L 279.099 317.2811 L 279.9755 315.5531 L 279.4731 315.075 L 281.9801 313.163 L 283.4261 311.0556 L 282.6278 309.3739 L 283.2699 308.0842 L 282.5886 306.5239 L 283.6717 303.5536 L 285.6984 303.0121 L 285.0566 301.481 L 281.751 299.737 L 281.9857 298.7357 L 281.1425 296.0707 L 282.851 295.5243 L 283.6661 294.2178 L 286.5194 292.5148 L 288.0325 293.7689 L 290.3104 291.036 L 292.7782 290.4949 L 295.3522 294.189 L 295.2684 295.5414 L 296.5972 298.4363 L 298.987 298.3038 L 299.6235 296.8365 L 301.9295 297.2046 L 303.4928 294.9373 L 302.5268 293.2741 L 304.7826 289.7299 L 306.5468 289.6723 L 307.8869 288.6541 L 309.0314 288.8268 L 310.5335 290.1212 L 311.3374 291.8644 L 314.6203 292.1521 L 315.7761 291.6113 L 317.7527 291.8644 L 319.4221 294.4079 L 319.3161 295.0177 L 320.9576 298.275 L 323.7215 298.5687 L 326.1836 296.8247 L 325.2289 294.0509 L 325.1507 291.8071 L 326.7029 289.9887 L 325.0335 289.8278 L 325.011 288.3202 L 325.8766 287.5093 L 325.2345 286.7325 L 326.9374 285.5535 L 327.6745 288.3608 L 326.9205 289.7933 L 329.0255 289.4078 L 329.8462 286.8475 L 328.5174 285.3004 L 327.1328 284.6618 L 327.9703 282.5565 L 327.8587 280.831 L 330.8122 279.244 L 333.347 279.0827 L 333.8607 278.1454 L 335.5803 277.5819 L 336.4347 278.7378 L 339.807 276.9265 L 344.1173 275.6959 L 344.7373 273.7294 L 347.6127 273.6031 L 348.8857 273.9594 L 350.1809 276.1387 L 351.4651 275.2705 L 352.8834 275.2417 L 353.302 274.4193 L 354.441 276.3228 L 355.5912 275.6728 L 355.9319 273.9135 L 357.2551 273.2179 L 358.0368 274.1548 L 360.5996 273.3959 L 363.7987 276.0408 L 365.9037 273.2236 L 365.6748 270.1995 L 366.7134 269.935 L 367.1991 272.775 L 369.0974 271.6943 L 371.8781 270.9873 L 373.9269 271.9128 L 374.7813 271.7576 L 378.3547 274.4368 L 380.4094 276.7884 L 383.1618 277.4267 L 384.4071 279.0482 L 383.6924 280.0204 L 382.4751 279.9111 L 381.4256 282.7462 L 383.2345 282.6084 L 385.4457 281.8203 L 386.9809 282.7693 L 386.2942 284.9092 L 385.6019 285.352 L 387.0423 287.7393 L 386.5959 290.4433 L 385.9759 291.5479 L 388.7061 290.6046 L 388.4215 289.5284 L 390.9563 288.9304 L 392.7876 289.166 L 394.1055 290.4262 L 397.3828 290.4145 L 397.4778 291.0129 L 399.6329 292.2097 L 401.5814 291.7035 L 402.5306 292.434 L 404.2169 292.4685 L 405.2889 291.0072 L 406.7573 294.7589 L 408.2089 295.3114 L 409.8114 297.0148 L 407.9521 300.7039 L 406.7629 301.9588 L 407.8963 302.6611 L 408.6836 305.3093 L 408.2703 307.5602 L 409.8504 308.2284 L 411.1794 307.4221 L 413.6694 308.8848 L 414.3227 309.9097 L 416.115 309.9442 L 417.5052 311.4127 L 417.5778 314.3552 L 419.9733 316.1868 L 422.2678 316.0141 L 423.3678 316.5901 L 422.5807 317.1832 L 422.0502 320.0635 L 420.0961 320.213 L 416.9971 322.2756 L 416.7291 324.8162 L 417.4438 329.4665 L 415.8974 329.4608 L 414.7582 330.884 L 414.3676 336.6193 L 417.6392 339.6804 L 418.5772 341.3525 L 418.5662 343.8836 L 419.1413 345.0832 L 417.8123 346.7037 L 417.3266 348.4914 L 416.6511 348.422 L 415.6125 351.3984 L 415.8806 352.6789 L 417.6729 352.5059 L 419.7218 353.7461 L 419.3143 356.5901 L 416.6455 357.1497 L 417.0529 359.5672 L 417.7063 359.7634 L 418.3652 365.2456 L 419.694 369.915 L 418.9179 373.4368 L 416.6733 375.111 L 414.6634 374.9148 L 412.8321 375.8269 L 412.9213 377.5246 L 412.7651 380.3137 L 411.5925 380.8566 L 411.7935 382.2944 L 410.783 382.6468 L 410.7328 384.5759 L 411.6651 385.6677 L 410.9391 388.2728 L 408.8064 387.8108 L 408.8622 388.7118 L 406.5229 387.799 L 403.96 387.4584 L 399.2477 389.6939 L 397.6396 389.8271 L 396.7129 391.9124 L 397.4498 394.2182 L 396.4838 395.755 L 393.8318 396.541 L 393.2009 394.7728 L 392.5812 394.9344 Z" fill="#FFF" fill-opacity="1" stroke="#666" stroke-width="1" paint-order="fill" stroke-opacity="1" stroke-dasharray="" stroke-linecap="butt" stroke-linejoin="miter" stroke-miterlimit="10" transform="matrix(1,0,0,1,0,0)" clip-path="none"></path>
        <path d="M 481.9877 543.4531 L 481.0105 544.2786 L 479.4863 544.3484 L 477.655 545.5751 L 476.5998 544.3833 L 475.3714 544.5229 L 475.8627 548.3137 L 480.0557 550.948 L 480.067 551.6401 L 481.8368 552.7333 L 482.4007 554.4958 L 476.5384 556.3046 L 475.3602 555.2402 L 474.9416 553.6407 L 474.2156 553.6639 L 473.5959 551.5411 L 472.2111 552.5589 L 467.1583 550.8199 L 467.1748 550.2734 L 465.1316 550.1688 L 463.6407 551.0353 L 463.8751 551.7565 L 460.8993 552.3378 L 460.6368 551.2795 L 457.9792 550.3083 L 457.929 552.047 L 456.0417 552.1808 L 453.9535 551.4308 L 453.8641 549.5697 L 452.9764 549.4244 L 452.9206 547.0055 L 451.9938 547.1102 L 451.6142 545.3018 L 450.5532 545.0113 L 450.5812 543.232 L 449.0569 543.2901 L 448.5099 545.0287 L 446.7566 545.4064 L 446.3379 544.4413 L 442.9207 543.6624 L 442.9709 545.0227 L 439.381 544.9821 L 439.3922 546.2786 L 440.3691 547.8371 L 439.4256 548.0578 L 439.5596 550.471 L 438.4038 551.4133 L 437.0304 551.4888 L 434.9757 553.3965 L 433.5742 553.2627 L 433.5574 550.7387 L 432.6921 551.518 L 432.9377 554.3445 L 430.0177 553.1929 L 429.9507 552.4599 L 428.3036 553.257 L 428.4654 554.2281 L 427.4548 555.5018 L 427.9629 556.9211 L 427.0362 558.48 L 427.2204 560.1556 L 428.7559 560.1147 L 429.0517 561.6565 L 427.2204 562.0231 L 426.9524 563.9547 L 424.8642 564.3039 L 424.6018 566.0842 L 423.926 566.1718 L 424.0323 569.4479 L 419.0463 569.7274 L 418.9681 568.5868 L 414.669 568.7206 L 414.0213 568.1852 L 415.1378 571.3336 L 415.9084 572.2417 L 415.9532 574.9892 L 413.4518 575.3907 L 412.324 576.3629 L 412.3128 577.7833 L 409.4542 577.4223 L 409.4205 578.1966 L 406.0204 577.8997 L 405.0934 578.1849 L 405.7243 579.3087 L 405.8583 581.8298 L 406.4892 581.859 L 406.7797 584.1067 L 403.893 584.9742 L 403.5411 583.8735 L 401.6541 584.159 L 401.252 581.8063 L 401.4979 579.5298 L 400.8109 578.6857 L 398.0807 578.837 L 396.5564 577.5854 L 395.7859 578.051 L 395.8308 582.4994 L 397.0143 583.3089 L 397.3659 584.7703 L 400.0796 585.3469 L 401.1906 588.8296 L 400.0182 588.8413 L 399.3035 591.812 L 398.1701 592.9245 L 398.3821 594.0024 L 401.3638 592.907 L 402.3744 591.9694 L 403.0779 594.2701 L 401.8439 594.2936 L 402.6425 596.0878 L 404.0604 595.3886 L 404.7583 593.7051 L 406.8633 593.9615 L 406.8411 595.144 L 408.0973 596.0646 L 408.0637 600.0381 L 409.4931 602.7479 L 409.6774 604.2459 L 408.6054 604.4787 L 408.5216 605.9475 L 405.0208 606.8627 L 404.2615 607.9994 L 401.9221 606.5302 L 397.4666 605.3299 L 395.021 605.4057 L 392.916 604.3915 L 392.0227 605.1608 L 388.0194 604.6887 L 386.4784 604.84 L 384.9822 603.6863 L 382.0285 603.4531 L 381.7716 604.3854 L 377.5898 602.9227 L 375.2168 600.8074 L 375.0771 599.6711 L 373.7315 598.8203 L 373.7037 597.0785 L 372.3247 596.1287 L 371.7718 594.5438 L 370.2364 592.9537 L 369.7897 591.4742 L 363.8938 589.779 L 362.844 590.717 L 361.8726 589.3304 L 360.1863 589.2258 L 357.1491 587.4377 L 356.9144 585.6673 L 356.0603 584.0426 L 353.9164 582.3189 L 354.1508 580.4675 L 353.302 578.9944 L 354.0894 578.616 L 354.5638 576.846 L 353.855 576.8926 L 354.1006 573.4581 L 353.0284 568.7669 L 354.0111 567.2714 L 353.1624 566.8467 L 352.5315 564.8041 L 350.9402 564.8625 L 351.4149 563.274 L 349.5223 564.3153 L 348.5728 563.3613 L 347.3335 559.5273 L 348.3774 557.689 L 348.6455 554.8739 L 347.7131 554.1815 L 347.8584 553.0124 L 346.5071 549.1393 L 346.8868 545.2843 L 346.7194 542.052 L 345.8148 536.6983 L 346.2167 533.6646 L 347.864 528.9812 L 347.3781 527.9994 L 348.5283 525.8265 L 347.3503 524.0953 L 349.9409 519.1464 L 350.8511 515.064 L 350.2089 514.2801 L 351.4595 511.8469 L 353.7041 509.8673 L 353.8995 507.8528 L 354.6199 506.4477 L 354.5024 504.8052 L 353.4136 501.5952 L 355.5354 498.9488 L 355.6918 495.5371 L 356.2111 493.9124 L 355.6918 490.884 L 356.0379 488.1169 L 355.4572 487.0497 L 355.435 483.2972 L 357.5119 481.6732 L 358.2824 483.3958 L 361.4986 481.9171 L 364.9713 481.1456 L 365.4906 482.288 L 367.3331 482.404 L 366.0155 483.2217 L 367.0987 484.0451 L 368.7903 489.747 L 370.2644 491.4756 L 371.2304 490.7736 L 373.1788 486.7189 L 374.195 486.6552 L 374.4855 481.4009 L 375.5406 481.4009 L 375.9147 480.3222 L 379.0916 480.0613 L 379.527 478.1247 L 383.2513 478.8086 L 383.5527 480.6586 L 386.2776 480.8904 L 386.5846 482.6707 L 385.9313 482.9085 L 386.4226 486.1796 L 389.3317 485.9361 L 389.5269 488.1632 L 391.2356 488.3547 L 392.5812 487.7805 L 392.916 493.1872 L 394.781 492.9782 L 394.5185 487.5658 L 394.016 485.5474 L 400.4817 485.2979 L 400.6937 482.9145 L 402.8937 482.9259 L 402.9271 479.5508 L 401.9445 478.9189 L 401.0734 477.1098 L 399.8228 477.2202 L 399.1526 476.3676 L 397.7512 476.7909 L 397.7905 474.756 L 400.3533 475.353 L 400.0014 472.6689 L 398.9294 472.1823 L 399.2923 470.3504 L 400.4369 471.3532 L 401.8105 469.4693 L 403.1057 470.1069 L 404.9538 469.9157 L 404.8702 471.0634 L 407.338 471.3243 L 406.8019 473.3648 L 409.1581 472.6344 L 411.8381 475.1501 L 413.3567 475.6606 L 414.9034 477.3476 L 417.8403 476.2982 L 417.9407 474.8141 L 420.5371 474.1356 L 421.2965 475.2373 L 423.3288 474.4663 L 422.5246 474.0604 L 424.4846 473.1908 L 424.6074 470.9879 L 426.0924 470.2055 L 428.5492 470.2343 L 428.6833 471.2489 L 431.1065 471.9907 L 432.3458 473.1502 L 430.6875 473.8283 L 432.5971 476.6054 L 432.9044 479.7018 L 431.151 480.7743 L 431.7988 482.0096 L 430.0345 483.7668 L 430.5591 485.6172 L 431.944 487.4904 L 429.811 488.3604 L 431.4247 491.5511 L 433.6971 490.6868 L 434.0041 491.9573 L 431.5195 492.0733 L 432.424 492.8391 L 432.5693 494.6841 L 429.331 494.5449 L 428.0857 491.5337 L 427.1366 493.0074 L 428.499 494.2142 L 427.9183 498.7402 L 430.0959 499.4946 L 429.1355 501.0093 L 431.4525 501.9494 L 431.9216 502.8722 L 430.4307 502.3207 L 430.2801 505.7396 L 431.877 506.442 L 431.6479 508.7641 L 431.017 509.989 L 429.6156 509.3735 L 429.0741 510.5234 L 430.47 510.9819 L 429.9338 511.7017 L 431.3019 512.1954 L 433.7809 511.0691 L 441.3407 511.2606 L 441.3909 513.1765 L 443.105 512.7817 L 443.4568 511.969 L 445.8464 511.6728 L 445.8576 512.3232 L 448.0408 512.1662 L 449.5482 511.1734 L 449.6935 509.7569 L 450.9163 509.5305 L 452.8146 507.3184 L 454.3164 507.2316 L 454.255 506.4302 L 455.9859 506.5466 L 456.8066 508.2475 L 458.5207 507.9047 L 458.7553 510.314 L 460.38 512.9907 L 462.6245 513.3567 L 462.6523 515.064 L 461.2677 515.1508 L 460.8266 516.2658 L 461.0501 518.281 L 462.2281 518.3974 L 462.1779 520.7437 L 463.987 521.3535 L 464.0092 520.4938 L 466.2481 521.0168 L 467.052 522.2481 L 466.1029 523.6539 L 466.7842 525.4662 L 468.5541 524.8853 L 470.0447 525.3616 L 471.3177 524.6531 L 473.2272 524.6877 L 473.4507 525.3445 L 476.1809 525.6289 L 476.4714 528.1041 L 475.7455 531.503 L 475.9465 534.2516 L 476.8006 536.7506 L 477.9564 537.8958 L 479.4473 537.6573 L 481.446 538.1283 L 480.8877 541.5522 L 481.9877 543.4531 Z" fill="#FFF" fill-opacity="1" stroke="#666" stroke-width="1" paint-order="fill" stroke-opacity="1" stroke-dasharray="" stroke-linecap="butt" stroke-linejoin="miter" stroke-miterlimit="10" transform="matrix(1,0,0,1,0,0)" clip-path="none"></path>
        <path d="M 365.6748 270.1995 L 364.6419 268.6474 L 365.6412 266.331 L 365.1387 265.5549 L 366.1383 264.2275 L 365.312 262.4514 L 365.5576 260.8196 L 366.2275 261.3194 L 367.484 259.8656 L 366.8977 256.803 L 365.8871 254.4706 L 365.6524 252.6725 L 366.8752 249.4444 L 366.73 248.4277 L 368.6339 246.4349 L 370.2086 243.707 L 368.8184 242.9893 L 366.9868 240.4113 L 366.1605 236.8632 L 367.6233 236.3466 L 369.3879 236.6852 L 371.1075 234.5902 L 371.9058 234.5557 L 374.5803 231.5825 L 376.54 231.37 L 378.1649 232.1218 L 379.6779 231.4736 L 381.3642 231.967 L 383.6085 230.9453 L 385.9759 231.7662 L 386.9699 231.5252 L 389.0805 232.7647 L 389.3651 234.6532 L 388.8904 236.714 L 391.6988 238.0287 L 391.364 240.2504 L 393.3963 241.4045 L 396.8133 238.0458 L 398.7284 238.2124 L 399.527 237.6841 L 400.6769 238.6488 L 403.9264 239.4007 L 406.6121 238.1148 L 410.0124 238.4306 L 410.5373 235.7497 L 412.5862 236.2605 L 413.2897 237.001 L 417.3824 236.9782 L 418.3986 238.1376 L 419.6828 238.3904 L 423.9987 237.6268 L 424.8586 236.2893 L 426.8741 234.5557 L 426.891 232.8452 L 424.9646 231.2322 L 423.485 228.7129 L 421.8993 227.7546 L 421.1793 225.1954 L 419.6604 225.1954 L 418.728 225.9928 L 415.4507 226.5841 L 413.8592 224.8857 L 412.6644 224.943 L 411.3524 222.9634 L 412.9995 220.9325 L 413.9318 219.0279 L 416.3438 216.8999 L 417.6617 212.8163 L 420.7828 212.0193 L 421.7765 209.9492 L 423.1502 209.3583 L 424.3337 205.7347 L 425.2885 205.7233 L 426.5281 203.2467 L 428.4878 202.0887 L 430.2075 199.1312 L 430.0345 197.5033 L 431.3745 196.237 L 430.5647 193.7384 L 431.2907 190.4494 L 432.1728 189.0344 L 432.2679 186.9202 L 433.7921 186.399 L 435.5732 187.0636 L 438.1248 185.8718 L 440.1961 186.9661 L 441.5586 184.7607 L 441.5081 183.1225 L 438.8337 182.8989 L 436.1648 180.7741 L 435.4336 180.7915 L 435.2157 179.0906 L 433.7974 178.1971 L 433.5518 176.8974 L 432.4686 175.8607 L 429.6548 176.6051 L 428.9959 175.2481 L 426.6843 174.3492 L 427.1422 173.2154 L 426.3885 172.6373 L 425.3779 170.2842 L 423.3622 170.0268 L 422.1954 170.6965 L 419.8614 169.7004 L 418.3428 169.5744 L 417.3378 167.7713 L 418.7894 163.3012 L 420.8832 161.5501 L 422.4912 161.3785 L 422.0614 159.6274 L 422.2902 158.0198 L 423.3958 156.5663 L 422.6085 154.7814 L 422.8765 153.2713 L 423.6078 153.3055 L 424.6464 151.0233 L 424.3113 147.8087 L 425.4337 145.6813 L 423.5018 144.9779 L 422.2624 143.8569 L 422.5527 140.2778 L 421.8435 138.7912 L 420.5705 139.1743 L 419.4817 137.9052 L 417.8235 137.2363 L 416.5171 134.9555 L 414.1721 135.0811 L 412.5528 134.544 L 412.6588 133.9092 L 411.2742 131.0916 L 411.4753 128.9201 L 410.3584 125.4457 L 409.0019 125.5315 L 408.6892 124.1545 L 405.758 121.5893 L 405.7299 119.4872 L 404.9092 117.4591 L 401.079 116.734 L 399.0803 114.4037 L 396.8021 112.9645 L 396.7185 111.3369 L 394.8926 106.8661 L 392.8827 105.319 L 392.3297 102.8356 L 390.2026 102.2479 L 388.3713 99.3765 L 386.1601 97.556 L 385.9927 96.2947 L 384.5355 94.6226 L 382.76 93.5899 L 380.3088 91.1308 L 379.6555 89.2821 L 377.573 87.5937 L 377.841 85.5059 L 377.4891 81.8271 L 378.7456 80.0817 L 379.0302 78.7702 L 381.7604 76.4093 L 384.1113 76.398 L 385.6801 73.9349 L 387.1597 73.7014 L 389.7223 76.5065 L 389.6665 77.4132 L 390.8111 79.0839 L 391.0402 81.1084 L 393.1395 84.5703 L 394.0943 85.2321 L 394.6862 87.0975 L 396.3498 87.2 L 398.7396 89.3281 L 400.1298 88.4093 L 403.3292 88.0444 L 404.8534 89.4591 L 408.0247 89.2708 L 408.6222 88.7631 L 410.7437 89.0312 L 412.257 90.5487 L 414.8476 90.663 L 415.7911 88.6204 L 414.7304 82.2148 L 413.3458 80.3099 L 413.0219 78.0917 L 411.5086 77.6069 L 411.7153 76.7002 L 409.8616 73.0684 L 409.7166 71.6089 L 407.7454 70.0756 L 409.3089 66.2509 L 408.8847 64.7974 L 409.9008 60.5918 L 412.2012 59.1618 L 414.8866 61.2586 L 416.154 61.082 L 417.9353 59.8856 L 420.1017 61.5039 L 420.9056 61.3212 L 422.9825 62.2158 L 426.126 62.4725 L 427.0026 60.2045 L 428.3762 60.3811 L 430.6988 58.7347 L 431.2907 57.6749 L 432.9879 57.1106 L 434.5458 57.9141 L 437.4269 57.692 L 438.1248 55.9711 L 440.2463 56.6208 L 441.7818 58.5179 L 445.7236 61.9367 L 447.8787 62.632 L 452.3511 59.5833 L 453.0324 54.0972 L 452.4517 52.371 L 453.5963 48.5777 L 454.322 48.0369 L 454.5844 46.2769 L 454.1434 43.3276 L 453.1718 41.2892 L 452.2451 40.7937 L 452.0777 39.1255 L 453.211 36.325 L 452.8704 34.6401 L 454.9083 34.2645 L 456.7118 31.9994 L 458.6045 32.1073 L 459.4645 32.8815 L 461.1393 32.5003 L 462.8702 33.6156 L 463.6965 35.3802 L 465.8853 37.0252 L 468.0404 37.1334 L 469.0286 38.4314 L 470.6033 38.7671 L 472.1387 37.7482 L 473.1044 39.1145 L 472.8644 40.2928 L 473.8637 41.8015 L 474.037 44.6027 L 474.8689 46.0776 L 473.5289 48.7713 L 472.736 49.0219 L 472.7584 51.061 L 470.6535 53.4703 L 470.5138 58.5349 L 471.251 59.8229 L 470.1731 60.5007 L 469.2798 62.1931 L 469.2798 63.9769 L 471.77 66.9747 L 472.3173 71.0446 L 474.1542 73.3934 L 475.8069 74.7789 L 475.9185 76.2442 L 477.1023 77.1281 L 478.4311 76.8372 L 478.8834 78.7702 L 481.1333 79.4772 L 479.7431 81.5188 L 478.7382 85.5286 L 479.6817 85.6198 L 481.4964 86.9946 L 482.1551 88.8201 L 483.2997 90.0354 L 485.7899 90.4291 L 488.5927 92.2091 L 491.0608 92.8538 L 490.8039 95.6557 L 491.764 96.0893 L 493.7016 95.3076 L 494.4945 96.8885 L 495.6781 96.9398 L 501.133 103.4693 L 501.0715 105.3019 L 502.5178 106.6147 L 502.54 109.7496 L 503.4614 110.3035 L 505.5105 107.6026 L 507.4088 107.6596 L 508.1401 109.6467 L 509.3517 110.2063 L 510.3679 109.6808 L 511.9591 110.0521 L 512.484 110.9485 L 514.7398 110.8456 L 514.8458 111.6167 L 516.6715 112.2219 L 518.0619 113.9982 L 518.2795 115.8141 L 520.6638 117.1509 L 522.2104 117.2936 L 522.361 118.2704 L 523.8126 119.7955 L 523.288 123.2859 L 525.0912 124.4575 L 522.8523 125.7144 L 521.4508 125.2744 L 520.9038 126.697 L 518.581 127.383 L 519.8876 130.3373 L 517.3694 130.8745 L 517.0402 132.1204 L 515.5605 132.3433 L 515.3427 133.738 L 511.1608 135.4414 L 512.5734 138.8372 L 510.3625 142.1759 L 508.8716 142.8737 L 506.8561 142.4903 L 504.6842 142.9538 L 502.6684 144.0687 L 500.1726 143.2567 L 497.5374 139.9233 L 496.7279 142.1015 L 497.2862 143.4169 L 498.2297 147.6143 L 499.3297 150.1251 L 498.961 156.0056 L 498.3192 156.7724 L 498.4308 158.8436 L 497.5988 160.2625 L 493.6626 159.4388 L 491.9595 158.1512 L 490.1674 158.4146 L 489.8492 159.4099 L 488.1685 160.2454 L 487.8614 161.4814 L 486.527 161.8879 L 484.7347 163.4044 L 482.0045 164.3143 L 481.9596 165.8999 L 479.1568 167.5538 L 478.7045 171.166 L 478.995 172.5056 L 477.8058 173.7537 L 478.5483 176.8515 L 478.1518 178.8727 L 478.4311 181.3468 L 475.5725 184.3197 L 475.6953 185.912 L 476.5438 186.4449 L 476.4266 188.8909 L 475.5276 188.427 L 474.6287 189.4868 L 475.8683 191.4864 L 476.9234 192.1225 L 477.3087 193.7213 L 476.6722 194.959 L 478.1743 195.9618 L 477.4427 197.7443 L 478.2747 198.9247 L 477.5655 199.5783 L 479.0062 203.0577 L 479.062 206.4745 L 477.9788 207.1854 L 477.8058 208.3149 L 474.9974 209.0087 L 471.53 208.6762 L 469.7377 209.5648 L 470.4748 211.4284 L 466.8232 211.1646 L 466.0359 212.9712 L 469.0286 212.2485 L 470.4356 214.2271 L 472.6914 214.0263 L 475.7455 215.4546 L 475.5669 217.4278 L 477.0297 220.0375 L 478.5315 220.9727 L 479.7711 222.8085 L 478.4423 223.7839 L 478.2189 225.7749 L 475.4606 227.881 L 474.936 230.0557 L 474.7349 234.0335 L 473.4061 234.9174 L 473.6125 236.8116 L 476.3318 239.0966 L 473.4339 238.1494 L 473.4117 240.1415 L 473.9922 243.4831 L 474.8188 243.0125 L 476.823 245.901 L 479.6873 246.9173 L 480.307 245.7344 L 481.474 246.3947 L 480.4076 247.394 L 480.3182 249.9211 L 482.0659 251.8972 L 480.7761 252.6437 L 479.5589 252.3852 L 481.4628 254.7522 L 481.1389 258.751 L 481.9989 260.8082 L 483.8358 259.9001 L 484.048 260.716 L 486.1583 262.0264 L 482.8642 263.739 L 481.6863 263.963 L 481.4294 265.3424 L 480.1172 266.5033 L 478.7101 266.6759 L 478.8722 268.7278 L 478.3027 271.8954 L 479.5143 272.89 L 477.0743 275.42 L 476.9125 276.5585 L 478.9336 278.4099 L 480.4803 278.2547 L 480.0056 280.998 L 482.3228 281.0496 L 482.0547 283.0338 L 482.9256 283.0338 L 482.5126 286.2722 L 481.5522 287.1583 L 481.3066 288.8959 L 483.5007 288.9418 L 483.5287 290.3629 L 486.9345 288.9015 L 487.0965 290.8345 L 488.9222 290.1098 L 490.8093 290.7712 L 491.111 293.2741 L 491.9539 293.3261 L 493.5005 296.4912 L 494.7514 297.1472 L 491.9651 299.1212 L 490.3517 301.9128 L 489.7152 301.5212 L 485.5779 308.4932 L 485.4326 308.3896 L 478.068 318.416 L 476.421 318.1048 L 476.3988 320.0806 L 474.2546 321.319 L 474.4444 323.0477 L 472.697 323.8772 L 470.9047 326.2281 L 469.3359 326.1936 L 468.8499 324.6895 L 467.2309 326.0205 L 466.84 324.7127 L 468.0516 321.78 L 467.0299 319.5103 L 466.3376 316.3306 L 461.4298 317.0219 L 459.9779 318.0874 L 459.5536 317.264 L 458.3645 317.6211 L 457.8898 316.5552 L 454.7911 316.8664 L 454.8301 319.6833 L 454.3612 320.4665 L 452.0107 320.0058 L 449.4868 320.1614 L 449.7103 318.4448 L 448.6773 317.4367 L 448.3815 315.1559 L 446.0306 315.5994 L 445.3776 313.7045 L 444.5344 314.8565 L 443.8141 314.0961 L 440.52 313.9177 L 440.6038 312.4087 L 439.2301 312.3108 L 439.448 310.658 L 435.7072 312.1496 L 434.1213 311.2973 L 432.6977 311.7523 L 431.6367 310.9577 L 432.4798 314.5222 L 431.3128 316.5841 L 428.7668 316.6015 L 428.1752 317.955 L 424.2333 317.7649 L 423.3678 316.5901 L 422.2678 316.0141 L 419.9733 316.1868 L 417.5778 314.3552 L 417.5052 311.4127 L 416.115 309.9442 L 414.3227 309.9097 L 413.6694 308.8848 L 411.1794 307.4221 L 409.8504 308.2284 L 408.2703 307.5602 L 408.6836 305.3093 L 407.8963 302.6611 L 406.7629 301.9588 L 407.9521 300.7039 L 409.8114 297.0148 L 408.2089 295.3114 L 406.7573 294.7589 L 405.2889 291.0072 L 404.2169 292.4685 L 402.5306 292.434 L 401.5814 291.7035 L 399.6329 292.2097 L 397.4778 291.0129 L 397.3828 290.4145 L 394.1055 290.4262 L 392.7876 289.166 L 390.9563 288.9304 L 388.4215 289.5284 L 388.7061 290.6046 L 385.9759 291.5479 L 386.5959 290.4433 L 387.0423 287.7393 L 385.6019 285.352 L 386.2942 284.9092 L 386.9809 282.7693 L 385.4457 281.8203 L 383.2345 282.6084 L 381.4256 282.7462 L 382.4751 279.9111 L 383.6924 280.0204 L 384.4071 279.0482 L 383.1618 277.4267 L 380.4094 276.7884 L 378.3547 274.4368 L 374.7813 271.7576 L 373.9269 271.9128 L 371.8781 270.9873 L 369.0974 271.6943 L 367.1991 272.775 L 366.7134 269.935 L 365.6748 270.1995 Z" fill="#FFF" fill-opacity="1" stroke="#666" stroke-width="1" paint-order="fill" stroke-opacity="1" stroke-dasharray="" stroke-linecap="butt" stroke-linejoin="miter" stroke-miterlimit="10" transform="matrix(1,0,0,1,0,0)" clip-path="none"></path>
        <path d="M 545.1077 391.3464 L 545.2028 387.0137 L 547.4359 386.9155 L 548.1898 386.0259 L 549.5576 386.5282 L 550.1495 384.2872 L 550.691 384.4663 L 551.6068 381.7345 L 550.2499 380.6199 L 550.4288 377.6517 L 549.9151 376.2138 L 548.7201 375.7923 L 546.7214 373.5984 L 548.1506 372.7092 L 548.8821 370.0478 L 547.6091 369.0436 L 547.0452 367.3466 L 547.6874 365.4072 L 546.1351 364.126 L 546.6821 363.4047 L 547.2684 359.6769 L 549.3344 355.7422 L 547.8102 353.9882 L 546.9278 351.4273 L 544.9235 348.422 L 545.1357 347.1362 L 542.288 347.4071 L 540.6802 345.0889 L 540.803 343.336 L 541.914 343.2898 L 540.8308 340.8737 L 539.1335 341.1563 L 536.822 335.9102 L 536.4981 334.3079 L 538.7259 334.6767 L 539.5132 329.9161 L 537.9721 327.8069 L 538.4076 326.9482 L 540.7582 326.5275 L 541.0933 325.5827 L 542.8743 325.5884 L 543.6003 326.8215 L 544.5716 326.7984 L 548.3516 322.5693 L 548.8319 320.8239 L 547.073 319.2223 L 545.0687 319.6947 L 543.081 318.0874 L 542.1764 316.688 L 544.7168 313.3706 L 545.1245 312.2877 L 547.4025 311.188 L 547.6203 309.3394 L 550.9369 307.1458 L 552.8798 307.2035 L 552.824 306.1786 L 554.8283 306.0978 L 556.3637 304.9985 L 555.8054 302.9491 L 558.29 300.3013 L 557.2907 297.6364 L 557.1398 295.9789 L 558.0054 295.4552 L 558.6585 293.3143 L 560.836 289.9542 L 562.2487 289.1429 L 564.0186 289.4768 L 565.7551 288.5737 L 568.1614 288.05 L 569.373 289.4309 L 571.5394 289.3789 L 573.1419 287.5321 L 574.571 287.5264 L 574.6829 286.6062 L 578.0272 284.8803 L 580.5286 282.0848 L 582.2147 281.2799 L 586.6312 283.7013 L 588.7418 282.7522 L 589.4787 281.8779 L 593.2867 280.469 L 594.6433 277.9269 L 596.7426 277.4153 L 597.3514 276.1847 L 600.115 277.3922 L 600.7907 276.3687 L 603.3143 276.127 L 604.8778 275.1495 L 608.6018 275.828 L 609.8804 276.8173 L 611.6393 276.5528 L 613.6158 275.1669 L 615.0506 275.943 L 615.6591 278.2547 L 618.5626 277.6912 L 619.9584 277.9212 L 621.4213 280.0144 L 622.069 282.0506 L 623.1353 282.5048 L 623.1855 284.6101 L 623.9115 288.0732 L 624.989 289.0279 L 624.6428 289.9485 L 626.5915 290.1269 L 628.6852 291.4618 L 627.7025 293.8323 L 627.8533 295.766 L 628.6126 297.7054 L 628.5178 299.789 L 631.5607 302.0453 L 633.5818 303.9911 L 633.9391 306.075 L 633.3306 307.7332 L 634.3857 310.6295 L 636.5187 310.6007 L 639.863 309.2415 L 639.8521 308.1362 L 641.6051 308.3722 L 643.7101 306.5125 L 644.4472 307.9404 L 645.5136 314.9715 L 645.4129 315.9102 L 646.6357 318.3181 L 646.0161 321.9876 L 646.9708 323.157 L 647.5067 325.9917 L 648.2494 326.1241 L 649.1484 327.945 L 650.2372 327.9105 L 651.4597 326.8447 L 655.1225 326.7638 L 658.5507 328.7809 L 659.405 328.4754 L 660.3932 330.7228 L 656.0829 331.8064 L 656.3117 334.7689 L 658.2436 335.6218 L 660.237 337.2302 L 656.6078 337.9624 L 657.1159 340.2454 L 657.8974 340.113 L 657.8194 342.765 L 658.9584 342.6152 L 661.4542 340.9545 L 664.123 342.8804 L 663.3357 344.3969 L 662.3921 344.2641 L 659.8293 346.4036 L 660.2479 347.3669 L 656.8868 346.6517 L 657.0545 348.2376 L 655.932 346.8592 L 654.5976 346.7841 L 653.7489 348.0472 L 652.4593 346.7325 L 651.2309 347.9204 L 649.7179 347.8051 L 649.0144 348.5203 L 650.6782 351.1503 L 651.5548 353.7518 L 649.1761 356.0305 L 650.1253 356.7343 L 648.8579 358.0728 L 650.5554 357.998 L 650.4158 359.4693 L 649.0926 359.8153 L 648.4726 361.0271 L 643.5427 362.0371 L 643.6262 361.3041 L 641.5827 359.5384 L 640.3265 360.3173 L 639.0423 359.804 L 637.4008 360.8655 L 636.1668 364.8013 L 634.5868 366.4577 L 634.5924 367.3177 L 631.4769 366.4402 L 628.8695 369.1763 L 629.1375 370.7174 L 628.5232 371.9644 L 627.334 371.4682 L 626.5133 369.6957 L 624.7936 368.9916 L 623.4982 369.3034 L 621.8234 368.1661 L 620.7792 369.3262 L 618.8753 369.846 L 618.2833 371.0467 L 616.4187 372.7729 L 616.3068 373.9391 L 615.1847 374.5222 L 615.2071 375.9308 L 611.6727 375.2381 L 611.6169 377.311 L 612.4042 378.9279 L 609.8134 381.2724 L 609.6348 382.3236 L 610.852 382.2773 L 610.0702 384.6105 L 608.0211 385.5118 L 608.2891 384.6742 L 606.4912 383.6518 L 605.7877 380.1347 L 604.7659 379.7708 L 603.7388 381.1165 L 605.0452 382.5023 L 604.2915 383.9693 L 602.1529 384.1256 L 601.2542 383.2303 L 597.5802 382.0634 L 598.0269 382.7334 L 596.9885 384.9458 L 592.4436 386.8286 L 589.6853 386.3263 L 587.1786 383.8483 L 584.0462 384.0676 L 583.0189 382.722 L 578.1279 382.8836 L 577.9826 385.2114 L 576.8939 386.4591 L 576.9107 385.1306 L 573.8678 385.5752 L 574.13 386.7823 L 572.4608 387.2793 L 571.6064 388.2326 L 569.1608 388.4925 L 569.5239 390.8032 L 569.0046 391.4158 L 565.5877 392.0513 L 564.1246 394.5532 L 562.4887 395.8069 L 562.8852 397.5409 L 561.6568 397.6161 L 561.9024 398.9104 L 560.8473 398.0781 L 560.0935 398.7833 L 558.3069 398.506 L 555.4538 398.9798 L 555.3142 398.1475 L 553.092 396.4947 L 551.4337 395.8069 L 547.8211 396.4659 L 547.073 392.3343 L 545.9007 392.6002 L 545.1077 391.3464 Z" fill="#FFF" fill-opacity="1" stroke="#666" stroke-width="1" paint-order="fill" stroke-opacity="1" stroke-dasharray="" stroke-linecap="butt" stroke-linejoin="miter" stroke-miterlimit="10" transform="matrix(1,0,0,1,0,0)" clip-path="none"></path>
        <path d="M 615.0506 275.943 L 613.6158 275.1669 L 611.6393 276.5528 L 609.8804 276.8173 L 608.6018 275.828 L 604.8778 275.1495 L 603.3143 276.127 L 600.7907 276.3687 L 600.115 277.3922 L 597.3514 276.1847 L 596.7426 277.4153 L 594.6433 277.9269 L 593.2867 280.469 L 589.4787 281.8779 L 588.7418 282.7522 L 586.6312 283.7013 L 582.2147 281.2799 L 580.5286 282.0848 L 578.0272 284.8803 L 574.6829 286.6062 L 574.571 287.5264 L 573.1419 287.5321 L 571.5394 289.3789 L 569.373 289.4309 L 568.1614 288.05 L 565.7551 288.5737 L 564.0186 289.4768 L 562.2487 289.1429 L 560.836 289.9542 L 558.6585 293.3143 L 558.0054 295.4552 L 557.1398 295.9789 L 557.2907 297.6364 L 558.29 300.3013 L 555.8054 302.9491 L 556.3637 304.9985 L 554.8283 306.0978 L 552.824 306.1786 L 552.8798 307.2035 L 550.9369 307.1458 L 547.6203 309.3394 L 547.4025 311.188 L 545.1245 312.2877 L 544.7168 313.3706 L 542.1764 316.688 L 543.081 318.0874 L 545.0687 319.6947 L 547.073 319.2223 L 548.8319 320.8239 L 548.3516 322.5693 L 544.5716 326.7984 L 543.6003 326.8215 L 542.8743 325.5884 L 541.0933 325.5827 L 540.7582 326.5275 L 538.4076 326.9482 L 537.9721 327.8069 L 536.8665 327.5303 L 535.3647 329.2589 L 534.4546 331.2646 L 532.7127 330.5038 L 532.2882 331.2703 L 530.8702 330.4576 L 530.3341 328.2216 L 528.7597 328.1928 L 526.9562 326.5218 L 529.0387 325.3175 L 527.0622 324.1826 L 526.5039 322.1602 L 524.9909 319.9538 L 524.8624 318.7616 L 523.5726 317.3502 L 523.2042 315.5994 L 521.6967 314.1249 L 522.255 311.9652 L 521.0266 309.4259 L 520.915 306.0576 L 517.7493 306.0807 L 517.1406 305.3609 L 516.4371 301.7113 L 514.9518 298.8449 L 512.1212 299.2077 L 509.6141 301.2624 L 509.9102 303.1161 L 509.1397 303.4268 L 508.4362 306.0405 L 508.5812 308.0497 L 505.0302 309.1034 L 504.4386 307.8136 L 502.0263 306.6795 L 500.4017 307.3128 L 498.6764 306.593 L 498.615 309.4373 L 497.6212 310.1514 L 497.3252 312.3567 L 494.8016 313.6814 L 494.3047 314.7586 L 493.4893 313.4742 L 491.9037 313.8483 L 489.2685 311.5508 L 486.6499 310.2781 L 485.4102 310.3931 L 486.1474 308.8848 L 485.5779 308.4932 L 489.7152 301.5212 L 490.3517 301.9128 L 491.9651 299.1212 L 494.7514 297.1472 L 493.5005 296.4912 L 491.9539 293.3261 L 491.111 293.2741 L 490.8093 290.7712 L 488.9222 290.1098 L 487.0965 290.8345 L 486.9345 288.9015 L 483.5287 290.3629 L 483.5007 288.9418 L 481.3066 288.8959 L 481.5522 287.1583 L 482.5126 286.2722 L 482.9256 283.0338 L 482.0547 283.0338 L 482.3228 281.0496 L 480.0056 280.998 L 480.4803 278.2547 L 478.9336 278.4099 L 476.9125 276.5585 L 477.0743 275.42 L 479.5143 272.89 L 478.3027 271.8954 L 478.8722 268.7278 L 478.7101 266.6759 L 480.1172 266.5033 L 481.4294 265.3424 L 481.6863 263.963 L 482.8642 263.739 L 486.1583 262.0264 L 484.048 260.716 L 483.8358 259.9001 L 481.9989 260.8082 L 481.1389 258.751 L 481.4628 254.7522 L 479.5589 252.3852 L 480.7761 252.6437 L 482.0659 251.8972 L 480.3182 249.9211 L 480.4076 247.394 L 481.474 246.3947 L 480.307 245.7344 L 479.6873 246.9173 L 476.823 245.901 L 474.8188 243.0125 L 473.9922 243.4831 L 473.4117 240.1415 L 473.4339 238.1494 L 476.3318 239.0966 L 473.6125 236.8116 L 473.4061 234.9174 L 474.7349 234.0335 L 474.936 230.0557 L 475.4606 227.881 L 478.2189 225.7749 L 478.4423 223.7839 L 479.7711 222.8085 L 478.5315 220.9727 L 477.0297 220.0375 L 475.5669 217.4278 L 475.7455 215.4546 L 472.6914 214.0263 L 470.4356 214.2271 L 469.0286 212.2485 L 466.0359 212.9712 L 466.8232 211.1646 L 470.4748 211.4284 L 469.7377 209.5648 L 471.53 208.6762 L 474.9974 209.0087 L 477.8058 208.3149 L 477.9788 207.1854 L 479.062 206.4745 L 479.0062 203.0577 L 477.5655 199.5783 L 478.2747 198.9247 L 477.4427 197.7443 L 478.1743 195.9618 L 476.6722 194.959 L 477.3087 193.7213 L 476.9234 192.1225 L 475.8683 191.4864 L 474.6287 189.4868 L 475.5276 188.427 L 476.4266 188.8909 L 476.5438 186.4449 L 475.6953 185.912 L 475.5725 184.3197 L 478.4311 181.3468 L 478.1518 178.8727 L 478.5483 176.8515 L 477.8058 173.7537 L 478.995 172.5056 L 478.7045 171.166 L 479.1568 167.5538 L 481.9596 165.8999 L 482.0045 164.3143 L 484.7347 163.4044 L 486.527 161.8879 L 487.8614 161.4814 L 488.1685 160.2454 L 489.8492 159.4099 L 490.1674 158.4146 L 491.9595 158.1512 L 493.6626 159.4388 L 497.5988 160.2625 L 498.4308 158.8436 L 498.3192 156.7724 L 498.961 156.0056 L 499.3297 150.1251 L 498.2297 147.6143 L 497.2862 143.4169 L 496.7279 142.1015 L 497.5374 139.9233 L 500.1726 143.2567 L 502.6684 144.0687 L 504.6842 142.9538 L 506.8561 142.4903 L 508.8716 142.8737 L 510.3625 142.1759 L 512.5734 138.8372 L 511.1608 135.4414 L 515.3427 133.738 L 515.5605 132.3433 L 517.0402 132.1204 L 517.3694 130.8745 L 519.8876 130.3373 L 518.581 127.383 L 520.9038 126.697 L 521.4508 125.2744 L 522.8523 125.7144 L 525.0912 124.4575 L 525.6551 125.4286 L 527.6877 126.1085 L 527.2242 128.1601 L 527.241 131.3433 L 528.1958 133.1207 L 529.7924 132.9264 L 534.8177 134.1951 L 534.7616 136.6247 L 536.0237 139.8546 L 534.851 142.4276 L 535.6606 144.4575 L 539.4406 146.2758 L 539.9767 149.8104 L 541.0262 150.8574 L 544.6277 152.9338 L 546.3193 155.0103 L 545.9565 157.0241 L 547.1625 158.1743 L 549.273 158.4602 L 549.9151 159.4331 L 552.1148 159.3127 L 552.7233 160.0108 L 555.9339 161.3842 L 556.7434 162.2713 L 558.8539 162.5458 L 560.155 161.8591 L 562.7066 162.4486 L 563.5607 163.2386 L 564.7723 162.4088 L 564.9119 161.4127 L 567.1509 160.3084 L 569.9257 160.5089 L 570.8471 159.8909 L 575.7773 160.4288 L 576.9384 159.5075 L 578.2451 159.7075 L 580.6739 158.4602 L 584.8168 157.5047 L 586.7207 160.4113 L 589.6575 160.1141 L 590.6457 160.915 L 593.3257 161.4358 L 594.6713 160.8065 L 597.8539 161.7448 L 599.2553 160.5715 L 600.4557 160.7605 L 602.4322 162.7291 L 603.5824 162.5458 L 603.9845 161.4814 L 607.0663 161.7676 L 608.0825 162.4714 L 609.2997 162.0136 L 610.9134 162.4201 L 611.5053 163.2955 L 613.2976 163.3012 L 613.666 164.1826 L 617.5352 166.2833 L 617.8367 167.3534 L 619.7854 168.7446 L 623.8276 167.7485 L 625.0617 167.1476 L 626.7589 168.7446 L 628.2666 171.0916 L 629.6624 171.9905 L 629.6568 173.0898 L 632.8113 174.6127 L 641.0188 175.2883 L 643.8721 174.1431 L 645.4129 173.0954 L 645.1617 172.2023 L 646.6915 169.8951 L 651.3203 169.7235 L 654.2124 167.6627 L 656.2447 167.9831 L 658.5953 166.0715 L 661.3258 166.2146 L 664.5304 164.9669 L 666.0325 165.4418 L 667.2329 165.0811 L 669.1256 165.6707 L 670.8007 166.9814 L 672.0344 166.2776 L 673.3411 168.7674 L 676.4734 168.4068 L 679.4717 169.8606 L 681.1577 169.5744 L 684.0668 167.903 L 684.6921 168.5958 L 686.9925 169.2426 L 689.5495 171.2347 L 692.6596 174.4923 L 692.4808 176.0327 L 689.5217 177.1434 L 690.108 179.6118 L 689.2926 180.1899 L 688.8796 183.151 L 686.0824 183.214 L 685.0718 184.1136 L 682.8886 183.4603 L 682.2353 180.2244 L 681.5822 180.213 L 680.1918 178.4089 L 679.237 178.7182 L 678.6229 177.1434 L 675.178 177.6702 L 677.1433 178.5349 L 675.8033 179.4569 L 676.49 180.7858 L 675.1166 185.9348 L 673.3579 186.0782 L 672.2133 186.8917 L 670.153 186.777 L 667.3947 189.8019 L 665.4684 194.2139 L 666.0045 195.7785 L 667.875 198.4662 L 667.5733 199.286 L 668.2659 202.6448 L 670.0245 203.4073 L 670.0747 204.5365 L 667.7354 207.0362 L 665.6638 206.7553 L 663.023 205.2018 L 662.2245 206.9504 L 660.6388 207.4605 L 659.2096 209.8343 L 656.3061 209.0774 L 655.5134 207.5008 L 653.8495 206.5891 L 652.9674 204.5938 L 649.5224 203.5735 L 648.7239 202.3753 L 646.7866 202.5931 L 644.609 204.4161 L 642.962 204.5998 L 642.1634 203.8142 L 638.5286 203.8601 L 635.2513 207.856 L 631.5215 208.4755 L 629.8298 210.1554 L 628.2105 209.7428 L 626.96 210.3333 L 624.5926 212.8163 L 621.896 214.4852 L 622.1806 216.6763 L 621.3318 217.3128 L 622.5546 218.7068 L 623.3866 221.6783 L 625.0785 224.8512 L 625.7873 225.488 L 625.5252 226.9568 L 623.5038 226.32 L 621.17 227.3758 L 619.2269 225.6831 L 616.7871 227.6627 L 614.0008 226.5382 L 612.6776 226.9112 L 612.0078 228.8218 L 612.538 229.0055 L 610.958 231.2439 L 610.919 232.3229 L 611.8906 233.5283 L 613.4538 233.5625 L 616.2678 238.2928 L 615.5531 240.2333 L 616.9212 242.151 L 618.6128 242.7483 L 617.5352 244.7351 L 618.423 247.101 L 620.2321 247.5032 L 622.5939 249.2721 L 622.7223 250.846 L 625.581 252.1499 L 624.0623 254.6429 L 621.1476 257.6649 L 620.3827 259.1013 L 617.7697 261.13 L 618.6854 264.4631 L 618.4454 266.9344 L 619.4781 268.0785 L 619.5342 269.2223 L 618.5346 269.343 L 618.1159 270.9527 L 616.424 271.9185 L 615.7875 274.8679 L 615.0506 275.943 Z" fill="#FFF" fill-opacity="1" stroke="#666" stroke-width="1" paint-order="fill" stroke-opacity="1" stroke-dasharray="" stroke-linecap="butt" stroke-linejoin="miter" stroke-miterlimit="10" transform="matrix(1,0,0,1,0,0)" clip-path="none"></path>
        <path d="M 279.4731 315.075 L 278.0327 313.791 L 277.6642 311.7637 L 276.3242 311.0268 L 275.386 309.2358 L 274.9561 306.6681 L 273.8954 306.7371 L 273.834 304.1865 L 272.1979 301.2681 L 273.281 298.9371 L 271.5112 298.1889 L 271.1203 296.8824 L 269.3897 295.3399 L 268.7363 295.8522 L 267.6364 293.6137 L 268.8479 292.2959 L 267.6922 291.1222 L 267.3013 289.0681 L 268.016 288.217 L 267.0781 286.2897 L 266.4693 283.6493 L 264.13 282.3208 L 259.7134 283.057 L 259.1608 282.2229 L 257.6477 282.5337 L 257.0895 281.6362 L 255.727 281.6996 L 255.2358 280.7103 L 254.3088 281.6191 L 252.0922 281.711 L 252.081 280.7908 L 250.8529 280.716 L 251.4167 279.7616 L 251.3999 276.6962 L 249.8255 275.3798 L 247.3967 276.1042 L 245.7328 273.9651 L 244.8841 273.9078 L 244.644 272.3325 L 233.9351 257.6823 L 234.0523 255.6543 L 232.193 255.6713 L 231.3277 254.0399 L 226.9894 251.5124 L 227.8213 250.1048 L 227.5367 248.4277 L 228.335 248.7093 L 227.7823 246.8023 L 229.4182 244.425 L 227.6371 245.0566 L 226.9725 244.1207 L 227.2908 241.3013 L 228.6588 239.642 L 228.5304 237.7934 L 230.1329 234.4581 L 228.0837 233.8038 L 226.3641 232.2254 L 219.9432 232.2596 L 219.6864 233.4308 L 217.8103 230.2166 L 219.692 226.7044 L 219.8762 225.0633 L 221.1882 222.3496 L 223.0363 220.5939 L 222.3272 218.7182 L 222.8857 217.3819 L 224.0917 217.7834 L 225.2419 217.1925 L 226.9223 214.5482 L 227.9163 214.3417 L 228.5638 213.0687 L 230.8028 210.8552 L 232.8017 209.8172 L 234.6386 211.0959 L 236.1965 210.7577 L 238.8987 211.1991 L 240.1717 210.511 L 240.6352 209.1006 L 240.4008 207.3459 L 242.1928 200.6559 L 247.2125 198.5121 L 249.5406 199.5438 L 252.5669 198.3975 L 252.98 197.5378 L 257.6867 197.7382 L 258.4183 197.0964 L 260.1769 193.5892 L 261.0089 193.1538 L 263.6665 189.8823 L 267.0223 190.1169 L 269.1382 191.4978 L 270.9361 191.2974 L 273.5101 192.088 L 274.487 192.9018 L 276.2962 192.6437 L 279.5793 193.9388 L 279.1716 195.681 L 280.8019 195.194 L 281.6394 199.3202 L 283.5155 203.5105 L 287.0107 203.2065 L 287.2451 201.7619 L 289.6462 201.6989 L 295.0284 193.7095 L 295.8937 193.429 L 296.3014 196.976 L 296.9211 196.0822 L 300.1818 195.3143 L 301.8737 193.8587 L 303.8446 193.5436 L 305.0282 192.3632 L 306.9209 192.386 L 307.9037 191.7213 L 308.7578 188.9596 L 311.1978 187.5563 L 311.9125 186.5592 L 314.6817 185.1502 L 316.1558 186.4275 L 319.88 186.0839 L 320.8738 185.362 L 320.4327 184.188 L 318.3836 181.4615 L 318.0597 179.5601 L 318.512 178.6495 L 321.7169 176.7827 L 324.8436 171.9559 L 326.4237 172.1966 L 328.7128 173.4902 L 331.7167 173.811 L 333.0287 170.1813 L 333.2466 167.9433 L 334.0673 166.9643 L 334.6536 164.3428 L 334.0283 161.8705 L 335.3291 160.2454 L 335.7814 157.6307 L 336.6414 156.0113 L 337.6519 155.571 L 339.6172 151.6181 L 341.08 150.8631 L 343.2018 148.678 L 342.9394 146.2189 L 344.497 145.5898 L 345.2173 146.1502 L 347.1156 144.5376 L 347.1493 142.9306 L 347.903 141.2895 L 350.6668 139.117 L 349.684 138.2195 L 350.1588 134.9897 L 351.1915 133.6921 L 351.0297 130.846 L 353.7543 128.9771 L 354.4802 127.7486 L 357.121 129.1486 L 357.9698 130.9143 L 360.259 132.9719 L 360.3372 135.2698 L 361.4818 136.8248 L 361.2919 138.0536 L 362.3359 138.4997 L 363.4134 137.6823 L 365.9541 137.7222 L 367.8076 140.2148 L 369.6503 140.6263 L 370.4988 141.8844 L 371.3476 140.8207 L 370.4988 137.7507 L 371.8946 135.4471 L 373.0672 134.744 L 376.4284 134.178 L 377.2269 134.5611 L 379.8453 134.4179 L 382.559 135.4414 L 384.7197 134.5781 L 386.4506 135.2068 L 387.3271 134.6468 L 389.6945 134.6924 L 393.1115 132.5319 L 395.9367 132.4461 L 397.1705 131.8118 L 398.8958 132.7035 L 399.4821 135.7443 L 401.7155 136.4303 L 403.5804 136.1445 L 405.1492 136.6361 L 406.9359 135.8013 L 409.4819 136.9903 L 412.5528 134.544 L 414.1721 135.0811 L 416.5171 134.9555 L 417.8235 137.2363 L 419.4817 137.9052 L 420.5705 139.1743 L 421.8435 138.7912 L 422.5527 140.2778 L 422.2624 143.8569 L 423.5018 144.9779 L 425.4337 145.6813 L 424.3113 147.8087 L 424.6464 151.0233 L 423.6078 153.3055 L 422.8765 153.2713 L 422.6085 154.7814 L 423.3958 156.5663 L 422.2902 158.0198 L 422.0614 159.6274 L 422.4912 161.3785 L 420.8832 161.5501 L 418.7894 163.3012 L 417.3378 167.7713 L 418.3428 169.5744 L 419.8614 169.7004 L 422.1954 170.6965 L 423.3622 170.0268 L 425.3779 170.2842 L 426.3885 172.6373 L 427.1422 173.2154 L 426.6843 174.3492 L 428.9959 175.2481 L 429.6548 176.6051 L 432.4686 175.8607 L 433.5518 176.8974 L 433.7974 178.1971 L 435.2157 179.0906 L 435.4336 180.7915 L 436.1648 180.7741 L 438.8337 182.8989 L 441.5081 183.1225 L 441.5586 184.7607 L 440.1961 186.9661 L 438.1248 185.8718 L 435.5732 187.0636 L 433.7921 186.399 L 432.2679 186.9202 L 432.1728 189.0344 L 431.2907 190.4494 L 430.5647 193.7384 L 431.3745 196.237 L 430.0345 197.5033 L 430.2075 199.1312 L 428.4878 202.0887 L 426.5281 203.2467 L 425.2885 205.7233 L 424.3337 205.7347 L 423.1502 209.3583 L 421.7765 209.9492 L 420.7828 212.0193 L 417.6617 212.8163 L 416.3438 216.8999 L 413.9318 219.0279 L 412.9995 220.9325 L 411.3524 222.9634 L 412.6644 224.943 L 413.8592 224.8857 L 415.4507 226.5841 L 418.728 225.9928 L 419.6604 225.1954 L 421.1793 225.1954 L 421.8993 227.7546 L 423.485 228.7129 L 424.9646 231.2322 L 426.891 232.8452 L 426.8741 234.5557 L 424.8586 236.2893 L 423.9987 237.6268 L 419.6828 238.3904 L 418.3986 238.1376 L 417.3824 236.9782 L 413.2897 237.001 L 412.5862 236.2605 L 410.5373 235.7497 L 410.0124 238.4306 L 406.6121 238.1148 L 403.9264 239.4007 L 400.6769 238.6488 L 399.527 237.6841 L 398.7284 238.2124 L 396.8133 238.0458 L 393.3963 241.4045 L 391.364 240.2504 L 391.6988 238.0287 L 388.8904 236.714 L 389.3651 234.6532 L 389.0805 232.7647 L 386.9699 231.5252 L 385.9759 231.7662 L 383.6085 230.9453 L 381.3642 231.967 L 379.6779 231.4736 L 378.1649 232.1218 L 376.54 231.37 L 374.5803 231.5825 L 371.9058 234.5557 L 371.1075 234.5902 L 369.3879 236.6852 L 367.6233 236.3466 L 366.1605 236.8632 L 366.9868 240.4113 L 368.8184 242.9893 L 370.2086 243.707 L 368.6339 246.4349 L 366.73 248.4277 L 366.8752 249.4444 L 365.6524 252.6725 L 365.8871 254.4706 L 366.8977 256.803 L 367.484 259.8656 L 366.2275 261.3194 L 365.5576 260.8196 L 365.312 262.4514 L 366.1383 264.2275 L 365.1387 265.5549 L 365.6412 266.331 L 364.6419 268.6474 L 365.6748 270.1995 L 365.9037 273.2236 L 363.7987 276.0408 L 360.5996 273.3959 L 358.0368 274.1548 L 357.2551 273.2179 L 355.9319 273.9135 L 355.5912 275.6728 L 354.441 276.3228 L 353.302 274.4193 L 352.8834 275.2417 L 351.4651 275.2705 L 350.1809 276.1387 L 348.8857 273.9594 L 347.6127 273.6031 L 344.7373 273.7294 L 344.1173 275.6959 L 339.807 276.9265 L 336.4347 278.7378 L 335.5803 277.5819 L 333.8607 278.1454 L 333.347 279.0827 L 330.8122 279.244 L 327.8587 280.831 L 327.9703 282.5565 L 327.1328 284.6618 L 328.5174 285.3004 L 329.8462 286.8475 L 329.0255 289.4078 L 326.9205 289.7933 L 327.6745 288.3608 L 326.9374 285.5535 L 325.2345 286.7325 L 325.8766 287.5093 L 325.011 288.3202 L 325.0335 289.8278 L 326.7029 289.9887 L 325.1507 291.8071 L 325.2289 294.0509 L 326.1836 296.8247 L 323.7215 298.5687 L 320.9576 298.275 L 319.3161 295.0177 L 319.4221 294.4079 L 317.7527 291.8644 L 315.7761 291.6113 L 314.6203 292.1521 L 311.3374 291.8644 L 310.5335 290.1212 L 309.0314 288.8268 L 307.8869 288.6541 L 306.5468 289.6723 L 304.7826 289.7299 L 302.5268 293.2741 L 303.4928 294.9373 L 301.9295 297.2046 L 299.6235 296.8365 L 298.987 298.3038 L 296.5972 298.4363 L 295.2684 295.5414 L 295.3522 294.189 L 292.7782 290.4949 L 290.3104 291.036 L 288.0325 293.7689 L 286.5194 292.5148 L 283.6661 294.2178 L 282.851 295.5243 L 281.1425 296.0707 L 281.9857 298.7357 L 281.751 299.737 L 285.0566 301.481 L 285.6984 303.0121 L 283.6717 303.5536 L 282.5886 306.5239 L 283.2699 308.0842 L 282.6278 309.3739 L 283.4261 311.0556 L 281.9801 313.163 L 279.4731 315.075 Z" fill="#FFF" fill-opacity="1" stroke="#666" stroke-width="1" paint-order="fill" stroke-opacity="1" stroke-dasharray="" stroke-linecap="butt" stroke-linejoin="miter" stroke-miterlimit="10" transform="matrix(1,0,0,1,0,0)" clip-path="none"></path>
      </g>
    </g>
    <path d="M 185.5 1465.5  L 185.5 826.5  L 1011.5 826.5  L 1011.5 1465.5  L 185.5 1465.5  Z " stroke-width="1" stroke="#797979" fill="none" />
  </g>
</svg>