<?xml version="1.0" encoding="utf-8"?>
<svg version="1.1" xmlns:xlink="http://www.w3.org/1999/xlink" width="137px" height="137px" xmlns="http://www.w3.org/2000/svg">
  <g transform="matrix(1 0 0 1 -445 -975 )">
    <path d="M 513.5 975  C 551.86 975  582 1005.14  582 1043.5  C 582 1081.86  551.86 1112  513.5 1112  C 475.14 1112  445 1081.86  445 1043.5  C 445 1005.14  475.14 975  513.5 975  Z " fill-rule="nonzero" fill="#facd91" stroke="none" fill-opacity="0.447058823529412" />
    <path d="M 513.5 975.5  C 551.58 975.5  581.5 1005.42  581.5 1043.5  C 581.5 1081.58  551.58 1111.5  513.5 1111.5  C 475.42 1111.5  445.5 1081.58  445.5 1043.5  C 445.5 1005.42  475.42 975.5  513.5 975.5  Z " stroke-width="1" stroke="#f59a23" fill="none" />
  </g>
</svg>