<?xml version="1.0" encoding="utf-8"?>
<svg version="1.1" xmlns:xlink="http://www.w3.org/1999/xlink" width="10px" height="8px" xmlns="http://www.w3.org/2000/svg">
  <g transform="matrix(1 0 0 1 -1439 -189 )">
    <path d="M 9.814453125 7.75260416666667  C 9.93815104166662 7.5876736111111  10 7.3923611111111  10 7.16666666666667  C 10 6.94097222222221  9.93815104166662 6.74565972222224  9.814453125 6.58072916666667  L 5.439453125 0.747395833333332  C 5.31575520833338 0.582465277777764  5.16927083333338 0.5  5 0.5  C 4.83072916666662 0.5  4.68424479166662 0.582465277777764  4.560546875 0.747395833333332  L 0.185546875 6.58072916666667  C 0.0618489583333819 6.74565972222224  0 6.94097222222221  0 7.16666666666667  C 0 7.3923611111111  0.0618489583333819 7.5876736111111  0.185546875 7.75260416666667  C 0.309244791666618 7.91753472222224  0.455729166666618 8  0.625 8  L 9.375 8  C 9.54427083333338 8  9.69075520833338 7.91753472222224  9.814453125 7.75260416666667  Z " fill-rule="nonzero" fill="#999999" stroke="none" transform="matrix(1 0 0 1 1439 189 )" />
  </g>
</svg>