<?xml version="1.0" encoding="utf-8"?>
<svg version="1.1" xmlns:xlink="http://www.w3.org/1999/xlink" width="14px" height="14px" xmlns="http://www.w3.org/2000/svg">
  <g transform="matrix(1 0 0 1 -1798 -235 )">
    <path d="M 14 7  C 14 3.13424999999999  10.86575 0  7 0  C 3.13425000000001 0  0 3.13424999999999  0 7  C 0 10.86575  3.13425000000001 14  7 14  C 10.86575 14  14 10.86575  14 7  Z M 9.74574999999997 5.07908333333334  C 9.65649999999997 5.16891666666667  7.82483333333332 7  7.82483333333332 7  C 7.82483333333332 7  9.65591666666668 8.83108333333333  9.74574999999997 8.92091666666666  C 9.97383333333335 9.149  9.97383333333335 9.51825  9.74574999999997 9.74575  C 9.51766666666671 9.97383333333334  9.14841666666666 9.97383333333334  8.92091666666666 9.74575  C 8.83108333333337 9.6565  7 7.82483333333334  7 7.82483333333334  C 7 7.82483333333334  5.16891666666663 9.65591666666667  5.07908333333334 9.74575  C 4.85099999999998 9.97383333333334  4.48175000000003 9.97383333333334  4.25425000000003 9.74575  C 4.02616666666665 9.51766666666666  4.02616666666665 9.14841666666666  4.25425000000003 8.92091666666666  C 4.34350000000005 8.83108333333333  6.17516666666668 7  6.17516666666668 7  C 6.17516666666668 7  4.3440833333333 5.16891666666667  4.25425000000003 5.07908333333334  C 4.02616666666665 4.851  4.02616666666665 4.48175  4.25425000000003 4.25425  C 4.48233333333329 4.02616666666666  4.85158333333334 4.02616666666666  5.07908333333334 4.25425  C 5.16891666666663 4.3435  7 6.17516666666666  7 6.17516666666666  C 7 6.17516666666666  8.83108333333337 4.34408333333333  8.92091666666666 4.25425  C 9.14900000000003 4.02616666666666  9.51824999999997 4.02616666666666  9.74574999999997 4.25425  C 9.97383333333335 4.48233333333334  9.97383333333335 4.85158333333334  9.74574999999997 5.07908333333334  Z " fill-rule="nonzero" fill="#666666" stroke="none" transform="matrix(1 0 0 1 1798 235 )" />
  </g>
</svg>