<?xml version="1.0" encoding="utf-8"?>
<svg version="1.1" xmlns:xlink="http://www.w3.org/1999/xlink" width="10px" height="10px" xmlns="http://www.w3.org/2000/svg">
  <g transform="matrix(1 0 0 1 -1288 -103 )">
    <path d="M 1293 103  C 1295.8 103  1298 105.2  1298 108  C 1298 110.8  1295.8 113  1293 113  C 1290.2 113  1288 110.8  1288 108  C 1288 105.2  1290.2 103  1293 103  Z " fill-rule="nonzero" fill="#ffffff" stroke="none" />
    <path d="M 1293 103.5  C 1295.52 103.5  1297.5 105.48  1297.5 108  C 1297.5 110.52  1295.52 112.5  1293 112.5  C 1290.48 112.5  1288.5 110.52  1288.5 108  C 1288.5 105.48  1290.48 103.5  1293 103.5  Z " stroke-width="1" stroke="#797979" fill="none" />
  </g>
</svg>