<?xml version="1.0" encoding="utf-8"?>
<svg version="1.1" xmlns:xlink="http://www.w3.org/1999/xlink" width="26px" height="26px" xmlns="http://www.w3.org/2000/svg">
  <g transform="matrix(1 0 0 1 -458 -98 )">
    <path d="M 17.01171875 6.82161458333333  C 17.2261284722222 7.03602430555555  17.3333333333333 7.28993055555555  17 7.58333333333333  L 17 18.4166666666667  C 17.3333333333333 18.7100694444444  17.2261284722222 18.9639756944444  17.01171875 19.1783854166667  C 16.7973090277778 19.3927951388889  16.5434027777778 19.5  16.25 19.5  C 16.0243055555556 19.5  15.8155381944444 19.4322916666667  15.6236979166667 19.296875  L 8.04036458333333 13.8802083333333  C 7.73567708333333 13.6657986111111  7.58333333333333 13.3723958333333  7.58333333333333 13  C 7.58333333333333 12.6276041666667  7.73567708333333 12.3342013888889  8.04036458333333 12.1197916666667  L 15.6236979166667 6.703125  C 15.8155381944444 6.56770833333333  16.0243055555556 6.5  16.25 6.5  C 16.5434027777778 6.5  16.7973090277778 6.60720486111111  17.01171875 6.82161458333333  Z M 21.505859375 21.505859375  C 21.6130642361111 21.3986545138889  21.6666666666667 21.2717013888889  21.6666666666667 21.125  L 21.6666666666667 4.875  C 21.6666666666667 4.72829861111111  21.6130642361111 4.60134548611111  21.505859375 4.494140625  C 21.3986545138889 4.38693576388889  21.2717013888889 4.33333333333333  21.125 4.33333333333333  L 4.875 4.33333333333333  C 4.72829861111111 4.33333333333333  4.60134548611111 4.38693576388889  4.494140625 4.494140625  C 4.38693576388889 4.60134548611111  4.33333333333333 4.72829861111111  4.33333333333333 4.875  L 4.33333333333333 21.125  C 4.33333333333333 21.2717013888889  4.38693576388889 21.3986545138889  4.494140625 21.505859375  C 4.60134548611111 21.6130642361111  4.72829861111111 21.6666666666667  4.875 21.6666666666667  L 21.125 21.6666666666667  C 21.2717013888889 21.6666666666667  21.3986545138889 21.6130642361111  21.505859375 21.505859375  Z M 24.5696614583333 1.43033854166667  C 25.5232204861111 2.38389756944444  26 3.53211805555555  26 4.875  L 26 21.125  C 26 22.4678819444444  25.5232204861111 23.6161024305556  24.5696614583333 24.5696614583333  C 23.6161024305556 25.5232204861111  22.4678819444444 26  21.125 26  L 4.875 26  C 3.53211805555556 26  2.38389756944444 25.5232204861111  1.43033854166667 24.5696614583333  C 0.476779513888889 23.6161024305556  0 22.4678819444444  0 21.125  L 0 4.875  C 0 3.53211805555555  0.476779513888889 2.38389756944444  1.43033854166667 1.43033854166667  C 2.38389756944444 0.476779513888887  3.53211805555556 0  4.875 0  L 21.125 0  C 22.4678819444444 0  23.6161024305556 0.476779513888887  24.5696614583333 1.43033854166667  Z " fill-rule="nonzero" fill="#000000" stroke="none" transform="matrix(1 0 0 1 458 98 )" />
  </g>
</svg>