<?xml version="1.0" encoding="utf-8"?>
<svg version="1.1" xmlns:xlink="http://www.w3.org/1999/xlink" width="10px" height="10px" xmlns="http://www.w3.org/2000/svg">
  <g transform="matrix(1 0 0 1 -1206 -103 )">
    <path d="M 1211 103  C 1213.8 103  1216 105.2  1216 108  C 1216 110.8  1213.8 113  1211 113  C 1208.2 113  1206 110.8  1206 108  C 1206 105.2  1208.2 103  1211 103  Z " fill-rule="nonzero" fill="#333333" stroke="none" />
    <path d="M 1211 103.5  C 1213.52 103.5  1215.5 105.48  1215.5 108  C 1215.5 110.52  1213.52 112.5  1211 112.5  C 1208.48 112.5  1206.5 110.52  1206.5 108  C 1206.5 105.48  1208.48 103.5  1211 103.5  Z " stroke-width="1" stroke="#797979" fill="none" />
  </g>
</svg>