<?xml version="1.0" encoding="utf-8"?>
<svg version="1.1" xmlns:xlink="http://www.w3.org/1999/xlink" width="12px" height="12px" viewBox="1760 845  12 12" xmlns="http://www.w3.org/2000/svg">
  <path d="M 1766 845  C 1769.36 845  1772 847.64  1772 851  C 1772 854.36  1769.36 857  1766 857  C 1762.64 857  1760 854.36  1760 851  C 1760 847.64  1762.64 845  1766 845  Z " fill-rule="nonzero" fill="#f0f0f0" stroke="none" />
  <path d="M 1766 845.5  C 1769.08 845.5  1771.5 847.92  1771.5 851  C 1771.5 854.08  1769.08 856.5  1766 856.5  C 1762.92 856.5  1760.5 854.08  1760.5 851  C 1760.5 847.92  1762.92 845.5  1766 845.5  Z " stroke-width="1" stroke="#797979" fill="none" />
  <path d="M 1766 854  C 1764.32 854  1763 852.68  1763 851  C 1763 849.32  1764.32 848  1766 848  C 1767.68 848  1769 849.32  1769 851  C 1769 852.68  1767.68 854  1766 854  " fill-rule="nonzero" fill="#797979" stroke="none" />
</svg>