<?xml version="1.0" encoding="utf-8"?>
<svg version="1.1" xmlns:xlink="http://www.w3.org/1999/xlink" width="12px" height="12px" viewBox="2317 1198  12 12" xmlns="http://www.w3.org/2000/svg">
  <path d="M 2323 1198  C 2326.36 1198  2329 1200.64  2329 1204  C 2329 1207.36  2326.36 1210  2323 1210  C 2319.64 1210  2317 1207.36  2317 1204  C 2317 1200.64  2319.64 1198  2323 1198  Z " fill-rule="nonzero" fill="#ffffff" stroke="none" />
  <path d="M 2323 1198.5  C 2326.08 1198.5  2328.5 1200.92  2328.5 1204  C 2328.5 1207.08  2326.08 1209.5  2323 1209.5  C 2319.92 1209.5  2317.5 1207.08  2317.5 1204  C 2317.5 1200.92  2319.92 1198.5  2323 1198.5  Z " stroke-width="1" stroke="#797979" fill="none" />
  <path d="M 2323 1207  C 2321.32 1207  2320 1205.68  2320 1204  C 2320 1202.32  2321.32 1201  2323 1201  C 2324.68 1201  2326 1202.32  2326 1204  C 2326 1205.68  2324.68 1207  2323 1207  " fill-rule="nonzero" fill="#797979" stroke="none" />
</svg>