<?xml version="1.0" encoding="utf-8"?>
<svg version="1.1" xmlns:xlink="http://www.w3.org/1999/xlink" width="12px" height="12px" viewBox="1759 913  12 12" xmlns="http://www.w3.org/2000/svg">
  <path d="M 1765 913  C 1768.36 913  1771 915.64  1771 919  C 1771 922.36  1768.36 925  1765 925  C 1761.64 925  1759 922.36  1759 919  C 1759 915.64  1761.64 913  1765 913  Z " fill-rule="nonzero" fill="#ffffff" stroke="none" />
  <path d="M 1765 913.5  C 1768.08 913.5  1770.5 915.92  1770.5 919  C 1770.5 922.08  1768.08 924.5  1765 924.5  C 1761.92 924.5  1759.5 922.08  1759.5 919  C 1759.5 915.92  1761.92 913.5  1765 913.5  Z " stroke-width="1" stroke="#797979" fill="none" />
  <path d="M 1765 922  C 1763.32 922  1762 920.68  1762 919  C 1762 917.32  1763.32 916  1765 916  C 1766.68 916  1768 917.32  1768 919  C 1768 920.68  1766.68 922  1765 922  " fill-rule="nonzero" fill="#797979" stroke="none" />
</svg>