<?xml version="1.0" encoding="utf-8"?>
<svg version="1.1" xmlns:xlink="http://www.w3.org/1999/xlink" width="12px" height="12px" viewBox="1814 420  12 12" xmlns="http://www.w3.org/2000/svg">
  <path d="M 1820 420  C 1823.36 420  1826 422.64  1826 426  C 1826 429.36  1823.36 432  1820 432  C 1816.64 432  1814 429.36  1814 426  C 1814 422.64  1816.64 420  1820 420  Z " fill-rule="nonzero" fill="#f0f0f0" stroke="none" />
  <path d="M 1820 420.5  C 1823.08 420.5  1825.5 422.92  1825.5 426  C 1825.5 429.08  1823.08 431.5  1820 431.5  C 1816.92 431.5  1814.5 429.08  1814.5 426  C 1814.5 422.92  1816.92 420.5  1820 420.5  Z " stroke-width="1" stroke="#797979" fill="none" />
  <path d="M 1820 429  C 1818.32 429  1817 427.68  1817 426  C 1817 424.32  1818.32 423  1820 423  C 1821.68 423  1823 424.32  1823 426  C 1823 427.68  1821.68 429  1820 429  " fill-rule="nonzero" fill="#797979" stroke="none" />
</svg>