<?xml version="1.0" encoding="utf-8"?>
<svg version="1.1" xmlns:xlink="http://www.w3.org/1999/xlink" width="12px" height="12px" viewBox="2216 1148  12 12" xmlns="http://www.w3.org/2000/svg">
  <path d="M 2222 1148  C 2225.36 1148  2228 1150.64  2228 1154  C 2228 1157.36  2225.36 1160  2222 1160  C 2218.64 1160  2216 1157.36  2216 1154  C 2216 1150.64  2218.64 1148  2222 1148  Z " fill-rule="nonzero" fill="#ffffff" stroke="none" />
  <path d="M 2222 1148.5  C 2225.08 1148.5  2227.5 1150.92  2227.5 1154  C 2227.5 1157.08  2225.08 1159.5  2222 1159.5  C 2218.92 1159.5  2216.5 1157.08  2216.5 1154  C 2216.5 1150.92  2218.92 1148.5  2222 1148.5  Z " stroke-width="1" stroke="#797979" fill="none" />
  <path d="M 2222 1157  C 2220.32 1157  2219 1155.68  2219 1154  C 2219 1152.32  2220.32 1151  2222 1151  C 2223.68 1151  2225 1152.32  2225 1154  C 2225 1155.68  2223.68 1157  2222 1157  " fill-rule="nonzero" fill="#797979" stroke="none" />
</svg>