<?xml version="1.0" encoding="utf-8"?>
<svg version="1.1" xmlns:xlink="http://www.w3.org/1999/xlink" width="12px" height="12px" viewBox="1736 1668  12 12" xmlns="http://www.w3.org/2000/svg">
  <path d="M 1742 1668  C 1745.36 1668  1748 1670.64  1748 1674  C 1748 1677.36  1745.36 1680  1742 1680  C 1738.64 1680  1736 1677.36  1736 1674  C 1736 1670.64  1738.64 1668  1742 1668  Z " fill-rule="nonzero" fill="#ffffff" stroke="none" />
  <path d="M 1742 1668.5  C 1745.08 1668.5  1747.5 1670.92  1747.5 1674  C 1747.5 1677.08  1745.08 1679.5  1742 1679.5  C 1738.92 1679.5  1736.5 1677.08  1736.5 1674  C 1736.5 1670.92  1738.92 1668.5  1742 1668.5  Z " stroke-width="1" stroke="#797979" fill="none" />
  <path d="M 1742 1677  C 1740.32 1677  1739 1675.68  1739 1674  C 1739 1672.32  1740.32 1671  1742 1671  C 1743.68 1671  1745 1672.32  1745 1674  C 1745 1675.68  1743.68 1677  1742 1677  " fill-rule="nonzero" fill="#797979" stroke="none" />
</svg>