<?xml version="1.0" encoding="utf-8"?>
<svg version="1.1" xmlns:xlink="http://www.w3.org/1999/xlink" width="12px" height="12px" viewBox="1831 1668  12 12" xmlns="http://www.w3.org/2000/svg">
  <path d="M 1837 1668  C 1840.36 1668  1843 1670.64  1843 1674  C 1843 1677.36  1840.36 1680  1837 1680  C 1833.64 1680  1831 1677.36  1831 1674  C 1831 1670.64  1833.64 1668  1837 1668  Z " fill-rule="nonzero" fill="#ffffff" stroke="none" />
  <path d="M 1837 1668.5  C 1840.08 1668.5  1842.5 1670.92  1842.5 1674  C 1842.5 1677.08  1840.08 1679.5  1837 1679.5  C 1833.92 1679.5  1831.5 1677.08  1831.5 1674  C 1831.5 1670.92  1833.92 1668.5  1837 1668.5  Z " stroke-width="1" stroke="#797979" fill="none" />
  <path d="M 1837 1677  C 1835.32 1677  1834 1675.68  1834 1674  C 1834 1672.32  1835.32 1671  1837 1671  C 1838.68 1671  1840 1672.32  1840 1674  C 1840 1675.68  1838.68 1677  1837 1677  " fill-rule="nonzero" fill="#797979" stroke="none" />
</svg>