<?xml version="1.0" encoding="utf-8"?>
<svg version="1.1" xmlns:xlink="http://www.w3.org/1999/xlink" width="12px" height="12px" viewBox="1643 1718  12 12" xmlns="http://www.w3.org/2000/svg">
  <path d="M 1649 1718  C 1652.36 1718  1655 1720.64  1655 1724  C 1655 1727.36  1652.36 1730  1649 1730  C 1645.64 1730  1643 1727.36  1643 1724  C 1643 1720.64  1645.64 1718  1649 1718  Z " fill-rule="nonzero" fill="#ffffff" stroke="none" />
  <path d="M 1649 1718.5  C 1652.08 1718.5  1654.5 1720.92  1654.5 1724  C 1654.5 1727.08  1652.08 1729.5  1649 1729.5  C 1645.92 1729.5  1643.5 1727.08  1643.5 1724  C 1643.5 1720.92  1645.92 1718.5  1649 1718.5  Z " stroke-width="1" stroke="#797979" fill="none" />
  <path d="M 1649 1727  C 1647.32 1727  1646 1725.68  1646 1724  C 1646 1722.32  1647.32 1721  1649 1721  C 1650.68 1721  1652 1722.32  1652 1724  C 1652 1725.68  1650.68 1727  1649 1727  " fill-rule="nonzero" fill="#797979" stroke="none" />
</svg>