<?xml version="1.0" encoding="utf-8"?>
<svg version="1.1" xmlns:xlink="http://www.w3.org/1999/xlink" width="12px" height="12px" viewBox="2306 1148  12 12" xmlns="http://www.w3.org/2000/svg">
  <path d="M 2312 1148  C 2315.36 1148  2318 1150.64  2318 1154  C 2318 1157.36  2315.36 1160  2312 1160  C 2308.64 1160  2306 1157.36  2306 1154  C 2306 1150.64  2308.64 1148  2312 1148  Z " fill-rule="nonzero" fill="#ffffff" stroke="none" />
  <path d="M 2312 1148.5  C 2315.08 1148.5  2317.5 1150.92  2317.5 1154  C 2317.5 1157.08  2315.08 1159.5  2312 1159.5  C 2308.92 1159.5  2306.5 1157.08  2306.5 1154  C 2306.5 1150.92  2308.92 1148.5  2312 1148.5  Z " stroke-width="1" stroke="#797979" fill="none" />
  <path d="M 2312 1157  C 2310.32 1157  2309 1155.68  2309 1154  C 2309 1152.32  2310.32 1151  2312 1151  C 2313.68 1151  2315 1152.32  2315 1154  C 2315 1155.68  2313.68 1157  2312 1157  " fill-rule="nonzero" fill="#797979" stroke="none" />
</svg>