<?xml version="1.0" encoding="utf-8"?>
<svg version="1.1" xmlns:xlink="http://www.w3.org/1999/xlink" width="12px" height="12px" viewBox="2401 1148  12 12" xmlns="http://www.w3.org/2000/svg">
  <path d="M 2407 1148  C 2410.36 1148  2413 1150.64  2413 1154  C 2413 1157.36  2410.36 1160  2407 1160  C 2403.64 1160  2401 1157.36  2401 1154  C 2401 1150.64  2403.64 1148  2407 1148  Z " fill-rule="nonzero" fill="#ffffff" stroke="none" />
  <path d="M 2407 1148.5  C 2410.08 1148.5  2412.5 1150.92  2412.5 1154  C 2412.5 1157.08  2410.08 1159.5  2407 1159.5  C 2403.92 1159.5  2401.5 1157.08  2401.5 1154  C 2401.5 1150.92  2403.92 1148.5  2407 1148.5  Z " stroke-width="1" stroke="#797979" fill="none" />
  <path d="M 2407 1157  C 2405.32 1157  2404 1155.68  2404 1154  C 2404 1152.32  2405.32 1151  2407 1151  C 2408.68 1151  2410 1152.32  2410 1154  C 2410 1155.68  2408.68 1157  2407 1157  " fill-rule="nonzero" fill="#797979" stroke="none" />
</svg>