<?xml version="1.0" encoding="utf-8"?>
<svg version="1.1" xmlns:xlink="http://www.w3.org/1999/xlink" width="12px" height="12px" viewBox="2433 1198  12 12" xmlns="http://www.w3.org/2000/svg">
  <path d="M 2439 1198  C 2442.36 1198  2445 1200.64  2445 1204  C 2445 1207.36  2442.36 1210  2439 1210  C 2435.64 1210  2433 1207.36  2433 1204  C 2433 1200.64  2435.64 1198  2439 1198  Z " fill-rule="nonzero" fill="#f0f0f0" stroke="none" />
  <path d="M 2439 1198.5  C 2442.08 1198.5  2444.5 1200.92  2444.5 1204  C 2444.5 1207.08  2442.08 1209.5  2439 1209.5  C 2435.92 1209.5  2433.5 1207.08  2433.5 1204  C 2433.5 1200.92  2435.92 1198.5  2439 1198.5  Z " stroke-width="1" stroke="#797979" fill="none" />
  <path d="M 2439 1207  C 2437.32 1207  2436 1205.68  2436 1204  C 2436 1202.32  2437.32 1201  2439 1201  C 2440.68 1201  2442 1202.32  2442 1204  C 2442 1205.68  2440.68 1207  2439 1207  " fill-rule="nonzero" fill="#797979" stroke="none" />
</svg>