<?xml version="1.0" encoding="utf-8"?>
<svg version="1.1" xmlns:xlink="http://www.w3.org/1999/xlink" width="12px" height="12px" viewBox="1747 1718  12 12" xmlns="http://www.w3.org/2000/svg">
  <path d="M 1753 1718  C 1756.36 1718  1759 1720.64  1759 1724  C 1759 1727.36  1756.36 1730  1753 1730  C 1749.64 1730  1747 1727.36  1747 1724  C 1747 1720.64  1749.64 1718  1753 1718  Z " fill-rule="nonzero" fill="#ffffff" stroke="none" />
  <path d="M 1753 1718.5  C 1756.08 1718.5  1758.5 1720.92  1758.5 1724  C 1758.5 1727.08  1756.08 1729.5  1753 1729.5  C 1749.92 1729.5  1747.5 1727.08  1747.5 1724  C 1747.5 1720.92  1749.92 1718.5  1753 1718.5  Z " stroke-width="1" stroke="#797979" fill="none" />
  <path d="M 1753 1727  C 1751.32 1727  1750 1725.68  1750 1724  C 1750 1722.32  1751.32 1721  1753 1721  C 1754.68 1721  1756 1722.32  1756 1724  C 1756 1725.68  1754.68 1727  1753 1727  " fill-rule="nonzero" fill="#797979" stroke="none" />
</svg>