<?xml version="1.0" encoding="utf-8"?>
<svg version="1.1" xmlns:xlink="http://www.w3.org/1999/xlink" width="12px" height="12px" viewBox="1863 1718  12 12" xmlns="http://www.w3.org/2000/svg">
  <path d="M 1869 1718  C 1872.36 1718  1875 1720.64  1875 1724  C 1875 1727.36  1872.36 1730  1869 1730  C 1865.64 1730  1863 1727.36  1863 1724  C 1863 1720.64  1865.64 1718  1869 1718  Z " fill-rule="nonzero" fill="#ffffff" stroke="none" />
  <path d="M 1869 1718.5  C 1872.08 1718.5  1874.5 1720.92  1874.5 1724  C 1874.5 1727.08  1872.08 1729.5  1869 1729.5  C 1865.92 1729.5  1863.5 1727.08  1863.5 1724  C 1863.5 1720.92  1865.92 1718.5  1869 1718.5  Z " stroke-width="1" stroke="#797979" fill="none" />
  <path d="M 1869 1727  C 1867.32 1727  1866 1725.68  1866 1724  C 1866 1722.32  1867.32 1721  1869 1721  C 1870.68 1721  1872 1722.32  1872 1724  C 1872 1725.68  1870.68 1727  1869 1727  " fill-rule="nonzero" fill="#797979" stroke="none" />
</svg>