<?xml version="1.0" encoding="utf-8"?>
<svg version="1.1" xmlns:xlink="http://www.w3.org/1999/xlink" width="12px" height="12px" viewBox="1880 845  12 12" xmlns="http://www.w3.org/2000/svg">
  <path d="M 1886 845  C 1889.36 845  1892 847.64  1892 851  C 1892 854.36  1889.36 857  1886 857  C 1882.64 857  1880 854.36  1880 851  C 1880 847.64  1882.64 845  1886 845  Z " fill-rule="nonzero" fill="#ffffff" stroke="none" />
  <path d="M 1886 845.5  C 1889.08 845.5  1891.5 847.92  1891.5 851  C 1891.5 854.08  1889.08 856.5  1886 856.5  C 1882.92 856.5  1880.5 854.08  1880.5 851  C 1880.5 847.92  1882.92 845.5  1886 845.5  Z " stroke-width="1" stroke="#797979" fill="none" />
  <path d="M 1886 854  C 1884.32 854  1883 852.68  1883 851  C 1883 849.32  1884.32 848  1886 848  C 1887.68 848  1889 849.32  1889 851  C 1889 852.68  1887.68 854  1886 854  " fill-rule="nonzero" fill="#797979" stroke="none" />
</svg>