<?xml version="1.0" encoding="utf-8"?>
<svg version="1.1" xmlns:xlink="http://www.w3.org/1999/xlink" width="12px" height="12px" viewBox="1915 1968  12 12" xmlns="http://www.w3.org/2000/svg">
  <path d="M 1921 1968  C 1924.36 1968  1927 1970.64  1927 1974  C 1927 1977.36  1924.36 1980  1921 1980  C 1917.64 1980  1915 1977.36  1915 1974  C 1915 1970.64  1917.64 1968  1921 1968  Z " fill-rule="nonzero" fill="#ffffff" stroke="none" />
  <path d="M 1921 1968.5  C 1924.08 1968.5  1926.5 1970.92  1926.5 1974  C 1926.5 1977.08  1924.08 1979.5  1921 1979.5  C 1917.92 1979.5  1915.5 1977.08  1915.5 1974  C 1915.5 1970.92  1917.92 1968.5  1921 1968.5  Z " stroke-width="1" stroke="#797979" fill="none" />
  <path d="M 1921 1977  C 1919.32 1977  1918 1975.68  1918 1974  C 1918 1972.32  1919.32 1971  1921 1971  C 1922.68 1971  1924 1972.32  1924 1974  C 1924 1975.68  1922.68 1977  1921 1977  " fill-rule="nonzero" fill="#797979" stroke="none" />
</svg>