<?xml version="1.0" encoding="utf-8"?>
<svg version="1.1" xmlns:xlink="http://www.w3.org/1999/xlink" width="12px" height="12px" viewBox="1780 845  12 12" xmlns="http://www.w3.org/2000/svg">
  <path d="M 1786 845  C 1789.36 845  1792 847.64  1792 851  C 1792 854.36  1789.36 857  1786 857  C 1782.64 857  1780 854.36  1780 851  C 1780 847.64  1782.64 845  1786 845  Z " fill-rule="nonzero" fill="#ffffff" stroke="none" />
  <path d="M 1786 845.5  C 1789.08 845.5  1791.5 847.92  1791.5 851  C 1791.5 854.08  1789.08 856.5  1786 856.5  C 1782.92 856.5  1780.5 854.08  1780.5 851  C 1780.5 847.92  1782.92 845.5  1786 845.5  Z " stroke-width="1" stroke="#797979" fill="none" />
  <path d="M 1786 854  C 1784.32 854  1783 852.68  1783 851  C 1783 849.32  1784.32 848  1786 848  C 1787.68 848  1789 849.32  1789 851  C 1789 852.68  1787.68 854  1786 854  " fill-rule="nonzero" fill="#797979" stroke="none" />
</svg>