<?xml version="1.0" encoding="utf-8"?>
<svg version="1.1" xmlns:xlink="http://www.w3.org/1999/xlink" width="12px" height="12px" viewBox="1659 913  12 12" xmlns="http://www.w3.org/2000/svg">
  <path d="M 1665 913  C 1668.36 913  1671 915.64  1671 919  C 1671 922.36  1668.36 925  1665 925  C 1661.64 925  1659 922.36  1659 919  C 1659 915.64  1661.64 913  1665 913  Z " fill-rule="nonzero" fill="#f0f0f0" stroke="none" />
  <path d="M 1665 913.5  C 1668.08 913.5  1670.5 915.92  1670.5 919  C 1670.5 922.08  1668.08 924.5  1665 924.5  C 1661.92 924.5  1659.5 922.08  1659.5 919  C 1659.5 915.92  1661.92 913.5  1665 913.5  Z " stroke-width="1" stroke="#797979" fill="none" />
  <path d="M 1665 922  C 1663.32 922  1662 920.68  1662 919  C 1662 917.32  1663.32 916  1665 916  C 1666.68 916  1668 917.32  1668 919  C 1668 920.68  1666.68 922  1665 922  " fill-rule="nonzero" fill="#797979" stroke="none" />
</svg>