<?xml version="1.0" encoding="utf-8"?>
<svg version="1.1" xmlns:xlink="http://www.w3.org/1999/xlink" width="12px" height="12px" viewBox="1659 873  12 12" xmlns="http://www.w3.org/2000/svg">
  <path d="M 1665 873  C 1668.36 873  1671 875.64  1671 879  C 1671 882.36  1668.36 885  1665 885  C 1661.64 885  1659 882.36  1659 879  C 1659 875.64  1661.64 873  1665 873  Z " fill-rule="nonzero" fill="#ffffff" stroke="none" />
  <path d="M 1665 873.5  C 1668.08 873.5  1670.5 875.92  1670.5 879  C 1670.5 882.08  1668.08 884.5  1665 884.5  C 1661.92 884.5  1659.5 882.08  1659.5 879  C 1659.5 875.92  1661.92 873.5  1665 873.5  Z " stroke-width="1" stroke="#797979" fill="none" />
  <path d="M 1665 882  C 1663.32 882  1662 880.68  1662 879  C 1662 877.32  1663.32 876  1665 876  C 1666.68 876  1668 877.32  1668 879  C 1668 880.68  1666.68 882  1665 882  " fill-rule="nonzero" fill="#797979" stroke="none" />
</svg>