<?xml version="1.0" encoding="utf-8"?>
<svg version="1.1" xmlns:xlink="http://www.w3.org/1999/xlink" width="12px" height="12px" viewBox="1815 392  12 12" xmlns="http://www.w3.org/2000/svg">
  <path d="M 1821 392  C 1824.36 392  1827 394.64  1827 398  C 1827 401.36  1824.36 404  1821 404  C 1817.64 404  1815 401.36  1815 398  C 1815 394.64  1817.64 392  1821 392  Z " fill-rule="nonzero" fill="#ffffff" stroke="none" />
  <path d="M 1821 392.5  C 1824.08 392.5  1826.5 394.92  1826.5 398  C 1826.5 401.08  1824.08 403.5  1821 403.5  C 1817.92 403.5  1815.5 401.08  1815.5 398  C 1815.5 394.92  1817.92 392.5  1821 392.5  Z " stroke-width="1" stroke="#797979" fill="none" />
  <path d="M 1821 401  C 1819.32 401  1818 399.68  1818 398  C 1818 396.32  1819.32 395  1821 395  C 1822.68 395  1824 396.32  1824 398  C 1824 399.68  1822.68 401  1821 401  " fill-rule="nonzero" fill="#797979" stroke="none" />
</svg>