<?xml version="1.0" encoding="utf-8"?>
<svg version="1.1" xmlns:xlink="http://www.w3.org/1999/xlink" width="12px" height="12px" viewBox="1660 845  12 12" xmlns="http://www.w3.org/2000/svg">
  <path d="M 1666 845  C 1669.36 845  1672 847.64  1672 851  C 1672 854.36  1669.36 857  1666 857  C 1662.64 857  1660 854.36  1660 851  C 1660 847.64  1662.64 845  1666 845  Z " fill-rule="nonzero" fill="#ffffff" stroke="none" />
  <path d="M 1666 845.5  C 1669.08 845.5  1671.5 847.92  1671.5 851  C 1671.5 854.08  1669.08 856.5  1666 856.5  C 1662.92 856.5  1660.5 854.08  1660.5 851  C 1660.5 847.92  1662.92 845.5  1666 845.5  Z " stroke-width="1" stroke="#797979" fill="none" />
  <path d="M 1666 854  C 1664.32 854  1663 852.68  1663 851  C 1663 849.32  1664.32 848  1666 848  C 1667.68 848  1669 849.32  1669 851  C 1669 852.68  1667.68 854  1666 854  " fill-rule="nonzero" fill="#797979" stroke="none" />
</svg>