<?xml version="1.0" encoding="utf-8"?>
<svg version="1.1" xmlns:xlink="http://www.w3.org/1999/xlink" width="12px" height="12px" viewBox="1695 1967  12 12" xmlns="http://www.w3.org/2000/svg">
  <path d="M 1701 1967  C 1704.36 1967  1707 1969.64  1707 1973  C 1707 1976.36  1704.36 1979  1701 1979  C 1697.64 1979  1695 1976.36  1695 1973  C 1695 1969.64  1697.64 1967  1701 1967  Z " fill-rule="nonzero" fill="#f0f0f0" stroke="none" />
  <path d="M 1701 1967.5  C 1704.08 1967.5  1706.5 1969.92  1706.5 1973  C 1706.5 1976.08  1704.08 1978.5  1701 1978.5  C 1697.92 1978.5  1695.5 1976.08  1695.5 1973  C 1695.5 1969.92  1697.92 1967.5  1701 1967.5  Z " stroke-width="1" stroke="#797979" fill="none" />
  <path d="M 1701 1976  C 1699.32 1976  1698 1974.68  1698 1973  C 1698 1971.32  1699.32 1970  1701 1970  C 1702.68 1970  1704 1971.32  1704 1973  C 1704 1974.68  1702.68 1976  1701 1976  " fill-rule="nonzero" fill="#797979" stroke="none" />
</svg>