<?xml version="1.0" encoding="utf-8"?>
<svg version="1.1" xmlns:xlink="http://www.w3.org/1999/xlink" width="12px" height="12px" viewBox="1805 1968  12 12" xmlns="http://www.w3.org/2000/svg">
  <path d="M 1811 1968  C 1814.36 1968  1817 1970.64  1817 1974  C 1817 1977.36  1814.36 1980  1811 1980  C 1807.64 1980  1805 1977.36  1805 1974  C 1805 1970.64  1807.64 1968  1811 1968  Z " fill-rule="nonzero" fill="#f0f0f0" stroke="none" />
  <path d="M 1811 1968.5  C 1814.08 1968.5  1816.5 1970.92  1816.5 1974  C 1816.5 1977.08  1814.08 1979.5  1811 1979.5  C 1807.92 1979.5  1805.5 1977.08  1805.5 1974  C 1805.5 1970.92  1807.92 1968.5  1811 1968.5  Z " stroke-width="1" stroke="#797979" fill="none" />
  <path d="M 1811 1977  C 1809.32 1977  1808 1975.68  1808 1974  C 1808 1972.32  1809.32 1971  1811 1971  C 1812.68 1971  1814 1972.32  1814 1974  C 1814 1975.68  1812.68 1977  1811 1977  " fill-rule="nonzero" fill="#797979" stroke="none" />
</svg>