<?xml version="1.0" encoding="UTF-8"?>
<svg width="40px" height="40px" viewBox="0 0 40 40" version="1.1" xmlns="http://www.w3.org/2000/svg" xmlns:xlink="http://www.w3.org/1999/xlink">
    <title>ahi</title>
    <g id="ahi" stroke="none" stroke-width="1" fill="none" fill-rule="evenodd">
        <g id="AHI">
            <rect id="矩形" x="0" y="0" width="40" height="40"></rect>
            <path d="M12.7612457,34.1601747 L11.6816609,24.2499374 L6.00692042,24.2499374 L4.89965398,34.1601747 L0,34.1601747 L5.81314879,5.62286787 L11.8477509,5.62286787 L17.6608997,34.1601747 L12.7612457,34.1601747 Z M7.08650519,20.2189026 L10.5743945,20.2189026 L8.85813149,10.5233416 L7.08650519,20.2189026 Z" id="形状" fill="#FFFFFF" fill-rule="nonzero"></path>
            <path d="M33.4917341,5.61900244 L33.4917341,34.2616958 L28.3429451,34.2616958 L28.3429451,20.4521568 L23.7680257,20.4521568 L23.7680257,34.2616958 L18.6192367,34.2616958 L18.6192367,5.61900244 L23.7680257,5.61900244 L23.7680257,18.5288526 C23.8602979,17.6857604 24.1002056,17.0622234 24.4877488,16.6582417 C24.8752921,16.25426 25.456607,16.0522691 26.2316935,16.0522691 L28.3429451,16.0522691 L28.3429451,5.61900244 L33.4917341,5.61900244 Z" id="路径" fill="#FFFFFF" fill-rule="nonzero"></path>
            <polygon id="路径" fill="#FFFFFF" fill-rule="nonzero" points="34.8512111 5.5701746 40 5.5701746 40 34.2128679 34.8512111 34.2128679"></polygon>
        </g>
    </g>
</svg>