<?xml version="1.0" encoding="UTF-8"?>
<svg width="37px" height="36px" viewBox="0 0 37 36" version="1.1" xmlns="http://www.w3.org/2000/svg" xmlns:xlink="http://www.w3.org/1999/xlink">
    <title>一键呼叫报警器</title>
    <defs>
        <linearGradient x1="50%" y1="0%" x2="50%" y2="100%" id="linearGradient-1">
            <stop stop-color="#079DA4" offset="0%"></stop>
            <stop stop-color="#03646B" offset="100%"></stop>
        </linearGradient>
        <path d="M10.3867347,21.2973534 C4.65029952,21.2973534 0,16.5297784 0,10.6486767 C0,4.76757495 4.65029952,0 10.3867347,0 C16.1231699,0 20.7734694,4.76757495 20.7734694,10.6486767 C20.7734694,13.4728814 19.6791558,16.1814139 17.7312652,18.1784282 C15.7833746,20.1754425 13.141468,21.2973534 10.3867347,21.2973534 Z" id="path-2"></path>
        <filter x="-26.5%" y="-16.4%" width="153.0%" height="151.6%" filterUnits="objectBoundingBox" id="filter-3">
            <feOffset dx="0" dy="2" in="SourceAlpha" result="shadowOffsetOuter1"></feOffset>
            <feGaussianBlur stdDeviation="1.5" in="shadowOffsetOuter1" result="shadowBlurOuter1"></feGaussianBlur>
            <feColorMatrix values="0 0 0 0 0.541176471   0 0 0 0 0.749019608   0 0 0 0 0.780392157  0 0 0 1 0" type="matrix" in="shadowBlurOuter1"></feColorMatrix>
        </filter>
        <path d="M10.378806,5.90549744 C8.51056235,5.90027488 6.82343416,7.05002608 6.10494369,8.81808491 C5.38645322,10.5861437 5.7782772,12.6238725 7.09751899,13.9800947 C8.41676077,15.3363169 10.4032835,15.7436036 12.1298126,15.0118403 C13.8563417,14.2800771 14.9824358,12.5535579 14.9824358,10.638192 C14.9789829,8.03092409 12.9219199,5.9161984 10.378806,5.90549744 Z" id="path-4"></path>
        <filter x="-16.2%" y="-15.8%" width="132.5%" height="131.7%" filterUnits="objectBoundingBox" id="filter-5">
            <feOffset dx="0" dy="0" in="SourceAlpha" result="shadowOffsetOuter1"></feOffset>
            <feGaussianBlur stdDeviation="0.5" in="shadowOffsetOuter1" result="shadowBlurOuter1"></feGaussianBlur>
            <feColorMatrix values="0 0 0 0 0.364705882   0 0 0 0 0.674509804   0 0 0 0 0.694117647  0 0 0 1 0" type="matrix" in="shadowBlurOuter1"></feColorMatrix>
        </filter>
    </defs>
    <g id="页面-1" stroke="none" stroke-width="1" fill="none" fill-rule="evenodd">
        <g id="地图模式-确认稿切图2" transform="translate(-34.000000, -571.000000)">
            <g id="一键呼叫报警器" transform="translate(35.000000, 571.000000)">
                <g id="编组-33">
                    <path d="M1.01913919,21.375 L1.01958261,35.1935419 L14.5051392,35.193 L14.5051392,35.999 L0.177139187,36 L0.177139187,21.375 L1.01913919,21.375 Z M35.9971392,21.375 L35.9971999,36 L21.6691392,35.999 L21.6691392,35.193 L35.1705089,35.1935419 L35.1701392,21.375 L35.9971392,21.375 Z M14.5051392,1.8189894e-12 L14.5051392,0.897 L1.01958261,0.897039107 L1.01913919,14.175 L0.177139187,14.175 L0.177139187,1.8189894e-12 L14.5051392,1.8189894e-12 Z M35.9971999,1.8189894e-12 L35.9971392,14.175 L35.1701392,14.175 L35.1705089,0.897039107 L21.6691392,0.897 L21.6691392,1.8189894e-12 L35.9971999,1.8189894e-12 Z" id="形状结合" fill="#8CC1C9"></path>
                    <rect id="矩形备份-54" fill="#237784" x="0.177139187" y="1.8189894e-12" width="1.34325228" height="1"></rect>
                    <path d="M35.9971999,36 L33.8519185,36 L33.8519185,35.1935419 L35.1699185,35.193 L35.1705089,33.85 L35.9971999,33.85 L35.9971999,36 Z" id="形状结合" fill="#237784"></path>
                    <path d="M2.31197629,36 L0.166694879,36 L0.166694879,35.1935419 L1.48469488,35.193 L1.48528528,33.85 L2.31197629,33.85 L2.31197629,36 Z" id="形状结合备份-2" fill="#237784" transform="translate(1.239336, 34.925000) scale(-1, 1) translate(-1.239336, -34.925000) "></path>
                    <path d="M36,2.15307055 L33.8547186,2.15307055 L33.8547186,1.34661244 L35.1727186,1.34607055 L35.173309,0.00307054653 L36,0.00307054653 L36,2.15307055 Z" id="形状结合备份" fill="#237784" transform="translate(34.927359, 1.078071) scale(1, -1) translate(-34.927359, -1.078071) "></path>
                    <path d="M2.31477637,2.15307055 L0.169494955,2.15307055 L0.169494955,1.34661244 L1.48749495,1.34607055 L1.48808536,0.00307054653 L2.31477637,0.00307054653 L2.31477637,2.15307055 Z" id="形状结合备份-3" fill="#237784" transform="translate(1.242136, 1.078071) scale(-1, -1) translate(-1.242136, -1.078071) "></path>
                    <polygon id="矩形备份-59" fill="#237784" transform="translate(0.401015, 35.325000) rotate(-90.000000) translate(-0.401015, -35.325000) " points="-0.273985433 35.1011246 1.07601457 35.1011246 1.07601457 35.5488754 -0.273985433 35.5488754"></polygon>
                    <polygon id="矩形备份-60" fill="#237784" transform="translate(0.401015, 0.675000) rotate(-90.000000) translate(-0.401015, -0.675000) " points="-0.273985433 0.45112462 1.07601457 0.45112462 1.07601457 0.89887538 -0.273985433 0.89887538"></polygon>
                    <rect id="矩形备份-63" fill="#237784" transform="translate(0.848765, 35.775000) rotate(-180.000000) translate(-0.848765, -35.775000) " x="0.177139187" y="35.55" width="1.34325228" height="1"></rect>
                </g>
                <g id="编组" transform="translate(6.367347, 5.659574)">
                    <g id="形状" fill-rule="nonzero">
                        <use fill="black" fill-opacity="1" filter="url(#filter-3)" xlink:href="#path-2"></use>
                        <use fill="url(#linearGradient-1)" xlink:href="#path-2"></use>
                    </g>
                    <path d="M9.24720539,2.3663726 L11.1415701,2.3663726 C11.468298,2.3663726 11.7331633,2.63123788 11.7331633,2.95796575 C11.7331633,3.28469362 11.468298,3.5495589 11.1415701,3.5495589 L9.24720539,3.5495589 C8.92047752,3.5495589 8.65561224,3.28469362 8.65561224,2.95796575 C8.65561224,2.63123788 8.92047752,2.3663726 9.24720539,2.3663726 Z" id="矩形" fill="#F7FEFF"></path>
                    <g id="路径">
                        <use fill="black" fill-opacity="1" filter="url(#filter-5)" xlink:href="#path-4"></use>
                        <use fill="#F7FEFF" fill-rule="evenodd" xlink:href="#path-4"></use>
                    </g>
                    <path d="M10.3835673,4.13071948 C7.81473308,4.12353847 5.49493256,5.70444587 4.50700847,8.13552599 C3.51908438,10.5666061 4.05784219,13.3684823 5.87179907,15.2332873 C7.68575595,17.0980922 10.4172238,17.6581112 12.7912006,16.651937 C15.1651774,15.6457628 16.7135562,13.2717997 16.7135562,10.6381725 C16.7088085,7.05318021 13.8803478,4.14543331 10.3835673,4.13071948 Z" id="路径" stroke-opacity="0.371561544" stroke="#F3F3F3" stroke-width="0.578461538"></path>
                    <line x1="10.6338892" y1="21.2973534" x2="10.9637755" y2="24.2553191" id="路径-2" stroke="#069097" stroke-width="1.73538462" stroke-linecap="round"></line>
                    <line x1="12.3739717" y1="22.4805397" x2="12.3739717" y2="24.2553191" id="路径-3" stroke="#069097" stroke-width="1.73538462" stroke-linecap="round"></line>
                    <line x1="14.1050941" y1="22.4805397" x2="14.1050941" y2="24.2553191" id="路径-3备份" stroke="#069097" stroke-width="1.73538462" stroke-linecap="round"></line>
                    <line x1="15.8362166" y1="22.4805397" x2="15.8362166" y2="24.2553191" id="路径-3备份-2" stroke="#069097" stroke-width="1.73538462" stroke-linecap="round"></line>
                    <path d="M16.1571429,23.663726 C16.7142661,23.8609237 17.2382408,23.8609237 17.7290669,23.663726 C18.219893,23.4665283 18.568135,23.3095893 18.7737927,23.192909" id="路径-4" stroke="#069097" stroke-width="1.73538462"></path>
                    <ellipse id="椭圆形" stroke="#069198" stroke-width="0.578461538" cx="20.7734694" cy="21.8889465" rx="2.30816327" ry="2.3663726"></ellipse>
                </g>
            </g>
        </g>
    </g>
</svg>