<?xml version="1.0" encoding="UTF-8"?>
<svg width="576px" height="170px" viewBox="0 0 576 170" version="1.1" xmlns="http://www.w3.org/2000/svg" xmlns:xlink="http://www.w3.org/1999/xlink">
    <title>下1和2</title>
    <defs>
        <filter x="-2.2%" y="-29.3%" width="104.3%" height="158.5%" filterUnits="objectBoundingBox" id="filter-1">
            <feOffset dx="0" dy="2" in="SourceAlpha" result="shadowOffsetOuter1"></feOffset>
            <feGaussianBlur stdDeviation="2" in="shadowOffsetOuter1" result="shadowBlurOuter1"></feGaussianBlur>
            <feColorMatrix values="0 0 0 0 0.0117647059   0 0 0 0 0.392156863   0 0 0 0 0.419607843  0 0 0 0.252718839 0" type="matrix" in="shadowBlurOuter1" result="shadowMatrixOuter1"></feColorMatrix>
            <feMerge>
                <feMergeNode in="shadowMatrixOuter1"></feMergeNode>
                <feMergeNode in="SourceGraphic"></feMergeNode>
            </feMerge>
        </filter>
        <linearGradient x1="0%" y1="50%" x2="100%" y2="50%" id="linearGradient-2">
            <stop stop-color="#237784" offset="0%"></stop>
            <stop stop-color="#8DC4CC" stop-opacity="0" offset="100%"></stop>
        </linearGradient>
        <filter x="-2.2%" y="-11.7%" width="104.3%" height="123.4%" filterUnits="objectBoundingBox" id="filter-3">
            <feOffset dx="0" dy="2" in="SourceAlpha" result="shadowOffsetOuter1"></feOffset>
            <feGaussianBlur stdDeviation="2" in="shadowOffsetOuter1" result="shadowBlurOuter1"></feGaussianBlur>
            <feColorMatrix values="0 0 0 0 0.0117647059   0 0 0 0 0.392156863   0 0 0 0 0.419607843  0 0 0 0.252718839 0" type="matrix" in="shadowBlurOuter1" result="shadowMatrixOuter1"></feColorMatrix>
            <feMerge>
                <feMergeNode in="shadowMatrixOuter1"></feMergeNode>
                <feMergeNode in="SourceGraphic"></feMergeNode>
            </feMerge>
        </filter>
        <linearGradient x1="50%" y1="0%" x2="50%" y2="100%" id="linearGradient-4">
            <stop stop-color="#9EC9D2" offset="0%"></stop>
            <stop stop-color="#FFFFFF" offset="100%"></stop>
        </linearGradient>
        <polygon id="path-5" points="8.64545455 -2.41860855e-12 452.785852 -1.45771345e-12 458.141487 6 501.825558 6 507.113124 -1.45771345e-12 548.804033 -1.45771345e-12 557.449488 7.3943662 557.449488 95.1830986 548.804033 102.577465 8.64545455 102.577465 1.29674049e-12 95.1830986 0 7.3943662"></polygon>
        <filter x="-4.7%" y="-25.3%" width="109.3%" height="150.7%" filterUnits="objectBoundingBox" id="filter-6">
            <feGaussianBlur stdDeviation="26" in="SourceAlpha" result="shadowBlurInner1"></feGaussianBlur>
            <feOffset dx="0" dy="0" in="shadowBlurInner1" result="shadowOffsetInner1"></feOffset>
            <feComposite in="shadowOffsetInner1" in2="SourceAlpha" operator="arithmetic" k2="-1" k3="1" result="shadowInnerInner1"></feComposite>
            <feColorMatrix values="0 0 0 0 1   0 0 0 0 1   0 0 0 0 1  0 0 0 0.787675498 0" type="matrix" in="shadowInnerInner1"></feColorMatrix>
        </filter>
    </defs>
    <g id="页面-1" stroke="none" stroke-width="1" fill="none" fill-rule="evenodd">
        <g id="地图模式-确认稿切图2" transform="translate(-389.000000, -904.000000)">
            <g id="下1和2" transform="translate(398.000000, 913.000000)">
                <g id="分组-1备份-7" filter="url(#filter-1)">
                    <path d="M189.425867,13.7798437 L169.114964,0 L1.36120506,0 C0.644895889,0 0.0642125755,0.573635164 0.0642125755,1.28125 L0.0642125755,30.75 L0.0642125755,40.84625 C0.252056188,40.9452173 -0.148676852,41 0.0642125755,41 L556.216708,41 C556.933017,41 557.513701,40.4263648 557.513701,39.71875 L557.513701,15.0610937 C557.513701,14.3534789 556.933017,13.7798437 556.216708,13.7798437 L189.425867,13.7798437 Z" id="路径" fill="#E8F8FB" fill-rule="nonzero"></path>
                    <polygon id="矩形备份-7" fill="url(#linearGradient-2)" points="0 40 365 40 365 41 0 41"></polygon>
                    <path d="M206.07925,11.53125 L191.163837,0 L178.842408,0 L193.757822,11.53125 L206.07925,11.53125 Z" id="路径" fill="#237784" fill-rule="nonzero" opacity="0.4"></path>
                    <path d="M223.588649,11.53125 L208.673235,0 L196.351807,0 L211.26722,11.53125 L223.588649,11.53125 Z" id="路径" fill="#237784" fill-rule="nonzero" opacity="0.6"></path>
                    <path d="M241.098047,11.53125 L226.182634,0 L213.861205,0 L228.776619,11.53125 L241.098047,11.53125 Z" id="路径" fill="#237784" fill-rule="nonzero"></path>
                </g>
                <g id="编组-17备份-8" filter="url(#filter-3)" transform="translate(278.724744, 100.288732) scale(1, -1) translate(-278.724744, -100.288732) translate(0.000000, 49.000000)">
                    <g id="编组-4" transform="translate(478.449488, 2.605634) scale(-1, 1) translate(-478.449488, -2.605634) translate(459.449488, 1.605634)">
                        <g id="编组-22" transform="translate(19.000000, 1.000000) scale(-1, 1) translate(-19.000000, -1.000000) ">
                            <polygon id="路径备份-5" fill="#33808D" transform="translate(32.000000, 1.000000) scale(-1, 1) translate(-32.000000, -1.000000) " points="26 0 37 0 38 2 27 2"></polygon>
                            <polygon id="路径备份-6" fill="#75ACB5" opacity="0.600000024" transform="translate(19.000000, 1.000000) scale(-1, 1) translate(-19.000000, -1.000000) " points="13 0 24 0 25 2 14 2"></polygon>
                            <polygon id="路径备份-7" fill="#ACD0D7" opacity="0.600000024" transform="translate(6.000000, 1.000000) scale(-1, 1) translate(-6.000000, -1.000000) " points="2.72848411e-12 0 11 0 12 2 1 2"></polygon>
                        </g>
                    </g>
                    <g id="路径备份-3">
                        <use fill="#E8F8FB" fill-rule="evenodd" xlink:href="#path-5"></use>
                        <use fill="black" fill-opacity="1" filter="url(#filter-6)" xlink:href="#path-5"></use>
                        <path stroke="url(#linearGradient-4)" stroke-width="1" d="M548.619375,0.5 L556.949488,7.62465764 L556.949488,94.9528071 L548.619375,102.077465 L8.83011271,102.077465 L0.5,94.9528071 L0.5,7.62465764 L8.83011271,0.5 L452.561941,0.5 L457.917576,6.5 L502.051377,6.5 L507.338944,0.5 L548.619375,0.5 Z" stroke-linejoin="square"></path>
                    </g>
                </g>
            </g>
        </g>
    </g>
</svg>