<?xml version="1.0" encoding="UTF-8"?>
<svg width="156px" height="218px" viewBox="0 0 156 218" version="1.1" xmlns="http://www.w3.org/2000/svg" xmlns:xlink="http://www.w3.org/1999/xlink">
    <title>中右</title>
    <defs>
        <filter x="-8.7%" y="-6.0%" width="117.4%" height="112.0%" filterUnits="objectBoundingBox" id="filter-1">
            <feOffset dx="0" dy="2" in="SourceAlpha" result="shadowOffsetOuter1"></feOffset>
            <feGaussianBlur stdDeviation="2" in="shadowOffsetOuter1" result="shadowBlurOuter1"></feGaussianBlur>
            <feColorMatrix values="0 0 0 0 0.0117647059   0 0 0 0 0.392156863   0 0 0 0 0.419607843  0 0 0 0.252718839 0" type="matrix" in="shadowBlurOuter1" result="shadowMatrixOuter1"></feColorMatrix>
            <feMerge>
                <feMergeNode in="shadowMatrixOuter1"></feMergeNode>
                <feMergeNode in="SourceGraphic"></feMergeNode>
            </feMerge>
        </filter>
        <linearGradient x1="50%" y1="0%" x2="50%" y2="100%" id="linearGradient-2">
            <stop stop-color="#9EC9D2" offset="0%"></stop>
            <stop stop-color="#FFFFFF" offset="100%"></stop>
        </linearGradient>
        <polygon id="path-3" points="8.64545455 9.77182561e-13 63.3363636 9.77182561e-13 68.6919986 6 112.37607 6 117.663636 9.77182561e-13 129.354545 9.77182561e-13 138 7.3943662 138 192.183099 129.354545 199.577465 8.64545455 199.577465 1.29674049e-12 192.183099 0 7.3943662"></polygon>
        <filter x="-18.8%" y="-13.0%" width="137.7%" height="126.1%" filterUnits="objectBoundingBox" id="filter-4">
            <feGaussianBlur stdDeviation="26" in="SourceAlpha" result="shadowBlurInner1"></feGaussianBlur>
            <feOffset dx="0" dy="0" in="shadowBlurInner1" result="shadowOffsetInner1"></feOffset>
            <feComposite in="shadowOffsetInner1" in2="SourceAlpha" operator="arithmetic" k2="-1" k3="1" result="shadowInnerInner1"></feComposite>
            <feColorMatrix values="0 0 0 0 1   0 0 0 0 1   0 0 0 0 1  0 0 0 0.787675498 0" type="matrix" in="shadowInnerInner1"></feColorMatrix>
        </filter>
    </defs>
    <g id="页面-1" stroke="none" stroke-width="1" fill="none" fill-rule="evenodd">
        <g id="地图模式-确认稿切图2" transform="translate(-1375.000000, -145.000000)">
            <g id="中右" filter="url(#filter-1)" transform="translate(1453.000000, 253.788732) scale(1, -1) translate(-1453.000000, -253.788732) translate(1384.000000, 154.000000)">
                <g id="编组-4" transform="translate(89.000000, 2.605634) scale(-1, 1) translate(-89.000000, -2.605634) translate(70.000000, 1.605634)">
                    <g id="编组-22" transform="translate(19.000000, 1.000000) scale(-1, 1) translate(-19.000000, -1.000000) ">
                        <polygon id="路径备份-5" fill="#33808D" transform="translate(32.000000, 1.000000) scale(-1, 1) translate(-32.000000, -1.000000) " points="26 0 37 0 38 2 27 2"></polygon>
                        <polygon id="路径备份-6" fill="#75ACB5" opacity="0.600000024" transform="translate(19.000000, 1.000000) scale(-1, 1) translate(-19.000000, -1.000000) " points="13 0 24 0 25 2 14 2"></polygon>
                        <polygon id="路径备份-7" fill="#ACD0D7" opacity="0.600000024" transform="translate(6.000000, 1.000000) scale(-1, 1) translate(-6.000000, -1.000000) " points="5.45696821e-12 0 11 0 12 2 1 2"></polygon>
                    </g>
                </g>
                <g id="路径备份-3">
                    <use fill="#E8F8FB" fill-rule="evenodd" xlink:href="#path-3"></use>
                    <use fill="black" fill-opacity="1" filter="url(#filter-4)" xlink:href="#path-3"></use>
                    <path stroke="url(#linearGradient-2)" stroke-width="1" d="M63.1124529,0.5 L68.4680879,6.5 L112.601889,6.5 L117.889456,0.5 L129.169887,0.5 L137.5,7.62465764 L137.5,191.952807 L129.169887,199.077465 L8.83011271,199.077465 L0.5,191.952807 L0.5,7.62465764 L8.83011271,0.5 L63.1124529,0.5 Z" stroke-linejoin="square"></path>
                </g>
            </g>
        </g>
    </g>
</svg>