<?xml version="1.0" encoding="UTF-8"?>
<svg width="429px" height="516px" viewBox="0 0 429 516" version="1.1" xmlns="http://www.w3.org/2000/svg" xmlns:xlink="http://www.w3.org/1999/xlink">
    <title>中心左2</title>
    <defs>
        <filter x="-2.9%" y="-29.3%" width="105.9%" height="158.5%" filterUnits="objectBoundingBox" id="filter-1">
            <feOffset dx="0" dy="2" in="SourceAlpha" result="shadowOffsetOuter1"></feOffset>
            <feGaussianBlur stdDeviation="2" in="shadowOffsetOuter1" result="shadowBlurOuter1"></feGaussianBlur>
            <feColorMatrix values="0 0 0 0 0.0117647059   0 0 0 0 0.392156863   0 0 0 0 0.419607843  0 0 0 0.252718839 0" type="matrix" in="shadowBlurOuter1" result="shadowMatrixOuter1"></feColorMatrix>
            <feMerge>
                <feMergeNode in="shadowMatrixOuter1"></feMergeNode>
                <feMergeNode in="SourceGraphic"></feMergeNode>
            </feMerge>
        </filter>
        <linearGradient x1="0%" y1="50%" x2="100%" y2="50%" id="linearGradient-2">
            <stop stop-color="#237784" offset="0%"></stop>
            <stop stop-color="#8DC4CC" stop-opacity="0" offset="100%"></stop>
        </linearGradient>
        <filter x="-2.9%" y="-2.7%" width="105.9%" height="105.3%" filterUnits="objectBoundingBox" id="filter-3">
            <feOffset dx="0" dy="2" in="SourceAlpha" result="shadowOffsetOuter1"></feOffset>
            <feGaussianBlur stdDeviation="2" in="shadowOffsetOuter1" result="shadowBlurOuter1"></feGaussianBlur>
            <feColorMatrix values="0 0 0 0 0.0117647059   0 0 0 0 0.392156863   0 0 0 0 0.419607843  0 0 0 0.252718839 0" type="matrix" in="shadowBlurOuter1" result="shadowMatrixOuter1"></feColorMatrix>
            <feMerge>
                <feMergeNode in="shadowMatrixOuter1"></feMergeNode>
                <feMergeNode in="SourceGraphic"></feMergeNode>
            </feMerge>
        </filter>
        <linearGradient x1="50%" y1="0%" x2="50%" y2="100%" id="linearGradient-4">
            <stop stop-color="#9EC9D2" offset="0%"></stop>
            <stop stop-color="#FFFFFF" offset="100%"></stop>
        </linearGradient>
        <polygon id="path-5" points="8.64545455 5.1692733e-12 305.336364 5.1692733e-12 310.691999 6 354.37607 6 359.663636 5.1692733e-12 401.354545 5.1692733e-12 410 7.3943662 410 445.183099 401.354545 452.577465 8.64545455 452.577465 1.29674049e-12 445.183099 1.45661261e-12 7.3943662"></polygon>
        <filter x="-6.3%" y="-5.7%" width="112.7%" height="111.5%" filterUnits="objectBoundingBox" id="filter-6">
            <feGaussianBlur stdDeviation="26" in="SourceAlpha" result="shadowBlurInner1"></feGaussianBlur>
            <feOffset dx="0" dy="0" in="shadowBlurInner1" result="shadowOffsetInner1"></feOffset>
            <feComposite in="shadowOffsetInner1" in2="SourceAlpha" operator="arithmetic" k2="-1" k3="1" result="shadowInnerInner1"></feComposite>
            <feColorMatrix values="0 0 0 0 1   0 0 0 0 1   0 0 0 0 1  0 0 0 0.787675498 0" type="matrix" in="shadowInnerInner1"></feColorMatrix>
        </filter>
    </defs>
    <g id="页面-1" stroke="none" stroke-width="1" fill="none" fill-rule="evenodd">
        <g id="中心详情展示" transform="translate(-7.000000, -557.000000)">
            <g id="编组-2" transform="translate(16.000000, 94.000000)">
                <g id="中心左2" transform="translate(0.000000, 472.000000)">
                    <g id="分组-1" filter="url(#filter-1)">
                        <path d="M189.425867,13.7798437 L169.114964,0 L1.36120506,0 C0.644895889,0 0.0642125755,0.573635164 0.0642125755,1.28125 L0.0642125755,30.75 L0.0642125755,40.84625 C0.252056188,40.9452173 -0.148676852,41 0.0642125755,41 L408.76722,41 C409.483529,41 410.064213,40.4263648 410.064213,39.71875 L410.064213,15.0610937 C410.064213,14.3534789 409.483529,13.7798437 408.76722,13.7798437 L189.425867,13.7798437 Z" id="路径" fill="#E8F8FB" fill-rule="nonzero"></path>
                        <text id="2025-03-09" font-family="PingFangSC-Regular, PingFang SC" font-size="14" font-weight="normal" line-spacing="22" fill="#03646B">
                            <tspan x="313" y="32">2025-03-09</tspan>
                        </text>
                        <g id="icon/箭头右" transform="translate(293.000000, 20.000000)" fill="#03646B">
                            <rect id="矩形" fill-rule="nonzero" opacity="0" x="0" y="0" width="16" height="16"></rect>
                            <path d="M8,1 C11.865625,1 15,4.134375 15,8 C15,11.865625 11.865625,15 8,15 C4.134375,15 1,11.865625 1,8 C1,4.134375 4.134375,1 8,1 Z M8,2.1875 C4.790625,2.1875 2.1875,4.790625 2.1875,8 C2.1875,11.209375 4.790625,13.8125 8,13.8125 C11.209375,13.8125 13.8125,11.209375 13.8125,8 C13.8125,4.790625 11.209375,2.1875 8,2.1875 Z M8.3765625,4.375 C8.4453125,4.375 8.5015625,4.43125 8.5015625,4.5 L8.5015625,8.3671875 L10.7296875,9.978125 C10.7859375,10.0171875 10.7984375,10.0953125 10.7578125,10.153125 L10.3109375,10.7625 C10.2703125,10.8171875 10.1921875,10.8296875 10.1359375,10.7890625 L7.5515625,8.9046875 C7.51875,8.88125 7.5,8.84375 7.5,8.803125 L7.5,4.5 C7.5,4.43125 7.55625,4.375 7.625,4.375 Z" id="形状结合"></path>
                        </g>
                        <path d="M206.07925,11.53125 L191.163837,0 L178.842408,0 L193.757822,11.53125 L206.07925,11.53125 Z" id="路径" fill="#237784" fill-rule="nonzero" opacity="0.4"></path>
                        <path d="M223.588649,11.53125 L208.673235,0 L196.351807,0 L211.26722,11.53125 L223.588649,11.53125 Z" id="路径" fill="#237784" fill-rule="nonzero" opacity="0.6"></path>
                        <path d="M241.098047,11.53125 L226.182634,0 L213.861205,0 L228.776619,11.53125 L241.098047,11.53125 Z" id="路径" fill="#237784" fill-rule="nonzero"></path>
                    </g>
                    <polygon id="矩形" fill="url(#linearGradient-2)" points="0 40 365 40 365 41 0 41"></polygon>
                    <g id="编组-17备份" filter="url(#filter-3)" transform="translate(205.000000, 271.288732) scale(1, -1) translate(-205.000000, -271.288732) translate(0.000000, 45.000000)">
                        <g id="编组-4" transform="translate(331.000000, 2.605634) scale(-1, 1) translate(-331.000000, -2.605634) translate(312.000000, 1.605634)">
                            <g id="编组-22" transform="translate(19.000000, 1.000000) scale(-1, 1) translate(-19.000000, -1.000000) ">
                                <polygon id="路径备份-5" fill="#33808D" transform="translate(32.000000, 1.000000) scale(-1, 1) translate(-32.000000, -1.000000) " points="26 0 37 0 38 2 27 2"></polygon>
                                <polygon id="路径备份-6" fill="#75ACB5" opacity="0.600000024" transform="translate(19.000000, 1.000000) scale(-1, 1) translate(-19.000000, -1.000000) " points="13 0 24 0 25 2 14 2"></polygon>
                                <polygon id="路径备份-7" fill="#ACD0D7" opacity="0.600000024" transform="translate(6.000000, 1.000000) scale(-1, 1) translate(-6.000000, -1.000000) " points="-1.70530257e-13 0 11 0 12 2 1 2"></polygon>
                            </g>
                        </g>
                        <g id="路径备份-3">
                            <use fill="#E8F8FB" fill-rule="evenodd" xlink:href="#path-5"></use>
                            <use fill="black" fill-opacity="1" filter="url(#filter-6)" xlink:href="#path-5"></use>
                            <path stroke="url(#linearGradient-4)" stroke-width="1" d="M401.169887,0.5 L409.5,7.62465764 L409.5,444.952807 L401.169887,452.077465 L8.83011271,452.077465 L0.5,444.952807 L0.5,7.62465764 L8.83011271,0.5 L305.112453,0.5 L310.468088,6.5 L354.601889,6.5 L359.889456,0.5 L401.169887,0.5 Z" stroke-linejoin="square"></path>
                        </g>
                    </g>
                </g>
            </g>
        </g>
    </g>
</svg>