<?xml version="1.0" encoding="UTF-8"?>
<svg width="37px" height="38px" viewBox="0 0 37 38" version="1.1" xmlns="http://www.w3.org/2000/svg" xmlns:xlink="http://www.w3.org/1999/xlink">
    <title>华芯智能手表</title>
    <defs>
        <linearGradient x1="50%" y1="0%" x2="50%" y2="100%" id="linearGradient-1">
            <stop stop-color="#079DA4" offset="0%"></stop>
            <stop stop-color="#03646B" offset="100%"></stop>
        </linearGradient>
        <path d="M10.4920862,0 C11.790438,0 12.1413439,1.07008761 12.8431557,2.38986233 L13.5449675,3.81664581 L14.0011451,3.81664581 C15.299497,3.81664581 16.3522146,4.88673342 16.3522146,6.20650814 L16.3522146,9.09574468 C17.4049323,9.3097622 17.5102041,10.2371715 17.5102041,11.3429287 L17.5102041,11.5212766 C17.5102041,12.6270338 17.3698417,13.5544431 16.3522146,13.7684606 L16.3522146,18.048811 C16.3522146,19.3685857 15.299497,20.4386733 14.0011451,20.4386733 L13.5449675,20.4386733 L12.8431557,21.8654568 C12.1413439,23.1852315 11.790438,24.2553191 10.4920862,24.2553191 L5.86012842,24.2553191 C4.56177661,24.2553191 4.21087072,23.1852315 3.50905893,21.8654568 L2.80724715,20.4386733 L2.35106949,20.4386733 C1.05271768,20.4386733 0,19.3685857 0,18.048811 L0,6.20650814 C0,4.88673342 1.05271768,3.81664581 2.35106949,3.81664581 L2.80724715,3.81664581 L3.50905893,2.38986233 C4.21087072,1.07008761 4.56177661,0 5.86012842,0 L10.4920862,0 Z M13.4747863,5.31476846 L2.87742833,5.31476846 C2.10543536,5.31476846 1.47380475,5.95682103 1.47380475,6.74155194 L1.47380475,17.5137672 C1.47380475,18.2984981 2.10543536,18.9405507 2.87742833,18.9405507 L13.4747863,18.9405507 C14.2467793,18.9405507 14.8784099,18.2984981 14.8784099,17.5137672 L14.8784099,6.74155194 C14.8784099,5.95682103 14.2467793,5.31476846 13.4747863,5.31476846 Z" id="path-2"></path>
        <filter x="-31.4%" y="-14.4%" width="162.8%" height="145.4%" filterUnits="objectBoundingBox" id="filter-3">
            <feOffset dx="0" dy="2" in="SourceAlpha" result="shadowOffsetOuter1"></feOffset>
            <feGaussianBlur stdDeviation="1.5" in="shadowOffsetOuter1" result="shadowBlurOuter1"></feGaussianBlur>
            <feColorMatrix values="0 0 0 0 0.541176471   0 0 0 0 0.749019608   0 0 0 0 0.780392157  0 0 0 1 0" type="matrix" in="shadowBlurOuter1"></feColorMatrix>
        </filter>
        <linearGradient x1="50%" y1="0%" x2="50%" y2="100%" id="linearGradient-4">
            <stop stop-color="#079DA4" offset="0%"></stop>
            <stop stop-color="#03646B" offset="100%"></stop>
        </linearGradient>
    </defs>
    <g id="页面-1" stroke="none" stroke-width="1" fill="none" fill-rule="evenodd">
        <g id="地图模式-确认稿切图2" transform="translate(-34.000000, -520.000000)">
            <g id="编组-17" transform="translate(34.897959, 520.808511)">
                <g id="编组-33">
                    <path d="M1.11383036,21.602 L1.11385509,35.5679413 L14.4958304,35.567 L14.4958304,36.382 L0.277830357,36.3829787 L0.277830357,21.602 L1.11383036,21.602 Z M35.8248304,21.602 L35.8249733,36.3829787 L21.6058304,36.382 L21.6058304,35.567 L35.0045809,35.5679413 L35.0038304,21.602 L35.8248304,21.602 Z M14.4958304,1.36424205e-12 L14.4958304,0.906 L1.11385509,0.906582076 L1.11383036,14.325 L0.277830357,14.325 L0.277830357,1.36424205e-12 L14.4958304,1.36424205e-12 Z M35.8249733,1.36424205e-12 L35.8248304,14.325 L35.0038304,14.325 L35.0045809,0.906582076 L21.6058304,0.906 L21.6058304,1.36424205e-12 L35.8249733,1.36424205e-12 Z" id="形状结合" fill="#8CC1C9"></path>
                    <rect id="矩形备份-54" fill="#237784" x="0.277830357" y="1.36424205e-12" width="1.33301786" height="1"></rect>
                    <path d="M35.8249733,36.3829787 L33.6960371,36.3829787 L33.6960371,35.5679413 L35.0040371,35.5671064 L35.0045809,34.2101064 L35.8249733,34.2101064 L35.8249733,36.3829787 Z" id="形状结合" fill="#237784"></path>
                    <path d="M2.39640185,36.3829787 L0.267465625,36.3829787 L0.267465625,35.5679413 L1.57546563,35.5671064 L1.57600951,34.2101064 L2.39640185,34.2101064 L2.39640185,36.3829787 Z" id="形状结合备份-2" fill="#237784" transform="translate(1.331934, 35.296543) scale(-1, 1) translate(-1.331934, -35.296543) "></path>
                    <path d="M35.827752,2.17597555 L33.6988158,2.17597555 L33.6988158,1.36093811 L35.0068158,1.36010321 L35.0073597,0.00310321192 L35.827752,0.00310321192 L35.827752,2.17597555 Z" id="形状结合备份" fill="#237784" transform="translate(34.763284, 1.089539) scale(1, -1) translate(-34.763284, -1.089539) "></path>
                    <path d="M2.39918059,2.17597555 L0.270244367,2.17597555 L0.270244367,1.36093811 L1.57824437,1.36010321 L1.57878825,0.00310321192 L2.39918059,0.00310321192 L2.39918059,2.17597555 Z" id="形状结合备份-3" fill="#237784" transform="translate(1.334712, 1.089539) scale(-1, -1) translate(-1.334712, -1.089539) "></path>
                    <polygon id="矩形备份-59" fill="#237784" transform="translate(0.500000, 35.700798) rotate(-90.000000) translate(-0.500000, -35.700798) " points="-0.182180851 35.4786282 1.18218085 35.4786282 1.18218085 35.9229675 -0.182180851 35.9229675"></polygon>
                    <polygon id="矩形备份-60" fill="#237784" transform="translate(0.500000, 0.682181) rotate(-90.000000) translate(-0.500000, -0.682181) " points="-0.182180851 0.460011208 1.18218085 0.460011208 1.18218085 0.904350494 -0.182180851 0.904350494"></polygon>
                    <rect id="矩形备份-63" fill="#237784" transform="translate(0.944339, 36.155585) rotate(-180.000000) translate(-0.944339, -36.155585) " x="0.277830357" y="35.9281915" width="1.33301786" height="1"></rect>
                </g>
                <g id="华芯智能手表" transform="translate(9.653061, 5.659574)" fill-rule="nonzero">
                    <g id="编组">
                        <g id="形状">
                            <use fill="black" fill-opacity="1" filter="url(#filter-3)" xlink:href="#path-2"></use>
                            <use fill="url(#linearGradient-1)" xlink:href="#path-2"></use>
                        </g>
                        <path d="M4.39907325,15.326309 C3.88330692,15.326309 3.4651957,14.9243952 3.4651957,14.4286093 L3.4651957,13.2316951 C3.4651957,12.7409338 3.88856325,12.3339953 4.39907325,12.3339953 C4.90958325,12.3339953 5.3329508,12.7409338 5.3329508,13.2316951 L5.3329508,14.4286093 C5.3329508,14.9243952 4.91483958,15.326309 4.39907325,15.326309 Z M9.068461,14.4286093 C9.068461,14.9193705 8.64509345,15.326309 8.13458345,15.326309 C7.62407345,15.326309 7.2007059,14.9193705 7.2007059,14.4286093 L7.2007059,9.64089616 C7.2007059,9.15013494 7.62407345,8.74319644 8.13458345,8.74319644 C8.64509345,8.74319644 9.068461,9.15013494 9.068461,9.64089616 L9.068461,14.4286093 Z M12.8039712,14.4286093 C12.8039712,14.9193705 12.3806037,15.326309 11.8700937,15.326309 C11.3595837,15.326309 10.9362161,14.9193705 10.9362161,14.4286093 L10.9362161,12.0347527 C10.9362161,11.5440196 11.3595837,11.137053 11.8700937,11.137053 C12.3806037,11.137053 12.8039712,11.5440196 12.8039712,12.0347527 L12.8039712,14.4286093 Z" id="形状结合" fill="url(#linearGradient-4)"></path>
                    </g>
                </g>
            </g>
        </g>
    </g>
</svg>