<?xml version="1.0" encoding="UTF-8"?>
<svg width="14px" height="14px" viewBox="0 0 14 14" version="1.1" xmlns="http://www.w3.org/2000/svg" xmlns:xlink="http://www.w3.org/1999/xlink">
    <title>呼吸</title>
    <g id="呼吸" stroke="none" stroke-width="1" fill="none" fill-rule="evenodd">
        <g>
            <rect id="矩形" x="0" y="0" width="14" height="14"></rect>
            <path d="M12.435446,5.57850024 C11.8974939,4.35210024 11.1540181,3.35010023 10.2273044,2.59770024 C9.85030458,2.29290024 9.39530484,2.20110025 8.97868604,2.34570024 C8.54535295,2.49810024 8.22963884,2.88570025 8.13554366,3.38070024 L8.13554366,3.38370025 L7.89287713,5.21010024 L7.59078206,5.07630025 L7.59944873,1.19430025 C7.59944926,1.08750134 7.51030427,1.00083088 7.40011551,1.00050024 L6.53654457,1.00050024 C6.4263558,1.00083088 6.33721081,1.08750134 6.33721135,1.19430025 L6.34587801,5.07630025 L6.04316391,5.21010024 L5.80111642,3.38670025 L5.79925928,3.37890024 C5.70454504,2.88330024 5.39068808,2.49630025 4.957355,2.34450024 C4.5394981,2.19750024 4.08449835,2.28990024 3.70687951,2.59470024 C2.77954671,3.34650024 2.0354519,4.35030024 1.49749983,5.57490025 C0.813452593,7.13370024 0.464928987,9.04890024 0.464928987,11.2659002 C0.464928987,11.9421002 0.705738378,12.4293002 1.18240476,12.7131002 C1.72159492,13.0359002 2.53997541,13.0827002 3.61587956,12.8553002 C4.40826007,12.6873002 5.13254537,12.4053002 5.34116431,12.3021002 C5.75391692,12.1014332 6.0869947,11.7745974 6.28892567,11.3721002 C6.48021127,11.0013002 6.57802074,10.5657002 6.57802074,10.0785002 L6.57802074,10.0719002 L6.22640188,6.43650024 L6.74268731,6.23190024 L6.75073492,6.22710025 C6.88330324,6.16408331 7.03849969,6.16408331 7.17106801,6.22710025 L7.17911563,6.23190024 L7.69540104,6.43650024 L7.35182983,10.0689002 L7.35182983,10.0815002 C7.35182983,10.5687002 7.44778215,11.0043002 7.6409249,11.3757002 C7.84345895,11.7776353 8.17638713,12.1041135 8.58868626,12.3051002 C8.79792424,12.4083002 9.52344763,12.6909002 10.313971,12.8583002 C10.708673,12.9474929 11.1121485,12.9951685 11.5173989,13.0005002 C12.0206843,13.0005002 12.4323507,12.9051002 12.7474458,12.7185002 C13.2241122,12.4341002 13.464929,11.9469002 13.464929,11.2707002 C13.4667787,9.05190024 13.1194932,7.13670024 12.435446,5.57790024 L12.435446,5.57850024 Z" id="形状" fill="#03646B" fill-rule="nonzero"></path>
            <path d="M3.51992725,4.31550024 C3.51002249,4.32870023 2.69968962,5.38050024 2.18154705,6.89730024 C2.155081,6.97372869 2.06984388,7.01503593 1.99088049,6.98970024 C1.95248679,6.97763856 1.92067032,6.95118595 1.90252772,6.91624264 C1.88438512,6.88129933 1.88142554,6.84077201 1.89430911,6.80370023 C2.42916595,5.23710024 3.24383215,4.18170023 3.27911785,4.13850025 C3.32956258,4.07385811 3.42434975,4.06073372 3.49145107,4.10910025 C3.55669452,4.15926739 3.56927888,4.25048083 3.51992725,4.31550024 L3.51992725,4.31550024 Z" id="路径" fill="#FFFFFF" fill-rule="nonzero"></path>
            <path d="M12.3456841,9.58710025 L12.3326841,9.58710025 C12.2542009,9.58710025 12.1886841,9.52906134 12.1816366,9.45330024 C12.1349434,8.89692614 12.0482728,8.34438565 11.9222558,7.79970024 C11.9074837,7.74787193 11.9232135,7.69236591 11.9632274,7.65512257 C12.0032413,7.61787923 12.0610991,7.60489282 12.113931,7.6212966 C12.1667628,7.63770039 12.2060654,7.68085421 12.2163032,7.73370025 C12.3394936,8.24970025 12.4286364,8.82090025 12.4824936,9.42930024 C12.4896526,9.50926796 12.4287766,9.57980333 12.3463032,9.58710025 L12.3456841,9.58710025 Z" id="路径" fill="#FFFFFF" fill-rule="nonzero"></path>
        </g>
    </g>
</svg>