<?xml version="1.0" encoding="UTF-8"?>
<svg width="13px" height="14px" viewBox="0 0 13 14" version="1.1" xmlns="http://www.w3.org/2000/svg" xmlns:xlink="http://www.w3.org/1999/xlink">
    <title>形状</title>
    <g id="页面-1" stroke="none" stroke-width="1" fill="none" fill-rule="evenodd">
        <g id="中心详情展示-详情" transform="translate(-367.000000, -458.000000)" fill="#03646B" fill-rule="nonzero">
            <g id="编组-17" transform="translate(321.000000, 139.000000)">
                <g id="编组-10" transform="translate(16.000000, 98.000000)">
                    <g id="Frame-33" transform="translate(30.000000, 215.300000)">
                        <path d="M6.30673291,5.7 C2.82107623,5.7 0,8.25272727 0,11.4068182 C0,12.9654545 0.69170619,14.3890909 1.81742411,15.42 L6.30673291,19.4454545 L10.7824788,15.4077273 C11.9081968,14.3768182 12.5999516,12.9654545 12.5999516,11.3945455 C12.6134658,8.25272727 9.79238959,5.7 6.30673291,5.7 Z M8.47679154,11.0015681 C8.39541434,12.0583288 7.55451662,12.898318 6.49661304,12.9796073 C5.22170359,13.087993 4.15023714,12.071877 4.15023714,10.8254414 C4.15023714,9.63319862 5.12676352,8.65772727 6.32029577,8.65772727 C7.56807949,8.65772727 8.58529447,9.72803611 8.47679154,11.0015681 L8.47679154,11.0015681 Z" id="形状"></path>
                    </g>
                </g>
            </g>
        </g>
    </g>
</svg>