<?xml version="1.0" encoding="UTF-8"?>
<svg width="14px" height="14px" viewBox="0 0 14 14" version="1.1" xmlns="http://www.w3.org/2000/svg" xmlns:xlink="http://www.w3.org/1999/xlink">
    <title>心率</title>
    <g id="页面-1" stroke="none" stroke-width="1" fill="none" fill-rule="evenodd">
        <g id="中心详情展示" transform="translate(-1666.000000, -750.000000)" fill-rule="nonzero">
            <g id="编组-23备份-2" transform="translate(459.000000, 616.000000)">
                <g id="编组-23备份-20" transform="translate(1154.000000, 38.000000)">
                    <g id="编组-9" transform="translate(10.000000, 42.000000)">
                        <g id="心率" transform="translate(43.000000, 54.000000)">
                            <rect id="矩形" x="0" y="0" width="14" height="14"></rect>
                            <path d="M9.73467375,0.587301905 L9.69803912,0.587478145 C8.72755965,0.59601084 7.79116341,0.948741316 7.05362092,1.58360227 L7.02605739,1.60734175 L7.02455138,1.60603758 C6.26135318,0.952188477 5.30839738,0.587301905 4.31702074,0.587301905 C1.94350971,0.587301905 0.0257246645,2.65053949 0.0257246645,5.16576129 C0.0254884697,5.70169359 0.115915336,6.23375498 0.29312994,6.73914077 C0.430772495,7.13567998 0.61061843,7.50259331 0.845608946,7.8957311 L0.867796365,7.93274142 L0.890369044,7.97001611 L0.914290129,8.00917656 L0.947212267,8.06238331 L0.987156627,8.12600582 L1.04443764,8.21588804 L1.16568918,8.40370664 L1.17094271,8.41179604 C1.37886002,8.73443797 1.63477711,9.07320582 1.93464875,9.4273594 L1.9715986,9.47078485 C1.98398526,9.485307 1.99644781,9.49983502 2.00898624,9.51436892 C2.15700744,9.68628482 2.31429237,9.86092069 2.48084103,10.0382765 L2.52857813,10.0889807 C2.68501666,10.2542347 2.84400023,10.4169627 3.00552885,10.5771645 L3.05806418,10.6291904 C3.084577,10.6553562 3.11114237,10.6814455 3.13776027,10.7074585 L3.19141635,10.7598017 L3.24551022,10.8122506 L3.3000594,10.8648052 C3.30915385,10.8735702 3.31828916,10.8823352 3.32746533,10.8911002 L3.38260991,10.9438487 C3.95792427,11.4921479 4.57132674,12.0303662 5.19276712,12.5444044 L5.26787513,12.6063702 L5.34186238,12.6671553 L5.39061516,12.7070031 L5.46286875,12.7658319 L5.53410665,12.8235503 L5.60438141,12.880229 L5.67369301,12.9358855 L5.71943377,12.9724376 L5.76475425,13.0085667 L5.857339,13.0819705 L6.07304905,13.2515483 L6.0771293,13.2548264 C6.34742459,13.4722571 6.68374949,13.5896112 7.02976989,13.5872675 L7.04202813,13.5872675 C7.37125694,13.5844859 7.69064863,13.4739478 7.95192247,13.272327 L7.96652729,13.2610476 L7.98419667,13.2476006 L8.05704566,13.1914859 L8.14560271,13.1225233 L8.20531786,13.0756612 L8.26836026,13.0258911 L8.31699046,12.9872946 L8.3835352,12.9342112 L8.43473963,12.8932179 L8.48699477,12.85122 L8.54024808,12.8082704 L8.59453459,12.7643514 C9.03232897,12.4090523 9.48791533,12.023017 9.94059472,11.6181064 L9.97924321,11.5834753 C11.2392155,10.4531447 12.2474559,9.38421593 12.8619091,8.44061122 L12.8761987,8.41854602 L12.8926948,8.39404871 L12.9294695,8.3370528 L12.9722158,8.27043422 L13.0232276,8.19042141 L13.0525598,8.14403514 L13.0903152,8.08402554 L13.10865,8.05471688 L13.1354255,8.01157342 L13.1527972,7.98337507 L13.1782593,7.94181776 L13.1948255,7.91457111 L13.2190443,7.8744061 L13.2348049,7.84797015 L13.2502853,7.82190431 L13.2729455,7.78337832 L13.2877254,7.75801743 L13.3022252,7.73288566 L13.3164623,7.707983 L13.3304717,7.68330944 L13.3442535,7.65881213 L13.3644971,7.6223834 L13.3777185,7.59825619 L13.3907647,7.57426997 L13.4035834,7.55037188 L13.4162444,7.5265619 L13.4287128,7.50280479 L13.440971,7.47911819 L13.4532292,7.4554492 L13.4652423,7.43178022 L13.4771503,7.40811123 L13.4889007,7.384407 L13.5005461,7.36064989 L13.5063425,7.34873609 L13.5178127,7.32487324 L13.5292128,7.30090465 L13.540543,7.27683031 L13.551803,7.25259736 L13.562993,7.2282058 L13.5796643,7.19131884 L13.5907492,7.16648667 L13.6017816,7.14142539 L13.6182952,7.10335763 L13.6293101,7.07766189 L13.6348439,7.06469065 C13.889395,6.46420691 14.0257247,5.84412533 14.0257247,5.16563792 C14.0259694,2.64770203 12.1136134,0.587301905 9.73467375,0.587301905 L9.73467375,0.587301905 Z" id="路径" fill="#03646B"></path>
                            <path d="M10.2641423,7.98097821 L9.2793851,7.98097821 L8.3151167,9.85170923 C8.19701653,10.0808136 7.9497805,10.211815 7.69526081,10.1801484 C7.44074113,10.1484817 7.23264792,9.96082958 7.17354156,9.7096777 L6.38892646,6.37539975 L5.83355801,7.61704334 C5.73446193,7.83855882 5.51551119,7.98100981 5.27412683,7.98101346 L3.78758723,7.98101346 C3.44875638,7.98101345 3.17407971,7.70457705 3.17407971,7.36357547 C3.17407971,7.02257389 3.44875638,6.74613749 3.78758723,6.74613748 L4.87748512,6.74613748 L6.01067211,4.21265726 C6.11851057,3.97155266 6.36692047,3.82631261 6.62845198,3.85145435 C6.8899835,3.87659608 7.10658032,4.06653849 7.16711474,4.32382923 L7.98677091,7.80702968 L8.36189065,7.07926567 C8.46740057,6.87461275 8.67741382,6.74616646 8.90650687,6.74617273 L10.2641598,6.74617273 C10.6029907,6.74617273 10.8776673,7.02260913 10.8776673,7.36361072 C10.8776673,7.70461231 10.6029907,7.98104871 10.2641598,7.98104871 L10.2641423,7.98097821 Z" id="路径" fill="#FFFFFF"></path>
                        </g>
                    </g>
                </g>
            </g>
        </g>
    </g>
</svg>