<?xml version="1.0" encoding="UTF-8"?>
<svg width="29px" height="27px" viewBox="0 0 29 27" version="1.1" xmlns="http://www.w3.org/2000/svg" xmlns:xlink="http://www.w3.org/1999/xlink">
    <title>心率备份</title>
    <g id="页面-1" stroke="none" stroke-width="1" fill="none" fill-rule="evenodd">
        <g id="中心详情展示-详情" transform="translate(-500.000000, -541.000000)" fill-rule="nonzero">
            <g id="编组-17" transform="translate(321.000000, 139.000000)">
                <g id="编组-10" transform="translate(16.000000, 98.000000)">
                    <g id="编组-19" transform="translate(163.521519, 155.269364)">
                        <g id="编组-4备份-9" transform="translate(0.000000, 138.485549)">
                            <g id="心率" transform="translate(0.000000, 9.800000)">
                                <rect id="矩形" x="0" y="0" width="28.0036629" height="28"></rect>
                                <path d="M19.4718944,1.17460381 L19.3986156,1.17495629 C17.4574027,1.19202168 15.5843652,1.89748263 14.1090873,3.16720455 L14.053953,3.21468351 L14.0509406,3.21207516 C12.5243445,1.90437695 10.6181836,1.17460381 8.63517096,1.17460381 C3.88752791,1.17460381 0.0514560594,5.30107898 0.0514560594,10.3315226 C0.050983608,11.4033872 0.231860999,12.46751 0.586336572,13.4782815 C0.861657695,14.27136 1.22139662,15.0051866 1.69143913,15.7914622 L1.73581977,15.8654828 L1.78097104,15.9400322 L1.82881947,16.0183531 L1.89467236,16.1247666 L1.97457153,16.2520116 L2.08914855,16.4317761 L2.33168334,16.8074133 L2.34219178,16.8235921 C2.7580808,17.4688759 3.26998193,18.1464116 3.86980367,18.8547188 L3.94371303,18.9415697 C3.9684896,18.970614 3.99341795,18.99967 4.0184981,19.0287378 C4.31457923,19.3725696 4.62919024,19.7218414 4.96233113,20.0765531 L5.05781782,20.1779613 C5.37073581,20.5084694 5.68874455,20.8339253 6.01184404,21.154329 L6.11692844,21.2583809 C6.16996104,21.3107123 6.22309871,21.362891 6.27634147,21.414917 L6.38366767,21.5196033 L6.49186957,21.6245011 L6.60098221,21.7296105 C6.61917348,21.7471404 6.63744649,21.7646704 6.65580124,21.7822004 L6.76610483,21.8876974 C7.91688407,22.9842958 9.1438495,24.0607323 10.3868928,25.0888087 L10.5371285,25.2127404 L10.6851224,25.3343105 L10.7826407,25.4140061 L10.9271668,25.5316637 L11.0696612,25.6471007 L11.2102291,25.760458 L11.3488705,25.871771 L11.4403639,25.9448752 L11.5310167,26.0171334 L11.7162105,26.1639411 L12.147687,26.5030967 L12.1558486,26.5096528 C12.6965099,26.9445143 13.3692477,27.1792225 14.061379,27.1745349 L14.0858987,27.1745349 C14.7444425,27.1689718 15.3833094,26.9478955 15.9059254,26.544654 L15.9351389,26.5220953 L15.9704823,26.4952011 L16.1161993,26.3829717 L16.2933366,26.2450466 L16.4127825,26.1513223 L16.5388838,26.0517822 L16.6361569,25.9745892 L16.7692638,25.8684224 L16.8716861,25.7864357 L16.97621,25.7024399 L17.0827306,25.6165407 L17.1913178,25.5287029 C18.0670211,24.8181046 18.978313,24.0460339 19.8837902,23.2362128 L19.9610973,23.1669506 C22.4813715,20.9062893 24.4981162,18.7684319 25.7271833,16.8812224 L25.7557663,16.837092 L25.7887628,16.7880974 L25.8623219,16.6741056 L25.9478255,16.5408684 L26.0498625,16.3808428 L26.1085346,16.2880703 L26.1840553,16.1680511 L26.2207297,16.1094338 L26.2742877,16.0231468 L26.3090356,15.9667501 L26.3599665,15.8836355 L26.3931032,15.8291422 L26.4415471,15.7488122 L26.4730724,15.6959403 L26.5040373,15.6438086 L26.5493637,15.5667566 L26.5789274,15.5160349 L26.6079307,15.4657713 L26.6364086,15.415966 L26.6644311,15.3666189 L26.6919982,15.3176243 L26.7324907,15.2447668 L26.758937,15.1965124 L26.7850329,15.1485399 L26.8106735,15.1007438 L26.8359989,15.0531238 L26.8609389,15.0056096 L26.8854586,14.9582364 L26.9099783,14.9108984 L26.9340076,14.8635604 L26.9578267,14.8162225 L26.9813306,14.768814 L27.0046243,14.7212998 L27.0162186,14.6974722 L27.039162,14.6497465 L27.0619654,14.6018093 L27.0846286,14.5536606 L27.1071516,14.5051947 L27.1295346,14.4564116 L27.1628814,14.3826377 L27.1850542,14.3329733 L27.2071219,14.2828508 L27.2401535,14.2067153 L27.2621862,14.1553238 L27.2732551,14.1293813 C27.782424,12.9284138 28.055118,11.6882507 28.055118,10.3312758 C28.0556084,5.29540407 24.2303962,1.17460381 19.4718944,1.17460381 L19.4718944,1.17460381 Z" id="路径" fill="#03646B"></path>
                                <path d="M20.53097,15.9619564 L18.561198,15.9619564 L16.6324089,19.7034185 C16.3961777,20.1616272 15.9016409,20.42363 15.392535,20.3602967 C14.883429,20.2969635 14.4671881,19.9216592 14.34896,19.4193554 L12.7795245,12.7507995 L11.6686423,15.2340867 C11.4704242,15.6771176 11.0324654,15.9620196 10.5496335,15.9620269 L7.57616542,15.9620269 C6.89841507,15.9620269 6.34898987,15.4091541 6.34898987,14.7271509 C6.34898987,14.0451478 6.89841507,13.492275 7.57616542,13.492275 L9.75624634,13.492275 L12.0229168,8.42531451 C12.238622,7.94310531 12.7355067,7.65262523 13.2586382,7.7029087 C13.7817697,7.75319217 14.21502,8.13307697 14.3361046,8.64765846 L15.9756314,15.6140594 L16.725969,14.1585313 C16.9370165,13.7492255 17.3570979,13.4923329 17.815344,13.4923455 L20.531005,13.4923455 C21.2087554,13.4923455 21.7581806,14.0452183 21.7581806,14.7272214 C21.7581806,15.4092246 21.2087554,15.9620974 20.531005,15.9620974 L20.53097,15.9619564 Z" id="路径" fill="#FFFFFF"></path>
                            </g>
                        </g>
                    </g>
                </g>
            </g>
        </g>
    </g>
</svg>