<?xml version="1.0" encoding="UTF-8"?>
<svg width="14px" height="14px" viewBox="0 0 14 14" version="1.1" xmlns="http://www.w3.org/2000/svg" xmlns:xlink="http://www.w3.org/1999/xlink">
    <title>打鼾</title>
    <g id="打鼾" stroke="none" stroke-width="1" fill="none" fill-rule="evenodd">
        <g id="呼吸" transform="translate(0.000000, -0.058086)">
            <rect id="矩形" x="0" y="0.116685025" width="14" height="13.9414009"></rect>
            <path d="M6.99172491,0.61487117 C7.51573953,0.61397351 8.02346932,0.785087349 8.43979062,1.09880278 C7.59489993,1.83272158 7.06084769,2.91436657 7.06084769,4.12074614 C7.06084769,6.32988513 8.8517087,8.12074614 11.0608477,8.12074614 L11.0876296,8.12017253 C11.9025921,8.68726869 12.662818,9.04786792 12.9099137,10.1632202 C13.2935,11.890443 12.2849385,13.6148712 10.8331372,13.6148712 C9.52145235,13.6148712 9.66850533,13.0901949 7.07981796,13.0901949 C7.02338133,13.0722634 6.96284307,13.0722634 6.90640643,13.0901949 C4.31771906,13.0901949 4.4640784,13.6148712 3.15239356,13.6148712 C1.69920491,13.6148712 0.69064343,11.8897435 1.0735361,10.1632202 C1.38706415,8.74800273 2.52672474,8.5479275 3.55609561,7.59931907 C4.16927879,7.03407157 4.46061016,4.6625505 4.59448387,2.83668914 C4.64082578,2.23116951 4.91356744,1.66602886 5.35749462,1.25567509 C5.80142814,0.842932486 6.38547818,0.61487117 6.99172491,0.61487117 Z" id="形状结合" fill="#03646B" fill-rule="nonzero"></path>
            <path d="M11.0162598,12.1359899 C10.8239638,12.3420291 10.5029492,12.3532684 10.2969487,12.1611742 C9.90157043,11.7932037 9.54364903,11.5574507 9.08376164,11.6064202 C8.84584102,11.6351023 8.61208227,11.6973634 8.39011551,11.791105 C7.49263395,12.1580452 6.48873492,12.1580452 5.59125336,11.791105 C5.36986333,11.6974786 5.13665035,11.635323 4.89830087,11.6064202 C4.43771984,11.5588498 4.07979844,11.7939032 3.68442014,12.1611742 C3.53443419,12.3062626 3.3121387,12.3450118 3.12256677,12.2591131 C2.99839654,12.2033475 2.9014916,12.0998225 2.85343207,11.9715924 C2.78013262,11.7757908 2.83452956,11.5546758 2.99008036,11.4161388 C3.48395641,10.9565255 4.10823793,10.4990108 5.00373509,10.5920527 C5.32836148,10.6305287 5.64674505,10.7130773 5.94917477,10.8389987 C6.61564978,11.1195634 7.36571909,11.1195634 8.03219411,10.8389987 C8.3345891,10.7132511 8.65273133,10.6301534 8.97763379,10.5920527 C9.87174365,10.4997103 10.4981061,10.9565255 10.9912885,11.4161388 C11.1411837,11.5567629 11.1923718,11.774581 11.1210003,11.9680946 C11.0977374,12.0308989 11.0623752,12.0884367 11.0169534,12.137389 L11.0169534,12.1366895 L11.0162598,12.1359899 Z" id="路径" fill="#FFFFFF" fill-rule="nonzero"></path>
            <g id="编组" transform="translate(7.948052, 0.000000)">
                <path d="M5.29426639,2.12465116 L5.50415529,1.90883721 C5.60186219,2.00930233 5.76108824,2.00930233 5.85879514,1.90883721 C5.95650204,1.80837209 5.95650204,1.64465116 5.85879514,1.54418605 L5.50415529,1.17953488 C5.40644839,1.07906977 5.24722233,1.07906977 5.14951543,1.17953488 C5.05180854,1.28 5.05180854,1.44372093 5.14951543,1.54418605 L4.93962654,1.76 C4.41852308,1.30604651 3.74181234,1.03069767 2.99996366,1.03069767 C1.34256516,1.03069767 0,2.41116279 0,4.11534884 C0,5.81953488 1.34256516,7.2 2.99996366,7.2 C4.65736217,7.2 5.99996403,5.81953488 5.99996403,4.11534884 C6.0035461,3.35627907 5.7393756,2.66046512 5.29426639,2.12465116 Z M1.62844831,0.773953488 L4.37871657,0.773953488 C4.58498669,0.773953488 4.75506907,0.599069767 4.75506907,0.386976744 C4.75506907,0.174883721 4.58498669,0 4.37871657,0 L1.62844831,0 C1.42217819,0 1.25209581,0.174883721 1.25209581,0.386976744 C1.25209581,0.599069767 1.42217819,0.773953488 1.62844831,0.773953488 Z" id="形状" fill="#03646B" fill-rule="nonzero"></path>
                <path d="M1.80576824,5.37674419 L2.10250771,5.37674419 L2.20383338,5.97209302 L2.21107093,5.97209302 L2.49695408,5.37674419 L2.786456,5.37674419 L2.63446749,6.38511628 L2.45352879,6.38511628 L2.5765671,5.5627907 L2.56932956,5.5627907 L2.26535254,6.18046512 L2.07717629,6.18046512 L1.96137552,5.5627907 L1.95413797,5.5627907 L1.83109966,6.38511628 L1.65016095,6.38511628 L1.80576824,5.37674419 L1.80576824,5.37674419 Z M3.01805753,5.37674419 L3.20261501,5.37674419 L3.0506265,6.38511628 L2.86606903,6.38511628 L3.01805753,5.37674419 L3.01805753,5.37674419 Z M3.43059777,5.37674419 L3.71286215,5.37674419 L3.95170123,6.13581395 L3.95893878,6.13581395 L4.07473955,5.37674419 L4.25567825,5.37674419 L4.10368974,6.38511628 L3.85399433,6.38511628 L3.58982383,5.57767442 L3.58258628,5.57767442 L3.45954797,6.38511628 L3.27860926,6.38511628 L3.43059777,5.37674419 L3.43059777,5.37674419 Z" id="形状" fill="#FFFFFF" fill-rule="nonzero"></path>
                <text id="1" font-family="SourceHanSansCN-Bold, Source Han Sans CN" font-size="4" font-weight="bold" fill="#FFFFFF">
                    <tspan x="1.81008824" y="4.70406198">1</tspan>
                </text>
            </g>
        </g>
    </g>
</svg>