<?xml version="1.0" encoding="UTF-8"?>
<svg width="37px" height="36px" viewBox="0 0 37 36" version="1.1" xmlns="http://www.w3.org/2000/svg" xmlns:xlink="http://www.w3.org/1999/xlink">
    <title>智能床垫</title>
    <defs>
        <linearGradient x1="50%" y1="0%" x2="50%" y2="100%" id="linearGradient-1">
            <stop stop-color="#079DA4" offset="0%"></stop>
            <stop stop-color="#03646B" offset="100%"></stop>
        </linearGradient>
        <path d="M22.6453379,7.95771341 L17.1083662,14.8655588 C17.0031876,14.9968084 16.8195549,15.0374248 16.6678681,14.9630576 L4.87463708,9.18169321 L16.6636519,14.0425141 C16.7457061,14.0763291 16.8403441,14.0563738 16.9012523,13.9923371 L22.6453379,7.95771341 Z M8.4740919,0 L8.57268667,0.00240618816 C8.94004946,0.0114213732 9.12903357,0.256916731 9.21984453,0.374884116 C9.2287959,0.386562149 9.23761754,0.398111852 9.24663377,0.409148235 C10.0476514,1.3925413 11.0363882,2.15113222 12.1853739,2.66393904 C12.9675483,3.0130609 13.8002848,3.20083983 14.7311297,3.23802345 C15.4975742,3.26866225 16.2850675,3.23751013 17.0466147,3.20738466 C17.6063022,3.18527981 18.1846707,3.16230873 18.7596015,3.16333537 C20.5567829,3.16631905 22.1295964,3.68993767 23.4343554,4.71959371 C23.7207343,4.94558291 23.9606698,5.15880326 23.9958591,5.47972459 C24.0267024,5.76079946 23.8788427,5.97809429 23.7648425,6.1171078 C23.7571884,6.12644381 23.7515452,6.13330947 23.7456424,6.14033553 L22.3154021,7.79351513 L22.2978237,7.81071136 C21.8109472,8.28662329 21.3184599,8.77405285 20.8421564,9.24540907 L19.9320035,10.1456122 C19.0474722,11.0202455 18.1328112,11.9246836 17.2352421,12.8159677 L17.2267772,12.8243733 C17.1318797,12.9186959 17.0138255,13.0361179 16.8304522,13.0903053 C16.7772629,13.1060578 16.7146033,13.1174471 16.6447762,13.1174471 C16.5720301,13.1174471 16.4915003,13.1050953 16.4057488,13.0723711 L2.85924983,8.19185156 C2.92755265,8.06178907 2.93056887,8.02290507 2.86667687,7.88745272 C3.00101224,7.7810992 3.11585568,7.65860818 3.18574769,7.5828293 L3.21641343,7.55149857 C3.43527589,7.33490811 4.7324016,6.16988021 6.56362376,6.98019145 C6.77842413,7.07521984 7.00039208,7.17538144 7.21509515,7.27220645 C8.31964839,7.77051197 9.46182333,8.28582123 10.5379981,8.53446068 C11.498616,8.75640747 12.302812,8.7372863 12.9735158,8.47430597 C13.0451916,8.83318092 13.3918625,9.07412056 13.7598739,9.01540957 L15.6051528,8.72102046 C15.9812724,8.66105826 16.237035,8.31074934 16.1763538,7.93868849 L15.9769913,6.71586366 C15.9163425,6.34380281 15.5622446,6.09080014 15.186125,6.15082652 L13.3408462,6.44521562 C12.9647266,6.50517783 12.708964,6.85548674 12.7696452,7.22754759 L12.8008453,7.41895184 C11.6566816,8.04699134 9.88397559,7.33885984 8.1088693,6.54536937 L7.64615535,6.33725797 C7.42976579,6.23966298 7.20604648,6.13873141 6.9878407,6.04216306 C5.59480047,5.4257939 4.42667955,5.68688135 3.6919864,6.01447585 C2.90329315,6.36613223 2.44015722,6.87428709 2.41706529,6.89167581 C2.29952995,6.98006312 2.21027575,7.07961515 2.14547563,7.18227917 C2.0177565,7.14137398 1.91173469,7.14730924 1.80808046,7.2442305 C1.56811248,6.97640572 1.28124712,6.70068863 1.09005761,6.42003085 C0.849635572,6.11056297 0.620824368,5.75582667 0.371159075,5.30558074 C0.318261687,5.21013527 0.262315645,5.10692584 0.20020743,4.99001718 C0.0641531425,4.73390251 -0.0760525036,4.39597745 0.0479368985,4.05272668 C0.170823596,3.71258792 0.488661979,3.54245438 0.751819188,3.4321868 L5.56395718,1.41499905 L8.13958322,0.1368319 C8.19640494,0.113026679 8.25345369,0.0898310248 8.30972405,0.067020361 L8.4740919,0 Z M14.6856918,7.01535388 C14.8077676,6.99616854 14.9189138,7.05410955 14.9339949,7.14477472 L15.0525356,7.85774432 C15.0676167,7.94844157 14.9808923,8.03747053 14.8588488,8.05665587 L14.2602748,8.15072179 C14.1381989,8.16990713 14.0270528,8.11196612 14.0119717,8.02130095 L13.8934309,7.30833135 C13.8783498,7.2176341 13.9650743,7.12860514 14.0871178,7.1094198 Z" id="path-2"></path>
        <filter x="-22.9%" y="-23.3%" width="145.8%" height="173.3%" filterUnits="objectBoundingBox" id="filter-3">
            <feOffset dx="0" dy="2" in="SourceAlpha" result="shadowOffsetOuter1"></feOffset>
            <feGaussianBlur stdDeviation="1.5" in="shadowOffsetOuter1" result="shadowBlurOuter1"></feGaussianBlur>
            <feColorMatrix values="0 0 0 0 0.541176471   0 0 0 0 0.749019608   0 0 0 0 0.780392157  0 0 0 1 0" type="matrix" in="shadowBlurOuter1"></feColorMatrix>
        </filter>
    </defs>
    <g id="页面-1" stroke="none" stroke-width="1" fill="none" fill-rule="evenodd">
        <g id="地图模式-确认稿切图2" transform="translate(-34.000000, -470.000000)">
            <g id="智能床垫" transform="translate(34.901015, 470.000000)">
                <g id="编组-33">
                    <path d="M1.11812462,21.375 L1.11856804,35.1935419 L14.6041246,35.193 L14.6041246,35.999 L0.27612462,36 L0.27612462,21.375 L1.11812462,21.375 Z M36.0961246,21.375 L36.0961854,36 L21.7681246,35.999 L21.7681246,35.193 L35.2694943,35.1935419 L35.2691246,21.375 L36.0961246,21.375 Z M14.6041246,1.36424205e-12 L14.6041246,0.897 L1.11856804,0.897039107 L1.11812462,14.175 L0.27612462,14.175 L0.27612462,1.36424205e-12 L14.6041246,1.36424205e-12 Z M36.0961854,1.36424205e-12 L36.0961246,14.175 L35.2691246,14.175 L35.2694943,0.897039107 L21.7681246,0.897 L21.7681246,1.36424205e-12 L36.0961854,1.36424205e-12 Z" id="形状结合" fill="#8CC1C9"></path>
                    <rect id="矩形备份-54" fill="#237784" x="0.27612462" y="1.36424205e-12" width="1.34325228" height="1"></rect>
                    <path d="M36.0961854,36 L35.2694943,36 L35.2689039,35.999 L33.9509039,36 L33.9509039,35.1935419 L35.2689039,35.193 L35.2694943,33.85 L36.0961854,33.85 L36.0961854,36 Z" id="形状结合" fill="#237784"></path>
                    <path d="M2.41096172,36 L1.58427072,36 L1.58368031,35.999 L0.265680312,36 L0.265680312,35.1935419 L1.58368031,35.193 L1.58427072,33.85 L2.41096172,33.85 L2.41096172,36 Z" id="形状结合备份-2" fill="#237784" transform="translate(1.338321, 34.925000) scale(-1, 1) translate(-1.338321, -34.925000) "></path>
                    <path d="M36.0989854,2.15307055 L35.2722944,2.15307055 L35.271704,2.15207055 L33.953704,2.15307055 L33.953704,1.34661244 L35.271704,1.34607055 L35.2722944,0.00307054653 L36.0989854,0.00307054653 L36.0989854,2.15307055 Z" id="形状结合备份" fill="#237784" transform="translate(35.026345, 1.078071) scale(1, -1) translate(-35.026345, -1.078071) "></path>
                    <path d="M2.4137618,2.15307055 L1.58707079,2.15307055 L1.58648039,2.15207055 L0.268480388,2.15307055 L0.268480388,1.34661244 L1.58648039,1.34607055 L1.58707079,0.00307054653 L2.4137618,0.00307054653 L2.4137618,2.15307055 Z" id="形状结合备份-3" fill="#237784" transform="translate(1.341121, 1.078071) scale(-1, -1) translate(-1.341121, -1.078071) "></path>
                    <polygon id="矩形备份-59" fill="#237784" transform="translate(0.500000, 35.325000) rotate(-90.000000) translate(-0.500000, -35.325000) " points="-0.175 35.1011246 1.175 35.1011246 1.175 35.5488754 -0.175 35.5488754"></polygon>
                    <polygon id="矩形备份-60" fill="#237784" transform="translate(0.500000, 0.675000) rotate(-90.000000) translate(-0.500000, -0.675000) " points="-0.175 0.45112462 1.175 0.45112462 1.175 0.89887538 -0.175 0.89887538"></polygon>
                    <rect id="矩形备份-63" fill="#237784" transform="translate(0.947751, 35.775000) rotate(-180.000000) translate(-0.947751, -35.775000) " x="0.27612462" y="35.55" width="1.34325228" height="1"></rect>
                </g>
                <g id="智能床垫备份" transform="translate(6.098985, 11.000000)" fill-rule="nonzero">
                    <g id="形状结合">
                        <use fill="black" fill-opacity="1" filter="url(#filter-3)" xlink:href="#path-2"></use>
                        <use fill="url(#linearGradient-1)" xlink:href="#path-2"></use>
                    </g>
                </g>
            </g>
        </g>
    </g>
</svg>