<?xml version="1.0" encoding="UTF-8"?>
<svg width="14px" height="14px" viewBox="0 0 14 14" version="1.1" xmlns="http://www.w3.org/2000/svg" xmlns:xlink="http://www.w3.org/1999/xlink">
    <title>更多亮</title>
    <g id="页面-1" stroke="none" stroke-width="1" fill="none" fill-rule="evenodd">
        <g id="中心详情展示" transform="translate(-635.000000, -335.000000)">
            <g id="编组-23" transform="translate(459.000000, 148.000000)">
                <g id="编组-23备份-8" transform="translate(0.000000, 38.000000)">
                    <g id="编组-9" transform="translate(141.000000, 42.000000)">
                        <g id="按钮/文字+icon/12px" transform="translate(24.000000, 102.000000)">
                            <g id="更多亮" transform="translate(10.000000, 4.000000)">
                                <rect id="矩形" fill="#000000" fill-rule="nonzero" opacity="0" x="0" y="0" width="16" height="16"></rect>
                                <path d="M8,1 C11.8659932,1 15,4.13400675 15,8 C15,11.8659932 11.8659932,15 8,15 C4.13400675,15 1,11.8659932 1,8 C1,4.13400675 4.13400675,1 8,1 Z M4.88125,7.25 C4.46875,7.25 4.1328125,7.5859375 4.1328125,8 C4.1328125,8.4140625 4.46875,8.75 4.88125,8.75 C5.2953125,8.75 5.6296875,8.4140625 5.6296875,8 C5.6296875,7.5859375 5.29375,7.25 4.88125,7.25 Z M8,7.25 C7.5875,7.25 7.2515625,7.5859375 7.2515625,8 C7.2515625,8.4140625 7.5875,8.75 8,8.75 C8.4125,8.75 8.7484375,8.4140625 8.7484375,8 C8.7484375,7.5859375 8.4125,7.25 8,7.25 Z M11.11875,7.25 C10.70625,7.25 10.3703125,7.5859375 10.3703125,8 C10.3703125,8.4140625 10.70625,8.75 11.11875,8.75 C11.53125,8.75 11.8671875,8.4140625 11.8671875,8 C11.8671875,7.5859375 11.53125,7.25 11.11875,7.25 Z" id="形状结合" fill="#03646B"></path>
                            </g>
                        </g>
                    </g>
                </g>
            </g>
        </g>
    </g>
</svg>