<?xml version="1.0" encoding="UTF-8"?>
<svg width="14px" height="14px" viewBox="0 0 14 14" version="1.1" xmlns="http://www.w3.org/2000/svg" xmlns:xlink="http://www.w3.org/1999/xlink">
    <title>最长睡眠开始时间</title>
    <g id="最长睡眠开始时间" stroke="none" stroke-width="1" fill="none" fill-rule="evenodd">
        <rect id="矩形" x="0" y="0.0585990651" width="14" height="13.9414009"></rect>
        <path d="M1.80527905,2 C1.95291354,2 2.0737054,2.12807245 2.0737054,2.28460543 L2.0737054,8.39081501 L12.7315736,8.39081501 C12.8792081,8.39081501 13,8.51888745 13,8.67542044 L13,13 L11.9262946,13 L11.9262946,11.4147477 L2.07236327,11.4147477 L2.07236327,12.9729625 L1.0040264,12.9772316 L1,2.28887451 C1,2.1309185 1.12213399,2 1.27245275,2 L1.80527905,2 Z M4.04819684,5.14478607 C4.89325428,5.14478607 5.59639369,5.84562778 5.59639369,6.71492869 C5.56865515,7.5842296 4.89325428,8.28571429 4.04819684,8.28571429 C3.2031394,8.28571429 2.5,7.58487257 2.5,6.71492869 C2.5,5.84562778 3.17604596,5.14478607 4.04819684,5.14478607 Z M11.1415187,5.14285714 C11.7898261,5.14285714 13,6.01280103 13,7.63952537 C13,7.97644376 12.7187442,8.25678045 12.3807213,8.25678045 L6.18793389,8.25678045 L6.18793389,5.76011223 C6.18793389,5.25473463 6.3563003,5.14285714 6.80656754,5.14285714 L11.1415187,5.14285714 Z M11.5,1 C12.328375,1 13,1.67157812 13,2.5 C13,3.32842188 12.3284219,4 11.5,4 C10.6715781,4 10,3.32842188 10,2.5 C10,1.67157812 10.6715781,1 11.5,1 Z M11.0762676,1.80151563 L11.0516406,1.80840625 C11.0364062,1.81759375 11.0270295,1.83451563 11.0270295,1.8529375 L11.0270295,3.1470625 C11.0268837,3.16517567 11.0362175,3.18204759 11.0516406,3.19154688 C11.0667606,3.20073438 11.0857394,3.20073438 11.1008594,3.19154688 L12.1745312,2.54453125 C12.1897656,2.53529688 12.1991406,2.51832813 12.1991406,2.5 C12.1991406,2.48167188 12.1897656,2.46470313 12.1745312,2.45546875 L11.1008594,1.80840625 C11.0856719,1.79921875 11.066875,1.79921875 11.0516406,1.80840625 Z" id="形状结合" fill="#33CFFD" fill-rule="nonzero"></path>
    </g>
</svg>