<?xml version="1.0" encoding="UTF-8"?>
<svg width="20px" height="20px" viewBox="0 0 20 20" version="1.1" xmlns="http://www.w3.org/2000/svg" xmlns:xlink="http://www.w3.org/1999/xlink">
    <title>机构</title>
    <g id="页面-1" stroke="none" stroke-width="1" fill="none" fill-rule="evenodd">
        <g id="地图模式-确认稿切图2" transform="translate(-709.000000, -398.000000)" fill="#FFFFFF" fill-rule="nonzero">
            <g id="编组-23备份-2" transform="translate(701.000000, 391.000000)">
                <g id="机构" transform="translate(8.833333, 7.833333)">
                    <g id="小区" transform="translate(0.000000, 0.000000)">
                        <path d="M12.5995375,0 L12.5995375,6.29805028 L17.1819797,10.3121621 L17.1819797,17.1869368 L18.3333333,17.1869368 L18.3333333,18.3333333 L0,18.3333333 L0,17.1869368 L1.14428374,17.1869368 L1.14428374,0 L12.5995375,0 Z M9.16314152,12.6049356 L4.58067968,12.6049356 L4.58067968,13.7566214 L9.16314152,13.7566214 L9.16314152,12.6049356 Z M9.16314152,9.16754821 L4.58067968,9.16754821 L4.58067968,10.3121817 L9.16314152,10.3121817 L9.16314152,9.16754821 Z M9.16314152,5.73016085 L4.58067968,5.73016085 L4.58067968,6.87479431 L9.16314152,6.87479431 L9.16314152,5.73016085 Z" id="形状结合"></path>
                    </g>
                </g>
            </g>
        </g>
    </g>
</svg>