<?xml version="1.0" encoding="UTF-8"?>
<svg width="36px" height="36px" viewBox="0 0 36 36" version="1.1" xmlns="http://www.w3.org/2000/svg" xmlns:xlink="http://www.w3.org/1999/xlink">
    <title>正常人数</title>
    <defs>
        <linearGradient x1="50%" y1="100%" x2="50%" y2="0%" id="linearGradient-1">
            <stop stop-color="#73CD79" offset="0%"></stop>
            <stop stop-color="#93DA98" offset="100%"></stop>
        </linearGradient>
    </defs>
    <g id="页面-1" stroke="none" stroke-width="1" fill="none" fill-rule="evenodd">
        <g id="地图模式-确认稿切图2" transform="translate(-729.000000, -1007.000000)">
            <g id="正常人数" transform="translate(729.000000, 1007.000000)">
                <rect id="矩形" x="0" y="0" width="36" height="36"></rect>
                <g id="编组" transform="translate(1.000000, 2.000000)" fill="url(#linearGradient-1)" fill-rule="nonzero">
                    <path d="M21.2654489,15.9126776 C21.2654489,15.6443836 21.0440601,15.4265784 20.7709098,15.4265784 L14.3418683,15.4265784 C14.0688859,15.4265784 13.8473292,15.6443836 13.8473292,15.9126776 L13.8473292,31.4700975 C13.8473292,31.7385897 14.0688859,31.9564279 14.3418683,31.9564279 L20.7709098,31.9564279 C21.043825,31.9564279 21.2654489,31.7386227 21.2654489,31.4700975 L21.2654489,15.9126776 Z M33.899624,8.74171552 L28.9859082,0.316260173 C28.7503111,-0.0847114061 28.3647365,-0.11499148 28.1293745,0.286244265 L23.216532,8.75713623 C22.98117,9.15774458 23.1740412,9.59249644 23.6448325,9.59249644 L25.2219295,9.59249644 L25.2219295,31.2270314 C25.2219295,31.4945329 25.5659537,31.9564279 25.8380627,31.9564279 L31.2780933,31.9564279 C31.5502023,31.9564279 31.650971,31.4945329 31.650971,31.2270314 L31.650971,9.59252946 L33.4713236,9.59252946 C33.9420476,9.59252946 34.1349861,9.1426871 33.899624,8.74171552 L33.899624,8.74171552 Z M2.11963552,9.19822808 C2.11963552,7.28077624 3.70076323,5.72642113 5.65124173,5.72642113 C7.60165305,5.72642113 9.18284795,7.28077624 9.18284795,9.19822808 C9.18284795,11.1156139 7.60165305,12.670035 5.65124173,12.670035 C3.70076323,12.670035 2.11963552,11.1156139 2.11963552,9.19822808 Z M5.7620201,30.4978661 C5.7620201,31.4701305 5.14712963,32.078935 4.21122376,31.9913309 C3.39516543,31.9155811 2.96726804,31.1536262 2.96726804,30.3476215 L2.96726804,22.3130333 C2.96726804,22.9733833 2.16310041,23.5022775 1.48311338,23.5022775 C0.732017255,23.5022775 0,22.8765663 0,22.2493692 L0,16.5267655 C0,15.0356122 1.10637289,13.9679506 2.62300865,13.9679506 L3.8327702,13.9679506 L5.81102726,17.3713385 L7.7890492,13.9679506 L8.97056193,13.9679506 C10.4873992,13.9679506 11.8690721,15.0356122 11.8690721,16.5271617 L11.8690721,22.2500296 C11.8690721,22.8771937 11.1370549,23.5027067 10.3859588,23.5027067 C9.70600532,23.5027067 8.90180411,22.9738126 8.90180411,22.3136277 L8.90180411,30.3480177 C8.90180411,31.1542205 8.33662619,31.9155481 7.51992966,31.9917271 C6.58399019,32.078902 5.83161766,31.4700975 5.83161766,30.4978331 L5.7620201,30.4978331 L5.7620201,30.4978661 Z" id="形状"></path>
                </g>
            </g>
        </g>
    </g>
</svg>