<?xml version="1.0" encoding="UTF-8"?>
<svg width="9px" height="14px" viewBox="0 0 9 14" version="1.1" xmlns="http://www.w3.org/2000/svg" xmlns:xlink="http://www.w3.org/1999/xlink">
    <title>温度</title>
    <g id="页面-1" stroke="none" stroke-width="1" fill="none" fill-rule="evenodd">
        <g id="中心详情展示" transform="translate(-1788.000000, -667.000000)">
            <g id="编组-23备份-2" transform="translate(459.000000, 616.000000)">
                <g id="编组-23备份-20" transform="translate(1154.000000, 38.000000)">
                    <g id="编组-16" transform="translate(133.000000, 10.000000)">
                        <g id="编组-19" transform="translate(36.000000, 0.000000)">
                            <g id="温度" transform="translate(2.000000, 2.000000)">
                                <rect id="矩形" x="0" y="0" width="16" height="16"></rect>
                                <path d="M11.0624514,11.497624 C11.2536354,10.88818 11.2453194,10.23346 11.0386794,9.629164 C10.8320394,9.024736 10.4379114,8.502016 9.91358342,8.137168 L9.40000742,7.77892 L9.40000742,4.000024 C9.40000742,3.681772 9.27358742,3.376588 9.04855142,3.151528 C8.82343142,2.926468 8.51825942,2.800012 8.19997479,2.800012 C7.88170742,2.800012 7.57653542,2.926468 7.35141542,3.151528 C7.12637942,3.376588 6.99995942,3.681772 6.99995942,4.000024 L6.99995942,7.77892 L6.48638342,8.137168 C5.96205542,8.502016 5.56792742,9.024736 5.36128742,9.629164 C5.15464742,10.23346 5.14633142,10.88818 5.33751542,11.497624 C5.52869942,12.107068 5.90947142,12.639688 6.42430742,13.017736 C6.93914342,13.395784 7.56124742,13.599724 8.19997479,13.599724 C8.83871942,13.599724 9.46082342,13.395784 9.97565942,13.017736 C10.4904954,12.639688 10.8712674,12.107068 11.0624514,11.497624 Z M8.19998342,14.8 C9.09416342,14.8 9.96499142,14.514616 10.6857114,13.985428 C11.4064314,13.45624 11.9394954,12.710836 12.2072874,11.85772 C12.4749954,11.004472 12.4634874,10.088128 12.1744434,9.242008 C11.8853154,8.395888 11.3337714,7.66408 10.5999474,7.153108 L10.5999474,4.000024 C10.5999474,3.36352 10.3471074,2.75302 9.89703542,2.3029 C9.44696342,1.852912 8.83653542,1.6 8.19998342,1.6 C7.56343142,1.6 6.95300342,1.852912 6.50293142,2.3029 C6.05285942,2.75302 5.80001942,3.36352 5.80001942,4.000024 L5.80001942,7.153108 C5.06619542,7.66408 4.51465142,8.395888 4.22552342,9.242008 C3.93647942,10.088128 3.92497142,11.004472 4.19276342,11.85772 C4.46047142,12.710836 4.99353542,13.45624 5.71425542,13.985428 C6.43497542,14.514616 7.30580342,14.8 8.19998342,14.8 Z M7.59997142,8.275768 C7.03381142,8.421232 6.54031142,8.768524 6.21195542,9.252172 C5.88359942,9.73582 5.74306742,10.322692 5.81673542,10.902568 C5.89040342,11.482444 6.17314742,12.015592 6.61196342,12.401824 C7.05077942,12.788056 7.61542742,13.00084 8.19998342,13.0001815 C8.78319542,12.998464 9.34591142,12.784624 9.78296342,12.398392 C10.2200154,12.01216 10.5015834,11.480068 10.5750834,10.901512 C10.6484994,10.322956 10.5088914,9.737404 10.1822994,9.254152 C9.85562342,8.7709 9.36430742,8.423212 8.79999542,8.275768 L8.79999542,4.000024 L7.59997142,4.000024 L7.59997142,8.275768 Z M7.35141542,11.448784 C7.57653542,11.673712 7.88170742,11.800168 8.19998342,11.800168 C8.51825942,11.800168 8.82343142,11.673712 9.04855142,11.448784 C9.27358742,11.223724 9.40000742,10.918408 9.40000742,10.600156 C9.40000742,10.281904 9.27358742,9.97672 9.04855142,9.75166 C8.82343142,9.5266 8.51825942,9.400144 8.19998342,9.400144 C7.88170742,9.400144 7.57653542,9.5266 7.35141542,9.75166 C7.12637942,9.97672 6.99995942,10.281904 6.99995942,10.600156 C6.99995942,10.918408 7.12637942,11.223724 7.35141542,11.448784 Z" id="Vector" fill="#03646B"></path>
                            </g>
                        </g>
                    </g>
                </g>
            </g>
        </g>
    </g>
</svg>