<?xml version="1.0" encoding="UTF-8"?>
<svg width="12px" height="14px" viewBox="0 0 12 14" version="1.1" xmlns="http://www.w3.org/2000/svg" xmlns:xlink="http://www.w3.org/1999/xlink">
    <title>湿度</title>
    <g id="页面-1" stroke="none" stroke-width="1" fill="none" fill-rule="evenodd">
        <g id="中心详情展示" transform="translate(-1837.000000, -667.000000)">
            <g id="编组-23备份-2" transform="translate(459.000000, 616.000000)">
                <g id="编组-23备份-20" transform="translate(1154.000000, 38.000000)">
                    <g id="编组-16" transform="translate(133.000000, 10.000000)">
                        <g id="编组-18" transform="translate(87.000000, 0.000000)">
                            <g id="湿度" transform="translate(2.000000, 2.000000)">
                                <rect id="矩形" x="0" y="0" width="16" height="16"></rect>
                                <path d="M4.1928427,10.876664 C4.5106867,11.644211 5.0490667,12.3001528 5.7397267,12.761698 C6.4303867,13.2232432 7.2424387,13.469531 8.0730667,13.469531 C8.9036947,13.469531 9.7157467,13.2232432 10.4064067,12.761698 C11.0970667,12.3001528 11.6354467,11.644211 11.9532907,10.876664 C12.2712427,10.1092473 12.3544027,9.26464566 12.1924027,8.44990104 C12.0304027,7.63502604 11.6303707,6.88664484 11.0430667,6.29915256 L8.0730667,3.32896578 L5.1030667,6.29915256 C4.5157627,6.88664484 4.1157307,7.63502604 3.9537307,8.44990104 C3.7917307,9.26464566 3.8748907,10.1092473 4.1928427,10.876664 Z M2.7768547,8.21586894 C2.5685227,9.26347224 2.6754427,10.3492769 3.0841147,11.3361231 C3.4928947,12.3229693 4.1849587,13.1663975 5.0730427,13.7597569 C5.9610187,14.3532467 7.0050547,14.6699397 8.0730667,14.6699397 C9.1410787,14.6699397 10.1851147,14.3532467 11.0730907,13.7597569 C11.9611747,13.1663975 12.6532387,12.3229693 13.0620187,11.3361231 C13.4706907,10.3492769 13.5776107,9.26347224 13.3692787,8.21586894 C13.1609467,7.16826564 12.6466507,6.20593086 11.8915147,5.4507699 L8.0730667,1.6319397 L4.2546187,5.4507699 C3.4994827,6.20593086 2.9851867,7.16826564 2.7768547,8.21586894 Z M8.0730667,12.2697743 C8.8687027,12.2697743 9.6318307,11.9536028 10.1944027,11.3910131 C10.7569747,10.828293 11.0730907,10.0651789 11.0730907,9.26946972 L5.0730427,9.26946972 C5.0730427,10.0651789 5.3891587,10.828293 5.9517307,11.3910131 C6.5143027,11.9536028 7.2774307,12.2697743 8.0730667,12.2697743 Z" id="Vector" fill="#03646B"></path>
                            </g>
                        </g>
                    </g>
                </g>
            </g>
        </g>
    </g>
</svg>