<?xml version="1.0" encoding="UTF-8"?>
<svg width="14px" height="14px" viewBox="0 0 14 14" version="1.1" xmlns="http://www.w3.org/2000/svg" xmlns:xlink="http://www.w3.org/1999/xlink">
    <title>睡眠评分(%)</title>
    <g id="睡眠评分(%)" stroke="none" stroke-width="1" fill="none" fill-rule="evenodd">
        <g id="打鼾">
            <rect id="矩形" x="0" y="0.0585990651" width="14" height="13.9414009"></rect>
            <path d="M10.5932719,14.0307691 C10.3754944,14.0251267 10.1620359,13.968858 9.96985582,13.8664335 L7.04190163,12.3454547 L4.08943107,13.862937 C3.64176346,14.1073081 3.09155439,14.0633647 2.68849605,13.7510489 C2.26606175,13.4188271 2.06249809,12.8804839 2.15964308,12.3524477 L2.75153813,9.13566513 L0.436493008,6.8979033 C0.0810464169,6.51313214 -0.0512523363,5.97293168 0.0862592556,5.46783364 C0.232772096,4.96343825 0.659060706,4.58969309 1.17898857,4.50979185 L4.3906321,3.89091085 L5.83359518,0.852449864 C6.04537151,0.372053954 6.51631278,0.0572533739 7.04190163,0.0447577102 C7.56830605,0.0480914737 8.04271646,0.36246538 8.25020808,0.845456864 L9.68266414,3.89091085 L12.89781,4.47133032 C13.4153836,4.55684818 13.8347411,4.93719841 13.9695253,5.44335811 C14.1246054,5.94918586 13.9902363,6.49918152 13.6192915,6.87692428 L11.3182558,9.13566513 L11.9031461,12.3874128 C11.9938962,12.9062525 11.7937875,13.4331765 11.3812978,13.7615384 C11.1599258,13.9451187 10.8810557,14.0453447 10.5932719,14.0447577 L10.5932719,14.0307691 Z" id="路径" fill="#000000" fill-rule="nonzero"></path>
        </g>
    </g>
</svg>