<?xml version="1.0" encoding="UTF-8"?>
<svg width="14px" height="14px" viewBox="0 0 14 14" version="1.1" xmlns="http://www.w3.org/2000/svg" xmlns:xlink="http://www.w3.org/1999/xlink">
    <title>睡眠潜时(分)</title>
    <g id="睡眠潜时(分)" stroke="none" stroke-width="1" fill="none" fill-rule="evenodd">
        <g id="编组" transform="translate(0.000000, 0.000029)" fill="#119BF6" fill-rule="nonzero">
            <path d="M6.40748861,1.42876373 C9.94624685,1.42876373 12.8149772,4.24292442 12.8149772,7.71436755 C12.812265,11.184708 9.94512282,13.9973108 6.40748861,13.9999714 C2.86873037,13.9999714 0,11.1858107 0,7.71436755 C0,4.24292442 2.86873037,1.42876373 6.40748861,1.42876373 Z M8.38453608,6.08369445 C8.23129689,5.96759635 8.0265594,5.94051432 7.84744624,6.01264989 C7.66833309,6.08478546 7.54205583,6.24517952 7.51618188,6.43341318 C7.49030793,6.62164684 7.56876817,6.80912293 7.72200737,6.92522101 C8.21792576,7.28482627 8.81119943,7.49249082 9.42715812,7.5220777 C9.72954334,7.52660969 10.0281708,7.45674767 10.296244,7.31944968 C10.4268125,7.25829123 10.5261981,7.14740338 10.5713154,7.01254347 C10.6164327,6.87768355 10.6033549,6.73058892 10.5351197,6.60542714 C10.4708438,6.47913303 10.3577468,6.38330297 10.221025,6.33928641 C10.0843032,6.29526985 9.93531458,6.30672341 9.80725148,6.37109541 C9.21006229,6.66952375 8.39507471,6.09403261 8.38453608,6.08369445 Z M5.32343185,5.99569026 C5.13387501,5.95136257 4.93461015,6.0096058 4.80069842,6.14848028 C4.34472693,6.63713085 3.37798304,6.36144646 3.35620319,6.36144646 C3.0684641,6.27499557 2.76337359,6.43170642 2.67189464,6.71294404 C2.59084324,6.9945268 2.74811992,7.28918075 3.03020815,7.3842355 C3.33025073,7.46930626 3.64106926,7.51223444 3.95339236,7.51173954 C4.56550119,7.53690795 5.1603243,7.30915473 5.59320359,6.88386835 C5.72711532,6.74499387 5.77532954,6.54658647 5.71968443,6.36338429 C5.66403932,6.18018212 5.51298869,6.04001794 5.32343185,5.99569026 Z" id="形状结合"></path>
            <path d="M13.543548,3.04706046 L11.3494047,3.04706046 C11.1644064,3.0491219 10.9970452,2.93967015 10.9278594,2.77134664 C10.8594532,2.60336723 10.8976591,2.41165738 11.0255174,2.28131766 L12.4376942,0.896003657 L11.1449552,0.896003657 C10.8927411,0.896003657 10.6882812,0.695432997 10.6882812,0.448016548 C10.6882812,0.200600099 10.8927411,0 11.1449552,0 L13.5449532,0 C13.7299515,-0.00206143505 13.8973127,0.107390303 13.9664985,0.275713806 C14.0349047,0.443693219 13.9966988,0.635403067 13.8688405,0.765742789 L12.4566637,2.15105679 L13.5428454,2.15105679 C13.7950596,2.15105679 13.9995195,2.35162745 13.9995195,2.59904391 C13.9995195,2.84646036 13.7950596,3.04706046 13.5428454,3.04706046 L13.543548,3.04706046 Z" id="路径"></path>
        </g>
    </g>
</svg>