<?xml version="1.0" encoding="UTF-8"?>
<svg width="14px" height="14px" viewBox="0 0 14 14" version="1.1" xmlns="http://www.w3.org/2000/svg" xmlns:xlink="http://www.w3.org/1999/xlink">
    <title>睡眠效率(%)</title>
    <g id="睡眠效率(%)" stroke="none" stroke-width="1" fill="none" fill-rule="evenodd">
        <g id="打鼾">
            <rect id="矩形" x="0" y="0.0585990651" width="14" height="13.9414009"></rect>
            <g id="编组" fill="#333333" fill-rule="nonzero">
                <path d="M0.00711444139,13.993 L2.32642233,13.993 L2.32642233,10.311 L0.00711444139,10.318 L0.00711444139,13.993 M3.89871388,7.245 L3.89871388,13.993 L6.12553403,13.993 L6.12553403,7.259 L3.89871388,7.245 M7.78319887,9.009 L7.78319887,13.993 L10.010019,13.993 L10.010019,8.988 L7.78319887,8.995 M11.6747983,5.005 L11.6747983,14 L13.9941062,14 L13.9941062,4.991 L11.6747983,5.005" id="形状"></path>
                <path d="M13.9798773,0.021 C13.958534,0 13.9371907,0 13.9158473,0 L9.81792911,0 C9.78947135,0 9.7467847,0.021 9.73967026,0.049 C9.73255581,0.077 9.73967026,0.105 9.76101358,0.133 L11.4827084,1.708 L6.94369479,5.439 L3.90582832,2.926 L0,6.762 L0,8.421 L3.89871388,4.585 L6.95080923,7.091 L12.443158,2.59 L13.8589318,3.892 C13.8802751,3.913 13.9158473,3.92 13.9443051,3.913 C13.9727629,3.892 13.9941062,3.878 13.9941062,3.843 L13.9941062,0.077 C14.0083351,0.056 13.9941062,0.035 13.9798773,0.021" id="路径"></path>
            </g>
        </g>
    </g>
</svg>