<?xml version="1.0" encoding="UTF-8"?>
<svg width="14px" height="14px" viewBox="0 0 14 14" version="1.1" xmlns="http://www.w3.org/2000/svg" xmlns:xlink="http://www.w3.org/1999/xlink">
    <title>离床</title>
    <g id="离床" stroke="none" stroke-width="1" fill="none" fill-rule="evenodd">
        <g id="打鼾" transform="translate(0.000000, 0.058599)">
            <rect id="矩形" x="0" y="0" width="14" height="13.9414009"></rect>
            <path d="M1.80527905,2.44140093 C1.95291354,2.44140093 2.0737054,2.56365191 2.0737054,2.71306976 L2.0737054,5.89702836 L2.9232748,5.89702836 C4.25735376,5.89702836 5.33911196,6.99185372 5.33911196,8.34204777 L5.33911196,8.54172435 L12.7315736,8.54172435 C12.8792081,8.54172435 13,8.66397532 13,8.81339317 L13,12.9414009 L11.9262946,12.9414009 L11.9262946,11.4282056 L2.07236327,11.4282056 L2.07236327,12.9155924 L1.0040264,12.9196674 L1,2.71714479 C1,2.56636859 1.12213399,2.44140093 1.27245275,2.44140093 Z M10.4461596,0.941400935 C11.8962349,0.941400935 13,2.11632563 13,3.56640093 C13,5.01647624 11.8250753,6.19140093 10.375,6.19140093 C8.9249247,6.19140093 7.75,5.12242503 7.75,3.67234973 C7.75,2.22227443 9.09096386,0.941400935 10.4461596,0.941400935 Z M10.673,2.28240093 C10.5204819,2.28236479 10.3939759,2.40570816 10.3939759,2.55909672 L10.3939759,3.66286178 L9.24118976,3.66286178 C9.08305723,3.66286178 8.9565512,3.78620515 8.9565512,3.93959371 L8.9565512,3.99652142 C8.9565512,4.14990997 9.08463855,4.27325334 9.24277108,4.27325334 L10.6596386,4.27325334 L10.6691265,4.27404401 L10.673,4.27340093 L10.7343684,4.26755504 C10.8605056,4.23898054 10.9534488,4.12957865 10.9534488,3.99810274 L10.9534488,2.55909672 C10.9534488,2.42762081 10.8593438,2.31821892 10.7338705,2.28964442 L10.673,2.28240093 Z" id="形状结合" fill="#33CFFD" transform="translate(7.000000, 6.941401) scale(-1, 1) translate(-7.000000, -6.941401) "></path>
        </g>
    </g>
</svg>