<?xml version="1.0" encoding="UTF-8"?>
<svg width="36px" height="36px" viewBox="0 0 36 36" version="1.1" xmlns="http://www.w3.org/2000/svg" xmlns:xlink="http://www.w3.org/1999/xlink">
    <title>编组 2</title>
    <defs>
        <linearGradient x1="50%" y1="0%" x2="50%" y2="100%" id="linearGradient-1">
            <stop stop-color="#FDD048" offset="0%"></stop>
            <stop stop-color="#F7B606" offset="100%"></stop>
        </linearGradient>
        <linearGradient x1="50%" y1="0%" x2="50%" y2="100%" id="linearGradient-2">
            <stop stop-color="#FDD048" offset="0%"></stop>
            <stop stop-color="#F7B606" offset="100%"></stop>
        </linearGradient>
    </defs>
    <g id="页面-1" stroke="none" stroke-width="1" fill="none" fill-rule="evenodd">
        <g id="地图模式-确认稿切图2" transform="translate(-508.000000, -1009.000000)">
            <g id="编组-4备份-8" transform="translate(508.000000, 1009.000000)">
                <g id="编组" transform="translate(3.000000, 0.000000)">
                    <path d="M15.6962025,20.0809353 L16.7088608,19.8291367 L18.4177215,19.4514388 L18.4177215,19.1366906 L18.4177215,18.0035971 C20.1265823,16.9964029 20.443038,15.9892086 20.8227848,14.6043165 C21.6455696,14.2895683 22.3417722,13.7859712 22.5316456,12.9046763 C22.5316456,12.9046763 22.8481013,9.88309353 21.7088608,9.88309353 C21.7088608,9.88309353 21.2025316,10.0719424 21.3924051,9.19064748 C21.5822785,7.8057554 21.5822785,6.48381295 21.3924051,5.28776978 C21.2025316,4.46942446 21.3924051,2.07733813 19.6835443,1.69964029 C18.9873418,1.51079137 18.4810127,1.69964029 17.7848101,1.69964029 C17.0886076,1.51079137 16.3924051,0 15.3797468,0 L13.1012658,0.377697842 L12.7848101,0.566546763 C11.9620253,0.566546763 12.0886076,0.755395683 11.5822785,0.881294964 C10.8860759,0.881294964 10.3797468,0.881294964 9.87341772,1.07014388 C8.16455696,1.38489209 7.65822785,3.5881295 7.46835443,4.46942446 C7.27848101,5.28776978 7.27848101,7.67985612 7.46835443,8.87589928 C7.65822785,9.6942446 7.15189873,9.6942446 7.15189873,9.6942446 C6.13924051,9.6942446 6.64556962,12.9046763 6.64556962,12.9046763 C6.83544304,13.7230216 7.15189873,14.2895683 8.16455696,14.6043165 C8.67088608,15.9892086 9.55696203,17.3111511 10.6962025,18.0035971 L10.6962025,20.5845324 C10.5063291,21.9694245 8.67088608,22.7877698 6.4556962,23.102518 C1.70886076,23.794964 0.82278481,26.6906475 0.696202532,27.1942446 C0.189873418,28.3902878 0,30.0899281 0,30.7823741 L0,31.0971223 L16.0759494,31.0971223 C15.8227848,30.6564748 15.6329114,30.278777 15.6329114,30.0899281 C15.6962025,29.0827338 15.6962025,20.0809353 15.6962025,20.0809353 Z M23.9240506,25.9982014 C23.8607595,25.9352518 23.6075949,25.7464029 23.3544304,25.368705 L23.2911392,25.3057554 C23.1012658,25.9352518 22.5316456,26.3758993 21.835443,26.4388489 L21.6455696,26.4388489 L21.7088608,26.5017986 C22.1518987,26.8165468 22.4050633,27.3201439 22.4050633,27.9496403 L22.4050633,28.0755396 L22.3417722,28.3902878 L22.4683544,28.3273381 C22.6582278,28.2014388 22.9746835,28.0755396 23.3544304,28.0755396 C23.7341772,28.0755396 24.0506329,28.2014388 24.2405063,28.2643885 L24.3670886,28.3273381 L24.3037975,28.0125899 L24.3037975,27.8866906 C24.3037975,27.3201439 24.6202532,26.8165468 24.8734177,26.5647482 L25.0632911,26.3758993 L24.1139241,26.25 L23.9240506,25.9982014 L23.9240506,25.9982014 Z" id="形状" fill="url(#linearGradient-1)"></path>
                    <path d="M23.5443038,20.3327338 C23.4177215,20.3327338 20,20.3327338 17.0886076,21.0881295 L17.0886076,28.5791367 C17.2151899,28.5791367 17.2151899,29.7751799 17.9746835,31.0971223 C18.4810127,31.852518 19.1772152,32.6708633 19.9367089,33.2374101 C20.8860759,33.9298561 22.2151899,34.6223022 23.5443038,35 C25,34.6223022 26.2025316,34.0557554 27.1518987,33.2374101 C27.9113924,32.544964 28.6075949,31.852518 29.1139241,31.0971223 C29.8734177,29.7122302 30,28.6420863 30,28.5791367 L30,21.1510791 C27.0253165,20.3327338 23.5443038,20.3327338 23.5443038,20.3327338 L23.5443038,20.3327338 Z M27.3417722,26.1870504 L25.9493671,27.5719424 C25.8227848,27.6978417 25.7594937,27.8866906 25.7594937,27.9496403 L26.0759494,29.9010791 C26.2025316,30.278777 25.7594937,30.5935252 25.3797468,30.4046763 L23.7341772,29.5233813 C23.5443038,29.397482 23.4177215,29.397482 23.2278481,29.5233813 L21.5822785,30.4046763 C21.2658228,30.5935252 20.8227848,30.278777 20.8860759,29.9010791 L21.2025316,27.9496403 C21.2025316,27.7607914 21.2025316,27.6348921 21.0126582,27.5719424 L19.6202532,26.1870504 C19.3037975,25.8723022 19.4936709,25.4316547 19.9367089,25.3057554 L21.7721519,24.9910072 C21.9620253,24.9910072 22.0886076,24.8651079 22.0886076,24.676259 L22.8481013,22.9136691 C23.0379747,22.5359712 23.5443038,22.5359712 23.7341772,22.9136691 L24.6202532,24.676259 C24.7468354,24.8651079 24.8101266,24.8651079 24.9367089,24.9910072 L26.7721519,25.3057554 C27.4683544,25.4316547 27.6582278,25.9352518 27.3417722,26.1870504 L27.3417722,26.1870504 Z" id="形状" fill="url(#linearGradient-2)"></path>
                </g>
            </g>
        </g>
    </g>
</svg>