<?xml version="1.0" encoding="UTF-8"?>
<svg width="29px" height="26px" viewBox="0 0 29 26" version="1.1" xmlns="http://www.w3.org/2000/svg" xmlns:xlink="http://www.w3.org/1999/xlink">
    <title>翻动备份</title>
    <g id="页面-1" stroke="none" stroke-width="1" fill="none" fill-rule="evenodd">
        <g id="中心详情展示-详情" transform="translate(-1343.000000, -472.000000)">
            <g id="编组-17" transform="translate(321.000000, 139.000000)">
                <g id="编组-10" transform="translate(16.000000, 98.000000)">
                    <g id="编组-19" transform="translate(163.521519, 155.269364)">
                        <g id="编组-4备份-10" transform="translate(842.910252, 69.242775)">
                            <g id="翻动备份" transform="translate(0.000000, 9.800000)">
                                <g id="编组" transform="translate(0.000000, 0.000000)">
                                    <rect id="矩形" x="0" y="0" width="28.0036629" height="28"></rect>
                                    <path d="M3.29454857,23.0588235 C4.20431304,23.0588235 4.94182286,23.7962369 4.94182286,24.7058824 C4.94182286,25.6155278 4.20431304,26.3529412 3.29454857,26.3529412 C2.38478411,26.3529412 1.64727429,25.6155278 1.64727429,24.7058824 C1.64727429,23.7962369 2.38478411,23.0588235 3.29454857,23.0588235 L3.29454857,23.0588235 Z M9.88364572,23.0588235 C10.7934102,23.0588235 11.53092,23.7962369 11.53092,24.7058824 C11.53092,25.6155278 10.7934102,26.3529412 9.88364572,26.3529412 C8.97388125,26.3529412 8.23637143,25.6155278 8.23637143,24.7058824 C8.23637143,23.7962369 8.97388125,23.0588235 9.88364572,23.0588235 L9.88364572,23.0588235 Z M16.4727429,23.0588235 C17.3825073,23.0588235 18.1200171,23.7962369 18.1200171,24.7058824 C18.1200171,25.6155278 17.3825073,26.3529412 16.4727429,26.3529412 C15.5629784,26.3529412 14.8254686,25.6155278 14.8254686,24.7058824 C14.8254686,23.7962369 15.5629784,23.0588235 16.4727429,23.0588235 L16.4727429,23.0588235 Z M23.06184,23.0588235 C23.9716045,23.0588235 24.7091143,23.7962369 24.7091143,24.7058824 C24.7091143,25.6155278 23.9716045,26.3529412 23.06184,26.3529412 C22.1520755,26.3529412 21.4145657,25.6155278 21.4145657,24.7058824 C21.4145657,23.7962369 22.1520755,23.0588235 23.06184,23.0588235 L23.06184,23.0588235 Z M18.8584811,2.84293867 C20.9168821,0.263983735 21.9656865,2.57070762 21.6156183,3.15861086 C18.899089,7.00025457 19.5614181,9.72256524 19.9688974,10.7115749 C20.4449902,11.21694 20.7404478,11.9062059 20.7404478,12.6606335 L20.7404478,13.294874 C20.7404478,14.3809021 19.9086857,15.2395884 18.8584811,15.2395884 L10.9833468,15.2395884 C10.4372404,15.2395884 9.92194005,15.1034729 9.46685139,14.8630987 C9.23208761,14.8362431 9.00418374,14.7645578 8.79472046,14.6516852 L4.29144312,11.60067 L3.10961287,16.8686307 C2.93457876,17.6838759 2.14622517,18.1805528 1.31586339,17.9995481 C0.874819964,17.8918859 0.493213399,17.6074203 0.255022596,17.2087527 C0.0168317926,16.8100851 -0.058424197,16.3298852 0.0458159645,15.8738289 L1.45028958,9.67622804 L1.44608877,9.67477999 L1.45589067,9.65740355 L1.70793979,8.5424146 C1.87994198,7.7469636 2.52212855,7.15271455 3.30565105,7.06396822 C3.62169054,6.96337783 3.96426314,7.0076601 4.24663438,7.18560339 L8.88573819,9.97452377 C9.08877774,9.89777778 9.31002085,9.85578469 9.54106586,9.85578469 L16.8812959,9.85578469 C16.7524708,8.63219293 17.0073205,5.16703899 18.8598814,2.84293867 L18.8584811,2.84293867 Z M24.853049,8.00084855 C25.9786549,8.00084855 27.0187577,8.62183593 27.5815606,9.62989081 C28.1443636,10.6379457 28.1443636,11.8799205 27.5815606,12.8879754 C27.0187577,13.8960303 25.9786549,14.5170177 24.853049,14.5170177 C23.113013,14.5170177 21.7024352,13.0583235 21.7024352,11.2589331 C21.7024352,9.4595427 23.113013,8.00084855 24.853049,8.00084855 Z" id="形状" fill="#03646B" fill-rule="nonzero"></path>
                                </g>
                            </g>
                        </g>
                    </g>
                </g>
            </g>
        </g>
    </g>
</svg>