<?xml version="1.0" encoding="UTF-8"?>
<svg width="17px" height="15px" viewBox="0 0 17 15" version="1.1" xmlns="http://www.w3.org/2000/svg" xmlns:xlink="http://www.w3.org/1999/xlink">
    <title>翻动</title>
    <g id="页面-1" stroke="none" stroke-width="1" fill="none" fill-rule="evenodd">
        <g id="中心详情展示" transform="translate(-1666.000000, -773.000000)">
            <g id="编组-23备份-2" transform="translate(459.000000, 616.000000)">
                <g id="编组-23备份-20" transform="translate(1154.000000, 38.000000)">
                    <g id="编组-9" transform="translate(10.000000, 42.000000)">
                        <g id="编组" transform="translate(43.000000, 76.000000)">
                            <rect id="矩形" x="0" y="0" width="17" height="17"></rect>
                            <path d="M2,14 C2.55228475,14 3,14.4477153 3,15 C3,15.5522847 2.55228475,16 2,16 C1.44771525,16 1,15.5522847 1,15 C1,14.4477153 1.44771525,14 2,14 L2,14 Z M6,14 C6.55228475,14 7,14.4477153 7,15 C7,15.5522847 6.55228475,16 6,16 C5.44771525,16 5,15.5522847 5,15 C5,14.4477153 5.44771525,14 6,14 L6,14 Z M10,14 C10.5522847,14 11,14.4477153 11,15 C11,15.5522847 10.5522847,16 10,16 C9.44771525,16 9,15.5522847 9,15 C9,14.4477153 9.44771525,14 10,14 L10,14 Z M14,14 C14.5522847,14 15,14.4477153 15,15 C15,15.5522847 14.5522847,16 14,16 C13.4477153,16 13,15.5522847 13,15 C13,14.4477153 13.4477153,14 14,14 L14,14 Z M11.4482945,1.72606991 C12.6978745,0.160275839 13.3345653,1.56078677 13.1220517,1.91772802 C11.4729461,4.25015456 11.8750218,5.90298604 12.1223876,6.5034562 C12.4114061,6.81028502 12.5907676,7.22876788 12.5907676,7.68681319 L12.5907676,8.07188776 C12.5907676,8.73126201 12.0858353,9.25260726 11.4482945,9.25260726 L6.66758835,9.25260726 C6.33606712,9.25260726 6.02324709,9.16996568 5.7469794,9.02402419 C5.60446289,9.00771905 5.46611078,8.9641958 5.33895328,8.895666 L2.60517824,7.04326391 L1.88773229,10.2416687 C1.78147549,10.7366389 1.30289484,11.0381928 0.798812563,10.928297 C0.53107122,10.8629307 0.299411824,10.6902195 0.154814895,10.4481713 C0.010217966,10.2061231 -0.0354671942,9.91457315 0.0278131972,9.63768183 L0.880417786,5.87485274 L0.877867631,5.87397356 L0.883818005,5.86342358 L1.03682781,5.18646601 C1.14124405,4.70351362 1.53109204,4.34271955 2.00673991,4.28883785 C2.19859593,4.22776511 2.40655923,4.25465077 2.57797649,4.36268777 L5.39420682,6.05596086 C5.51746471,6.00936508 5.65177331,5.98386928 5.7920323,5.98386928 L10.2480176,5.98386928 C10.1698126,5.24097428 10.3245225,3.13713082 11.4491445,1.72606991 L11.4482945,1.72606991 Z M15.0873775,4.85765805 C15.7706917,4.85765805 16.4021001,5.2346861 16.7437572,5.84671942 C17.0854143,6.45875274 17.0854143,7.2128089 16.7437572,7.82484222 C16.4021001,8.43687554 15.7706917,8.81390359 15.0873775,8.81390359 C14.0310653,8.81390359 13.174755,7.92826786 13.174755,6.83578082 C13.174755,5.74329378 14.0310653,4.85765805 15.0873775,4.85765805 Z" id="形状" fill="#03646B" fill-rule="nonzero"></path>
                        </g>
                    </g>
                </g>
            </g>
        </g>
    </g>
</svg>