<?xml version="1.0" encoding="UTF-8"?>
<svg width="12px" height="14px" viewBox="0 0 12 14" version="1.1" xmlns="http://www.w3.org/2000/svg" xmlns:xlink="http://www.w3.org/1999/xlink">
    <title>跌倒预警</title>
    <g id="页面-1" stroke="none" stroke-width="1" fill="none" fill-rule="evenodd">
        <g id="中心详情展示" transform="translate(-1754.000000, -667.000000)">
            <g id="编组-23备份-2" transform="translate(459.000000, 616.000000)">
                <g id="编组-23备份-20" transform="translate(1154.000000, 38.000000)">
                    <g id="编组-16" transform="translate(133.000000, 10.000000)">
                        <g id="跌倒预警" transform="translate(6.000000, 2.000000)">
                            <rect id="矩形" x="0" y="0" width="16" height="16"></rect>
                            <g id="编组" transform="translate(2.400000, 1.600000)" fill="#03646B">
                                <path d="M7.42957643,2.85019152 C8.16705726,2.01592299 9.39643455,3.09343158 8.79925401,3.99721542 C8.48312352,4.83148393 6.76210662,6.04806552 6.76210662,6.04806552 C6.76210662,6.04806552 7.25376764,6.49991508 7.78065891,6.77808225 C7.80875536,6.79197896 7.83755448,6.80613672 7.86707823,6.82067284 L8.05309187,6.91336821 C8.60576289,7.19418686 9.38053813,7.65215052 10.4852547,8.86356294 C11.2230138,9.66315851 11.2230138,10.4973847 10.8716102,10.8448554 C10.5907742,11.1230437 9.81804173,11.2271896 9.67750601,10.7057824 C9.466681,10.149681 8.97504138,9.62827379 8.58864304,9.31547604 C8.51841798,9.28082428 8.09674659,9.00263594 7.74566411,8.96777237 C7.92119465,9.1417301 8.307593,10.149681 8.37786086,10.4278482 C8.51839659,10.9490648 8.55339141,11.7137756 8.48312354,12.4091406 C8.37786086,13.5213009 6.65682255,13.382228 6.79712284,12.4784653 C6.76210662,12.2351617 6.76210662,10.3234481 6.23519396,9.73267384 C5.70828129,9.28082428 4.26831444,7.22997418 3.53061958,6.95180701 C2.79286051,6.67366102 2.65256022,6.95180701 1.63375108,7.99466384 C0.544909527,8.89844768 -0.333128419,7.71649667 0.123516379,7.1604165 C0.615177379,6.53482102 1.56346181,5.70057366 2.44173521,5.24868175 C2.82811216,5.07470283 2.9686479,5.07470283 3.39004104,5.04007226 C4.97077905,5.0051875 5.95405828,4.44908615 5.95405828,4.44908615 C5.95405828,4.44908617 6.83233168,3.68439651 7.42957643,2.85019152 Z M4.05746803,0 C5.21657746,0 6.16488329,0.973299149 6.16488329,2.12034424 C6.16488329,3.30201989 5.21657746,4.24047667 4.05746803,4.24047667 C2.86310698,4.24047667 1.91480114,3.30201989 1.91480114,2.12034424 C1.91480114,0.973299149 2.86310696,0 4.05746803,0 Z" id="形状结合"></path>
                                <polygon id="路径" points="6.30544041 13.0347361 0.40435239 13.069409 1.5284242 11.5053568 0.580139779 10.9490436 2.58227095 10.7057612 3.07391057 9.38494898"></polygon>
                            </g>
                        </g>
                    </g>
                </g>
            </g>
        </g>
    </g>
</svg>