<?xml version="1.0" encoding="UTF-8"?>
<svg width="18px" height="18px" viewBox="0 0 18 18" version="1.1" xmlns="http://www.w3.org/2000/svg" xmlns:xlink="http://www.w3.org/1999/xlink">
    <title>重点备份 5</title>
    <g id="页面-1" stroke="none" stroke-width="1" fill="none" fill-rule="evenodd">
        <g id="中心床位" transform="translate(-1078.000000, -520.000000)" fill-rule="nonzero">
            <g id="重点备份-5" transform="translate(1078.000000, 520.000000)">
                <path d="M9,0 C4.02943725,0 0,4.02943725 0,9 C0,13.9705627 4.02943725,18 9,18 C13.9705627,18 18,13.9705627 18,9 C18,6.61305159 17.0517884,4.32386638 15.363961,2.63603897 C13.6761336,0.948211563 11.3869484,0 9,0 Z" id="形状" fill="#EF6153"></path>
                <g id="编组" transform="translate(4.000000, 3.000000)" fill="#FFFFFF">
                    <path d="M7.74046627,8.16904761 C7.76362514,8.01507936 7.77597654,7.8563492 7.77597654,7.69603175 L7.77597654,5.23809524 C7.77597654,3.61904761 6.53852093,2.30714286 5.0123514,2.30714286 C3.48618186,2.30714286 2.24872626,3.61984127 2.24872626,5.23809524 L2.24872626,7.69603175 C2.24872626,7.85634921 2.26107766,8.01507937 2.28423653,8.16904761 L7.74046627,8.16904761 Z M0.866141733,10 L9.15778911,10 L9.15778911,8.53492064 L0.866913693,8.53492064 L0.866913693,10 L0.866141733,10 Z M4.61247491,0 L5.38443725,0 L5.38443725,1.58730159 L4.61247491,1.58730159 L4.61247491,0 Z M1.2930369,1.78571428 L1.83881427,1.22380952 L2.93114096,2.34603174 L2.38459163,2.90714285 L1.2930369,1.78571428 Z M8.82352942,1.7984127 L7.73197468,2.92063492 L7.18619731,2.35952381 L8.27775205,1.23650794 L8.82352942,1.7984127 Z M1.54392466,4.84126984 L1.54392466,5.63492063 L0,5.63492063 L0,4.84126984 L1.54392466,4.84126984 Z M10,4.84126984 L10,5.63492063 L8.45607535,5.63492063 L8.45607535,4.84126984 L10,4.84126984 Z" id="形状"></path>
                </g>
            </g>
        </g>
    </g>
</svg>