<?xml version="1.0" encoding="UTF-8"?>
<svg width="38px" height="38px" viewBox="0 0 38 38" version="1.1" xmlns="http://www.w3.org/2000/svg" xmlns:xlink="http://www.w3.org/1999/xlink">
    <title>雷达</title>
    <defs>
        <linearGradient x1="50%" y1="0%" x2="50%" y2="100%" id="linearGradient-1">
            <stop stop-color="#079DA4" offset="0%"></stop>
            <stop stop-color="#03646B" offset="100%"></stop>
        </linearGradient>
        <path d="M11.1244179,13.5714289 L15.2052756,14.9285717 L15.2052756,19 L1.60241675,19 L1.60241675,14.9285717 L5.6832744,13.5714289 L11.1244179,13.5714289 L11.1244179,13.5714289 Z M7.04356028,16.2857145 L2.96270263,16.2857145 L2.96270263,17.6428572 L7.04356028,17.6428572 L7.04356028,16.2857145 L7.04356028,16.2857145 Z M8.40384615,8.14285567 C9.64306659,8.14285567 10.7544202,8.69385786 11.5025774,9.56514351 L9.95185148,10.8883577 C9.56476281,10.436422 8.99869682,10.176305 8.40285239,10.1765661 C7.80700795,10.1768271 7.24117119,10.4374401 6.85448054,10.8897149 L5.30511491,9.56514351 C6.07958963,8.66141122 7.21207057,8.14161417 8.40384615,8.14285567 Z M8.40384615,4.07142878 C10.8414784,4.07142878 12.9798478,5.35121522 14.1809803,7.27428652 L12.6057692,8.62192928 C11.7786841,7.07299564 10.1629343,6.10527657 8.40384615,6.10527657 C6.64475801,6.10527657 5.02900821,7.07299564 4.20192307,8.62192928 L2.62671203,7.27428652 C3.86755477,5.28162205 6.05250302,4.07028154 8.40384615,4.07142878 L8.40384615,4.07142878 Z M8.40384615,6.57949366e-07 C12.0426109,6.57949366e-07 15.2052756,2.03571547 16.8076923,5.02821526 L15.2093564,6.39485802 C13.9926011,3.73661773 11.3329251,2.03127756 8.40384615,2.03127756 C5.47476721,2.03127756 2.81509126,3.73661773 1.59833591,6.39485802 L0,5.02821526 C1.65531157,1.93210316 4.88668568,-0.00130209907 8.40384615,6.57949366e-07 Z" id="path-2"></path>
        <filter x="-32.7%" y="-18.4%" width="165.4%" height="157.9%" filterUnits="objectBoundingBox" id="filter-3">
            <feOffset dx="0" dy="2" in="SourceAlpha" result="shadowOffsetOuter1"></feOffset>
            <feGaussianBlur stdDeviation="1.5" in="shadowOffsetOuter1" result="shadowBlurOuter1"></feGaussianBlur>
            <feColorMatrix values="0 0 0 0 0.541176471   0 0 0 0 0.749019608   0 0 0 0 0.780392157  0 0 0 1 0" type="matrix" in="shadowBlurOuter1"></feColorMatrix>
        </filter>
    </defs>
    <g id="页面-1" stroke="none" stroke-width="1" fill="none" fill-rule="evenodd">
        <g id="地图模式-确认稿切图2" transform="translate(-34.000000, -420.000000)">
            <g id="编组-12" transform="translate(35.000000, 420.808511)">
                <g id="编组-33">
                    <path d="M1.02757072,21.602 L1.02782225,35.5679413 L14.6215707,35.567 L14.6215707,36.382 L0.178570717,36.3829787 L0.178570717,21.602 L1.02757072,21.602 Z M36.2875707,21.602 L36.2881071,36.3829787 L21.8435707,36.382 L21.8435707,35.567 L35.4547353,35.5679413 L35.4545707,21.602 L36.2875707,21.602 Z M14.6215707,1.83834035e-12 L14.6215707,0.906 L1.02782225,0.906582076 L1.02757072,14.325 L0.178570717,14.325 L0.178570717,1.83834035e-12 L14.6215707,1.83834035e-12 Z M36.2881071,1.83834035e-12 L36.2875707,14.325 L35.4545707,14.325 L35.4547353,0.906582076 L21.8435707,0.906 L21.8435707,1.83834035e-12 L36.2881071,1.83834035e-12 Z" id="形状结合" fill="#8CC1C9"></path>
                    <rect id="矩形备份-54" fill="#237784" x="0.178570717" y="1.83834035e-12" width="1.35410761" height="1"></rect>
                    <path d="M36.2881071,36.3829787 L34.1254888,36.3829787 L34.1254888,35.5679413 L35.4544888,35.5671064 L35.4547353,34.2101064 L36.2881071,34.2101064 L36.2881071,36.3829787 Z" id="形状结合" fill="#237784"></path>
                    <path d="M2.33066026,36.3829787 L0.168042004,36.3829787 L0.168042004,35.5679413 L1.497042,35.5671064 L1.49728844,34.2101064 L2.33066026,34.2101064 L2.33066026,36.3829787 Z" id="形状结合备份-2" fill="#237784" transform="translate(1.249351, 35.296543) scale(-1, 1) translate(-1.249351, -35.296543) "></path>
                    <path d="M36.2909298,2.17597555 L34.1283115,2.17597555 L34.1283115,1.36093811 L35.4573115,1.36010321 L35.457558,0.00310321192 L36.2909298,0.00310321192 L36.2909298,2.17597555 Z" id="形状结合备份" fill="#237784" transform="translate(35.209621, 1.089539) scale(1, -1) translate(-35.209621, -1.089539) "></path>
                    <path d="M2.33348296,2.17597555 L0.170864708,2.17597555 L0.170864708,1.36093811 L1.49986471,1.36010321 L1.50011115,0.00310321192 L2.33348296,0.00310321192 L2.33348296,2.17597555 Z" id="形状结合备份-3" fill="#237784" transform="translate(1.252174, 1.089539) scale(-1, -1) translate(-1.252174, -1.089539) "></path>
                    <polygon id="矩形备份-59" fill="#237784" transform="translate(0.404255, 35.700798) rotate(-90.000000) translate(-0.404255, -35.700798) " points="-0.277925532 35.4751133 1.08643617 35.4751133 1.08643617 35.9264825 -0.277925532 35.9264825"></polygon>
                    <polygon id="矩形备份-60" fill="#237784" transform="translate(0.404255, 0.682181) rotate(-90.000000) translate(-0.404255, -0.682181) " points="-0.277925532 0.456496249 1.08643617 0.456496249 1.08643617 0.907865453 -0.277925532 0.907865453"></polygon>
                    <rect id="矩形备份-63" fill="#237784" transform="translate(0.855625, 36.155585) rotate(-180.000000) translate(-0.855625, -36.155585) " x="0.178570717" y="35.9281915" width="1.35410761" height="1"></rect>
                </g>
                <g id="雷达" transform="translate(10.230769, 8.691489)" fill-rule="nonzero">
                    <g id="形状">
                        <use fill="black" fill-opacity="1" filter="url(#filter-3)" xlink:href="#path-2"></use>
                        <use fill="url(#linearGradient-1)" xlink:href="#path-2"></use>
                    </g>
                </g>
            </g>
        </g>
    </g>
</svg>