<?xml version="1.0" encoding="utf-8"?>
<svg version="1.1" xmlns:xlink="http://www.w3.org/1999/xlink" width="12px" height="12px" viewBox="456 1294  12 12" xmlns="http://www.w3.org/2000/svg">
  <path d="M 462 1294  C 465.36 1294  468 1296.64  468 1300  C 468 1303.36  465.36 1306  462 1306  C 458.64 1306  456 1303.36  456 1300  C 456 1296.64  458.64 1294  462 1294  Z " fill-rule="nonzero" fill="#f0f0f0" stroke="none" />
  <path d="M 462 1294.5  C 465.08 1294.5  467.5 1296.92  467.5 1300  C 467.5 1303.08  465.08 1305.5  462 1305.5  C 458.92 1305.5  456.5 1303.08  456.5 1300  C 456.5 1296.92  458.92 1294.5  462 1294.5  Z " stroke-width="1" stroke="#797979" fill="none" />
  <path d="M 462 1303  C 460.32 1303  459 1301.68  459 1300  C 459 1298.32  460.32 1297  462 1297  C 463.68 1297  465 1298.32  465 1300  C 465 1301.68  463.68 1303  462 1303  " fill-rule="nonzero" fill="#797979" stroke="none" />
</svg>