<?xml version="1.0" encoding="utf-8"?>
<svg version="1.1" xmlns:xlink="http://www.w3.org/1999/xlink" width="104px" height="104px" xmlns="http://www.w3.org/2000/svg">
  <g transform="matrix(1 0 0 1 -1097 -1011 )">
    <path d="M 1098 1015  A 3 3 0 0 1 1101 1012 L 1197 1012  A 3 3 0 0 1 1200 1015 L 1200 1111  A 3 3 0 0 1 1197 1114 L 1101 1114  A 3 3 0 0 1 1098 1111 L 1098 1015  Z " fill-rule="nonzero" fill="#ffffff" stroke="none" />
    <path d="M 1097.5 1015  A 3.5 3.5 0 0 1 1101 1011.5 L 1197 1011.5  A 3.5 3.5 0 0 1 1200.5 1015 L 1200.5 1111  A 3.5 3.5 0 0 1 1197 1114.5 L 1101 1114.5  A 3.5 3.5 0 0 1 1097.5 1111 L 1097.5 1015  Z " stroke-width="1" stroke-dasharray="9,4" stroke="#d9d9d9" fill="none" stroke-dashoffset="0.5" />
  </g>
</svg>