<?xml version="1.0" encoding="utf-8"?>
<svg version="1.1" xmlns:xlink="http://www.w3.org/1999/xlink" width="12px" height="12px" viewBox="336 1294  12 12" xmlns="http://www.w3.org/2000/svg">
  <path d="M 342 1294  C 345.36 1294  348 1296.64  348 1300  C 348 1303.36  345.36 1306  342 1306  C 338.64 1306  336 1303.36  336 1300  C 336 1296.64  338.64 1294  342 1294  Z " fill-rule="nonzero" fill="#ffffff" stroke="none" />
  <path d="M 342 1294.5  C 345.08 1294.5  347.5 1296.92  347.5 1300  C 347.5 1303.08  345.08 1305.5  342 1305.5  C 338.92 1305.5  336.5 1303.08  336.5 1300  C 336.5 1296.92  338.92 1294.5  342 1294.5  Z " stroke-width="1" stroke="#797979" fill="none" />
  <path d="M 342 1303  C 340.32 1303  339 1301.68  339 1300  C 339 1298.32  340.32 1297  342 1297  C 343.68 1297  345 1298.32  345 1300  C 345 1301.68  343.68 1303  342 1303  " fill-rule="nonzero" fill="#797979" stroke="none" />
</svg>