<?xml version="1.0" encoding="utf-8"?>
<svg version="1.1" xmlns:xlink="http://www.w3.org/1999/xlink" width="104px" height="104px" xmlns="http://www.w3.org/2000/svg">
  <g transform="matrix(1 0 0 1 -977 -1011 )">
    <path d="M 978 1015  A 3 3 0 0 1 981 1012 L 1077 1012  A 3 3 0 0 1 1080 1015 L 1080 1111  A 3 3 0 0 1 1077 1114 L 981 1114  A 3 3 0 0 1 978 1111 L 978 1015  Z " fill-rule="nonzero" fill="#000000" stroke="none" fill-opacity="0.0196078431372549" />
    <path d="M 977.5 1015  A 3.5 3.5 0 0 1 981 1011.5 L 1077 1011.5  A 3.5 3.5 0 0 1 1080.5 1015 L 1080.5 1111  A 3.5 3.5 0 0 1 1077 1114.5 L 981 1114.5  A 3.5 3.5 0 0 1 977.5 1111 L 977.5 1015  Z " stroke-width="1" stroke-dasharray="9,4" stroke="#d9d9d9" fill="none" stroke-dashoffset="0.5" />
  </g>
</svg>