<?xml version="1.0" encoding="utf-8"?>
<svg version="1.1" xmlns:xlink="http://www.w3.org/1999/xlink" width="12px" height="12px" viewBox="456 1343  12 12" xmlns="http://www.w3.org/2000/svg">
  <path d="M 462 1343  C 465.36 1343  468 1345.64  468 1349  C 468 1352.36  465.36 1355  462 1355  C 458.64 1355  456 1352.36  456 1349  C 456 1345.64  458.64 1343  462 1343  Z " fill-rule="nonzero" fill="#ffffff" stroke="none" />
  <path d="M 462 1343.5  C 465.08 1343.5  467.5 1345.92  467.5 1349  C 467.5 1352.08  465.08 1354.5  462 1354.5  C 458.92 1354.5  456.5 1352.08  456.5 1349  C 456.5 1345.92  458.92 1343.5  462 1343.5  Z " stroke-width="1" stroke="#797979" fill="none" />
  <path d="M 462 1352  C 460.32 1352  459 1350.68  459 1349  C 459 1347.32  460.32 1346  462 1346  C 463.68 1346  465 1347.32  465 1349  C 465 1350.68  463.68 1352  462 1352  " fill-rule="nonzero" fill="#797979" stroke="none" />
</svg>