<?xml version="1.0" encoding="utf-8"?>
<svg version="1.1" xmlns:xlink="http://www.w3.org/1999/xlink" width="12px" height="12px" viewBox="456 1382  12 12" xmlns="http://www.w3.org/2000/svg">
  <path d="M 462 1382  C 465.36 1382  468 1384.64  468 1388  C 468 1391.36  465.36 1394  462 1394  C 458.64 1394  456 1391.36  456 1388  C 456 1384.64  458.64 1382  462 1382  Z " fill-rule="nonzero" fill="#ffffff" stroke="none" />
  <path d="M 462 1382.5  C 465.08 1382.5  467.5 1384.92  467.5 1388  C 467.5 1391.08  465.08 1393.5  462 1393.5  C 458.92 1393.5  456.5 1391.08  456.5 1388  C 456.5 1384.92  458.92 1382.5  462 1382.5  Z " stroke-width="1" stroke="#797979" fill="none" />
  <path d="M 462 1391  C 460.32 1391  459 1389.68  459 1388  C 459 1386.32  460.32 1385  462 1385  C 463.68 1385  465 1386.32  465 1388  C 465 1389.68  463.68 1391  462 1391  " fill-rule="nonzero" fill="#797979" stroke="none" />
</svg>