<?xml version="1.0" encoding="utf-8"?>
<svg version="1.1" xmlns:xlink="http://www.w3.org/1999/xlink" width="12px" height="12px" viewBox="336 1343  12 12" xmlns="http://www.w3.org/2000/svg">
  <path d="M 342 1343  C 345.36 1343  348 1345.64  348 1349  C 348 1352.36  345.36 1355  342 1355  C 338.64 1355  336 1352.36  336 1349  C 336 1345.64  338.64 1343  342 1343  Z " fill-rule="nonzero" fill="#ffffff" stroke="none" />
  <path d="M 342 1343.5  C 345.08 1343.5  347.5 1345.92  347.5 1349  C 347.5 1352.08  345.08 1354.5  342 1354.5  C 338.92 1354.5  336.5 1352.08  336.5 1349  C 336.5 1345.92  338.92 1343.5  342 1343.5  Z " stroke-width="1" stroke="#797979" fill="none" />
  <path d="M 342 1352  C 340.32 1352  339 1350.68  339 1349  C 339 1347.32  340.32 1346  342 1346  C 343.68 1346  345 1347.32  345 1349  C 345 1350.68  343.68 1352  342 1352  " fill-rule="nonzero" fill="#797979" stroke="none" />
</svg>