<?xml version="1.0" encoding="utf-8"?>
<svg version="1.1" xmlns:xlink="http://www.w3.org/1999/xlink" width="12px" height="12px" viewBox="336 1266  12 12" xmlns="http://www.w3.org/2000/svg">
  <path d="M 342 1266  C 345.36 1266  348 1268.64  348 1272  C 348 1275.36  345.36 1278  342 1278  C 338.64 1278  336 1275.36  336 1272  C 336 1268.64  338.64 1266  342 1266  Z " fill-rule="nonzero" fill="#f0f0f0" stroke="none" />
  <path d="M 342 1266.5  C 345.08 1266.5  347.5 1268.92  347.5 1272  C 347.5 1275.08  345.08 1277.5  342 1277.5  C 338.92 1277.5  336.5 1275.08  336.5 1272  C 336.5 1268.92  338.92 1266.5  342 1266.5  Z " stroke-width="1" stroke="#797979" fill="none" />
  <path d="M 342 1275  C 340.32 1275  339 1273.68  339 1272  C 339 1270.32  340.32 1269  342 1269  C 343.68 1269  345 1270.32  345 1272  C 345 1273.68  343.68 1275  342 1275  " fill-rule="nonzero" fill="#797979" stroke="none" />
</svg>