<?xml version="1.0" encoding="utf-8"?>
<svg version="1.1" xmlns:xlink="http://www.w3.org/1999/xlink" width="12px" height="12px" viewBox="1510 4275  12 12" xmlns="http://www.w3.org/2000/svg">
  <path d="M 1516 4275  C 1519.36 4275  1522 4277.64  1522 4281  C 1522 4284.36  1519.36 4287  1516 4287  C 1512.64 4287  1510 4284.36  1510 4281  C 1510 4277.64  1512.64 4275  1516 4275  Z " fill-rule="nonzero" fill="#f0f0f0" stroke="none" />
  <path d="M 1516 4275.5  C 1519.08 4275.5  1521.5 4277.92  1521.5 4281  C 1521.5 4284.08  1519.08 4286.5  1516 4286.5  C 1512.92 4286.5  1510.5 4284.08  1510.5 4281  C 1510.5 4277.92  1512.92 4275.5  1516 4275.5  Z " stroke-width="1" stroke="#797979" fill="none" />
  <path d="M 1516 4284  C 1514.32 4284  1513 4282.68  1513 4281  C 1513 4279.32  1514.32 4278  1516 4278  C 1517.68 4278  1519 4279.32  1519 4281  C 1519 4282.68  1517.68 4284  1516 4284  " fill-rule="nonzero" fill="#797979" stroke="none" />
</svg>