<?xml version="1.0" encoding="utf-8"?>
<svg version="1.1" xmlns:xlink="http://www.w3.org/1999/xlink" width="12px" height="12px" viewBox="1972 4275  12 12" xmlns="http://www.w3.org/2000/svg">
  <path d="M 1978 4275  C 1981.36 4275  1984 4277.64  1984 4281  C 1984 4284.36  1981.36 4287  1978 4287  C 1974.64 4287  1972 4284.36  1972 4281  C 1972 4277.64  1974.64 4275  1978 4275  Z " fill-rule="nonzero" fill="#f0f0f0" stroke="none" />
  <path d="M 1978 4275.5  C 1981.08 4275.5  1983.5 4277.92  1983.5 4281  C 1983.5 4284.08  1981.08 4286.5  1978 4286.5  C 1974.92 4286.5  1972.5 4284.08  1972.5 4281  C 1972.5 4277.92  1974.92 4275.5  1978 4275.5  Z " stroke-width="1" stroke="#797979" fill="none" />
  <path d="M 1978 4284  C 1976.32 4284  1975 4282.68  1975 4281  C 1975 4279.32  1976.32 4278  1978 4278  C 1979.68 4278  1981 4279.32  1981 4281  C 1981 4282.68  1979.68 4284  1978 4284  " fill-rule="nonzero" fill="#797979" stroke="none" />
</svg>