<?xml version="1.0" encoding="utf-8"?>
<svg version="1.1" xmlns:xlink="http://www.w3.org/1999/xlink" width="25px" height="25px" xmlns="http://www.w3.org/2000/svg">
  <defs>
    <filter x="1373px" y="112px" width="25px" height="25px" filterUnits="userSpaceOnUse" id="filter181">
      <feOffset dx="1" dy="1" in="SourceAlpha" result="shadowOffsetInner" />
      <feGaussianBlur stdDeviation="2.5" in="shadowOffsetInner" result="shadowGaussian" />
      <feComposite in2="shadowGaussian" operator="atop" in="SourceAlpha" result="shadowComposite" />
      <feColorMatrix type="matrix" values="0 0 0 0 0  0 0 0 0 0  0 0 0 0 0  0 0 0 0.698039215686274 0  " in="shadowComposite" />
    </filter>
    <g id="widget182">
      <path d="M 1384.5 116  C 1388.7 116  1392 119.3  1392 123.5  C 1392 127.7  1388.7 131  1384.5 131  C 1380.3 131  1377 127.7  1377 123.5  C 1377 119.3  1380.3 116  1384.5 116  Z " fill-rule="nonzero" fill="#009dd9" stroke="none" />
      <path d="M 1384.5 116.5  C 1388.42 116.5  1391.5 119.58  1391.5 123.5  C 1391.5 127.42  1388.42 130.5  1384.5 130.5  C 1380.58 130.5  1377.5 127.42  1377.5 123.5  C 1377.5 119.58  1380.58 116.5  1384.5 116.5  Z " stroke-width="1" stroke="#ffffff" fill="none" />
    </g>
  </defs>
  <g transform="matrix(1 0 0 1 -1373 -112 )">
    <use xlink:href="#widget182" filter="url(#filter181)" />
    <use xlink:href="#widget182" />
  </g>
</svg>