<?xml version="1.0" encoding="utf-8"?>
<svg version="1.1" xmlns:xlink="http://www.w3.org/1999/xlink" width="12px" height="12px" viewBox="1510 3659  12 12" xmlns="http://www.w3.org/2000/svg">
  <path d="M 1516 3659  C 1519.36 3659  1522 3661.64  1522 3665  C 1522 3668.36  1519.36 3671  1516 3671  C 1512.64 3671  1510 3668.36  1510 3665  C 1510 3661.64  1512.64 3659  1516 3659  Z " fill-rule="nonzero" fill="#f0f0f0" stroke="none" />
  <path d="M 1516 3659.5  C 1519.08 3659.5  1521.5 3661.92  1521.5 3665  C 1521.5 3668.08  1519.08 3670.5  1516 3670.5  C 1512.92 3670.5  1510.5 3668.08  1510.5 3665  C 1510.5 3661.92  1512.92 3659.5  1516 3659.5  Z " stroke-width="1" stroke="#797979" fill="none" />
  <path d="M 1516 3668  C 1514.32 3668  1513 3666.68  1513 3665  C 1513 3663.32  1514.32 3662  1516 3662  C 1517.68 3662  1519 3663.32  1519 3665  C 1519 3666.68  1517.68 3668  1516 3668  " fill-rule="nonzero" fill="#797979" stroke="none" />
</svg>