<?xml version="1.0" encoding="utf-8"?>
<svg version="1.1" xmlns:xlink="http://www.w3.org/1999/xlink" width="12px" height="12px" viewBox="1972 3659  12 12" xmlns="http://www.w3.org/2000/svg">
  <path d="M 1978 3659  C 1981.36 3659  1984 3661.64  1984 3665  C 1984 3668.36  1981.36 3671  1978 3671  C 1974.64 3671  1972 3668.36  1972 3665  C 1972 3661.64  1974.64 3659  1978 3659  Z " fill-rule="nonzero" fill="#f0f0f0" stroke="none" />
  <path d="M 1978 3659.5  C 1981.08 3659.5  1983.5 3661.92  1983.5 3665  C 1983.5 3668.08  1981.08 3670.5  1978 3670.5  C 1974.92 3670.5  1972.5 3668.08  1972.5 3665  C 1972.5 3661.92  1974.92 3659.5  1978 3659.5  Z " stroke-width="1" stroke="#797979" fill="none" />
  <path d="M 1978 3668  C 1976.32 3668  1975 3666.68  1975 3665  C 1975 3663.32  1976.32 3662  1978 3662  C 1979.68 3662  1981 3663.32  1981 3665  C 1981 3666.68  1979.68 3668  1978 3668  " fill-rule="nonzero" fill="#797979" stroke="none" />
</svg>