<?xml version="1.0" encoding="utf-8"?>
<svg version="1.1" xmlns:xlink="http://www.w3.org/1999/xlink" width="12px" height="12px" viewBox="1151 5630.5  12 12" xmlns="http://www.w3.org/2000/svg">
  <path d="M 1157 5630.5  C 1160.36 5630.5  1163 5633.14  1163 5636.5  C 1163 5639.86  1160.36 5642.5  1157 5642.5  C 1153.64 5642.5  1151 5639.86  1151 5636.5  C 1151 5633.14  1153.64 5630.5  1157 5630.5  Z " fill-rule="nonzero" fill="#ffffff" stroke="none" />
  <path d="M 1157 5631  C 1160.08 5631  1162.5 5633.42  1162.5 5636.5  C 1162.5 5639.58  1160.08 5642  1157 5642  C 1153.92 5642  1151.5 5639.58  1151.5 5636.5  C 1151.5 5633.42  1153.92 5631  1157 5631  Z " stroke-width="1" stroke="#797979" fill="none" />
  <path d="M 1157 5639.5  C 1155.32 5639.5  1154 5638.18  1154 5636.5  C 1154 5634.82  1155.32 5633.5  1157 5633.5  C 1158.68 5633.5  1160 5634.82  1160 5636.5  C 1160 5638.18  1158.68 5639.5  1157 5639.5  " fill-rule="nonzero" fill="#797979" stroke="none" />
</svg>