<?xml version="1.0" encoding="utf-8"?>
<svg version="1.1" xmlns:xlink="http://www.w3.org/1999/xlink" width="8px" height="8px" xmlns="http://www.w3.org/2000/svg">
  <g transform="matrix(1 0 0 1 -331 -5143 )">
    <path d="M 335 5143.5  C 336.96 5143.5  338.5 5145.04  338.5 5147  C 338.5 5148.96  336.96 5150.5  335 5150.5  C 333.04 5150.5  331.5 5148.96  331.5 5147  C 331.5 5145.04  333.04 5143.5  335 5143.5  Z " fill-rule="nonzero" fill="#ffffff" stroke="none" />
    <path d="M 335 5143.5  C 336.96 5143.5  338.5 5145.04  338.5 5147  C 338.5 5148.96  336.96 5150.5  335 5150.5  C 333.04 5150.5  331.5 5148.96  331.5 5147  C 331.5 5145.04  333.04 5143.5  335 5143.5  Z " stroke-width="1" stroke-dasharray="3,1" stroke="#6a708c" fill="none" stroke-dashoffset="0.5" />
  </g>
</svg>