<?xml version="1.0" encoding="utf-8"?>
<svg version="1.1" xmlns:xlink="http://www.w3.org/1999/xlink" width="50px" height="36px" xmlns="http://www.w3.org/2000/svg">
  <g transform="matrix(1 0 0 1 -1270 -4634 )">
    <path d="M 48.9118303571429 1.040625  C 49.6372767857143 1.359375  50 1.9125  50 2.7  L 50 33.3  C 50 34.0875  49.6372767857143 34.640625  48.9118303571429 34.959375  C 48.6700148809524 35.053125  48.4375 35.1  48.2142857142857 35.1  C 47.7120535714286 35.1  47.2935267857143 34.921875  46.9587053571429 34.565625  L 35.7142857142857 23.23125  L 35.7142857142857 27.9  C 35.7142857142857 30.13125  34.9283854166667 32.0390625  33.3565848214286 33.6234375  C 31.7847842261905 35.2078125  29.8921130952381 36  27.6785714285714 36  L 8.03571428571429 36  C 5.82217261904762 36  3.92950148809524 35.2078125  2.35770089285714 33.6234375  C 0.785900297619048 32.0390625  0 30.13125  0 27.9  L 0 8.1  C 0 5.86874999999999  0.785900297619048 3.9609375  2.35770089285714 2.3765625  C 3.92950148809524 0.792187499999995  5.82217261904762 0  8.03571428571429 0  L 27.6785714285714 0  C 29.8921130952381 0  31.7847842261905 0.792187499999995  33.3565848214286 2.3765625  C 34.9283854166667 3.9609375  35.7142857142857 5.86874999999999  35.7142857142857 8.1  L 35.7142857142857 12.740625  L 46.9587053571429 1.434375  C 47.2935267857143 1.078125  47.7120535714286 0.900000000000001  48.2142857142857 0.900000000000001  C 48.4375 0.900000000000001  48.6700148809524 0.946874999999994  48.9118303571429 1.040625  Z " fill-rule="nonzero" fill="#000000" stroke="none" transform="matrix(1 0 0 1 1270 4634 )" />
  </g>
</svg>