<?xml version="1.0" encoding="utf-8"?>
<svg version="1.1" xmlns:xlink="http://www.w3.org/1999/xlink" width="803px" height="59px" xmlns="http://www.w3.org/2000/svg">
  <g transform="matrix(1 0 0 1 -436 -4281 )">
    <path d="M 0 32.9160305343512  L 35.6666666666667 36.763358778626  L 69.6666666666667 40.1832061068702  L 105 37.6183206106871  L 139.666666666667 41.7506361323155  L 174 27.3587786259542  L 208 26.2188295165395  L 244 15.5318066157761  L 279 7.83715012722647  L 312.666666666667 0  L 348 0.569974554707377  L 382 5.4147582697201  L 417.333333333333 13.821882951654  L 452 10.8295165394402  L 486.666666666667 14.3918575063613  L 520.666666666667 9.5470737913486  C 520.666666666667 9.5470737913486  555.427764368148 15.5060764461381  555.666666666667 15.5318066157761  C 556.635776687126 15.6361813554873  591 21.8015267175573  591 21.8015267175573  L 626 16.8142493638677  L 660 14.3918575063613  L 694.333333333333 25.0788804071247  L 729.666666666667 28.0712468193384  L 764 43.0330788804071  L 800 56  " stroke-width="2" stroke="#3399cc" fill="none" transform="matrix(1 0 0 1 437 4282 )" />
  </g>
</svg>