<?xml version="1.0" encoding="utf-8"?>
<svg version="1.1" xmlns:xlink="http://www.w3.org/1999/xlink" width="12px" height="12px" viewBox="981 5642.5  12 12" xmlns="http://www.w3.org/2000/svg">
  <path d="M 987 5642.5  C 990.36 5642.5  993 5645.14  993 5648.5  C 993 5651.86  990.36 5654.5  987 5654.5  C 983.64 5654.5  981 5651.86  981 5648.5  C 981 5645.14  983.64 5642.5  987 5642.5  Z " fill-rule="nonzero" fill="#f0f0f0" stroke="none" />
  <path d="M 987 5643  C 990.08 5643  992.5 5645.42  992.5 5648.5  C 992.5 5651.58  990.08 5654  987 5654  C 983.92 5654  981.5 5651.58  981.5 5648.5  C 981.5 5645.42  983.92 5643  987 5643  Z " stroke-width="1" stroke="#797979" fill="none" />
  <path d="M 987 5651.5  C 985.32 5651.5  984 5650.18  984 5648.5  C 984 5646.82  985.32 5645.5  987 5645.5  C 988.68 5645.5  990 5646.82  990 5648.5  C 990 5650.18  988.68 5651.5  987 5651.5  " fill-rule="nonzero" fill="#797979" stroke="none" />
</svg>