<?xml version="1.0" encoding="utf-8"?>
<svg version="1.1" xmlns:xlink="http://www.w3.org/1999/xlink" width="12px" height="12px" viewBox="1075 5642.5  12 12" xmlns="http://www.w3.org/2000/svg">
  <path d="M 1081 5642.5  C 1084.36 5642.5  1087 5645.14  1087 5648.5  C 1087 5651.86  1084.36 5654.5  1081 5654.5  C 1077.64 5654.5  1075 5651.86  1075 5648.5  C 1075 5645.14  1077.64 5642.5  1081 5642.5  Z " fill-rule="nonzero" fill="#ffffff" stroke="none" />
  <path d="M 1081 5643  C 1084.08 5643  1086.5 5645.42  1086.5 5648.5  C 1086.5 5651.58  1084.08 5654  1081 5654  C 1077.92 5654  1075.5 5651.58  1075.5 5648.5  C 1075.5 5645.42  1077.92 5643  1081 5643  Z " stroke-width="1" stroke="#797979" fill="none" />
  <path d="M 1081 5651.5  C 1079.32 5651.5  1078 5650.18  1078 5648.5  C 1078 5646.82  1079.32 5645.5  1081 5645.5  C 1082.68 5645.5  1084 5646.82  1084 5648.5  C 1084 5650.18  1082.68 5651.5  1081 5651.5  " fill-rule="nonzero" fill="#797979" stroke="none" />
</svg>