<?xml version="1.0" encoding="utf-8"?>
<svg version="1.1" xmlns:xlink="http://www.w3.org/1999/xlink" width="8px" height="12px" xmlns="http://www.w3.org/2000/svg">
  <g transform="matrix(1 0 0 1 -832 -674 )">
    <path d="M 8 6  C 8 6.12903225806452  7.95109395109395 6.24069478908189  7.85328185328185 6.33498759305211  L 2.12355212355212 11.8585607940447  C 2.02574002574003 11.9528535980149  1.90990990990991 12  1.77606177606178 12  C 1.64221364221364 12  1.52638352638353 11.9528535980149  1.42857142857143 11.8585607940447  L 0.146718146718147 10.6228287841191  C 0.048906048906049 10.5285359801489  0 10.4168734491315  0 10.287841191067  C 0 10.1588089330025  0.048906048906049 10.0471464019851  0.146718146718147 9.95285359801489  L 4.24710424710425 6  L 0.146718146718147 2.04714640198511  C 0.048906048906049 1.95285359801489  0 1.84119106699752  0 1.712158808933  C 0 1.58312655086848  0.048906048906049 1.47146401985112  0.146718146718147 1.37717121588089  L 1.42857142857143 0.141439205955335  C 1.52638352638353 0.0471464019851111  1.64221364221364 0  1.77606177606178 0  C 1.90990990990991 0  2.02574002574003 0.0471464019851111  2.12355212355212 0.141439205955335  L 7.85328185328185 5.66501240694789  C 7.95109395109395 5.75930521091811  8 5.87096774193548  8 6  Z " fill-rule="nonzero" fill="#000000" stroke="none" transform="matrix(1 0 0 1 832 674 )" />
  </g>
</svg>