<?xml version="1.0" encoding="utf-8"?>
<svg version="1.1" xmlns:xlink="http://www.w3.org/1999/xlink" width="13px" height="10px" xmlns="http://www.w3.org/2000/svg">
  <g transform="matrix(1 0 0 1 -2429 -4580 )">
    <path d="M 7.35531309179687 4.96066743088942  L 12.5191660078125 1.00903741135817  C 12.7633404628906 0.8221456640625  12.7645746279297 0.519300993088942  12.5216153378906 0.331474489182693  C 12.2781054375 0.143224424579327  11.8850909013672 0.142698627554087  11.6409164462891 0.329590389122597  L 6.47573445800781 4.28164396935096  L 1.35553294726563 0.331036327373798  C 1.11316226757813 0.144159181189904  0.71891356640625 0.143209823467548  0.474739129882813 0.330086969651442  C 0.23113428515625 0.516964115835336  0.230545693359375 0.820246948617789  0.47350496484375 1.00807345252404  L 5.59247231054687 4.95773173677885  L 0.431106706054687 8.90695185922476  C 0.18691326953125 9.09384360652043  0.1856980859375 9.39665907527043  0.42861939453125 9.58451478140024  C 0.550080048828125 9.67845723557692  0.710141522460937 9.7258228140024  0.87020299609375 9.7258228140024  C 1.0290493046875 9.7258228140024  1.18795255761719 9.67940659329928  1.30943219335937 9.58639888146034  L 6.47203194433594 5.63622940129207  L 11.6390177265625 9.62281034329928  C 11.7604783808594 9.71676741286058  11.9199892255859 9.76370943058894  12.0800317177734 9.76370943058894  C 12.2395045996094 9.76370943058894  12.3983508896484 9.71676741286058  12.5198115439453 9.62375970102164  C 12.7633214443359 9.43688255483774  12.7639859990234 9.13412551908053  12.5210457089844 8.94629901517428  L 7.35531309179687 4.96066743088942  Z " fill-rule="nonzero" fill="#c9c9c9" stroke="none" transform="matrix(1 0 0 1 2429 4580 )" />
  </g>
</svg>