<?xml version="1.0" encoding="utf-8"?>
<svg version="1.1" xmlns:xlink="http://www.w3.org/1999/xlink" width="108px" height="48px" xmlns="http://www.w3.org/2000/svg">
  <g transform="matrix(1 0 0 1 -375 -1611 )">
    <path d="M 429 1611  C 459.24 1611  483 1621.56  483 1635  C 483 1648.44  459.24 1659  429 1659  C 398.76 1659  375 1648.44  375 1635  C 375 1621.56  398.76 1611  429 1611  Z " fill-rule="nonzero" fill="#ffffff" stroke="none" />
    <path d="M 429 1611.5  C 458.96 1611.5  482.5 1621.84  482.5 1635  C 482.5 1648.16  458.96 1658.5  429 1658.5  C 399.04 1658.5  375.5 1648.16  375.5 1635  C 375.5 1621.84  399.04 1611.5  429 1611.5  Z " stroke-width="1" stroke="#797979" fill="none" />
  </g>
</svg>