<?xml version="1.0" encoding="utf-8"?>
<svg version="1.1" xmlns:xlink="http://www.w3.org/1999/xlink" width="98px" height="98px" xmlns="http://www.w3.org/2000/svg">
  <g transform="matrix(1 0 0 1 -1062 -1770 )">
    <path d="M 1111 1774.5  C 1135.92 1774.5  1155.5 1794.08  1155.5 1819  C 1155.5 1843.92  1135.92 1863.5  1111 1863.5  C 1086.08 1863.5  1066.5 1843.92  1066.5 1819  C 1066.5 1794.08  1086.08 1774.5  1111 1774.5  Z " fill-rule="nonzero" fill="#ffffff" stroke="none" />
    <path d="M 1111 1772.5  C 1137.04 1772.5  1157.5 1792.96  1157.5 1819  C 1157.5 1845.04  1137.04 1865.5  1111 1865.5  C 1084.96 1865.5  1064.5 1845.04  1064.5 1819  C 1064.5 1792.96  1084.96 1772.5  1111 1772.5  Z " stroke-width="5" stroke="#000000" fill="none" stroke-opacity="0.0392156862745098" />
  </g>
</svg>