<?xml version="1.0" encoding="utf-8"?>
<svg version="1.1" xmlns:xlink="http://www.w3.org/1999/xlink" width="32px" height="32px" xmlns="http://www.w3.org/2000/svg">
  <defs>
    <filter x="897px" y="2391px" width="32px" height="32px" filterUnits="userSpaceOnUse" id="filter81">
      <feOffset dx="0" dy="0" in="SourceAlpha" result="shadowOffsetInner" />
      <feGaussianBlur stdDeviation="5" in="shadowOffsetInner" result="shadowGaussian" />
      <feComposite in2="shadowGaussian" operator="atop" in="SourceAlpha" result="shadowComposite" />
      <feColorMatrix type="matrix" values="0 0 0 0 0.850980392156863  0 0 0 0 0  0 0 0 0 0.105882352941176  0 0 0 0.980392156862745 0  " in="shadowComposite" />
    </filter>
    <g id="widget82">
      <path d="M 913 2401  C 916.36 2401  919 2403.64  919 2407  C 919 2410.36  916.36 2413  913 2413  C 909.64 2413  907 2410.36  907 2407  C 907 2403.64  909.64 2401  913 2401  Z " fill-rule="nonzero" fill="#d9001b" stroke="none" />
      <path d="M 913 2401.5  C 916.08 2401.5  918.5 2403.92  918.5 2407  C 918.5 2410.08  916.08 2412.5  913 2412.5  C 909.92 2412.5  907.5 2410.08  907.5 2407  C 907.5 2403.92  909.92 2401.5  913 2401.5  Z " stroke-width="1" stroke="#ffffff" fill="none" />
    </g>
  </defs>
  <g transform="matrix(1 0 0 1 -897 -2391 )">
    <use xlink:href="#widget82" filter="url(#filter81)" />
    <use xlink:href="#widget82" />
  </g>
</svg>