<?xml version="1.0" encoding="utf-8"?>
<svg version="1.1" xmlns:xlink="http://www.w3.org/1999/xlink" width="32px" height="32px" xmlns="http://www.w3.org/2000/svg">
  <defs>
    <filter x="897px" y="3386px" width="32px" height="32px" filterUnits="userSpaceOnUse" id="filter14">
      <feOffset dx="0" dy="0" in="SourceAlpha" result="shadowOffsetInner" />
      <feGaussianBlur stdDeviation="5" in="shadowOffsetInner" result="shadowGaussian" />
      <feComposite in2="shadowGaussian" operator="atop" in="SourceAlpha" result="shadowComposite" />
      <feColorMatrix type="matrix" values="0 0 0 0 0.850980392156863  0 0 0 0 0  0 0 0 0 0.105882352941176  0 0 0 0.980392156862745 0  " in="shadowComposite" />
    </filter>
    <g id="widget15">
      <path d="M 913 3396  C 916.36 3396  919 3398.64  919 3402  C 919 3405.36  916.36 3408  913 3408  C 909.64 3408  907 3405.36  907 3402  C 907 3398.64  909.64 3396  913 3396  Z " fill-rule="nonzero" fill="#d9001b" stroke="none" />
      <path d="M 913 3396.5  C 916.08 3396.5  918.5 3398.92  918.5 3402  C 918.5 3405.08  916.08 3407.5  913 3407.5  C 909.92 3407.5  907.5 3405.08  907.5 3402  C 907.5 3398.92  909.92 3396.5  913 3396.5  Z " stroke-width="1" stroke="#ffffff" fill="none" />
    </g>
  </defs>
  <g transform="matrix(1 0 0 1 -897 -3386 )">
    <use xlink:href="#widget15" filter="url(#filter14)" />
    <use xlink:href="#widget15" />
  </g>
</svg>