<?xml version="1.0" encoding="utf-8"?>
<svg version="1.1" xmlns:xlink="http://www.w3.org/1999/xlink" width="19px" height="19px" xmlns="http://www.w3.org/2000/svg">
  <g transform="matrix(1 0 0 1 -1172 -115 )">
    <path d="M 18.7361111214193 8.1805555452474  L 16.7569444547526 8.1805555452474  L 10.8194444547526 8.1805555452474  L 10.8194444547526 0.263888878580729  L 12.1388888785807 1.58333333333333  L 13.7222222119141 3.16666666666667  L 16.7569444547526 0.263888878580729  L 18.6041666666667 2.11111112141927  L 15.5694444547526 5.14583333333333  L 16.2291666666667 5.80555554524739  L 17.4166666666667 6.86111112141927  L 18.7361111214193 8.1805555452474  Z M 0.263888878580729 0.263888878580729  L 9.5 0.263888878580729  L 9.5 2.90277778808594  L 3 2.90277778808594  L 3 16  L 16.0972222119141 16  L 16.0972222119141 9.5  L 18.7361111214193 9.5  L 18.7361111214193 18.7361111214193  L 0.263888878580729 18.7361111214193  L 0.263888878580729 0.263888878580729  Z " fill-rule="nonzero" fill="#02a7f0" stroke="none" transform="matrix(1 0 0 1 1172 115 )" />
  </g>
</svg>