<?xml version="1.0" encoding="utf-8"?>
<svg version="1.1" xmlns:xlink="http://www.w3.org/1999/xlink" width="27px" height="28px" xmlns="http://www.w3.org/2000/svg">
  <g transform="matrix(1 0 0 1 -371 -109 )">
    <path d="M 17.3571428571429 16.4137931034483  L 25.0714285714286 16.4137931034483  C 26.136549160388 16.4137931034483  27 17.2783466899819  27 18.3448275862069  L 27 26.0689655172414  C 27 27.1354464134664  26.136549160388 28  25.0714285714286 28  L 17.3571428571429 28  C 16.2920222681835 28  15.4285714285714 27.1354464134664  15.4285714285714 26.0689655172414  L 15.4285714285714 18.3448275862069  C 15.4285714285714 17.2783466899819  16.2920222681835 16.4137931034483  17.3571428571429 16.4137931034483  Z M 1.92857142857143 16.4137931034483  L 9.64285714285714 16.4137931034483  C 10.7079777318165 16.4137931034483  11.5714285714286 17.2783466899819  11.5714285714286 18.3448275862069  L 11.5714285714286 26.0689655172414  C 11.5714285714286 27.1354464134664  10.7079777318165 28  9.64285714285714 28  L 1.92857142857143 28  C 0.863450839612041 28  0 27.1354464134664  0 26.0689655172414  L 0 18.3448275862069  C 0 17.2783466899819  0.863450839612041 16.4137931034483  1.92857142857143 16.4137931034483  Z M 17.3571428571429 0.96551724137931  L 25.0714285714286 0.96551724137931  C 26.136549160388 0.96551724137931  27 1.83007082791295  27 2.89655172413793  L 27 10.6206896551724  C 27 11.6871705513974  26.136549160388 12.551724137931  25.0714285714286 12.551724137931  L 17.3571428571429 12.551724137931  C 16.2920222681835 12.551724137931  15.4285714285714 11.6871705513974  15.4285714285714 10.6206896551724  L 15.4285714285714 2.89655172413793  C 15.4285714285714 1.83007082791295  16.2920222681835 0.96551724137931  17.3571428571429 0.96551724137931  Z M 11.0314285714286 1.55062068965517  L 11.0275714285714 1.55062068965517  C 11.7527142857143 2.33268965517241  11.7527142857143 3.59751724137931  11.0275714285714 4.37958620689655  L 5.78571428571429 10.0355862068966  C 5.44984965163642 10.4061174048883  4.97402886342481 10.6184083294643  4.47428571428571 10.6206896551724  C 3.97454256514662 10.6184083294643  3.49872177693501 10.4061174048883  3.16285714285714 10.0355862068966  L 0.545785714285715 7.20662068965517  C -0.177607656501003 6.40345937955389  -0.177607656501003 5.18274751699784  0.545785714285715 4.37958620689655  C 0.879760515343825 4.00695922531936  1.35621395165465 3.7940850091607  1.85625 3.7940850091607  C 2.35628604834535 3.7940850091607  2.83273948465618 4.00695922531936  3.16671428571429 4.37958620689655  L 4.47814285714286 5.79310344827586  L 8.40857142857143 1.55062068965517  C 8.74257670316161 1.17734415458944  9.21946061653801 0.964042717576823  9.72 0.964042717576823  C 10.220539383462 0.964042717576823  10.6974232968384 1.17734415458944  11.0314285714286 1.55062068965517  Z " fill-rule="nonzero" fill="#333333" stroke="none" transform="matrix(1 0 0 1 371 109 )" />
  </g>
</svg>