<?xml version="1.0" encoding="utf-8"?>
<svg version="1.1" xmlns:xlink="http://www.w3.org/1999/xlink" width="20px" height="19px" xmlns="http://www.w3.org/2000/svg">
  <g transform="matrix(1 0 0 1 -210 -185 )">
    <path d="M 19.12 10.08624  C 19.12 10.7582600835941  18.5752200835941 11.30304  17.9032 11.30304  L 16.43008 11.30304  C 16.2901791126344 11.7994250976152  16.0936897850324 12.2780859841996  15.84448 12.7296  L 16.87744 13.76256  C 17.3549336749449 14.2401639723787  17.3549336749449 15.0143960276213  16.87744 15.492  L 16.01344 16.356  C 15.5357263860621 16.8332288601376  14.7617136139379 16.8332288601376  14.284 16.356  L 13.25056 15.32304  C 12.80368 15.57216  12.32608 15.768  11.824 15.90864  L 11.824 17.38368  C 11.8237349772479 18.0555126242825  11.2790326765553 18.6000000522727  10.6072 18.6  L 9.39088 18.6  C 8.71904732344471 18.6000000522727  8.17434502275209 18.0555126242825  8.17408 17.38368  L 8.17408 15.90864  C 7.66036507141558 15.7631195804841  7.16583422442902 15.5568636390886  6.70096 15.29424  L 5.63776 16.35744  C 5.40864945182813 16.5866558064484  5.09784568189507 16.7154367577643  4.77376 16.7154367577643  C 4.44967431810493 16.7154367577643  4.13887054817186 16.5866558064484  3.90976 16.35744  L 3.04576 15.49344  C 2.5685861624053 15.0158910262028  2.5685861624053 14.2420289737972  3.04576 13.76448  L 4.1272 12.68304  C 3.89049496678498 12.2457950611716  3.7035670369091 11.7833859185329  3.56992 11.30448  L 2.09632 11.30448  C 1.42458350477466 11.3026299443881  0.880790532683739 10.7579785777082  0.88 10.08624  L 0.879999999999999 8.8704  C 0.880265022752091 8.19856737571745  1.42496732344472 7.65407994772726  2.0968 7.65408  L 3.56992 7.65408  C 3.712 7.15152  3.90832 6.6744  4.15552 6.22752  L 3.04576 5.11776  C 2.81642642458293 4.88871199527591  2.68756413015282 4.57788478658946  2.68756413015282 4.25376  C 2.68756413015282 3.92963521341054  2.81642642458293 3.61880800472409  3.04576 3.38976  L 3.90976 2.52624  C 4.13887054817186 2.29702419355162  4.44967431810493 2.16824324223569  4.77376 2.16824324223569  C 5.09784568189507 2.16824324223569  5.40864945182814 2.29702419355162  5.63776 2.52624  L 6.74752 3.636  C 7.1944 3.3864  7.672 3.19056  8.17408 3.04992  L 8.17408 1.57632  C 8.17434502275209 0.90448737571745  8.71904732344472 0.359999947727266  9.39088 0.36  L 10.6072 0.36  C 11.2790326765553 0.359999947727268  11.8237349772479 0.904487375717451  11.824 1.57632  L 11.824 3.04944  C 12.30688 3.18672  12.7696 3.372  13.20256 3.60672  L 14.284 2.52576  C 14.7617136139379 2.04853113986236  15.5357263860621 2.04853113986236  16.01344 2.52576  L 16.87744 3.38976  C 17.1066266333766 3.61878858931494  17.2353956374363 3.92951288951921  17.2353956374363 4.25352  C 17.2353956374363 4.57752711048079  17.1066266333766 4.88825141068506  16.87744 5.11728  L 15.81424 6.18048  C 16.0783517256619 6.64462534546896  16.2846845744579 7.13934058996495  16.42864 7.6536  L 17.9032 7.6536  C 18.5750326765553 7.65359994772726  19.1197349772479 8.19808737571745  19.12 8.86992  L 19.12 10.08624  Z M 10 5.83104  C 7.98526523261726 5.83104  6.352 7.46430523261727  6.352 9.47904  C 6.352 11.4937747673827  7.98526523261726 13.12704  10 13.12704  C 12.0147347673827 13.12704  13.648 11.4937747673827  13.648 9.47904  C 13.648 7.46430523261727  12.0147347673827 5.83104  10 5.83104  Z M 11.824 9.47904  C 11.824 10.48704  11.008 11.30304  10 11.30304  C 8.992 11.30304  8.176 10.48704  8.176 9.47904  C 8.176 8.47104  8.992 7.65504  10 7.65504  C 11.008 7.65504  11.824 8.47104  11.824 9.47904  Z " fill-rule="nonzero" fill="#000000" stroke="none" transform="matrix(1 0 0 1 210 185 )" />
  </g>
</svg>