<?xml version="1.0" encoding="utf-8"?>
<svg version="1.1" xmlns:xlink="http://www.w3.org/1999/xlink" width="12px" height="12px" viewBox="2360 880  12 12" xmlns="http://www.w3.org/2000/svg">
  <path d="M 2366 880  C 2369.36 880  2372 882.64  2372 886  C 2372 889.36  2369.36 892  2366 892  C 2362.64 892  2360 889.36  2360 886  C 2360 882.64  2362.64 880  2366 880  Z " fill-rule="nonzero" fill="#f0f0f0" stroke="none" />
  <path d="M 2366 880.5  C 2369.08 880.5  2371.5 882.92  2371.5 886  C 2371.5 889.08  2369.08 891.5  2366 891.5  C 2362.92 891.5  2360.5 889.08  2360.5 886  C 2360.5 882.92  2362.92 880.5  2366 880.5  Z " stroke-width="1" stroke="#797979" fill="none" />
  <path d="M 2366 889  C 2364.32 889  2363 887.68  2363 886  C 2363 884.32  2364.32 883  2366 883  C 2367.68 883  2369 884.32  2369 886  C 2369 887.68  2367.68 889  2366 889  " fill-rule="nonzero" fill="#797979" stroke="none" />
</svg>