<?xml version="1.0" encoding="utf-8"?>
<svg version="1.1" xmlns:xlink="http://www.w3.org/1999/xlink" width="12px" height="12px" viewBox="2360 837  12 12" xmlns="http://www.w3.org/2000/svg">
  <path d="M 2366 837  C 2369.36 837  2372 839.64  2372 843  C 2372 846.36  2369.36 849  2366 849  C 2362.64 849  2360 846.36  2360 843  C 2360 839.64  2362.64 837  2366 837  Z " fill-rule="nonzero" fill="#ffffff" stroke="none" />
  <path d="M 2366 837.5  C 2369.08 837.5  2371.5 839.92  2371.5 843  C 2371.5 846.08  2369.08 848.5  2366 848.5  C 2362.92 848.5  2360.5 846.08  2360.5 843  C 2360.5 839.92  2362.92 837.5  2366 837.5  Z " stroke-width="1" stroke="#797979" fill="none" />
  <path d="M 2366 846  C 2364.32 846  2363 844.68  2363 843  C 2363 841.32  2364.32 840  2366 840  C 2367.68 840  2369 841.32  2369 843  C 2369 844.68  2367.68 846  2366 846  " fill-rule="nonzero" fill="#797979" stroke="none" />
</svg>