<?xml version="1.0" encoding="utf-8"?>
<svg version="1.1" xmlns:xlink="http://www.w3.org/1999/xlink" width="12px" height="12px" viewBox="2360 926  12 12" xmlns="http://www.w3.org/2000/svg">
  <path d="M 2366 926  C 2369.36 926  2372 928.64  2372 932  C 2372 935.36  2369.36 938  2366 938  C 2362.64 938  2360 935.36  2360 932  C 2360 928.64  2362.64 926  2366 926  Z " fill-rule="nonzero" fill="#f0f0f0" stroke="none" />
  <path d="M 2366 926.5  C 2369.08 926.5  2371.5 928.92  2371.5 932  C 2371.5 935.08  2369.08 937.5  2366 937.5  C 2362.92 937.5  2360.5 935.08  2360.5 932  C 2360.5 928.92  2362.92 926.5  2366 926.5  Z " stroke-width="1" stroke="#797979" fill="none" />
  <path d="M 2366 935  C 2364.32 935  2363 933.68  2363 932  C 2363 930.32  2364.32 929  2366 929  C 2367.68 929  2369 930.32  2369 932  C 2369 933.68  2367.68 935  2366 935  " fill-rule="nonzero" fill="#797979" stroke="none" />
</svg>