<?xml version="1.0" encoding="utf-8"?>
<svg version="1.1" xmlns:xlink="http://www.w3.org/1999/xlink" width="12px" height="12px" viewBox="2360 747  12 12" xmlns="http://www.w3.org/2000/svg">
  <path d="M 2366 747  C 2369.36 747  2372 749.64  2372 753  C 2372 756.36  2369.36 759  2366 759  C 2362.64 759  2360 756.36  2360 753  C 2360 749.64  2362.64 747  2366 747  Z " fill-rule="nonzero" fill="#ffffff" stroke="none" />
  <path d="M 2366 747.5  C 2369.08 747.5  2371.5 749.92  2371.5 753  C 2371.5 756.08  2369.08 758.5  2366 758.5  C 2362.92 758.5  2360.5 756.08  2360.5 753  C 2360.5 749.92  2362.92 747.5  2366 747.5  Z " stroke-width="1" stroke="#797979" fill="none" />
  <path d="M 2366 756  C 2364.32 756  2363 754.68  2363 753  C 2363 751.32  2364.32 750  2366 750  C 2367.68 750  2369 751.32  2369 753  C 2369 754.68  2367.68 756  2366 756  " fill-rule="nonzero" fill="#797979" stroke="none" />
</svg>