<?xml version="1.0" encoding="utf-8"?>
<svg version="1.1" xmlns:xlink="http://www.w3.org/1999/xlink" width="12px" height="12px" viewBox="2360 792  12 12" xmlns="http://www.w3.org/2000/svg">
  <path d="M 2366 792  C 2369.36 792  2372 794.64  2372 798  C 2372 801.36  2369.36 804  2366 804  C 2362.64 804  2360 801.36  2360 798  C 2360 794.64  2362.64 792  2366 792  Z " fill-rule="nonzero" fill="#f0f0f0" stroke="none" />
  <path d="M 2366 792.5  C 2369.08 792.5  2371.5 794.92  2371.5 798  C 2371.5 801.08  2369.08 803.5  2366 803.5  C 2362.92 803.5  2360.5 801.08  2360.5 798  C 2360.5 794.92  2362.92 792.5  2366 792.5  Z " stroke-width="1" stroke="#797979" fill="none" />
  <path d="M 2366 801  C 2364.32 801  2363 799.68  2363 798  C 2363 796.32  2364.32 795  2366 795  C 2367.68 795  2369 796.32  2369 798  C 2369 799.68  2367.68 801  2366 801  " fill-rule="nonzero" fill="#797979" stroke="none" />
</svg>