<?xml version="1.0" encoding="utf-8"?>
<svg version="1.1" xmlns:xlink="http://www.w3.org/1999/xlink" width="78px" height="44px" xmlns="http://www.w3.org/2000/svg">
  <g transform="matrix(1 0 0 1 -261 -1400 )">
    <path d="M 261 1400  L 339 1400  L 339 1444  L 261 1444  L 261 1400  " fill-rule="nonzero" fill="#cccccc" stroke="none" />
    <path d="M 264 1403  L 336 1403  L 336 1441  L 264 1441  L 264 1403  " fill-rule="nonzero" fill="#ffffff" stroke="none" />
    <path d="M 304.86 1413.2  C 303.012 1413.2  301.56 1411.748  301.56 1409.9  C 301.56 1408.052  303.012 1406.6  304.86 1406.6  C 306.708 1406.6  308.16 1408.052  308.16 1409.9  C 308.16 1411.748  306.708 1413.2  304.86 1413.2  " fill-rule="nonzero" fill="#cccccc" stroke="none" />
    <path d="M 265 1440  L 265 1420.2  L 282.5 1411.2  L 307 1427.81538461538  L 321 1416.6  L 335 1427.81538461538  L 335 1440  L 265 1440  " fill-rule="nonzero" fill="#169bd5" stroke="none" />
  </g>
</svg>