<?xml version="1.0" encoding="utf-8"?>
<svg version="1.1" xmlns:xlink="http://www.w3.org/1999/xlink" width="8px" height="11px" xmlns="http://www.w3.org/2000/svg">
  <g transform="matrix(1 0 0 1 -136 -127 )">
    <path d="M 7.083 0.00399999999999068  L 1.273 0.00399999999999068  L 0.741000000000014 5.52000000000001  L 1.833 5.52000000000001  C 2.029 5.12799999999999  2.33699999999999 4.81999999999999  2.72900000000001 4.624  C 3.107 4.41399999999999  3.52699999999999 4.316  4.00299999999999 4.316  C 4.73099999999999 4.316  5.30500000000001 4.52600000000001  5.71100000000001 4.97399999999999  C 6.131 5.40799999999999  6.35499999999999 6.024  6.35499999999999 6.822  C 6.35499999999999 7.52199999999999  6.11699999999999 8.096  5.66900000000001 8.54400000000001  C 5.20699999999999 8.99199999999999  4.63300000000001 9.21600000000001  3.93299999999999 9.21600000000001  C 3.31700000000001 9.21600000000001  2.79900000000001 9.06200000000001  2.40700000000001 8.768  C 1.959 8.43199999999999  1.70699999999999 7.94200000000001  1.65100000000001 7.31200000000001  L 0.516999999999996 7.31200000000001  C 0.586999999999989 8.22200000000001  0.965000000000003 8.94999999999999  1.66499999999999 9.482  C 2.28100000000001 9.958  3.03700000000001 10.196  3.91900000000001 10.196  C 4.899 10.196  5.739 9.88800000000001  6.411 9.286  C 7.125 8.642  7.489 7.816  7.489 6.80799999999999  C 7.489 5.72999999999999  7.18100000000001 4.88999999999999  6.59299999999999 4.274  C 6.005 3.672  5.23500000000001 3.37799999999999  4.28299999999999 3.37799999999999  C 3.821 3.37799999999999  3.40100000000001 3.44800000000001  3.00899999999999 3.61600000000001  C 2.57499999999999 3.78399999999999  2.21100000000001 4.036  1.93100000000001 4.37200000000001  L 1.875 4.37200000000001  L 2.21100000000001 1.02600000000001  L 7.083 1.02600000000001  L 7.083 0.00399999999999068  Z " fill-rule="nonzero" fill="#000000" stroke="none" fill-opacity="0.898039215686275" transform="matrix(1 0 0 1 136 127 )" />
  </g>
</svg>