<?xml version="1.0" encoding="utf-8"?>
<svg version="1.1" xmlns:xlink="http://www.w3.org/1999/xlink" width="13px" height="10px" xmlns="http://www.w3.org/2000/svg">
  <g transform="matrix(1 0 0 1 -59 -187 )">
    <path d="M 3.8117 0.00399999999999068  L 2.9157 0.00399999999999068  C 2.5797 0.382000000000005  2.18770000000001 0.717999999999989  1.71169999999999 1.02600000000001  C 1.23569999999999 1.30600000000001  0.759699999999995 1.50200000000001  0.311700000000002 1.62799999999999  L 0.311700000000002 2.77600000000001  C 1.2497 2.49600000000001  2.0337 2.048  2.66370000000001 1.404  L 2.66370000000001 10  L 3.8117 10  L 3.8117 0.00399999999999068  Z M 12.3568 0.00399999999999068  L 5.7908 0.00399999999999068  L 5.7908 1.054  L 11.1808 1.054  L 7.4568 10  L 8.6748 10  L 12.3568 0.942000000000007  L 12.3568 0.00399999999999068  Z " fill-rule="nonzero" fill="#000000" stroke="none" fill-opacity="0.898039215686275" transform="matrix(1 0 0 1 59 187 )" />
  </g>
</svg>