<?xml version="1.0" encoding="utf-8"?>
<svg version="1.1" xmlns:xlink="http://www.w3.org/1999/xlink" width="17px" height="12px" xmlns="http://www.w3.org/2000/svg">
  <g transform="matrix(1 0 0 1 -169 -96 )">
    <path d="M 6.56100000000001 1.60599999999999  C 5.959 1.07400000000001  5.203 0.807999999999993  4.279 0.807999999999993  C 3.27099999999999 0.807999999999993  2.44499999999999 1.14400000000001  1.82900000000001 1.816  C 1.21299999999999 2.47399999999999  0.890999999999991 3.37  0.890999999999991 4.49000000000001  L 2.03899999999999 4.49000000000001  C 2.053 3.608  2.26300000000001 2.93600000000001  2.655 2.488  C 3.01900000000001 2.012  3.55099999999999 1.78800000000001  4.23699999999999 1.78800000000001  C 4.881 1.78800000000001  5.399 1.95599999999999  5.76300000000001 2.292  C 6.12700000000001 2.62799999999999  6.309 3.09  6.309 3.70599999999999  C 6.309 4.34999999999999  6.04300000000001 4.952  5.53899999999999 5.49799999999999  C 5.273 5.77799999999999  4.755 6.184  3.971 6.744  C 2.90700000000001 7.47200000000001  2.19300000000001 8.07400000000001  1.80099999999999 8.52199999999999  C 1.12899999999999 9.26400000000001  0.806999999999988 10.09  0.806999999999988 11  L 7.471 11  L 7.471 9.97800000000001  L 2.221 9.97800000000001  C 2.40299999999999 9.30600000000001  3.131 8.536  4.405 7.68199999999999  C 5.441 6.982  6.12700000000001 6.43600000000001  6.477 6.072  C 7.12100000000001 5.37200000000001  7.45699999999999 4.58799999999999  7.45699999999999 3.72  C 7.45699999999999 2.852  7.149 2.13800000000001  6.56100000000001 1.60599999999999  Z M 15.151 2.15199999999999  C 14.535 1.256  13.625 0.807999999999993  12.421 0.807999999999993  C 11.441 0.807999999999993  10.629 1.13  9.999 1.78800000000001  C 9.35499999999999 2.43199999999999  9.047 3.244  9.047 4.238  C 9.047 5.20400000000001  9.327 5.988  9.90100000000001 6.59  C 10.489 7.22  11.259 7.542  12.225 7.542  C 12.813 7.542  13.331 7.38800000000001  13.779 7.108  C 14.241 6.81399999999999  14.605 6.40799999999999  14.857 5.904  L 14.913 5.904  C 14.913 6.072  14.927 6.19800000000001  14.927 6.268  C 14.927 7.38800000000001  14.703 8.32599999999999  14.269 9.06800000000001  C 13.807 9.83799999999999  13.191 10.23  12.421 10.23  C 11.245 10.23  10.559 9.65600000000001  10.349 8.52199999999999  L 9.215 8.52199999999999  C 9.48099999999999 10.3  10.545 11.196  12.407 11.196  C 13.527 11.196  14.423 10.664  15.095 9.62799999999999  C 15.711 8.62  16.033 7.33199999999999  16.033 5.73599999999999  C 16.033 4.196  15.739 2.99199999999999  15.151 2.15199999999999  Z M 10.797 2.46000000000001  C 11.217 1.99799999999999  11.763 1.774  12.449 1.774  C 13.135 1.774  13.695 2.012  14.115 2.488  C 14.521 2.93600000000001  14.731 3.50999999999999  14.731 4.21000000000001  C 14.731 4.89599999999999  14.507 5.47  14.087 5.91800000000001  C 13.639 6.36600000000001  13.093 6.59  12.449 6.59  C 11.749 6.59  11.203 6.36600000000001  10.797 5.93199999999999  C 10.377 5.512  10.181 4.93799999999999  10.181 4.238  C 10.181 3.50999999999999  10.377 2.922  10.797 2.46000000000001  Z " fill-rule="nonzero" fill="#000000" stroke="none" fill-opacity="0.258823529411765" transform="matrix(1 0 0 1 169 96 )" />
  </g>
</svg>