<?xml version="1.0" encoding="utf-8"?>
<svg version="1.1" xmlns:xlink="http://www.w3.org/1999/xlink" width="8px" height="12px" xmlns="http://www.w3.org/2000/svg">
  <g transform="matrix(1 0 0 1 -24 -156 )">
    <path d="M 6.6207 2.15199999999999  C 6.0047 1.256  5.0947 0.807999999999993  3.8907 0.807999999999993  C 2.9107 0.807999999999993  2.0987 1.13  1.4687 1.78800000000001  C 0.8247 2.43199999999999  0.5167 3.244  0.5167 4.238  C 0.5167 5.20400000000001  0.796700000000001 5.988  1.3707 6.59  C 1.9587 7.22  2.7287 7.542  3.6947 7.542  C 4.2827 7.542  4.8007 7.38800000000001  5.2487 7.108  C 5.7107 6.81399999999999  6.0747 6.40799999999999  6.3267 5.904  L 6.3827 5.904  C 6.3827 6.072  6.3967 6.19800000000001  6.3967 6.268  C 6.3967 7.38800000000001  6.1727 8.32599999999999  5.7387 9.06800000000001  C 5.2767 9.83799999999999  4.6607 10.23  3.8907 10.23  C 2.7147 10.23  2.0287 9.65600000000001  1.8187 8.52199999999999  L 0.684699999999999 8.52199999999999  C 0.950699999999998 10.3  2.0147 11.196  3.8767 11.196  C 4.9967 11.196  5.8927 10.664  6.5647 9.62799999999999  C 7.1807 8.62  7.5027 7.33199999999999  7.5027 5.73599999999999  C 7.5027 4.196  7.2087 2.99199999999999  6.6207 2.15199999999999  Z M 2.2667 2.46000000000001  C 2.6867 1.99799999999999  3.2327 1.774  3.9187 1.774  C 4.6047 1.774  5.1647 2.012  5.5847 2.488  C 5.9907 2.93600000000001  6.2007 3.50999999999999  6.2007 4.21000000000001  C 6.2007 4.89599999999999  5.9767 5.47  5.5567 5.91800000000001  C 5.1087 6.36600000000001  4.5627 6.59  3.9187 6.59  C 3.2187 6.59  2.6727 6.36600000000001  2.2667 5.93199999999999  C 1.8467 5.512  1.6507 4.93799999999999  1.6507 4.238  C 1.6507 3.50999999999999  1.8467 2.922  2.2667 2.46000000000001  Z " fill-rule="nonzero" fill="#000000" stroke="none" fill-opacity="0.898039215686275" transform="matrix(1 0 0 1 24 156 )" />
  </g>
</svg>