<?xml version="1.0" encoding="utf-8"?>
<svg version="1.1" xmlns:xlink="http://www.w3.org/1999/xlink" width="16px" height="12px" xmlns="http://www.w3.org/2000/svg">
  <g transform="matrix(1 0 0 1 -20 -66 )">
    <path d="M 6.6882 1.578  C 6.0442 1.06  5.1482 0.808000000000007  4.0282 0.808000000000007  C 2.9922 0.808000000000007  2.1382 1.032  1.4802 1.48  C 0.738199999999999 1.956  0.374199999999998 2.642  0.374199999999998 3.51000000000001  C 0.374199999999998 4.34999999999999  0.752199999999998 4.994  1.5222 5.44199999999999  C 1.8442 5.61  2.6142 5.89  3.8182 6.254  C 4.9382 6.57599999999999  5.6522 6.81399999999999  5.9322 6.982  C 6.5902 7.33199999999999  6.9262 7.822  6.9262 8.452  C 6.9262 8.98399999999999  6.6742 9.404  6.1702 9.712  C 5.6662 10.02  4.9942 10.174  4.1822 10.174  C 3.2862 10.174  2.6142 9.97799999999999  2.1522 9.614  C 1.6482 9.208  1.3402 8.56399999999999  1.2422 7.696  L 0.1082 7.696  C 0.1922 8.928  0.626200000000001 9.83799999999999  1.4102 10.44  C 2.0822 10.944  3.0062 11.196  4.1822 11.196  C 5.3722 11.196  6.3102 10.944  7.0102 10.454  C 7.7102 9.95  8.0602 9.25  8.0602 8.38200000000001  C 8.0602 7.47199999999999  7.6402 6.77200000000001  6.8142 6.268  C 6.3942 6.01600000000001  5.5262 5.694  4.2102 5.30200000000001  C 3.2442 5.02200000000001  2.6282 4.812  2.3762 4.672  C 1.8022 4.364  1.5222 3.958  1.5222 3.45399999999999  C 1.5222 2.88  1.7602 2.45999999999999  2.2362 2.18000000000001  C 2.6562 1.928  3.2302 1.816  3.9722 1.816  C 4.7842 1.816  5.4142 1.98399999999999  5.8622 2.348  C 6.2962 2.69799999999999  6.5762 3.23  6.7022 3.958  L 7.8362 3.958  C 7.7382 2.908  7.3602 2.11  6.6882 1.578  Z M 10.4939 3.762  L 9.3739 3.762  L 9.3739 8.242  C 9.3739 10.202  10.2419 11.196  12.0059 11.196  C 12.9859 11.196  13.7699 10.748  14.3579 9.88  L 14.3579 11  L 15.4779 11  L 15.4779 3.762  L 14.3579 3.762  L 14.3579 8.172  C 14.2739 8.788  14.0359 9.292  13.6439 9.684  C 13.2659 10.048  12.8319 10.244  12.3559 10.244  C 11.6979 10.244  11.2219 10.062  10.9279 9.726  C 10.6339 9.39  10.4939 8.872  10.4939 8.18600000000001  L 10.4939 3.762  Z " fill-rule="nonzero" fill="#000000" stroke="none" fill-opacity="0.4" transform="matrix(1 0 0 1 20 66 )" />
  </g>
</svg>