<?xml version="1.0" encoding="utf-8"?>
<svg version="1.1" xmlns:xlink="http://www.w3.org/1999/xlink" width="16px" height="12px" xmlns="http://www.w3.org/2000/svg">
  <g transform="matrix(1 0 0 1 -20 -96 )">
    <path d="M 6.2275 1.60599999999999  C 5.6255 1.07400000000001  4.8695 0.807999999999993  3.9455 0.807999999999993  C 2.9375 0.807999999999993  2.1115 1.14400000000001  1.4955 1.816  C 0.8795 2.47399999999999  0.557500000000001 3.37  0.557500000000001 4.49000000000001  L 1.7055 4.49000000000001  C 1.7195 3.608  1.9295 2.93600000000001  2.3215 2.488  C 2.6855 2.012  3.2175 1.78800000000001  3.9035 1.78800000000001  C 4.5475 1.78800000000001  5.0655 1.95599999999999  5.4295 2.292  C 5.7935 2.62799999999999  5.9755 3.09  5.9755 3.70599999999999  C 5.9755 4.34999999999999  5.7095 4.952  5.2055 5.49799999999999  C 4.9395 5.77799999999999  4.4215 6.184  3.6375 6.744  C 2.5735 7.47200000000001  1.8595 8.07400000000001  1.4675 8.52199999999999  C 0.795500000000001 9.26400000000001  0.473500000000001 10.09  0.473500000000001 11  L 7.1375 11  L 7.1375 9.97800000000001  L 1.8875 9.97800000000001  C 2.0695 9.30600000000001  2.7975 8.536  4.0715 7.68199999999999  C 5.1075 6.982  5.7935 6.43600000000001  6.1435 6.072  C 6.7875 5.37200000000001  7.1235 4.58799999999999  7.1235 3.72  C 7.1235 2.852  6.8155 2.13800000000001  6.2275 1.60599999999999  Z M 15.28 1.00399999999999  L 9.47 1.00399999999999  L 8.938 6.52000000000001  L 10.03 6.52000000000001  C 10.226 6.12799999999999  10.534 5.81999999999999  10.926 5.624  C 11.304 5.41399999999999  11.724 5.316  12.2 5.316  C 12.928 5.316  13.502 5.52600000000001  13.908 5.97399999999999  C 14.328 6.40799999999999  14.552 7.024  14.552 7.822  C 14.552 8.52199999999999  14.314 9.096  13.866 9.54400000000001  C 13.404 9.99199999999999  12.83 10.216  12.13 10.216  C 11.514 10.216  10.996 10.062  10.604 9.768  C 10.156 9.43199999999999  9.904 8.94200000000001  9.848 8.31200000000001  L 8.714 8.31200000000001  C 8.784 9.22200000000001  9.162 9.94999999999999  9.862 10.482  C 10.478 10.958  11.234 11.196  12.116 11.196  C 13.096 11.196  13.936 10.888  14.608 10.286  C 15.322 9.642  15.686 8.816  15.686 7.80799999999999  C 15.686 6.72999999999999  15.378 5.88999999999999  14.79 5.274  C 14.202 4.672  13.432 4.37799999999999  12.48 4.37799999999999  C 12.018 4.37799999999999  11.598 4.44800000000001  11.206 4.61600000000001  C 10.772 4.78399999999999  10.408 5.036  10.128 5.37200000000001  L 10.072 5.37200000000001  L 10.408 2.02600000000001  L 15.28 2.02600000000001  L 15.28 1.00399999999999  Z " fill-rule="nonzero" fill="#000000" stroke="none" fill-opacity="0.258823529411765" transform="matrix(1 0 0 1 20 96 )" />
  </g>
</svg>