<?xml version="1.0" encoding="utf-8"?>
<svg version="1.1" xmlns:xlink="http://www.w3.org/1999/xlink" width="14px" height="12px" xmlns="http://www.w3.org/2000/svg">
  <g transform="matrix(1 0 0 1 -170 -156 )">
    <path d="M 4.44300000000001 1.00399999999999  L 3.547 1.00399999999999  C 3.21100000000001 1.38200000000001  2.81899999999999 1.71799999999999  2.34299999999999 2.02600000000001  C 1.86699999999999 2.30600000000001  1.39099999999999 2.50200000000001  0.943000000000012 2.62799999999999  L 0.943000000000012 3.77600000000001  C 1.881 3.49600000000001  2.66499999999999 3.048  3.29499999999999 2.404  L 3.29499999999999 11  L 4.44300000000001 11  L 4.44300000000001 1.00399999999999  Z M 12.568 1.536  C 11.98 1.04599999999999  11.196 0.807999999999993  10.244 0.807999999999993  C 9.292 0.807999999999993  8.52199999999999 1.07400000000001  7.934 1.62  C 7.31800000000001 2.166  6.95400000000001 2.922  6.87 3.88800000000001  L 8.00399999999999 3.88800000000001  C 8.07400000000001 3.21600000000001  8.298 2.69800000000001  8.69 2.334  C 9.06800000000001 1.97  9.58600000000001 1.80199999999999  10.258 1.80199999999999  C 10.902 1.80199999999999  11.42 1.95599999999999  11.784 2.292  C 12.12 2.59999999999999  12.302 3.03399999999999  12.302 3.59399999999999  C 12.302 4.154  12.12 4.58799999999999  11.77 4.89599999999999  C 11.42 5.19  10.916 5.34399999999999  10.244 5.34399999999999  L 9.47399999999999 5.34399999999999  L 9.47399999999999 6.24000000000001  L 10.286 6.24000000000001  C 10.986 6.24000000000001  11.518 6.39400000000001  11.91 6.72999999999999  C 12.302 7.066  12.498 7.52799999999999  12.498 8.13  C 12.498 8.71799999999999  12.288 9.208  11.896 9.59999999999999  C 11.462 10.006  10.888 10.216  10.174 10.216  C 9.54400000000001 10.216  9.02600000000001 10.034  8.60599999999999 9.69800000000001  C 8.11600000000001 9.292  7.84999999999999 8.69  7.822 7.90600000000001  L 6.66 7.90600000000001  C 6.744 9.02600000000001  7.136 9.88  7.84999999999999 10.468  C 8.452 10.944  9.22200000000001 11.196  10.174 11.196  C 11.21 11.196  12.05 10.902  12.694 10.314  C 13.324 9.74000000000001  13.646 8.99799999999999  13.646 8.08799999999999  C 13.646 7.5  13.478 7.00999999999999  13.142 6.61799999999999  C 12.834 6.226  12.386 5.946  11.798 5.76400000000001  C 12.89 5.40000000000001  13.436 4.64400000000001  13.436 3.524  C 13.436 2.684  13.142 2.02600000000001  12.568 1.536  Z " fill-rule="nonzero" fill="#000000" stroke="none" fill-opacity="0.898039215686275" transform="matrix(1 0 0 1 170 156 )" />
  </g>
</svg>