<?xml version="1.0" encoding="utf-8"?>
<svg version="1.1" xmlns:xlink="http://www.w3.org/1999/xlink" width="33px" height="12px" xmlns="http://www.w3.org/2000/svg">
  <g transform="matrix(1 0 0 1 -108 -23 )">
    <path d="M 6.622 1.60599999999999  C 6.02 1.074  5.264 0.808000000000007  4.34 0.808000000000007  C 3.33199999999999 0.808000000000007  2.506 1.14400000000001  1.89 1.816  C 1.274 2.474  0.951999999999998 3.37  0.951999999999998 4.48999999999999  L 2.09999999999999 4.48999999999999  C 2.114 3.608  2.324 2.93600000000001  2.71599999999999 2.488  C 3.08 2.012  3.61199999999999 1.788  4.298 1.788  C 4.94199999999999 1.788  5.45999999999999 1.956  5.824 2.292  C 6.188 2.628  6.37 3.09  6.37 3.706  C 6.37 4.34999999999999  6.104 4.952  5.59999999999999 5.498  C 5.334 5.77800000000001  4.816 6.184  4.032 6.744  C 2.968 7.47199999999999  2.254 8.074  1.86199999999999 8.52200000000001  C 1.19 9.264  0.867999999999995 10.09  0.867999999999995 11  L 7.532 11  L 7.532 9.97799999999999  L 2.282 9.97799999999999  C 2.464 9.306  3.19199999999999 8.536  4.46599999999999 7.682  C 5.502 6.982  6.188 6.43600000000001  6.538 6.072  C 7.182 5.372  7.518 4.58799999999999  7.518 3.72  C 7.518 2.852  7.20999999999999 2.13800000000001  6.622 1.60599999999999  Z M 15.297 2.39  C 14.681 1.32599999999999  13.785 0.808000000000007  12.595 0.808000000000007  C 11.391 0.808000000000007  10.495 1.32599999999999  9.893 2.39  C 9.361 3.286  9.095 4.48999999999999  9.095 6.002  C 9.095 7.514  9.361 8.718  9.893 9.614  C 10.495 10.664  11.391 11.196  12.595 11.196  C 13.785 11.196  14.681 10.664  15.297 9.614  C 15.829 8.718  16.095 7.514  16.095 6.002  C 16.095 4.48999999999999  15.829 3.286  15.297 2.39  Z M 10.663 3.23  C 11.055 2.264  11.699 1.788  12.595 1.788  C 13.491 1.788  14.135 2.264  14.527 3.23  C 14.807 3.902  14.961 4.82599999999999  14.961 6.002  C 14.961 7.164  14.807 8.08799999999999  14.527 8.774  C 14.135 9.726  13.491 10.216  12.595 10.216  C 11.699 10.216  11.055 9.726  10.663 8.774  C 10.383 8.08799999999999  10.243 7.164  10.243 6.002  C 10.243 4.82599999999999  10.383 3.902  10.663 3.23  Z M 23.411 1.60599999999999  C 22.809 1.074  22.053 0.808000000000007  21.129 0.808000000000007  C 20.121 0.808000000000007  19.295 1.14400000000001  18.679 1.816  C 18.063 2.474  17.741 3.37  17.741 4.48999999999999  L 18.889 4.48999999999999  C 18.903 3.608  19.113 2.93600000000001  19.505 2.488  C 19.869 2.012  20.401 1.788  21.087 1.788  C 21.731 1.788  22.249 1.956  22.613 2.292  C 22.977 2.628  23.159 3.09  23.159 3.706  C 23.159 4.34999999999999  22.893 4.952  22.389 5.498  C 22.123 5.77800000000001  21.605 6.184  20.821 6.744  C 19.757 7.47199999999999  19.043 8.074  18.651 8.52200000000001  C 17.979 9.264  17.657 10.09  17.657 11  L 24.321 11  L 24.321 9.97799999999999  L 19.071 9.97799999999999  C 19.253 9.306  19.981 8.536  21.255 7.682  C 22.291 6.982  22.977 6.43600000000001  23.327 6.072  C 23.971 5.372  24.307 4.58799999999999  24.307 3.72  C 24.307 2.852  23.999 2.13800000000001  23.411 1.60599999999999  Z M 31.806 1.60599999999999  C 31.204 1.074  30.448 0.808000000000007  29.524 0.808000000000007  C 28.516 0.808000000000007  27.69 1.14400000000001  27.074 1.816  C 26.458 2.474  26.136 3.37  26.136 4.48999999999999  L 27.284 4.48999999999999  C 27.298 3.608  27.508 2.93600000000001  27.9 2.488  C 28.264 2.012  28.796 1.788  29.482 1.788  C 30.126 1.788  30.644 1.956  31.008 2.292  C 31.372 2.628  31.554 3.09  31.554 3.706  C 31.554 4.34999999999999  31.288 4.952  30.784 5.498  C 30.518 5.77800000000001  30 6.184  29.216 6.744  C 28.152 7.47199999999999  27.438 8.074  27.046 8.52200000000001  C 26.374 9.264  26.052 10.09  26.052 11  L 32.716 11  L 32.716 9.97799999999999  L 27.466 9.97799999999999  C 27.648 9.306  28.376 8.536  29.65 7.682  C 30.686 6.982  31.372 6.43600000000001  31.722 6.072  C 32.366 5.372  32.702 4.58799999999999  32.702 3.72  C 32.702 2.852  32.394 2.13800000000001  31.806 1.60599999999999  Z " fill-rule="nonzero" fill="#000000" stroke="none" fill-opacity="0.898039215686275" transform="matrix(1 0 0 1 108 23 )" />
  </g>
</svg>