<?xml version="1.0" encoding="utf-8"?>
<svg version="1.1" xmlns:xlink="http://www.w3.org/1999/xlink" width="16px" height="12px" xmlns="http://www.w3.org/2000/svg">
  <g transform="matrix(1 0 0 1 -95 -216 )">
    <path d="M 5.89400000000001 1.60599999999999  C 5.292 1.07400000000001  4.536 0.807999999999993  3.61199999999999 0.807999999999993  C 2.604 0.807999999999993  1.77800000000001 1.14400000000001  1.16200000000001 1.81599999999997  C 0.546000000000006 2.47399999999999  0.224000000000004 3.37  0.224000000000004 4.49000000000001  L 1.372 4.49000000000001  C 1.386 3.608  1.596 2.93599999999998  1.988 2.488  C 2.352 2.012  2.884 1.78800000000001  3.56999999999999 1.78800000000001  C 4.214 1.78800000000001  4.732 1.95600000000002  5.096 2.29199999999997  C 5.45999999999999 2.62799999999999  5.642 3.08999999999997  5.642 3.70600000000002  C 5.642 4.35000000000002  5.376 4.952  4.872 5.49799999999999  C 4.60599999999999 5.77800000000002  4.08799999999999 6.18400000000003  3.304 6.74400000000003  C 2.23999999999999 7.47199999999998  1.526 8.07400000000001  1.134 8.52199999999999  C 0.462000000000003 9.26400000000001  0.140000000000001 10.09  0.140000000000001 11  L 6.804 11  L 6.804 9.97800000000001  L 1.554 9.97800000000001  C 1.736 9.30599999999998  2.464 8.536  3.738 7.68200000000002  C 4.774 6.98200000000003  5.45999999999999 6.43599999999998  5.81 6.072  C 6.45399999999999 5.37200000000001  6.79000000000001 4.58800000000002  6.79000000000001 3.72000000000003  C 6.79000000000001 2.85199999999998  6.482 2.13799999999998  5.89400000000001 1.60599999999999  Z M 14.947 1.00400000000002  L 9.137 1.00400000000002  L 8.605 6.51999999999998  L 9.697 6.51999999999998  C 9.893 6.12799999999999  10.201 5.81999999999999  10.593 5.62400000000002  C 10.971 5.41399999999999  11.391 5.31599999999997  11.867 5.31599999999997  C 12.595 5.31599999999997  13.169 5.52600000000001  13.575 5.97399999999999  C 13.995 6.40800000000002  14.219 7.024  14.219 7.822  C 14.219 8.52199999999999  13.981 9.096  13.533 9.54399999999998  C 13.071 9.99200000000002  12.497 10.216  11.797 10.216  C 11.181 10.216  10.663 10.062  10.271 9.76799999999997  C 9.82299999999999 9.43200000000002  9.571 8.94200000000001  9.515 8.31200000000001  L 8.381 8.31200000000001  C 8.45099999999999 9.22199999999998  8.82899999999999 9.94999999999999  9.529 10.482  C 10.145 10.958  10.901 11.196  11.783 11.196  C 12.763 11.196  13.603 10.888  14.275 10.286  C 14.989 9.642  15.353 8.81599999999997  15.353 7.80799999999999  C 15.353 6.73000000000002  15.045 5.88999999999999  14.457 5.274  C 13.869 4.67200000000003  13.099 4.37799999999999  12.147 4.37799999999999  C 11.685 4.37799999999999  11.265 4.44799999999998  10.873 4.61599999999999  C 10.439 4.78399999999999  10.075 5.036  9.795 5.37200000000001  L 9.739 5.37200000000001  L 10.075 2.02600000000001  L 14.947 2.02600000000001  L 14.947 1.00400000000002  Z " fill-rule="nonzero" fill="#000000" stroke="none" fill-opacity="0.898039215686275" transform="matrix(1 0 0 1 95 216 )" />
  </g>
</svg>