<?xml version="1.0" encoding="utf-8"?>
<svg version="1.1" xmlns:xlink="http://www.w3.org/1999/xlink" width="16px" height="11px" xmlns="http://www.w3.org/2000/svg">
  <g transform="matrix(1 0 0 1 -244 -186 )">
    <path d="M 6.22699999999998 1.60599999999999  C 5.625 1.07400000000001  4.86900000000003 0.807999999999993  3.94499999999999 0.807999999999993  C 2.93700000000001 0.807999999999993  2.11099999999999 1.14400000000001  1.495 1.816  C 0.878999999999991 2.47399999999999  0.556999999999988 3.37  0.556999999999988 4.49000000000001  L 1.70500000000001 4.49000000000001  C 1.71899999999999 3.608  1.929 2.93600000000001  2.32100000000003 2.488  C 2.685 2.012  3.21699999999998 1.78800000000001  3.90300000000002 1.78800000000001  C 4.54700000000003 1.78800000000001  5.065 1.95599999999999  5.42899999999997 2.292  C 5.79300000000001 2.62799999999999  5.97500000000002 3.09  5.97500000000002 3.70599999999999  C 5.97500000000002 4.34999999999999  5.709 4.952  5.20499999999998 5.49799999999999  C 4.93900000000002 5.77799999999999  4.42099999999999 6.184  3.637 6.744  C 2.57299999999998 7.47200000000001  1.85900000000001 8.07400000000001  1.46700000000001 8.52199999999999  C 0.794999999999987 9.26400000000001  0.473000000000013 10.09  0.473000000000013 11  L 7.137 11  L 7.137 9.97800000000001  L 1.887 9.97800000000001  C 2.06900000000002 9.30600000000001  2.79700000000003 8.536  4.07100000000003 7.68199999999999  C 5.10700000000003 6.982  5.79300000000001 6.43600000000001  6.14299999999997 6.072  C 6.78699999999998 5.37200000000001  7.12299999999999 4.58799999999999  7.12299999999999 3.72  C 7.12299999999999 2.852  6.815 2.13800000000001  6.22699999999998 1.60599999999999  Z M 14.622 1.60599999999999  C 14.02 1.07400000000001  13.264 0.807999999999993  12.34 0.807999999999993  C 11.332 0.807999999999993  10.506 1.14400000000001  9.88999999999999 1.816  C 9.274 2.47399999999999  8.952 3.37  8.952 4.49000000000001  L 10.1 4.49000000000001  C 10.114 3.608  10.324 2.93600000000001  10.716 2.488  C 11.08 2.012  11.612 1.78800000000001  12.298 1.78800000000001  C 12.942 1.78800000000001  13.46 1.95599999999999  13.824 2.292  C 14.188 2.62799999999999  14.37 3.09  14.37 3.70599999999999  C 14.37 4.34999999999999  14.104 4.952  13.6 5.49799999999999  C 13.334 5.77799999999999  12.816 6.184  12.032 6.744  C 10.968 7.47200000000001  10.254 8.07400000000001  9.86200000000002 8.52199999999999  C 9.19 9.26400000000001  8.86799999999999 10.09  8.86799999999999 11  L 15.532 11  L 15.532 9.97800000000001  L 10.282 9.97800000000001  C 10.464 9.30600000000001  11.192 8.536  12.466 7.68199999999999  C 13.502 6.982  14.188 6.43600000000001  14.538 6.072  C 15.182 5.37200000000001  15.518 4.58799999999999  15.518 3.72  C 15.518 2.852  15.21 2.13800000000001  14.622 1.60599999999999  Z " fill-rule="nonzero" fill="#000000" stroke="none" fill-opacity="0.898039215686275" transform="matrix(1 0 0 1 244 186 )" />
  </g>
</svg>