<?xml version="1.0" encoding="utf-8"?>
<svg version="1.1" xmlns:xlink="http://www.w3.org/1999/xlink" width="10px" height="10px" xmlns="http://www.w3.org/2000/svg">
  <g transform="matrix(1 0 0 1 -227 -24 )">
    <path d="M 8.06200000000001 5  C 8.06200000000001 6.6914  6.691 8.0625  5 8.0625  C 3.309 8.0625  1.93799999999999 6.6914  1.93799999999999 5  C 1.93799999999999 3.3086  3.309 1.9375  5 1.9375  C 6.691 1.9375  8.06200000000001 3.3086  8.06200000000001 5  Z M 0.625 5  C 0.625 7.4162  2.584 9.375  5 9.375  C 7.416 9.375  9.375 7.4162  9.375 5  C 9.375 2.5838  7.416 0.625  5 0.625  C 2.584 0.625  0.625 2.5838  0.625 5  Z " fill-rule="nonzero" fill="#000000" stroke="none" fill-opacity="0.898039215686275" transform="matrix(1 0 0 1 227 24 )" />
  </g>
</svg>