<?xml version="1.0" encoding="utf-8"?>
<svg version="1.1" xmlns:xlink="http://www.w3.org/1999/xlink" width="14px" height="11px" xmlns="http://www.w3.org/2000/svg">
  <g transform="matrix(1 0 0 1 -245 -157 )">
    <path d="M 4.10899999999998 0.00399999999999068  L 3.21300000000002 0.00399999999999068  C 2.87700000000001 0.382000000000005  2.48500000000001 0.717999999999989  2.00900000000001 1.02600000000001  C 1.53300000000002 1.30600000000001  1.05700000000002 1.50200000000001  0.609000000000009 1.62799999999999  L 0.609000000000009 2.77600000000001  C 1.54700000000003 2.49600000000001  2.33100000000002 2.048  2.96100000000001 1.404  L 2.96100000000001 10  L 4.10899999999998 10  L 4.10899999999998 0.00399999999999068  Z M 12.892 0.00399999999999068  L 7.08199999999999 0.00399999999999068  L 6.55000000000001 5.52000000000001  L 7.642 5.52000000000001  C 7.83800000000002 5.12799999999999  8.14600000000002 4.81999999999999  8.53800000000001 4.624  C 8.916 4.41399999999999  9.33600000000001 4.316  9.81200000000001 4.316  C 10.54 4.316  11.114 4.52600000000001  11.52 4.97399999999999  C 11.94 5.40799999999999  12.164 6.024  12.164 6.822  C 12.164 7.52199999999999  11.926 8.096  11.478 8.54400000000001  C 11.016 8.99199999999999  10.442 9.21600000000001  9.74200000000002 9.21600000000001  C 9.12599999999998 9.21600000000001  8.608 9.06200000000001  8.21600000000001 8.768  C 7.76799999999997 8.43199999999999  7.51600000000002 7.94200000000001  7.45999999999998 7.31200000000001  L 6.32600000000002 7.31200000000001  C 6.39600000000002 8.22200000000001  6.774 8.94999999999999  7.47399999999999 9.482  C 8.08999999999997 9.958  8.846 10.196  9.72800000000001 10.196  C 10.708 10.196  11.548 9.88800000000001  12.22 9.286  C 12.934 8.642  13.298 7.816  13.298 6.80799999999999  C 13.298 5.72999999999999  12.99 4.88999999999999  12.402 4.274  C 11.814 3.672  11.044 3.37799999999999  10.092 3.37799999999999  C 9.63 3.37799999999999  9.20999999999998 3.44800000000001  8.81799999999998 3.61600000000001  C 8.38400000000001 3.78399999999999  8.01999999999998 4.036  7.74000000000001 4.37200000000001  L 7.68400000000003 4.37200000000001  L 8.01999999999998 1.02600000000001  L 12.892 1.02600000000001  L 12.892 0.00399999999999068  Z " fill-rule="nonzero" fill="#000000" stroke="none" fill-opacity="0.898039215686275" transform="matrix(1 0 0 1 245 157 )" />
  </g>
</svg>