<?xml version="1.0" encoding="utf-8"?>
<svg version="1.1" xmlns:xlink="http://www.w3.org/1999/xlink" width="14px" height="12px" xmlns="http://www.w3.org/2000/svg">
  <g transform="matrix(1 0 0 1 -133 -186 )">
    <path d="M 4.10900000000001 1.00399999999999  L 3.21299999999999 1.00399999999999  C 2.87700000000001 1.38200000000001  2.48500000000001 1.71799999999999  2.00899999999999 2.02600000000001  C 1.53299999999999 2.30600000000001  1.05699999999999 2.50200000000001  0.609000000000009 2.62799999999999  L 0.609000000000009 3.77600000000001  C 1.547 3.49600000000001  2.33099999999999 3.048  2.96100000000001 2.404  L 2.96100000000001 11  L 4.10900000000001 11  L 4.10900000000001 1.00399999999999  Z M 12.43 2.15199999999999  C 11.814 1.256  10.904 0.807999999999993  9.69999999999999 0.807999999999993  C 8.72 0.807999999999993  7.90799999999999 1.13  7.27799999999999 1.78800000000001  C 6.63399999999999 2.43199999999999  6.32599999999999 3.244  6.32599999999999 4.238  C 6.32599999999999 5.20400000000001  6.60599999999999 5.988  7.18000000000001 6.59  C 7.768 7.22  8.53800000000001 7.542  9.50399999999999 7.542  C 10.092 7.542  10.61 7.38800000000001  11.058 7.108  C 11.52 6.81399999999999  11.884 6.40799999999999  12.136 5.904  L 12.192 5.904  C 12.192 6.072  12.206 6.19800000000001  12.206 6.268  C 12.206 7.38800000000001  11.982 8.32599999999999  11.548 9.06800000000001  C 11.086 9.83799999999999  10.47 10.23  9.69999999999999 10.23  C 8.524 10.23  7.83799999999999 9.65600000000001  7.62799999999999 8.52199999999999  L 6.494 8.52199999999999  C 6.75999999999999 10.3  7.82400000000001 11.196  9.68600000000001 11.196  C 10.806 11.196  11.702 10.664  12.374 9.62799999999999  C 12.99 8.62  13.312 7.33199999999999  13.312 5.73599999999999  C 13.312 4.196  13.018 2.99199999999999  12.43 2.15199999999999  Z M 8.07599999999999 2.46000000000001  C 8.49600000000001 1.99799999999999  9.042 1.774  9.72800000000001 1.774  C 10.414 1.774  10.974 2.012  11.394 2.488  C 11.8 2.93600000000001  12.01 3.50999999999999  12.01 4.21000000000001  C 12.01 4.89599999999999  11.786 5.47  11.366 5.91800000000001  C 10.918 6.36600000000001  10.372 6.59  9.72800000000001 6.59  C 9.02799999999999 6.59  8.482 6.36600000000001  8.07599999999999 5.93199999999999  C 7.65600000000001 5.512  7.46000000000001 4.93799999999999  7.46000000000001 4.238  C 7.46000000000001 3.50999999999999  7.65600000000001 2.922  8.07599999999999 2.46000000000001  Z " fill-rule="nonzero" fill="#000000" stroke="none" fill-opacity="0.898039215686275" transform="matrix(1 0 0 1 133 186 )" />
  </g>
</svg>