<?xml version="1.0" encoding="utf-8"?>
<svg version="1.1" xmlns:xlink="http://www.w3.org/1999/xlink" width="15px" height="11px" xmlns="http://www.w3.org/2000/svg">
  <g transform="matrix(1 0 0 1 -170 -216 )">
    <path d="M 5.93000000000001 1.60599999999999  C 5.328 1.07400000000001  4.572 0.807999999999993  3.648 0.807999999999993  C 2.63999999999999 0.807999999999993  1.81399999999999 1.14400000000001  1.19800000000001 1.81599999999997  C 0.581999999999994 2.47399999999999  0.259999999999991 3.37  0.259999999999991 4.49000000000001  L 1.40799999999999 4.49000000000001  C 1.422 3.608  1.63200000000001 2.93599999999998  2.024 2.488  C 2.38800000000001 2.012  2.91999999999999 1.78800000000001  3.60599999999999 1.78800000000001  C 4.25 1.78800000000001  4.768 1.95600000000002  5.13200000000001 2.29199999999997  C 5.49600000000001 2.62799999999999  5.678 3.08999999999997  5.678 3.70600000000002  C 5.678 4.35000000000002  5.41200000000001 4.952  4.90799999999999 5.49799999999999  C 4.642 5.77800000000002  4.124 6.18400000000003  3.34 6.74400000000003  C 2.27600000000001 7.47199999999998  1.56200000000001 8.07400000000001  1.16999999999999 8.52199999999999  C 0.49799999999999 9.26400000000001  0.175999999999988 10.09  0.175999999999988 11  L 6.84 11  L 6.84 9.97800000000001  L 1.59 9.97800000000001  C 1.77199999999999 9.30599999999998  2.5 8.536  3.774 7.68200000000002  C 4.81 6.98200000000003  5.49600000000001 6.43599999999998  5.846 6.072  C 6.49000000000001 5.37200000000001  6.82599999999999 4.58800000000002  6.82599999999999 3.72000000000003  C 6.82599999999999 2.85199999999998  6.518 2.13799999999998  5.93000000000001 1.60599999999999  Z M 14.745 1.00400000000002  L 8.179 1.00400000000002  L 8.179 2.05399999999997  L 13.569 2.05399999999997  L 9.845 11  L 11.063 11  L 14.745 1.94200000000001  L 14.745 1.00400000000002  Z " fill-rule="nonzero" fill="#000000" stroke="none" fill-opacity="0.898039215686275" transform="matrix(1 0 0 1 170 216 )" />
  </g>
</svg>