<?xml version="1.0" encoding="utf-8"?>
<svg version="1.1" xmlns:xlink="http://www.w3.org/1999/xlink" width="8px" height="11px" xmlns="http://www.w3.org/2000/svg">
  <g transform="matrix(1 0 0 1 -24 -126 )">
    <path d="M 6.4247 1.60599999999999  C 5.8227 1.07400000000001  5.0667 0.807999999999993  4.1427 0.807999999999993  C 3.1347 0.807999999999993  2.3087 1.14400000000001  1.6927 1.816  C 1.0767 2.47399999999999  0.7547 3.37  0.7547 4.49000000000001  L 1.9027 4.49000000000001  C 1.9167 3.608  2.1267 2.93600000000001  2.5187 2.488  C 2.8827 2.012  3.4147 1.78800000000001  4.1007 1.78800000000001  C 4.7447 1.78800000000001  5.2627 1.95599999999999  5.6267 2.292  C 5.9907 2.62799999999999  6.1727 3.09  6.1727 3.70599999999999  C 6.1727 4.34999999999999  5.9067 4.952  5.4027 5.49799999999999  C 5.1367 5.77799999999999  4.6187 6.184  3.8347 6.744  C 2.7707 7.47200000000001  2.0567 8.07400000000001  1.6647 8.52199999999999  C 0.992699999999999 9.26400000000001  0.670699999999997 10.09  0.670699999999997 11  L 7.3347 11  L 7.3347 9.97800000000001  L 2.0847 9.97800000000001  C 2.2667 9.30600000000001  2.9947 8.536  4.2687 7.68199999999999  C 5.3047 6.982  5.9907 6.43600000000001  6.3407 6.072  C 6.9847 5.37200000000001  7.3207 4.58799999999999  7.3207 3.72  C 7.3207 2.852  7.0127 2.13800000000001  6.4247 1.60599999999999  Z " fill-rule="nonzero" fill="#000000" stroke="none" fill-opacity="0.898039215686275" transform="matrix(1 0 0 1 24 126 )" />
  </g>
</svg>