<?xml version="1.0" encoding="utf-8"?>
<svg version="1.1" xmlns:xlink="http://www.w3.org/1999/xlink" width="16px" height="11px" xmlns="http://www.w3.org/2000/svg">
  <g transform="matrix(1 0 0 1 -95 -96 )">
    <path d="M 6.26300000000001 1.60599999999999  C 5.661 1.07400000000001  4.905 0.807999999999993  3.98099999999999 0.807999999999993  C 2.973 0.807999999999993  2.14700000000001 1.14400000000001  1.53100000000001 1.816  C 0.915000000000006 2.47399999999999  0.593000000000004 3.37  0.593000000000004 4.49000000000001  L 1.741 4.49000000000001  C 1.755 3.608  1.965 2.93600000000001  2.357 2.488  C 2.721 2.012  3.253 1.78800000000001  3.93899999999999 1.78800000000001  C 4.583 1.78800000000001  5.101 1.95599999999999  5.465 2.292  C 5.82899999999999 2.62799999999999  6.011 3.09  6.011 3.70599999999999  C 6.011 4.34999999999999  5.745 4.952  5.241 5.49799999999999  C 4.97499999999999 5.77799999999999  4.45699999999999 6.184  3.673 6.744  C 2.60899999999999 7.47200000000001  1.895 8.07400000000001  1.503 8.52199999999999  C 0.831000000000003 9.26400000000001  0.509 10.09  0.509 11  L 7.173 11  L 7.173 9.97800000000001  L 1.923 9.97800000000001  C 2.105 9.30600000000001  2.833 8.536  4.107 7.68199999999999  C 5.143 6.982  5.82899999999999 6.43600000000001  6.179 6.072  C 6.82299999999999 5.37200000000001  7.15900000000001 4.58799999999999  7.15900000000001 3.72  C 7.15900000000001 2.852  6.851 2.13800000000001  6.26300000000001 1.60599999999999  Z M 15.078 1.00399999999999  L 8.512 1.00399999999999  L 8.512 2.054  L 13.902 2.054  L 10.178 11  L 11.396 11  L 15.078 1.94200000000001  L 15.078 1.00399999999999  Z " fill-rule="nonzero" fill="#000000" stroke="none" fill-opacity="0.258823529411765" transform="matrix(1 0 0 1 95 96 )" />
  </g>
</svg>