<?xml version="1.0" encoding="utf-8"?>
<svg version="1.1" xmlns:xlink="http://www.w3.org/1999/xlink" width="17px" height="11px" xmlns="http://www.w3.org/2000/svg">
  <g transform="matrix(1 0 0 1 -57 -216 )">
    <path d="M 6.5608 1.60599999999999  C 5.9588 1.07400000000001  5.2028 0.807999999999993  4.2788 0.807999999999993  C 3.27079999999999 0.807999999999993  2.4448 1.14400000000001  1.8288 1.81599999999997  C 1.2128 2.47399999999999  0.890799999999999 3.37  0.890799999999999 4.49000000000001  L 2.03879999999999 4.49000000000001  C 2.0528 3.608  2.2628 2.93599999999998  2.65479999999999 2.488  C 3.0188 2.012  3.5508 1.78800000000001  4.2368 1.78800000000001  C 4.88079999999999 1.78800000000001  5.39879999999999 1.95600000000002  5.7628 2.29199999999997  C 6.1268 2.62799999999999  6.30880000000001 3.08999999999997  6.30880000000001 3.70600000000002  C 6.30880000000001 4.35000000000002  6.0428 4.952  5.53879999999999 5.49799999999999  C 5.2728 5.77800000000002  4.7548 6.18400000000003  3.9708 6.74400000000003  C 2.9068 7.47199999999998  2.19280000000001 8.07400000000001  1.8008 8.52199999999999  C 1.1288 9.26400000000001  0.806799999999996 10.09  0.806799999999996 11  L 7.4708 11  L 7.4708 9.97800000000001  L 2.2208 9.97800000000001  C 2.4028 9.30599999999998  3.13079999999999 8.536  4.40479999999999 7.68200000000002  C 5.4408 6.98200000000003  6.1268 6.43599999999998  6.4768 6.072  C 7.1208 5.37200000000001  7.4568 4.58800000000002  7.4568 3.72000000000003  C 7.4568 2.85199999999998  7.14879999999999 2.13799999999998  6.5608 1.60599999999999  Z M 14.7874 1.00400000000002  L 13.7094 1.00400000000002  L 8.6694 7.63999999999999  L 8.6694 8.73200000000003  L 13.6954 8.73200000000003  L 13.6954 11  L 14.7874 11  L 14.7874 8.73200000000003  L 16.4114 8.73200000000003  L 16.4114 7.79399999999998  L 14.7874 7.79399999999998  L 14.7874 1.00400000000002  Z M 9.6354 7.79399999999998  L 13.6534 2.50200000000001  L 13.6954 2.50200000000001  L 13.6954 7.79399999999998  L 9.6354 7.79399999999998  Z " fill-rule="nonzero" fill="#000000" stroke="none" fill-opacity="0.898039215686275" transform="matrix(1 0 0 1 57 216 )" />
  </g>
</svg>