<?xml version="1.0" encoding="utf-8"?>
<svg version="1.1" xmlns:xlink="http://www.w3.org/1999/xlink" width="16px" height="12px" xmlns="http://www.w3.org/2000/svg">
  <g transform="matrix(1 0 0 1 -132 -216 )">
    <path d="M 6.227 1.60599999999999  C 5.625 1.07400000000001  4.869 0.807999999999993  3.94499999999999 0.807999999999993  C 2.93700000000001 0.807999999999993  2.11099999999999 1.14400000000001  1.495 1.81599999999997  C 0.878999999999991 2.47399999999999  0.556999999999988 3.37  0.556999999999988 4.49000000000001  L 1.70500000000001 4.49000000000001  C 1.71899999999999 3.608  1.929 2.93599999999998  2.321 2.488  C 2.685 2.012  3.21700000000001 1.78800000000001  3.90299999999999 1.78800000000001  C 4.547 1.78800000000001  5.065 1.95600000000002  5.429 2.29199999999997  C 5.79300000000001 2.62799999999999  5.97499999999999 3.08999999999997  5.97499999999999 3.70600000000002  C 5.97499999999999 4.35000000000002  5.709 4.952  5.20500000000001 5.49799999999999  C 4.93899999999999 5.77800000000002  4.42099999999999 6.18400000000003  3.637 6.74400000000003  C 2.57300000000001 7.47199999999998  1.85900000000001 8.07400000000001  1.46700000000001 8.52199999999999  C 0.794999999999987 9.26400000000001  0.473000000000013 10.09  0.473000000000013 11  L 7.137 11  L 7.137 9.97800000000001  L 1.887 9.97800000000001  C 2.06899999999999 9.30599999999998  2.797 8.536  4.071 7.68200000000002  C 5.107 6.98200000000003  5.79300000000001 6.43599999999998  6.143 6.072  C 6.78700000000001 5.37200000000001  7.12299999999999 4.58800000000002  7.12299999999999 3.72000000000003  C 7.12299999999999 2.85199999999998  6.815 2.13799999999998  6.227 1.60599999999999  Z M 15.532 3.48200000000003  C 15.252 1.69  14.188 0.807999999999993  12.34 0.807999999999993  C 11.206 0.807999999999993  10.31 1.32600000000002  9.65199999999999 2.37599999999998  C 9.02199999999999 3.37  8.714 4.67200000000003  8.714 6.26799999999997  C 8.714 7.79399999999998  8.994 8.98399999999998  9.58199999999999 9.83800000000002  C 10.198 10.734  11.108 11.196  12.326 11.196  C 13.306 11.196  14.104 10.86  14.748 10.216  C 15.378 9.572  15.7 8.74599999999998  15.7 7.76600000000002  C 15.7 6.786  15.406 6.00200000000001  14.832 5.38600000000002  C 14.244 4.76999999999998  13.474 4.46199999999999  12.522 4.46199999999999  C 11.934 4.46199999999999  11.416 4.60199999999998  10.968 4.89600000000002  C 10.492 5.17599999999999  10.142 5.58199999999999  9.88999999999999 6.10000000000002  L 9.834 6.10000000000002  C 9.81999999999999 5.91800000000001  9.81999999999999 5.79199999999997  9.81999999999999 5.73599999999999  C 9.81999999999999 4.60199999999998  10.03 3.66399999999999  10.478 2.93599999999998  C 10.926 2.15199999999999  11.542 1.774  12.326 1.774  C 13.488 1.774  14.174 2.334  14.398 3.48200000000003  L 15.532 3.48200000000003  Z M 10.66 6.08600000000001  C 11.094 5.63799999999998  11.64 5.41399999999999  12.298 5.41399999999999  C 12.984 5.41399999999999  13.53 5.62400000000002  13.95 6.072  C 14.356 6.49200000000002  14.566 7.05200000000002  14.566 7.76600000000002  C 14.566 8.48000000000002  14.356 9.06799999999998  13.936 9.54399999999998  C 13.516 9.99200000000002  12.97 10.23  12.298 10.23  C 11.598 10.23  11.052 9.99200000000002  10.632 9.51600000000002  C 10.212 9.06799999999998  10.016 8.49400000000003  10.016 7.79399999999998  C 10.016 7.09399999999999  10.226 6.53399999999999  10.66 6.08600000000001  Z " fill-rule="nonzero" fill="#000000" stroke="none" fill-opacity="0.898039215686275" transform="matrix(1 0 0 1 132 216 )" />
  </g>
</svg>