<?xml version="1.0" encoding="utf-8"?>
<svg version="1.1" xmlns:xlink="http://www.w3.org/1999/xlink" width="21px" height="11px" xmlns="http://www.w3.org/2000/svg">
  <g transform="matrix(1 0 0 1 -129 -67 )">
    <path d="M 1.96700000000001 0.00400000000000489  L 0.679000000000002 0.00400000000000489  L 3.54900000000001 10  L 4.82300000000001 10  L 7.10499999999999 1.67  L 7.14699999999999 1.67  L 9.41499999999999 10  L 10.689 10  L 13.559 0.00400000000000489  L 12.271 0.00400000000000489  L 10.073 8.39  L 10.017 8.39  L 7.749 0.00400000000000489  L 6.50299999999999 0.00400000000000489  L 4.221 8.39  L 4.16499999999999 8.39  L 1.96700000000001 0.00400000000000489  Z M 20.107 3.742  C 19.519 2.958  18.637 2.566  17.475 2.566  C 16.425 2.566  15.599 2.944  14.983 3.7  C 14.367 4.414  14.073 5.31  14.073 6.374  C 14.073 7.55  14.381 8.474  15.025 9.17400000000001  C 15.641 9.846  16.481 10.196  17.517 10.196  C 18.455 10.196  19.225 9.916  19.827 9.384  C 20.317 8.93600000000001  20.639 8.376  20.807 7.676  L 19.687 7.676  C 19.505 8.18000000000001  19.267 8.55800000000001  18.959 8.81  C 18.595 9.104  18.105 9.258  17.517 9.258  C 16.831 9.258  16.285 9.03400000000001  15.893 8.586  C 15.501 8.13800000000001  15.291 7.508  15.235 6.696  L 20.947 6.696  C 20.919 5.43600000000001  20.639 4.44199999999999  20.107 3.742  Z M 15.949 4.134  C 16.341 3.714  16.859 3.504  17.503 3.504  C 18.875 3.504  19.645 4.274  19.785 5.828  L 15.263 5.828  C 15.333 5.114  15.557 4.554  15.949 4.134  Z " fill-rule="nonzero" fill="#000000" stroke="none" fill-opacity="0.4" transform="matrix(1 0 0 1 129 67 )" />
  </g>
</svg>