<?xml version="1.0" encoding="utf-8"?>
<svg version="1.1" xmlns:xlink="http://www.w3.org/1999/xlink" width="8px" height="12px" xmlns="http://www.w3.org/2000/svg">
  <g transform="matrix(1 0 0 1 -248 -126 )">
    <path d="M 6.45299999999997 1.62  C 5.86500000000001 1.07400000000001  5.03899999999999 0.807999999999993  4.00299999999999 0.807999999999993  C 2.95299999999997 0.807999999999993  2.14100000000002 1.07400000000001  1.553 1.62  C 1.00700000000001 2.11000000000001  0.740999999999985 2.726  0.740999999999985 3.45400000000001  C 0.740999999999985 3.98599999999999  0.867000000000019 4.434  1.11900000000003 4.798  C 1.38499999999999 5.19  1.77699999999999 5.48400000000001  2.30900000000003 5.666  L 2.30900000000003 5.69399999999999  C 1.77699999999999 5.81999999999999  1.34300000000002 6.114  0.978999999999985 6.56200000000001  C 0.586999999999989 7.03800000000001  0.39100000000002 7.59800000000001  0.39100000000002 8.24199999999999  C 0.39100000000002 9.124  0.699000000000012 9.83799999999999  1.315 10.37  C 1.94499999999999 10.916  2.84100000000001 11.196  4.00299999999999 11.196  C 5.15100000000001 11.196  6.04700000000003 10.916  6.69099999999997 10.37  C 7.30700000000002 9.83799999999999  7.61500000000001 9.124  7.61500000000001 8.24199999999999  C 7.61500000000001 7.59800000000001  7.41899999999998 7.03800000000001  7.02699999999999 6.56200000000001  C 6.66300000000001 6.114  6.21499999999997 5.81999999999999  5.697 5.69399999999999  L 5.697 5.666  C 6.21499999999997 5.48400000000001  6.60700000000003 5.19  6.887 4.798  C 7.13900000000001 4.434  7.26499999999999 3.98599999999999  7.26499999999999 3.45400000000001  C 7.26499999999999 2.726  6.98500000000001 2.11000000000001  6.45299999999997 1.62  Z M 2.33699999999999 2.292  C 2.72899999999998 1.928  3.28899999999999 1.74600000000001  4.00299999999999 1.74600000000001  C 4.70299999999997 1.74600000000001  5.26299999999998 1.928  5.66899999999998 2.292  C 6.005 2.59999999999999  6.18700000000001 3.006  6.18700000000001 3.49600000000001  C 6.18700000000001 4  6.03300000000002 4.41999999999999  5.72500000000002 4.72800000000001  C 5.34699999999998 5.09200000000001  4.77300000000002 5.28800000000001  4.00299999999999 5.28800000000001  C 3.21899999999999 5.28800000000001  2.64499999999998 5.09200000000001  2.28100000000001 4.72800000000001  C 1.97300000000001 4.41999999999999  1.81900000000002 4  1.81900000000002 3.49600000000001  C 1.81900000000002 3.006  1.98700000000002 2.59999999999999  2.33699999999999 2.292  Z M 2.14100000000002 6.786  C 2.57499999999999 6.38  3.19099999999997 6.184  4.00299999999999 6.184  C 4.80099999999999 6.184  5.43099999999998 6.38  5.87900000000002 6.786  C 6.27100000000002 7.15000000000001  6.48099999999999 7.63999999999999  6.48099999999999 8.24199999999999  C 6.48099999999999 8.83000000000001  6.27100000000002 9.30600000000001  5.87900000000002 9.66999999999999  C 5.43099999999998 10.062  4.815 10.258  4.00299999999999 10.258  C 3.19099999999997 10.258  2.56099999999998 10.062  2.14100000000002 9.684  C 1.721 9.31999999999999  1.52499999999998 8.83000000000001  1.52499999999998 8.24199999999999  C 1.52499999999998 7.63999999999999  1.721 7.15000000000001  2.14100000000002 6.786  Z " fill-rule="nonzero" fill="#000000" stroke="none" fill-opacity="0.898039215686275" transform="matrix(1 0 0 1 248 126 )" />
  </g>
</svg>