<?xml version="1.0" encoding="utf-8"?>
<svg version="1.1" xmlns:xlink="http://www.w3.org/1999/xlink" width="14px" height="10px" xmlns="http://www.w3.org/2000/svg">
  <g transform="matrix(1 0 0 1 -208 -157 )">
    <path d="M 3.77600000000001 0.00399999999999068  L 2.88 0.00399999999999068  C 2.54400000000001 0.382000000000005  2.15199999999999 0.717999999999989  1.67599999999999 1.02600000000001  C 1.19999999999999 1.30600000000001  0.72399999999999 1.50200000000001  0.27600000000001 1.62799999999999  L 0.27600000000001 2.77600000000001  C 1.214 2.49600000000001  1.99799999999999 2.048  2.62799999999999 1.404  L 2.62799999999999 10  L 3.77600000000001 10  L 3.77600000000001 0.00399999999999068  Z M 11.733 0.00399999999999068  L 10.655 0.00399999999999068  L 5.61500000000001 6.63999999999999  L 5.61500000000001 7.732  L 10.641 7.732  L 10.641 10  L 11.733 10  L 11.733 7.732  L 13.357 7.732  L 13.357 6.79400000000001  L 11.733 6.79400000000001  L 11.733 0.00399999999999068  Z M 6.58099999999999 6.79400000000001  L 10.599 1.50200000000001  L 10.641 1.50200000000001  L 10.641 6.79400000000001  L 6.58099999999999 6.79400000000001  Z " fill-rule="nonzero" fill="#000000" stroke="none" fill-opacity="0.898039215686275" transform="matrix(1 0 0 1 208 157 )" />
  </g>
</svg>