<?xml version="1.0" encoding="utf-8"?>
<svg version="1.1" xmlns:xlink="http://www.w3.org/1999/xlink" width="16px" height="12px" xmlns="http://www.w3.org/2000/svg">
  <g transform="matrix(1 0 0 1 -20 -246 )">
    <path d="M 6.2275 1.536  C 5.6395 1.04599999999999  4.8555 0.807999999999993  3.9035 0.807999999999993  C 2.9515 0.807999999999993  2.1815 1.07400000000001  1.5935 1.62  C 0.977499999999999 2.166  0.613499999999998 2.92200000000003  0.529499999999999 3.88799999999998  L 1.6635 3.88799999999998  C 1.7335 3.21600000000001  1.9575 2.69799999999998  2.3495 2.334  C 2.7275 1.97000000000003  3.2455 1.80200000000002  3.9175 1.80200000000002  C 4.5615 1.80200000000002  5.0795 1.95600000000002  5.4435 2.29199999999997  C 5.7795 2.60000000000002  5.9615 3.03399999999999  5.9615 3.59399999999999  C 5.9615 4.154  5.7795 4.58800000000002  5.4295 4.89600000000002  C 5.0795 5.19  4.5755 5.34399999999999  3.9035 5.34399999999999  L 3.1335 5.34399999999999  L 3.1335 6.24000000000001  L 3.9455 6.24000000000001  C 4.6455 6.24000000000001  5.1775 6.39400000000001  5.5695 6.73000000000002  C 5.9615 7.06599999999997  6.1575 7.52800000000002  6.1575 8.13  C 6.1575 8.71800000000002  5.9475 9.20800000000003  5.5555 9.60000000000002  C 5.1215 10.006  4.5475 10.216  3.8335 10.216  C 3.2035 10.216  2.6855 10.034  2.2655 9.69799999999998  C 1.7755 9.29199999999997  1.5095 8.69  1.4815 7.90600000000001  L 0.319500000000001 7.90600000000001  C 0.403500000000001 9.02600000000001  0.795500000000001 9.88  1.5095 10.468  C 2.1115 10.944  2.8815 11.196  3.8335 11.196  C 4.8695 11.196  5.7095 10.902  6.3535 10.314  C 6.9835 9.74000000000001  7.3055 8.99799999999999  7.3055 8.08800000000002  C 7.3055 7.5  7.1375 7.00999999999999  6.8015 6.61799999999999  C 6.4935 6.226  6.0455 5.94600000000003  5.4575 5.76400000000001  C 6.5495 5.39999999999998  7.0955 4.64400000000001  7.0955 3.524  C 7.0955 2.68400000000003  6.8015 2.02600000000001  6.2275 1.536  Z M 14.902 2.38999999999999  C 14.286 1.32600000000002  13.39 0.807999999999993  12.2 0.807999999999993  C 10.996 0.807999999999993  10.1 1.32600000000002  9.498 2.38999999999999  C 8.966 3.286  8.7 4.49000000000001  8.7 6.00200000000001  C 8.7 7.51400000000001  8.966 8.71800000000002  9.498 9.61399999999998  C 10.1 10.664  10.996 11.196  12.2 11.196  C 13.39 11.196  14.286 10.664  14.902 9.61399999999998  C 15.434 8.71800000000002  15.7 7.51400000000001  15.7 6.00200000000001  C 15.7 4.49000000000001  15.434 3.286  14.902 2.38999999999999  Z M 10.268 3.23000000000002  C 10.66 2.26400000000001  11.304 1.78800000000001  12.2 1.78800000000001  C 13.096 1.78800000000001  13.74 2.26400000000001  14.132 3.23000000000002  C 14.412 3.90199999999999  14.566 4.82600000000002  14.566 6.00200000000001  C 14.566 7.16399999999999  14.412 8.08800000000002  14.132 8.774  C 13.74 9.726  13.096 10.216  12.2 10.216  C 11.304 10.216  10.66 9.726  10.268 8.774  C 9.988 8.08800000000002  9.848 7.16399999999999  9.848 6.00200000000001  C 9.848 4.82600000000002  9.988 3.90199999999999  10.268 3.23000000000002  Z " fill-rule="nonzero" fill="#000000" stroke="none" fill-opacity="0.898039215686275" transform="matrix(1 0 0 1 20 246 )" />
  </g>
</svg>