<?xml version="1.0" encoding="utf-8"?>
<svg version="1.1" xmlns:xlink="http://www.w3.org/1999/xlink" width="8px" height="11px" xmlns="http://www.w3.org/2000/svg">
  <g transform="matrix(1 0 0 1 -248 -247 )">
    <path d="M 7.08300000000003 0.0040000000000191  L 1.27300000000002 0.0040000000000191  L 0.740999999999985 5.51999999999998  L 1.83300000000003 5.51999999999998  C 2.029 5.12799999999999  2.33699999999999 4.81999999999999  2.72899999999998 4.62400000000002  C 3.10700000000003 4.41399999999999  3.52699999999999 4.31599999999997  4.00299999999999 4.31599999999997  C 4.73099999999999 4.31599999999997  5.30500000000001 4.52600000000001  5.71100000000001 4.97399999999999  C 6.13099999999997 5.40800000000002  6.35500000000002 6.024  6.35500000000002 6.822  C 6.35500000000002 7.52199999999999  6.11700000000002 8.096  5.66899999999998 8.54399999999998  C 5.20699999999999 8.99200000000002  4.63299999999998 9.21600000000001  3.93299999999999 9.21600000000001  C 3.31700000000001 9.21600000000001  2.79899999999998 9.06200000000001  2.40699999999998 8.76799999999997  C 1.959 8.43200000000002  1.70699999999999 7.94200000000001  1.65100000000001 7.31200000000001  L 0.516999999999996 7.31200000000001  C 0.586999999999989 8.22199999999998  0.964999999999975 8.94999999999999  1.66500000000002 9.48200000000003  C 2.28100000000001 9.95800000000003  3.03699999999998 10.196  3.91899999999998 10.196  C 4.899 10.196  5.73899999999998 9.88799999999998  6.411 9.286  C 7.125 8.642  7.48899999999998 7.81599999999997  7.48899999999998 6.80799999999999  C 7.48899999999998 5.73000000000002  7.18099999999998 4.88999999999999  6.59300000000002 4.274  C 6.005 3.67200000000003  5.23500000000001 3.37799999999999  4.28300000000002 3.37799999999999  C 3.82100000000003 3.37799999999999  3.40100000000001 3.44799999999998  3.00900000000001 3.61599999999999  C 2.57499999999999 3.78399999999999  2.21100000000001 4.036  1.93099999999998 4.37200000000001  L 1.875 4.37200000000001  L 2.21100000000001 1.02600000000001  L 7.08300000000003 1.02600000000001  L 7.08300000000003 0.0040000000000191  Z " fill-rule="nonzero" fill="#000000" stroke="none" fill-opacity="0.258823529411765" transform="matrix(1 0 0 1 248 247 )" />
  </g>
</svg>