<?xml version="1.0" encoding="utf-8"?>
<svg version="1.1" xmlns:xlink="http://www.w3.org/1999/xlink" width="16px" height="12px" xmlns="http://www.w3.org/2000/svg">
  <g transform="matrix(1 0 0 1 -244 -216 )">
    <path d="M 6.22699999999998 1.60599999999999  C 5.625 1.07400000000001  4.86900000000003 0.807999999999993  3.94499999999999 0.807999999999993  C 2.93700000000001 0.807999999999993  2.11099999999999 1.14400000000001  1.495 1.81599999999997  C 0.878999999999991 2.47399999999999  0.556999999999988 3.37  0.556999999999988 4.49000000000001  L 1.70500000000001 4.49000000000001  C 1.71899999999999 3.608  1.929 2.93599999999998  2.32100000000003 2.488  C 2.685 2.012  3.21699999999998 1.78800000000001  3.90300000000002 1.78800000000001  C 4.54700000000003 1.78800000000001  5.065 1.95600000000002  5.42899999999997 2.29199999999997  C 5.79300000000001 2.62799999999999  5.97500000000002 3.08999999999997  5.97500000000002 3.70600000000002  C 5.97500000000002 4.35000000000002  5.709 4.952  5.20499999999998 5.49799999999999  C 4.93900000000002 5.77800000000002  4.42099999999999 6.18400000000003  3.637 6.74400000000003  C 2.57299999999998 7.47199999999998  1.85900000000001 8.07400000000001  1.46700000000001 8.52199999999999  C 0.794999999999987 9.26400000000001  0.473000000000013 10.09  0.473000000000013 11  L 7.137 11  L 7.137 9.97800000000001  L 1.887 9.97800000000001  C 2.06900000000002 9.30599999999998  2.79700000000003 8.536  4.07100000000003 7.68200000000002  C 5.10700000000003 6.98200000000003  5.79300000000001 6.43599999999998  6.14299999999997 6.072  C 6.78699999999998 5.37200000000001  7.12299999999999 4.58800000000002  7.12299999999999 3.72000000000003  C 7.12299999999999 2.85199999999998  6.815 2.13799999999998  6.22699999999998 1.60599999999999  Z M 14.818 2.15199999999999  C 14.202 1.25599999999997  13.292 0.807999999999993  12.088 0.807999999999993  C 11.108 0.807999999999993  10.296 1.13  9.666 1.78800000000001  C 9.02199999999999 2.43200000000002  8.714 3.24400000000003  8.714 4.238  C 8.714 5.20400000000001  8.99400000000003 5.988  9.56799999999998 6.58999999999997  C 10.156 7.22000000000003  10.926 7.54199999999997  11.892 7.54199999999997  C 12.48 7.54199999999997  12.998 7.38799999999998  13.446 7.108  C 13.908 6.81400000000002  14.272 6.40800000000002  14.524 5.904  L 14.58 5.904  C 14.58 6.072  14.594 6.19799999999998  14.594 6.26799999999997  C 14.594 7.38799999999998  14.37 8.32600000000002  13.936 9.06799999999998  C 13.474 9.83800000000002  12.858 10.23  12.088 10.23  C 10.912 10.23  10.226 9.65600000000001  10.016 8.52199999999999  L 8.88200000000001 8.52199999999999  C 9.14800000000002 10.3  10.212 11.196  12.074 11.196  C 13.194 11.196  14.09 10.664  14.762 9.62799999999999  C 15.378 8.62  15.7 7.33199999999999  15.7 5.73599999999999  C 15.7 4.19600000000003  15.406 2.99200000000002  14.818 2.15199999999999  Z M 10.464 2.45999999999998  C 10.884 1.99799999999999  11.43 1.774  12.116 1.774  C 12.802 1.774  13.362 2.012  13.782 2.488  C 14.188 2.93599999999998  14.398 3.50999999999999  14.398 4.20999999999998  C 14.398 4.89600000000002  14.174 5.47000000000003  13.754 5.91800000000001  C 13.306 6.36599999999999  12.76 6.58999999999997  12.116 6.58999999999997  C 11.416 6.58999999999997  10.87 6.36599999999999  10.464 5.93200000000002  C 10.044 5.512  9.84800000000001 4.93799999999999  9.84800000000001 4.238  C 9.84800000000001 3.50999999999999  10.044 2.92200000000003  10.464 2.45999999999998  Z " fill-rule="nonzero" fill="#000000" stroke="none" fill-opacity="0.898039215686275" transform="matrix(1 0 0 1 244 216 )" />
  </g>
</svg>