<?xml version="1.0" encoding="utf-8"?>
<svg version="1.1" xmlns:xlink="http://www.w3.org/1999/xlink" width="8px" height="11px" xmlns="http://www.w3.org/2000/svg">
  <g transform="matrix(1 0 0 1 -136 -246 )">
    <path d="M 6.42500000000001 1.60599999999999  C 5.82300000000001 1.07400000000001  5.06700000000001 0.807999999999993  4.143 0.807999999999993  C 3.13499999999999 0.807999999999993  2.309 1.14400000000001  1.69300000000001 1.81599999999997  C 1.077 2.47399999999999  0.754999999999995 3.37  0.754999999999995 4.49000000000001  L 1.90299999999999 4.49000000000001  C 1.917 3.608  2.12700000000001 2.93599999999998  2.51900000000001 2.488  C 2.88300000000001 2.012  3.41499999999999 1.78800000000001  4.101 1.78800000000001  C 4.745 1.78800000000001  5.26300000000001 1.95600000000002  5.62700000000001 2.29199999999997  C 5.99100000000001 2.62799999999999  6.173 3.08999999999997  6.173 3.70600000000002  C 6.173 4.35000000000002  5.90700000000001 4.952  5.40299999999999 5.49799999999999  C 5.137 5.77800000000002  4.619 6.18400000000003  3.83500000000001 6.74400000000003  C 2.77099999999999 7.47199999999998  2.05699999999999 8.07400000000001  1.66499999999999 8.52199999999999  C 0.992999999999995 9.26400000000001  0.670999999999992 10.09  0.670999999999992 11  L 7.33500000000001 11  L 7.33500000000001 9.97800000000001  L 2.08500000000001 9.97800000000001  C 2.267 9.30599999999998  2.995 8.536  4.26900000000001 7.68200000000002  C 5.30500000000001 6.98200000000003  5.99100000000001 6.43599999999998  6.34100000000001 6.072  C 6.98500000000001 5.37200000000001  7.321 4.58800000000002  7.321 3.72000000000003  C 7.321 2.85199999999998  7.01300000000001 2.13799999999998  6.42500000000001 1.60599999999999  Z " fill-rule="nonzero" fill="#000000" stroke="none" fill-opacity="0.258823529411765" transform="matrix(1 0 0 1 136 246 )" />
  </g>
</svg>