<?xml version="1.0" encoding="utf-8"?>
<svg version="1.1" xmlns:xlink="http://www.w3.org/1999/xlink" width="8px" height="12px" xmlns="http://www.w3.org/2000/svg">
  <g transform="matrix(1 0 0 1 -61 -126 )">
    <path d="M 6.7581 1.536  C 6.17010000000001 1.04599999999999  5.3861 0.807999999999993  4.4341 0.807999999999993  C 3.4821 0.807999999999993  2.71210000000001 1.07400000000001  2.1241 1.62  C 1.5081 2.166  1.14409999999999 2.922  1.06010000000001 3.88800000000001  L 2.19410000000001 3.88800000000001  C 2.2641 3.21600000000001  2.4881 2.69800000000001  2.8801 2.334  C 3.2581 1.97  3.7761 1.80199999999999  4.4481 1.80199999999999  C 5.0921 1.80199999999999  5.6101 1.95599999999999  5.97410000000001 2.292  C 6.31010000000001 2.59999999999999  6.49209999999999 3.03399999999999  6.49209999999999 3.59399999999999  C 6.49209999999999 4.154  6.31010000000001 4.58799999999999  5.9601 4.89599999999999  C 5.6101 5.19  5.1061 5.34399999999999  4.4341 5.34399999999999  L 3.6641 5.34399999999999  L 3.6641 6.24000000000001  L 4.4761 6.24000000000001  C 5.17610000000001 6.24000000000001  5.7081 6.39400000000001  6.1001 6.72999999999999  C 6.49209999999999 7.066  6.68810000000001 7.52799999999999  6.68810000000001 8.13  C 6.68810000000001 8.71799999999999  6.4781 9.208  6.0861 9.59999999999999  C 5.6521 10.006  5.07810000000001 10.216  4.36409999999999 10.216  C 3.7341 10.216  3.2161 10.034  2.7961 9.69800000000001  C 2.3061 9.292  2.0401 8.69  2.0121 7.90600000000001  L 0.850099999999998 7.90600000000001  C 0.934100000000001 9.02600000000001  1.3261 9.88  2.0401 10.468  C 2.6421 10.944  3.4121 11.196  4.36409999999999 11.196  C 5.40009999999999 11.196  6.2401 10.902  6.8841 10.314  C 7.5141 9.74000000000001  7.8361 8.99799999999999  7.8361 8.08799999999999  C 7.8361 7.5  7.6681 7.00999999999999  7.3321 6.61799999999999  C 7.0241 6.226  6.5761 5.946  5.9881 5.76400000000001  C 7.0801 5.40000000000001  7.62609999999999 4.64400000000001  7.62609999999999 3.524  C 7.62609999999999 2.684  7.3321 2.02600000000001  6.7581 1.536  Z " fill-rule="nonzero" fill="#000000" stroke="none" fill-opacity="0.898039215686275" transform="matrix(1 0 0 1 61 126 )" />
  </g>
</svg>