<?xml version="1.0" encoding="utf-8"?>
<svg version="1.1" xmlns:xlink="http://www.w3.org/1999/xlink" width="16px" height="12px" xmlns="http://www.w3.org/2000/svg">
  <g transform="matrix(1 0 0 1 -20 -216 )">
    <path d="M 6.2275 1.60599999999999  C 5.6255 1.07400000000001  4.8695 0.807999999999993  3.9455 0.807999999999993  C 2.9375 0.807999999999993  2.1115 1.14400000000001  1.4955 1.81599999999997  C 0.8795 2.47399999999999  0.557500000000001 3.37  0.557500000000001 4.49000000000001  L 1.7055 4.49000000000001  C 1.7195 3.608  1.9295 2.93599999999998  2.3215 2.488  C 2.6855 2.012  3.2175 1.78800000000001  3.9035 1.78800000000001  C 4.5475 1.78800000000001  5.0655 1.95600000000002  5.4295 2.29199999999997  C 5.7935 2.62799999999999  5.9755 3.08999999999997  5.9755 3.70600000000002  C 5.9755 4.35000000000002  5.7095 4.952  5.2055 5.49799999999999  C 4.9395 5.77800000000002  4.4215 6.18400000000003  3.6375 6.74400000000003  C 2.5735 7.47199999999998  1.8595 8.07400000000001  1.4675 8.52199999999999  C 0.795500000000001 9.26400000000001  0.473500000000001 10.09  0.473500000000001 11  L 7.1375 11  L 7.1375 9.97800000000001  L 1.8875 9.97800000000001  C 2.0695 9.30599999999998  2.7975 8.536  4.0715 7.68200000000002  C 5.1075 6.98200000000003  5.7935 6.43599999999998  6.1435 6.072  C 6.7875 5.37200000000001  7.1235 4.58800000000002  7.1235 3.72000000000003  C 7.1235 2.85199999999998  6.8155 2.13799999999998  6.2275 1.60599999999999  Z M 14.622 1.536  C 14.034 1.04599999999999  13.25 0.807999999999993  12.298 0.807999999999993  C 11.346 0.807999999999993  10.576 1.07400000000001  9.988 1.62  C 9.372 2.166  9.008 2.92200000000003  8.924 3.88799999999998  L 10.058 3.88799999999998  C 10.128 3.21600000000001  10.352 2.69799999999998  10.744 2.334  C 11.122 1.97000000000003  11.64 1.80200000000002  12.312 1.80200000000002  C 12.956 1.80200000000002  13.474 1.95600000000002  13.838 2.29199999999997  C 14.174 2.60000000000002  14.356 3.03399999999999  14.356 3.59399999999999  C 14.356 4.154  14.174 4.58800000000002  13.824 4.89600000000002  C 13.474 5.19  12.97 5.34399999999999  12.298 5.34399999999999  L 11.528 5.34399999999999  L 11.528 6.24000000000001  L 12.34 6.24000000000001  C 13.04 6.24000000000001  13.572 6.39400000000001  13.964 6.73000000000002  C 14.356 7.06599999999997  14.552 7.52800000000002  14.552 8.13  C 14.552 8.71800000000002  14.342 9.20800000000003  13.95 9.60000000000002  C 13.516 10.006  12.942 10.216  12.228 10.216  C 11.598 10.216  11.08 10.034  10.66 9.69799999999998  C 10.17 9.29199999999997  9.904 8.69  9.876 7.90600000000001  L 8.714 7.90600000000001  C 8.798 9.02600000000001  9.19 9.88  9.904 10.468  C 10.506 10.944  11.276 11.196  12.228 11.196  C 13.264 11.196  14.104 10.902  14.748 10.314  C 15.378 9.74000000000001  15.7 8.99799999999999  15.7 8.08800000000002  C 15.7 7.5  15.532 7.00999999999999  15.196 6.61799999999999  C 14.888 6.226  14.44 5.94600000000003  13.852 5.76400000000001  C 14.944 5.39999999999998  15.49 4.64400000000001  15.49 3.524  C 15.49 2.68400000000003  15.196 2.02600000000001  14.622 1.536  Z " fill-rule="nonzero" fill="#000000" stroke="none" fill-opacity="0.898039215686275" transform="matrix(1 0 0 1 20 216 )" />
  </g>
</svg>