<?xml version="1.0" encoding="utf-8"?>
<svg version="1.1" xmlns:xlink="http://www.w3.org/1999/xlink" width="23px" height="12px" xmlns="http://www.w3.org/2000/svg">
  <g transform="matrix(1 0 0 1 -20 -23 )">
    <path d="M 8.918 2.306  C 8.05 1.298  6.86 0.808000000000007  5.376 0.808000000000007  C 3.864 0.808000000000007  2.688 1.312  1.82 2.31999999999999  C 0.994 3.27200000000001  0.588000000000001 4.504  0.588000000000001 6.01600000000001  C 0.588000000000001 7.514  0.994 8.746  1.82 9.69799999999999  C 2.688 10.692  3.864 11.196  5.362 11.196  C 6.86 11.196  8.05 10.692  8.918 9.69799999999999  C 9.73 8.746  10.15 7.52800000000001  10.15 6.01600000000001  C 10.15 4.48999999999999  9.73 3.258  8.918 2.306  Z M 2.66 3.02  C 3.318 2.22199999999999  4.228 1.83  5.376 1.83  C 6.524 1.83  7.42 2.208  8.064 2.97799999999999  C 8.68 3.73399999999999  9.002 4.742  9.002 6.01600000000001  C 9.002 7.276  8.68 8.27  8.064 9.026  C 7.42 9.782  6.51 10.174  5.362 10.174  C 4.214 10.174  3.304 9.782  2.66 8.998  C 2.044 8.242  1.736 7.248  1.736 6.01600000000001  C 1.736 4.77  2.044 3.776  2.66 3.02  Z M 16.8784 4.196  C 16.3324 3.776  15.6184 3.566  14.7224 3.566  C 13.6444 3.566  12.7904 3.944  12.1744 4.714  C 11.6004 5.414  11.3204 6.31  11.3204 7.416  C 11.3204 8.52200000000001  11.6004 9.41800000000001  12.1744 10.104  C 12.7764 10.832  13.6164 11.196  14.7084 11.196  C 15.6044 11.196  16.3184 10.958  16.8644 10.496  C 17.4244 10.02  17.7744 9.306  17.9424 8.38200000000001  L 16.8224 8.38200000000001  C 16.6544 9.628  15.9404 10.258  14.7084 10.258  C 13.9804 10.258  13.4204 9.992  13.0424 9.488  C 12.6504 8.98399999999999  12.4684 8.28400000000001  12.4684 7.402  C 12.4684 6.52  12.6644 5.81999999999999  13.0564 5.30200000000001  C 13.4624 4.77  14.0224 4.504  14.7224 4.504  C 15.2964 4.504  15.7584 4.63  16.1224 4.91  C 16.4724 5.19  16.6964 5.61  16.7944 6.17  L 17.9004 6.17  C 17.7744 5.288  17.4384 4.63  16.8784 4.196  Z M 21.1887 3.762  L 21.1887 1.42400000000001  L 20.0827 1.886  L 20.0827 3.762  L 18.6267 3.762  L 18.6267 4.7  L 20.0827 4.7  L 20.0827 9.306  C 20.0827 9.852  20.1947 10.258  20.4327 10.538  C 20.6847 10.846  21.1187 11  21.7067 11  L 22.7987 11  L 22.7987 10.062  L 21.8747 10.062  C 21.6227 10.062  21.4407 9.992  21.3427 9.88  C 21.2307 9.768  21.1887 9.572  21.1887 9.306  L 21.1887 4.7  L 22.9807 4.7  L 22.9807 3.762  L 21.1887 3.762  Z " fill-rule="nonzero" fill="#000000" stroke="none" fill-opacity="0.898039215686275" transform="matrix(1 0 0 1 20 23 )" />
  </g>
</svg>