<?xml version="1.0" encoding="utf-8"?>
<svg version="1.1" xmlns:xlink="http://www.w3.org/1999/xlink" width="14px" height="11px" xmlns="http://www.w3.org/2000/svg">
  <g transform="matrix(1 0 0 1 -133 -156 )">
    <path d="M 4.10900000000001 1.00399999999999  L 3.21299999999999 1.00399999999999  C 2.87700000000001 1.38200000000001  2.48500000000001 1.71799999999999  2.00899999999999 2.02600000000001  C 1.53299999999999 2.30600000000001  1.05699999999999 2.50200000000001  0.609000000000009 2.62799999999999  L 0.609000000000009 3.77600000000001  C 1.547 3.49600000000001  2.33099999999999 3.048  2.96100000000001 2.404  L 2.96100000000001 11  L 4.10900000000001 11  L 4.10900000000001 1.00399999999999  Z M 12.234 1.60599999999999  C 11.632 1.07400000000001  10.876 0.807999999999993  9.952 0.807999999999993  C 8.94399999999999 0.807999999999993  8.11799999999999 1.14400000000001  7.50200000000001 1.816  C 6.886 2.47399999999999  6.56399999999999 3.37  6.56399999999999 4.49000000000001  L 7.71199999999999 4.49000000000001  C 7.726 3.608  7.93600000000001 2.93600000000001  8.328 2.488  C 8.69200000000001 2.012  9.22399999999999 1.78800000000001  9.91 1.78800000000001  C 10.554 1.78800000000001  11.072 1.95599999999999  11.436 2.292  C 11.8 2.62799999999999  11.982 3.09  11.982 3.70599999999999  C 11.982 4.34999999999999  11.716 4.952  11.212 5.49799999999999  C 10.946 5.77799999999999  10.428 6.184  9.64400000000001 6.744  C 8.58000000000001 7.47200000000001  7.86600000000001 8.07400000000001  7.47399999999999 8.52199999999999  C 6.80199999999999 9.26400000000001  6.47999999999999 10.09  6.47999999999999 11  L 13.144 11  L 13.144 9.97800000000001  L 7.89400000000001 9.97800000000001  C 8.07599999999999 9.30600000000001  8.804 8.536  10.078 7.68199999999999  C 11.114 6.982  11.8 6.43600000000001  12.15 6.072  C 12.794 5.37200000000001  13.13 4.58799999999999  13.13 3.72  C 13.13 2.852  12.822 2.13800000000001  12.234 1.60599999999999  Z " fill-rule="nonzero" fill="#000000" stroke="none" fill-opacity="0.898039215686275" transform="matrix(1 0 0 1 133 156 )" />
  </g>
</svg>