<?xml version="1.0" encoding="utf-8"?>
<svg version="1.1" xmlns:xlink="http://www.w3.org/1999/xlink" width="8px" height="12px" xmlns="http://www.w3.org/2000/svg">
  <g transform="matrix(1 0 0 1 -173 -246 )">
    <path d="M 6.75800000000001 1.536  C 6.16999999999999 1.04599999999999  5.386 0.807999999999993  4.434 0.807999999999993  C 3.482 0.807999999999993  2.71199999999999 1.07400000000001  2.124 1.62  C 1.50800000000001 2.166  1.14400000000001 2.92200000000003  1.06 3.88799999999998  L 2.19399999999999 3.88799999999998  C 2.26400000000001 3.21600000000001  2.488 2.69799999999998  2.88 2.334  C 3.25800000000001 1.97000000000003  3.77600000000001 1.80200000000002  4.44800000000001 1.80200000000002  C 5.09200000000001 1.80200000000002  5.61000000000001 1.95600000000002  5.97399999999999 2.29199999999997  C 6.31 2.60000000000002  6.49199999999999 3.03399999999999  6.49199999999999 3.59399999999999  C 6.49199999999999 4.154  6.31 4.58800000000002  5.96000000000001 4.89600000000002  C 5.61000000000001 5.19  5.10599999999999 5.34399999999999  4.434 5.34399999999999  L 3.66399999999999 5.34399999999999  L 3.66399999999999 6.24000000000001  L 4.476 6.24000000000001  C 5.17599999999999 6.24000000000001  5.708 6.39400000000001  6.09999999999999 6.73000000000002  C 6.49199999999999 7.06599999999997  6.68799999999999 7.52800000000002  6.68799999999999 8.13  C 6.68799999999999 8.71800000000002  6.47800000000001 9.20800000000003  6.08600000000001 9.60000000000002  C 5.65199999999999 10.006  5.078 10.216  4.364 10.216  C 3.73400000000001 10.216  3.21600000000001 10.034  2.79599999999999 9.69799999999998  C 2.30600000000001 9.29199999999997  2.03999999999999 8.69  2.012 7.90600000000001  L 0.849999999999994 7.90600000000001  C 0.933999999999997 9.02600000000001  1.32599999999999 9.88  2.03999999999999 10.468  C 2.642 10.944  3.41200000000001 11.196  4.364 11.196  C 5.40000000000001 11.196  6.24000000000001 10.902  6.88399999999999 10.314  C 7.51400000000001 9.74000000000001  7.83600000000001 8.99799999999999  7.83600000000001 8.08800000000002  C 7.83600000000001 7.5  7.66800000000001 7.00999999999999  7.33199999999999 6.61799999999999  C 7.024 6.226  6.57599999999999 5.94600000000003  5.988 5.76400000000001  C 7.08000000000001 5.39999999999998  7.626 4.64400000000001  7.626 3.524  C 7.626 2.68400000000003  7.33199999999999 2.02600000000001  6.75800000000001 1.536  Z " fill-rule="nonzero" fill="#000000" stroke="none" fill-opacity="0.258823529411765" transform="matrix(1 0 0 1 173 246 )" />
  </g>
</svg>