<?xml version="1.0" encoding="utf-8"?>
<svg version="1.1" xmlns:xlink="http://www.w3.org/1999/xlink" width="16px" height="11px" xmlns="http://www.w3.org/2000/svg">
  <g transform="matrix(1 0 0 1 -169 -66 )">
    <path d="M 8.53800000000001 1.004  L 0.348000000000013 1.004  L 0.348000000000013 1.998  L 3.876 1.998  L 3.876 11  L 5.00999999999999 11  L 5.00999999999999 1.998  L 8.53800000000001 1.998  L 8.53800000000001 1.004  Z M 10.766 0.808000000000007  L 9.64599999999999 0.808000000000007  L 9.64599999999999 11  L 10.766 11  L 10.766 6.87  C 10.766 6.19799999999999  10.948 5.624  11.326 5.176  C 11.69 4.72799999999999  12.152 4.504  12.712 4.504  C 13.314 4.504  13.776 4.68600000000001  14.112 5.05  C 14.42 5.414  14.588 5.932  14.588 6.604  L 14.588 11  L 15.708 11  L 15.708 6.43600000000001  C 15.708 5.512  15.484 4.798  15.036 4.30800000000001  C 14.588 3.804  13.93 3.566  13.09 3.566  C 12.6 3.566  12.166 3.678  11.774 3.902  C 11.354 4.14  11.018 4.48999999999999  10.766 4.952  L 10.766 0.808000000000007  Z " fill-rule="nonzero" fill="#000000" stroke="none" fill-opacity="0.4" transform="matrix(1 0 0 1 169 66 )" />
  </g>
</svg>