<?xml version="1.0" encoding="utf-8"?>
<svg version="1.1" xmlns:xlink="http://www.w3.org/1999/xlink" width="12px" height="12px" xmlns="http://www.w3.org/2000/svg">
  <g transform="matrix(1 0 0 1 -59 -246 )">
    <path d="M 5.9485 1.536  C 5.3605 1.04599999999999  4.5765 0.807999999999993  3.6245 0.807999999999993  C 2.6725 0.807999999999993  1.9025 1.07400000000001  1.3145 1.62  C 0.698499999999996 2.166  0.334500000000006 2.92200000000003  0.250500000000002 3.88799999999998  L 1.3845 3.88799999999998  C 1.4545 3.21600000000001  1.6785 2.69799999999998  2.0705 2.334  C 2.4485 1.97000000000003  2.9665 1.80200000000002  3.63849999999999 1.80200000000002  C 4.2825 1.80200000000002  4.8005 1.95600000000002  5.1645 2.29199999999997  C 5.5005 2.60000000000002  5.6825 3.03399999999999  5.6825 3.59399999999999  C 5.6825 4.154  5.5005 4.58800000000002  5.15049999999999 4.89600000000002  C 4.8005 5.19  4.29649999999999 5.34399999999999  3.6245 5.34399999999999  L 2.8545 5.34399999999999  L 2.8545 6.24000000000001  L 3.6665 6.24000000000001  C 4.3665 6.24000000000001  4.8985 6.39400000000001  5.29049999999999 6.73000000000002  C 5.6825 7.06599999999997  5.8785 7.52800000000002  5.8785 8.13  C 5.8785 8.71800000000002  5.66849999999999 9.20800000000003  5.2765 9.60000000000002  C 4.8425 10.006  4.2685 10.216  3.5545 10.216  C 2.92449999999999 10.216  2.40649999999999 10.034  1.98650000000001 9.69799999999998  C 1.4965 9.29199999999997  1.23050000000001 8.69  1.2025 7.90600000000001  L 0.0404999999999944 7.90600000000001  C 0.124499999999998 9.02600000000001  0.516499999999994 9.88  1.23050000000001 10.468  C 1.8325 10.944  2.60250000000001 11.196  3.5545 11.196  C 4.59050000000001 11.196  5.43049999999999 10.902  6.0745 10.314  C 6.7045 9.74000000000001  7.0265 8.99799999999999  7.0265 8.08800000000002  C 7.0265 7.5  6.85850000000001 7.00999999999999  6.52249999999999 6.61799999999999  C 6.2145 6.226  5.76649999999999 5.94600000000003  5.1785 5.76400000000001  C 6.2705 5.39999999999998  6.8165 4.64400000000001  6.8165 3.524  C 6.8165 2.68400000000003  6.52249999999999 2.02600000000001  5.9485 1.536  Z M 11.8371 1.00400000000002  L 10.9411 1.00400000000002  C 10.6051 1.38200000000001  10.2131 1.71800000000002  9.7371 2.02600000000001  C 9.2611 2.30599999999998  8.7851 2.50200000000001  8.33710000000001 2.62799999999999  L 8.33710000000001 3.77600000000001  C 9.27509999999999 3.49599999999998  10.0591 3.048  10.6891 2.404  L 10.6891 11  L 11.8371 11  L 11.8371 1.00400000000002  Z " fill-rule="nonzero" fill="#000000" stroke="none" fill-opacity="0.898039215686275" transform="matrix(1 0 0 1 59 246 )" />
  </g>
</svg>