<?xml version="1.0" encoding="utf-8"?>
<svg version="1.1" xmlns:xlink="http://www.w3.org/1999/xlink" width="14px" height="12px" xmlns="http://www.w3.org/2000/svg">
  <g transform="matrix(1 0 0 1 -21 -186 )">
    <path d="M 4.1092 1.00399999999999  L 3.2132 1.00399999999999  C 2.8772 1.38200000000001  2.4852 1.71799999999999  2.0092 2.02600000000001  C 1.5332 2.30600000000001  1.0572 2.50200000000001  0.609200000000001 2.62799999999999  L 0.609200000000001 3.77600000000001  C 1.5472 3.49600000000001  2.3312 3.048  2.9612 2.404  L 2.9612 11  L 4.1092 11  L 4.1092 1.00399999999999  Z M 13.1443 3.482  C 12.8643 1.69  11.8003 0.807999999999993  9.9523 0.807999999999993  C 8.8183 0.807999999999993  7.9223 1.32599999999999  7.2643 2.376  C 6.6343 3.37  6.3263 4.672  6.3263 6.268  C 6.3263 7.79400000000001  6.6063 8.98400000000001  7.1943 9.83799999999999  C 7.8103 10.734  8.7203 11.196  9.9383 11.196  C 10.9183 11.196  11.7163 10.86  12.3603 10.216  C 12.9903 9.572  13.3123 8.74600000000001  13.3123 7.76599999999999  C 13.3123 6.786  13.0183 6.00200000000001  12.4443 5.386  C 11.8563 4.77000000000001  11.0863 4.46199999999999  10.1343 4.46199999999999  C 9.5463 4.46199999999999  9.0283 4.602  8.5803 4.89599999999999  C 8.1043 5.17599999999999  7.7543 5.58199999999999  7.5023 6.09999999999999  L 7.4463 6.09999999999999  C 7.4323 5.91800000000001  7.4323 5.792  7.4323 5.73599999999999  C 7.4323 4.602  7.6423 3.66399999999999  8.0903 2.93600000000001  C 8.5383 2.15199999999999  9.1543 1.774  9.9383 1.774  C 11.1003 1.774  11.7863 2.334  12.0103 3.482  L 13.1443 3.482  Z M 8.2723 6.08600000000001  C 8.7063 5.63800000000001  9.2523 5.41399999999999  9.9103 5.41399999999999  C 10.5963 5.41399999999999  11.1423 5.624  11.5623 6.072  C 11.9683 6.49199999999999  12.1783 7.05199999999999  12.1783 7.76599999999999  C 12.1783 8.47999999999999  11.9683 9.06800000000001  11.5483 9.54400000000001  C 11.1283 9.99199999999999  10.5823 10.23  9.9103 10.23  C 9.2103 10.23  8.6643 9.99199999999999  8.2443 9.51599999999999  C 7.8243 9.06800000000001  7.6283 8.494  7.6283 7.79400000000001  C 7.6283 7.09399999999999  7.8383 6.53399999999999  8.2723 6.08600000000001  Z " fill-rule="nonzero" fill="#000000" stroke="none" fill-opacity="0.898039215686275" transform="matrix(1 0 0 1 21 186 )" />
  </g>
</svg>