<?xml version="1.0" encoding="utf-8"?>
<svg version="1.1" xmlns:xlink="http://www.w3.org/1999/xlink" width="17px" height="12px" xmlns="http://www.w3.org/2000/svg">
  <g transform="matrix(1 0 0 1 -57 -96 )">
    <path d="M 6.5608 1.60599999999999  C 5.9588 1.07400000000001  5.2028 0.807999999999993  4.2788 0.807999999999993  C 3.27079999999999 0.807999999999993  2.4448 1.14400000000001  1.8288 1.816  C 1.2128 2.47399999999999  0.890799999999999 3.37  0.890799999999999 4.49000000000001  L 2.03879999999999 4.49000000000001  C 2.0528 3.608  2.2628 2.93600000000001  2.65479999999999 2.488  C 3.0188 2.012  3.5508 1.78800000000001  4.2368 1.78800000000001  C 4.88079999999999 1.78800000000001  5.39879999999999 1.95599999999999  5.7628 2.292  C 6.1268 2.62799999999999  6.30880000000001 3.09  6.30880000000001 3.70599999999999  C 6.30880000000001 4.34999999999999  6.0428 4.952  5.53879999999999 5.49799999999999  C 5.2728 5.77799999999999  4.7548 6.184  3.9708 6.744  C 2.9068 7.47200000000001  2.19280000000001 8.07400000000001  1.8008 8.52199999999999  C 1.1288 9.26400000000001  0.806799999999996 10.09  0.806799999999996 11  L 7.4708 11  L 7.4708 9.97800000000001  L 2.2208 9.97800000000001  C 2.4028 9.30600000000001  3.13079999999999 8.536  4.40479999999999 7.68199999999999  C 5.4408 6.982  6.1268 6.43600000000001  6.4768 6.072  C 7.1208 5.37200000000001  7.4568 4.58799999999999  7.4568 3.72  C 7.4568 2.852  7.14879999999999 2.13800000000001  6.5608 1.60599999999999  Z M 15.8654 3.482  C 15.5854 1.69  14.5214 0.807999999999993  12.6734 0.807999999999993  C 11.5394 0.807999999999993  10.6434 1.32599999999999  9.9854 2.376  C 9.3554 3.37  9.0474 4.672  9.0474 6.268  C 9.0474 7.79400000000001  9.3274 8.98400000000001  9.91540000000001 9.83799999999999  C 10.5314 10.734  11.4414 11.196  12.6594 11.196  C 13.6394 11.196  14.4374 10.86  15.0814 10.216  C 15.7114 9.572  16.0334 8.74600000000001  16.0334 7.76599999999999  C 16.0334 6.786  15.7394 6.00200000000001  15.1654 5.386  C 14.5774 4.77000000000001  13.8074 4.46199999999999  12.8554 4.46199999999999  C 12.2674 4.46199999999999  11.7494 4.602  11.3014 4.89599999999999  C 10.8254 5.17599999999999  10.4754 5.58199999999999  10.2234 6.09999999999999  L 10.1674 6.09999999999999  C 10.1534 5.91800000000001  10.1534 5.792  10.1534 5.73599999999999  C 10.1534 4.602  10.3634 3.66399999999999  10.8114 2.93600000000001  C 11.2594 2.15199999999999  11.8754 1.774  12.6594 1.774  C 13.8214 1.774  14.5074 2.334  14.7314 3.482  L 15.8654 3.482  Z M 10.9934 6.08600000000001  C 11.4274 5.63800000000001  11.9734 5.41399999999999  12.6314 5.41399999999999  C 13.3174 5.41399999999999  13.8634 5.624  14.2834 6.072  C 14.6894 6.49199999999999  14.8994 7.05199999999999  14.8994 7.76599999999999  C 14.8994 8.47999999999999  14.6894 9.06800000000001  14.2694 9.54400000000001  C 13.8494 9.99199999999999  13.3034 10.23  12.6314 10.23  C 11.9314 10.23  11.3854 9.99199999999999  10.9654 9.51599999999999  C 10.5454 9.06800000000001  10.3494 8.494  10.3494 7.79400000000001  C 10.3494 7.09399999999999  10.5594 6.53399999999999  10.9934 6.08600000000001  Z " fill-rule="nonzero" fill="#000000" stroke="none" fill-opacity="0.258823529411765" transform="matrix(1 0 0 1 57 96 )" />
  </g>
</svg>