<?xml version="1.0" encoding="utf-8"?>
<svg version="1.1" xmlns:xlink="http://www.w3.org/1999/xlink" width="17px" height="12px" xmlns="http://www.w3.org/2000/svg">
  <g transform="matrix(1 0 0 1 -206 -96 )">
    <path d="M 6.89400000000001 1.536  C 6.30600000000001 1.04599999999999  5.52199999999999 0.807999999999993  4.56999999999999 0.807999999999993  C 3.61799999999999 0.807999999999993  2.84800000000001 1.07400000000001  2.25999999999999 1.62  C 1.64400000000001 2.166  1.28 2.922  1.196 3.88800000000001  L 2.33000000000001 3.88800000000001  C 2.40000000000001 3.21600000000001  2.624 2.69800000000001  3.01599999999999 2.334  C 3.39400000000001 1.97  3.91200000000001 1.80199999999999  4.584 1.80199999999999  C 5.22800000000001 1.80199999999999  5.74600000000001 1.95599999999999  6.11000000000001 2.292  C 6.446 2.59999999999999  6.62799999999999 3.03399999999999  6.62799999999999 3.59399999999999  C 6.62799999999999 4.154  6.446 4.58799999999999  6.096 4.89599999999999  C 5.74600000000001 5.19  5.24199999999999 5.34399999999999  4.56999999999999 5.34399999999999  L 3.80000000000001 5.34399999999999  L 3.80000000000001 6.24000000000001  L 4.61199999999999 6.24000000000001  C 5.31200000000001 6.24000000000001  5.84399999999999 6.39400000000001  6.23599999999999 6.72999999999999  C 6.62799999999999 7.066  6.82400000000001 7.52799999999999  6.82400000000001 8.13  C 6.82400000000001 8.71799999999999  6.614 9.208  6.22200000000001 9.59999999999999  C 5.78800000000001 10.006  5.214 10.216  4.5 10.216  C 3.87 10.216  3.352 10.034  2.93199999999999 9.69800000000001  C 2.44200000000001 9.292  2.17599999999999 8.69  2.148 7.90600000000001  L 0.98599999999999 7.90600000000001  C 1.06999999999999 9.02600000000001  1.46199999999999 9.88  2.17599999999999 10.468  C 2.77799999999999 10.944  3.548 11.196  4.5 11.196  C 5.536 11.196  6.376 10.902  7.02000000000001 10.314  C 7.65000000000001 9.74000000000001  7.97200000000001 8.99799999999999  7.97200000000001 8.08799999999999  C 7.97200000000001 7.5  7.804 7.00999999999999  7.46799999999999 6.61799999999999  C 7.16 6.226  6.71199999999999 5.946  6.124 5.76400000000001  C 7.21600000000001 5.40000000000001  7.762 4.64400000000001  7.762 3.524  C 7.762 2.684  7.46799999999999 2.02600000000001  6.89400000000001 1.536  Z M 15.569 2.38999999999999  C 14.953 1.32599999999999  14.057 0.807999999999993  12.867 0.807999999999993  C 11.663 0.807999999999993  10.767 1.32599999999999  10.165 2.38999999999999  C 9.63300000000001 3.286  9.36699999999999 4.49000000000001  9.36699999999999 6.00200000000001  C 9.36699999999999 7.51400000000001  9.63300000000001 8.71799999999999  10.165 9.614  C 10.767 10.664  11.663 11.196  12.867 11.196  C 14.057 11.196  14.953 10.664  15.569 9.614  C 16.101 8.71799999999999  16.367 7.51400000000001  16.367 6.00200000000001  C 16.367 4.49000000000001  16.101 3.286  15.569 2.38999999999999  Z M 10.935 3.22999999999999  C 11.327 2.26400000000001  11.971 1.78800000000001  12.867 1.78800000000001  C 13.763 1.78800000000001  14.407 2.26400000000001  14.799 3.22999999999999  C 15.079 3.90199999999999  15.233 4.82599999999999  15.233 6.00200000000001  C 15.233 7.16399999999999  15.079 8.08799999999999  14.799 8.774  C 14.407 9.726  13.763 10.216  12.867 10.216  C 11.971 10.216  11.327 9.726  10.935 8.774  C 10.655 8.08799999999999  10.515 7.16399999999999  10.515 6.00200000000001  C 10.515 4.82599999999999  10.655 3.90199999999999  10.935 3.22999999999999  Z " fill-rule="nonzero" fill="#000000" stroke="none" fill-opacity="0.258823529411765" transform="matrix(1 0 0 1 206 96 )" />
  </g>
</svg>