<?xml version="1.0" encoding="utf-8"?>
<svg version="1.1" xmlns:xlink="http://www.w3.org/1999/xlink" width="8px" height="12px" xmlns="http://www.w3.org/2000/svg">
  <g transform="matrix(1 0 0 1 -173 -126 )">
    <path d="M 7.66800000000001 3.482  C 7.38800000000001 1.69  6.32400000000001 0.807999999999993  4.476 0.807999999999993  C 3.34200000000001 0.807999999999993  2.446 1.32599999999999  1.78800000000001 2.376  C 1.15799999999999 3.37  0.849999999999994 4.672  0.849999999999994 6.268  C 0.849999999999994 7.79400000000001  1.13 8.98400000000001  1.71799999999999 9.83799999999999  C 2.334 10.734  3.244 11.196  4.46199999999999 11.196  C 5.44200000000001 11.196  6.24000000000001 10.86  6.88399999999999 10.216  C 7.51400000000001 9.572  7.83600000000001 8.74600000000001  7.83600000000001 7.76599999999999  C 7.83600000000001 6.786  7.542 6.00200000000001  6.96799999999999 5.386  C 6.38 4.77000000000001  5.61000000000001 4.46199999999999  4.65799999999999 4.46199999999999  C 4.06999999999999 4.46199999999999  3.55199999999999 4.602  3.10400000000001 4.89599999999999  C 2.62799999999999 5.17599999999999  2.27799999999999 5.58199999999999  2.02600000000001 6.09999999999999  L 1.97 6.09999999999999  C 1.95599999999999 5.91800000000001  1.95599999999999 5.792  1.95599999999999 5.73599999999999  C 1.95599999999999 4.602  2.166 3.66399999999999  2.614 2.93600000000001  C 3.06200000000001 2.15199999999999  3.678 1.774  4.46199999999999 1.774  C 5.624 1.774  6.31 2.334  6.53399999999999 3.482  L 7.66800000000001 3.482  Z M 2.79599999999999 6.08600000000001  C 3.22999999999999 5.63800000000001  3.77600000000001 5.41399999999999  4.434 5.41399999999999  C 5.12 5.41399999999999  5.666 5.624  6.08600000000001 6.072  C 6.49199999999999 6.49199999999999  6.702 7.05199999999999  6.702 7.76599999999999  C 6.702 8.47999999999999  6.49199999999999 9.06800000000001  6.072 9.54400000000001  C 5.65199999999999 9.99199999999999  5.10599999999999 10.23  4.434 10.23  C 3.73400000000001 10.23  3.18799999999999 9.99199999999999  2.768 9.51599999999999  C 2.34800000000001 9.06800000000001  2.15199999999999 8.494  2.15199999999999 7.79400000000001  C 2.15199999999999 7.09399999999999  2.36199999999999 6.53399999999999  2.79599999999999 6.08600000000001  Z " fill-rule="nonzero" fill="#000000" stroke="none" fill-opacity="0.898039215686275" transform="matrix(1 0 0 1 173 126 )" />
  </g>
</svg>