<?xml version="1.0" encoding="utf-8"?>
<svg version="1.1" xmlns:xlink="http://www.w3.org/1999/xlink" width="16px" height="12px" xmlns="http://www.w3.org/2000/svg">
  <g transform="matrix(1 0 0 1 -244 -66 )">
    <path d="M 6.69499999999999 1.578  C 6.05099999999999 1.06  5.15499999999997 0.808000000000007  4.03500000000003 0.808000000000007  C 2.99900000000002 0.808000000000007  2.14499999999998 1.032  1.48699999999999 1.48  C 0.745000000000005 1.956  0.381 2.642  0.381 3.51000000000001  C 0.381 4.34999999999999  0.758999999999986 4.994  1.529 5.44199999999999  C 1.851 5.61  2.62099999999998 5.89  3.82499999999999 6.254  C 4.94499999999999 6.57599999999999  5.65899999999999 6.81399999999999  5.93900000000002 6.982  C 6.59699999999998 7.33199999999999  6.93299999999999 7.822  6.93299999999999 8.452  C 6.93299999999999 8.98399999999999  6.68099999999998 9.404  6.17700000000002 9.712  C 5.673 10.02  5.00099999999998 10.174  4.18900000000002 10.174  C 3.29300000000001 10.174  2.62099999999998 9.97799999999999  2.15899999999999 9.614  C 1.655 9.208  1.34700000000001 8.56399999999999  1.249 7.696  L 0.115000000000009 7.696  C 0.199000000000012 8.928  0.63300000000001 9.83799999999999  1.417 10.44  C 2.089 10.944  3.01299999999998 11.196  4.18900000000002 11.196  C 5.37900000000002 11.196  6.31700000000001 10.944  7.017 10.454  C 7.71699999999998 9.95  8.06700000000001 9.25  8.06700000000001 8.38200000000001  C 8.06700000000001 7.47199999999999  7.64699999999999 6.77200000000001  6.82100000000003 6.268  C 6.40100000000001 6.01600000000001  5.53300000000002 5.694  4.21699999999998 5.30200000000001  C 3.25099999999998 5.02200000000001  2.63499999999999 4.812  2.38299999999998 4.672  C 1.809 4.364  1.529 3.958  1.529 3.45399999999999  C 1.529 2.88  1.767 2.45999999999999  2.24299999999999 2.18000000000001  C 2.66300000000001 1.928  3.23700000000002 1.816  3.97899999999998 1.816  C 4.791 1.816  5.42099999999999 1.98399999999999  5.86900000000003 2.348  C 6.303 2.69799999999999  6.58300000000003 3.23  6.709 3.958  L 7.84300000000002 3.958  C 7.745 2.908  7.36700000000002 2.11  6.69499999999999 1.578  Z M 14.827 4.378  C 14.323 3.83199999999999  13.567 3.566  12.531 3.566  C 11.663 3.566  10.977 3.73399999999999  10.445 4.06999999999999  C 9.85700000000003 4.434  9.47899999999998 5.008  9.32499999999999 5.764  L 10.431 5.848  C 10.543 5.386  10.781 5.036  11.159 4.812  C 11.495 4.58799999999999  11.929 4.48999999999999  12.461 4.48999999999999  C 13.721 4.48999999999999  14.351 5.092  14.351 6.31  L 14.351 6.688  L 12.615 6.71599999999999  C 11.523 6.73  10.683 6.94  10.095 7.33199999999999  C 9.423 7.752  9.101 8.36799999999999  9.101 9.194  C 9.101 9.782  9.32499999999999 10.272  9.77300000000002 10.65  C 10.207 11.014  10.781 11.196  11.509 11.196  C 12.181 11.196  12.783 11.042  13.315 10.748  C 13.763 10.496  14.141 10.174  14.421 9.782  L 14.421 11  L 15.471 11  L 15.471 6.352  C 15.471 5.512  15.247 4.854  14.827 4.378  Z M 12.685 7.556  L 14.351 7.52800000000001  L 14.351 8.14400000000001  C 14.351 8.70399999999999  14.085 9.208  13.567 9.642  C 13.035 10.09  12.433 10.314  11.747 10.314  C 11.299 10.314  10.935 10.202  10.655 9.992  C 10.375 9.768  10.249 9.502  10.249 9.166  C 10.249 8.116  11.061 7.584  12.685 7.556  Z " fill-rule="nonzero" fill="#000000" stroke="none" fill-opacity="0.4" transform="matrix(1 0 0 1 244 66 )" />
  </g>
</svg>