<?xml version="1.0" encoding="utf-8"?>
<svg version="1.1" xmlns:xlink="http://www.w3.org/1999/xlink" width="13px" height="10px" xmlns="http://www.w3.org/2000/svg">
  <g transform="matrix(1 0 0 1 -209 -67 )">
    <path d="M 6.77000000000001 0.00400000000000489  L 0.078000000000003 0.00400000000000489  L 0.078000000000003 10  L 1.226 10  L 1.226 5.352  L 6.476 5.352  L 6.476 4.358  L 1.226 4.358  L 1.226 0.998000000000005  L 6.77000000000001 0.998000000000005  L 6.77000000000001 0.00400000000000489  Z M 12.19 2.73399999999999  C 11.924 2.622  11.588 2.566  11.196 2.566  C 10.692 2.566  10.258 2.72  9.88 3.02800000000001  C 9.572 3.26600000000001  9.31999999999999 3.602  9.124 4.02200000000001  L 9.124 2.762  L 8.018 2.762  L 8.018 10  L 9.124 10  L 9.124 6.164  C 9.124 5.492  9.30600000000001 4.91800000000001  9.69800000000001 4.44199999999999  C 10.076 3.938  10.552 3.7  11.112 3.7  C 11.462 3.7  11.826 3.742  12.19 3.854  L 12.19 2.73399999999999  Z " fill-rule="nonzero" fill="#000000" stroke="none" fill-opacity="0.4" transform="matrix(1 0 0 1 209 67 )" />
  </g>
</svg>