<?xml version="1.0" encoding="utf-8"?>
<svg version="1.1" xmlns:xlink="http://www.w3.org/1999/xlink" width="20px" height="11px" xmlns="http://www.w3.org/2000/svg">
  <g transform="matrix(1 0 0 1 -56 -67 )">
    <path d="M 1.495 0.00400000000000489  L 0.0669999999999931 0.00400000000000489  L 0.0669999999999931 10  L 1.215 10  L 1.215 2.048  L 1.25700000000001 2.048  L 4.715 10  L 5.751 10  L 9.209 2.048  L 9.251 2.048  L 9.251 10  L 10.399 10  L 10.399 0.00400000000000489  L 8.971 0.00400000000000489  L 5.261 8.53  L 5.21899999999999 8.53  L 1.495 0.00400000000000489  Z M 18.0967 3.68600000000001  C 17.4527 2.93000000000001  16.5847 2.566  15.5067 2.566  C 14.4147 2.566  13.5607 2.93000000000001  12.9167 3.68600000000001  C 12.3007 4.40000000000001  11.9927 5.29600000000001  11.9927 6.38800000000001  C 11.9927 7.46599999999999  12.3007 8.36199999999999  12.9167 9.062  C 13.5607 9.818  14.4147 10.196  15.5067 10.196  C 16.5847 10.196  17.4527 9.818  18.1107 9.062  C 18.7127 8.36199999999999  19.0207 7.46599999999999  19.0207 6.38800000000001  C 19.0207 5.29600000000001  18.7127 4.40000000000001  18.0967 3.68600000000001  Z M 13.7147 4.386  C 14.1347 3.798  14.7367 3.504  15.5067 3.504  C 16.2627 3.504  16.8647 3.798  17.3127 4.386  C 17.6907 4.91800000000001  17.8867 5.57599999999999  17.8867 6.38800000000001  C 17.8867 7.172  17.6907 7.84399999999999  17.3127 8.376  C 16.8647 8.964  16.2627 9.258  15.5067 9.258  C 14.7367 9.258  14.1347 8.964  13.7147 8.376  C 13.3227 7.84399999999999  13.1407 7.18600000000001  13.1407 6.38800000000001  C 13.1407 5.57599999999999  13.3227 4.91800000000001  13.7147 4.386  Z " fill-rule="nonzero" fill="#000000" stroke="none" fill-opacity="0.4" transform="matrix(1 0 0 1 56 67 )" />
  </g>
</svg>