<?xml version="1.0" encoding="utf-8"?>
<svg version="1.1" xmlns:xlink="http://www.w3.org/1999/xlink" width="13px" height="11px" xmlns="http://www.w3.org/2000/svg">
  <g transform="matrix(1 0 0 1 -208 -186 )">
    <path d="M 6.28200000000001 1.60599999999999  C 5.68000000000001 1.07400000000001  4.92400000000001 0.807999999999993  4 0.807999999999993  C 2.99199999999999 0.807999999999993  2.166 1.14400000000001  1.55000000000001 1.816  C 0.933999999999997 2.47399999999999  0.611999999999995 3.37  0.611999999999995 4.49000000000001  L 1.75999999999999 4.49000000000001  C 1.774 3.608  1.98400000000001 2.93600000000001  2.376 2.488  C 2.74000000000001 2.012  3.27199999999999 1.78800000000001  3.958 1.78800000000001  C 4.602 1.78800000000001  5.12 1.95599999999999  5.48400000000001 2.292  C 5.84800000000001 2.62799999999999  6.03 3.09  6.03 3.70599999999999  C 6.03 4.34999999999999  5.76400000000001 4.952  5.25999999999999 5.49799999999999  C 4.994 5.77799999999999  4.476 6.184  3.69200000000001 6.744  C 2.62799999999999 7.47200000000001  1.91399999999999 8.07400000000001  1.52199999999999 8.52199999999999  C 0.849999999999994 9.26400000000001  0.527999999999992 10.09  0.527999999999992 11  L 7.19200000000001 11  L 7.19200000000001 9.97800000000001  L 1.94200000000001 9.97800000000001  C 2.124 9.30600000000001  2.852 8.536  4.126 7.68199999999999  C 5.16200000000001 6.982  5.84800000000001 6.43600000000001  6.19800000000001 6.072  C 6.84200000000001 5.37200000000001  7.178 4.58799999999999  7.178 3.72  C 7.178 2.852  6.87 2.13800000000001  6.28200000000001 1.60599999999999  Z M 12.17 1.00399999999999  L 11.274 1.00399999999999  C 10.938 1.38200000000001  10.546 1.71799999999999  10.07 2.02600000000001  C 9.59399999999999 2.30600000000001  9.11799999999999 2.50200000000001  8.66999999999999 2.62799999999999  L 8.66999999999999 3.77600000000001  C 9.608 3.49600000000001  10.392 3.048  11.022 2.404  L 11.022 11  L 12.17 11  L 12.17 1.00399999999999  Z " fill-rule="nonzero" fill="#000000" stroke="none" fill-opacity="0.898039215686275" transform="matrix(1 0 0 1 208 186 )" />
  </g>
</svg>