<?xml version="1.0" encoding="utf-8"?>
<svg version="1.1" xmlns:xlink="http://www.w3.org/1999/xlink" width="14px" height="12px" xmlns="http://www.w3.org/2000/svg">
  <g transform="matrix(1 0 0 1 -96 -186 )">
    <path d="M 3.776 1.00399999999999  L 2.88 1.00399999999999  C 2.544 1.38200000000001  2.152 1.71799999999999  1.676 2.02600000000001  C 1.2 2.30600000000001  0.724000000000004 2.50200000000001  0.275999999999996 2.62799999999999  L 0.275999999999996 3.77600000000001  C 1.214 3.49600000000001  1.998 3.048  2.628 2.404  L 2.628 11  L 3.776 11  L 3.776 1.00399999999999  Z M 11.929 1.62  C 11.341 1.07400000000001  10.515 0.807999999999993  9.479 0.807999999999993  C 8.429 0.807999999999993  7.617 1.07400000000001  7.029 1.62  C 6.483 2.11000000000001  6.217 2.726  6.217 3.45400000000001  C 6.217 3.98599999999999  6.343 4.434  6.595 4.798  C 6.861 5.19  7.253 5.48400000000001  7.785 5.666  L 7.785 5.69399999999999  C 7.253 5.81999999999999  6.819 6.114  6.455 6.56200000000001  C 6.063 7.03800000000001  5.867 7.59800000000001  5.867 8.24199999999999  C 5.867 9.124  6.175 9.83799999999999  6.791 10.37  C 7.42100000000001 10.916  8.31699999999999 11.196  9.479 11.196  C 10.627 11.196  11.523 10.916  12.167 10.37  C 12.783 9.83799999999999  13.091 9.124  13.091 8.24199999999999  C 13.091 7.59800000000001  12.895 7.03800000000001  12.503 6.56200000000001  C 12.139 6.114  11.691 5.81999999999999  11.173 5.69399999999999  L 11.173 5.666  C 11.691 5.48400000000001  12.083 5.19  12.363 4.798  C 12.615 4.434  12.741 3.98599999999999  12.741 3.45400000000001  C 12.741 2.726  12.461 2.11000000000001  11.929 1.62  Z M 7.813 2.292  C 8.205 1.928  8.765 1.74600000000001  9.479 1.74600000000001  C 10.179 1.74600000000001  10.739 1.928  11.145 2.292  C 11.481 2.59999999999999  11.663 3.006  11.663 3.49600000000001  C 11.663 4  11.509 4.41999999999999  11.201 4.72800000000001  C 10.823 5.09200000000001  10.249 5.28800000000001  9.479 5.28800000000001  C 8.69499999999999 5.28800000000001  8.121 5.09200000000001  7.757 4.72800000000001  C 7.449 4.41999999999999  7.295 4  7.295 3.49600000000001  C 7.295 3.006  7.46299999999999 2.59999999999999  7.813 2.292  Z M 7.617 6.786  C 8.051 6.38  8.667 6.184  9.479 6.184  C 10.277 6.184  10.907 6.38  11.355 6.786  C 11.747 7.15000000000001  11.957 7.63999999999999  11.957 8.24199999999999  C 11.957 8.83000000000001  11.747 9.30600000000001  11.355 9.66999999999999  C 10.907 10.062  10.291 10.258  9.479 10.258  C 8.667 10.258  8.03700000000001 10.062  7.617 9.684  C 7.197 9.31999999999999  7.001 8.83000000000001  7.001 8.24199999999999  C 7.001 7.63999999999999  7.197 7.15000000000001  7.617 6.786  Z " fill-rule="nonzero" fill="#000000" stroke="none" fill-opacity="0.898039215686275" transform="matrix(1 0 0 1 96 186 )" />
  </g>
</svg>