<?xml version="1.0" encoding="utf-8"?>
<svg version="1.1" xmlns:xlink="http://www.w3.org/1999/xlink" width="10px" height="10px" xmlns="http://www.w3.org/2000/svg">
  <g transform="matrix(1 0 0 1 -97 -157 )">
    <path d="M 4.163 0.00399999999999068  L 3.267 0.00399999999999068  C 2.931 0.382000000000005  2.539 0.717999999999989  2.063 1.02600000000001  C 1.587 1.30600000000001  1.111 1.50200000000001  0.662999999999997 1.62799999999999  L 0.662999999999997 2.77600000000001  C 1.601 2.49600000000001  2.38500000000001 2.048  3.015 1.404  L 3.015 10  L 4.163 10  L 4.163 0.00399999999999068  Z M 9.783 0.00399999999999068  L 8.887 0.00399999999999068  C 8.551 0.382000000000005  8.15900000000001 0.717999999999989  7.68300000000001 1.02600000000001  C 7.20699999999999 1.30600000000001  6.73099999999999 1.50200000000001  6.283 1.62799999999999  L 6.283 2.77600000000001  C 7.221 2.49600000000001  8.005 2.048  8.63500000000001 1.404  L 8.63500000000001 10  L 9.783 10  L 9.783 0.00399999999999068  Z " fill-rule="nonzero" fill="#000000" stroke="none" fill-opacity="0.898039215686275" transform="matrix(1 0 0 1 97 157 )" />
  </g>
</svg>