<?xml version="1.0" encoding="utf-8"?>
<svg version="1.1" xmlns:xlink="http://www.w3.org/1999/xlink" width="17px" height="11px" xmlns="http://www.w3.org/2000/svg">
  <g transform="matrix(1 0 0 1 -94 -67 )">
    <path d="M 8.84399999999999 0.00400000000000489  L 0.653999999999996 0.00400000000000489  L 0.653999999999996 0.998000000000005  L 4.182 0.998000000000005  L 4.182 10  L 5.316 10  L 5.316 0.998000000000005  L 8.84399999999999 0.998000000000005  L 8.84399999999999 0.00400000000000489  Z M 11.072 2.762  L 9.952 2.762  L 9.952 7.24200000000001  C 9.952 9.202  10.82 10.196  12.584 10.196  C 13.564 10.196  14.348 9.748  14.936 8.88  L 14.936 10  L 16.056 10  L 16.056 2.762  L 14.936 2.762  L 14.936 7.172  C 14.852 7.788  14.614 8.292  14.222 8.684  C 13.844 9.048  13.41 9.244  12.934 9.244  C 12.276 9.244  11.8 9.062  11.506 8.726  C 11.212 8.39  11.072 7.872  11.072 7.18600000000001  L 11.072 2.762  Z " fill-rule="nonzero" fill="#000000" stroke="none" fill-opacity="0.4" transform="matrix(1 0 0 1 94 67 )" />
  </g>
</svg>