<?xml version="1.0" encoding="utf-8"?>
<svg version="1.1" xmlns:xlink="http://www.w3.org/1999/xlink" width="14px" height="12px" xmlns="http://www.w3.org/2000/svg">
  <g transform="matrix(1 0 0 1 -58 -156 )">
    <path d="M 4.4425 1.00399999999999  L 3.54649999999999 1.00399999999999  C 3.2105 1.38200000000001  2.8185 1.71799999999999  2.3425 2.02600000000001  C 1.8665 2.30600000000001  1.3905 2.50200000000001  0.942499999999995 2.62799999999999  L 0.942499999999995 3.77600000000001  C 1.8805 3.49600000000001  2.6645 3.048  3.2945 2.404  L 3.2945 11  L 4.4425 11  L 4.4425 1.00399999999999  Z M 12.8477 2.38999999999999  C 12.2317 1.32599999999999  11.3357 0.807999999999993  10.1457 0.807999999999993  C 8.9417 0.807999999999993  8.0457 1.32599999999999  7.44370000000001 2.38999999999999  C 6.9117 3.286  6.64570000000001 4.49000000000001  6.64570000000001 6.00200000000001  C 6.64570000000001 7.51400000000001  6.9117 8.71799999999999  7.44370000000001 9.614  C 8.0457 10.664  8.9417 11.196  10.1457 11.196  C 11.3357 11.196  12.2317 10.664  12.8477 9.614  C 13.3797 8.71799999999999  13.6457 7.51400000000001  13.6457 6.00200000000001  C 13.6457 4.49000000000001  13.3797 3.286  12.8477 2.38999999999999  Z M 8.2137 3.22999999999999  C 8.6057 2.26400000000001  9.2497 1.78800000000001  10.1457 1.78800000000001  C 11.0417 1.78800000000001  11.6857 2.26400000000001  12.0777 3.22999999999999  C 12.3577 3.90199999999999  12.5117 4.82599999999999  12.5117 6.00200000000001  C 12.5117 7.16399999999999  12.3577 8.08799999999999  12.0777 8.774  C 11.6857 9.726  11.0417 10.216  10.1457 10.216  C 9.2497 10.216  8.6057 9.726  8.2137 8.774  C 7.9337 8.08799999999999  7.7937 7.16399999999999  7.7937 6.00200000000001  C 7.7937 4.82599999999999  7.9337 3.90199999999999  8.2137 3.22999999999999  Z " fill-rule="nonzero" fill="#000000" stroke="none" fill-opacity="0.898039215686275" transform="matrix(1 0 0 1 58 156 )" />
  </g>
</svg>