<?xml version="1.0" encoding="utf-8"?>
<svg version="1.1" xmlns:xlink="http://www.w3.org/1999/xlink" width="17px" height="12px" xmlns="http://www.w3.org/2000/svg">
  <g transform="matrix(1 0 0 1 -169 -186 )">
    <path d="M 6.56100000000001 1.60599999999999  C 5.959 1.07400000000001  5.203 0.807999999999993  4.279 0.807999999999993  C 3.27099999999999 0.807999999999993  2.44499999999999 1.14400000000001  1.82900000000001 1.816  C 1.21299999999999 2.47399999999999  0.890999999999991 3.37  0.890999999999991 4.49000000000001  L 2.03899999999999 4.49000000000001  C 2.053 3.608  2.26300000000001 2.93600000000001  2.655 2.488  C 3.01900000000001 2.012  3.55099999999999 1.78800000000001  4.23699999999999 1.78800000000001  C 4.881 1.78800000000001  5.399 1.95599999999999  5.76300000000001 2.292  C 6.12700000000001 2.62799999999999  6.309 3.09  6.309 3.70599999999999  C 6.309 4.34999999999999  6.04300000000001 4.952  5.53899999999999 5.49799999999999  C 5.273 5.77799999999999  4.755 6.184  3.971 6.744  C 2.90700000000001 7.47200000000001  2.19300000000001 8.07400000000001  1.80099999999999 8.52199999999999  C 1.12899999999999 9.26400000000001  0.806999999999988 10.09  0.806999999999988 11  L 7.471 11  L 7.471 9.97800000000001  L 2.221 9.97800000000001  C 2.40299999999999 9.30600000000001  3.131 8.536  4.405 7.68199999999999  C 5.441 6.982  6.12700000000001 6.43600000000001  6.477 6.072  C 7.12100000000001 5.37200000000001  7.45699999999999 4.58799999999999  7.45699999999999 3.72  C 7.45699999999999 2.852  7.149 2.13800000000001  6.56100000000001 1.60599999999999  Z M 15.235 2.38999999999999  C 14.619 1.32599999999999  13.723 0.807999999999993  12.533 0.807999999999993  C 11.329 0.807999999999993  10.433 1.32599999999999  9.83099999999999 2.38999999999999  C 9.29900000000001 3.286  9.03299999999999 4.49000000000001  9.03299999999999 6.00200000000001  C 9.03299999999999 7.51400000000001  9.29900000000001 8.71799999999999  9.83099999999999 9.614  C 10.433 10.664  11.329 11.196  12.533 11.196  C 13.723 11.196  14.619 10.664  15.235 9.614  C 15.767 8.71799999999999  16.033 7.51400000000001  16.033 6.00200000000001  C 16.033 4.49000000000001  15.767 3.286  15.235 2.38999999999999  Z M 10.601 3.22999999999999  C 10.993 2.26400000000001  11.637 1.78800000000001  12.533 1.78800000000001  C 13.429 1.78800000000001  14.073 2.26400000000001  14.465 3.22999999999999  C 14.745 3.90199999999999  14.899 4.82599999999999  14.899 6.00200000000001  C 14.899 7.16399999999999  14.745 8.08799999999999  14.465 8.774  C 14.073 9.726  13.429 10.216  12.533 10.216  C 11.637 10.216  10.993 9.726  10.601 8.774  C 10.321 8.08799999999999  10.181 7.16399999999999  10.181 6.00200000000001  C 10.181 4.82599999999999  10.321 3.90199999999999  10.601 3.22999999999999  Z " fill-rule="nonzero" fill="#0052d9" stroke="none" transform="matrix(1 0 0 1 169 186 )" />
  </g>
</svg>