<?xml version="1.0" encoding="utf-8"?>
<svg version="1.1" xmlns:xlink="http://www.w3.org/1999/xlink" width="16px" height="12px" xmlns="http://www.w3.org/2000/svg">
  <g transform="matrix(1 0 0 1 -207 -216 )">
    <path d="M 5.89400000000001 1.60599999999999  C 5.292 1.07400000000001  4.536 0.807999999999993  3.61199999999999 0.807999999999993  C 2.60400000000001 0.807999999999993  1.77799999999999 1.14400000000001  1.16200000000001 1.81599999999997  C 0.545999999999992 2.47399999999999  0.22399999999999 3.37  0.22399999999999 4.49000000000001  L 1.37200000000001 4.49000000000001  C 1.386 3.608  1.596 2.93599999999998  1.988 2.488  C 2.352 2.012  2.88399999999999 1.78800000000001  3.56999999999999 1.78800000000001  C 4.214 1.78800000000001  4.732 1.95600000000002  5.096 2.29199999999997  C 5.46000000000001 2.62799999999999  5.642 3.08999999999997  5.642 3.70600000000002  C 5.642 4.35000000000002  5.376 4.952  4.87200000000001 5.49799999999999  C 4.60599999999999 5.77800000000002  4.08799999999999 6.18400000000003  3.304 6.74400000000003  C 2.24000000000001 7.47199999999998  1.52600000000001 8.07400000000001  1.13399999999999 8.52199999999999  C 0.461999999999989 9.26400000000001  0.139999999999986 10.09  0.139999999999986 11  L 6.804 11  L 6.804 9.97800000000001  L 1.554 9.97800000000001  C 1.73599999999999 9.30599999999998  2.464 8.536  3.738 7.68200000000002  C 4.774 6.98200000000003  5.46000000000001 6.43599999999998  5.81 6.072  C 6.45400000000001 5.37200000000001  6.78999999999999 4.58800000000002  6.78999999999999 3.72000000000003  C 6.78999999999999 2.85199999999998  6.482 2.13799999999998  5.89400000000001 1.60599999999999  Z M 14.317 1.62  C 13.729 1.07400000000001  12.903 0.807999999999993  11.867 0.807999999999993  C 10.817 0.807999999999993  10.005 1.07400000000001  9.417 1.62  C 8.87100000000001 2.11000000000001  8.60499999999999 2.726  8.60499999999999 3.45400000000001  C 8.60499999999999 3.98599999999999  8.73099999999999 4.43400000000003  8.983 4.798  C 9.249 5.19  9.64099999999999 5.48399999999998  10.173 5.666  L 10.173 5.69400000000002  C 9.64099999999999 5.81999999999999  9.20699999999999 6.11399999999998  8.84299999999999 6.56200000000001  C 8.45099999999999 7.03800000000001  8.255 7.59800000000001  8.255 8.24200000000002  C 8.255 9.12400000000002  8.56299999999999 9.83800000000002  9.179 10.37  C 9.809 10.916  10.705 11.196  11.867 11.196  C 13.015 11.196  13.911 10.916  14.555 10.37  C 15.171 9.83800000000002  15.479 9.12400000000002  15.479 8.24200000000002  C 15.479 7.59800000000001  15.283 7.03800000000001  14.891 6.56200000000001  C 14.527 6.11399999999998  14.079 5.81999999999999  13.561 5.69400000000002  L 13.561 5.666  C 14.079 5.48399999999998  14.471 5.19  14.751 4.798  C 15.003 4.43400000000003  15.129 3.98599999999999  15.129 3.45400000000001  C 15.129 2.726  14.849 2.11000000000001  14.317 1.62  Z M 10.201 2.29199999999997  C 10.593 1.928  11.153 1.74599999999998  11.867 1.74599999999998  C 12.567 1.74599999999998  13.127 1.928  13.533 2.29199999999997  C 13.869 2.60000000000002  14.051 3.00599999999997  14.051 3.49599999999998  C 14.051 4  13.897 4.42000000000002  13.589 4.72800000000001  C 13.211 5.09199999999998  12.637 5.28800000000001  11.867 5.28800000000001  C 11.083 5.28800000000001  10.509 5.09199999999998  10.145 4.72800000000001  C 9.83699999999999 4.42000000000002  9.68299999999999 4  9.68299999999999 3.49599999999998  C 9.68299999999999 3.00599999999997  9.851 2.60000000000002  10.201 2.29199999999997  Z M 10.005 6.786  C 10.439 6.38  11.055 6.18400000000003  11.867 6.18400000000003  C 12.665 6.18400000000003  13.295 6.38  13.743 6.786  C 14.135 7.14999999999998  14.345 7.63999999999999  14.345 8.24200000000002  C 14.345 8.82999999999998  14.135 9.30599999999998  13.743 9.67000000000002  C 13.295 10.062  12.679 10.258  11.867 10.258  C 11.055 10.258  10.425 10.062  10.005 9.68400000000003  C 9.58500000000001 9.31999999999999  9.38900000000001 8.82999999999998  9.38900000000001 8.24200000000002  C 9.38900000000001 7.63999999999999  9.58500000000001 7.14999999999998  10.005 6.786  Z " fill-rule="nonzero" fill="#000000" stroke="none" fill-opacity="0.898039215686275" transform="matrix(1 0 0 1 207 216 )" />
  </g>
</svg>