<?xml version="1.0" encoding="utf-8"?>
<svg version="1.1" xmlns:xlink="http://www.w3.org/1999/xlink" width="12px" height="12px" xmlns="http://www.w3.org/2000/svg">
  <g transform="matrix(1 0 0 1 -3718 -851 )">
    <path d="M 4 1  L 4 0  L 3 0  L 3 1  L 1 1  C 0.447720000000004 1  0 1.44771  0 2  L 0 11  C 0 11.5523  0.447720000000004 12  1 12  L 11 12  C 11.5523 12  12 11.5523  12 11  L 12 2  C 12 1.44772  11.5523 1  11 1  L 9 1  L 9 0  L 8 0  L 8 1  L 4 1  Z M 8 2  L 8 3  L 9 3  L 9 2  L 11 2  L 11 4  L 1 4  L 1 2  L 3 2  L 3 3  L 4 3  L 4 2  L 8 2  Z M 1 5  L 11 5  L 11 11  L 1 11  L 1 5  Z " fill-rule="nonzero" fill="#0052d9" stroke="none" transform="matrix(1 0 0 1 3718 851 )" />
  </g>
</svg>