<?xml version="1.0" encoding="utf-8"?>
<svg version="1.1" xmlns:xlink="http://www.w3.org/1999/xlink" width="812px" height="127px" xmlns="http://www.w3.org/2000/svg">
  <g transform="matrix(1 0 0 1 -494.5 -217.5 )">
    <path d="M 0 123  C 121.824742268041 82.7592592592593  169.721649484536 99.462962962963  169.721649484536 99.462962962963  C 169.721649484536 99.462962962963  221.783505154639 131.351851851852  231.154639175258 87.3148148148148  C 240.525773195876 43.2777777777778  260.309278350515 39.4814814814815  283.216494845361 41.7592592592593  C 306.123711340206 44.037037037037  329.030927835052 39.4814814814815  349.855670103093 28.8518518518519  C 370.680412371134 18.2222222222222  385.257731958763 17.462962962963  404 15.9444444444444  C 422.742268041237 14.4259259259259  415.453608247423 22.7777777777778  446.690721649485 21.2592592592593  C 477.927835051546 19.7407407407407  461.268041237113 7.59259259259259  506.041237113402 9.87037037037037  C 550.814432989691 12.1481481481481  529.989690721649 19.7407407407407  591.422680412371 18.2222222222222  C 652.855670103093 16.7037037037037  617.453608247423 -13.6666666666667  685.134020618557 7.59259259259259  C 752.814432989691 28.8518518518519  735.113402061856 31.8888888888889  750.731958762887 33.4074074074074  C 766.350515463918 34.9259259259259  799.670103092784 14.4259259259259  802.79381443299 28.8518518518519  C 805.917525773196 43.2777777777778  808 40.2407407407407  808 40.2407407407407  " stroke-width="3" stroke="#6a708c" fill="none" transform="matrix(1 0 0 1 496 219 )" />
  </g>
</svg>