<?xml version="1.0" encoding="utf-8"?>
<svg version="1.1" xmlns:xlink="http://www.w3.org/1999/xlink" width="86px" height="8px" preserveAspectRatio="xMinYMid meet" viewBox="632 1229  86 6" xmlns="http://www.w3.org/2000/svg">
  <g transform="matrix(0.999390827019096 0.0348994967025006 -0.0348994967025072 0.999390827019078 43.4073716995994 -22.8066591616923 )">
    <path d="M 0 41  C 121.824742268041 26.7838978579719  141.903014416776 26.6324786324786  141.903014416776 26.6324786324786  C 141.903014416776 26.6324786324786  198.028833551769 26.982905982906  221.326343381389 24.1794871794872  C 244.623853211009 21.3760683760684  273.606544973044 20.9218106995885  296.51376146789 21.7264957264957  C 319.420977962735 22.531180753403  328.637905176258 19.5244275614646  349.462647444299 15.7692307692308  C 370.28738971234 12.0140339769969  380.492332220886 13.8526960008442  399.234600262123 13.3162393162393  C 417.97686830336 12.7797826316345  415.453608247423 5.59385881608103  446.690721649484 5.05740213147621  C 477.927835051546 4.52094544687137  484.7156638878 11.4948823467342  529.488859764089 12.2995673736415  C 574.262055640378 13.1042524005487  549.597154477037 7.19457634272448  611.030144167759 6.65811965811966  C 672.463133858481 6.12166297351482  654.448230668414 -0.35042735042735  685.134020618557 0.229291970032714  C 715.819810568699 0.809011290492778  714.017092053884 5.77123562308749  729.635648754915 6.30769230769231  C 745.254205455946 6.84414899229715  747.638269986894 12.7278674686082  766.699868938401 13.3162393162393  C 785.761467889908 13.9046111638703  808 11.7631106890366  808 11.7631106890366  " stroke-width="3" stroke="#3399cc" fill="none" transform="matrix(1 0 0 1 493 1206 )" />
  </g>
</svg>