<?xml version="1.0" encoding="utf-8"?>
<svg version="1.1" xmlns:xlink="http://www.w3.org/1999/xlink" width="18px" height="19px" xmlns="http://www.w3.org/2000/svg">
  <g transform="matrix(1 0 0 1 -338 -91 )">
    <path d="M 9 18.1517857142857  C 9.11538461538462 18.1517857142857  9.17307692307693 18.0952380952381  9.17307692307692 17.9821428571429  C 9.17307692307693 17.8690476190476  9.11538461538462 17.8125  9 17.8125  C 8.57451923076923 17.8125  8.20853365384616 17.6622953869048  7.90204326923077 17.3618861607143  C 7.59555288461539 17.0614769345238  7.44230769230769 16.7027529761905  7.44230769230769 16.2857142857143  C 7.44230769230769 16.172619047619  7.38461538461539 16.1160714285714  7.26923076923077 16.1160714285714  C 7.15384615384615 16.1160714285714  7.09615384615385 16.172619047619  7.09615384615385 16.2857142857143  C 7.09615384615385 16.8017113095238  7.28185096153846 17.2417224702381  7.65324519230769 17.6057477678571  C 8.02463942307692 17.9697730654762  8.47355769230769 18.1517857142857  9 18.1517857142857  Z M 4.84615384615385 6.10714285714286  C 4.84615384615385 9.86755952380953  3.88701923076923 12.8080357142857  1.96875 15  L 16.03125 15  C 14.1129807692308 12.8080357142857  13.1538461538462 9.86755952380953  13.1538461538462 6.10714285714286  C 13.1538461538462 5.74665178571428  13.0673076923077 5.37555803571428  12.8942307692308 4.99386160714286  C 12.7211538461538 4.61216517857143  12.4723557692308 4.24813988095238  12.1478365384615 3.90178571428572  C 11.8233173076923 3.55543154761905  11.3852163461538 3.27092633928572  10.8335336538462 3.04827008928572  C 10.2818509615385 2.82561383928572  9.67067307692308 2.71428571428572  9 2.71428571428572  C 8.32932692307692 2.71428571428572  7.71814903846154 2.82561383928572  7.16646634615385 3.04827008928572  C 6.61478365384615 3.27092633928572  6.17668269230769 3.55543154761905  5.85216346153846 3.90178571428572  C 5.52764423076923 4.24813988095238  5.27884615384615 4.61216517857143  5.10576923076923 4.99386160714286  C 4.93269230769231 5.37555803571428  4.84615384615385 5.74665178571428  4.84615384615385 6.10714285714286  Z M 17.015625 13.9955357142857  C 17.3112980769231 14.3206845238095  17.6394230769231 14.6316964285714  18 14.9285714285714  C 18 15.296130952381  17.8629807692308 15.6142113095238  17.5889423076923 15.8828125  C 17.3149038461538 16.1514136904762  16.9903846153846 16.2857142857143  16.6153846153846 16.2857142857143  L 11.7692307692308 16.2857142857143  C 11.7692307692308 17.0349702380952  11.4987980769231 17.6746651785714  10.9579326923077 18.2047991071429  C 10.4170673076923 18.7349330357143  9.76442307692308 19  9 19  C 8.23557692307692 19  7.58293269230769 18.7349330357143  7.04206730769231 18.2047991071429  C 6.50120192307692 17.6746651785714  6.23076923076923 17.0349702380952  6.23076923076923 16.2857142857143  L 1.38461538461538 16.2857142857143  C 1.00961538461538 16.2857142857143  0.685096153846154 16.1514136904762  0.411057692307692 15.8828125  C 0.137019230769231 15.6142113095238  0 15.296130952381  0 14.9285714285714  C 0.360576923076923 14.6316964285714  0.688701923076923 14.3206845238095  0.984375 13.9955357142857  C 1.28004807692308 13.6703869047619  1.58653846153846 13.248046875  1.90384615384615 12.728515625  C 2.22115384615385 12.208984375  2.48978365384615 11.6488095238095  2.70973557692308 11.0479910714286  C 2.9296875 10.4471726190476  3.10997596153846 9.71912202380953  3.25060096153846 8.86383928571428  C 3.39122596153846 8.00855654761905  3.46153846153846 7.08965773809524  3.46153846153846 6.10714285714286  C 3.46153846153846 5.03273809523809  3.88341346153846 4.03431919642857  4.72716346153846 3.11188616071428  C 5.57091346153846 2.189453125  6.67788461538462 1.62927827380952  8.04807692307692 1.43136160714286  C 7.99038461538462 1.29706101190476  7.96153846153846 1.15922619047619  7.96153846153846 1.01785714285714  C 7.96153846153846 0.735119047619047  8.0625 0.494791666666666  8.26442307692308 0.296875  C 8.46634615384616 0.098958333333334  8.71153846153846 0  9 0  C 9.28846153846154 0  9.53365384615385 0.098958333333334  9.73557692307692 0.296875  C 9.9375 0.494791666666666  10.0384615384615 0.735119047619047  10.0384615384615 1.01785714285714  C 10.0384615384615 1.15922619047619  10.0096153846154 1.29706101190476  9.95192307692308 1.43136160714286  C 11.3221153846154 1.62927827380952  12.4290865384615 2.189453125  13.2728365384615 3.11188616071428  C 14.1165865384615 4.03431919642857  14.5384615384615 5.03273809523809  14.5384615384615 6.10714285714286  C 14.5384615384615 7.08965773809524  14.6087740384615 8.00855654761905  14.7493990384615 8.86383928571428  C 14.8900240384615 9.71912202380953  15.0703125 10.4471726190476  15.2902644230769 11.0479910714286  C 15.5102163461538 11.6488095238095  15.7788461538462 12.208984375  16.0961538461538 12.728515625  C 16.4134615384615 13.248046875  16.7199519230769 13.6703869047619  17.015625 13.9955357142857  Z " fill-rule="nonzero" fill="#000000" stroke="none" transform="matrix(1 0 0 1 338 91 )" />
  </g>
</svg>