<?xml version="1.0" encoding="utf-8"?>
<svg version="1.1" xmlns:xlink="http://www.w3.org/1999/xlink" width="16px" height="17px" xmlns="http://www.w3.org/2000/svg">
  <defs>
    <mask fill="white" id="clip164">
      <path d="M 7.7109375 16.501953125  C 11.917859375 16.501953125  15.328125 12.8785458984375  15.328125 8.40869140625  C 15.328125 3.939052734375  11.917859375 0.3154296875  7.7109375 0.3154296875  C 3.50421875 0.3154296875  0.09375 3.939052734375  0.09375 8.40869140625  C 0.09375 12.8785458984375  3.50421875 16.501953125  7.7109375 16.501953125  Z M 14.319 8.40869140625  C 14.319 12.280076171875  11.35459375 15.4297578125  7.7109375 15.4297578125  C 4.06728125 15.4297578125  1.102875 12.2798603515625  1.102875 8.40869140625  C 1.102875 4.537306640625  4.067078125 1.387625  7.7109375 1.387625  C 11.35459375 1.387625  14.319 4.537306640625  14.319 8.40869140625  Z " fill-rule="evenodd" />
    </mask>
  </defs>
  <g transform="matrix(1 0 0 1 -3495 -35 )">
    <path d="M 7.7109375 16.501953125  C 11.917859375 16.501953125  15.328125 12.8785458984375  15.328125 8.40869140625  C 15.328125 3.939052734375  11.917859375 0.3154296875  7.7109375 0.3154296875  C 3.50421875 0.3154296875  0.09375 3.939052734375  0.09375 8.40869140625  C 0.09375 12.8785458984375  3.50421875 16.501953125  7.7109375 16.501953125  Z M 14.319 8.40869140625  C 14.319 12.280076171875  11.35459375 15.4297578125  7.7109375 15.4297578125  C 4.06728125 15.4297578125  1.102875 12.2798603515625  1.102875 8.40869140625  C 1.102875 4.537306640625  4.067078125 1.387625  7.7109375 1.387625  C 11.35459375 1.387625  14.319 4.537306640625  14.319 8.40869140625  Z " fill-rule="nonzero" fill="#ffffff" stroke="none" transform="matrix(1 0 0 1 3495 35 )" />
    <path d="M 7.7109375 16.501953125  C 11.917859375 16.501953125  15.328125 12.8785458984375  15.328125 8.40869140625  C 15.328125 3.939052734375  11.917859375 0.3154296875  7.7109375 0.3154296875  C 3.50421875 0.3154296875  0.09375 3.939052734375  0.09375 8.40869140625  C 0.09375 12.8785458984375  3.50421875 16.501953125  7.7109375 16.501953125  Z " stroke-width="2" stroke="#ffffff" fill="none" transform="matrix(1 0 0 1 3495 35 )" mask="url(#clip164)" />
    <path d="M 14.319 8.40869140625  C 14.319 12.280076171875  11.35459375 15.4297578125  7.7109375 15.4297578125  C 4.06728125 15.4297578125  1.102875 12.2798603515625  1.102875 8.40869140625  C 1.102875 4.537306640625  4.067078125 1.387625  7.7109375 1.387625  C 11.35459375 1.387625  14.319 4.537306640625  14.319 8.40869140625  Z " stroke-width="2" stroke="#ffffff" fill="none" transform="matrix(1 0 0 1 3495 35 )" mask="url(#clip164)" />
  </g>
</svg>