<?xml version="1.0" encoding="utf-8"?>
<svg version="1.1" xmlns:xlink="http://www.w3.org/1999/xlink" width="32px" height="32px" xmlns="http://www.w3.org/2000/svg">
  <defs>
    <mask fill="white" id="clip228">
      <path d="M 851 954.5  C 842.3975 954.5  835.5 947.6025  835.5 939  L 835.5 939  C 835.5 930.3975  842.3975 923.5  851 923.5  L 851 923.5  C 859.6025 923.5  866.5 930.3975  866.5 939  L 866.5 939  C 866.5 947.6025  859.6025 954.5  851 954.5  L 851 954.5  " fill-rule="evenodd" />
    </mask>
  </defs>
  <g transform="matrix(1 0 0 1 -835 -923 )">
    <path d="M 835 923  L 867 923  L 867 955  L 835 955  L 835 923  " fill-rule="nonzero" fill="#cccccc" stroke="none" mask="url(#clip228)" />
    <path d="M 837 925  L 865 925  L 865 953  L 837 953  L 837 925  " fill-rule="nonzero" fill="#ffffff" stroke="none" mask="url(#clip228)" />
    <path d="M 854.04 932.6  C 852.696 932.6  851.64 931.544  851.64 930.2  C 851.64 928.856  852.696 927.8  854.04 927.8  C 855.384 927.8  856.44 928.856  856.44 930.2  C 856.44 931.544  855.384 932.6  854.04 932.6  " fill-rule="nonzero" fill="#cccccc" stroke="none" mask="url(#clip228)" />
    <path d="M 838 952  L 838 937.7  L 844.5 931.2  L 853.6 936.4  L 858.8 935.1  L 864 936.4  L 864 952  L 838 952  " fill-rule="nonzero" fill="#169bd5" stroke="none" mask="url(#clip228)" />
    <path d="M 851 954.5  C 842.3975 954.5  835.5 947.6025  835.5 939  L 835.5 939  C 835.5 930.3975  842.3975 923.5  851 923.5  L 851 923.5  C 859.6025 923.5  866.5 930.3975  866.5 939  L 866.5 939  C 866.5 947.6025  859.6025 954.5  851 954.5  L 851 954.5  Z " stroke-width="1" stroke="#797979" fill="none" />
  </g>
</svg>