<?xml version="1.0" encoding="utf-8"?>
<svg version="1.1" xmlns:xlink="http://www.w3.org/1999/xlink" width="26px" height="25px" xmlns="http://www.w3.org/2000/svg">
  <g transform="matrix(1 0 0 1 -3246 -894 )">
    <path d="M 25.125 8.96345305608066  C 25.7083333333333 9.05797101449276  26 9.29951690821256  26 9.68809073724008  C 26 9.91913463558076  25.8645833333333 10.1711825246797  25.59375 10.4442344045369  L 19.921875 16.0207939508507  L 21.265625 23.8972904851922  C 21.2760416666667 23.970804452846  21.28125 24.0758244066373  21.28125 24.2123503465658  C 21.28125 24.4328922495274  21.2265625 24.6193026675068  21.1171875 24.7715816005041  C 21.0078125 24.9238605335014  20.8489583333333 25  20.640625 25  C 20.4427083333333 25  20.234375 24.9369880277253  20.015625 24.8109640831758  L 13 21.0932577189666  L 5.984375 24.8109640831758  C 5.75520833333333 24.9369880277253  5.546875 25  5.359375 25  C 5.140625 25  4.9765625 24.9238605335014  4.8671875 24.7715816005041  C 4.7578125 24.6193026675068  4.703125 24.4328922495274  4.703125 24.2123503465658  C 4.703125 24.1493383742911  4.71354166666667 24.0443184204999  4.734375 23.8972904851922  L 6.078125 16.0207939508507  L 0.390625 10.4442344045369  C 0.130208333333333 10.1606805293006  0 9.90863264020164  0 9.68809073724008  C 0 9.29951690821256  0.291666666666667 9.05797101449276  0.875 8.96345305608066  L 8.71875 7.81348456206679  L 12.234375 0.645872715816004  C 12.4322916666667 0.215290905272  12.6875 0  13 0  C 13.3125 0  13.5677083333333 0.215290905272  13.765625 0.645872715816004  L 17.28125 7.81348456206679  L 25.125 8.96345305608066  Z " fill-rule="nonzero" fill="#000000" stroke="none" transform="matrix(1 0 0 1 3246 894 )" />
  </g>
</svg>