<?xml version="1.0" encoding="utf-8"?>
<svg version="1.1" xmlns:xlink="http://www.w3.org/1999/xlink" width="50px" height="50px" xmlns="http://www.w3.org/2000/svg">
  <g transform="matrix(1 0 0 1 -682 -4406 )">
    <path d="M 35.7142857142857 11  L 47.3214285714286 11  C 48.0654761904762 10.7142857142857  48.6979166666667 10.9747023809524  49.21875 11.4955357142857  C 49.7395833333333 12.016369047619  50 12.6488095238095  50 13.3928571428571  L 50 47.3214285714286  C 50 48.0654761904762  49.7395833333333 48.6979166666667  49.21875 49.21875  C 48.6979166666667 49.7395833333333  48.0654761904762 50  47.3214285714286 50  L 20.5357142857143 50  C 19.7916666666667 50  19.1592261904762 49.7395833333333  18.6383928571429 49.21875  C 18.1175595238095 48.6979166666667  17.8571428571429 48.0654761904762  17.8571428571429 47.3214285714286  L 17.8571428571429 39  L 2.67857142857143 39  C 1.93452380952381 39.2857142857143  1.30208333333333 39.0252976190476  0.78125 38.5044642857143  C 0.260416666666667 37.983630952381  0 37.3511904761905  0 36.6071428571429  L 0 17.8571428571429  C 0 17.1130952380952  0.186011904761905 16.2946428571429  0.558035714285714 15.4017857142857  C 0.930059523809524 14.5089285714286  1.3764880952381 13.8020833333333  1.89732142857143 13.28125  L 13.28125 1.89732142857143  C 13.8020833333333 1.37648809523809  14.5089285714286 0.930059523809523  15.4017857142857 0.558035714285715  C 16.2946428571429 0.186011904761907  17.1130952380952 0  17.8571428571429 0  L 29.4642857142857 0  C 30.2083333333333 0  30.8407738095238 0.260416666666669  31.3616071428571 0.78125  C 31.8824404761905 1.30208333333333  32.1428571428571 1.93452380952381  32.1428571428571 2.67857142857143  L 32.1428571428571 11.8303571428571  C 33.4077380952381 11.0863095238095  34.5982142857143 10.7142857142857  35.7142857142857 11  Z M 32.1428571428571 25  L 32.1428571428571 16.6573660714286  L 23.8002232142857 25  L 32.1428571428571 25  Z M 14.2857142857143 14.2857142857143  L 14.2857142857143 5.94308035714285  L 5.94308035714286 14.2857142857143  L 14.2857142857143 14.2857142857143  Z M 18.4151785714286 26.1160714285714  C 18.7872023809524 25.2232142857143  19.233630952381 24.516369047619  19.7544642857143 23.9955357142857  L 28 15.1785714285714  L 28 4  L 18 4  L 18 15.1785714285714  C 17.8571428571429 15.922619047619  17.5967261904762 16.5550595238095  17.0758928571429 17.0758928571429  C 16.5550595238095 17.5967261904762  15.922619047619 17.8571428571429  15.1785714285714 18  L 4 18  L 4 35  L 17.8571428571429 35  L 17.8571428571429 28.5714285714286  C 17.8571428571429 27.827380952381  18.0431547619048 27.0089285714286  18.4151785714286 26.1160714285714  Z M 22 46  L 46 46  L 46 15  L 35 15  L 35 25.8928571428571  C 35.7142857142857 26.6369047619048  35.4538690476191 27.2693452380952  34.9330357142857 27.7901785714286  C 34.4122023809524 28.3110119047619  33.7797619047619 28.5714285714286  33.0357142857143 28  L 22 28  L 22 46  Z " fill-rule="nonzero" fill="#aaaaaa" stroke="none" transform="matrix(1 0 0 1 682 4406 )" />
  </g>
</svg>