<?xml version="1.0" encoding="utf-8"?>
<svg version="1.1" xmlns:xlink="http://www.w3.org/1999/xlink" width="73px" height="74px" xmlns="http://www.w3.org/2000/svg">
  <defs>
    <mask fill="white" id="clip124">
      <path d="M 1508 4404  C 1505.78 4404  1504 4402.22  1504 4400  L 1504 4334  C 1504 4331.78  1505.78 4330  1508 4330  L 1573 4330  C 1575.22 4330  1577 4331.78  1577 4334  L 1577 4400  C 1577 4402.22  1575.22 4404  1573 4404  " fill-rule="evenodd" />
    </mask>
  </defs>
  <g transform="matrix(1 0 0 1 -1504 -4330 )">
    <path d="M 1504 4330  L 1577 4330  L 1577 4404  L 1504 4404  L 1504 4330  " fill-rule="nonzero" fill="#cccccc" stroke="none" mask="url(#clip124)" />
    <path d="M 1509 4335  L 1572 4335  L 1572 4399  L 1509 4399  L 1509 4335  " fill-rule="nonzero" fill="#ffffff" stroke="none" mask="url(#clip124)" />
    <path d="M 1547.435 4352.05  C 1544.369 4352.05  1541.96 4349.641  1541.96 4346.575  C 1541.96 4343.509  1544.369 4341.1  1547.435 4341.1  C 1550.501 4341.1  1552.91 4343.509  1552.91 4346.575  C 1552.91 4349.641  1550.501 4352.05  1547.435 4352.05  " fill-rule="nonzero" fill="#cccccc" stroke="none" mask="url(#clip124)" />
    <path d="M 1511 4397  L 1511 4364  L 1525.75 4349  L 1546.4 4361  L 1558.2 4358  L 1570 4361  L 1570 4397  L 1511 4397  " fill-rule="nonzero" fill="#169bd5" stroke="none" mask="url(#clip124)" />
  </g>
</svg>