<?xml version="1.0" encoding="utf-8"?>
<svg version="1.1" xmlns:xlink="http://www.w3.org/1999/xlink" width="55px" height="56px" xmlns="http://www.w3.org/2000/svg">
  <defs>
    <mask fill="white" id="clip22">
      <path d="M 829 4394  C 826.78 4394  825 4392.22  825 4390  L 825 4342  C 825 4339.78  826.78 4338  829 4338  L 876 4338  C 878.22 4338  880 4339.78  880 4342  L 880 4390  C 880 4392.22  878.22 4394  876 4394  " fill-rule="evenodd" />
    </mask>
  </defs>
  <g transform="matrix(1 0 0 1 -825 -4338 )">
    <path d="M 825 4338  L 880 4338  L 880 4394  L 825 4394  L 825 4338  " fill-rule="nonzero" fill="#cccccc" stroke="none" mask="url(#clip22)" />
    <path d="M 829 4342  L 876 4342  L 876 4390  L 829 4390  L 829 4342  " fill-rule="nonzero" fill="#ffffff" stroke="none" mask="url(#clip22)" />
    <path d="M 857.725 4354.65  C 855.415 4354.65  853.6 4352.835  853.6 4350.525  C 853.6 4348.215  855.415 4346.4  857.725 4346.4  C 860.035 4346.4  861.85 4348.215  861.85 4350.525  C 861.85 4352.835  860.035 4354.65  857.725 4354.65  " fill-rule="nonzero" fill="#cccccc" stroke="none" mask="url(#clip22)" />
    <path d="M 831 4389  L 831 4364.25  L 842 4353  L 857.4 4362  L 866.2 4359.75  L 875 4362  L 875 4389  L 831 4389  " fill-rule="nonzero" fill="#169bd5" stroke="none" mask="url(#clip22)" />
  </g>
</svg>