<?xml version="1.0" encoding="utf-8"?>
<svg version="1.1" xmlns:xlink="http://www.w3.org/1999/xlink" width="23px" height="14px" xmlns="http://www.w3.org/2000/svg">
  <g transform="matrix(1 0 0 1 -339 -172 )">
    <path d="M 6.60416665136719 13.0104166513672  C 3.08910436473919 13.0104166260182  0.239583373981818 10.1608956352608  0.239583348632813 6.64583334863281  C 0.239583348632813 3.13077104408036  3.08910434681474 0.281250025349006  6.60416665136719 0.281250000000002  L 8.07291665136719 0.281250000000002  L 8.07291665136719 3.21875  L 6.60416665136719 3.21875  C 4.71104417370186 3.21874997705078  3.176686694918 4.75310745583465  3.176686694918 6.6458333256836  C 3.176686694918 8.53855919553255  4.71104417370186 10.0729166743164  6.60377004355081 10.0729166743164  L 8.07291665136719 10.0729166513672  L 8.07291665136719 13.0104166513672  L 6.60416665136719 13.0104166513672  Z M 14.9270833486328 3.21875  L 14.9270833486328 0.28125  L 16.3958333486328 0.28125  C 19.9106845876265 0.281548483901634  22.7598762118982 3.13098207401616  22.7598762118982 6.64583332568359  C 22.7598762118982 10.160684577351  19.9106845876265 13.0101181674656  16.3958333486328 13.0104166513672  L 14.9270833486328 13.0104166513672  L 14.9270833486328 10.0729166513672  L 16.3958333486328 10.0729166513672  C 18.2889558263113 10.0729166743164  19.8233133050952 8.53855919553255  19.8233133050952 6.64583332568359  C 19.8233133050952 4.75310745583464  18.2889558263113 3.21874997705078  16.3962299564623 3.21874997705078  L 14.9270833486328 3.21875  Z " fill-rule="nonzero" fill="#000000" stroke="none" transform="matrix(1 0 0 1 339 172 )" />
  </g>
</svg>