<?xml version="1.0" encoding="utf-8"?>
<svg version="1.1" xmlns:xlink="http://www.w3.org/1999/xlink" width="31px" height="47px" xmlns="http://www.w3.org/2000/svg">
  <g transform="matrix(1 0 0 1 -237 -162 )">
    <path d="M 30 2.9375  C 30.1875 1.3126953125  28.87021484375 0  27.25 0  L 3.75 0  C 2.12978515625 0  0.8125 1.3126953125  1 2.9375  L 1 45.53125  C 0.8125 46.34365234375  1.46884765625 47  2.28125 47  L 28.71875 47  C 29.53115234375 47  30.1875 46.34365234375  30 45.53125  L 30 2.9375  Z M 17.68935546875 36.6544921875  C 17.684765625 37.24658203125  17.44609375 37.77900390625  17.060546875 38.16455078125  C 16.675 38.55009765625  16.13798828125 38.793359375  15.55048828125 38.793359375  L 15.4541015625 38.793359375  C 14.27451171875 38.793359375  13.315234375 37.83408203125  13.315234375 36.6544921875  C 13.315234375 36.06240234375  13.55390625 35.52998046875  13.94404296875 35.14443359375  C 14.3341796875 34.75888671875  14.86201171875 34.515625  15.4541015625 34.515625  L 15.55048828125 34.515625  C 16.730078125 34.515625  17.68935546875 35.47490234375  17.68935546875 36.6544921875  Z M 15.46787109375 32.3125  C 14.65546875 32.3125  13.99912109375 31.65615234375  13.99912109375 30.84375  C 13.99912109375 30.43984375  14.16435546875 30.07265625  14.43056640625 29.8064453125  C 14.69677734375 29.540234375  15.06396484375 29.375  15.46787109375 29.375  L 15.53212890625 29.375  C 16.34453125 29.375  17.00087890625 30.03134765625  17.00087890625 30.84375  C 17.00087890625 31.24765625  16.83564453125 31.61484375  16.56943359375 31.8810546875  C 16.30322265625 32.147265625  15.93603515625 32.3125  15.53212890625 32.3125  L 15.46787109375 32.3125  Z M 24.294140625 18.359375  L 24.294140625 25.703125  C 24.294140625 26.10703125  23.963671875 26.4375  23.559765625 26  L 7.4126953125 26  C 7.0087890625 26.4375  6.6783203125 26.10703125  6.6783203125 25.703125  L 6.6783203125 18.359375  C 6.6783203125 17.95546875  7.0087890625 17.625  7.4126953125 18  L 23.559765625 18  C 23.963671875 17.625  24.294140625 17.95546875  24.294140625 18.359375  Z M 24.294140625 12.484375  L 24.294140625 13.953125  C 24.294140625 14.35703125  23.963671875 14.6875  23.559765625 15  L 7.4126953125 15  C 7.0087890625 14.6875  6.6783203125 14.35703125  6.6783203125 13.953125  L 6.6783203125 12.484375  C 6.6783203125 12.08046875  7.0087890625 11.75  7.4126953125 12  L 23.559765625 12  C 23.963671875 11.75  24.294140625 12.08046875  24.294140625 12.484375  Z M 24.3125 6.609375  L 24.3125 8.078125  C 24.3125 8.48203125  23.98203125 8.8125  23.578125 9  L 7.4310546875 9  C 7.0271484375 8.8125  6.6966796875 8.48203125  6.6966796875 8.078125  L 6.6966796875 6.609375  C 6.6966796875 6.20546875  7.0271484375 5.875  7.4310546875 6  L 23.578125 6  C 23.98203125 5.875  24.3125 6.20546875  24.3125 6.609375  Z M 21.173046875 21  C 21.2740234375 20.5625  21.356640625 20.6451171875  21.356640625 20.74609375  L 21.356640625 23.31640625  C 21.356640625 23.4173828125  21.2740234375 23.5  21.173046875 23  L 9.7994140625 23  C 9.6984375 23.5  9.6158203125 23.4173828125  9.6158203125 23.31640625  L 9.6158203125 20.74609375  C 9.6158203125 20.6451171875  9.6984375 20.5625  9.7994140625 21  L 21.173046875 21  Z " fill-rule="nonzero" fill="#000000" stroke="none" transform="matrix(1 0 0 1 237 162 )" />
  </g>
</svg>