<?xml version="1.0" encoding="utf-8"?>
<svg version="1.1" xmlns:xlink="http://www.w3.org/1999/xlink" width="41px" height="46px" xmlns="http://www.w3.org/2000/svg">
  <g transform="matrix(1 0 0 1 -427 -161 )">
    <path d="M 40 25.26675  C 40.0840007239211 23.8988522379766  38.9758470381026 22.7895573022241  37.60795 22.78815  L 31.98775 22.78815  L 31.4752 1.75575  C 31.4752 1.01074548671575  30.8712545132843 0.406800000000003  30.12625 0.406800000000003  C 29.3812454867158 0.406800000000003  28.7773 1.01074548671575  28.7773 1.75575  L 28.35145 23  L 12.1513 23  L 11.6413 1.75575  C 11.6413 1.00933716060369  11.0362128393963 0.404250000000003  10.2898 0.404250000000003  C 9.54338716060368 0.404250000000003  8.9383 1.00933716060369  8.9383 1.75575  L 8.515 22.78815  L 2.8948 22.78815  C 1.5259070190694 22.78815  0.416199999999999 23.8978570190694  1 25.26675  L 1 42.6246  C 0.416199999999999 43.99395  1.52545 45.1032  2.8948 45  L 37.60795 45  C 38.9758470381026 45.1017926977759  40.0840007239211 43.9924977620234  40 42.6246  L 40 25.26675  Z M 6.61525 30.2265  C 5.9308035095347 30.2265  5.37595 29.6716464904653  5.37595 28.9872  C 5.37595 28.3027535095347  5.9308035095347 27.7479  6.61525 27.7479  C 7.2996964904653 27.7479  7.85455 28.3027535095347  7.85455 28.9872  C 7.85455 29.6716464904653  7.2996964904653 30.2265  6.61525 30.2265  Z M 11.57245 30.2265  C 10.8880035095347 30.2265  10.33315 29.6716464904653  10.33315 28.9872  C 10.33315 28.3027535095347  10.8880035095347 27.7479  11.57245 27.7479  C 12.2568964904653 27.7479  12.81175 28.3027535095347  12.81175 28.9872  C 12.81175 29.6716464904653  12.2568964904653 30.2265  11.57245 30.2265  Z M 17.7190803299544 28.9858671945837  C 17.7190803299544 29.6503451478166  17.1960266676785 30.1970873222678  16.5322 30.2265  C 16.5138880051524 30.2273113636124  16.4955602908439 30.2277171945837  16.4772303299544 30.2277171945837  C 15.7913755133771 30.2277171945837  15.2353803299544 29.6717220111611  15.2353803299544 28.9858671945837  C 15.2353803299544 28.3000123780063  15.7913755133771 27.7440171945837  16.4772303299544 27.7440171945837  C 16.4964112733201 27.7440171945837  16.5155896424258 27.7444615822897  16.53475 27.74535  C 17.1975281697142 27.7760813609209  17.7190803299544 28.3223769393473  17.7190803299544 28.9858671945837  Z M 30.1696 41.3802  L 30.16705 41.3802  C 30.16705 42.0653506535213  29.6116256535213 42.620775  28.926475 42.620775  C 28.2413243464787 42.620775  27.6859 42.0653506535213  27.6859 41.3802  L 27.6859 36.4281  C 27.6887030674379 35.7410064872045  28.2457521887469 35.1850965256528  28.93285 35.1837  C 29.61625 35.1837  30.1696 35.73705  30.1696 36.42555  L 30.1696 41.3802  Z M 35.12935 41.3802  L 35.1268 41.3802  C 35.1268 42.0646464904653  34.5719464904653 42.6195  33.8875 42.6195  C 33.2030535095347 42.6195  32.6482 42.0646464904653  32.6482 41.3802  L 32.6482 36.4281  C 32.6473115822897 36.4089396424259  32.6468671945837 36.38976127332  32.6468671945837 36.3705803299544  C 32.6468671945837 35.684725513377  33.2028623780063 35.1287303299544  33.8887171945837 35.1287303299544  C 34.5745720111611 35.1287303299544  35.1305671945837 35.684725513377  35.1305671945837 36.3705803299544  C 35.1305671945837 36.3889102908438  35.1301613636124 36.4072380051525  35.12935 36.42555  L 35.12935 41.3802  Z " fill-rule="nonzero" fill="#000000" stroke="none" transform="matrix(1 0 0 1 427 161 )" />
  </g>
</svg>