<svg class="icon" viewBox="0 0 1024 1024" version="1.1" xmlns="http://www.w3.org/2000/svg" p-id="20152" height="128" width="128"><path d="M497.277017 1024a403.715475 403.715475 0 0 1-233.666606-75.479457A395.097195 395.097195 0 0 1 118.99937 762.532489a412.936109 412.936109 0 0 1-24.047783-203.131946 436.705882 436.705882 0 0 1 77.981539-189.972851A196.413394 196.413394 0 0 1 280.707967 297.886697a164.164344 164.164344 0 0 1-1.204706 17.838914v0.556018a168.427149 168.427149 0 0 0-1.158371 17.560905 135.90009 135.90009 0 0 0 33.175747 107.728507 37.855566 37.855566 0 0 0 30.163982 17.097556 39.61629 39.61629 0 0 0 10.981357-1.668054 38.689593 38.689593 0 0 0 28.217919-41.145339v-0.741358a675.237647 675.237647 0 0 0-10.008326-73.579728A234.871312 234.871312 0 0 1 378.474483 179.732851a276.016652 276.016652 0 0 1 123.158009-125.752761 518.950226 518.950226 0 0 1 161.708597-51.292669 29.793303 29.793303 0 0 0 7.691584-1.343711 30.62733 30.62733 0 0 1 7.598914-1.34371h5.189502c-5.560181 7.691584-11.259367 15.151493-15.800181 21.128688v0.278009c-7.228235 9.266968-13.900452 18.533937-19.970316 27.337556a211.286878 211.286878 0 0 0-12.788417 231.071856 13.483439 13.483439 0 0 1 2.363077 3.614117 12.927421 12.927421 0 0 0 2.826426 4.077466c21.175023-18.255928 37.99457-32.434389 51.292669-43.647421a259.753122 259.753122 0 0 1 94.986426-50.968325 176.628416 176.628416 0 0 1 37.99457-3.892127 336.854299 336.854299 0 0 1 69.872941 8.942624l-8.201267 11.305702-0.509683 0.695022c-3.614118 5.004163-7.320905 10.193665-11.954389 16.217195a349.133032 349.133032 0 0 0-64.266426 148.688507 222.40724 222.40724 0 0 0 2.641086 100.129593 145.630407 145.630407 0 0 0 12.649412 30.766334c25.298824-38.735928 49.995294-77.888869 82.383348-130.988597 2.177738 9.266968 3.938462 18.116923 5.560181 26.920543 2.131403 11.305701 4.170136 21.962715 7.042896 31.924706a530.765611 530.765611 0 0 1 11.166697 156.148416 508.339548 508.339548 0 0 1-37.067873 152.117285 466.684525 466.684525 0 0 1-123.343348 176.999095 418.866968 418.866968 0 0 1-213.140272 100.083258 388.100633 388.100633 0 0 1-60.281629 5.050498z m27.383891-510.609955a11.722715 11.722715 0 0 1-2.502081 7.691584 155.314389 155.314389 0 0 1-33.453756 84.746425 275.275294 275.275294 0 0 1-21.82371 25.762172 276.340995 276.340995 0 0 0-21.638371 25.437828 282.642534 282.642534 0 0 0-40.913665 56.482172 76.452489 76.452489 0 0 0-7.135566 61.62534 85.256109 85.256109 0 0 0 42.998733 46.334841 182.97629 182.97629 0 0 0 80.159276 18.533937c5.791855 0 11.67638-0.278009 17.468235-0.787692a117.13448 117.13448 0 0 0 104.763077-86.970498 127.37448 127.37448 0 0 0-10.332669-97.303168 510.192941 510.192941 0 0 0-89.982263-121.582624l-1.25104-1.34371c-5.421176-6.023529-11.027692-12.232398-16.541539-18.533937z" p-id="20153"></path></svg>